<svg width="42" height="42" viewBox="0 0 42 42" fill="none" xmlns="http://www.w3.org/2000/svg">
<path d="M28.5 34.5V31.5C28.5 29.9087 27.8679 28.3826 26.7426 27.2574C25.6174 26.1321 24.0913 25.5 22.5 25.5H10.5C8.9087 25.5 7.38258 26.1321 6.25736 27.2574C5.13214 28.3826 4.5 29.9087 4.5 31.5V34.5M37.5 34.5V31.5C37.499 30.1706 37.0565 28.8792 36.2421 27.8285C35.4276 26.7778 34.2872 26.0274 33 25.695M27 7.695C28.2906 8.02545 29.4346 8.77605 30.2515 9.82847C31.0684 10.8809 31.5118 12.1752 31.5118 13.5075C31.5118 14.8398 31.0684 16.1341 30.2515 17.1865C29.4346 18.2389 28.2906 18.9895 27 19.32M22.5 13.5C22.5 16.8137 19.8137 19.5 16.5 19.5C13.1863 19.5 10.5 16.8137 10.5 13.5C10.5 10.1863 13.1863 7.5 16.5 7.5C19.8137 7.5 22.5 10.1863 22.5 13.5Z" stroke="#F1F1F1" stroke-width="1.5" stroke-linecap="round" stroke-linejoin="round"/>
</svg>
