<svg width="1918" height="436" viewBox="0 0 1918 436" fill="none" xmlns="http://www.w3.org/2000/svg">
<path d="M0.520833 427.5C0.796976 427.5 1.02083 427.276 1.02083 427C1.02083 426.724 0.796976 426.5 0.520833 426.5V427.5ZM10.5625 426.5C10.2864 426.5 10.0625 426.724 10.0625 427C10.0625 427.276 10.2864 427.5 10.5625 427.5V426.5ZM20.6042 427.5C20.8803 427.5 21.1042 427.276 21.1042 427C21.1042 426.724 20.8803 426.5 20.6042 426.5V427.5ZM30.6458 426.5C30.3697 426.5 30.1458 426.724 30.1458 427C30.1458 427.276 30.3697 427.5 30.6458 427.5V426.5ZM40.6875 427.5C40.9636 427.5 41.1875 427.276 41.1875 427C41.1875 426.724 40.9636 426.5 40.6875 426.5V427.5ZM50.7292 426.5C50.453 426.5 50.2292 426.724 50.2292 427C50.2292 427.276 50.453 427.5 50.7292 427.5V426.5ZM60.7708 427.5C61.047 427.5 61.2708 427.276 61.2708 427C61.2708 426.724 61.047 426.5 60.7708 426.5V427.5ZM70.8125 426.5C70.5364 426.5 70.3125 426.724 70.3125 427C70.3125 427.276 70.5364 427.5 70.8125 427.5V426.5ZM80.8542 427.5C81.1303 427.5 81.3542 427.276 81.3542 427C81.3542 426.724 81.1303 426.5 80.8542 426.5V427.5ZM90.8958 426.5C90.6197 426.5 90.3958 426.724 90.3958 427C90.3958 427.276 90.6197 427.5 90.8958 427.5V426.5ZM100.937 427.5C101.214 427.5 101.437 427.276 101.437 427C101.437 426.724 101.214 426.5 100.937 426.5V427.5ZM110.979 426.5C110.703 426.5 110.479 426.724 110.479 427C110.479 427.276 110.703 427.5 110.979 427.5V426.5ZM121.021 427.5C121.297 427.5 121.521 427.276 121.521 427C121.521 426.724 121.297 426.5 121.021 426.5V427.5ZM131.062 426.5C130.786 426.5 130.562 426.724 130.562 427C130.562 427.276 130.786 427.5 131.062 427.5V426.5ZM141.104 427.5C141.38 427.5 141.604 427.276 141.604 427C141.604 426.724 141.38 426.5 141.104 426.5V427.5ZM151.146 426.5C150.87 426.5 150.646 426.724 150.646 427C150.646 427.276 150.87 427.5 151.146 427.5V426.5ZM161.188 427.5C161.464 427.5 161.688 427.276 161.688 427C161.688 426.724 161.464 426.5 161.188 426.5V427.5ZM171.229 426.5C170.953 426.5 170.729 426.724 170.729 427C170.729 427.276 170.953 427.5 171.229 427.5V426.5ZM181.271 427.5C181.547 427.5 181.771 427.276 181.771 427C181.771 426.724 181.547 426.5 181.271 426.5V427.5ZM191.313 426.5C191.036 426.5 190.813 426.724 190.813 427C190.813 427.276 191.036 427.5 191.313 427.5V426.5ZM201.354 427.5C201.63 427.5 201.854 427.276 201.854 427C201.854 426.724 201.63 426.5 201.354 426.5V427.5ZM211.396 426.5C211.12 426.5 210.896 426.724 210.896 427C210.896 427.276 211.12 427.5 211.396 427.5V426.5ZM221.438 427.5C221.714 427.5 221.938 427.276 221.938 427C221.938 426.724 221.714 426.5 221.438 426.5V427.5ZM231.479 426.5C231.203 426.5 230.979 426.724 230.979 427C230.979 427.276 231.203 427.5 231.479 427.5V426.5ZM241.521 427.5C241.797 427.5 242.021 427.276 242.021 427C242.021 426.724 241.797 426.5 241.521 426.5V427.5ZM251.563 426.5C251.286 426.5 251.063 426.724 251.063 427C251.063 427.276 251.286 427.5 251.563 427.5V426.5ZM261.604 427.5C261.88 427.5 262.104 427.276 262.104 427C262.104 426.724 261.88 426.5 261.604 426.5V427.5ZM271.646 426.5C271.37 426.5 271.146 426.724 271.146 427C271.146 427.276 271.37 427.5 271.646 427.5V426.5ZM281.688 427.5C281.964 427.5 282.188 427.276 282.188 427C282.188 426.724 281.964 426.5 281.688 426.5V427.5ZM291.729 426.5C291.453 426.5 291.229 426.724 291.229 427C291.229 427.276 291.453 427.5 291.729 427.5V426.5ZM301.771 427.5C302.047 427.5 302.271 427.276 302.271 427C302.271 426.724 302.047 426.5 301.771 426.5V427.5ZM311.812 426.5C311.536 426.5 311.312 426.724 311.312 427C311.312 427.276 311.536 427.5 311.812 427.5V426.5ZM321.854 427.5C322.13 427.5 322.354 427.276 322.354 427C322.354 426.724 322.13 426.5 321.854 426.5V427.5ZM331.896 426.5C331.62 426.5 331.396 426.724 331.396 427C331.396 427.276 331.62 427.5 331.896 427.5V426.5ZM341.937 427.5C342.214 427.5 342.437 427.276 342.437 427C342.437 426.724 342.214 426.5 341.937 426.5V427.5ZM351.979 426.5C351.703 426.5 351.479 426.724 351.479 427C351.479 427.276 351.703 427.5 351.979 427.5V426.5ZM362.021 427.5C362.297 427.5 362.521 427.276 362.521 427C362.521 426.724 362.297 426.5 362.021 426.5V427.5ZM372.062 426.5C371.786 426.5 371.562 426.724 371.562 427C371.562 427.276 371.786 427.5 372.062 427.5V426.5ZM382.104 427.5C382.38 427.5 382.604 427.276 382.604 427C382.604 426.724 382.38 426.5 382.104 426.5V427.5ZM392.146 426.5C391.87 426.5 391.646 426.724 391.646 427C391.646 427.276 391.87 427.5 392.146 427.5V426.5ZM402.187 427.5C402.464 427.5 402.687 427.276 402.687 427C402.687 426.724 402.464 426.5 402.187 426.5V427.5ZM412.229 426.5C411.953 426.5 411.729 426.724 411.729 427C411.729 427.276 411.953 427.5 412.229 427.5V426.5ZM422.271 427.5C422.547 427.5 422.771 427.276 422.771 427C422.771 426.724 422.547 426.5 422.271 426.5V427.5ZM432.312 426.5C432.036 426.5 431.812 426.724 431.812 427C431.812 427.276 432.036 427.5 432.312 427.5V426.5ZM442.354 427.5C442.63 427.5 442.854 427.276 442.854 427C442.854 426.724 442.63 426.5 442.354 426.5V427.5ZM452.396 426.5C452.12 426.5 451.896 426.724 451.896 427C451.896 427.276 452.12 427.5 452.396 427.5V426.5ZM462.437 427.5C462.713 427.5 462.937 427.276 462.937 427C462.937 426.724 462.713 426.5 462.437 426.5V427.5ZM472.479 426.5C472.203 426.5 471.979 426.724 471.979 427C471.979 427.276 472.203 427.5 472.479 427.5V426.5ZM483.433 426.324C483.688 426.218 483.809 425.925 483.704 425.67C483.598 425.415 483.305 425.294 483.05 425.4L483.433 426.324ZM490.9 417.55C490.794 417.805 490.915 418.098 491.17 418.204C491.425 418.309 491.718 418.188 491.824 417.933L490.9 417.55ZM493 406.931C493 406.654 492.776 406.431 492.5 406.431C492.224 406.431 492 406.654 492 406.931H493ZM492 396.792C492 397.068 492.224 397.292 492.5 397.292C492.776 397.292 493 397.068 493 396.792H492ZM493 386.653C493 386.377 492.776 386.153 492.5 386.153C492.224 386.153 492 386.377 492 386.653H493ZM492 376.514C492 376.79 492.224 377.014 492.5 377.014C492.776 377.014 493 376.79 493 376.514H492ZM493 366.375C493 366.099 492.776 365.875 492.5 365.875C492.224 365.875 492 366.099 492 366.375H493ZM492 356.236C492 356.512 492.224 356.736 492.5 356.736C492.776 356.736 493 356.512 493 356.236H492ZM493 346.097C493 345.821 492.776 345.597 492.5 345.597C492.224 345.597 492 345.821 492 346.097H493ZM492 335.958C492 336.234 492.224 336.458 492.5 336.458C492.776 336.458 493 336.234 493 335.958H492ZM493 325.819C493 325.543 492.776 325.319 492.5 325.319C492.224 325.319 492 325.543 492 325.819H493ZM492 315.681C492 315.957 492.224 316.181 492.5 316.181C492.776 316.181 493 315.957 493 315.681H492ZM493 305.542C493 305.266 492.776 305.042 492.5 305.042C492.224 305.042 492 305.266 492 305.542H493ZM492 295.403C492 295.679 492.224 295.903 492.5 295.903C492.776 295.903 493 295.679 493 295.403H492ZM493 285.264C493 284.988 492.776 284.764 492.5 284.764C492.224 284.764 492 284.988 492 285.264H493ZM492 275.125C492 275.401 492.224 275.625 492.5 275.625C492.776 275.625 493 275.401 493 275.125H492ZM493 264.986C493 264.71 492.776 264.486 492.5 264.486C492.224 264.486 492 264.71 492 264.986H493ZM492 254.847C492 255.123 492.224 255.347 492.5 255.347C492.776 255.347 493 255.123 493 254.847H492ZM493 244.708C493 244.432 492.776 244.208 492.5 244.208C492.224 244.208 492 244.432 492 244.708H493ZM492 234.569C492 234.846 492.224 235.069 492.5 235.069C492.776 235.069 493 234.846 493 234.569H492ZM491.824 223.567C491.718 223.312 491.425 223.191 491.17 223.296C490.915 223.402 490.794 223.695 490.9 223.95L491.824 223.567ZM483.05 216.1C483.305 216.206 483.598 216.085 483.704 215.83C483.809 215.575 483.688 215.282 483.433 215.176L483.05 216.1ZM472.734 214C472.458 214 472.234 214.224 472.234 214.5C472.234 214.776 472.458 215 472.734 215V214ZM463.203 215C463.479 215 463.703 214.776 463.703 214.5C463.703 214.224 463.479 214 463.203 214V215ZM453.672 214C453.396 214 453.172 214.224 453.172 214.5C453.172 214.776 453.396 215 453.672 215V214ZM444.141 215C444.417 215 444.641 214.776 444.641 214.5C444.641 214.224 444.417 214 444.141 214V215ZM434.609 214C434.333 214 434.109 214.224 434.109 214.5C434.109 214.776 434.333 215 434.609 215V214ZM425.078 215C425.354 215 425.578 214.776 425.578 214.5C425.578 214.224 425.354 214 425.078 214V215ZM415.547 214C415.271 214 415.047 214.224 415.047 214.5C415.047 214.776 415.271 215 415.547 215V214ZM406.016 215C406.292 215 406.516 214.776 406.516 214.5C406.516 214.224 406.292 214 406.016 214V215ZM396.484 214C396.208 214 395.984 214.224 395.984 214.5C395.984 214.776 396.208 215 396.484 215V214ZM386.953 215C387.229 215 387.453 214.776 387.453 214.5C387.453 214.224 387.229 214 386.953 214V215ZM377.422 214C377.146 214 376.922 214.224 376.922 214.5C376.922 214.776 377.146 215 377.422 215V214ZM367.891 215C368.167 215 368.391 214.776 368.391 214.5C368.391 214.224 368.167 214 367.891 214V215ZM358.359 214C358.083 214 357.859 214.224 357.859 214.5C357.859 214.776 358.083 215 358.359 215V214ZM348.828 215C349.104 215 349.328 214.776 349.328 214.5C349.328 214.224 349.104 214 348.828 214V215ZM339.297 214C339.021 214 338.797 214.224 338.797 214.5C338.797 214.776 339.021 215 339.297 215V214ZM329.766 215C330.042 215 330.266 214.776 330.266 214.5C330.266 214.224 330.042 214 329.766 214V215ZM319.45 212.9C319.195 212.794 318.902 212.915 318.796 213.17C318.691 213.425 318.812 213.718 319.067 213.824L319.45 212.9ZM310.676 205.433C310.782 205.688 311.075 205.809 311.33 205.704C311.585 205.598 311.706 205.305 311.6 205.05L310.676 205.433ZM310.5 194.625C310.5 194.349 310.276 194.125 310 194.125C309.724 194.125 309.5 194.349 309.5 194.625H310.5ZM309.5 184.875C309.5 185.151 309.724 185.375 310 185.375C310.276 185.375 310.5 185.151 310.5 184.875H309.5ZM310.5 175.125C310.5 174.849 310.276 174.625 310 174.625C309.724 174.625 309.5 174.849 309.5 175.125H310.5ZM309.5 165.375C309.5 165.651 309.724 165.875 310 165.875C310.276 165.875 310.5 165.651 310.5 165.375H309.5ZM310.5 155.625C310.5 155.349 310.276 155.125 310 155.125C309.724 155.125 309.5 155.349 309.5 155.625H310.5ZM309.5 145.875C309.5 146.151 309.724 146.375 310 146.375C310.276 146.375 310.5 146.151 310.5 145.875H309.5ZM310.5 136.125C310.5 135.849 310.276 135.625 310 135.625C309.724 135.625 309.5 135.849 309.5 136.125H310.5ZM309.5 126.375C309.5 126.651 309.724 126.875 310 126.875C310.276 126.875 310.5 126.651 310.5 126.375H309.5ZM310.5 116.625C310.5 116.349 310.276 116.125 310 116.125C309.724 116.125 309.5 116.349 309.5 116.625H310.5ZM309.5 106.875C309.5 107.151 309.724 107.375 310 107.375C310.276 107.375 310.5 107.151 310.5 106.875H309.5ZM310.5 97.125C310.5 96.8489 310.276 96.625 310 96.625C309.724 96.625 309.5 96.8489 309.5 97.125H310.5ZM309.5 87.375C309.5 87.6511 309.724 87.875 310 87.875C310.276 87.875 310.5 87.6511 310.5 87.375H309.5ZM310.5 77.625C310.5 77.3489 310.276 77.125 310 77.125C309.724 77.125 309.5 77.3489 309.5 77.625H310.5ZM309.5 67.875C309.5 68.1511 309.724 68.375 310 68.375C310.276 68.375 310.5 68.1511 310.5 67.875H309.5ZM310.5 58.125C310.5 57.8489 310.276 57.625 310 57.625C309.724 57.625 309.5 57.8489 309.5 58.125H310.5ZM309.5 48.375C309.5 48.6511 309.724 48.875 310 48.875C310.276 48.875 310.5 48.6511 310.5 48.375H309.5ZM310.5 38.625C310.5 38.3489 310.276 38.125 310 38.125C309.724 38.125 309.5 38.3489 309.5 38.625H310.5ZM309.5 28.875C309.5 29.1511 309.724 29.375 310 29.375C310.276 29.375 310.5 29.1511 310.5 28.875H309.5ZM311.6 18.4497C311.706 18.1946 311.585 17.9021 311.33 17.7963C311.075 17.6905 310.782 17.8116 310.676 18.0667L311.6 18.4497ZM319.067 9.67635C318.812 9.78212 318.691 10.0747 318.796 10.3297C318.902 10.5848 319.195 10.7058 319.45 10.6001L319.067 9.67635ZM330.026 9.5C330.303 9.5 330.526 9.27614 330.526 9C330.526 8.72386 330.303 8.5 330.026 8.5V9.5ZM340.079 8.5C339.803 8.5 339.579 8.72386 339.579 9C339.579 9.27614 339.803 9.5 340.079 9.5V8.5ZM350.132 9.5C350.408 9.5 350.632 9.27614 350.632 9C350.632 8.72386 350.408 8.5 350.132 8.5V9.5ZM360.185 8.5C359.909 8.5 359.685 8.72386 359.685 9C359.685 9.27614 359.909 9.5 360.185 9.5V8.5ZM370.238 9.5C370.514 9.5 370.738 9.27614 370.738 9C370.738 8.72386 370.514 8.5 370.238 8.5V9.5ZM380.291 8.5C380.015 8.5 379.791 8.72386 379.791 9C379.791 9.27614 380.015 9.5 380.291 9.5V8.5ZM390.344 9.5C390.62 9.5 390.844 9.27614 390.844 9C390.844 8.72386 390.62 8.5 390.344 8.5V9.5ZM400.397 8.5C400.121 8.5 399.897 8.72386 399.897 9C399.897 9.27614 400.121 9.5 400.397 9.5V8.5ZM410.45 9.5C410.726 9.5 410.95 9.27614 410.95 9C410.95 8.72386 410.726 8.5 410.45 8.5V9.5ZM420.502 8.5C420.226 8.5 420.002 8.72386 420.002 9C420.002 9.27614 420.226 9.5 420.502 9.5V8.5ZM430.555 9.5C430.831 9.5 431.055 9.27614 431.055 9C431.055 8.72386 430.831 8.5 430.555 8.5V9.5ZM440.608 8.5C440.332 8.5 440.108 8.72386 440.108 9C440.108 9.27614 440.332 9.5 440.608 9.5V8.5ZM450.661 9.5C450.937 9.5 451.161 9.27614 451.161 9C451.161 8.72386 450.937 8.5 450.661 8.5V9.5ZM460.714 8.5C460.438 8.5 460.214 8.72386 460.214 9C460.214 9.27614 460.438 9.5 460.714 9.5V8.5ZM470.767 9.5C471.043 9.5 471.267 9.27614 471.267 9C471.267 8.72386 471.043 8.5 470.767 8.5V9.5ZM480.82 8.5C480.544 8.5 480.32 8.72386 480.32 9C480.32 9.27614 480.544 9.5 480.82 9.5V8.5ZM490.873 9.5C491.149 9.5 491.373 9.27614 491.373 9C491.373 8.72386 491.149 8.5 490.873 8.5V9.5ZM500.926 8.5C500.649 8.5 500.426 8.72386 500.426 9C500.426 9.27614 500.649 9.5 500.926 9.5V8.5ZM510.978 9.5C511.255 9.5 511.478 9.27614 511.478 9C511.478 8.72386 511.255 8.5 510.978 8.5V9.5ZM521.031 8.5C520.755 8.5 520.531 8.72386 520.531 9C520.531 9.27614 520.755 9.5 521.031 9.5V8.5ZM531.084 9.5C531.36 9.5 531.584 9.27614 531.584 9C531.584 8.72386 531.36 8.5 531.084 8.5V9.5ZM541.137 8.5C540.861 8.5 540.637 8.72386 540.637 9C540.637 9.27614 540.861 9.5 541.137 9.5V8.5ZM551.19 9.5C551.466 9.5 551.69 9.27614 551.69 9C551.69 8.72386 551.466 8.5 551.19 8.5V9.5ZM561.243 8.5C560.967 8.5 560.743 8.72386 560.743 9C560.743 9.27614 560.967 9.5 561.243 9.5V8.5ZM571.296 9.5C571.572 9.5 571.796 9.27614 571.796 9C571.796 8.72386 571.572 8.5 571.296 8.5V9.5ZM581.349 8.5C581.072 8.5 580.849 8.72386 580.849 9C580.849 9.27614 581.072 9.5 581.349 9.5V8.5ZM591.401 9.5C591.678 9.5 591.901 9.27614 591.901 9C591.901 8.72386 591.678 8.5 591.401 8.5V9.5ZM601.454 8.5C601.178 8.5 600.954 8.72386 600.954 9C600.954 9.27614 601.178 9.5 601.454 9.5V8.5ZM611.507 9.5C611.783 9.5 612.007 9.27614 612.007 9C612.007 8.72386 611.783 8.5 611.507 8.5V9.5ZM621.56 8.5C621.284 8.5 621.06 8.72386 621.06 9C621.06 9.27614 621.284 9.5 621.56 9.5V8.5ZM631.613 9.5C631.889 9.5 632.113 9.27614 632.113 9C632.113 8.72386 631.889 8.5 631.613 8.5V9.5ZM641.666 8.5C641.39 8.5 641.166 8.72386 641.166 9C641.166 9.27614 641.39 9.5 641.666 9.5V8.5ZM651.719 9.5C651.995 9.5 652.219 9.27614 652.219 9C652.219 8.72386 651.995 8.5 651.719 8.5V9.5ZM661.772 8.5C661.496 8.5 661.272 8.72386 661.272 9C661.272 9.27614 661.496 9.5 661.772 9.5V8.5ZM671.825 9.5C672.101 9.5 672.325 9.27614 672.325 9C672.325 8.72386 672.101 8.5 671.825 8.5V9.5ZM681.877 8.5C681.601 8.5 681.377 8.72386 681.377 9C681.377 9.27614 681.601 9.5 681.877 9.5V8.5ZM691.93 9.5C692.206 9.5 692.43 9.27614 692.43 9C692.43 8.72386 692.206 8.5 691.93 8.5V9.5ZM701.983 8.5C701.707 8.5 701.483 8.72386 701.483 9C701.483 9.27614 701.707 9.5 701.983 9.5V8.5ZM712.036 9.5C712.312 9.5 712.536 9.27614 712.536 9C712.536 8.72386 712.312 8.5 712.036 8.5V9.5ZM722.089 8.5C721.813 8.5 721.589 8.72386 721.589 9C721.589 9.27614 721.813 9.5 722.089 9.5V8.5ZM732.142 9.5C732.418 9.5 732.642 9.27614 732.642 9C732.642 8.72386 732.418 8.5 732.142 8.5V9.5ZM742.195 8.5C741.919 8.5 741.695 8.72386 741.695 9C741.695 9.27614 741.919 9.5 742.195 9.5V8.5ZM752.248 9.5C752.524 9.5 752.748 9.27614 752.748 9C752.748 8.72386 752.524 8.5 752.248 8.5V9.5ZM762.301 8.5C762.024 8.5 761.801 8.72386 761.801 9C761.801 9.27614 762.024 9.5 762.301 9.5V8.5ZM772.353 9.5C772.63 9.5 772.853 9.27614 772.853 9C772.853 8.72386 772.63 8.5 772.353 8.5V9.5ZM782.406 8.5C782.13 8.5 781.906 8.72386 781.906 9C781.906 9.27614 782.13 9.5 782.406 9.5V8.5ZM792.459 9.5C792.735 9.5 792.959 9.27614 792.959 9C792.959 8.72386 792.735 8.5 792.459 8.5V9.5ZM802.512 8.5C802.236 8.5 802.012 8.72386 802.012 9C802.012 9.27614 802.236 9.5 802.512 9.5V8.5ZM812.565 9.5C812.841 9.5 813.065 9.27614 813.065 9C813.065 8.72386 812.841 8.5 812.565 8.5V9.5ZM822.618 8.5C822.342 8.5 822.118 8.72386 822.118 9C822.118 9.27614 822.342 9.5 822.618 9.5V8.5ZM832.671 9.5C832.947 9.5 833.171 9.27614 833.171 9C833.171 8.72386 832.947 8.5 832.671 8.5V9.5ZM842.724 8.5C842.448 8.5 842.224 8.72386 842.224 9C842.224 9.27614 842.448 9.5 842.724 9.5V8.5ZM852.776 9.5C853.053 9.5 853.276 9.27614 853.276 9C853.276 8.72386 853.053 8.5 852.776 8.5V9.5ZM862.829 8.5C862.553 8.5 862.329 8.72386 862.329 9C862.329 9.27614 862.553 9.5 862.829 9.5V8.5ZM872.882 9.5C873.158 9.5 873.382 9.27614 873.382 9C873.382 8.72386 873.158 8.5 872.882 8.5V9.5ZM882.935 8.5C882.659 8.5 882.435 8.72386 882.435 9C882.435 9.27614 882.659 9.5 882.935 9.5V8.5ZM892.988 9.5C893.264 9.5 893.488 9.27614 893.488 9C893.488 8.72386 893.264 8.5 892.988 8.5V9.5ZM903.041 8.5C902.765 8.5 902.541 8.72386 902.541 9C902.541 9.27614 902.765 9.5 903.041 9.5V8.5ZM913.094 9.5C913.37 9.5 913.594 9.27614 913.594 9C913.594 8.72386 913.37 8.5 913.094 8.5V9.5ZM923.146 8.5C922.87 8.5 922.646 8.72386 922.646 9C922.646 9.27614 922.87 9.5 923.146 9.5V8.5ZM933.199 9.5C933.475 9.5 933.699 9.27614 933.699 9C933.699 8.72386 933.475 8.5 933.199 8.5V9.5ZM943.252 8.5C942.976 8.5 942.752 8.72386 942.752 9C942.752 9.27614 942.976 9.5 943.252 9.5V8.5ZM953.305 9.5C953.581 9.5 953.805 9.27614 953.805 9C953.805 8.72386 953.581 8.5 953.305 8.5V9.5ZM963.358 8.5C963.082 8.5 962.858 8.72386 962.858 9C962.858 9.27614 963.082 9.5 963.358 9.5V8.5ZM973.411 9.5C973.687 9.5 973.911 9.27614 973.911 9C973.911 8.72386 973.687 8.5 973.411 8.5V9.5ZM983.464 8.5C983.188 8.5 982.964 8.72386 982.964 9C982.964 9.27614 983.188 9.5 983.464 9.5V8.5ZM993.517 9.5C993.793 9.5 994.017 9.27614 994.017 9C994.017 8.72386 993.793 8.5 993.517 8.5V9.5ZM1003.57 8.5C1003.29 8.5 1003.07 8.72386 1003.07 9C1003.07 9.27614 1003.29 9.5 1003.57 9.5V8.5ZM1013.62 9.5C1013.9 9.5 1014.12 9.27614 1014.12 9C1014.12 8.72386 1013.9 8.5 1013.62 8.5V9.5ZM1023.68 8.5C1023.4 8.5 1023.18 8.72386 1023.18 9C1023.18 9.27614 1023.4 9.5 1023.68 9.5V8.5ZM1033.73 9.5C1034 9.5 1034.23 9.27614 1034.23 9C1034.23 8.72386 1034 8.5 1033.73 8.5V9.5ZM1043.78 8.5C1043.5 8.5 1043.28 8.72386 1043.28 9C1043.28 9.27614 1043.5 9.5 1043.78 9.5V8.5ZM1053.83 9.5C1054.11 9.5 1054.33 9.27614 1054.33 9C1054.33 8.72386 1054.11 8.5 1053.83 8.5V9.5ZM1063.89 8.5C1063.61 8.5 1063.39 8.72386 1063.39 9C1063.39 9.27614 1063.61 9.5 1063.89 9.5V8.5ZM1073.94 9.5C1074.22 9.5 1074.44 9.27614 1074.44 9C1074.44 8.72386 1074.22 8.5 1073.94 8.5V9.5ZM1083.99 8.5C1083.72 8.5 1083.49 8.72386 1083.49 9C1083.49 9.27614 1083.72 9.5 1083.99 9.5V8.5ZM1094.05 9.5C1094.32 9.5 1094.55 9.27614 1094.55 9C1094.55 8.72386 1094.32 8.5 1094.05 8.5V9.5ZM1104.1 8.5C1103.82 8.5 1103.6 8.72386 1103.6 9C1103.6 9.27614 1103.82 9.5 1104.1 9.5V8.5ZM1114.15 9.5C1114.43 9.5 1114.65 9.27614 1114.65 9C1114.65 8.72386 1114.43 8.5 1114.15 8.5V9.5ZM1124.2 8.5C1123.93 8.5 1123.7 8.72386 1123.7 9C1123.7 9.27614 1123.93 9.5 1124.2 9.5V8.5ZM1134.26 9.5C1134.53 9.5 1134.76 9.27614 1134.76 9C1134.76 8.72386 1134.53 8.5 1134.26 8.5V9.5ZM1144.31 8.5C1144.03 8.5 1143.81 8.72386 1143.81 9C1143.81 9.27614 1144.03 9.5 1144.31 9.5V8.5ZM1154.36 9.5C1154.64 9.5 1154.86 9.27614 1154.86 9C1154.86 8.72386 1154.64 8.5 1154.36 8.5V9.5ZM1164.42 8.5C1164.14 8.5 1163.92 8.72386 1163.92 9C1163.92 9.27614 1164.14 9.5 1164.42 9.5V8.5ZM1174.47 9.5C1174.74 9.5 1174.97 9.27614 1174.97 9C1174.97 8.72386 1174.74 8.5 1174.47 8.5V9.5ZM1184.52 8.5C1184.24 8.5 1184.02 8.72386 1184.02 9C1184.02 9.27614 1184.24 9.5 1184.52 9.5V8.5ZM1194.57 9.5C1194.85 9.5 1195.07 9.27614 1195.07 9C1195.07 8.72386 1194.85 8.5 1194.57 8.5V9.5ZM1204.63 8.5C1204.35 8.5 1204.13 8.72386 1204.13 9C1204.13 9.27614 1204.35 9.5 1204.63 9.5V8.5ZM1214.68 9.5C1214.96 9.5 1215.18 9.27614 1215.18 9C1215.18 8.72386 1214.96 8.5 1214.68 8.5V9.5ZM1224.73 8.5C1224.46 8.5 1224.23 8.72386 1224.23 9C1224.23 9.27614 1224.46 9.5 1224.73 9.5V8.5ZM1234.79 9.5C1235.06 9.5 1235.29 9.27614 1235.29 9C1235.29 8.72386 1235.06 8.5 1234.79 8.5V9.5ZM1244.84 8.5C1244.56 8.5 1244.34 8.72386 1244.34 9C1244.34 9.27614 1244.56 9.5 1244.84 9.5V8.5ZM1254.89 9.5C1255.17 9.5 1255.39 9.27614 1255.39 9C1255.39 8.72386 1255.17 8.5 1254.89 8.5V9.5ZM1264.94 8.5C1264.67 8.5 1264.44 8.72386 1264.44 9C1264.44 9.27614 1264.67 9.5 1264.94 9.5V8.5ZM1275 9.5C1275.27 9.5 1275.5 9.27614 1275.5 9C1275.5 8.72386 1275.27 8.5 1275 8.5V9.5ZM1285.05 8.5C1284.77 8.5 1284.55 8.72386 1284.55 9C1284.55 9.27614 1284.77 9.5 1285.05 9.5V8.5ZM1295.1 9.5C1295.38 9.5 1295.6 9.27614 1295.6 9C1295.6 8.72386 1295.38 8.5 1295.1 8.5V9.5ZM1305.16 8.5C1304.88 8.5 1304.66 8.72386 1304.66 9C1304.66 9.27614 1304.88 9.5 1305.16 9.5V8.5ZM1315.21 9.5C1315.48 9.5 1315.71 9.27614 1315.71 9C1315.71 8.72386 1315.48 8.5 1315.21 8.5V9.5ZM1325.26 8.5C1324.98 8.5 1324.76 8.72386 1324.76 9C1324.76 9.27614 1324.98 9.5 1325.26 9.5V8.5ZM1335.31 9.5C1335.59 9.5 1335.81 9.27614 1335.81 9C1335.81 8.72386 1335.59 8.5 1335.31 8.5V9.5ZM1345.37 8.5C1345.09 8.5 1344.87 8.72386 1344.87 9C1344.87 9.27614 1345.09 9.5 1345.37 9.5V8.5ZM1355.42 9.5C1355.7 9.5 1355.92 9.27614 1355.92 9C1355.92 8.72386 1355.7 8.5 1355.42 8.5V9.5ZM1365.47 8.5C1365.2 8.5 1364.97 8.72386 1364.97 9C1364.97 9.27614 1365.2 9.5 1365.47 9.5V8.5ZM1376.05 10.6001C1376.31 10.7058 1376.6 10.5848 1376.7 10.3297C1376.81 10.0747 1376.69 9.78212 1376.43 9.67634L1376.05 10.6001ZM1384.82 18.0667C1384.72 17.8116 1384.43 17.6905 1384.17 17.7963C1383.92 17.9021 1383.79 18.1946 1383.9 18.4497L1384.82 18.0667ZM1385 29.0357C1385 29.3119 1385.22 29.5357 1385.5 29.5357C1385.78 29.5357 1386 29.3119 1386 29.0357H1385ZM1386 39.1071C1386 38.831 1385.78 38.6071 1385.5 38.6071C1385.22 38.6071 1385 38.831 1385 39.1071H1386ZM1385 49.1786C1385 49.4547 1385.22 49.6786 1385.5 49.6786C1385.78 49.6786 1386 49.4547 1386 49.1786H1385ZM1386 59.25C1386 58.9739 1385.78 58.75 1385.5 58.75C1385.22 58.75 1385 58.9739 1385 59.25H1386ZM1385 69.3214C1385 69.5976 1385.22 69.8214 1385.5 69.8214C1385.78 69.8214 1386 69.5976 1386 69.3214H1385ZM1386 79.3929C1386 79.1167 1385.78 78.8929 1385.5 78.8929C1385.22 78.8929 1385 79.1167 1385 79.3929H1386ZM1385 89.4643C1385 89.7404 1385.22 89.9643 1385.5 89.9643C1385.78 89.9643 1386 89.7404 1386 89.4643H1385ZM1386 99.5357C1386 99.2596 1385.78 99.0357 1385.5 99.0357C1385.22 99.0357 1385 99.2596 1385 99.5357H1386ZM1385 109.607C1385 109.883 1385.22 110.107 1385.5 110.107C1385.78 110.107 1386 109.883 1386 109.607H1385ZM1386 119.679C1386 119.402 1385.78 119.179 1385.5 119.179C1385.22 119.179 1385 119.402 1385 119.679H1386ZM1385 129.75C1385 130.026 1385.22 130.25 1385.5 130.25C1385.78 130.25 1386 130.026 1386 129.75H1385ZM1386 139.821C1386 139.545 1385.78 139.321 1385.5 139.321C1385.22 139.321 1385 139.545 1385 139.821H1386ZM1385 149.893C1385 150.169 1385.22 150.393 1385.5 150.393C1385.78 150.393 1386 150.169 1386 149.893H1385ZM1386 159.964C1386 159.688 1385.78 159.464 1385.5 159.464C1385.22 159.464 1385 159.688 1385 159.964H1386ZM1386.18 170.933C1386.28 171.188 1386.57 171.309 1386.83 171.204C1387.08 171.098 1387.21 170.805 1387.1 170.55L1386.18 170.933ZM1394.95 178.4C1394.69 178.294 1394.4 178.415 1394.3 178.67C1394.19 178.925 1394.31 179.218 1394.57 179.324L1394.95 178.4ZM1405.47 180.5C1405.75 180.5 1405.97 180.276 1405.97 180C1405.97 179.724 1405.75 179.5 1405.47 179.5V180.5ZM1415.41 179.5C1415.14 179.5 1414.91 179.724 1414.91 180C1414.91 180.276 1415.14 180.5 1415.41 180.5V179.5ZM1425.36 180.5C1425.63 180.5 1425.86 180.276 1425.86 180C1425.86 179.724 1425.63 179.5 1425.36 179.5V180.5ZM1435.3 179.5C1435.02 179.5 1434.8 179.724 1434.8 180C1434.8 180.276 1435.02 180.5 1435.3 180.5V179.5ZM1445.24 180.5C1445.52 180.5 1445.74 180.276 1445.74 180C1445.74 179.724 1445.52 179.5 1445.24 179.5V180.5ZM1455.18 179.5C1454.91 179.5 1454.68 179.724 1454.68 180C1454.68 180.276 1454.91 180.5 1455.18 180.5V179.5ZM1465.12 180.5C1465.4 180.5 1465.62 180.276 1465.62 180C1465.62 179.724 1465.4 179.5 1465.12 179.5V180.5ZM1475.07 179.5C1474.79 179.5 1474.57 179.724 1474.57 180C1474.57 180.276 1474.79 180.5 1475.07 180.5V179.5ZM1485.01 180.5C1485.29 180.5 1485.51 180.276 1485.51 180C1485.51 179.724 1485.29 179.5 1485.01 179.5V180.5ZM1494.95 179.5C1494.68 179.5 1494.45 179.724 1494.45 180C1494.45 180.276 1494.68 180.5 1494.95 180.5V179.5ZM1504.89 180.5C1505.17 180.5 1505.39 180.276 1505.39 180C1505.39 179.724 1505.17 179.5 1504.89 179.5V180.5ZM1514.84 179.5C1514.56 179.5 1514.34 179.724 1514.34 180C1514.34 180.276 1514.56 180.5 1514.84 180.5V179.5ZM1524.78 180.5C1525.05 180.5 1525.28 180.276 1525.28 180C1525.28 179.724 1525.05 179.5 1524.78 179.5V180.5ZM1534.72 179.5C1534.44 179.5 1534.22 179.724 1534.22 180C1534.22 180.276 1534.44 180.5 1534.72 180.5V179.5ZM1544.66 180.5C1544.94 180.5 1545.16 180.276 1545.16 180C1545.16 179.724 1544.94 179.5 1544.66 179.5V180.5ZM1554.61 179.5C1554.33 179.5 1554.11 179.724 1554.11 180C1554.11 180.276 1554.33 180.5 1554.61 180.5V179.5ZM1564.55 180.5C1564.82 180.5 1565.05 180.276 1565.05 180C1565.05 179.724 1564.82 179.5 1564.55 179.5V180.5ZM1574.49 179.5C1574.21 179.5 1573.99 179.724 1573.99 180C1573.99 180.276 1574.21 180.5 1574.49 180.5V179.5ZM1584.43 180.5C1584.71 180.5 1584.93 180.276 1584.93 180C1584.93 179.724 1584.71 179.5 1584.43 179.5V180.5ZM1594.38 179.5C1594.1 179.5 1593.88 179.724 1593.88 180C1593.88 180.276 1594.1 180.5 1594.38 180.5V179.5ZM1604.32 180.5C1604.59 180.5 1604.82 180.276 1604.82 180C1604.82 179.724 1604.59 179.5 1604.32 179.5V180.5ZM1614.26 179.5C1613.98 179.5 1613.76 179.724 1613.76 180C1613.76 180.276 1613.98 180.5 1614.26 180.5V179.5ZM1624.2 180.5C1624.48 180.5 1624.7 180.276 1624.7 180C1624.7 179.724 1624.48 179.5 1624.2 179.5V180.5ZM1634.14 179.5C1633.87 179.5 1633.64 179.724 1633.64 180C1633.64 180.276 1633.87 180.5 1634.14 180.5V179.5ZM1644.09 180.5C1644.36 180.5 1644.59 180.276 1644.59 180C1644.59 179.724 1644.36 179.5 1644.09 179.5V180.5ZM1654.03 179.5C1653.75 179.5 1653.53 179.724 1653.53 180C1653.53 180.276 1653.75 180.5 1654.03 180.5V179.5ZM1663.97 180.5C1664.25 180.5 1664.47 180.276 1664.47 180C1664.47 179.724 1664.25 179.5 1663.97 179.5V180.5ZM1673.91 179.5C1673.64 179.5 1673.41 179.724 1673.41 180C1673.41 180.276 1673.64 180.5 1673.91 180.5V179.5ZM1683.86 180.5C1684.13 180.5 1684.36 180.276 1684.36 180C1684.36 179.724 1684.13 179.5 1683.86 179.5V180.5ZM1693.8 179.5C1693.52 179.5 1693.3 179.724 1693.3 180C1693.3 180.276 1693.52 180.5 1693.8 180.5V179.5ZM1703.74 180.5C1704.02 180.5 1704.24 180.276 1704.24 180C1704.24 179.724 1704.02 179.5 1703.74 179.5V180.5ZM1713.68 179.5C1713.41 179.5 1713.18 179.724 1713.18 180C1713.18 180.276 1713.41 180.5 1713.68 180.5V179.5ZM1723.63 180.5C1723.9 180.5 1724.13 180.276 1724.13 180C1724.13 179.724 1723.9 179.5 1723.63 179.5V180.5ZM1733.57 179.5C1733.29 179.5 1733.07 179.724 1733.07 180C1733.07 180.276 1733.29 180.5 1733.57 180.5V179.5ZM1743.51 180.5C1743.79 180.5 1744.01 180.276 1744.01 180C1744.01 179.724 1743.79 179.5 1743.51 179.5V180.5ZM1753.45 179.5C1753.18 179.5 1752.95 179.724 1752.95 180C1752.95 180.276 1753.18 180.5 1753.45 180.5V179.5ZM1763.39 180.5C1763.67 180.5 1763.89 180.276 1763.89 180C1763.89 179.724 1763.67 179.5 1763.39 179.5V180.5ZM1773.34 179.5C1773.06 179.5 1772.84 179.724 1772.84 180C1772.84 180.276 1773.06 180.5 1773.34 180.5V179.5ZM1783.28 180.5C1783.56 180.5 1783.78 180.276 1783.78 180C1783.78 179.724 1783.56 179.5 1783.28 179.5V180.5ZM1793.22 179.5C1792.95 179.5 1792.72 179.724 1792.72 180C1792.72 180.276 1792.95 180.5 1793.22 180.5V179.5ZM1803.16 180.5C1803.44 180.5 1803.66 180.276 1803.66 180C1803.66 179.724 1803.44 179.5 1803.16 179.5V180.5ZM1813.11 179.5C1812.83 179.5 1812.61 179.724 1812.61 180C1812.61 180.276 1812.83 180.5 1813.11 180.5V179.5ZM1823.05 180.5C1823.32 180.5 1823.55 180.276 1823.55 180C1823.55 179.724 1823.32 179.5 1823.05 179.5V180.5ZM1832.99 179.5C1832.71 179.5 1832.49 179.724 1832.49 180C1832.49 180.276 1832.71 180.5 1832.99 180.5V179.5ZM1842.93 180.5C1843.21 180.5 1843.43 180.276 1843.43 180C1843.43 179.724 1843.21 179.5 1842.93 179.5V180.5ZM1852.88 179.5C1852.6 179.5 1852.38 179.724 1852.38 180C1852.38 180.276 1852.6 180.5 1852.88 180.5V179.5ZM1862.82 180.5C1863.09 180.5 1863.32 180.276 1863.32 180C1863.32 179.724 1863.09 179.5 1862.82 179.5V180.5ZM1872.76 179.5C1872.48 179.5 1872.26 179.724 1872.26 180C1872.26 180.276 1872.48 180.5 1872.76 180.5V179.5ZM1882.7 180.5C1882.98 180.5 1883.2 180.276 1883.2 180C1883.2 179.724 1882.98 179.5 1882.7 179.5V180.5ZM1892.64 179.5C1892.37 179.5 1892.14 179.724 1892.14 180C1892.14 180.276 1892.37 180.5 1892.64 180.5V179.5ZM1902.59 180.5C1902.86 180.5 1903.09 180.276 1903.09 180C1903.09 179.724 1902.86 179.5 1902.59 179.5V180.5ZM1912.53 179.5C1912.25 179.5 1912.03 179.724 1912.03 180C1912.03 180.276 1912.25 180.5 1912.53 180.5V179.5ZM-4.5 427.5H0.520833V426.5H-4.5V427.5ZM10.5625 427.5H20.6042V426.5H10.5625V427.5ZM30.6458 427.5H40.6875V426.5H30.6458V427.5ZM50.7292 427.5H60.7708V426.5H50.7292V427.5ZM70.8125 427.5H80.8542V426.5H70.8125V427.5ZM90.8958 427.5H100.937V426.5H90.8958V427.5ZM110.979 427.5H121.021V426.5H110.979V427.5ZM131.062 427.5H141.104V426.5H131.062V427.5ZM151.146 427.5H161.188V426.5H151.146V427.5ZM171.229 427.5H181.271V426.5H171.229V427.5ZM191.313 427.5H201.354V426.5H191.313V427.5ZM211.396 427.5H221.438V426.5H211.396V427.5ZM231.479 427.5H241.521V426.5H231.479V427.5ZM251.563 427.5H261.604V426.5H251.563V427.5ZM271.646 427.5H281.688V426.5H271.646V427.5ZM291.729 427.5H301.771V426.5H291.729V427.5ZM311.812 427.5H321.854V426.5H311.812V427.5ZM331.896 427.5H341.937V426.5H331.896V427.5ZM351.979 427.5H362.021V426.5H351.979V427.5ZM372.062 427.5H382.104V426.5H372.062V427.5ZM392.146 427.5H402.187V426.5H392.146V427.5ZM412.229 427.5H422.271V426.5H412.229V427.5ZM432.312 427.5H442.354V426.5H432.312V427.5ZM452.396 427.5H462.437V426.5H452.396V427.5ZM472.479 427.5H477.5V426.5H472.479V427.5ZM477.5 427.5C479.601 427.5 481.605 427.082 483.433 426.324L483.05 425.4C481.341 426.109 479.467 426.5 477.5 426.5V427.5ZM491.824 417.933C492.582 416.105 493 414.101 493 412H492C492 413.967 491.609 415.841 490.9 417.55L491.824 417.933ZM493 412V406.931H492V412H493ZM493 396.792V386.653H492V396.792H493ZM493 376.514V366.375H492V376.514H493ZM493 356.236V346.097H492V356.236H493ZM493 335.958V325.819H492V335.958H493ZM493 315.681V305.542H492V315.681H493ZM493 295.403V285.264H492V295.403H493ZM493 275.125V264.986H492V275.125H493ZM493 254.847V244.708H492V254.847H493ZM493 234.569V229.5H492V234.569H493ZM493 229.5C493 227.399 492.582 225.395 491.824 223.567L490.9 223.95C491.609 225.659 492 227.533 492 229.5H493ZM483.433 215.176C481.605 214.418 479.601 214 477.5 214V215C479.467 215 481.341 215.391 483.05 216.1L483.433 215.176ZM477.5 214H472.734V215H477.5V214ZM463.203 214H453.672V215H463.203V214ZM444.141 214H434.609V215H444.141V214ZM425.078 214H415.547V215H425.078V214ZM406.016 214H396.484V215H406.016V214ZM386.953 214H377.422V215H386.953V214ZM367.891 214H358.359V215H367.891V214ZM348.828 214H339.297V215H348.828V214ZM329.766 214H325V215H329.766V214ZM325 214C323.033 214 321.159 213.609 319.45 212.9L319.067 213.824C320.895 214.582 322.899 215 325 215V214ZM311.6 205.05C310.891 203.341 310.5 201.467 310.5 199.5H309.5C309.5 201.601 309.918 203.605 310.676 205.433L311.6 205.05ZM310.5 199.5V194.625H309.5V199.5H310.5ZM310.5 184.875V175.125H309.5V184.875H310.5ZM310.5 165.375V155.625H309.5V165.375H310.5ZM310.5 145.875V136.125H309.5V145.875H310.5ZM310.5 126.375V116.625H309.5V126.375H310.5ZM310.5 106.875V97.125H309.5V106.875H310.5ZM310.5 87.375V77.625H309.5V87.375H310.5ZM310.5 67.875V58.125H309.5V67.875H310.5ZM310.5 48.375V38.625H309.5V48.375H310.5ZM310.5 28.875V24H309.5V28.875H310.5ZM310.5 24C310.5 22.033 310.891 20.1587 311.6 18.4497L310.676 18.0667C309.918 19.8949 309.5 21.8993 309.5 24H310.5ZM319.45 10.6001C321.159 9.89139 323.033 9.5 325 9.5V8.5C322.899 8.5 320.895 8.91819 319.067 9.67635L319.45 10.6001ZM325 9.5H330.026V8.5H325V9.5ZM340.079 9.5H350.132V8.5H340.079V9.5ZM360.185 9.5H370.238V8.5H360.185V9.5ZM380.291 9.5H390.344V8.5H380.291V9.5ZM400.397 9.5H410.45V8.5H400.397V9.5ZM420.502 9.5H430.555V8.5H420.502V9.5ZM440.608 9.5H450.661V8.5H440.608V9.5ZM460.714 9.5H470.767V8.5H460.714V9.5ZM480.82 9.5H490.873V8.5H480.82V9.5ZM500.926 9.5H510.978V8.5H500.926V9.5ZM521.031 9.5H531.084V8.5H521.031V9.5ZM541.137 9.5H551.19V8.5H541.137V9.5ZM561.243 9.5H571.296V8.5H561.243V9.5ZM581.349 9.5H591.401V8.5H581.349V9.5ZM601.454 9.5H611.507V8.5H601.454V9.5ZM621.56 9.5H631.613V8.5H621.56V9.5ZM641.666 9.5H651.719V8.5H641.666V9.5ZM661.772 9.5H671.825V8.5H661.772V9.5ZM681.877 9.5H691.93V8.5H681.877V9.5ZM701.983 9.5H712.036V8.5H701.983V9.5ZM722.089 9.5H732.142V8.5H722.089V9.5ZM742.195 9.5H752.248V8.5H742.195V9.5ZM762.301 9.5H772.353V8.5H762.301V9.5ZM782.406 9.5H792.459V8.5H782.406V9.5ZM802.512 9.5H812.565V8.5H802.512V9.5ZM822.618 9.5H832.671V8.5H822.618V9.5ZM842.724 9.5H852.776V8.5H842.724V9.5ZM862.829 9.5H872.882V8.5H862.829V9.5ZM882.935 9.5H892.988V8.5H882.935V9.5ZM903.041 9.5H913.094V8.5H903.041V9.5ZM923.146 9.5H933.199V8.5H923.146V9.5ZM943.252 9.5H953.305V8.5H943.252V9.5ZM963.358 9.5H973.411V8.5H963.358V9.5ZM983.464 9.5H993.517V8.5H983.464V9.5ZM1003.57 9.5H1013.62V8.5H1003.57V9.5ZM1023.68 9.5H1033.73V8.5H1023.68V9.5ZM1043.78 9.5H1053.83V8.5H1043.78V9.5ZM1063.89 9.5H1073.94V8.5H1063.89V9.5ZM1083.99 9.5H1094.05V8.5H1083.99V9.5ZM1104.1 9.5H1114.15V8.5H1104.1V9.5ZM1124.2 9.5H1134.26V8.5H1124.2V9.5ZM1144.31 9.5H1154.36V8.5H1144.31V9.5ZM1164.42 9.5H1174.47V8.5H1164.42V9.5ZM1184.52 9.5H1194.57V8.5H1184.52V9.5ZM1204.63 9.5H1214.68V8.5H1204.63V9.5ZM1224.73 9.5H1234.79V8.5H1224.73V9.5ZM1244.84 9.5H1254.89V8.5H1244.84V9.5ZM1264.94 9.5H1275V8.5H1264.94V9.5ZM1285.05 9.5H1295.1V8.5H1285.05V9.5ZM1305.16 9.5H1315.21V8.5H1305.16V9.5ZM1325.26 9.5H1335.31V8.5H1325.26V9.5ZM1345.37 9.5H1355.42V8.5H1345.37V9.5ZM1365.47 9.5H1370.5V8.5H1365.47V9.5ZM1370.5 9.5C1372.47 9.5 1374.34 9.89139 1376.05 10.6001L1376.43 9.67634C1374.61 8.91819 1372.6 8.5 1370.5 8.5V9.5ZM1383.9 18.4497C1384.61 20.1587 1385 22.033 1385 24H1386C1386 21.8993 1385.58 19.8949 1384.82 18.0667L1383.9 18.4497ZM1385 24V29.0357H1386V24H1385ZM1385 39.1071V49.1786H1386V39.1071H1385ZM1385 59.25V69.3214H1386V59.25H1385ZM1385 79.3929V89.4643H1386V79.3929H1385ZM1385 99.5357V109.607H1386V99.5357H1385ZM1385 119.679V129.75H1386V119.679H1385ZM1385 139.821V149.893H1386V139.821H1385ZM1385 159.964V165H1386V159.964H1385ZM1385 165C1385 167.101 1385.42 169.105 1386.18 170.933L1387.1 170.55C1386.39 168.841 1386 166.967 1386 165H1385ZM1394.57 179.324C1396.39 180.082 1398.4 180.5 1400.5 180.5V179.5C1398.53 179.5 1396.66 179.109 1394.95 178.4L1394.57 179.324ZM1400.5 180.5H1405.47V179.5H1400.5V180.5ZM1415.41 180.5H1425.36V179.5H1415.41V180.5ZM1435.3 180.5H1445.24V179.5H1435.3V180.5ZM1455.18 180.5H1465.12V179.5H1455.18V180.5ZM1475.07 180.5H1485.01V179.5H1475.07V180.5ZM1494.95 180.5H1504.89V179.5H1494.95V180.5ZM1514.84 180.5H1524.78V179.5H1514.84V180.5ZM1534.72 180.5H1544.66V179.5H1534.72V180.5ZM1554.61 180.5H1564.55V179.5H1554.61V180.5ZM1574.49 180.5H1584.43V179.5H1574.49V180.5ZM1594.38 180.5H1604.32V179.5H1594.38V180.5ZM1614.26 180.5H1624.2V179.5H1614.26V180.5ZM1634.14 180.5H1644.09V179.5H1634.14V180.5ZM1654.03 180.5H1663.97V179.5H1654.03V180.5ZM1673.91 180.5H1683.86V179.5H1673.91V180.5ZM1693.8 180.5H1703.74V179.5H1693.8V180.5ZM1713.68 180.5H1723.63V179.5H1713.68V180.5ZM1733.57 180.5H1743.51V179.5H1733.57V180.5ZM1753.45 180.5H1763.39V179.5H1753.45V180.5ZM1773.34 180.5H1783.28V179.5H1773.34V180.5ZM1793.22 180.5H1803.16V179.5H1793.22V180.5ZM1813.11 180.5H1823.05V179.5H1813.11V180.5ZM1832.99 180.5H1842.93V179.5H1832.99V180.5ZM1852.88 180.5H1862.82V179.5H1852.88V180.5ZM1872.76 180.5H1882.7V179.5H1872.76V180.5ZM1892.64 180.5H1902.59V179.5H1892.64V180.5ZM1912.53 180.5H1917.5V179.5H1912.53V180.5ZM0.520833 428C1.07312 428 1.52083 427.552 1.52083 427C1.52083 426.448 1.07312 426 0.520833 426V428ZM10.5625 426C10.0102 426 9.5625 426.448 9.5625 427C9.5625 427.552 10.0102 428 10.5625 428V426ZM20.6042 428C21.1565 428 21.6042 427.552 21.6042 427C21.6042 426.448 21.1565 426 20.6042 426V428ZM30.6458 426C30.0936 426 29.6458 426.448 29.6458 427C29.6458 427.552 30.0936 428 30.6458 428V426ZM40.6875 428C41.2398 428 41.6875 427.552 41.6875 427C41.6875 426.448 41.2398 426 40.6875 426V428ZM50.7292 426C50.1769 426 49.7292 426.448 49.7292 427C49.7292 427.552 50.1769 428 50.7292 428V426ZM60.7708 428C61.3231 428 61.7708 427.552 61.7708 427C61.7708 426.448 61.3231 426 60.7708 426V428ZM70.8125 426C70.2602 426 69.8125 426.448 69.8125 427C69.8125 427.552 70.2602 428 70.8125 428V426ZM80.8542 428C81.4064 428 81.8542 427.552 81.8542 427C81.8542 426.448 81.4064 426 80.8542 426V428ZM90.8958 426C90.3435 426 89.8958 426.448 89.8958 427C89.8958 427.552 90.3435 428 90.8958 428V426ZM100.937 428C101.49 428 101.937 427.552 101.937 427C101.937 426.448 101.49 426 100.937 426V428ZM110.979 426C110.427 426 109.979 426.448 109.979 427C109.979 427.552 110.427 428 110.979 428V426ZM121.021 428C121.573 428 122.021 427.552 122.021 427C122.021 426.448 121.573 426 121.021 426V428ZM131.062 426C130.51 426 130.062 426.448 130.062 427C130.062 427.552 130.51 428 131.062 428V426ZM141.104 428C141.656 428 142.104 427.552 142.104 427C142.104 426.448 141.656 426 141.104 426V428ZM151.146 426C150.594 426 150.146 426.448 150.146 427C150.146 427.552 150.594 428 151.146 428V426ZM161.188 428C161.74 428 162.188 427.552 162.188 427C162.188 426.448 161.74 426 161.188 426V428ZM171.229 426C170.677 426 170.229 426.448 170.229 427C170.229 427.552 170.677 428 171.229 428V426ZM181.271 428C181.823 428 182.271 427.552 182.271 427C182.271 426.448 181.823 426 181.271 426V428ZM191.313 426C190.76 426 190.313 426.448 190.313 427C190.313 427.552 190.76 428 191.313 428V426ZM201.354 428C201.906 428 202.354 427.552 202.354 427C202.354 426.448 201.906 426 201.354 426V428ZM211.396 426C210.844 426 210.396 426.448 210.396 427C210.396 427.552 210.844 428 211.396 428V426ZM221.438 428C221.99 428 222.438 427.552 222.438 427C222.438 426.448 221.99 426 221.438 426V428ZM231.479 426C230.927 426 230.479 426.448 230.479 427C230.479 427.552 230.927 428 231.479 428V426ZM241.521 428C242.073 428 242.521 427.552 242.521 427C242.521 426.448 242.073 426 241.521 426V428ZM251.563 426C251.01 426 250.563 426.448 250.563 427C250.563 427.552 251.01 428 251.563 428V426ZM261.604 428C262.156 428 262.604 427.552 262.604 427C262.604 426.448 262.156 426 261.604 426V428ZM271.646 426C271.094 426 270.646 426.448 270.646 427C270.646 427.552 271.094 428 271.646 428V426ZM281.688 428C282.24 428 282.688 427.552 282.688 427C282.688 426.448 282.24 426 281.688 426V428ZM291.729 426C291.177 426 290.729 426.448 290.729 427C290.729 427.552 291.177 428 291.729 428V426ZM301.771 428C302.323 428 302.771 427.552 302.771 427C302.771 426.448 302.323 426 301.771 426V428ZM311.812 426C311.26 426 310.812 426.448 310.812 427C310.812 427.552 311.26 428 311.812 428V426ZM321.854 428C322.406 428 322.854 427.552 322.854 427C322.854 426.448 322.406 426 321.854 426V428ZM331.896 426C331.344 426 330.896 426.448 330.896 427C330.896 427.552 331.344 428 331.896 428V426ZM341.937 428C342.49 428 342.937 427.552 342.937 427C342.937 426.448 342.49 426 341.937 426V428ZM351.979 426C351.427 426 350.979 426.448 350.979 427C350.979 427.552 351.427 428 351.979 428V426ZM362.021 428C362.573 428 363.021 427.552 363.021 427C363.021 426.448 362.573 426 362.021 426V428ZM372.062 426C371.51 426 371.062 426.448 371.062 427C371.062 427.552 371.51 428 372.062 428V426ZM382.104 428C382.656 428 383.104 427.552 383.104 427C383.104 426.448 382.656 426 382.104 426V428ZM392.146 426C391.593 426 391.146 426.448 391.146 427C391.146 427.552 391.593 428 392.146 428V426ZM402.187 428C402.74 428 403.187 427.552 403.187 427C403.187 426.448 402.74 426 402.187 426V428ZM412.229 426C411.677 426 411.229 426.448 411.229 427C411.229 427.552 411.677 428 412.229 428V426ZM422.271 428C422.823 428 423.271 427.552 423.271 427C423.271 426.448 422.823 426 422.271 426V428ZM432.312 426C431.76 426 431.312 426.448 431.312 427C431.312 427.552 431.76 428 432.312 428V426ZM442.354 428C442.906 428 443.354 427.552 443.354 427C443.354 426.448 442.906 426 442.354 426V428ZM452.396 426C451.843 426 451.396 426.448 451.396 427C451.396 427.552 451.843 428 452.396 428V426ZM462.437 428C462.99 428 463.437 427.552 463.437 427C463.437 426.448 462.99 426 462.437 426V428ZM472.479 426C471.927 426 471.479 426.448 471.479 427C471.479 427.552 471.927 428 472.479 428V426ZM483.625 426.786C484.135 426.574 484.377 425.989 484.166 425.479C483.954 424.969 483.369 424.727 482.859 424.938L483.625 426.786ZM490.438 417.359C490.227 417.869 490.469 418.454 490.979 418.666C491.489 418.877 492.074 418.635 492.286 418.125L490.438 417.359ZM493.5 406.931C493.5 406.378 493.052 405.931 492.5 405.931C491.948 405.931 491.5 406.378 491.5 406.931H493.5ZM491.5 396.792C491.5 397.344 491.948 397.792 492.5 397.792C493.052 397.792 493.5 397.344 493.5 396.792H491.5ZM493.5 386.653C493.5 386.1 493.052 385.653 492.5 385.653C491.948 385.653 491.5 386.1 491.5 386.653H493.5ZM491.5 376.514C491.5 377.066 491.948 377.514 492.5 377.514C493.052 377.514 493.5 377.066 493.5 376.514H491.5ZM493.5 366.375C493.5 365.823 493.052 365.375 492.5 365.375C491.948 365.375 491.5 365.823 491.5 366.375H493.5ZM491.5 356.236C491.5 356.788 491.948 357.236 492.5 357.236C493.052 357.236 493.5 356.788 493.5 356.236H491.5ZM493.5 346.097C493.5 345.545 493.052 345.097 492.5 345.097C491.948 345.097 491.5 345.545 491.5 346.097H493.5ZM491.5 335.958C491.5 336.511 491.948 336.958 492.5 336.958C493.052 336.958 493.5 336.511 493.5 335.958H491.5ZM493.5 325.819C493.5 325.267 493.052 324.819 492.5 324.819C491.948 324.819 491.5 325.267 491.5 325.819H493.5ZM491.5 315.681C491.5 316.233 491.948 316.681 492.5 316.681C493.052 316.681 493.5 316.233 493.5 315.681H491.5ZM493.5 305.542C493.5 304.989 493.052 304.542 492.5 304.542C491.948 304.542 491.5 304.989 491.5 305.542H493.5ZM491.5 295.403C491.5 295.955 491.948 296.403 492.5 296.403C493.052 296.403 493.5 295.955 493.5 295.403H491.5ZM493.5 285.264C493.5 284.712 493.052 284.264 492.5 284.264C491.948 284.264 491.5 284.712 491.5 285.264H493.5ZM491.5 275.125C491.5 275.677 491.948 276.125 492.5 276.125C493.052 276.125 493.5 275.677 493.5 275.125H491.5ZM493.5 264.986C493.5 264.434 493.052 263.986 492.5 263.986C491.948 263.986 491.5 264.434 491.5 264.986H493.5ZM491.5 254.847C491.5 255.4 491.948 255.847 492.5 255.847C493.052 255.847 493.5 255.4 493.5 254.847H491.5ZM493.5 244.708C493.5 244.156 493.052 243.708 492.5 243.708C491.948 243.708 491.5 244.156 491.5 244.708H493.5ZM491.5 234.569C491.5 235.122 491.948 235.569 492.5 235.569C493.052 235.569 493.5 235.122 493.5 234.569H491.5ZM492.286 223.375C492.074 222.865 491.489 222.623 490.979 222.834C490.469 223.046 490.227 223.631 490.438 224.141L492.286 223.375ZM482.859 216.562C483.369 216.773 483.954 216.531 484.166 216.021C484.377 215.511 484.135 214.926 483.625 214.714L482.859 216.562ZM472.734 213.5C472.182 213.5 471.734 213.948 471.734 214.5C471.734 215.052 472.182 215.5 472.734 215.5V213.5ZM463.203 215.5C463.755 215.5 464.203 215.052 464.203 214.5C464.203 213.948 463.755 213.5 463.203 213.5V215.5ZM453.672 213.5C453.12 213.5 452.672 213.948 452.672 214.5C452.672 215.052 453.12 215.5 453.672 215.5V213.5ZM444.141 215.5C444.693 215.5 445.141 215.052 445.141 214.5C445.141 213.948 444.693 213.5 444.141 213.5V215.5ZM434.609 213.5C434.057 213.5 433.609 213.948 433.609 214.5C433.609 215.052 434.057 215.5 434.609 215.5V213.5ZM425.078 215.5C425.63 215.5 426.078 215.052 426.078 214.5C426.078 213.948 425.63 213.5 425.078 213.5V215.5ZM415.547 213.5C414.995 213.5 414.547 213.948 414.547 214.5C414.547 215.052 414.995 215.5 415.547 215.5V213.5ZM406.016 215.5C406.568 215.5 407.016 215.052 407.016 214.5C407.016 213.948 406.568 213.5 406.016 213.5V215.5ZM396.484 213.5C395.932 213.5 395.484 213.948 395.484 214.5C395.484 215.052 395.932 215.5 396.484 215.5V213.5ZM386.953 215.5C387.505 215.5 387.953 215.052 387.953 214.5C387.953 213.948 387.505 213.5 386.953 213.5V215.5ZM377.422 213.5C376.87 213.5 376.422 213.948 376.422 214.5C376.422 215.052 376.87 215.5 377.422 215.5V213.5ZM367.891 215.5C368.443 215.5 368.891 215.052 368.891 214.5C368.891 213.948 368.443 213.5 367.891 213.5V215.5ZM358.359 213.5C357.807 213.5 357.359 213.948 357.359 214.5C357.359 215.052 357.807 215.5 358.359 215.5V213.5ZM348.828 215.5C349.38 215.5 349.828 215.052 349.828 214.5C349.828 213.948 349.38 213.5 348.828 213.5V215.5ZM339.297 213.5C338.745 213.5 338.297 213.948 338.297 214.5C338.297 215.052 338.745 215.5 339.297 215.5V213.5ZM329.766 215.5C330.318 215.5 330.766 215.052 330.766 214.5C330.766 213.948 330.318 213.5 329.766 213.5V215.5ZM319.641 212.438C319.131 212.227 318.546 212.469 318.334 212.979C318.123 213.489 318.365 214.074 318.875 214.286L319.641 212.438ZM310.214 205.625C310.426 206.135 311.011 206.377 311.521 206.166C312.031 205.954 312.273 205.369 312.062 204.859L310.214 205.625ZM311 194.625C311 194.073 310.552 193.625 310 193.625C309.448 193.625 309 194.073 309 194.625H311ZM309 184.875C309 185.427 309.448 185.875 310 185.875C310.552 185.875 311 185.427 311 184.875H309ZM311 175.125C311 174.573 310.552 174.125 310 174.125C309.448 174.125 309 174.573 309 175.125H311ZM309 165.375C309 165.927 309.448 166.375 310 166.375C310.552 166.375 311 165.927 311 165.375H309ZM311 155.625C311 155.073 310.552 154.625 310 154.625C309.448 154.625 309 155.073 309 155.625H311ZM309 145.875C309 146.427 309.448 146.875 310 146.875C310.552 146.875 311 146.427 311 145.875H309ZM311 136.125C311 135.573 310.552 135.125 310 135.125C309.448 135.125 309 135.573 309 136.125H311ZM309 126.375C309 126.927 309.448 127.375 310 127.375C310.552 127.375 311 126.927 311 126.375H309ZM311 116.625C311 116.073 310.552 115.625 310 115.625C309.448 115.625 309 116.073 309 116.625H311ZM309 106.875C309 107.427 309.448 107.875 310 107.875C310.552 107.875 311 107.427 311 106.875H309ZM311 97.125C311 96.5727 310.552 96.125 310 96.125C309.448 96.125 309 96.5727 309 97.125H311ZM309 87.375C309 87.9273 309.448 88.375 310 88.375C310.552 88.375 311 87.9273 311 87.375H309ZM311 77.625C311 77.0727 310.552 76.625 310 76.625C309.448 76.625 309 77.0727 309 77.625H311ZM309 67.875C309 68.4273 309.448 68.875 310 68.875C310.552 68.875 311 68.4273 311 67.875H309ZM311 58.125C311 57.5727 310.552 57.125 310 57.125C309.448 57.125 309 57.5727 309 58.125H311ZM309 48.375C309 48.9273 309.448 49.375 310 49.375C310.552 49.375 311 48.9273 311 48.375H309ZM311 38.625C311 38.0727 310.552 37.625 310 37.625C309.448 37.625 309 38.0727 309 38.625H311ZM309 28.875C309 29.4273 309.448 29.875 310 29.875C310.552 29.875 311 29.4273 311 28.875H309ZM312.062 18.6412C312.273 18.1311 312.031 17.546 311.521 17.3345C311.011 17.1229 310.426 17.365 310.214 17.8751L312.062 18.6412ZM318.875 9.21448C318.365 9.42604 318.123 10.0111 318.334 10.5213C318.546 11.0314 319.131 11.2735 319.641 11.0619L318.875 9.21448ZM330.026 10C330.579 10 331.026 9.55228 331.026 9C331.026 8.44772 330.579 8 330.026 8V10ZM340.079 8C339.527 8 339.079 8.44772 339.079 9C339.079 9.55228 339.527 10 340.079 10V8ZM350.132 10C350.685 10 351.132 9.55228 351.132 9C351.132 8.44772 350.685 8 350.132 8V10ZM360.185 8C359.633 8 359.185 8.44772 359.185 9C359.185 9.55228 359.633 10 360.185 10V8ZM370.238 10C370.79 10 371.238 9.55228 371.238 9C371.238 8.44772 370.79 8 370.238 8V10ZM380.291 8C379.739 8 379.291 8.44772 379.291 9C379.291 9.55228 379.739 10 380.291 10V8ZM390.344 10C390.896 10 391.344 9.55228 391.344 9C391.344 8.44772 390.896 8 390.344 8V10ZM400.397 8C399.844 8 399.397 8.44772 399.397 9C399.397 9.55228 399.844 10 400.397 10V8ZM410.45 10C411.002 10 411.45 9.55228 411.45 9C411.45 8.44772 411.002 8 410.45 8V10ZM420.502 8C419.95 8 419.502 8.44772 419.502 9C419.502 9.55228 419.95 10 420.502 10V8ZM430.555 10C431.108 10 431.555 9.55228 431.555 9C431.555 8.44772 431.108 8 430.555 8V10ZM440.608 8C440.056 8 439.608 8.44772 439.608 9C439.608 9.55228 440.056 10 440.608 10V8ZM450.661 10C451.213 10 451.661 9.55228 451.661 9C451.661 8.44772 451.213 8 450.661 8V10ZM460.714 8C460.162 8 459.714 8.44772 459.714 9C459.714 9.55228 460.162 10 460.714 10V8ZM470.767 10C471.319 10 471.767 9.55228 471.767 9C471.767 8.44772 471.319 8 470.767 8V10ZM480.82 8C480.267 8 479.82 8.44772 479.82 9C479.82 9.55228 480.267 10 480.82 10V8ZM490.873 10C491.425 10 491.873 9.55228 491.873 9C491.873 8.44772 491.425 8 490.873 8V10ZM500.926 8C500.373 8 499.926 8.44772 499.926 9C499.926 9.55228 500.373 10 500.926 10V8ZM510.978 10C511.531 10 511.978 9.55228 511.978 9C511.978 8.44772 511.531 8 510.978 8V10ZM521.031 8C520.479 8 520.031 8.44772 520.031 9C520.031 9.55228 520.479 10 521.031 10V8ZM531.084 10C531.636 10 532.084 9.55228 532.084 9C532.084 8.44772 531.636 8 531.084 8V10ZM541.137 8C540.585 8 540.137 8.44772 540.137 9C540.137 9.55228 540.585 10 541.137 10V8ZM551.19 10C551.742 10 552.19 9.55228 552.19 9C552.19 8.44772 551.742 8 551.19 8V10ZM561.243 8C560.691 8 560.243 8.44772 560.243 9C560.243 9.55228 560.691 10 561.243 10V8ZM571.296 10C571.848 10 572.296 9.55228 572.296 9C572.296 8.44772 571.848 8 571.296 8V10ZM581.349 8C580.796 8 580.349 8.44772 580.349 9C580.349 9.55228 580.796 10 581.349 10V8ZM591.401 10C591.954 10 592.401 9.55228 592.401 9C592.401 8.44772 591.954 8 591.401 8V10ZM601.454 8C600.902 8 600.454 8.44772 600.454 9C600.454 9.55228 600.902 10 601.454 10V8ZM611.507 10C612.06 10 612.507 9.55228 612.507 9C612.507 8.44772 612.06 8 611.507 8V10ZM621.56 8C621.008 8 620.56 8.44772 620.56 9C620.56 9.55228 621.008 10 621.56 10V8ZM631.613 10C632.165 10 632.613 9.55228 632.613 9C632.613 8.44772 632.165 8 631.613 8V10ZM641.666 8C641.114 8 640.666 8.44772 640.666 9C640.666 9.55228 641.114 10 641.666 10V8ZM651.719 10C652.271 10 652.719 9.55228 652.719 9C652.719 8.44772 652.271 8 651.719 8V10ZM661.772 8C661.219 8 660.772 8.44772 660.772 9C660.772 9.55228 661.219 10 661.772 10V8ZM671.825 10C672.377 10 672.825 9.55228 672.825 9C672.825 8.44772 672.377 8 671.825 8V10ZM681.877 8C681.325 8 680.877 8.44772 680.877 9C680.877 9.55228 681.325 10 681.877 10V8ZM691.93 10C692.483 10 692.93 9.55228 692.93 9C692.93 8.44772 692.483 8 691.93 8V10ZM701.983 8C701.431 8 700.983 8.44772 700.983 9C700.983 9.55228 701.431 10 701.983 10V8ZM712.036 10C712.588 10 713.036 9.55228 713.036 9C713.036 8.44772 712.588 8 712.036 8V10ZM722.089 8C721.537 8 721.089 8.44772 721.089 9C721.089 9.55228 721.537 10 722.089 10V8ZM732.142 10C732.694 10 733.142 9.55228 733.142 9C733.142 8.44772 732.694 8 732.142 8V10ZM742.195 8C741.643 8 741.195 8.44772 741.195 9C741.195 9.55228 741.643 10 742.195 10V8ZM752.248 10C752.8 10 753.248 9.55228 753.248 9C753.248 8.44772 752.8 8 752.248 8V10ZM762.301 8C761.748 8 761.301 8.44772 761.301 9C761.301 9.55228 761.748 10 762.301 10V8ZM772.353 10C772.906 10 773.353 9.55228 773.353 9C773.353 8.44772 772.906 8 772.353 8V10ZM782.406 8C781.854 8 781.406 8.44772 781.406 9C781.406 9.55228 781.854 10 782.406 10V8ZM792.459 10C793.012 10 793.459 9.55228 793.459 9C793.459 8.44772 793.012 8 792.459 8V10ZM802.512 8C801.96 8 801.512 8.44772 801.512 9C801.512 9.55228 801.96 10 802.512 10V8ZM812.565 10C813.117 10 813.565 9.55228 813.565 9C813.565 8.44772 813.117 8 812.565 8V10ZM822.618 8C822.066 8 821.618 8.44772 821.618 9C821.618 9.55228 822.066 10 822.618 10V8ZM832.671 10C833.223 10 833.671 9.55228 833.671 9C833.671 8.44772 833.223 8 832.671 8V10ZM842.724 8C842.171 8 841.724 8.44772 841.724 9C841.724 9.55228 842.171 10 842.724 10V8ZM852.776 10C853.329 10 853.776 9.55228 853.776 9C853.776 8.44772 853.329 8 852.776 8V10ZM862.829 8C862.277 8 861.829 8.44772 861.829 9C861.829 9.55228 862.277 10 862.829 10V8ZM872.882 10C873.434 10 873.882 9.55228 873.882 9C873.882 8.44772 873.434 8 872.882 8V10ZM882.935 8C882.383 8 881.935 8.44772 881.935 9C881.935 9.55228 882.383 10 882.935 10V8ZM892.988 10C893.54 10 893.988 9.55228 893.988 9C893.988 8.44772 893.54 8 892.988 8V10ZM903.041 8C902.488 8 902.041 8.44772 902.041 9C902.041 9.55228 902.488 10 903.041 10V8ZM913.094 10C913.646 10 914.094 9.55228 914.094 9C914.094 8.44772 913.646 8 913.094 8V10ZM923.146 8C922.594 8 922.146 8.44772 922.146 9C922.146 9.55228 922.594 10 923.146 10V8ZM933.199 10C933.752 10 934.199 9.55228 934.199 9C934.199 8.44772 933.752 8 933.199 8V10ZM943.252 8C942.7 8 942.252 8.44772 942.252 9C942.252 9.55228 942.7 10 943.252 10V8ZM953.305 10C953.857 10 954.305 9.55228 954.305 9C954.305 8.44772 953.857 8 953.305 8V10ZM963.358 8C962.806 8 962.358 8.44772 962.358 9C962.358 9.55228 962.806 10 963.358 10V8ZM973.411 10C973.963 10 974.411 9.55228 974.411 9C974.411 8.44772 973.963 8 973.411 8V10ZM983.464 8C982.911 8 982.464 8.44772 982.464 9C982.464 9.55228 982.911 10 983.464 10V8ZM993.517 10C994.069 10 994.517 9.55228 994.517 9C994.517 8.44772 994.069 8 993.517 8V10ZM1003.57 8C1003.02 8 1002.57 8.44772 1002.57 9C1002.57 9.55228 1003.02 10 1003.57 10V8ZM1013.62 10C1014.17 10 1014.62 9.55228 1014.62 9C1014.62 8.44772 1014.17 8 1013.62 8V10ZM1023.68 8C1023.12 8 1022.68 8.44772 1022.68 9C1022.68 9.55228 1023.12 10 1023.68 10V8ZM1033.73 10C1034.28 10 1034.73 9.55228 1034.73 9C1034.73 8.44772 1034.28 8 1033.73 8V10ZM1043.78 8C1043.23 8 1042.78 8.44772 1042.78 9C1042.78 9.55228 1043.23 10 1043.78 10V8ZM1053.83 10C1054.39 10 1054.83 9.55228 1054.83 9C1054.83 8.44772 1054.39 8 1053.83 8V10ZM1063.89 8C1063.33 8 1062.89 8.44772 1062.89 9C1062.89 9.55228 1063.33 10 1063.89 10V8ZM1073.94 10C1074.49 10 1074.94 9.55228 1074.94 9C1074.94 8.44772 1074.49 8 1073.94 8V10ZM1083.99 8C1083.44 8 1082.99 8.44772 1082.99 9C1082.99 9.55228 1083.44 10 1083.99 10V8ZM1094.05 10C1094.6 10 1095.05 9.55228 1095.05 9C1095.05 8.44772 1094.6 8 1094.05 8V10ZM1104.1 8C1103.55 8 1103.1 8.44772 1103.1 9C1103.1 9.55228 1103.55 10 1104.1 10V8ZM1114.15 10C1114.7 10 1115.15 9.55228 1115.15 9C1115.15 8.44772 1114.7 8 1114.15 8V10ZM1124.2 8C1123.65 8 1123.2 8.44772 1123.2 9C1123.2 9.55228 1123.65 10 1124.2 10V8ZM1134.26 10C1134.81 10 1135.26 9.55228 1135.26 9C1135.26 8.44772 1134.81 8 1134.26 8V10ZM1144.31 8C1143.76 8 1143.31 8.44772 1143.31 9C1143.31 9.55228 1143.76 10 1144.31 10V8ZM1154.36 10C1154.91 10 1155.36 9.55228 1155.36 9C1155.36 8.44772 1154.91 8 1154.36 8V10ZM1164.42 8C1163.86 8 1163.42 8.44772 1163.42 9C1163.42 9.55228 1163.86 10 1164.42 10V8ZM1174.47 10C1175.02 10 1175.47 9.55228 1175.47 9C1175.47 8.44772 1175.02 8 1174.47 8V10ZM1184.52 8C1183.97 8 1183.52 8.44772 1183.52 9C1183.52 9.55228 1183.97 10 1184.52 10V8ZM1194.57 10C1195.13 10 1195.57 9.55228 1195.57 9C1195.57 8.44772 1195.13 8 1194.57 8V10ZM1204.63 8C1204.07 8 1203.63 8.44772 1203.63 9C1203.63 9.55228 1204.07 10 1204.63 10V8ZM1214.68 10C1215.23 10 1215.68 9.55228 1215.68 9C1215.68 8.44772 1215.23 8 1214.68 8V10ZM1224.73 8C1224.18 8 1223.73 8.44772 1223.73 9C1223.73 9.55228 1224.18 10 1224.73 10V8ZM1234.79 10C1235.34 10 1235.79 9.55228 1235.79 9C1235.79 8.44772 1235.34 8 1234.79 8V10ZM1244.84 8C1244.29 8 1243.84 8.44772 1243.84 9C1243.84 9.55228 1244.29 10 1244.84 10V8ZM1254.89 10C1255.44 10 1255.89 9.55228 1255.89 9C1255.89 8.44772 1255.44 8 1254.89 8V10ZM1264.94 8C1264.39 8 1263.94 8.44772 1263.94 9C1263.94 9.55228 1264.39 10 1264.94 10V8ZM1275 10C1275.55 10 1276 9.55228 1276 9C1276 8.44772 1275.55 8 1275 8V10ZM1285.05 8C1284.5 8 1284.05 8.44772 1284.05 9C1284.05 9.55228 1284.5 10 1285.05 10V8ZM1295.1 10C1295.65 10 1296.1 9.55228 1296.1 9C1296.1 8.44772 1295.65 8 1295.1 8V10ZM1305.16 8C1304.6 8 1304.16 8.44772 1304.16 9C1304.16 9.55228 1304.6 10 1305.16 10V8ZM1315.21 10C1315.76 10 1316.21 9.55228 1316.21 9C1316.21 8.44772 1315.76 8 1315.21 8V10ZM1325.26 8C1324.71 8 1324.26 8.44772 1324.26 9C1324.26 9.55228 1324.71 10 1325.26 10V8ZM1335.31 10C1335.87 10 1336.31 9.55228 1336.31 9C1336.31 8.44772 1335.87 8 1335.31 8V10ZM1345.37 8C1344.81 8 1344.37 8.44772 1344.37 9C1344.37 9.55228 1344.81 10 1345.37 10V8ZM1355.42 10C1355.97 10 1356.42 9.55228 1356.42 9C1356.42 8.44772 1355.97 8 1355.42 8V10ZM1365.47 8C1364.92 8 1364.47 8.44772 1364.47 9C1364.47 9.55228 1364.92 10 1365.47 10V8ZM1375.86 11.0619C1376.37 11.2735 1376.95 11.0314 1377.17 10.5213C1377.38 10.0111 1377.14 9.42603 1376.62 9.21448L1375.86 11.0619ZM1385.29 17.8751C1385.07 17.365 1384.49 17.1229 1383.98 17.3345C1383.47 17.546 1383.23 18.1311 1383.44 18.6412L1385.29 17.8751ZM1384.5 29.0357C1384.5 29.588 1384.95 30.0357 1385.5 30.0357C1386.05 30.0357 1386.5 29.588 1386.5 29.0357H1384.5ZM1386.5 39.1071C1386.5 38.5549 1386.05 38.1071 1385.5 38.1071C1384.95 38.1071 1384.5 38.5549 1384.5 39.1071H1386.5ZM1384.5 49.1786C1384.5 49.7309 1384.95 50.1786 1385.5 50.1786C1386.05 50.1786 1386.5 49.7309 1386.5 49.1786H1384.5ZM1386.5 59.25C1386.5 58.6977 1386.05 58.25 1385.5 58.25C1384.95 58.25 1384.5 58.6977 1384.5 59.25H1386.5ZM1384.5 69.3214C1384.5 69.8737 1384.95 70.3214 1385.5 70.3214C1386.05 70.3214 1386.5 69.8737 1386.5 69.3214H1384.5ZM1386.5 79.3929C1386.5 78.8406 1386.05 78.3929 1385.5 78.3929C1384.95 78.3929 1384.5 78.8406 1384.5 79.3929H1386.5ZM1384.5 89.4643C1384.5 90.0166 1384.95 90.4643 1385.5 90.4643C1386.05 90.4643 1386.5 90.0166 1386.5 89.4643H1384.5ZM1386.5 99.5357C1386.5 98.9834 1386.05 98.5357 1385.5 98.5357C1384.95 98.5357 1384.5 98.9834 1384.5 99.5357H1386.5ZM1384.5 109.607C1384.5 110.159 1384.95 110.607 1385.5 110.607C1386.05 110.607 1386.5 110.159 1386.5 109.607H1384.5ZM1386.5 119.679C1386.5 119.126 1386.05 118.679 1385.5 118.679C1384.95 118.679 1384.5 119.126 1384.5 119.679H1386.5ZM1384.5 129.75C1384.5 130.302 1384.95 130.75 1385.5 130.75C1386.05 130.75 1386.5 130.302 1386.5 129.75H1384.5ZM1386.5 139.821C1386.5 139.269 1386.05 138.821 1385.5 138.821C1384.95 138.821 1384.5 139.269 1384.5 139.821H1386.5ZM1384.5 149.893C1384.5 150.445 1384.95 150.893 1385.5 150.893C1386.05 150.893 1386.5 150.445 1386.5 149.893H1384.5ZM1386.5 159.964C1386.5 159.412 1386.05 158.964 1385.5 158.964C1384.95 158.964 1384.5 159.412 1384.5 159.964H1386.5ZM1385.71 171.125C1385.93 171.635 1386.51 171.877 1387.02 171.666C1387.53 171.454 1387.77 170.869 1387.56 170.359L1385.71 171.125ZM1395.14 177.938C1394.63 177.727 1394.05 177.969 1393.83 178.479C1393.62 178.989 1393.86 179.574 1394.38 179.786L1395.14 177.938ZM1405.47 181C1406.02 181 1406.47 180.552 1406.47 180C1406.47 179.448 1406.02 179 1405.47 179V181ZM1415.41 179C1414.86 179 1414.41 179.448 1414.41 180C1414.41 180.552 1414.86 181 1415.41 181V179ZM1425.36 181C1425.91 181 1426.36 180.552 1426.36 180C1426.36 179.448 1425.91 179 1425.36 179V181ZM1435.3 179C1434.75 179 1434.3 179.448 1434.3 180C1434.3 180.552 1434.75 181 1435.3 181V179ZM1445.24 181C1445.79 181 1446.24 180.552 1446.24 180C1446.24 179.448 1445.79 179 1445.24 179V181ZM1455.18 179C1454.63 179 1454.18 179.448 1454.18 180C1454.18 180.552 1454.63 181 1455.18 181V179ZM1465.12 181C1465.68 181 1466.12 180.552 1466.12 180C1466.12 179.448 1465.68 179 1465.12 179V181ZM1475.07 179C1474.52 179 1474.07 179.448 1474.07 180C1474.07 180.552 1474.52 181 1475.07 181V179ZM1485.01 181C1485.56 181 1486.01 180.552 1486.01 180C1486.01 179.448 1485.56 179 1485.01 179V181ZM1494.95 179C1494.4 179 1493.95 179.448 1493.95 180C1493.95 180.552 1494.4 181 1494.95 181V179ZM1504.89 181C1505.45 181 1505.89 180.552 1505.89 180C1505.89 179.448 1505.45 179 1504.89 179V181ZM1514.84 179C1514.28 179 1513.84 179.448 1513.84 180C1513.84 180.552 1514.28 181 1514.84 181V179ZM1524.78 181C1525.33 181 1525.78 180.552 1525.78 180C1525.78 179.448 1525.33 179 1524.78 179V181ZM1534.72 179C1534.17 179 1533.72 179.448 1533.72 180C1533.72 180.552 1534.17 181 1534.72 181V179ZM1544.66 181C1545.22 181 1545.66 180.552 1545.66 180C1545.66 179.448 1545.22 179 1544.66 179V181ZM1554.61 179C1554.05 179 1553.61 179.448 1553.61 180C1553.61 180.552 1554.05 181 1554.61 181V179ZM1564.55 181C1565.1 181 1565.55 180.552 1565.55 180C1565.55 179.448 1565.1 179 1564.55 179V181ZM1574.49 179C1573.94 179 1573.49 179.448 1573.49 180C1573.49 180.552 1573.94 181 1574.49 181V179ZM1584.43 181C1584.98 181 1585.43 180.552 1585.43 180C1585.43 179.448 1584.98 179 1584.43 179V181ZM1594.38 179C1593.82 179 1593.38 179.448 1593.38 180C1593.38 180.552 1593.82 181 1594.38 181V179ZM1604.32 181C1604.87 181 1605.32 180.552 1605.32 180C1605.32 179.448 1604.87 179 1604.32 179V181ZM1614.26 179C1613.71 179 1613.26 179.448 1613.26 180C1613.26 180.552 1613.71 181 1614.26 181V179ZM1624.2 181C1624.75 181 1625.2 180.552 1625.2 180C1625.2 179.448 1624.75 179 1624.2 179V181ZM1634.14 179C1633.59 179 1633.14 179.448 1633.14 180C1633.14 180.552 1633.59 181 1634.14 181V179ZM1644.09 181C1644.64 181 1645.09 180.552 1645.09 180C1645.09 179.448 1644.64 179 1644.09 179V181ZM1654.03 179C1653.48 179 1653.03 179.448 1653.03 180C1653.03 180.552 1653.48 181 1654.03 181V179ZM1663.97 181C1664.52 181 1664.97 180.552 1664.97 180C1664.97 179.448 1664.52 179 1663.97 179V181ZM1673.91 179C1673.36 179 1672.91 179.448 1672.91 180C1672.91 180.552 1673.36 181 1673.91 181V179ZM1683.86 181C1684.41 181 1684.86 180.552 1684.86 180C1684.86 179.448 1684.41 179 1683.86 179V181ZM1693.8 179C1693.25 179 1692.8 179.448 1692.8 180C1692.8 180.552 1693.25 181 1693.8 181V179ZM1703.74 181C1704.29 181 1704.74 180.552 1704.74 180C1704.74 179.448 1704.29 179 1703.74 179V181ZM1713.68 179C1713.13 179 1712.68 179.448 1712.68 180C1712.68 180.552 1713.13 181 1713.68 181V179ZM1723.63 181C1724.18 181 1724.63 180.552 1724.63 180C1724.63 179.448 1724.18 179 1723.63 179V181ZM1733.57 179C1733.02 179 1732.57 179.448 1732.57 180C1732.57 180.552 1733.02 181 1733.57 181V179ZM1743.51 181C1744.06 181 1744.51 180.552 1744.51 180C1744.51 179.448 1744.06 179 1743.51 179V181ZM1753.45 179C1752.9 179 1752.45 179.448 1752.45 180C1752.45 180.552 1752.9 181 1753.45 181V179ZM1763.39 181C1763.95 181 1764.39 180.552 1764.39 180C1764.39 179.448 1763.95 179 1763.39 179V181ZM1773.34 179C1772.78 179 1772.34 179.448 1772.34 180C1772.34 180.552 1772.78 181 1773.34 181V179ZM1783.28 181C1783.83 181 1784.28 180.552 1784.28 180C1784.28 179.448 1783.83 179 1783.28 179V181ZM1793.22 179C1792.67 179 1792.22 179.448 1792.22 180C1792.22 180.552 1792.67 181 1793.22 181V179ZM1803.16 181C1803.72 181 1804.16 180.552 1804.16 180C1804.16 179.448 1803.72 179 1803.16 179V181ZM1813.11 179C1812.55 179 1812.11 179.448 1812.11 180C1812.11 180.552 1812.55 181 1813.11 181V179ZM1823.05 181C1823.6 181 1824.05 180.552 1824.05 180C1824.05 179.448 1823.6 179 1823.05 179V181ZM1832.99 179C1832.44 179 1831.99 179.448 1831.99 180C1831.99 180.552 1832.44 181 1832.99 181V179ZM1842.93 181C1843.49 181 1843.93 180.552 1843.93 180C1843.93 179.448 1843.49 179 1842.93 179V181ZM1852.88 179C1852.32 179 1851.88 179.448 1851.88 180C1851.88 180.552 1852.32 181 1852.88 181V179ZM1862.82 181C1863.37 181 1863.82 180.552 1863.82 180C1863.82 179.448 1863.37 179 1862.82 179V181ZM1872.76 179C1872.21 179 1871.76 179.448 1871.76 180C1871.76 180.552 1872.21 181 1872.76 181V179ZM1882.7 181C1883.25 181 1883.7 180.552 1883.7 180C1883.7 179.448 1883.25 179 1882.7 179V181ZM1892.64 179C1892.09 179 1891.64 179.448 1891.64 180C1891.64 180.552 1892.09 181 1892.64 181V179ZM1902.59 181C1903.14 181 1903.59 180.552 1903.59 180C1903.59 179.448 1903.14 179 1902.59 179V181ZM1912.53 179C1911.98 179 1911.53 179.448 1911.53 180C1911.53 180.552 1911.98 181 1912.53 181V179ZM-4.5 428H0.520833V426H-4.5V428ZM10.5625 428H20.6042V426H10.5625V428ZM30.6458 428H40.6875V426H30.6458V428ZM50.7292 428H60.7708V426H50.7292V428ZM70.8125 428H80.8542V426H70.8125V428ZM90.8958 428H100.937V426H90.8958V428ZM110.979 428H121.021V426H110.979V428ZM131.062 428H141.104V426H131.062V428ZM151.146 428H161.188V426H151.146V428ZM171.229 428H181.271V426H171.229V428ZM191.313 428H201.354V426H191.313V428ZM211.396 428H221.438V426H211.396V428ZM231.479 428H241.521V426H231.479V428ZM251.563 428H261.604V426H251.563V428ZM271.646 428H281.688V426H271.646V428ZM291.729 428H301.771V426H291.729V428ZM311.812 428H321.854V426H311.812V428ZM331.896 428H341.937V426H331.896V428ZM351.979 428H362.021V426H351.979V428ZM372.062 428H382.104V426H372.062V428ZM392.146 428H402.187V426H392.146V428ZM412.229 428H422.271V426H412.229V428ZM432.312 428H442.354V426H432.312V428ZM452.396 428H462.437V426H452.396V428ZM472.479 428H477.5V426H472.479V428ZM477.5 428C479.668 428 481.737 427.568 483.625 426.786L482.859 424.938C481.209 425.622 479.4 426 477.5 426V428ZM492.286 418.125C493.068 416.237 493.5 414.168 493.5 412H491.5C491.5 413.9 491.122 415.709 490.438 417.359L492.286 418.125ZM493.5 412V406.931H491.5V412H493.5ZM493.5 396.792V386.653H491.5V396.792H493.5ZM493.5 376.514V366.375H491.5V376.514H493.5ZM493.5 356.236V346.097H491.5V356.236H493.5ZM493.5 335.958V325.819H491.5V335.958H493.5ZM493.5 315.681V305.542H491.5V315.681H493.5ZM493.5 295.403V285.264H491.5V295.403H493.5ZM493.5 275.125V264.986H491.5V275.125H493.5ZM493.5 254.847V244.708H491.5V254.847H493.5ZM493.5 234.569V229.5H491.5V234.569H493.5ZM493.5 229.5C493.5 227.332 493.068 225.263 492.286 223.375L490.438 224.141C491.122 225.791 491.5 227.6 491.5 229.5H493.5ZM483.625 214.714C481.737 213.932 479.668 213.5 477.5 213.5V215.5C479.4 215.5 481.209 215.878 482.859 216.562L483.625 214.714ZM477.5 213.5H472.734V215.5H477.5V213.5ZM463.203 213.5H453.672V215.5H463.203V213.5ZM444.141 213.5H434.609V215.5H444.141V213.5ZM425.078 213.5H415.547V215.5H425.078V213.5ZM406.016 213.5H396.484V215.5H406.016V213.5ZM386.953 213.5H377.422V215.5H386.953V213.5ZM367.891 213.5H358.359V215.5H367.891V213.5ZM348.828 213.5H339.297V215.5H348.828V213.5ZM329.766 213.5H325V215.5H329.766V213.5ZM325 213.5C323.1 213.5 321.291 213.122 319.641 212.438L318.875 214.286C320.763 215.068 322.832 215.5 325 215.5V213.5ZM312.062 204.859C311.378 203.209 311 201.4 311 199.5H309C309 201.668 309.432 203.737 310.214 205.625L312.062 204.859ZM311 199.5V194.625H309V199.5H311ZM311 184.875V175.125H309V184.875H311ZM311 165.375V155.625H309V165.375H311ZM311 145.875V136.125H309V145.875H311ZM311 126.375V116.625H309V126.375H311ZM311 106.875V97.125H309V106.875H311ZM311 87.375V77.625H309V87.375H311ZM311 67.875V58.125H309V67.875H311ZM311 48.375V38.625H309V48.375H311ZM311 28.875V24H309V28.875H311ZM311 24C311 22.0999 311.378 20.2906 312.062 18.6412L310.214 17.8751C309.432 19.763 309 21.8324 309 24H311ZM319.641 11.0619C321.291 10.378 323.1 10 325 10V8C322.832 8 320.763 8.4316 318.875 9.21448L319.641 11.0619ZM325 10H330.026V8H325V10ZM340.079 10H350.132V8H340.079V10ZM360.185 10H370.238V8H360.185V10ZM380.291 10H390.344V8H380.291V10ZM400.397 10H410.45V8H400.397V10ZM420.502 10H430.555V8H420.502V10ZM440.608 10H450.661V8H440.608V10ZM460.714 10H470.767V8H460.714V10ZM480.82 10H490.873V8H480.82V10ZM500.926 10H510.978V8H500.926V10ZM521.031 10H531.084V8H521.031V10ZM541.137 10H551.19V8H541.137V10ZM561.243 10H571.296V8H561.243V10ZM581.349 10H591.401V8H581.349V10ZM601.454 10H611.507V8H601.454V10ZM621.56 10H631.613V8H621.56V10ZM641.666 10H651.719V8H641.666V10ZM661.772 10H671.825V8H661.772V10ZM681.877 10H691.93V8H681.877V10ZM701.983 10H712.036V8H701.983V10ZM722.089 10H732.142V8H722.089V10ZM742.195 10H752.248V8H742.195V10ZM762.301 10H772.353V8H762.301V10ZM782.406 10H792.459V8H782.406V10ZM802.512 10H812.565V8H802.512V10ZM822.618 10H832.671V8H822.618V10ZM842.724 10H852.776V8H842.724V10ZM862.829 10H872.882V8H862.829V10ZM882.935 10H892.988V8H882.935V10ZM903.041 10H913.094V8H903.041V10ZM923.146 10H933.199V8H923.146V10ZM943.252 10H953.305V8H943.252V10ZM963.358 10H973.411V8H963.358V10ZM983.464 10H993.517V8H983.464V10ZM1003.57 10H1013.62V8H1003.57V10ZM1023.68 10H1033.73V8H1023.68V10ZM1043.78 10H1053.83V8H1043.78V10ZM1063.89 10H1073.94V8H1063.89V10ZM1083.99 10H1094.05V8H1083.99V10ZM1104.1 10H1114.15V8H1104.1V10ZM1124.2 10H1134.26V8H1124.2V10ZM1144.31 10H1154.36V8H1144.31V10ZM1164.42 10H1174.47V8H1164.42V10ZM1184.52 10H1194.57V8H1184.52V10ZM1204.63 10H1214.68V8H1204.63V10ZM1224.73 10H1234.79V8H1224.73V10ZM1244.84 10H1254.89V8H1244.84V10ZM1264.94 10H1275V8H1264.94V10ZM1285.05 10H1295.1V8H1285.05V10ZM1305.16 10H1315.21V8H1305.16V10ZM1325.26 10H1335.31V8H1325.26V10ZM1345.37 10H1355.42V8H1345.37V10ZM1365.47 10H1370.5V8H1365.47V10ZM1370.5 10C1372.4 10 1374.21 10.378 1375.86 11.0619L1376.62 9.21448C1374.74 8.43159 1372.67 8 1370.5 8V10ZM1383.44 18.6412C1384.12 20.2906 1384.5 22.0999 1384.5 24H1386.5C1386.5 21.8324 1386.07 19.763 1385.29 17.8751L1383.44 18.6412ZM1384.5 24V29.0357H1386.5V24H1384.5ZM1384.5 39.1071V49.1786H1386.5V39.1071H1384.5ZM1384.5 59.25V69.3214H1386.5V59.25H1384.5ZM1384.5 79.3929V89.4643H1386.5V79.3929H1384.5ZM1384.5 99.5357V109.607H1386.5V99.5357H1384.5ZM1384.5 119.679V129.75H1386.5V119.679H1384.5ZM1384.5 139.821V149.893H1386.5V139.821H1384.5ZM1384.5 159.964V165H1386.5V159.964H1384.5ZM1384.5 165C1384.5 167.168 1384.93 169.237 1385.71 171.125L1387.56 170.359C1386.88 168.709 1386.5 166.9 1386.5 165H1384.5ZM1394.38 179.786C1396.26 180.568 1398.33 181 1400.5 181V179C1398.6 179 1396.79 178.622 1395.14 177.938L1394.38 179.786ZM1400.5 181H1405.47V179H1400.5V181ZM1415.41 181H1425.36V179H1415.41V181ZM1435.3 181H1445.24V179H1435.3V181ZM1455.18 181H1465.12V179H1455.18V181ZM1475.07 181H1485.01V179H1475.07V181ZM1494.95 181H1504.89V179H1494.95V181ZM1514.84 181H1524.78V179H1514.84V181ZM1534.72 181H1544.66V179H1534.72V181ZM1554.61 181H1564.55V179H1554.61V181ZM1574.49 181H1584.43V179H1574.49V181ZM1594.38 181H1604.32V179H1594.38V181ZM1614.26 181H1624.2V179H1614.26V181ZM1634.14 181H1644.09V179H1634.14V181ZM1654.03 181H1663.97V179H1654.03V181ZM1673.91 181H1683.86V179H1673.91V181ZM1693.8 181H1703.74V179H1693.8V181ZM1713.68 181H1723.63V179H1713.68V181ZM1733.57 181H1743.51V179H1733.57V181ZM1753.45 181H1763.39V179H1753.45V181ZM1773.34 181H1783.28V179H1773.34V181ZM1793.22 181H1803.16V179H1793.22V181ZM1813.11 181H1823.05V179H1813.11V181ZM1832.99 181H1842.93V179H1832.99V181ZM1852.88 181H1862.82V179H1852.88V181ZM1872.76 181H1882.7V179H1872.76V181ZM1892.64 181H1902.59V179H1892.64V181ZM1912.53 181H1917.5V179H1912.53V181Z" fill="white"/>
<circle cx="186" cy="427" r="6" fill="#F1F1F1"/>
<circle cx="186" cy="427" r="8.5" stroke="#F1F1F1"/>
<circle cx="310" cy="44" r="6" fill="#F1F1F1"/>
<circle cx="310" cy="44" r="8.5" stroke="#F1F1F1"/>
<circle cx="1156" cy="9" r="6" fill="#F1F1F1"/>
<circle cx="1156" cy="9" r="8.5" stroke="#F1F1F1"/>
<circle cx="1678" cy="180" r="6" fill="#F1F1F1"/>
<circle cx="1678" cy="180" r="8.5" stroke="#F1F1F1"/>
</svg>
