<svg width="26" height="32" viewBox="0 0 26 32" fill="none" xmlns="http://www.w3.org/2000/svg">
<path d="M24.5716 13.4289C24.5716 22.4289 13.0001 30.1431 13.0001 30.1431C13.0001 30.1431 1.42871 22.4289 1.42871 13.4289C1.42871 10.3599 2.64784 7.41668 4.8179 5.24661C6.98797 3.07655 9.93121 1.85742 13.0001 1.85742C16.0691 1.85742 19.0123 3.07655 21.1824 5.24661C23.3524 7.41668 24.5716 10.3599 24.5716 13.4289Z" stroke="#F1F1F1" stroke-width="2" stroke-linecap="round" stroke-linejoin="round"/>
<path d="M13.0001 17.286C15.1304 17.286 16.8573 15.5591 16.8573 13.4289C16.8573 11.2986 15.1304 9.57171 13.0001 9.57171C10.8699 9.57171 9.143 11.2986 9.143 13.4289C9.143 15.5591 10.8699 17.286 13.0001 17.286Z" stroke="#F1F1F1" stroke-width="2" stroke-linecap="round" stroke-linejoin="round"/>
</svg>
