<svg width="36" height="36" viewBox="0 0 36 36" fill="none" xmlns="http://www.w3.org/2000/svg">
<path d="M26.4315 33.4293C26.1312 33.4285 25.8318 33.3948 25.5385 33.3289C19.9538 32.1475 14.8089 29.3774 10.6957 25.3376C6.67041 21.2889 3.87863 16.1341 2.65817 10.4967C2.51426 9.79416 2.54958 9.06553 2.76073 8.38094C2.97188 7.69636 3.35176 7.07887 3.86381 6.58788L7.43606 3.07173C7.61852 2.89527 7.83532 2.76014 8.0723 2.67516C8.30928 2.59018 8.56112 2.55726 8.81138 2.57855C9.07088 2.60624 9.32129 2.69172 9.54501 2.82899C9.76873 2.96626 9.96033 3.15199 10.1063 3.37311L14.5716 10.1223C14.7391 10.3842 14.8199 10.6941 14.8022 11.0065C14.7846 11.3188 14.6693 11.6172 14.4734 11.8575L12.2318 14.5974C13.1246 16.618 14.3889 18.4442 15.9559 19.9766C17.5128 21.5647 19.353 22.8327 21.3768 23.712L24.1542 21.4562C24.3875 21.2676 24.6714 21.1562 24.9681 21.1366C25.2648 21.117 25.5603 21.1903 25.8153 21.3466L32.558 25.8034C32.7893 25.9447 32.9865 26.1377 33.1346 26.3679C33.2827 26.5982 33.3779 26.8597 33.4131 27.133C33.4483 27.4062 33.4226 27.684 33.338 27.9457C33.2533 28.2073 33.1118 28.4459 32.9241 28.6437L29.4412 32.169C29.0455 32.5716 28.5759 32.8902 28.0594 33.1065C27.5429 33.3228 26.9897 33.4325 26.4315 33.4293ZM8.66849 4.38686L5.09624 7.90301C4.80818 8.1775 4.59495 8.52393 4.47751 8.90825C4.36007 9.29256 4.34247 9.70152 4.42644 10.0949C5.56127 15.3848 8.16991 20.2253 11.9371 24.0316C15.8078 27.8323 20.6495 30.4378 25.9046 31.548C26.3024 31.633 26.7146 31.6158 27.1043 31.4978C27.4939 31.3799 27.8489 31.1649 28.1373 30.8721L31.6202 27.3469L25.1098 23.0453L22.127 25.4746C22.0128 25.567 21.8782 25.6295 21.735 25.6566C21.5918 25.6836 21.4443 25.6745 21.3054 25.6299C18.8286 24.6967 16.5841 23.2153 14.7324 21.2918C12.8171 19.4627 11.3304 17.2149 10.3832 14.7161C10.3431 14.5648 10.3418 14.4056 10.3793 14.2536C10.4168 14.1017 10.492 13.9622 10.5975 13.8485L13.0088 10.8986L8.66849 4.38686Z" fill="#F1F1F1"/>
</svg>
