<svg width="44" height="26" viewBox="0 0 44 26" fill="none" xmlns="http://www.w3.org/2000/svg">
<path d="M12.9862 9.20006C12.9862 9.72135 13.0423 10.144 13.1404 10.454C13.2526 10.7639 13.3928 11.1021 13.5891 11.4684C13.6592 11.5811 13.6872 11.6938 13.6872 11.7924C13.6872 11.9333 13.6031 12.0742 13.4208 12.2151L12.5375 12.8068C12.4113 12.8914 12.2851 12.9336 12.1729 12.9336C12.0327 12.9336 11.8925 12.8632 11.7523 12.7364C11.556 12.525 11.3877 12.2996 11.2475 12.0742C11.1073 11.8347 10.9671 11.567 10.8128 11.243C9.71916 12.5391 8.34505 13.1872 6.69052 13.1872C5.51271 13.1872 4.57328 12.8491 3.88622 12.1728C3.19917 11.4966 2.84863 10.5949 2.84863 9.46775C2.84863 8.27019 3.26928 7.29806 4.12459 6.56543C4.9799 5.83281 6.11564 5.4665 7.55985 5.4665C8.03658 5.4665 8.52733 5.50876 9.04613 5.57921C9.56492 5.64965 10.0977 5.76237 10.6586 5.88917V4.86067C10.6586 3.78992 10.4343 3.04321 9.99959 2.60645C9.5509 2.16969 8.79374 1.95836 7.71409 1.95836C7.22334 1.95836 6.71856 2.01471 6.19977 2.14151C5.68097 2.26832 5.1762 2.42329 4.68545 2.62054C4.4611 2.71916 4.29285 2.77552 4.1947 2.80369C4.09654 2.83187 4.02644 2.84596 3.97035 2.84596C3.77405 2.84596 3.6759 2.70507 3.6759 2.4092V1.71885C3.6759 1.49342 3.70394 1.32436 3.77405 1.22574C3.84416 1.12711 3.97035 1.02849 4.16665 0.929868C4.6574 0.676268 5.24631 0.464934 5.93336 0.295867C6.62041 0.112711 7.34953 0.0281778 8.12071 0.0281778C9.78927 0.0281778 11.0091 0.408578 11.7943 1.16938C12.5655 1.93018 12.9581 3.08547 12.9581 4.63525V9.20006H12.9862ZM7.29344 11.3416C7.75615 11.3416 8.23288 11.257 8.73766 11.088C9.24243 10.9189 9.69112 10.609 10.0697 10.1863C10.294 9.91859 10.4623 9.62273 10.5464 9.28459C10.6306 8.94646 10.6866 8.53788 10.6866 8.05886V7.46712C10.28 7.3685 9.84535 7.28397 9.39667 7.22761C8.94798 7.17126 8.51331 7.14308 8.07865 7.14308C7.13921 7.14308 6.45215 7.32623 5.98944 7.70663C5.52674 8.08704 5.30239 8.62241 5.30239 9.32686C5.30239 9.98904 5.47065 10.4822 5.82119 10.8203C6.1577 11.1725 6.64845 11.3416 7.29344 11.3416ZM18.5527 12.8632C18.3003 12.8632 18.132 12.8209 18.0199 12.7223C17.9077 12.6378 17.8096 12.4405 17.7254 12.1728L14.4304 1.28209C14.3462 1.00031 14.3042 0.817157 14.3042 0.718535C14.3042 0.493112 14.4164 0.366312 14.6407 0.366312H16.0148C16.2812 0.366312 16.4635 0.408578 16.5616 0.507201C16.6738 0.591734 16.7579 0.788979 16.8421 1.05667L19.1977 10.3835L21.385 1.05667C21.4551 0.77489 21.5393 0.591734 21.6514 0.507201C21.7636 0.422667 21.9599 0.366312 22.2123 0.366312H23.334C23.6004 0.366312 23.7827 0.408578 23.8949 0.507201C24.007 0.591734 24.1052 0.788979 24.1613 1.05667L26.3767 10.4962L28.8024 1.05667C28.8865 0.77489 28.9847 0.591734 29.0828 0.507201C29.195 0.422667 29.3773 0.366312 29.6297 0.366312H30.9337C31.158 0.366312 31.2842 0.479023 31.2842 0.718535C31.2842 0.788979 31.2702 0.859424 31.2562 0.943957C31.2421 1.02849 31.2141 1.1412 31.158 1.29618L27.7788 12.1869C27.6947 12.4687 27.5965 12.6518 27.4844 12.7364C27.3722 12.8209 27.1899 12.8773 26.9516 12.8773H25.7457C25.4793 12.8773 25.297 12.835 25.1849 12.7364C25.0727 12.6378 24.9745 12.4546 24.9184 12.1728L22.7451 3.08547L20.5858 12.1587C20.5157 12.4405 20.4316 12.6237 20.3194 12.7223C20.2072 12.8209 20.0109 12.8632 19.7585 12.8632H18.5527ZM36.5703 13.2436C35.8412 13.2436 35.1121 13.159 34.411 12.99C33.7099 12.8209 33.1631 12.6378 32.7985 12.4264C32.5742 12.2996 32.4199 12.1587 32.3639 12.0319C32.3078 11.9051 32.2797 11.7642 32.2797 11.6374V10.9189C32.2797 10.623 32.3919 10.4822 32.6022 10.4822C32.6863 10.4822 32.7705 10.4962 32.8546 10.5244C32.9387 10.5526 33.0649 10.609 33.2051 10.6653C33.6819 10.8766 34.2007 11.0457 34.7475 11.1584C35.3084 11.2711 35.8552 11.3275 36.4161 11.3275C37.2994 11.3275 37.9865 11.1725 38.4632 10.8626C38.9399 10.5526 39.1923 10.1018 39.1923 9.52411C39.1923 9.12961 39.0661 8.80557 38.8137 8.53788C38.5613 8.27019 38.0846 8.03068 37.3976 7.80526L35.3644 7.17126C34.3409 6.84721 33.5837 6.36819 33.121 5.73419C32.6583 5.11428 32.4199 4.42392 32.4199 3.6913C32.4199 3.09956 32.5461 2.57827 32.7985 2.12743C33.0509 1.67658 33.3874 1.28209 33.8081 0.972135C34.2287 0.64809 34.7054 0.408578 35.2663 0.239512C35.8272 0.0704446 36.4161 0 37.033 0C37.3415 0 37.664 0.0140889 37.9724 0.0563557C38.2949 0.0986224 38.5894 0.154978 38.8838 0.211334C39.1643 0.281778 39.4307 0.352223 39.6831 0.436756C39.9355 0.52129 40.1318 0.605823 40.272 0.690357C40.4683 0.803068 40.6085 0.915779 40.6926 1.04258C40.7767 1.15529 40.8188 1.31027 40.8188 1.50751V2.16969C40.8188 2.46556 40.7066 2.62054 40.4963 2.62054C40.3841 2.62054 40.2019 2.56418 39.9635 2.45147C39.1643 2.08516 38.2669 1.902 37.2714 1.902C36.4721 1.902 35.8412 2.0288 35.4065 2.29649C34.9718 2.56418 34.7475 2.97276 34.7475 3.55041C34.7475 3.9449 34.8877 4.28303 35.1681 4.55072C35.4486 4.81841 35.9674 5.0861 36.7105 5.32561L38.7016 5.95961C39.7111 6.28366 40.4402 6.7345 40.8749 7.31215C41.3096 7.88979 41.5199 8.55197 41.5199 9.28459C41.5199 9.89042 41.3937 10.4399 41.1553 10.9189C40.9029 11.3979 40.5664 11.8206 40.1318 12.1587C39.6971 12.511 39.1783 12.7646 38.5754 12.9477C37.9444 13.145 37.2854 13.2436 36.5703 13.2436Z" fill="#9C9C9C"/>
<path fill-rule="evenodd" clip-rule="evenodd" d="M39.146 20.0197C34.5292 23.4272 27.8214 25.2361 22.0539 25.2361C13.9709 25.2361 6.68783 22.2493 1.18692 17.2853C0.7519 16.8927 1.14482 16.3598 1.66404 16.6683C7.614 20.1179 14.9532 22.2072 22.545 22.2072C27.6671 22.2072 33.2943 21.1415 38.4724 18.954C39.2442 18.6034 39.9038 19.4588 39.146 20.0197V20.0197Z" stroke="#9C9C9C"/>
<path fill-rule="evenodd" clip-rule="evenodd" d="M41.0686 17.8326C40.4792 17.0754 37.1674 17.4681 35.6659 17.6504C35.2169 17.7064 35.1467 17.3138 35.5537 17.0193C38.1918 15.1683 42.528 15.7012 43.0332 16.3182C43.5384 16.9492 42.8929 21.2822 40.4231 23.3576C40.0442 23.6801 39.6793 23.5118 39.8477 23.0911C40.4091 21.7029 41.658 18.5758 41.0686 17.8326V17.8326Z" stroke="#9C9C9C"/>
</svg>
