<svg width="174" height="120" viewBox="0 0 174 120" fill="none" xmlns="http://www.w3.org/2000/svg">
<path d="M74.6101 86.5052C73.9346 86.9675 73.4068 87.3339 73.0414 87.5894C72.8375 87.2427 72.5512 86.7601 72.1881 86.158C71.3952 84.8435 70.2356 82.9592 68.7671 80.677C65.8305 76.1133 61.6558 69.9544 56.7045 63.5762C51.7548 57.2001 46.0192 50.5919 39.9592 45.1375C34.5594 40.2772 28.8636 36.2978 23.2047 34.2379C28.6928 32.5707 43.7997 28.0119 58.6103 23.5458C67.4323 20.8855 76.1468 18.2589 82.6559 16.2973L90.5031 13.9326L92.6944 13.2723L93.1692 13.1293L93.5568 13.3857C93.9798 13.6655 94.6003 14.0762 95.3906 14.5997C96.9712 15.6465 99.2308 17.1443 101.947 18.948C107.379 22.5552 114.635 27.3856 121.935 32.2782C129.235 37.1711 136.577 42.125 142.179 45.9799C144.981 47.9077 147.344 49.5584 149.049 50.7883C149.686 51.2477 150.228 51.6465 150.666 51.9778C135.362 53.1428 116.204 61.8887 100.74 70.4213C92.7026 74.8559 85.6309 79.2516 80.5687 82.5384C78.0373 84.182 76.0076 85.5488 74.6101 86.5052Z" stroke="#ED1C24"/>
<path opacity="0.5" d="M70.91 101.986C70.9024 101.992 70.8949 101.998 70.8874 102.004C70.6551 101.567 70.3178 100.938 69.883 100.141C68.9866 98.4991 67.6755 96.1453 66.015 93.2941C62.6943 87.5927 57.9738 79.8984 52.3753 71.9305C46.7785 63.965 40.2946 55.7119 33.4456 48.9011C27.1996 42.6899 20.6052 37.6325 14.0633 35.1169C19.8547 33.1711 37.3912 27.3243 54.5748 21.5994C64.556 18.2741 74.4156 14.9908 81.7799 12.5387L90.6583 9.58289L93.1375 8.75759L93.704 8.56903L94.1291 8.85282C94.5838 9.15649 95.2517 9.60279 96.1043 10.1732C97.8094 11.3141 100.253 12.9516 103.207 14.9378C109.116 18.9101 117.066 24.277 125.233 29.8552C133.401 35.4338 141.784 41.2222 148.557 46.0382C154.18 50.0357 158.654 53.3354 160.991 55.2898C152.547 55.963 142.967 59.0219 133.305 63.256C123.012 67.7664 112.575 73.6325 103.241 79.4433C93.9045 85.2552 85.6602 91.0185 79.7502 95.3285C76.7949 97.4837 74.4226 99.276 72.7884 100.53C71.9713 101.157 71.3387 101.65 70.91 101.986Z" stroke="#ED1C24"/>
<path opacity="0.3" d="M68.654 118.083C68.6218 118.111 68.5906 118.138 68.5604 118.164C68.5512 118.146 68.5417 118.127 68.5321 118.108C68.2606 117.568 67.8587 116.776 67.3359 115.764C66.2904 113.741 64.7615 110.841 62.8262 107.329C58.9561 100.306 53.4587 90.8317 46.9507 81.03C40.4445 71.2309 32.9185 61.09 24.9896 52.7424C17.6287 44.9928 9.86999 38.7342 2.21178 35.7677C8.39559 33.4458 28.9223 25.8038 49.0266 18.3245C60.4608 14.0708 71.7557 9.87069 80.1921 6.73403L90.3629 2.95282L93.203 1.89709L93.8779 1.64622L94.3878 2.0042C94.9076 2.36935 95.6713 2.90614 96.6464 3.59257C98.5967 4.96543 101.393 6.93685 104.776 9.33096C111.542 14.1192 120.655 20.5979 130.044 27.3599C139.434 34.1223 149.098 41.1662 156.966 47.0855C163.805 52.2315 169.247 56.4979 171.987 58.9913C162.217 59.8755 151.12 63.8196 139.934 69.2577C128.158 74.9828 116.229 82.3904 105.565 89.716C94.8992 97.0428 85.4868 104.295 78.7412 109.715C75.3681 112.426 72.6611 114.679 70.7967 116.255C69.8645 117.043 69.1429 117.661 68.654 118.083Z" stroke="#ED1C24"/>
</svg>
