<svg width="222" height="153" viewBox="0 0 222 153" fill="none" xmlns="http://www.w3.org/2000/svg">
<path d="M93.182 111.861C93.142 111.889 93.1036 111.916 93.0669 111.942C93.0565 111.924 93.046 111.906 93.0352 111.888C92.7729 111.441 92.3846 110.785 91.8795 109.948C90.8694 108.273 89.3919 105.872 87.5205 102.964C83.7784 97.1483 78.4588 89.3003 72.1501 81.1735C65.8431 73.0489 58.5375 64.6326 50.8221 57.6881C43.7777 51.3476 36.3513 46.197 28.9973 43.6411C35.5039 41.6624 55.2878 35.6921 74.6719 29.8469C85.9199 26.4551 97.031 23.106 105.33 20.605L115.335 17.59L118.129 16.7482L118.817 16.541L119.383 16.9154C119.922 17.2722 120.713 17.7958 121.721 18.4632C123.736 19.798 126.617 21.7078 130.08 24.0074C137.006 28.6068 146.258 34.7656 155.566 41.0039C164.874 47.2425 174.235 53.5593 181.379 58.4749C184.951 60.9331 187.966 63.0386 190.141 64.6079C191.152 65.3367 191.977 65.9468 192.591 66.4213C173.046 67.7539 148.409 78.9797 128.528 89.9493C118.286 95.6006 109.273 101.203 102.822 105.392C99.5954 107.486 97.0088 109.228 95.2281 110.447C94.3377 111.056 93.6488 111.535 93.182 111.861Z" stroke="#ED1C24"/>
<path opacity="0.5" d="M90.522 130.177C90.4505 130.233 90.3834 130.285 90.3208 130.335C90.2967 130.289 90.2714 130.241 90.245 130.192C89.9486 129.633 89.5096 128.814 88.9385 127.768C87.7964 125.676 86.1255 122.676 84.0093 119.043C79.7773 111.777 73.7613 101.971 66.6271 91.8173C59.4946 81.6661 51.2345 71.1529 42.5125 62.4795C34.402 54.4142 25.8454 47.8922 17.3835 44.7647C24.2244 42.4636 47.1104 34.833 69.5235 27.3659C82.2496 23.1261 94.8206 18.9399 104.21 15.8135L115.53 12.0448L118.691 10.9926L119.498 10.7238L120.115 11.1355C120.695 11.5227 121.546 12.0917 122.634 12.8191C124.808 14.2738 127.924 16.3616 131.69 18.8941C139.224 23.959 149.361 30.802 159.775 37.9146C170.189 45.0275 180.877 52.4085 189.515 58.5499C196.961 63.8433 202.839 68.1857 205.722 70.644C194.878 71.4261 182.519 75.3499 170.036 80.8199C156.923 86.5659 143.625 94.0403 131.727 101.446C119.829 108.854 109.321 116.199 101.788 121.692C98.0215 124.439 94.998 126.724 92.9155 128.322C91.8742 129.121 91.0681 129.749 90.522 130.177Z" stroke="#ED1C24"/>
<path opacity="0.3" d="M221.25 75.9199C170.258 78.9017 87.1398 152.022 87.1398 152.022C87.1398 152.022 41.4346 58.857 0.346946 45.6304C6.02867 43.4415 119.817 1.14755 119.817 1.14755C119.817 1.14755 209.968 64.3484 221.25 75.9199Z" stroke="#ED1C24"/>
</svg>
