<svg width="114" height="81" viewBox="0 0 114 81" fill="none" xmlns="http://www.w3.org/2000/svg">
<path d="M48.747 57.4937C48.4196 57.7218 48.1449 57.9149 47.927 58.0691C47.8094 57.867 47.6646 57.6199 47.494 57.3321C46.9735 56.4541 46.2127 55.1961 45.2493 53.6725C43.323 50.6262 40.5841 46.5144 37.3351 42.2554C34.0877 37.9986 30.3209 33.5817 26.3371 29.9329C22.9785 26.8568 19.4307 24.2938 15.8798 22.8513C19.8896 21.6137 29.2651 18.7348 38.4681 15.9109C44.2481 14.1373 49.9576 12.3861 54.2221 11.0783L59.3634 9.50175L60.7991 9.06157L61.0023 8.99925L61.1634 9.10765C61.4405 9.2942 61.847 9.568 62.3648 9.91695C63.4003 10.6149 64.8806 11.6134 66.6599 12.8158C70.2185 15.2206 74.9726 18.4408 79.7548 21.7025C84.5375 24.9644 89.3466 28.2666 93.0159 30.8358C94.851 32.1208 96.3978 33.2201 97.5126 34.0385C97.7302 34.1982 97.9305 34.3467 98.1128 34.4833C93.3911 34.9344 88.1659 36.4537 82.9378 38.5055C77.0687 40.8089 71.1556 43.7997 65.8853 46.7588C60.6135 49.7187 55.9755 52.6524 52.6556 54.8459C50.9953 55.9428 49.664 56.8551 48.747 57.4937Z" stroke="#ED1C24"/>
<path opacity="0.5" d="M47.5448 66.8504C47.1276 67.1762 46.7837 67.4476 46.519 67.6578C46.3795 67.3923 46.2023 67.058 45.9897 66.6616C45.4016 65.5655 44.5416 63.9944 43.4525 62.0916C41.2749 58.2868 38.1788 53.1514 34.5063 47.8326C30.8355 42.5163 26.579 37.0025 22.079 32.4488C18.1529 28.4759 13.9995 25.1905 9.85033 23.4307C14.1189 21.9739 25.0797 18.2552 35.8321 14.61C42.3715 12.393 48.8312 10.204 53.6561 8.56925L59.4729 6.5986L61.0972 6.04838L61.357 5.96039L61.5389 6.08393C61.8367 6.28635 62.2742 6.58385 62.8328 6.96413C63.9498 7.72468 65.5507 8.81628 67.4861 10.1403C71.3569 12.7885 76.5652 16.3662 81.9155 20.0848C87.2664 23.8038 92.7569 27.6619 97.1932 30.8715C100.58 33.3216 103.318 35.37 104.919 36.6886C99.4813 37.2248 93.3781 39.2346 87.2417 41.9709C80.484 44.9842 73.6359 48.9013 67.5147 52.7788C61.3919 56.6575 55.9856 60.5033 52.1104 63.3791C50.1725 64.8172 48.6167 66.0133 47.5448 66.8504Z" stroke="#ED1C24"/>
<path opacity="0.3" d="M46.2317 77.3411C45.7191 77.782 45.3035 78.1435 44.9934 78.415C44.8234 78.0727 44.5988 77.6243 44.323 77.0813C43.6373 75.7312 42.6347 73.796 41.3656 71.4526C38.8281 66.7668 35.2232 60.4445 30.955 53.9032C26.6886 47.3645 21.7498 40.5919 16.5428 35.0135C11.8787 30.0167 6.95147 25.9254 2.05557 23.8521C6.64327 22.1026 19.5494 17.2135 32.2028 12.4236C39.6941 9.58778 47.0942 6.78774 52.6214 4.69665L59.285 2.17588L61.1457 1.47206L61.4698 1.34952L61.702 1.51546C62.0426 1.75887 62.5428 2.11671 63.1817 2.57431C64.4593 3.48953 66.2911 4.8038 68.5074 6.39987C72.94 9.59207 78.9103 13.9111 85.0614 18.4189C91.213 22.9272 97.5429 27.6224 102.696 31.5675C106.897 34.7841 110.281 37.4758 112.157 39.1599C105.837 39.8407 98.7244 42.4413 91.5765 45.9773C83.8467 49.8011 76.0212 54.7466 69.029 59.6342C62.035 64.523 55.8636 69.3618 51.441 72.9779C49.2294 74.7862 47.4544 76.2894 46.2317 77.3411Z" stroke="#ED1C24"/>
</svg>
