<svg width="243" height="222" viewBox="0 0 243 222" fill="none" xmlns="http://www.w3.org/2000/svg">
<path d="M209.9 61.2002C209.8 62.1002 209.7 63.0002 209.5 63.8002C209.4 64.4002 209.2 64.9002 209 65.4002C208.6 66.3002 208.2 67.2002 207.8 67.9002C206.7 69.5002 205.5 70.7002 204.4 71.4002L202.3 71.0002L199.7 70.6002L186.2 68.5002C184.3 68.2002 182.8 67.0002 182.1 65.4002C181.9 64.9002 181.7 64.3002 181.6 63.7002C181.5 63.2002 181.5 62.8002 181.7 62.2002C181.7 62.1002 181.8 62.0002 181.8 61.9002C181.9 61.4002 182.1 60.9002 182.3 60.4002C182.4 60.2002 182.5 60.0002 182.7 59.8002C183.9 58.2002 185.9 57.3002 188 57.6002L188.6 57.7002L191.9 58.2002L207.8 60.7002L209.9 61.2002Z" fill="#E35B27"/>
<path d="M169.5 65.4005C169.5 67.3005 168.5 69.2005 166.7 70.4005L163.1 72.7005L161.5 73.8005C160.7 72.8005 158.8 70.5005 157.2 68.4005L157.1 68.3005C157 68.2005 156.9 68.0005 156.8 67.9005C156.8 67.9005 156.8 67.9005 156.8 67.8005C156.1 66.9005 155.5 66.1005 155 65.4005C154.9 65.3005 154.9 65.3005 154.9 65.2005C154.8 65.1005 154.7 64.9005 154.6 64.8005L154.9 64.6005L156 63.7005L156.7 63.1005L157.2 62.7005L158.1 61.9005L159.7 60.6005C159.8 60.6005 159.8 60.5005 159.8 60.5005C159.9 60.4005 160 60.3005 160.2 60.2005C161.1 59.6005 162.1 59.3005 163.2 59.3005C165.3 59.2005 167.3 60.1005 168.4 61.9005L168.5 62.0005C168.9 62.5005 169.1 63.1005 169.3 63.6005C169.4 63.8005 169.4 64.0005 169.4 64.2005C169.4 64.7005 169.5 65.1005 169.5 65.4005Z" fill="#E35B27"/>
<path d="M237.3 53.2008C237.2 53.4008 237.1 53.5008 236.9 53.7008L216.3 71.8008C215.4 72.6008 214.2 73.0008 213 72.7008L212.4 72.6008L207.3 71.8008L204.3 71.3008C205.4 70.5008 206.7 69.4008 207.7 67.8008C208.2 67.1008 208.6 66.3008 208.9 65.3008C209.1 64.8008 209.3 64.2008 209.4 63.7008C209.6 62.9008 209.7 62.1008 209.8 61.1008L212.6 61.5008L234.9 50.5008C234.7 49.3008 234.1 45.3008 235 45.2008C235.5 45.1008 236.1 47.7008 236.1 47.7008C236.1 47.7008 238.6 43.1008 239.3 43.4008C239.9 43.7008 238.1 46.7008 237.9 47.1008C238.1 46.7008 240.3 43.6008 241 44.0008C241.6 44.4008 239.3 47.2008 238.9 47.6008C239.3 47.2008 241.5 44.8008 241.9 45.4008C242.1 45.8008 240 48.0008 239.8 48.3008C240 48.1008 241.7 46.5008 242.2 46.9008C242.4 47.6008 238.7 51.7008 237.3 53.2008Z" fill="#FB9D89"/>
<path d="M161.5 73.8001L159.6 75.0001L159.3 75.2001L158 76.0001L157.8 76.1001L157.1 76.6001L145.7 83.9001L142.4 86.1001L141.9 86.4001C140.8 87.1001 139.3 87.2001 138 86.6001L109.9 72.8001C109.8 72.7001 109.7 72.7001 109.7 72.7001C109.5 72.8001 109.3 72.8001 109.1 72.8001C105.9 72.6001 101.5 72.3001 101.5 71.9001C101.4 71.1001 105 70.9001 105 70.9001C105 70.9001 100.4 70.8001 100.2 70.3001C99.9005 69.4001 105.2 69.5001 105.2 69.5001C105.2 69.5001 99.5005 69.2001 99.7005 68.1001C99.9005 67.1001 104.9 67.9001 105.5 68.0001C104.9 67.9001 100.4 66.7001 100.7 65.9001C101.1 65.0001 107.5 66.8001 107.6 66.8001C107.5 66.6001 105.7 63.9001 106.2 63.5001C107 62.9001 109.8 66.4001 111 68.0001C111.2 68.3001 111.4 68.6001 111.5 68.9001C111.6 68.9001 111.6 68.9001 111.6 68.9001L138.9 77.6001L147.1 71.0001L153.8 65.6001L154.6 65.0001C154.7 65.1001 154.8 65.2001 154.9 65.4001C155 65.5001 155 65.5001 155 65.6001C155.5 66.3001 156.1 67.1001 156.8 68.0001C156.8 68.0001 156.8 68.0001 156.8 68.1001C156.9 68.2001 157 68.4001 157.1 68.5001L157.2 68.6001C158.8 70.5001 160.7 72.8001 161.5 73.8001Z" fill="#FB9D89"/>
<path d="M173.8 145.1C179.1 146.4 183.1 151.1 184.9 156.3C186.7 161.5 186.5 167.1 186.2 172.6C185.8 178.5 185.1 184.5 184.1 190.3C180.9 175.2 176.9 160.2 173.8 145.1Z" fill="#FB9D89"/>
<path d="M188.8 194.301C189.6 196.501 189.8 199.001 188.8 201.101C188.5 201.701 188.1 202.301 187.4 202.601C185.9 203.201 184.4 201.501 183.6 200.001C182.8 198.401 182.1 196.701 181.6 194.901C179.6 188.601 178.8 181.701 177.3 175.301C174.6 164.801 169.4 154.901 168.3 144.201C167.9 140.701 168.1 137.101 168.2 133.501C168.5 128.101 168.9 122.801 168.2 117.401C164.3 121.301 160.5 125.301 157 129.601C154.9 132.101 152.8 134.801 150.8 137.401C150.4 138.001 149.9 138.601 149.9 139.301C149.8 139.701 149.9 140.101 150 140.501C150.1 140.801 150.2 141.101 150.4 141.401C154.8 151.901 159.6 162.201 164.9 172.301C165.9 174.201 167 176.201 168 178.101C168.4 178.801 168.8 179.501 169.2 180.201C170.1 181.901 171.1 183.801 170.8 185.701C170.5 187.601 168.3 189.301 166.6 188.301C166 187.901 165.6 187.401 165.2 186.801C164.4 185.701 163.7 184.501 162.9 183.401C153.7 169.701 144.6 156.001 135.6 142.301C134.8 141.001 133.9 139.701 133.9 138.101C133.9 136.601 134.7 135.201 135.6 133.901C138.9 128.801 142.2 123.701 145.6 118.501C149.3 112.801 152.9 107.201 156.6 101.501C158.1 99.2009 159.7 96.8009 161.7 95.0009C161.8 94.9009 161.8 94.9009 161.9 94.8009C162.7 94.2009 163.7 93.4009 164.7 92.9009C165.1 92.7009 165.5 92.5009 165.9 92.3009C166 92.2009 166.2 92.2009 166.3 92.1009C167.2 91.8009 168.1 91.7009 168.9 91.9009C169.1 92.0009 169.4 92.2009 169.8 92.6009C170.1 92.9009 170.3 93.3009 170.6 93.7009C171.9 95.6009 173.2 98.2009 173 98.3009C176.2 96.2009 180.4 96.0009 183.8 97.7009C185 98.3009 186.1 99.2009 187 100.201C188.5 102.001 189.5 104.201 189.6 106.501C189.6 106.601 189.6 106.701 189.6 106.701C189.7 107.901 189.5 109.001 189.2 110.201C188.8 112.001 188.1 113.701 187.5 115.401C185.6 120.301 183.7 125.101 181.7 130.001C181.3 131.001 180.9 132.101 180.5 133.101C178.9 137.401 177.5 141.701 177.3 146.301C177.3 146.701 177.3 146.901 177.3 147.301C177.2 152.101 178.6 156.801 179.5 161.401C181.1 169.401 181.6 177.801 184.6 185.401C184.9 186.201 185.2 187.001 185.6 187.701C186.8 190.201 188 192.201 188.8 194.301Z" fill="#FB9D89"/>
<path d="M201.9 65.4996L200.4 68.9996L199.7 70.6996L198.3 74.0996L198.2 74.2996L197.8 75.0996L197.4 76.0996L197 77.0996L196.8 77.6996L196.6 78.0996L196.2 79.0996L195 81.9996L194.6 82.7996L194.5 82.9996L194.1 83.9996L193.9 84.4996L193.7 84.9996L193.3 85.9996L193.2 86.2996L192.9 86.9996L192.5 87.9996L192.1 88.9996L191.8 89.7996L191.7 89.9996L190.2 93.4996L189.8 94.4996L187.1 100.8L186.7 101.8L167.5 99.5996L166.6 94.1996L166.4 92.9996L166.3 92.5996L166 90.8996L165.8 89.8996L165.6 88.9996V88.8996L165.4 87.8996L165.2 86.8996L165 85.8996L164.8 84.8996L164.7 84.3996L164.6 83.9996L164.4 82.9996L164.2 81.9996L164 80.9996L163.8 79.9996V79.8996L163.7 78.9996L163.5 77.9996L163.3 76.9996L162.7 72.8996C162.6 72.7996 162.6 72.7996 162.5 72.7996C160.3 71.3996 157.8 69.8996 156.5 68.3996L156.4 68.2996C156.3 68.1996 156.2 67.9996 156.1 67.8996C156.1 67.8996 156.1 67.8996 156.1 67.7996C155.8 67.2996 155.6 66.8996 155.6 66.3996C155.6 65.9996 155.6 65.6996 155.7 65.2996C155.8 64.7996 155.9 64.2996 156 63.7996C156 63.6996 156.1 63.5996 156.1 63.5996C156.2 63.2996 156.3 62.9996 156.5 62.7996C156.5 62.6996 156.6 62.6996 156.6 62.5996C156.8 62.2996 157 62.0996 157.2 61.7996C157.7 61.2996 158.4 60.7996 159.3 60.3996C160.3 59.8996 161.4 59.4996 162.7 59.1996C165.9 58.2996 169.7 57.6996 172.3 57.3996C172.9 57.2996 173.5 57.1996 174 57.1996C174.4 57.0996 174.8 57.0996 175.2 56.9996C175.9 56.8996 176.6 56.8996 177.3 56.7996C178.7 56.6996 180.2 56.6996 181.8 56.7996C182.2 56.7996 182.6 56.8996 183 56.8996C184.7 56.9996 186.5 57.2996 188.1 57.6996C189.5 58.0996 190.8 58.5996 192 59.2996C192.7 59.6996 193.4 60.1996 193.9 60.6996C193.9 60.6996 193.9 60.6996 194 60.6996C194.3 60.9996 194.6 61.3996 194.9 61.8996C195.2 62.3996 195.5 62.9996 195.7 63.5996C195.8 63.8996 195.9 64.1996 196 64.5996C196.1 65.0996 196.2 65.6996 196.3 66.1996L197.4 65.9996L201.9 65.4996Z" fill="#E35B27"/>
<path d="M209.9 61.0991C209.8 62.0991 209.7 62.9991 209.5 63.6991C209.4 64.2991 209.2 64.7991 209 65.2991C208.6 66.1991 208.2 67.0991 207.8 67.7991C206.7 69.3991 205.5 70.5991 204.4 71.2991C203.9 71.5991 203.6 71.7991 203.2 71.9991C202.6 72.3991 202.1 72.4991 202.1 72.4991C201.9 72.9991 201.5 73.7991 200.9 74.8991C200.7 75.1991 200.5 75.4991 200.4 75.8991C200.4 75.9991 200.3 75.9991 200.3 76.0991C200.1 76.4991 199.8 76.8991 199.6 77.3991C199.5 77.5991 199.4 77.7991 199.3 77.8991C199.2 78.0991 199 78.3991 198.9 78.5991C198.8 78.6991 198.8 78.7991 198.7 78.7991C198.5 79.0991 198.3 79.3991 198.1 79.7991C197.9 80.0991 197.7 80.3991 197.5 80.6991C197 81.5991 196.4 82.4991 195.9 83.4991C195.8 83.5991 195.8 83.6991 195.8 83.6991C195 85.0991 194.2 86.3991 193.4 87.5991C193.3 87.7991 193.1 88.0991 193 88.2991C191.8 90.3991 190.7 92.0991 190.1 93.1991C189.9 93.4991 189.7 93.7991 189.6 93.9991L170.6 93.8991L166.5 93.7991H166.1C166 93.4991 165.9 93.0991 165.8 92.6991C165.8 92.5991 165.7 92.4991 165.7 92.4991C165.6 92.1991 165.6 91.8991 165.5 91.5991C165.4 91.2991 165.4 90.9991 165.3 90.5991C165.2 90.2991 165.2 89.9991 165.1 89.5991C165 89.2991 165 88.9991 164.9 88.5991V88.4991C164.8 88.1991 164.8 87.8991 164.7 87.5991C164.6 87.2991 164.6 86.9991 164.5 86.5991C164.4 86.2991 164.3 85.9991 164.3 85.5991C164.3 85.4991 164.2 85.3991 164.2 85.1991C164.1 84.9991 164.1 84.7991 164.1 84.5991C164 84.1991 164 83.9991 163.9 83.5991C163.8 83.1991 163.8 82.9991 163.7 82.5991C163.6 82.3991 163.6 82.0991 163.5 81.7991C163.5 81.6991 163.4 81.5991 163.4 81.5991C163.3 81.1991 163.2 80.9991 163.2 80.5991C163.1 80.1991 163.1 79.9991 163 79.5991C162.9 79.1991 162.8 78.9991 162.8 78.5991C162.8 78.4991 162.8 78.4991 162.8 78.4991C162.2 75.8991 161.9 73.9991 161.9 73.9991C161.9 73.9991 161.7 73.7991 161.4 73.4991C160.6 72.4991 158.7 70.1991 157.1 68.0991L157 67.9991C156.9 67.8991 156.8 67.6991 156.7 67.5991C156.7 67.5991 156.7 67.5991 156.7 67.4991C156 66.5991 155.4 65.7991 154.9 65.0991C154.8 64.9991 154.8 64.9991 154.8 64.8991C154.7 64.7991 154.6 64.5991 154.5 64.4991C154.1 63.9991 153.9 63.5991 153.9 63.3991C153.8 63.2991 153.8 63.1991 153.9 63.1991C154.2 62.8991 154.5 62.6991 154.8 62.3991C164.8 54.5991 175.4 56.6991 175.7 56.7991C180.6 58.5991 182.3 56.6991 182.3 56.6991C182.8 56.6991 183.2 56.5991 183.6 56.5991C185.8 56.4991 187.8 56.4991 189.7 56.5991C190.2 56.5991 190.8 56.6991 191.2 56.6991C198.8 57.1991 204.3 58.7991 207.3 59.8991C207.4 59.9991 207.5 59.9991 207.7 59.9991C209.1 60.7991 209.9 61.0991 209.9 61.0991Z" fill="#FF74C7"/>
<path d="M187.3 199.7C186.4 200.6 185.1 201.3 183.8 201.8C184.7 202.7 185.4 203.9 185.7 205.1C186.1 207 185.8 208.9 185.8 210.8C185.9 214.6 187.6 218.3 190.4 220.7L196.7 197.2L188.6 195C189 196.8 188.6 198.5 187.3 199.7Z" fill="#E1D1C2"/>
<path d="M187.3 199.7C186.4 200.6 185.1 201.3 183.8 201.8C184.7 202.7 185.4 203.9 185.7 205.1C186.1 207 185.8 208.9 185.8 210.8C185.9 214.6 187.6 218.3 190.4 220.7L196.7 197.2L188.6 195C189 196.8 188.6 198.5 187.3 199.7Z" fill="#E1D1C2"/>
<path d="M191.9 220.6L198 197.8C198.2 197.2 197.8 196.4 197.1 196.3C196.5 196.1 195.7 196.5 195.6 197.2L189.5 220C189.3 220.6 189.7 221.4 190.4 221.5C191 221.6 191.7 221.3 191.9 220.6Z" fill="#E1D1C2"/>
<path d="M193.2 205.4C193.2 205.4 188.4 202.8 190.9 195.5" stroke="#AD9D8E" stroke-width="0.8426" stroke-miterlimit="10" stroke-linecap="round" stroke-linejoin="round"/>
<path d="M169.1 186.6C168.2 187.5 166.9 188.2 165.6 188.7C166.5 189.6 167.2 190.8 167.5 192C167.9 193.9 167.5 195.8 167.6 197.7C167.6 201.5 169.3 205.2 172.1 207.7L178.6 184.3L170.5 182.1C170.8 183.7 170.4 185.3 169.1 186.6Z" fill="#E1D1C2"/>
<path d="M169.1 186.6C168.2 187.5 166.9 188.2 165.6 188.7C166.5 189.6 167.2 190.8 167.5 192C167.9 193.9 167.5 195.8 167.6 197.7C167.6 201.5 169.3 205.2 172.1 207.7L178.6 184.3L170.5 182.1C170.8 183.7 170.4 185.3 169.1 186.6Z" fill="#E1D1C2"/>
<path d="M173.5 207.6L179.8 184.8C180 184.2 179.6 183.4 178.9 183.3C178.3 183.1 177.5 183.5 177.4 184.1L171.1 206.9C170.9 207.5 171.3 208.3 172 208.4C172.6 208.6 173.3 208.2 173.5 207.6Z" fill="#E1D1C2"/>
<path d="M174.9 192.4C174.9 192.4 170.1 189.7 172.7 182.5" stroke="#AD9D8E" stroke-width="0.8426" stroke-miterlimit="10" stroke-linecap="round" stroke-linejoin="round"/>
<path d="M47.7002 121C48.0002 121 48.3002 121 48.6002 120.9H48.5002L48.3002 121L48.1002 121.1L47.9002 121.2L47.4002 121.3C46.8002 121.4 46.1002 121.6 45.4002 121.7C44.0002 122 42.6002 122.3 41.2002 122.6C38.4002 123.2 35.6002 124 32.7002 124.6L24.2002 126.7L15.7002 128.8L20.5002 115.5L44.3002 157.2C45.4002 159 44.7002 161.4 42.9002 162.4C41.3002 163.3 39.3002 162.9 38.1002 161.6L6.70022 125.2C3.80022 121.9 4.10022 116.9 7.50022 114C8.30022 113.4 9.10022 112.9 9.90022 112.5L11.5002 111.9L20.0002 109.6L28.5002 107.3C31.3002 106.5 34.1002 105.8 37.0002 105C38.4002 104.6 39.9002 104.2 41.3002 103.9C42.0002 103.7 42.8002 103.5 43.5002 103.4L44.1002 103.3L44.4002 103.2L44.8002 103.1L45.2002 103L45.4002 102.9L45.6002 102.8L46.1002 102.7C46.6002 102.6 47.1002 102.6 47.6002 102.6C52.7002 102.6 56.7002 106.7 56.7002 111.7C56.8002 116.8 52.8002 121 47.7002 121Z" fill="#FFA8A7"/>
<path d="M62.6002 208L76.0002 155.1L76.4002 160L49.1002 115.1C45.9002 109.8 47.6002 102.9 52.9002 99.6998C58.2002 96.4998 65.1002 98.1998 68.4002 103.5C68.8002 104.1 69.0002 104.7 69.3002 105.3L88.0002 154.3L88.4002 155.3C88.9002 156.6 88.8002 158 88.3002 159.2L67.1002 209.6C66.6002 210.8 65.2002 211.4 64.0002 210.9C62.8002 210.4 62.3002 209.2 62.6002 208Z" fill="#FFA8A7"/>
<path d="M47.7002 121C47.9002 121 48.1002 121 48.3002 121C48.1002 120.9 47.9002 121 47.7002 121ZM48.5002 120.9C48.6002 120.9 48.7002 120.9 48.5002 120.9C48.6002 120.9 48.6002 120.9 48.5002 120.9Z" fill="#889392"/>
<path d="M62.3005 67.8995C62.9005 69.7995 64.2005 71.4995 66.1005 72.4995C71.6005 75.3995 78.6005 71.3995 83.8005 69.3995C88.6005 67.4995 93.4005 65.1995 98.4005 63.7995L98.9005 63.5995C100.2 63.1995 101.3 62.0995 101.7 60.6995L109.8 29.2995C109.9 29.1995 109.9 28.9995 109.9 28.8995C110 27.9995 109.4 26.9995 108.5 26.5995C107.7 26.1995 106.8 26.3995 106.2 26.8995C105.9 27.0995 105.7 27.3995 105.5 27.7995L97.6005 46.5995L94.0005 55.0995L88.4005 56.1995L79.7005 57.7995L71.6005 59.2995L66.8005 60.1995C66.6005 60.2995 66.4005 60.2995 66.2005 60.3995C62.3005 61.4995 61.3005 64.8995 62.3005 67.8995Z" fill="#E35B27"/>
<path d="M76.7999 74.3994L68.5998 108.999L46.8998 106.399L38.2998 69.0994C37.3998 63.1994 42.4998 58.0994 48.3998 58.8994L69.7999 61.7994C75.7999 62.4994 79.2999 68.8994 76.7999 74.3994Z" fill="#E35B27"/>
<path d="M69.7999 61.7994L64.3998 60.5994C61.5998 62.3994 56.8998 62.3994 54.4998 59.6994L48.3998 58.8994C42.4998 58.0994 37.3998 63.1994 38.2998 69.0994L46.8998 106.399L68.5998 108.999L76.7999 74.3994C79.2999 68.8994 75.7999 62.4994 69.7999 61.7994Z" fill="#1F0F05"/>
<path d="M114.2 22.9994C113.7 22.4994 111.6 24.6994 111.6 24.6994C111.6 24.6994 114.1 21.5994 113.8 21.1994C113.3 20.4994 110.5 23.9994 110.5 23.9994C110.5 23.9994 113.5 20.0994 112.7 19.6994C111.9 19.1994 109.4 23.3994 109.4 23.3994C109.4 23.3994 111.5 19.2994 110.8 19.0994C110.1 18.8994 107.5 24.0994 107.5 24.0994C107.5 24.0994 106.7 21.1994 106.1 21.2994C105.3 21.4994 106 25.2994 106.3 26.8994C106.4 27.3994 106.6 27.7994 106.9 28.1994L107 28.3994C107.9 29.5994 109.6 29.5994 110.6 28.3994C112.2 26.2994 114.5 23.2994 114.2 22.9994Z" fill="#FFA8A7"/>
<path d="M9.8 19.3008C10.4 19.1008 11 21.8008 11 21.8008C11 21.8008 10.6 18.2008 11.1 18.0008C11.8 17.6008 12.3 21.8008 12.3 21.8008C12.3 21.8008 11.9 17.3008 12.8 17.3008C13.7 17.3008 13.5 21.8008 13.5 21.8008C13.5 21.8008 14 17.6008 14.7 17.7008C15.5 17.8008 14.6 23.3008 14.6 23.3008C14.6 23.3008 16.7 21.3008 17.1 21.7008C17.8 22.3008 13.5 26.7008 13.5 26.7008L10.1 28.1008C10.1 28.0008 9.2 19.4008 9.8 19.3008Z" fill="#FFA8A7"/>
<path d="M39.8003 54.9991L25.6003 48.6991L13.7003 26.2991C13.3003 25.5991 12.5003 25.1991 11.5003 25.3991C10.4003 25.6991 9.70034 26.7991 10.0003 27.7991L15.9003 55.5991C16.1003 56.7991 16.9003 57.7991 18.1003 58.2991L18.7003 58.4991L39.4003 67.7991C39.3003 63.4991 39.5003 59.2991 39.8003 54.9991Z" fill="#FFA8A7"/>
<path d="M108.6 26.6991C107.8 26.2991 106.9 26.4991 106.3 26.9991C106 27.1991 105.8 27.4991 105.6 27.8991L97.7002 46.6991L94.2002 54.9991L88.6002 56.0991L79.8002 57.6991L78.5002 57.9991C78.5002 61.0991 78.1002 64.0991 77.4002 67.0991C77.3002 68.8991 77.0002 70.5991 76.7002 72.2991C79.3002 71.3991 81.8002 70.1991 83.9002 69.3991C88.7002 67.4991 93.5002 65.1991 98.5002 63.7991L99.0002 63.5991C100.3 63.1991 101.4 62.0991 101.8 60.6991L109.9 29.2991C110 29.1991 110 28.9991 110 28.8991C110 28.0991 109.5 27.0991 108.6 26.6991Z" fill="#FFA8A7"/>
<path d="M66.5996 206.601C67.7996 206.001 68.7996 205.001 69.6996 203.801C70.2996 205.001 71.1996 206.001 72.2996 206.601C73.8996 207.601 75.8996 207.801 77.7996 208.401C81.2996 209.601 84.3996 212.301 85.8996 215.701L61.5996 214.701L61.9996 206.401C63.2996 207.301 64.9996 207.301 66.5996 206.601Z" fill="#E1D1C2"/>
<path d="M66.5996 206.6C67.7996 206 68.7996 205 69.6996 203.9C70.2996 205.1 71.1996 206.1 72.2996 206.7C73.8996 207.7 75.8996 207.9 77.7996 208.5C81.2996 209.7 84.3996 212.4 85.8996 215.8L61.5996 214.8L61.9996 206.5C63.2996 207.3 64.9996 207.3 66.5996 206.6Z" fill="#E1D1C2"/>
<path d="M85.1998 217.099L61.4998 216.199C60.8998 216.199 60.2998 215.599 60.2998 214.899C60.2998 214.199 60.8998 213.699 61.5998 213.699L85.2998 214.599C85.8998 214.599 86.4998 215.199 86.4998 215.899C86.3998 216.499 85.8998 217.099 85.1998 217.099Z" fill="#E1D1C2"/>
<path d="M70.2996 213.799C70.2996 213.799 69.1996 208.499 61.5996 208.599" stroke="#AD9D8E" stroke-width="0.8426" stroke-miterlimit="10" stroke-linecap="round" stroke-linejoin="round"/>
<path d="M41.3002 159C40.4002 159.9 39.0002 160.5 37.7002 160.9C38.6002 161.8 39.2002 163 39.5002 164.2C39.9002 166.1 39.4002 168 39.3002 169.9C39.2002 173.6 40.8002 177.4 43.5002 179.9L50.7002 156.9L42.8002 154.4C43.1002 156.2 42.5002 157.8 41.3002 159Z" fill="#E1D1C2"/>
<path d="M41.3002 159C40.4002 159.9 39.0002 160.5 37.7002 160.9C38.6002 161.8 39.2002 163 39.5002 164.3C39.9002 166.2 39.4002 168.1 39.3002 170C39.2002 173.7 40.8002 177.5 43.5002 180L50.7002 157L42.8002 154.5C43.1002 156.2 42.5002 157.8 41.3002 159Z" fill="#E1D1C2"/>
<path d="M44.8999 179.899L51.8999 157.499C52.0999 156.899 51.6999 156.199 51.0999 155.999C50.4999 155.799 49.6999 156.199 49.5999 156.799L42.5999 179.199C42.3999 179.799 42.7999 180.599 43.3999 180.699C43.9999 180.899 44.6999 180.599 44.8999 179.899Z" fill="#E1D1C2"/>
<path d="M46.8002 164.9C46.8002 164.9 42.2002 162.1 44.9002 155" stroke="#AD9D8E" stroke-width="0.836" stroke-miterlimit="10" stroke-linecap="round" stroke-linejoin="round"/>
<path d="M70.6996 100.4H45.0996V109.6H70.6996V100.4Z" fill="#12A6B4"/>
<path d="M78.2 58.0996L71.6 59.2996L66.8 60.1996C66.6 60.2996 66.4 60.2996 66.2 60.3996C62.2 61.5996 61.3 64.9996 62.3 67.9996C62.9 69.8996 64.2 71.5996 66.1 72.5996C70.9 75.1996 76.9 72.3996 81.7 70.3996C81 66.0996 79.7 62.0996 78.2 58.0996Z" fill="#1F0F05"/>
<path d="M49 59.2008L37 53.8008C36.1 56.6008 35.2 59.4008 33.9 62.1008C33.5 63.0008 33 63.9008 32.5 64.7008V64.8008L43.6 69.7008C46.4 71.0008 49.9 69.6008 51.4 66.7008C53 63.8008 51.8 60.4008 49 59.2008Z" fill="#1F0F05"/>
<path d="M49.7998 121.9C54.8998 129.4 59.6998 137 63.9998 144.9C67.5998 151.4 71.0998 158.9 69.1998 166.1C67.9998 170.7 64.6998 175.3 65.9998 179.8C60.4998 184.7 58.8998 193.3 62.8998 199.6H76.0998C79.7998 195.1 81.9998 188.8 81.1998 183C85.6998 179.2 88.6998 172.4 87.9998 166.6C91.3998 162.5 93.4998 156.4 92.0998 151.3C91.1998 148 88.9998 145.1 87.2998 142C83.9998 136 82.6998 129.1 80.4998 122.7C78.2998 116.2 74.6998 109.8 68.5998 106.7H53.1998C50.9998 103.5 47.9998 101.8 44.0998 101.2C35.5998 99.9995 26.0998 101.9 20.3998 108.4C15.4998 108.6 10.4998 109.9 6.59979 113C2.69979 116.1 0.299787 121.1 1.09979 126C1.89979 130.4 5.29979 133.8 8.39979 137C15.0998 143.6 21.8998 150.3 28.5998 156.9L41.1998 144.3C39.2998 137.5 36.8998 129.4 31.7998 124.5C38.1998 125.3 43.7998 123.9 49.7998 121.9Z" fill="#12A6B4"/>
<path d="M42.7998 56.6992C43.5998 65.2992 52.3998 73.3992 61.5998 72.0992C68.4998 71.0992 76.0998 65.8992 76.4998 58.4992" stroke="#F2E4D7" stroke-width="1.0375" stroke-miterlimit="10" stroke-linecap="round" stroke-linejoin="round"/>
<path d="M40.2998 76.9004C42.5998 78.1004 44.9998 79.4004 46.4998 81.6004C48.3998 84.2004 48.0998 87.2004 46.9998 90.1004C46.3998 91.9004 45.0998 93.2004 43.3998 94.0004" stroke="#F2E4D7" stroke-width="1.0375" stroke-miterlimit="10" stroke-linecap="round" stroke-linejoin="round"/>
<path d="M76.4998 75.5C73.1998 76 69.9999 77.6 67.7999 80.1C65.5999 82.7 64.5999 86.2 65.2999 89.5C65.9999 92.8 68.5999 95.7 71.8999 96.4" stroke="#F2E4D7" stroke-width="1.0375" stroke-miterlimit="10" stroke-linecap="round" stroke-linejoin="round"/>
<path d="M44.7002 96.8004C46.1002 94.6004 48.0002 92.6004 50.4002 91.6004C52.8002 90.6004 55.7002 90.8004 57.9002 92.3004C59.7002 93.6004 60.7002 95.8004 62.4002 97.3004C64.7002 99.4004 68.3002 100.1 71.2002 98.9004" stroke="#F2E4D7" stroke-width="1.0375" stroke-miterlimit="10" stroke-linecap="round" stroke-linejoin="round"/>
<path d="M35.5 59C39.2 61.5 40.6 66.2 43.2 69.7C47.5 75.4 55.1 81.3 62.7 78.9C65.4 78.1 67.5 76.3 69.8 74.7C72.1 73.2 74.9 71.9 77.6 72.3" stroke="#F2E4D7" stroke-width="1.0098" stroke-miterlimit="10" stroke-linecap="round" stroke-linejoin="round"/>
<path d="M11.7 62C10.5 66.6 7.3 70.8 3 73" stroke="#FF9E00" stroke-width="2.5939" stroke-miterlimit="10" stroke-linecap="round" stroke-linejoin="round"/>
<path d="M78.2998 1.30078C80.8998 6.20078 85.1998 10.0008 90.2998 12.2008" stroke="#FF9E00" stroke-width="2.5939" stroke-miterlimit="10" stroke-linecap="round" stroke-linejoin="round"/>
<path d="M110.1 95.4004C109.5 98.3004 107 100.7 104 101.3" stroke="#FF9E00" stroke-width="2.5939" stroke-miterlimit="10" stroke-linecap="round" stroke-linejoin="round"/>
<path d="M40.3996 200C39.4996 203.5 36.8996 206.4 33.5996 207.8" stroke="#FF9E00" stroke-width="2.5939" stroke-miterlimit="10" stroke-linecap="round" stroke-linejoin="round"/>
<path d="M222.5 80.3008C223.9 83.7008 227.1 86.2008 230.7 86.8008" stroke="#FF9E00" stroke-width="2.5939" stroke-miterlimit="10" stroke-linecap="round" stroke-linejoin="round"/>
<path d="M234.9 193.199C233.5 196.699 230.3 199.299 226.6 199.999" stroke="#FF9E00" stroke-width="2.5939" stroke-miterlimit="10" stroke-linecap="round" stroke-linejoin="round"/>
<path d="M178 79.9004H177.3V80.9004H178V79.9004Z" fill="#490000"/>
<path d="M177.3 80.9004H176.6V81.9004H177.3V80.9004Z" fill="#490000"/>
<path d="M178 80.9004H177.3V81.9004H178V80.9004Z" fill="#490000"/>
<path d="M178.7 80.9004H178V81.9004H178.7V80.9004Z" fill="#490000"/>
<path d="M178.7 81.9004H178V82.9004H178.7V81.9004Z" fill="#490000"/>
<path d="M179.5 81.9004H178.8V82.9004H179.5V81.9004Z" fill="#490000"/>
<path d="M176.6 81.9004H175.9V82.9004H176.6V81.9004Z" fill="#490000"/>
<path d="M177.3 81.9004H176.6V82.9004H177.3V81.9004Z" fill="#490000"/>
<path d="M175.8 82.8008H175.1V83.8008H175.8V82.8008Z" fill="#490000"/>
<path d="M176.6 82.8008H175.9V83.8008H176.6V82.8008Z" fill="#490000"/>
<path d="M179.5 82.8008H178.8V83.8008H179.5V82.8008Z" fill="#490000"/>
<path d="M180.2 82.8008H179.5V83.8008H180.2V82.8008Z" fill="#490000"/>
<path d="M178.7 83.8008H178V84.8008H178.7V83.8008Z" fill="#490000"/>
<path d="M179.5 83.8008H178.8V84.8008H179.5V83.8008Z" fill="#490000"/>
<path d="M176.6 83.8008H175.9V84.8008H176.6V83.8008Z" fill="#490000"/>
<path d="M177.3 83.8008H176.6V84.8008H177.3V83.8008Z" fill="#490000"/>
<path d="M177.3 84.8008H176.6V85.8008H177.3V84.8008Z" fill="#490000"/>
<path d="M178 84.8008H177.3V85.8008H178V84.8008Z" fill="#490000"/>
<path d="M178.7 84.8008H178V85.8008H178.7V84.8008Z" fill="#490000"/>
<path d="M178 85.8008H177.3V86.8008H178V85.8008Z" fill="#490000"/>
<path d="M178 82.8008H177.3V83.8008H178V82.8008Z" fill="#850000"/>
<path d="M165.8 75H165.1V76H165.8V75Z" fill="#850000"/>
<path d="M165.1 76H164.4V77H165.1V76Z" fill="#850000"/>
<path d="M165.8 76H165.1V77H165.8V76Z" fill="#850000"/>
<path d="M166.5 76H165.8V77H166.5V76Z" fill="#850000"/>
<path d="M166.5 77H165.8V78H166.5V77Z" fill="#850000"/>
<path d="M167.2 77H166.5V78H167.2V77Z" fill="#850000"/>
<path d="M164.3 77H163.6V78H164.3V77Z" fill="#850000"/>
<path d="M165.1 77H164.4V78H165.1V77Z" fill="#850000"/>
<path d="M163.6 78H162.9V79H163.6V78Z" fill="#850000"/>
<path d="M164.3 78H163.6V79H164.3V78Z" fill="#850000"/>
<path d="M167.2 78H166.5V79H167.2V78Z" fill="#850000"/>
<path d="M168 78H167.3V79H168V78Z" fill="#850000"/>
<path d="M166.5 78.9004H165.8V79.9004H166.5V78.9004Z" fill="#850000"/>
<path d="M167.2 78.9004H166.5V79.9004H167.2V78.9004Z" fill="#850000"/>
<path d="M164.3 78.9004H163.6V79.9004H164.3V78.9004Z" fill="#850000"/>
<path d="M165.1 78.9004H164.4V79.9004H165.1V78.9004Z" fill="#850000"/>
<path d="M165.1 79.9004H164.4V80.9004H165.1V79.9004Z" fill="#850000"/>
<path d="M165.8 79.9004H165.1V80.9004H165.8V79.9004Z" fill="#850000"/>
<path d="M166.5 79.9004H165.8V80.9004H166.5V79.9004Z" fill="#850000"/>
<path d="M165.8 80.9004H165.1V81.9004H165.8V80.9004Z" fill="#850000"/>
<path d="M165.8 78H165.1V79H165.8V78Z" fill="#850000"/>
<path d="M165.8 84.8008H165.1V85.8008H165.8V84.8008Z" fill="#850000"/>
<path d="M165.1 85.8008V86.8008H164.7C164.6 86.5008 164.5 86.2008 164.5 85.8008H165.1Z" fill="#850000"/>
<path d="M165.8 85.8008H165.1V86.8008H165.8V85.8008Z" fill="#850000"/>
<path d="M166.5 85.8008H165.8V86.8008H166.5V85.8008Z" fill="#850000"/>
<path d="M166.5 86.8008H165.8V87.8008H166.5V86.8008Z" fill="#850000"/>
<path d="M167.2 86.8008H166.5V87.8008H167.2V86.8008Z" fill="#850000"/>
<path d="M165.1 86.8008V87.8008H164.9C164.8 87.5008 164.8 87.2008 164.7 86.8008H165.1Z" fill="#850000"/>
<path d="M167.2 87.8008H166.5V88.8008H167.2V87.8008Z" fill="#850000"/>
<path d="M168 87.8008H167.3V88.8008H168V87.8008Z" fill="#850000"/>
<path d="M166.5 88.8008H165.8V89.8008H166.5V88.8008Z" fill="#850000"/>
<path d="M167.2 88.8008H166.5V89.8008H167.2V88.8008Z" fill="#850000"/>
<path d="M165.8 89.8008V90.8008H165.5C165.4 90.5008 165.4 90.2008 165.3 89.8008H165.8Z" fill="#850000"/>
<path d="M166.5 89.8008H165.8V90.8008H166.5V89.8008Z" fill="#850000"/>
<path d="M165.8 90.8008V91.8008H165.7C165.6 91.5008 165.6 91.2008 165.5 90.8008H165.8Z" fill="#850000"/>
<path d="M165.8 87.8008H165.1V88.8008H165.8V87.8008Z" fill="#850000"/>
<path d="M169.4 79.9004H168.7V80.9004H169.4V79.9004Z" fill="#850000"/>
<path d="M168.7 80.9004H168V81.9004H168.7V80.9004Z" fill="#850000"/>
<path d="M169.4 80.9004H168.7V81.9004H169.4V80.9004Z" fill="#850000"/>
<path d="M170.1 80.9004H169.4V81.9004H170.1V80.9004Z" fill="#850000"/>
<path d="M170.1 81.9004H169.4V82.9004H170.1V81.9004Z" fill="#850000"/>
<path d="M170.8 81.9004H170.1V82.9004H170.8V81.9004Z" fill="#850000"/>
<path d="M168 81.9004H167.3V82.9004H168V81.9004Z" fill="#850000"/>
<path d="M168.7 81.9004H168V82.9004H168.7V81.9004Z" fill="#850000"/>
<path d="M167.2 82.8008H166.5V83.8008H167.2V82.8008Z" fill="#850000"/>
<path d="M168 82.8008H167.3V83.8008H168V82.8008Z" fill="#850000"/>
<path d="M170.8 82.8008H170.1V83.8008H170.8V82.8008Z" fill="#850000"/>
<path d="M171.5 82.8008H170.8V83.8008H171.5V82.8008Z" fill="#850000"/>
<path d="M170.1 83.8008H169.4V84.8008H170.1V83.8008Z" fill="#850000"/>
<path d="M170.8 83.8008H170.1V84.8008H170.8V83.8008Z" fill="#850000"/>
<path d="M168 83.8008H167.3V84.8008H168V83.8008Z" fill="#850000"/>
<path d="M168.7 83.8008H168V84.8008H168.7V83.8008Z" fill="#850000"/>
<path d="M168.7 84.8008H168V85.8008H168.7V84.8008Z" fill="#850000"/>
<path d="M169.4 84.8008H168.7V85.8008H169.4V84.8008Z" fill="#850000"/>
<path d="M170.1 84.8008H169.4V85.8008H170.1V84.8008Z" fill="#850000"/>
<path d="M169.4 85.8008H168.7V86.8008H169.4V85.8008Z" fill="#850000"/>
<path d="M169.4 82.8008H168.7V83.8008H169.4V82.8008Z" fill="#850000"/>
<path d="M164.4 82.9004V83.9004H164C163.9 83.5004 163.9 83.3004 163.8 82.9004H164.4Z" fill="#850000"/>
<path d="M190.3 75H189.6V76H190.3V75Z" fill="#850000"/>
<path d="M189.5 76H188.8V77H189.5V76Z" fill="#850000"/>
<path d="M190.3 76H189.6V77H190.3V76Z" fill="#850000"/>
<path d="M191 76H190.3V77H191V76Z" fill="#850000"/>
<path d="M191 77H190.3V78H191V77Z" fill="#850000"/>
<path d="M191.7 77H191V78H191.7V77Z" fill="#850000"/>
<path d="M188.8 77H188.1V78H188.8V77Z" fill="#850000"/>
<path d="M189.5 77H188.8V78H189.5V77Z" fill="#850000"/>
<path d="M188.1 78H187.4V79H188.1V78Z" fill="#850000"/>
<path d="M188.8 78H188.1V79H188.8V78Z" fill="#850000"/>
<path d="M191.7 78H191V79H191.7V78Z" fill="#850000"/>
<path d="M192.4 78H191.7V79H192.4V78Z" fill="#850000"/>
<path d="M191 78.9004H190.3V79.9004H191V78.9004Z" fill="#850000"/>
<path d="M191.7 78.9004H191V79.9004H191.7V78.9004Z" fill="#850000"/>
<path d="M188.8 78.9004H188.1V79.9004H188.8V78.9004Z" fill="#850000"/>
<path d="M189.5 78.9004H188.8V79.9004H189.5V78.9004Z" fill="#850000"/>
<path d="M189.5 79.9004H188.8V80.9004H189.5V79.9004Z" fill="#850000"/>
<path d="M190.3 79.9004H189.6V80.9004H190.3V79.9004Z" fill="#850000"/>
<path d="M191 79.9004H190.3V80.9004H191V79.9004Z" fill="#850000"/>
<path d="M190.3 80.9004H189.6V81.9004H190.3V80.9004Z" fill="#850000"/>
<path d="M190.3 78H189.6V79H190.3V78Z" fill="#850000"/>
<path d="M190.3 84.8008H189.6V85.8008H190.3V84.8008Z" fill="#850000"/>
<path d="M189.5 85.8008H188.8V86.8008H189.5V85.8008Z" fill="#850000"/>
<path d="M190.3 85.8008H189.6V86.8008H190.3V85.8008Z" fill="#850000"/>
<path d="M191 85.8008H190.3V86.8008H191V85.8008Z" fill="#850000"/>
<path d="M191 86.8008H190.3V87.8008H191V86.8008Z" fill="#850000"/>
<path d="M191.7 86.8008H191V87.8008H191.7V86.8008Z" fill="#850000"/>
<path d="M188.8 86.8008H188.1V87.8008H188.8V86.8008Z" fill="#850000"/>
<path d="M189.5 86.8008H188.8V87.8008H189.5V86.8008Z" fill="#850000"/>
<path d="M188.1 87.8008H187.4V88.8008H188.1V87.8008Z" fill="#850000"/>
<path d="M188.8 87.8008H188.1V88.8008H188.8V87.8008Z" fill="#850000"/>
<path d="M191.7 87.8008H191V88.8008H191.7V87.8008Z" fill="#850000"/>
<path d="M192.4 87.8008H191.7V88.8008H192.4V87.8008Z" fill="#850000"/>
<path d="M191 88.8008H190.3V89.8008H191V88.8008Z" fill="#850000"/>
<path d="M191.7 88.8008H191V89.8008H191.7V88.8008Z" fill="#850000"/>
<path d="M188.8 88.8008H188.1V89.8008H188.8V88.8008Z" fill="#850000"/>
<path d="M189.5 88.8008H188.8V89.8008H189.5V88.8008Z" fill="#850000"/>
<path d="M189.5 89.8008H188.8V90.8008H189.5V89.8008Z" fill="#850000"/>
<path d="M190.3 89.8008H189.6V90.8008H190.3V89.8008Z" fill="#850000"/>
<path d="M191 89.8008H190.3V90.8008H191V89.8008Z" fill="#850000"/>
<path d="M190.3 90.8008H189.6V91.8008H190.3V90.8008Z" fill="#850000"/>
<path d="M190.3 87.8008H189.6V88.8008H190.3V87.8008Z" fill="#850000"/>
<path d="M193.9 79.9004H193.2V80.9004H193.9V79.9004Z" fill="#850000"/>
<path d="M193.2 80.9004H192.5V81.9004H193.2V80.9004Z" fill="#850000"/>
<path d="M193.9 80.9004H193.2V81.9004H193.9V80.9004Z" fill="#850000"/>
<path d="M194.6 80.9004H193.9V81.9004H194.6V80.9004Z" fill="#850000"/>
<path d="M194.6 81.9004H193.9V82.9004H194.6V81.9004Z" fill="#850000"/>
<path d="M195.3 81.9004H194.6V82.9004H195.3V81.9004Z" fill="#850000"/>
<path d="M192.4 81.9004H191.7V82.9004H192.4V81.9004Z" fill="#850000"/>
<path d="M193.2 81.9004H192.5V82.9004H193.2V81.9004Z" fill="#850000"/>
<path d="M191.7 82.8008H191V83.8008H191.7V82.8008Z" fill="#850000"/>
<path d="M192.4 82.8008H191.7V83.8008H192.4V82.8008Z" fill="#850000"/>
<path d="M195.3 82.8008H194.6V83.8008H195.3V82.8008Z" fill="#850000"/>
<path d="M196 82.8008H195.3V83.8008H196V82.8008Z" fill="#850000"/>
<path d="M194.6 83.8008H193.9V84.8008H194.6V83.8008Z" fill="#850000"/>
<path d="M195.3 83.8008H194.6V84.8008H195.3V83.8008Z" fill="#850000"/>
<path d="M192.4 83.8008H191.7V84.8008H192.4V83.8008Z" fill="#850000"/>
<path d="M193.2 83.8008H192.5V84.8008H193.2V83.8008Z" fill="#850000"/>
<path d="M193.2 84.8008H192.5V85.8008H193.2V84.8008Z" fill="#850000"/>
<path d="M193.9 84.8008H193.2V85.8008H193.9V84.8008Z" fill="#850000"/>
<path d="M194.6 84.8008H193.9V85.8008H194.6V84.8008Z" fill="#850000"/>
<path d="M193.9 85.8008H193.2V86.8008H193.9V85.8008Z" fill="#850000"/>
<path d="M193.9 82.8008H193.2V83.8008H193.9V82.8008Z" fill="#850000"/>
<path d="M186.6 79.9004H185.9V80.9004H186.6V79.9004Z" fill="#850000"/>
<path d="M185.9 80.9004H185.2V81.9004H185.9V80.9004Z" fill="#850000"/>
<path d="M186.6 80.9004H185.9V81.9004H186.6V80.9004Z" fill="#850000"/>
<path d="M187.4 80.9004H186.7V81.9004H187.4V80.9004Z" fill="#850000"/>
<path d="M187.4 81.9004H186.7V82.9004H187.4V81.9004Z" fill="#850000"/>
<path d="M188.1 81.9004H187.4V82.9004H188.1V81.9004Z" fill="#850000"/>
<path d="M185.2 81.9004H184.5V82.9004H185.2V81.9004Z" fill="#850000"/>
<path d="M185.9 81.9004H185.2V82.9004H185.9V81.9004Z" fill="#850000"/>
<path d="M184.5 82.8008H183.8V83.8008H184.5V82.8008Z" fill="#850000"/>
<path d="M185.2 82.8008H184.5V83.8008H185.2V82.8008Z" fill="#850000"/>
<path d="M188.1 82.8008H187.4V83.8008H188.1V82.8008Z" fill="#850000"/>
<path d="M188.8 82.8008H188.1V83.8008H188.8V82.8008Z" fill="#850000"/>
<path d="M187.4 83.8008H186.7V84.8008H187.4V83.8008Z" fill="#850000"/>
<path d="M188.1 83.8008H187.4V84.8008H188.1V83.8008Z" fill="#850000"/>
<path d="M185.2 83.8008H184.5V84.8008H185.2V83.8008Z" fill="#850000"/>
<path d="M185.9 83.8008H185.2V84.8008H185.9V83.8008Z" fill="#850000"/>
<path d="M185.9 84.8008H185.2V85.8008H185.9V84.8008Z" fill="#850000"/>
<path d="M186.6 84.8008H185.9V85.8008H186.6V84.8008Z" fill="#850000"/>
<path d="M187.4 84.8008H186.7V85.8008H187.4V84.8008Z" fill="#850000"/>
<path d="M186.6 85.8008H185.9V86.8008H186.6V85.8008Z" fill="#850000"/>
<path d="M186.6 82.8008H185.9V83.8008H186.6V82.8008Z" fill="#850000"/>
<path d="M191 83.8008H190.3V84.8008H191V83.8008Z" fill="#850000"/>
<path d="M191.7 84.8008H191V85.8008H191.7V84.8008Z" fill="#850000"/>
<path d="M192.4 85.8008H191.7V86.8008H192.4V85.8008Z" fill="#850000"/>
<path d="M193.2 86.8008H192.5V87.8008H193.2V86.8008Z" fill="#850000"/>
<path d="M193.6 87.8008C193.5 88.0008 193.3 88.3008 193.2 88.5008V87.8008H193.6Z" fill="#850000"/>
<path d="M184.5 90.8008H183.8V91.8008H184.5V90.8008Z" fill="#850000"/>
<path d="M185.2 89.8008H184.5V90.8008H185.2V89.8008Z" fill="#850000"/>
<path d="M185.9 88.8008H185.2V89.8008H185.9V88.8008Z" fill="#850000"/>
<path d="M186.6 87.8008H185.9V88.8008H186.6V87.8008Z" fill="#850000"/>
<path d="M187.4 86.8008H186.7V87.8008H187.4V86.8008Z" fill="#850000"/>
<path d="M188.1 85.8008H187.4V86.8008H188.1V85.8008Z" fill="#850000"/>
<path d="M188.8 84.8008H188.1V85.8008H188.8V84.8008Z" fill="#850000"/>
<path d="M189.5 83.8008H188.8V84.8008H189.5V83.8008Z" fill="#850000"/>
<path d="M184.5 75H183.8V76H184.5V75Z" fill="#850000"/>
<path d="M185.2 76H184.5V77H185.2V76Z" fill="#850000"/>
<path d="M185.9 77H185.2V78H185.9V77Z" fill="#850000"/>
<path d="M186.6 78H185.9V79H186.6V78Z" fill="#850000"/>
<path d="M187.4 78.9004H186.7V79.9004H187.4V78.9004Z" fill="#850000"/>
<path d="M188.1 79.9004H187.4V80.9004H188.1V79.9004Z" fill="#850000"/>
<path d="M188.8 80.9004H188.1V81.9004H188.8V80.9004Z" fill="#850000"/>
<path d="M189.5 81.9004H188.8V82.9004H189.5V81.9004Z" fill="#850000"/>
<path d="M196 75H195.3V76H196V75Z" fill="#850000"/>
<path d="M195.3 76H194.6V77H195.3V76Z" fill="#850000"/>
<path d="M194.6 77H193.9V78H194.6V77Z" fill="#850000"/>
<path d="M193.9 78H193.2V79H193.9V78Z" fill="#850000"/>
<path d="M193.2 78.9004H192.5V79.9004H193.2V78.9004Z" fill="#850000"/>
<path d="M192.4 79.9004H191.7V80.9004H192.4V79.9004Z" fill="#850000"/>
<path d="M191.7 80.9004H191V81.9004H191.7V80.9004Z" fill="#850000"/>
<path d="M191 81.9004H190.3V82.9004H191V81.9004Z" fill="#850000"/>
<path d="M196.8 74H196V75H196.7V74H196.8Z" fill="#850000"/>
<path d="M197.5 74H196.8V75H197.5V74Z" fill="#850000"/>
<path d="M198.2 74H197.5V75H198.2V74Z" fill="#850000"/>
<path d="M198.9 74H198.2V75H198.9V74Z" fill="#850000"/>
<path d="M199.6 74H198.9V75H199.6V74Z" fill="#850000"/>
<path d="M200.3 74H199.6V75H200.3V74Z" fill="#850000"/>
<path d="M197.5 76H196.8V77H197.5V76Z" fill="#850000"/>
<path d="M198.2 76H197.5V77H198.2V76Z" fill="#850000"/>
<path d="M198.9 76H198.2V77H198.9V76Z" fill="#850000"/>
<path d="M199.6 76H198.9V77H199.6V76Z" fill="#850000"/>
<path d="M198.2 79.9004C198 80.3004 197.8 80.5004 197.6 80.9004H197.4V79.9004H198.2Z" fill="#850000"/>
<path d="M199.6 77V77.5C199.5 77.7 199.4 77.9 199.3 78H198.9V77H199.6Z" fill="#850000"/>
<path d="M198.9 78H198.2V79H198.9V78Z" fill="#850000"/>
<path d="M197.5 78.9004H196.8V79.9004H197.5V78.9004Z" fill="#850000"/>
<path d="M201 75C200.8 75.3 200.6 75.6 200.5 76H200.4V75H201Z" fill="#850000"/>
<path d="M200.5 76C200.5 76.1 200.4 76.1 200.4 76.2L200.5 76Z" fill="#850000"/>
<path d="M196.8 77H196V78H196.7V77H196.8Z" fill="#850000"/>
<path d="M196.8 78H196V79H196.7V78H196.8Z" fill="#850000"/>
<path d="M183.8 74H183.1V75H183.8V74Z" fill="#850000"/>
<path d="M183.1 74H182.4V75H183.1V74Z" fill="#850000"/>
<path d="M182.4 74H181.7V75H182.4V74Z" fill="#850000"/>
<path d="M181.6 74H180.9V75H181.6V74Z" fill="#850000"/>
<path d="M180.9 74H180.2V75H180.9V74Z" fill="#850000"/>
<path d="M180.2 74H179.5V75H180.2V74Z" fill="#850000"/>
<path d="M183.1 76H182.4V77H183.1V76Z" fill="#850000"/>
<path d="M182.4 76H181.7V77H182.4V76Z" fill="#850000"/>
<path d="M181.6 76H180.9V77H181.6V76Z" fill="#850000"/>
<path d="M180.9 76H180.2V77H180.9V76Z" fill="#850000"/>
<path d="M182.4 79.9004H181.7V80.9004H182.4V79.9004Z" fill="#850000"/>
<path d="M181.6 79.9004H180.9V80.9004H181.6V79.9004Z" fill="#850000"/>
<path d="M180.9 79.9004H180.2V80.9004H180.9V79.9004Z" fill="#850000"/>
<path d="M180.2 78.9004H179.5V79.9004H180.2V78.9004Z" fill="#850000"/>
<path d="M180.9 77H180.2V78H180.9V77Z" fill="#850000"/>
<path d="M181.6 78H180.9V79H181.6V78Z" fill="#850000"/>
<path d="M183.1 78.9004H182.4V79.9004H183.1V78.9004Z" fill="#850000"/>
<path d="M179.5 75H178.8V76H179.5V75Z" fill="#850000"/>
<path d="M179.5 76H178.8V77H179.5V76Z" fill="#850000"/>
<path d="M179.5 77H178.8V78H179.5V77Z" fill="#850000"/>
<path d="M179.5 78H178.8V79H179.5V78Z" fill="#850000"/>
<path d="M183.8 77H183.1V78H183.8V77Z" fill="#850000"/>
<path d="M183.8 78H183.1V79H183.8V78Z" fill="#850000"/>
<path d="M183.8 91.6992H183.1V92.6992H183.8V91.6992Z" fill="#850000"/>
<path d="M183.1 91.6992H182.4V92.6992H183.1V91.6992Z" fill="#850000"/>
<path d="M182.4 91.6992H181.7V92.6992H182.4V91.6992Z" fill="#850000"/>
<path d="M181.6 91.6992H180.9V92.6992H181.6V91.6992Z" fill="#850000"/>
<path d="M180.9 91.6992H180.2V92.6992H180.9V91.6992Z" fill="#850000"/>
<path d="M180.2 91.6992H179.5V92.6992H180.2V91.6992Z" fill="#850000"/>
<path d="M183.1 89.8008H182.4V90.8008H183.1V89.8008Z" fill="#850000"/>
<path d="M182.4 89.8008H181.7V90.8008H182.4V89.8008Z" fill="#850000"/>
<path d="M181.6 89.8008H180.9V90.8008H181.6V89.8008Z" fill="#850000"/>
<path d="M180.9 89.8008H180.2V90.8008H180.9V89.8008Z" fill="#850000"/>
<path d="M182.4 85.8008H181.7V86.8008H182.4V85.8008Z" fill="#850000"/>
<path d="M181.6 85.8008H180.9V86.8008H181.6V85.8008Z" fill="#850000"/>
<path d="M180.9 85.8008H180.2V86.8008H180.9V85.8008Z" fill="#850000"/>
<path d="M180.2 86.8008H179.5V87.8008H180.2V86.8008Z" fill="#850000"/>
<path d="M180.9 88.8008H180.2V89.8008H180.9V88.8008Z" fill="#850000"/>
<path d="M181.6 87.8008H180.9V88.8008H181.6V87.8008Z" fill="#850000"/>
<path d="M183.1 86.8008H182.4V87.8008H183.1V86.8008Z" fill="#850000"/>
<path d="M179.5 90.8008H178.8V91.8008H179.5V90.8008Z" fill="#850000"/>
<path d="M179.5 89.8008H178.8V90.8008H179.5V89.8008Z" fill="#850000"/>
<path d="M179.5 88.8008H178.8V89.8008H179.5V88.8008Z" fill="#850000"/>
<path d="M179.5 87.8008H178.8V88.8008H179.5V87.8008Z" fill="#850000"/>
<path d="M183.8 88.8008H183.1V89.8008H183.8V88.8008Z" fill="#850000"/>
<path d="M183.8 87.8008H183.1V88.8008H183.8V87.8008Z" fill="#850000"/>
<path d="M166.5 83.8008H165.8V84.8008H166.5V83.8008Z" fill="#850000"/>
<path d="M167.2 84.8008H166.5V85.8008H167.2V84.8008Z" fill="#850000"/>
<path d="M168 85.8008H167.3V86.8008H168V85.8008Z" fill="#850000"/>
<path d="M168.7 86.8008H168V87.8008H168.7V86.8008Z" fill="#850000"/>
<path d="M169.4 87.8008H168.7V88.8008H169.4V87.8008Z" fill="#850000"/>
<path d="M170.1 88.8008H169.4V89.8008H170.1V88.8008Z" fill="#850000"/>
<path d="M170.8 89.8008H170.1V90.8008H170.8V89.8008Z" fill="#850000"/>
<path d="M171.5 90.8008H170.8V91.8008H171.5V90.8008Z" fill="#850000"/>
<path d="M164.4 84.8008V85.4008C164.3 85.2008 164.3 85.0008 164.3 84.8008H164.4Z" fill="#850000"/>
<path d="M165.1 83.8008H164.4V84.8008H165.1V83.8008Z" fill="#850000"/>
<path d="M163.6 79.9004V80.9004H163.3C163.2 80.5004 163.2 80.3004 163.1 79.9004H163.6Z" fill="#850000"/>
<path d="M164.3 80.9004H163.6V81.9004H164.3V80.9004Z" fill="#850000"/>
<path d="M165.1 81.9004H164.4V82.9004H165.1V81.9004Z" fill="#850000"/>
<path d="M171.5 75H170.8V76H171.5V75Z" fill="#850000"/>
<path d="M170.8 76H170.1V77H170.8V76Z" fill="#850000"/>
<path d="M170.1 77H169.4V78H170.1V77Z" fill="#850000"/>
<path d="M169.4 78H168.7V79H169.4V78Z" fill="#850000"/>
<path d="M168.7 78.9004H168V79.9004H168.7V78.9004Z" fill="#850000"/>
<path d="M168 79.9004H167.3V80.9004H168V79.9004Z" fill="#850000"/>
<path d="M167.2 80.9004H166.5V81.9004H167.2V80.9004Z" fill="#850000"/>
<path d="M166.5 81.9004H165.8V82.9004H166.5V81.9004Z" fill="#850000"/>
<path d="M172.2 91.6992H171.5V92.6992H172.2V91.6992Z" fill="#850000"/>
<path d="M173 91.6992H172.3V92.6992H173V91.6992Z" fill="#850000"/>
<path d="M173.7 91.6992H173V92.6992H173.7V91.6992Z" fill="#850000"/>
<path d="M174.4 91.6992H173.7V92.6992H174.4V91.6992Z" fill="#850000"/>
<path d="M175.1 91.6992H174.4V92.6992H175.1V91.6992Z" fill="#850000"/>
<path d="M175.8 91.6992H175.1V92.6992H175.8V91.6992Z" fill="#850000"/>
<path d="M173 89.8008H172.3V90.8008H173V89.8008Z" fill="#850000"/>
<path d="M173.7 89.8008H173V90.8008H173.7V89.8008Z" fill="#850000"/>
<path d="M174.4 89.8008H173.7V90.8008H174.4V89.8008Z" fill="#850000"/>
<path d="M175.1 89.8008H174.4V90.8008H175.1V89.8008Z" fill="#850000"/>
<path d="M173.7 85.8008H173V86.8008H173.7V85.8008Z" fill="#850000"/>
<path d="M174.4 85.8008H173.7V86.8008H174.4V85.8008Z" fill="#850000"/>
<path d="M175.1 85.8008H174.4V86.8008H175.1V85.8008Z" fill="#850000"/>
<path d="M175.8 86.8008H175.1V87.8008H175.8V86.8008Z" fill="#850000"/>
<path d="M175.1 88.8008H174.4V89.8008H175.1V88.8008Z" fill="#850000"/>
<path d="M174.4 87.8008H173.7V88.8008H174.4V87.8008Z" fill="#850000"/>
<path d="M173 86.8008H172.3V87.8008H173V86.8008Z" fill="#850000"/>
<path d="M176.6 90.8008H175.9V91.8008H176.6V90.8008Z" fill="#850000"/>
<path d="M176.6 89.8008H175.9V90.8008H176.6V89.8008Z" fill="#850000"/>
<path d="M176.6 88.8008H175.9V89.8008H176.6V88.8008Z" fill="#850000"/>
<path d="M176.6 87.8008H175.9V88.8008H176.6V87.8008Z" fill="#850000"/>
<path d="M172.2 88.8008H171.5V89.8008H172.2V88.8008Z" fill="#850000"/>
<path d="M172.2 87.8008H171.5V88.8008H172.2V87.8008Z" fill="#850000"/>
<path d="M172.2 74H171.5V75H172.2V74Z" fill="#850000"/>
<path d="M173 74H172.3V75H173V74Z" fill="#850000"/>
<path d="M173.7 74H173V75H173.7V74Z" fill="#850000"/>
<path d="M174.4 74H173.7V75H174.4V74Z" fill="#850000"/>
<path d="M175.1 74H174.4V75H175.1V74Z" fill="#850000"/>
<path d="M175.8 74H175.1V75H175.8V74Z" fill="#850000"/>
<path d="M173 76H172.3V77H173V76Z" fill="#850000"/>
<path d="M173.7 76H173V77H173.7V76Z" fill="#850000"/>
<path d="M174.4 76H173.7V77H174.4V76Z" fill="#850000"/>
<path d="M175.1 76H174.4V77H175.1V76Z" fill="#850000"/>
<path d="M173.7 79.9004H173V80.9004H173.7V79.9004Z" fill="#850000"/>
<path d="M174.4 79.9004H173.7V80.9004H174.4V79.9004Z" fill="#850000"/>
<path d="M175.1 79.9004H174.4V80.9004H175.1V79.9004Z" fill="#850000"/>
<path d="M175.8 78.9004H175.1V79.9004H175.8V78.9004Z" fill="#850000"/>
<path d="M175.1 77H174.4V78H175.1V77Z" fill="#850000"/>
<path d="M174.4 78H173.7V79H174.4V78Z" fill="#850000"/>
<path d="M173 78.9004H172.3V79.9004H173V78.9004Z" fill="#850000"/>
<path d="M176.6 75H175.9V76H176.6V75Z" fill="#850000"/>
<path d="M176.6 76H175.9V77H176.6V76Z" fill="#850000"/>
<path d="M176.6 77H175.9V78H176.6V77Z" fill="#850000"/>
<path d="M176.6 78H175.9V79H176.6V78Z" fill="#850000"/>
<path d="M172.2 77H171.5V78H172.2V77Z" fill="#850000"/>
<path d="M172.2 78H171.5V79H172.2V78Z" fill="#850000"/>
<path d="M165.8 81.9004H165.1V82.9004H165.8V81.9004Z" fill="#490000"/>
<path d="M165.8 82.8008H165.1V83.8008H165.8V82.8008Z" fill="#490000"/>
<path d="M166.5 82.8008H165.8V83.8008H166.5V82.8008Z" fill="#490000"/>
<path d="M165.1 82.8008H164.4V83.8008H165.1V82.8008Z" fill="#490000"/>
<path d="M165.8 83.8008H165.1V84.8008H165.8V83.8008Z" fill="#490000"/>
<path d="M190.3 81.9004H189.6V82.9004H190.3V81.9004Z" fill="#490000"/>
<path d="M190.3 82.8008H189.6V83.8008H190.3V82.8008Z" fill="#490000"/>
<path d="M191 82.8008H190.3V83.8008H191V82.8008Z" fill="#490000"/>
<path d="M189.5 82.8008H188.8V83.8008H189.5V82.8008Z" fill="#490000"/>
<path d="M190.3 83.8008H189.6V84.8008H190.3V83.8008Z" fill="#490000"/>
<path d="M154.8 62.6992V63.6992H153.9C153.8 63.5992 153.8 63.4992 153.9 63.4992C154.1 63.1992 154.4 62.8992 154.8 62.6992Z" fill="#850000"/>
<path d="M154.8 63.6992V65.1992C154.7 65.0992 154.6 64.8992 154.5 64.7992C154.1 64.2992 153.9 63.8992 153.9 63.6992H154.8Z" fill="#850000"/>
<path d="M156.6 63.6992V65.3992H154.9C154.8 65.2992 154.8 65.2992 154.8 65.1992V63.6992H156.6Z" fill="#850000"/>
<path d="M158.4 61.9004H156.6V63.6004H158.4V61.9004Z" fill="#850000"/>
<path d="M160.3 61.9004H158.5V63.6004H160.3V61.9004Z" fill="#850000"/>
<path d="M160.3 63.6992H158.5V65.3992H160.3V63.6992Z" fill="#850000"/>
<path d="M162.1 63.6992H160.3V65.3992H162.1V63.6992Z" fill="#850000"/>
<path d="M163.9 61.9004H162.1V63.6004H163.9V61.9004Z" fill="#850000"/>
<path d="M165.7 61.9004H163.9V63.6004H165.7V61.9004Z" fill="#850000"/>
<path d="M165.7 63.6992H163.9V65.3992H165.7V63.6992Z" fill="#850000"/>
<path d="M167.5 63.6992H165.7V65.3992H167.5V63.6992Z" fill="#850000"/>
<path d="M169.4 61.9004H167.6V63.6004H169.4V61.9004Z" fill="#850000"/>
<path d="M171.2 61.9004H169.4V63.6004H171.2V61.9004Z" fill="#850000"/>
<path d="M171.2 63.6992H169.4V65.3992H171.2V63.6992Z" fill="#850000"/>
<path d="M173 63.6992H171.2V65.3992H173V63.6992Z" fill="#850000"/>
<path d="M174.8 61.9004H173V63.6004H174.8V61.9004Z" fill="#850000"/>
<path d="M176.7 61.9004H174.9V63.6004H176.7V61.9004Z" fill="#850000"/>
<path d="M176.7 63.6992H174.9V65.3992H176.7V63.6992Z" fill="#850000"/>
<path d="M178.5 63.6992H176.7V65.3992H178.5V63.6992Z" fill="#850000"/>
<path d="M180.3 61.9004H178.5V63.6004H180.3V61.9004Z" fill="#850000"/>
<path d="M182.1 61.9004H180.3V63.6004H182.1V61.9004Z" fill="#850000"/>
<path d="M182.1 63.6992H180.3V65.3992H182.1V63.6992Z" fill="#850000"/>
<path d="M183.9 63.6992H182.1V65.3992H183.9V63.6992Z" fill="#850000"/>
<path d="M185.8 61.9004H184V63.6004H185.8V61.9004Z" fill="#850000"/>
<path d="M187.6 61.9004H185.8V63.6004H187.6V61.9004Z" fill="#850000"/>
<path d="M187.6 63.6992H185.8V65.3992H187.6V63.6992Z" fill="#850000"/>
<path d="M189.4 63.6992H187.6V65.3992H189.4V63.6992Z" fill="#850000"/>
<path d="M191.2 61.9004H189.4V63.6004H191.2V61.9004Z" fill="#850000"/>
<path d="M193.1 61.9004H191.3V63.6004H193.1V61.9004Z" fill="#850000"/>
<path d="M193.1 63.6992H191.3V65.3992H193.1V63.6992Z" fill="#850000"/>
<path d="M194.9 63.6992H193.1V65.3992H194.9V63.6992Z" fill="#850000"/>
<path d="M196.8 61.9004H195V63.6004H196.8V61.9004Z" fill="#850000"/>
<path d="M198.6 61.9004H196.8V63.6004H198.6V61.9004Z" fill="#850000"/>
<path d="M198.6 63.6992H196.8V65.3992H198.6V63.6992Z" fill="#850000"/>
<path d="M200.4 63.6992H198.6V65.3992H200.4V63.6992Z" fill="#850000"/>
<path d="M202.2 61.9004H200.4V63.6004H202.2V61.9004Z" fill="#850000"/>
<path d="M204 61.9004H202.2V63.6004H204V61.9004Z" fill="#850000"/>
<path d="M204 63.6992H202.2V65.3992H204V63.6992Z" fill="#850000"/>
<path d="M205.9 63.6992H204V65.3992H205.8V63.6992H205.9Z" fill="#850000"/>
<path d="M207.7 61.9004H205.9V63.6004H207.7V61.9004Z" fill="#850000"/>
<path d="M209.5 61.9004H207.7V63.6004H209.5V61.9004Z" fill="#850000"/>
<path d="M209.5 63.6992C209.4 64.2992 209.2 64.8992 209 65.3992H207.6V63.6992H209.5Z" fill="#850000"/>
<path d="M200.7 129.6C200.7 130.1 200.6 130.5 200.6 131C200.6 131.1 200.6 131.2 200.6 131.2C200.4 134.1 199.6 136.5 198.2 138.1C186 142.2 128.2 139.9 130.2 132.7C130.3 132.2 130.5 131.8 130.7 131.3C130.9 130.8 131.2 130.2 131.5 129.7C132 128.7 132.7 127.6 133.5 126.4C133.6 126.3 133.6 126.3 133.6 126.2C134.5 124.8 135.7 123.3 136.8 121.8L137 121.4C137.5 120.8 137.9 120.3 138.4 119.7C138.8 119.2 139.2 118.6 139.7 118.2C139.8 118.1 139.9 117.9 140.1 117.8C140.5 117.4 140.8 117 141.2 116.6C141.4 116.4 141.6 116.1 141.8 115.9C142.1 115.6 142.3 115.3 142.6 115C142.9 114.7 143.1 114.4 143.4 114.1L144 113.4C153.9 102.3 165.4 91.4004 165.4 91.4004C180.1 96.6004 185.9 93.1004 189.9 93.6004C191.8 93.8004 195.5 102.2 198.1 111.8C198.2 112.3 198.4 112.9 198.5 113.4C198.6 113.9 198.8 114.5 198.9 115C198.9 115.1 198.9 115.1 199 115.2C199.1 115.7 199.2 116.1 199.3 116.7C199.4 117.2 199.5 117.8 199.6 118.3C199.8 119.4 200 120.5 200.1 121.5C200.2 122 200.3 122.6 200.3 123.1C200.4 123.6 200.4 124.2 200.5 124.7L200.6 125.8C200.6 126 200.6 126.2 200.6 126.3C200.6 126.8 200.7 127.4 200.7 127.9C200.7 128.5 200.7 129.1 200.7 129.6Z" fill="#F2E4D7"/>
<path d="M192.5 134.5H190.9V136.1H192.5V134.5Z" fill="#490000"/>
<path d="M137 134.5H135.4V136.1H137V134.5Z" fill="#490000"/>
<path d="M146.8 134.5H145.2V136.1H146.8V134.5Z" fill="#490000"/>
<path d="M141.9 134.5H140.3V136.1H141.9V134.5Z" fill="#850000"/>
<path d="M140.3 132.9H138.7V134.5H140.3V132.9Z" fill="#850000"/>
<path d="M138.6 129.6H137V131.2H138.6V129.6Z" fill="#490000"/>
<path d="M137 129.6H135.4V131.2H137V129.6Z" fill="#490000"/>
<path d="M135.4 129.6H133.8V131.2H135.4V129.6Z" fill="#490000"/>
<path d="M138.6 127.9H137V129.5H138.6V127.9Z" fill="#490000"/>
<path d="M135.4 127.9H133.8V129.5H135.4V127.9Z" fill="#490000"/>
<path d="M138.6 126.301H137V127.901H138.6V126.301Z" fill="#490000"/>
<path d="M138.6 124.699H137V126.299H138.6V124.699Z" fill="#490000"/>
<path d="M138.6 123.1H137V124.7H138.6V123.1Z" fill="#490000"/>
<path d="M137.3 121.4H138.7V123H137V121.7L137.3 121.4Z" fill="#490000"/>
<path d="M141.9 124.699H140.3V126.299H141.9V124.699Z" fill="#490000"/>
<path d="M141.9 123.1H140.3V124.7H141.9V123.1Z" fill="#490000"/>
<path d="M141.9 121.4H140.3V123H141.9V121.4Z" fill="#490000"/>
<path d="M141.9 129.6H140.3V131.2H141.9V129.6Z" fill="#490000"/>
<path d="M141.9 127.9H140.3V129.5H141.9V127.9Z" fill="#490000"/>
<path d="M141.9 126.301H140.3V127.901H141.9V126.301Z" fill="#490000"/>
<path d="M132.1 129.6V131.2H130.8C131 130.7 131.3 130.1 131.6 129.6H132.1Z" fill="#490000"/>
<path d="M133.8 129.6H132.2V131.2H133.8V129.6Z" fill="#490000"/>
<path d="M137 126.301H135.4V127.901H137V126.301Z" fill="#490000"/>
<path d="M135.4 126.301H133.8V127.901H135.4V126.301Z" fill="#490000"/>
<path d="M133.8 126.199V126.399H133.7C133.7 126.299 133.7 126.199 133.8 126.199Z" fill="#490000"/>
<path d="M143.6 132.9H142V134.5H143.6V132.9Z" fill="#850000"/>
<path d="M145.2 129.6H143.6V131.2H145.2V129.6Z" fill="#490000"/>
<path d="M146.8 129.6H145.2V131.2H146.8V129.6Z" fill="#490000"/>
<path d="M148.4 129.6H146.8V131.2H148.4V129.6Z" fill="#490000"/>
<path d="M145.2 127.9H143.6V129.5H145.2V127.9Z" fill="#490000"/>
<path d="M148.4 127.9H146.8V129.5H148.4V127.9Z" fill="#490000"/>
<path d="M145.2 126.301H143.6V127.901H145.2V126.301Z" fill="#490000"/>
<path d="M145.2 124.699H143.6V126.299H145.2V124.699Z" fill="#490000"/>
<path d="M145.2 123.1H143.6V124.7H145.2V123.1Z" fill="#490000"/>
<path d="M145.2 121.4H143.6V123H145.2V121.4Z" fill="#490000"/>
<path d="M151.7 129.6H150.1V131.2H151.7V129.6Z" fill="#490000"/>
<path d="M153.3 129.6H151.7V131.2H153.3V129.6Z" fill="#490000"/>
<path d="M150.1 129.6H148.5V131.2H150.1V129.6Z" fill="#490000"/>
<path d="M146.8 126.301H145.2V127.901H146.8V126.301Z" fill="#490000"/>
<path d="M148.4 126.301H146.8V127.901H148.4V126.301Z" fill="#490000"/>
<path d="M150.1 124.699H148.5V126.299H150.1V124.699Z" fill="#490000"/>
<path d="M151.7 123.1H150.1V124.7H151.7V123.1Z" fill="#490000"/>
<path d="M151.7 121.4H150.1V123H151.7V121.4Z" fill="#490000"/>
<path d="M151.7 119.801H150.1V121.401H151.7V119.801Z" fill="#490000"/>
<path d="M151.7 118.199H150.1V119.799H151.7V118.199Z" fill="#490000"/>
<path d="M153.3 123.1H151.7V124.7H153.3V123.1Z" fill="#490000"/>
<path d="M155 123.1H153.4V124.7H155V123.1Z" fill="#490000"/>
<path d="M156.6 123.1H155V124.7H156.6V123.1Z" fill="#490000"/>
<path d="M153.3 121.4H151.7V123H153.3V121.4Z" fill="#490000"/>
<path d="M153.3 119.801H151.7V121.401H153.3V119.801Z" fill="#490000"/>
<path d="M155 121.4H153.4V123H155V121.4Z" fill="#490000"/>
<path d="M197.4 134.5H195.8V136.1H197.4V134.5Z" fill="#850000"/>
<path d="M195.8 132.9H194.2V134.5H195.8V132.9Z" fill="#850000"/>
<path d="M194.2 129.6H192.6V131.2H194.2V129.6Z" fill="#490000"/>
<path d="M192.5 129.6H190.9V131.2H192.5V129.6Z" fill="#490000"/>
<path d="M190.9 129.6H189.3V131.2H190.9V129.6Z" fill="#490000"/>
<path d="M194.2 127.9H192.6V129.5H194.2V127.9Z" fill="#490000"/>
<path d="M190.9 127.9H189.3V129.5H190.9V127.9Z" fill="#490000"/>
<path d="M194.2 126.301H192.6V127.901H194.2V126.301Z" fill="#490000"/>
<path d="M194.2 124.699H192.6V126.299H194.2V124.699Z" fill="#490000"/>
<path d="M194.2 123.1H192.6V124.7H194.2V123.1Z" fill="#490000"/>
<path d="M194.2 121.4H192.6V123H194.2V121.4Z" fill="#490000"/>
<path d="M187.6 129.6H186V131.2H187.6V129.6Z" fill="#490000"/>
<path d="M186 129.6H184.4V131.2H186V129.6Z" fill="#490000"/>
<path d="M189.3 129.6H187.7V131.2H189.3V129.6Z" fill="#490000"/>
<path d="M192.5 126.301H190.9V127.901H192.5V126.301Z" fill="#490000"/>
<path d="M190.9 126.301H189.3V127.901H190.9V126.301Z" fill="#490000"/>
<path d="M189.3 124.699H187.7V126.299H189.3V124.699Z" fill="#490000"/>
<path d="M187.6 123.1H186V124.7H187.6V123.1Z" fill="#490000"/>
<path d="M187.6 121.4H186V123H187.6V121.4Z" fill="#490000"/>
<path d="M187.6 119.801H186V121.401H187.6V119.801Z" fill="#490000"/>
<path d="M187.6 118.199H186V119.799H187.6V118.199Z" fill="#490000"/>
<path d="M186 123.1H184.4V124.7H186V123.1Z" fill="#490000"/>
<path d="M184.4 123.1H182.8V124.7H184.4V123.1Z" fill="#490000"/>
<path d="M182.7 123.1H181.1V124.7H182.7V123.1Z" fill="#490000"/>
<path d="M186 121.4H184.4V123H186V121.4Z" fill="#490000"/>
<path d="M186 119.801H184.4V121.401H186V119.801Z" fill="#490000"/>
<path d="M184.4 121.4H182.8V123H184.4V121.4Z" fill="#490000"/>
<path d="M199 132.9H197.4V134.5H199V132.9Z" fill="#850000"/>
<path d="M200.7 129.6H199V131.2H200.6V129.6H200.7Z" fill="#490000"/>
<path d="M200.7 129.6C200.7 130.1 200.6 130.5 200.6 131L200.7 129.6Z" fill="#490000"/>
<path d="M200.7 127.9H199V129.5H200.6V127.9H200.7Z" fill="#490000"/>
<path d="M200.7 126.301H199V127.901H200.6V126.301H200.7Z" fill="#490000"/>
<path d="M200.6 124.699H199V126.299H200.6V125.799V124.699Z" fill="#490000"/>
<path d="M200.6 124.7H199V123.1H200.4C200.5 123.6 200.5 124.2 200.6 124.7Z" fill="#490000"/>
<path d="M200.4 123.1H199V121.5H200.2C200.3 122 200.3 122.5 200.4 123.1Z" fill="#490000"/>
<path d="M200.7 127.901H200.6V126.301C200.7 126.901 200.7 127.401 200.7 127.901Z" fill="#490000"/>
<path d="M155 116.6H153.4V118.2H155V116.6Z" fill="#850000"/>
<path d="M158.3 119.801H156.7V121.401H158.3V119.801Z" fill="#850000"/>
<path d="M158.3 116.6H156.7V118.2H158.3V116.6Z" fill="#850000"/>
<path d="M181.1 119.801H179.5V121.401H181.1V119.801Z" fill="#850000"/>
<path d="M184.4 116.6H182.8V118.2H184.4V116.6Z" fill="#850000"/>
<path d="M181.1 116.6H179.5V118.2H181.1V116.6Z" fill="#850000"/>
<path d="M169.7 113.301H168V114.901H169.6V113.301H169.7Z" fill="#850000"/>
<path d="M166.4 132.9H164.8V134.5H166.4V132.9Z" fill="#490000"/>
<path d="M168 134.5H166.4V136.1H168V134.5Z" fill="#850000"/>
<path d="M169.7 136.1H168V137.7H169.6V136.1H169.7Z" fill="#850000"/>
<path d="M171.3 134.5H169.7V136.1H171.3V134.5Z" fill="#850000"/>
<path d="M164.8 132.9H163.2V134.5H164.8V132.9Z" fill="#490000"/>
<path d="M163.1 132.9H161.5V134.5H163.1V132.9Z" fill="#490000"/>
<path d="M168 127.9H166.4V129.5H168V127.9Z" fill="#490000"/>
<path d="M168 129.6H166.4V131.2H168V129.6Z" fill="#490000"/>
<path d="M168 131.199H166.4V132.799H168V131.199Z" fill="#490000"/>
<path d="M169.7 132.9H168V134.5H169.6V132.9H169.7Z" fill="#850000"/>
<path d="M166.4 126.301H164.8V127.901H166.4V126.301Z" fill="#490000"/>
<path d="M166.4 127.9H164.8V129.5H166.4V127.9Z" fill="#490000"/>
<path d="M166.4 129.6H164.8V131.2H166.4V129.6Z" fill="#490000"/>
<path d="M164.8 124.699H163.2V126.299H164.8V124.699Z" fill="#490000"/>
<path d="M164.8 126.301H163.2V127.901H164.8V126.301Z" fill="#490000"/>
<path d="M164.8 127.9H163.2V129.5H164.8V127.9Z" fill="#490000"/>
<path d="M163.1 123.1H161.5V124.7H163.1V123.1Z" fill="#490000"/>
<path d="M163.1 124.699H161.5V126.299H163.1V124.699Z" fill="#490000"/>
<path d="M163.1 126.301H161.5V127.901H163.1V126.301Z" fill="#490000"/>
<path d="M161.5 121.4H159.9V123H161.5V121.4Z" fill="#490000"/>
<path d="M161.5 123.1H159.9V124.7H161.5V123.1Z" fill="#490000"/>
<path d="M161.5 124.699H159.9V126.299H161.5V124.699Z" fill="#490000"/>
<path d="M164.8 131.199H163.2V132.799H164.8V131.199Z" fill="#490000"/>
<path d="M163.1 131.199H161.5V132.799H163.1V131.199Z" fill="#490000"/>
<path d="M161.5 131.199H159.9V132.799H161.5V131.199Z" fill="#490000"/>
<path d="M163.1 129.6H161.5V131.2H163.1V129.6Z" fill="#490000"/>
<path d="M161.5 129.6H159.9V131.2H161.5V129.6Z" fill="#490000"/>
<path d="M159.9 129.6H158.3V131.2H159.9V129.6Z" fill="#490000"/>
<path d="M161.5 127.9H159.9V129.5H161.5V127.9Z" fill="#490000"/>
<path d="M159.9 127.9H158.3V129.5H159.9V127.9Z" fill="#490000"/>
<path d="M158.3 127.9H156.7V129.5H158.3V127.9Z" fill="#490000"/>
<path d="M159.9 126.301H158.3V127.901H159.9V126.301Z" fill="#490000"/>
<path d="M158.3 126.301H156.7V127.901H158.3V126.301Z" fill="#490000"/>
<path d="M156.6 126.301H155V127.901H156.6V126.301Z" fill="#490000"/>
<path d="M173 132.9H171.4V134.5H173V132.9Z" fill="#490000"/>
<path d="M174.6 132.9H173V134.5H174.6V132.9Z" fill="#490000"/>
<path d="M176.2 132.9H174.6V134.5H176.2V132.9Z" fill="#490000"/>
<path d="M171.3 127.9H169.7V129.5H171.3V127.9Z" fill="#490000"/>
<path d="M171.3 129.6H169.7V131.2H171.3V129.6Z" fill="#490000"/>
<path d="M171.3 131.199H169.7V132.799H171.3V131.199Z" fill="#490000"/>
<path d="M173 126.301H171.4V127.901H173V126.301Z" fill="#490000"/>
<path d="M173 127.9H171.4V129.5H173V127.9Z" fill="#490000"/>
<path d="M173 129.6H171.4V131.2H173V129.6Z" fill="#490000"/>
<path d="M174.6 124.699H173V126.299H174.6V124.699Z" fill="#490000"/>
<path d="M174.6 126.301H173V127.901H174.6V126.301Z" fill="#490000"/>
<path d="M174.6 127.9H173V129.5H174.6V127.9Z" fill="#490000"/>
<path d="M176.2 123.1H174.6V124.7H176.2V123.1Z" fill="#490000"/>
<path d="M176.2 124.699H174.6V126.299H176.2V124.699Z" fill="#490000"/>
<path d="M176.2 126.301H174.6V127.901H176.2V126.301Z" fill="#490000"/>
<path d="M177.8 121.4H176.2V123H177.8V121.4Z" fill="#490000"/>
<path d="M177.8 123.1H176.2V124.7H177.8V123.1Z" fill="#490000"/>
<path d="M177.8 124.699H176.2V126.299H177.8V124.699Z" fill="#490000"/>
<path d="M168 119.801H166.4V121.401H168V119.801Z" fill="#490000"/>
<path d="M168 121.4H166.4V123H168V121.4Z" fill="#490000"/>
<path d="M168 123.1H166.4V124.7H168V123.1Z" fill="#490000"/>
<path d="M171.3 119.801H169.7V121.401H171.3V119.801Z" fill="#490000"/>
<path d="M171.3 121.4H169.7V123H171.3V121.4Z" fill="#490000"/>
<path d="M171.3 123.1H169.7V124.7H171.3V123.1Z" fill="#490000"/>
<path d="M173 118.199H171.4V119.799H173V118.199Z" fill="#490000"/>
<path d="M173 119.801H171.4V121.401H173V119.801Z" fill="#490000"/>
<path d="M173 121.4H171.4V123H173V121.4Z" fill="#490000"/>
<path d="M174.6 116.6H173V118.2H174.6V116.6Z" fill="#490000"/>
<path d="M169.7 110H168V111.6H169.6V110H169.7Z" fill="#490000"/>
<path d="M169.7 111.6H168V113.2H169.6V111.6H169.7Z" fill="#490000"/>
<path d="M169.7 114.9H168V116.5H169.6V114.9H169.7Z" fill="#490000"/>
<path d="M171.3 111.6H169.7V113.2H171.3V111.6Z" fill="#490000"/>
<path d="M171.3 113.301H169.7V114.901H171.3V113.301Z" fill="#490000"/>
<path d="M171.3 114.9H169.7V116.5H171.3V114.9Z" fill="#490000"/>
<path d="M168 111.6H166.4V113.2H168V111.6Z" fill="#490000"/>
<path d="M168 113.301H166.4V114.901H168V113.301Z" fill="#490000"/>
<path d="M168 114.9H166.4V116.5H168V114.9Z" fill="#490000"/>
<path d="M169.7 116.6H168V118.2H169.6V116.6H169.7Z" fill="#490000"/>
<path d="M176.2 116.6H174.6V118.2H176.2V116.6Z" fill="#490000"/>
<path d="M174.6 118.199H173V119.799H174.6V118.199Z" fill="#490000"/>
<path d="M166.4 118.199H164.8V119.799H166.4V118.199Z" fill="#490000"/>
<path d="M166.4 119.801H164.8V121.401H166.4V119.801Z" fill="#490000"/>
<path d="M166.4 121.4H164.8V123H166.4V121.4Z" fill="#490000"/>
<path d="M164.8 116.6H163.2V118.2H164.8V116.6Z" fill="#490000"/>
<path d="M163.1 116.6H161.5V118.2H163.1V116.6Z" fill="#490000"/>
<path d="M164.8 118.199H163.2V119.799H164.8V118.199Z" fill="#490000"/>
<path d="M174.6 131.199H173V132.799H174.6V131.199Z" fill="#490000"/>
<path d="M176.2 131.199H174.6V132.799H176.2V131.199Z" fill="#490000"/>
<path d="M177.8 131.199H176.2V132.799H177.8V131.199Z" fill="#490000"/>
<path d="M176.2 129.6H174.6V131.2H176.2V129.6Z" fill="#490000"/>
<path d="M177.8 129.6H176.2V131.2H177.8V129.6Z" fill="#490000"/>
<path d="M179.5 129.6H177.9V131.2H179.5V129.6Z" fill="#490000"/>
<path d="M177.8 127.9H176.2V129.5H177.8V127.9Z" fill="#490000"/>
<path d="M179.5 127.9H177.9V129.5H179.5V127.9Z" fill="#490000"/>
<path d="M181.1 127.9H179.5V129.5H181.1V127.9Z" fill="#490000"/>
<path d="M179.5 126.301H177.9V127.901H179.5V126.301Z" fill="#490000"/>
<path d="M181.1 126.301H179.5V127.901H181.1V126.301Z" fill="#490000"/>
<path d="M182.7 126.301H181.1V127.901H182.7V126.301Z" fill="#490000"/>
<path d="M141.9 118.199H140.3V119.799H141.9V118.199Z" fill="#850000"/>
<path d="M141.9 119.801H140.3V121.401H141.9V119.801Z" fill="#850000"/>
<path d="M141.9 115.801V116.501H141.3C141.5 116.301 141.7 116.101 141.9 115.801Z" fill="#490000"/>
<path d="M143.5 114.001V114.901H145.1V113.301H144.1L143.5 114.001Z" fill="#850000"/>
<path d="M145.2 116.6H143.6V118.2H145.2V116.6Z" fill="#850000"/>
<path d="M146.8 114.9H145.2V116.5H146.8V114.9Z" fill="#850000"/>
<path d="M169.7 126.301H168V127.901H169.6V126.301H169.7Z" fill="#490000"/>
<path d="M169.7 124.699H168V126.299H169.6V124.699H169.7Z" fill="#490000"/>
<path d="M140.3 118.199V119.799H138.7V119.699C139.1 119.199 139.5 118.599 140 118.199H140.3Z" fill="#850000"/>
<path d="M143.6 118.199H142V119.799H143.6V118.199Z" fill="#850000"/>
<path d="M143.5 114V114.9H142.7C143 114.6 143.3 114.3 143.5 114Z" fill="#850000"/>
<path d="M145.2 114.9H143.6V116.5H145.2V114.9Z" fill="#850000"/>
<path d="M143.6 116.6H142V118.2H143.6V116.6Z" fill="#850000"/>
<path d="M140.3 117.801V118.201H139.9C140 118.001 140.2 117.901 140.3 117.801Z" fill="#850000"/>
<path d="M197.4 124.699H195.8V126.299H197.4V124.699Z" fill="#490000"/>
<path d="M197.4 123.1H195.8V124.7H197.4V123.1Z" fill="#490000"/>
<path d="M197.4 121.4H195.8V123H197.4V121.4Z" fill="#490000"/>
<path d="M197.4 129.6H195.8V131.2H197.4V129.6Z" fill="#490000"/>
<path d="M197.4 127.9H195.8V129.5H197.4V127.9Z" fill="#490000"/>
<path d="M197.4 126.301H195.8V127.901H197.4V126.301Z" fill="#490000"/>
<path d="M197.4 118.199H195.8V119.799H197.4V118.199Z" fill="#850000"/>
<path d="M197.4 119.801H195.8V121.401H197.4V119.801Z" fill="#850000"/>
<path d="M197.4 114.9H195.8V116.5H197.4V114.9Z" fill="#490000"/>
<path d="M197.4 111.6H195.8V113.2H197.4V111.6Z" fill="#850000"/>
<path d="M198.6 113.299H197.4V111.699H198.2C198.3 112.199 198.5 112.699 198.6 113.299Z" fill="#850000"/>
<path d="M199.7 118.2H199V116.6H199.3C199.5 117.1 199.6 117.6 199.7 118.2Z" fill="#850000"/>
<path d="M197.4 110H195.8V111.6H197.4V110Z" fill="#850000"/>
<path d="M195.8 111.6H194.2V113.2H195.8V111.6Z" fill="#850000"/>
<path d="M194.2 113.301H192.6V114.901H194.2V113.301Z" fill="#850000"/>
<path d="M192.5 114.9H190.9V116.5H192.5V114.9Z" fill="#850000"/>
<path d="M194.2 116.6H192.6V118.2H194.2V116.6Z" fill="#850000"/>
<path d="M195.8 118.199H194.2V119.799H195.8V118.199Z" fill="#850000"/>
<path d="M199 118.199H197.4V119.799H199V118.199Z" fill="#850000"/>
<path d="M199 114.901H197.4V113.301H198.6C198.7 113.901 198.9 114.401 199 114.901Z" fill="#850000"/>
<path d="M199.3 116.6H199V115.1C199.2 115.6 199.3 116.1 199.3 116.6Z" fill="#850000"/>
<path d="M199 116.6H197.4V118.2H199V116.6Z" fill="#850000"/>
<path d="M195.8 113.301H194.2V114.901H195.8V113.301Z" fill="#850000"/>
<path d="M194.2 114.9H192.6V116.5H194.2V114.9Z" fill="#850000"/>
<path d="M195.8 116.6H194.2V118.2H195.8V116.6Z" fill="#850000"/>
<path d="M168.4 49C168.4 49 170.2 51.3 167.2 56.4C167.2 56.4 163.9 62.3 164.1 66.4L163.8 70.1L169.2 56.9C169.3 56.9 169.9 50.8 169.9 50.8L169.7 50.6L168.4 49Z" fill="#ED1C24"/>
<path d="M164.601 63.9996L167.901 57.7996L169.501 54.4996L169.801 53.0996L167.701 55.5996C167.701 55.5996 164.701 61.4996 164.601 63.9996Z" fill="#F04A23"/>
<path d="M170.6 51.5C170.6 51.5 170.2 56.7 168.8 60.5C166.7 66.4 166.9 66.3 166.3 67.8C165.7 69.1 163.6 72.6 163.8 74C164.1 75.4 163 78.3 163.2 79.8C163.6 81.8 164.9 83.2 163.8 87.3C162.7 91.4 162.5 91.2 164 93.6C165.5 96 167.4 95.8 167.4 95.8C167.4 95.8 166 93.8 165.9 91.7C165.6 88.2 168.1 87.2 166.7 84.2C165.3 81.2 165.3 77.9 165.4 76C165.5 74.1 168.2 69.1 169.2 65.7C170.1 62.3 171.2 58.9 171.4 57.5C171.6 56.1 170.8 51.6 170.8 51.6L170.6 51.5Z" fill="#FFF200"/>
<path d="M163.1 86.9C163.1 86.9 163.8 84.2 162.3 80C162.3 80 161.6 77.3 163.3 74.1L167.4 63.9C167.4 63.9 169.6 58.8 170.1 56.6C170.1 56.6 170.3 54.6 170.2 51.2L169.5 50.5C169.5 50.5 170.4 53.7 166.5 60.5C166.5 60.5 164.4 64.9 163.3 67.7V67.8C162.2 70.6 160.5 75.1 160.3 78C160.3 78 160.1 79.6 161.4 81.1C161.3 81.2 163.5 84.6 163.1 86.9Z" fill="#1A7B30"/>
<path d="M52.6001 38.0996C52.6001 38.0996 51.1001 38.1996 50.0001 40.1996C49.5001 41.1996 49.1001 42.9996 50.5001 48.0996C51.0001 50.0996 51.9001 51.9996 53.0001 53.6996C53.3001 54.2996 53.8001 54.6996 54.5001 54.8996L54.4001 50.9996L54.3001 48.2996C54.3001 48.2996 56.5001 46.2996 56.7001 44.2996C56.9001 42.8996 56.6001 41.4996 56.0001 40.2996L52.6001 38.0996Z" fill="#37474F"/>
<path d="M52 38.1998C52.4 35.9998 55.2 33.3998 60.6 33.0998C65 32.8998 67.6 34.3998 69.2 36.9998C70.7 39.5998 69.7 42.8998 69.7 42.8998L55.8 41.9998L52 38.1998Z" fill="#37474F"/>
<path d="M50.7998 52.0993C52.7998 53.0993 53.7998 51.4993 53.7998 51.4993L54.0998 59.5993C57.9998 64.7993 68.4998 62.8993 64.1998 58.9993V57.1993C64.7998 57.1993 65.3998 57.0993 65.9998 56.9993C67.7998 56.6993 68.8998 55.2993 69.4998 53.2993C70.4998 49.1993 70.4998 44.9993 69.4998 40.8993C69.2998 39.9993 68.8998 38.8993 67.9998 38.4993C65.7998 37.3993 63.7998 38.9993 60.7998 40.1993C59.5998 40.6993 56.4998 40.8993 55.6998 40.4993C56.7998 41.6993 56.6998 45.2993 55.1998 46.7993C54.9998 47.1993 54.6998 47.4993 54.3998 47.7993C53.6998 48.3993 53.1998 46.8993 52.5998 46.2993C52.2998 46.0993 51.9998 45.8993 51.6998 45.7993C51.3998 45.6993 50.9998 45.6993 50.6998 45.7993C50.3998 45.8993 49.9998 45.9993 49.7998 46.2993C49.4998 46.4993 49.2998 46.7993 49.1998 47.0993C48.9998 47.4993 48.8998 47.9993 48.7998 48.4993C48.7998 48.9993 48.7998 49.4993 48.9998 49.8993C49.1998 50.3993 49.3998 50.7993 49.6998 51.1993C49.8998 51.5993 50.2998 51.8993 50.7998 52.0993Z" fill="#FFA8A7"/>
<path d="M64.1002 57.1004C62.1002 57.2004 60.1002 56.9004 58.2002 56.2004C56.8002 55.6004 55.6002 53.7004 55.2002 51.9004C55.2002 53.4004 55.9002 56.1004 58.0002 57.2004C60.1002 58.3004 62.6002 58.4004 64.1002 58.4004V57.1004Z" fill="#F28F8F"/>
<path d="M55.9998 45.1992C55.3998 46.2992 56.0998 49.7992 57.0998 50.1992C58.0998 50.5992 59.1998 49.8992 61.5998 49.7992C63.3998 49.6992 65.0998 49.7992 66.8998 50.1992C67.9998 50.4992 69.8998 50.9992 69.9998 49.8992C69.8998 52.4992 69.3998 55.4992 67.4998 56.4992C65.5998 57.4992 60.6998 57.6992 58.0998 56.3992C55.5998 55.0992 55.0998 53.5992 54.5998 51.4992C54.2998 49.9992 53.7998 48.5992 53.2998 47.1992L55.9998 45.1992Z" fill="#37474F"/>
<path d="M60.7 43.1004L58.7 43.9004C58.6 43.6004 58.6 43.3004 58.7 43.1004C58.8 42.8004 59 42.6004 59.3 42.5004C59.4 42.4004 59.6 42.4004 59.7 42.4004C59.8 42.4004 60 42.4004 60.1 42.5004C60.2 42.6004 60.3 42.6004 60.4 42.7004C60.6 42.9004 60.6 43.0004 60.7 43.1004Z" fill="#37474F"/>
<path d="M68.1996 43.0996L66.0996 42.2996C66.0996 42.1996 66.1996 41.9996 66.2996 41.8996C66.3996 41.7996 66.4996 41.6996 66.5996 41.6996C66.6996 41.5996 66.8996 41.5996 66.9996 41.5996C67.0996 41.5996 67.2996 41.5996 67.3996 41.6996C67.6996 41.7996 67.8996 41.9996 67.9996 42.2996C68.1996 42.4996 68.2996 42.7996 68.1996 43.0996Z" fill="#37474F"/>
<path d="M59.5 45.5996C59.5 45.7996 59.6 45.8996 59.7 46.0996C59.8 46.1996 59.9 46.3996 60.1 46.3996C60.3 46.4996 60.4 46.4996 60.6 46.3996C60.8 46.3996 60.9 46.2996 61 46.0996C61.1 45.9996 61.2 45.7996 61.2 45.5996C61.2 45.3996 61.2 45.1996 61.1 45.0996C61 44.8996 60.9 44.7996 60.8 44.6996C60.7 44.5996 60.5 44.5996 60.3 44.5996C60.1 44.5996 59.8 44.6996 59.7 44.8996C59.5 45.1996 59.5 45.3996 59.5 45.5996Z" fill="#263238"/>
<path d="M66.4998 45.3008C66.4998 45.5008 66.5998 45.6008 66.6998 45.8008C66.7998 45.9008 66.8998 46.1008 67.0998 46.1008C67.2998 46.2008 67.3998 46.2008 67.5998 46.1008C67.7998 46.1008 67.8998 46.0008 67.9998 45.8008C68.0998 45.7008 68.1998 45.5008 68.1998 45.3008C68.1998 45.1008 68.1998 44.9008 68.0998 44.8008C67.9998 44.6008 67.8998 44.5008 67.7998 44.4008C67.5998 44.3008 67.4998 44.3008 67.2998 44.3008C67.1998 44.3008 67.0998 44.3008 66.9998 44.4008C66.8998 44.4008 66.7998 44.5008 66.6998 44.6008C66.5998 44.7008 66.5998 44.8008 66.4998 44.9008C66.3998 45.0008 66.3998 45.2008 66.4998 45.3008Z" fill="#263238"/>
<path d="M63.0996 43.6992L63.7996 49.2992L66.7996 48.1992C65.9996 46.3992 64.6996 44.8992 63.0996 43.6992Z" fill="#F28F8F"/>
<path d="M61.9002 50.6992L64.2002 51.4992C64.2002 51.6992 64.1002 51.7992 64.0002 51.8992C63.9002 51.9992 63.8002 52.0992 63.6002 52.1992C63.5002 52.2992 63.3002 52.2992 63.1002 52.2992C62.9002 52.2992 62.8002 52.2992 62.6002 52.1992C62.3002 52.0992 62.0002 51.8992 61.9002 51.5992C61.8002 51.2992 61.8002 50.9992 61.9002 50.6992Z" fill="#B16668"/>
<path d="M62.2004 51.0996C62.1004 51.0996 62.0004 51.0996 61.9004 51.0996C61.9004 51.2996 61.9004 51.3996 62.0004 51.5996C62.1004 51.6996 62.1004 51.8996 62.3004 51.9996C62.4004 52.0996 62.5004 52.1996 62.7004 52.2996C62.8004 52.3996 63.0004 52.3996 63.2004 52.3996C63.2004 52.0996 63.2004 51.7996 63.0004 51.5996C62.7004 51.2996 62.4004 51.1996 62.2004 51.0996Z" fill="#F28F8F"/>
<path d="M182.9 29.1995C181.9 29.7995 182.3 31.6995 182.3 32.6995C182.2 34.2995 182.1 36.0995 182 37.6995C181.7 40.8995 181.2 44.2995 180.7 47.5995C180.3 49.8995 179.7 52.2995 179.7 54.6995C179.6 55.7995 179.7 56.9995 180.4 57.9995C180.9 58.7995 181.7 59.1995 182.5 59.6995C186 61.6995 190 62.9995 193.6 64.5995C195.3 65.3995 197 66.0995 198.5 64.5995C199.4 63.5995 199.6 61.9995 199.3 60.6995C199.2 59.9995 198.8 59.3995 199.1 58.7995C199.4 58.1995 200.1 57.8995 200.6 57.3995C201.9 56.3995 202.4 54.6995 202.1 53.0995C201.8 51.5995 200.9 50.1995 199.8 49.0995C199.2 48.3995 198.2 47.6995 198.1 46.6995C198 45.5995 198.8 44.5995 199.1 43.6995C199.7 42.2995 199.5 40.5995 198.7 39.2995C197.8 37.6995 196.2 36.7995 194.8 35.8995C192.5 34.3995 191.3 31.8995 189.1 30.2995C188.8 30.0995 188.5 29.8995 188.1 29.6995C186.4 28.5995 184.5 28.2995 182.9 29.1995Z" fill="#42353B"/>
<path d="M163.5 44.3992C163.5 44.2992 163.6 44.1992 163.8 44.0992C164.4 43.3992 165 42.9992 165.4 42.2992C166.1 41.2992 166.1 39.9992 166 38.7992C165.9 37.5992 165.7 36.4992 165.7 35.2992C165.8 34.2992 166.1 33.0992 166.7 32.0992C167.2 31.1992 167.9 30.2992 168.9 29.8992C170.4 29.3992 172 29.7992 173.5 29.5992C174.1 29.3992 174.6 29.2992 175.1 28.8992C175.5 28.5992 175.8 28.1992 176.2 27.8992C177 27.2992 178 27.2992 179 27.3992C180.2 27.4992 181.5 28.1992 182.4 29.0992H182.5C182.6 29.2992 182.7 29.4992 182.9 29.5992C183 29.5992 183 29.5992 183.1 29.6992C183.1 29.6992 183.2 29.7992 183.2 29.8992C183.4 30.2992 183.4 30.5992 183.4 30.8992C183.5 31.2992 183.4 31.7992 183.1 32.4992C183.1 32.5992 183 32.6992 183 32.7992C182.7 33.7992 182.4 34.7992 182.1 35.7992C182 36.1992 181.9 36.5992 181.8 36.9992C181.7 37.3992 181.6 37.7992 181.5 38.1992C181.4 38.6992 181.2 39.2992 181.2 39.8992C181.1 40.1992 181.1 40.4992 181.1 40.7992C180.9 41.3992 180.9 41.9992 180.8 42.6992C180.8 42.7992 180.8 42.7992 180.7 42.8992C180.6 43.7992 180.5 44.5992 180.4 45.3992C180.3 45.6992 180.2 45.9992 180.3 46.2992C180.2 47.2992 180 48.3992 179.8 49.3992C179.7 49.6992 179.7 49.8992 179.6 50.0992C179.5 50.4992 179.4 50.9992 179.2 51.2992C178.9 51.9992 178.6 52.6992 178.1 53.3992C178 53.5992 177.9 53.7992 177.8 53.8992C177.3 54.6992 176.6 55.3992 175.8 55.8992C175.5 56.0992 175.2 56.2992 174.8 56.1992C174.6 56.0992 174.5 56.0992 174.3 55.9992C174.1 55.8992 174 55.6992 173.7 55.3992C173.4 55.0992 173 54.7992 172.6 54.5992C172.1 54.3992 171.6 54.1992 171 54.1992C170.3 54.1992 169.5 54.2992 168.8 54.2992C168.8 54.3992 168.8 54.3992 168.7 54.3992C167.9 54.3992 167.1 54.1992 166.5 53.5992C166 53.0992 165.9 52.3992 165.5 51.7992C165.3 51.6992 165.2 51.3992 164.9 51.1992C164.3 50.5992 163.6 50.2992 163 49.7992C162.9 49.6992 162.8 49.6992 162.8 49.4992C162.4 48.9992 162.2 48.1992 162.2 47.4992C162.2 47.3992 162.2 47.1992 162.2 46.9992C162.4 46.1992 162.9 45.2992 163.5 44.3992Z" fill="#42353B"/>
<path d="M174.4 55.6988C174.4 55.6988 175.5 54.0988 176.4 52.5988C176.8 51.7988 177.2 51.0988 177.3 50.3988L179.9 49.2988L186.6 46.2988C186.6 46.2988 185.1 50.7988 185 53.5988C185 56.3988 185.5 56.9988 185.5 56.9988C185.5 56.9988 179.7 61.5988 176.2 59.5988C172.7 57.6988 174.4 55.6988 174.4 55.6988Z" fill="#FB9D89"/>
<path d="M177.3 50.3992L179.9 49.2992L184.8 48.6992C184.8 48.6992 180.7 54.3992 177.5 53.3992C177 53.2992 176.7 53.0992 176.3 52.7992C176.8 51.8992 177.2 51.0992 177.3 50.3992Z" fill="#FF7777"/>
<path opacity="0.35" d="M177.3 50.3992L179.9 49.2992L184.8 48.6992C184.8 48.6992 180.7 54.3992 177.5 53.3992C177 53.2992 176.7 53.0992 176.3 52.7992C176.8 51.8992 177.2 51.0992 177.3 50.3992Z" fill="#FF7777"/>
<path d="M182.7 30.1988C191.6 32.4988 188.7 42.8988 188.7 42.8988C188.7 42.8988 188 45.0988 186.2 47.6988C184.4 50.2988 180.8 52.3988 177.6 50.9988C176.2 50.3988 175.3 49.2988 174.6 48.0988C173.7 46.3988 173.4 44.6988 173.3 43.2988C173.3 42.8988 173.3 41.6988 173.3 40.8988C173.3 40.1988 173.4 39.7988 173.5 38.9988C173.6 38.5988 173.6 38.1988 173.7 37.7988C174.5 33.4988 176.8 28.5988 182.7 30.1988Z" fill="#FB9D89"/>
<path d="M183.5 30.1984C182.3 29.6984 180.9 29.3984 179.6 29.3984C178.7 29.3984 177.8 29.4984 177 29.8984C176.5 30.2984 176 30.6984 175.5 31.1984C174.1 32.6984 173.2 34.4984 172.7 36.5984C172.7 36.6984 172.6 36.7984 172.7 36.8984C172.7 37.0984 172.9 37.1984 173.2 36.9984C173.4 36.8984 173.5 36.6984 173.6 36.4984C174.4 35.1984 175.2 33.7984 176.2 32.8984C177.3 31.8984 178.8 31.1984 180.3 31.3984C180.9 31.4984 181.6 31.6984 182.3 31.6984C183 31.7984 184.8 30.5984 183.5 30.1984Z" fill="#42353B"/>
<path d="M186.8 41.199L186 44.299C186 44.299 185.8 44.899 188.3 45.699C190.8 46.499 192.4 40.799 190.9 39.199C189.3 37.599 186.8 41.199 186.8 41.199Z" fill="#FB9D89"/>
<path d="M182.8 43.5993C182.5 44.8993 183.2 46.1993 184.5 46.4993C185.2 46.6993 186 46.4993 186.5 46.0993C186.6 45.9993 186.8 45.8993 186.8 45.7993C187.1 45.3993 187.3 44.9993 187.5 44.5993C187.8 43.2993 187 42.0993 185.8 41.7993C184.5 41.4993 183.2 42.2993 182.8 43.5993Z" fill="#FB9489"/>
<path d="M180.601 37.1992C180.301 37.1992 179.701 37.2992 179.401 37.4992C178.901 38.0992 179.701 38.3992 180.101 38.3992C181.701 38.3992 183.201 38.4992 184.601 38.9992C184.601 38.5992 184.301 38.2992 183.901 38.0992C182.901 37.4992 181.801 37.1992 180.601 37.1992Z" fill="#42353B"/>
<path d="M177 46.6992C177.9 47.0992 179 46.6992 179 46.6992C179 46.6992 178.6 47.8992 178.3 47.8992C177.9 47.7992 177.3 48.1992 177 46.6992Z" fill="#B16668"/>
<path d="M189.9 35.3993C189.6 34.0993 189 32.8993 188.2 31.7993C187.5 30.8993 186.6 29.9993 185.5 29.5993C184.8 29.2993 183.8 29.2993 183.3 29.7993C182.8 30.2993 182.8 31.0993 182.9 31.8993C183.2 33.8993 184 35.8993 185.1 37.5993C185.9 38.7993 186.9 39.7993 187 41.1993C187 41.2993 187 41.4993 187.1 41.5993C187.1 41.7993 187.3 41.8993 187.5 41.7993C187.5 41.6993 187.6 41.5993 187.7 41.4993C188.7 39.5993 190.3 37.7993 189.9 35.3993Z" fill="#42353B"/>
<path d="M176.5 44.1992L178.8 44.3992L178.4 40.1992C177.4 41.3992 176.7 42.7992 176.5 44.1992Z" fill="#F28F8F"/>
<path d="M181.9 41.4996C182.287 41.4996 182.6 41.1862 182.6 40.7996C182.6 40.413 182.287 40.0996 181.9 40.0996C181.514 40.0996 181.2 40.413 181.2 40.7996C181.2 41.1862 181.514 41.4996 181.9 41.4996Z" fill="#42353B"/>
<path d="M172.9 38.0004C172.6 38.2004 172.4 38.5004 172.4 38.8004C173.5 38.5004 174.8 38.4004 176 38.4004C176.3 38.5004 177 38.2004 176.6 37.7004C176.5 37.5004 176 37.4004 175.6 37.4004C174.8 37.4004 173.8 37.6004 172.9 38.0004Z" fill="#42353B"/>
<path d="M174.7 41.9C175.087 41.9 175.4 41.5866 175.4 41.2C175.4 40.8134 175.087 40.5 174.7 40.5C174.313 40.5 174 40.8134 174 41.2C174 41.5866 174.313 41.9 174.7 41.9Z" fill="#42353B"/>
<path d="M185.7 78.0008C185.7 78.0008 186 76.9008 186.2 75.4008C186.2 75.4008 183 70.9008 182.4 67.3008C181.5 62.4008 181.8 59.4008 184 53.8008C186.2 48.2008 187.4 44.4008 187.9 36.8008L187.2 37.4008C187.2 37.4008 185.8 44.2008 184.5 48.4008C183.6 51.2008 181.7 53.5008 181.1 56.3008C180.6 58.6008 180.3 59.6008 180.2 61.9008C180 65.6008 179.6 67.5008 180.8 70.8008C181.9 74.0008 185.7 78.0008 185.7 78.0008Z" fill="#FFF200"/>
<path d="M188.9 37.0996C188.9 37.0996 188.6 38.6996 190 39.6996C190.8 38.4996 189.9 37.0996 188.9 37.0996Z" fill="#5E870F"/>
<path d="M189.3 37.1002C189.3 37.1002 190.8 37.9002 191.4 36.6002C190.6 36.1002 189.6 36.7002 189.3 37.1002Z" fill="#5E870F"/>
<path d="M190.1 33.1003C190 33.1003 189.5 33.3003 189.6 32.9003C189.6 32.8003 189.6 32.7003 189.6 32.6003C189.6 32.4003 189.4 32.3003 189.2 32.3003C189 32.3003 188.8 32.6003 188.7 32.8003C188.5 33.1003 188.4 33.3003 188.2 33.6003C188.4 33.2003 188.5 32.7003 188.4 32.2003C188.2 31.3003 187.4 32.4003 187.1 32.3003C186.8 32.2003 186.7 31.9003 186.3 32.0003C186.2 32.0003 186.1 32.2003 186.1 32.4003C185.9 33.0003 186.3 33.8003 186.6 34.3003C186.3 34.3003 186 34.3003 185.7 34.4003C185.4 34.6003 185.2 34.7003 185 35.0003C184.7 35.4003 184.8 35.8003 185.2 35.9003C185.3 35.9003 185.2 36.5003 185.3 36.6003C185.4 36.9003 185.6 37.0003 185.8 37.0003C186.2 37.0003 186.5 36.8003 186.7 36.5003C186.6 36.8003 186.6 37.1003 186.7 37.4003C186.9 37.8003 187.2 37.5003 187.4 37.2003C187.6 37.5003 187.9 38.0003 188.3 37.7003C188.5 37.6003 188.6 37.3003 188.6 37.1003C188.7 37.2003 188.7 37.3003 188.8 37.3003C189 37.5003 189.1 37.6003 189.3 37.6003C189.5 37.6003 189.5 37.3003 189.5 37.2003C189.5 37.0003 189.5 36.9003 189.5 36.7003C189.9 37.0003 190.3 36.5003 190.2 36.0003C190.1 35.5003 189.7 35.1003 189.3 34.9003C189.4 34.9003 189.5 34.8003 189.7 34.8003C189.9 34.7003 190.1 34.5003 190.2 34.2003C190.4 33.9003 190.6 33.1003 190.1 33.1003Z" fill="#C40306"/>
<path d="M190 34.2994C189.9 34.3994 189.8 34.4994 189.7 34.4994C189.4 34.5994 189.1 34.4994 188.9 34.5994C188.8 34.5994 188.8 34.7994 188.9 34.7994C189 34.7994 189.1 34.7994 189.2 34.7994C189.5 34.8994 189.7 34.9994 189.9 35.1994C190.1 35.3994 190.2 35.5994 190.3 35.8994C190.4 36.0994 190.2 36.2994 189.9 36.3994C189.8 36.3994 189.7 36.2994 189.6 36.1994C189.5 36.1994 189.5 36.3994 189.5 36.3994C189.5 36.5994 189.7 37.2994 189.3 37.0994C189 36.9994 188.7 36.2994 188.6 35.9994L188.5 35.7994V36.0994C188.5 36.2994 188.6 36.5994 188.5 36.5994C188.5 36.7994 188.6 37.2994 188.1 37.1994C187.9 37.1994 187.6 36.7994 187.6 36.5994C187.6 36.4994 187.5 36.5994 187.5 36.5994C187.3 36.9994 186.8 36.9994 186.8 36.3994C186.8 36.0994 186.9 35.8994 187 35.5994C187 35.5994 187 35.4994 187 35.5994C187 35.5994 187 35.5994 186.9 35.5994C186.6 36.0994 186.5 36.3994 185.9 36.3994C185.5 36.3994 185.5 36.0994 185.5 35.6994V35.4994C185.4 35.3994 185.3 35.3994 185.2 35.3994C185 35.0994 185.1 34.8994 185.2 34.7994C185.3 34.6994 185.4 34.5994 185.5 34.5994C185.9 34.3994 186.3 34.3994 186.7 34.1994C186.7 34.1994 186.8 34.0994 186.7 34.0994C186.5 33.6994 186.3 33.2994 186.2 32.7994C186.1 32.3994 186.2 32.1994 186.6 32.0994C186.7 32.0994 186.8 32.1994 186.9 32.2994C187 32.3994 187.1 32.4994 187.2 32.4994C187.5 32.4994 187.9 31.8994 188.2 32.0994C188.6 32.3994 188.1 33.3994 188 33.7994C188 33.8994 188 33.9994 188.1 33.8994C188.3 33.5994 188.5 33.3994 188.7 33.0994C188.8 32.9994 188.9 32.8994 188.9 32.6994C189.1 32.3994 189.4 32.4994 189.5 32.8994C189.5 32.9994 189.5 33.0994 189.5 33.1994C189.6 33.4994 189.8 33.2994 190 33.2994C190.3 33.7994 190.2 34.0994 190 34.2994Z" fill="#E60306"/>
<path d="M189.1 34.5009C189 34.6009 189 34.6009 188.9 34.6009C188.7 34.7009 188.6 34.6009 188.4 34.6009C188.3 34.6009 188.3 34.7009 188.4 34.8009C188.5 34.8009 188.5 34.8009 188.6 34.8009C188.7 34.8009 188.9 34.9009 189 35.0009C189.1 35.1009 189.2 35.2009 189.3 35.4009C189.3 35.5009 189.3 35.6009 189.1 35.7009C189 35.7009 189 35.6009 188.9 35.6009L188.8 35.7009C188.8 35.8009 188.9 36.2009 188.7 36.1009C188.5 36.0009 188.3 35.6009 188.3 35.4009L188.2 35.3009V35.5009C188.2 35.6009 188.2 35.8009 188.2 35.8009C188.2 36.0009 188.2 36.2009 188 36.2009C187.8 36.2009 187.7 36.0009 187.7 35.8009H187.6C187.5 36.1009 187.2 36.1009 187.2 35.7009C187.2 35.5009 187.3 35.4009 187.3 35.2009C187.3 35.2009 187.3 35.1009 187.3 35.2009C187.3 35.2009 187.3 35.2009 187.2 35.2009C187 35.5009 186.9 35.7009 186.6 35.7009C186.3 35.7009 186.3 35.5009 186.3 35.3009V35.2009C186.2 35.1009 186.2 35.1009 186.1 35.1009C186 34.9009 186 34.8009 186.1 34.7009C186.2 34.6009 186.2 34.6009 186.3 34.6009C186.5 34.4009 186.8 34.5009 187 34.4009V34.3009C186.9 34.0009 186.7 33.8009 186.7 33.5009C186.6 33.3009 186.7 33.1009 186.9 33.1009C187 33.1009 187 33.2009 187.1 33.2009L187.3 33.3009C187.5 33.3009 187.7 32.9009 187.9 33.1009C188.1 33.3009 187.8 33.9009 187.8 34.1009C187.8 34.2009 187.8 34.2009 187.9 34.1009C188 33.9009 188.2 33.8009 188.3 33.6009C188.3 33.5009 188.4 33.4009 188.4 33.4009C188.6 33.2009 188.7 33.2009 188.8 33.5009C188.8 33.6009 188.8 33.7009 188.8 33.7009C188.9 33.9009 189 33.8009 189.1 33.8009C189.3 34.2009 189.3 34.4009 189.1 34.5009Z" fill="#E60306"/>
<path d="M188.1 34.6C188.2 34.8 188 35.1 187.8 35.1C187.6 35.2 187.3 35 187.3 34.8C187.2 34.6 187.4 34.3 187.6 34.3C187.8 34.2 188 34.4 188.1 34.6Z" fill="#991C18"/>
<path d="M185.9 34.4008C185.9 34.4008 184.5 34.2008 184.4 32.3008C185.4 32.6008 186.2 33.6008 186.4 34.4008C186.1 34.3008 185.9 34.4008 185.9 34.4008Z" fill="#5E870F"/>
<path d="M186.3 34.2C185.6 33.8 185 33.3 184.7 32.5C184.9 33.4 185.6 34 186.3 34.2C186.3 34.3 186.3 34.2 186.3 34.2Z" fill="#5E870F"/>
<path d="M189.4 37.5996C189.3 37.5996 189.3 37.5996 189.4 37.5996C189.8 38.0996 190 38.7996 190 39.3996C190 39.4996 190.1 39.3996 190.1 39.3996C190 38.6996 189.8 37.9996 189.4 37.5996Z" fill="#5E870F"/>
<path d="M191.1 36.5996C190.6 36.7996 190.2 36.9996 189.7 36.8996C190.2 37.0996 190.7 36.8996 191.1 36.5996C191.1 36.6996 191.1 36.5996 191.1 36.5996Z" fill="#5E870F"/>
</svg>
