<svg width="525" height="409" viewBox="0 0 525 409" fill="none" xmlns="http://www.w3.org/2000/svg">
<path d="M242.392 384C347.879 384 433.471 298.486 433.567 193C433.664 87.5136 348.229 2 242.742 2C137.256 2 51.6639 87.5136 51.5673 193C51.4708 298.486 136.906 384 242.392 384Z" fill="#393939"/>
<g style="mix-blend-mode:multiply" opacity="0.57">
<g style="mix-blend-mode:multiply" opacity="0.57">
<path d="M338.82 105.582H139.067C137.975 105.582 136.927 105.147 136.154 104.374C135.381 103.601 134.947 102.552 134.947 101.459V93.6778C134.947 92.5843 135.381 91.5356 136.154 90.7623C136.927 89.9891 137.975 89.5547 139.067 89.5547H338.82C339.361 89.5544 339.897 89.6608 340.397 89.8679C340.897 90.075 341.352 90.3787 341.734 90.7616C342.117 91.1445 342.42 91.5992 342.627 92.0996C342.834 92.5999 342.941 93.1362 342.94 93.6778V101.459C342.94 102.552 342.506 103.601 341.733 104.374C340.961 105.147 339.913 105.582 338.82 105.582Z" fill="#C6C7C8"/>
</g>
</g>
<path d="M301.02 93.6778V101.461C301.021 102.001 300.916 102.536 300.711 103.035C300.506 103.534 300.204 103.988 299.824 104.371C299.443 104.753 298.991 105.057 298.493 105.265C297.995 105.473 297.462 105.58 296.922 105.582H264.177C263.637 105.58 263.103 105.473 262.606 105.265C262.108 105.057 261.656 104.753 261.275 104.371C260.895 103.988 260.593 103.534 260.388 103.035C260.183 102.536 260.078 102.001 260.079 101.461V93.6778C260.076 92.5874 260.507 91.5405 261.275 90.7673C262.043 89.9942 263.087 89.558 264.177 89.5547H296.912C297.275 89.5541 297.637 89.603 297.987 89.6998C298.678 89.8872 299.307 90.2541 299.81 90.7631C300.193 91.1454 300.497 91.5996 300.705 92.0998C300.913 92.5999 301.02 93.1362 301.02 93.6778Z" fill="#F7E46C"/>
<g style="mix-blend-mode:screen" opacity="0.49">
<g style="mix-blend-mode:screen" opacity="0.49">
<path d="M298.652 92.0315C298.292 91.6684 297.863 91.3806 297.391 91.1847C296.919 90.9888 296.413 90.8889 295.902 90.8906H264.956C263.926 90.894 262.938 91.3067 262.212 92.0381C261.485 92.7695 261.078 93.7597 261.081 94.7911V96.1246C261.08 95.614 261.179 95.1082 261.373 94.636C261.567 94.1638 261.852 93.7344 262.212 93.3725C262.572 93.0105 262.999 92.723 263.47 92.5264C263.941 92.3298 264.446 92.228 264.956 92.2267H295.909C296.42 92.2249 296.926 92.3249 297.399 92.5207C297.871 92.7166 298.299 93.0044 298.659 93.3675C299.386 94.0989 299.794 95.0882 299.794 96.1196V94.7911C299.794 93.7561 299.383 92.7635 298.652 92.0315Z" fill="#F7E46C"/>
</g>
</g>
<g style="mix-blend-mode:multiply" opacity="0.19">
<g style="mix-blend-mode:multiply" opacity="0.19">
<path d="M296.799 98.2364H264.066C262.977 98.2331 261.933 97.7969 261.165 97.0237C260.396 96.2506 259.966 95.2037 259.969 94.1133V101.459C259.966 102.549 260.396 103.596 261.165 104.369C261.933 105.142 262.977 105.579 264.066 105.582H296.799C297.339 105.581 297.873 105.473 298.371 105.265C298.869 105.057 299.322 104.753 299.703 104.37C300.083 103.987 300.385 103.533 300.59 103.034C300.796 102.534 300.901 101.999 300.899 101.459V94.1133C300.901 94.6534 300.796 95.1885 300.59 95.6881C300.385 96.1876 300.083 96.6417 299.703 97.0246C299.322 97.4075 298.869 97.7115 298.371 97.9195C297.873 98.1274 297.339 98.2351 296.799 98.2364Z" fill="#C6C7C8"/>
</g>
</g>
<g style="mix-blend-mode:multiply" opacity="0.42">
<g style="mix-blend-mode:multiply" opacity="0.42">
<path d="M296.799 104.024H264.066C263.527 104.022 262.992 103.914 262.494 103.706C261.996 103.498 261.544 103.194 261.164 102.811C260.783 102.427 260.482 101.973 260.277 101.473C260.072 100.974 259.967 100.439 259.969 99.8984V101.457C259.966 102.548 260.396 103.594 261.165 104.368C261.933 105.141 262.977 105.577 264.066 105.58H296.799C297.339 105.579 297.873 105.471 298.371 105.263C298.87 105.055 299.322 104.751 299.703 104.368C300.083 103.986 300.385 103.531 300.59 103.032C300.796 102.532 300.901 101.997 300.899 101.457V99.8984C300.901 100.439 300.796 100.974 300.591 101.474C300.386 101.974 300.084 102.428 299.703 102.811C299.323 103.195 298.87 103.499 298.372 103.707C297.874 103.915 297.339 104.023 296.799 104.024Z" fill="#C6C7C8"/>
</g>
</g>
<path d="M342.607 93.6778V101.461C342.61 102.55 342.181 103.595 341.415 104.367C340.649 105.14 339.608 105.576 338.52 105.582H305.769C305.23 105.58 304.696 105.473 304.198 105.265C303.7 105.057 303.248 104.753 302.868 104.371C302.487 103.988 302.186 103.534 301.981 103.035C301.776 102.536 301.671 102.001 301.672 101.461V93.6778C301.669 92.5874 302.099 91.5405 302.868 90.7673C303.636 89.9942 304.68 89.558 305.769 89.5547H338.52C338.883 89.5541 339.245 89.603 339.595 89.6998C340.286 89.8872 340.914 90.2541 341.417 90.7631C342.184 91.5384 342.613 92.5868 342.607 93.6778Z" fill="#F7E46C"/>
<g style="mix-blend-mode:screen" opacity="0.49">
<g style="mix-blend-mode:screen" opacity="0.49">
<path d="M340.251 92.0315C339.891 91.6686 339.462 91.3809 338.99 91.1851C338.518 90.9892 338.012 90.8892 337.501 90.8906H306.555C306.045 90.892 305.54 90.9939 305.068 91.1906C304.597 91.3873 304.169 91.675 303.809 92.0372C303.449 92.3994 303.164 92.829 302.97 93.3015C302.776 93.774 302.676 94.2802 302.678 94.7911V96.1246C302.676 95.0932 303.083 94.1032 303.81 93.3723C304.537 92.6414 305.525 92.2293 306.555 92.2266H337.521C338.032 92.2252 338.538 92.3253 339.01 92.5211C339.482 92.7169 339.911 93.0046 340.271 93.3675C340.997 94.0989 341.405 95.0882 341.406 96.1196V94.7911C341.404 94.2777 341.301 93.7697 341.103 93.2962C340.905 92.8227 340.615 92.3929 340.251 92.0315Z" fill="#F7E46C"/>
</g>
</g>
<g style="mix-blend-mode:multiply" opacity="0.19">
<g style="mix-blend-mode:multiply" opacity="0.19">
<path d="M338.398 98.2364H305.665C305.125 98.2351 304.591 98.1274 304.093 97.9194C303.595 97.7115 303.143 97.4074 302.763 97.0245C302.382 96.6416 302.081 96.1874 301.876 95.6879C301.67 95.1884 301.566 94.6533 301.567 94.1133V101.459C301.566 101.999 301.67 102.534 301.876 103.033C302.081 103.533 302.382 103.987 302.763 104.37C303.143 104.753 303.595 105.057 304.093 105.265C304.591 105.473 305.125 105.581 305.665 105.582H338.398C338.938 105.581 339.472 105.473 339.97 105.265C340.468 105.057 340.921 104.753 341.301 104.37C341.682 103.987 341.984 103.533 342.189 103.034C342.394 102.534 342.499 101.999 342.498 101.459V94.1133C342.499 94.6534 342.394 95.1885 342.189 95.6881C341.984 96.1876 341.682 96.6417 341.301 97.0246C340.921 97.4075 340.468 97.7115 339.97 97.9195C339.472 98.1274 338.938 98.2351 338.398 98.2364Z" fill="#C6C7C8"/>
</g>
</g>
<g style="mix-blend-mode:multiply" opacity="0.42">
<g style="mix-blend-mode:multiply" opacity="0.42">
<path d="M338.398 104.024H305.665C305.125 104.023 304.591 103.915 304.093 103.707C303.595 103.499 303.142 103.194 302.762 102.811C302.381 102.428 302.08 101.974 301.875 101.474C301.67 100.974 301.565 100.439 301.567 99.8984V101.457C301.566 101.997 301.67 102.532 301.876 103.032C302.081 103.531 302.382 103.985 302.763 104.368C303.143 104.751 303.595 105.055 304.093 105.263C304.591 105.471 305.125 105.579 305.665 105.58H338.398C338.938 105.579 339.472 105.471 339.97 105.263C340.468 105.055 340.921 104.751 341.301 104.368C341.682 103.986 341.984 103.531 342.189 103.032C342.394 102.532 342.499 101.997 342.498 101.457V99.8984C342.5 100.439 342.395 100.974 342.19 101.474C341.985 101.974 341.683 102.428 341.302 102.811C340.921 103.195 340.469 103.499 339.971 103.707C339.472 103.915 338.938 104.023 338.398 104.024Z" fill="#C6C7C8"/>
</g>
</g>
<path d="M259.412 93.6778V101.461C259.413 102.001 259.308 102.536 259.103 103.035C258.898 103.534 258.597 103.988 258.216 104.371C257.836 104.753 257.383 105.057 256.886 105.265C256.388 105.473 255.854 105.58 255.315 105.582H222.579C222.04 105.58 221.506 105.473 221.008 105.265C220.51 105.057 220.058 104.753 219.677 104.371C219.297 103.988 218.996 103.534 218.79 103.035C218.585 102.536 218.48 102.001 218.481 101.461V93.6778C218.479 92.5874 218.909 91.5405 219.677 90.7673C220.446 89.9942 221.489 89.558 222.579 89.5547H255.315C255.678 89.5541 256.039 89.603 256.39 89.6998C257.08 89.8872 257.709 90.2541 258.212 90.7631C258.594 91.1462 258.896 91.6008 259.102 92.1009C259.308 92.601 259.413 93.1369 259.412 93.6778Z" fill="#F7E46C"/>
<g style="mix-blend-mode:screen" opacity="0.49">
<g style="mix-blend-mode:screen" opacity="0.49">
<path d="M257.054 92.0315C256.694 91.6684 256.266 91.3806 255.793 91.1847C255.321 90.9888 254.815 90.8889 254.304 90.8906H223.358C222.328 90.894 221.341 91.3067 220.614 92.0381C219.887 92.7695 219.481 93.7597 219.483 94.7911V96.1246C219.482 95.614 219.581 95.1082 219.775 94.636C219.969 94.1638 220.254 93.7344 220.614 93.3725C220.974 93.0105 221.402 92.723 221.872 92.5264C222.343 92.3298 222.848 92.228 223.358 92.2267H254.314C254.825 92.2249 255.331 92.3249 255.803 92.5207C256.276 92.7166 256.704 93.0044 257.064 93.3675C257.791 94.0989 258.199 95.0882 258.199 96.1196V94.7911C258.198 93.7557 257.786 92.7631 257.054 92.0315Z" fill="#F7E46C"/>
</g>
</g>
<g style="mix-blend-mode:multiply" opacity="0.19">
<g style="mix-blend-mode:multiply" opacity="0.19">
<path d="M255.202 98.2364H222.469C221.379 98.2331 220.335 97.7969 219.567 97.0237C218.799 96.2506 218.368 95.2037 218.371 94.1133V101.459C218.368 102.549 218.799 103.596 219.567 104.369C220.335 105.142 221.379 105.579 222.469 105.582H255.202C255.741 105.581 256.276 105.473 256.774 105.265C257.272 105.057 257.724 104.753 258.105 104.37C258.486 103.987 258.787 103.533 258.993 103.034C259.198 102.534 259.303 101.999 259.302 101.459V94.1133C259.303 94.6534 259.198 95.1885 258.993 95.6881C258.787 96.1876 258.486 96.6417 258.105 97.0246C257.724 97.4075 257.272 97.7115 256.774 97.9195C256.276 98.1274 255.741 98.2351 255.202 98.2364Z" fill="#C6C7C8"/>
</g>
</g>
<g style="mix-blend-mode:multiply" opacity="0.42">
<g style="mix-blend-mode:multiply" opacity="0.42">
<path d="M255.202 104.024H222.469C221.929 104.022 221.395 103.914 220.897 103.706C220.399 103.498 219.947 103.194 219.566 102.811C219.186 102.427 218.884 101.973 218.679 101.473C218.474 100.974 218.369 100.439 218.371 99.8984V101.457C218.368 102.548 218.799 103.594 219.567 104.368C220.335 105.141 221.379 105.577 222.469 105.58H255.202C255.741 105.579 256.276 105.471 256.774 105.263C257.272 105.055 257.724 104.751 258.105 104.368C258.486 103.986 258.787 103.531 258.993 103.032C259.198 102.532 259.303 101.997 259.302 101.457V99.8984C259.303 100.439 259.199 100.974 258.993 101.474C258.788 101.974 258.487 102.428 258.106 102.811C257.725 103.195 257.273 103.499 256.774 103.707C256.276 103.915 255.742 104.023 255.202 104.024Z" fill="#C6C7C8"/>
</g>
</g>
<path d="M217.813 93.6778V101.461C217.815 102.001 217.71 102.536 217.505 103.035C217.299 103.534 216.998 103.988 216.617 104.371C216.237 104.753 215.785 105.057 215.287 105.265C214.789 105.473 214.255 105.58 213.716 105.582H180.98C180.441 105.58 179.907 105.473 179.409 105.265C178.911 105.057 178.459 104.753 178.079 104.371C177.698 103.988 177.397 103.534 177.192 103.035C176.986 102.536 176.882 102.001 176.883 101.461V93.6778C176.88 92.5874 177.31 91.5405 178.079 90.7673C178.847 89.9942 179.891 89.558 180.98 89.5547H213.716C214.079 89.5541 214.441 89.603 214.791 89.6998C215.481 89.8872 216.11 90.2541 216.613 90.7631C216.995 91.1462 217.297 91.6008 217.503 92.1009C217.709 92.601 217.815 93.1369 217.813 93.6778Z" fill="#F7E46C"/>
<g style="mix-blend-mode:screen" opacity="0.49">
<g style="mix-blend-mode:screen" opacity="0.49">
<path d="M215.456 92.0315C215.096 91.6684 214.667 91.3806 214.195 91.1847C213.723 90.9888 213.217 90.8889 212.706 90.8906H181.768C180.737 90.894 179.75 91.3067 179.023 92.0381C178.297 92.7695 177.89 93.7597 177.893 94.7911V96.1246C177.891 95.614 177.99 95.1082 178.184 94.636C178.379 94.1638 178.664 93.7344 179.023 93.3725C179.383 93.0105 179.811 92.723 180.282 92.5264C180.753 92.3298 181.257 92.228 181.768 92.2267H212.723C213.234 92.2249 213.74 92.3249 214.213 92.5207C214.685 92.7166 215.113 93.0044 215.473 93.3675C216.2 94.0989 216.608 95.0882 216.608 96.1196V94.7911C216.607 94.2779 216.504 93.77 216.306 93.2965C216.109 92.823 215.819 92.3931 215.456 92.0315Z" fill="#F7E46C"/>
</g>
</g>
<g style="mix-blend-mode:multiply" opacity="0.19">
<g style="mix-blend-mode:multiply" opacity="0.19">
<path d="M213.603 98.2364H180.87C180.33 98.2354 179.796 98.1279 179.297 97.9202C178.799 97.7124 178.346 97.4084 177.965 97.0255C177.584 96.6426 177.282 96.1883 177.077 95.6886C176.871 95.1889 176.766 94.6536 176.768 94.1133V101.459C176.765 102.549 177.195 103.596 177.963 104.369C178.732 105.142 179.776 105.579 180.865 105.582H213.598C214.138 105.581 214.672 105.473 215.17 105.265C215.668 105.057 216.121 104.753 216.501 104.37C216.882 103.987 217.184 103.533 217.389 103.034C217.594 102.534 217.699 101.999 217.698 101.459V94.1133C217.701 95.2033 217.271 96.2498 216.503 97.0228C215.735 97.7959 214.692 98.2324 213.603 98.2364Z" fill="#C6C7C8"/>
</g>
</g>
<g style="mix-blend-mode:multiply" opacity="0.42">
<g style="mix-blend-mode:multiply" opacity="0.42">
<path d="M213.603 104.024H180.87C180.33 104.023 179.796 103.915 179.297 103.707C178.799 103.5 178.346 103.196 177.965 102.813C177.584 102.43 177.282 101.975 177.077 101.476C176.871 100.976 176.766 100.441 176.768 99.9004V101.459C176.765 102.55 177.195 103.596 177.963 104.37C178.732 105.143 179.776 105.579 180.865 105.582H213.598C214.138 105.581 214.672 105.473 215.17 105.265C215.668 105.057 216.121 104.753 216.501 104.37C216.882 103.988 217.184 103.533 217.389 103.034C217.594 102.534 217.699 101.999 217.698 101.459V99.9004C217.701 100.99 217.271 102.037 216.503 102.81C215.735 103.583 214.692 104.02 213.603 104.024Z" fill="#C6C7C8"/>
</g>
</g>
<path d="M176.216 93.6778V101.461C176.217 102.001 176.112 102.536 175.907 103.035C175.702 103.534 175.4 103.988 175.02 104.371C174.639 104.753 174.187 105.057 173.689 105.265C173.192 105.473 172.658 105.58 172.118 105.582H139.383C138.294 105.578 137.25 105.143 136.482 104.37C135.714 103.597 135.283 102.551 135.285 101.461V93.6778C135.283 92.5874 135.713 91.5405 136.481 90.7673C137.249 89.9942 138.293 89.558 139.383 89.5547H172.118C172.481 89.5541 172.843 89.603 173.193 89.6998C173.885 89.8868 174.514 90.2537 175.018 90.7631C175.399 91.1464 175.701 91.6011 175.907 92.1012C176.112 92.6013 176.217 93.1371 176.216 93.6778Z" fill="#F7E46C"/>
<g style="mix-blend-mode:screen" opacity="0.49">
<g style="mix-blend-mode:screen" opacity="0.49">
<path d="M173.858 92.0315C173.498 91.6684 173.069 91.3806 172.597 91.1847C172.125 90.9888 171.619 90.8889 171.108 90.8906H140.162C139.132 90.894 138.144 91.3067 137.418 92.0381C136.691 92.7695 136.284 93.7597 136.287 94.7911V96.1246C136.286 95.614 136.385 95.1082 136.579 94.636C136.773 94.1638 137.058 93.7344 137.418 93.3725C137.778 93.0105 138.205 92.723 138.676 92.5264C139.147 92.3298 139.652 92.228 140.162 92.2267H171.118C171.629 92.2249 172.135 92.3249 172.607 92.5207C173.079 92.7166 173.508 93.0044 173.868 93.3675C174.594 94.0989 175.002 95.0882 175.003 96.1196V94.7911C175.002 93.7557 174.59 92.7631 173.858 92.0315Z" fill="#F7E46C"/>
</g>
</g>
<g style="mix-blend-mode:multiply" opacity="0.19">
<g style="mix-blend-mode:multiply" opacity="0.19">
<path d="M172.018 98.2364H139.267C138.178 98.2331 137.134 97.7969 136.366 97.0237C135.597 96.2506 135.167 95.2037 135.17 94.1133V101.459C135.167 102.549 135.597 103.596 136.366 104.369C137.134 105.142 138.178 105.579 139.267 105.582H172.018C173.108 105.579 174.151 105.142 174.92 104.369C175.688 103.596 176.118 102.549 176.116 101.459V94.1133C176.118 95.2037 175.688 96.2506 174.92 97.0237C174.151 97.7969 173.108 98.2331 172.018 98.2364Z" fill="#C6C7C8"/>
</g>
</g>
<g style="mix-blend-mode:multiply" opacity="0.42">
<g style="mix-blend-mode:multiply" opacity="0.42">
<path d="M172.018 104.024H139.268C138.728 104.022 138.194 103.914 137.696 103.706C137.198 103.498 136.745 103.194 136.365 102.811C135.984 102.427 135.683 101.973 135.478 101.473C135.273 100.974 135.168 100.439 135.17 99.8984V101.457C135.168 101.997 135.273 102.532 135.478 103.032C135.683 103.532 135.984 103.986 136.365 104.369C136.745 104.752 137.198 105.057 137.696 105.265C138.194 105.473 138.728 105.581 139.268 105.583H172.018C173.108 105.579 174.151 105.143 174.92 104.37C175.688 103.597 176.118 102.55 176.116 101.46V99.9009C176.118 100.991 175.688 102.038 174.92 102.811C174.151 103.585 173.108 104.021 172.018 104.024Z" fill="#C6C7C8"/>
</g>
</g>
<path d="M338.82 106.14H139.068C137.828 106.139 136.639 105.645 135.762 104.768C134.886 103.89 134.393 102.7 134.393 101.459V93.6785C134.394 92.4381 134.887 91.2489 135.763 90.3718C136.64 89.4947 137.828 89.0013 139.068 89H338.82C339.435 88.9993 340.043 89.1199 340.611 89.3547C341.178 89.5896 341.694 89.9341 342.129 90.3687C342.563 90.8032 342.908 91.3192 343.143 91.8872C343.378 92.4551 343.498 93.0638 343.498 93.6785V101.459C343.497 102.7 343.003 103.89 342.127 104.768C341.25 105.645 340.061 106.139 338.82 106.14ZM139.068 90.1108C138.125 90.1161 137.223 90.4942 136.558 91.1625C135.893 91.8309 135.519 92.7353 135.518 93.6785V101.459C135.52 102.403 135.895 103.308 136.561 103.976C137.227 104.643 138.13 105.021 139.073 105.025H338.826C339.771 105.023 340.677 104.647 341.345 103.978C342.013 103.309 342.389 102.403 342.391 101.457V93.676C342.39 92.73 342.014 91.8229 341.346 91.154C340.677 90.4851 339.771 90.109 338.826 90.1083L139.068 90.1108Z" fill="#F7E46C"/>
<g style="mix-blend-mode:multiply" opacity="0.57">
<g style="mix-blend-mode:multiply" opacity="0.57">
<path d="M342.943 149.681V157.462C342.944 158.005 342.839 158.542 342.632 159.043C342.426 159.545 342.123 160 341.74 160.384C341.357 160.768 340.903 161.073 340.402 161.281C339.902 161.488 339.365 161.595 338.823 161.595H139.07C138.4 161.598 137.74 161.434 137.148 161.12C136.484 160.77 135.929 160.245 135.542 159.602C135.155 158.959 134.95 158.223 134.95 157.472V149.691C134.95 148.598 135.384 147.549 136.157 146.776C136.93 146.003 137.978 145.568 139.07 145.568H338.823C339.916 145.569 340.963 146.004 341.736 146.777C342.508 147.55 342.942 148.598 342.943 149.691V149.681Z" fill="#F2F2F2"/>
</g>
</g>
<g style="mix-blend-mode:multiply" opacity="0.19">
<g style="mix-blend-mode:multiply" opacity="0.19">
<path d="M201.229 145.555L188.693 161.584H191.401L204.079 145.555H201.229Z" fill="#F2F2F2"/>
</g>
</g>
<g style="mix-blend-mode:multiply" opacity="0.19">
<g style="mix-blend-mode:multiply" opacity="0.19">
<path d="M201.066 161.584H210.587L221.932 145.555H212.102L201.066 161.584Z" fill="#F2F2F2"/>
</g>
</g>
<g style="mix-blend-mode:multiply" opacity="0.19">
<g style="mix-blend-mode:multiply" opacity="0.19">
<path d="M247.104 161.584H253.887L265.67 145.555H258.13L247.104 161.584Z" fill="#F2F2F2"/>
</g>
</g>
<g style="mix-blend-mode:multiply" opacity="0.19">
<g style="mix-blend-mode:multiply" opacity="0.19">
<path d="M278.672 161.584H286.439L299.885 145.555H291.757L278.672 161.584Z" fill="#F2F2F2"/>
</g>
</g>
<g style="mix-blend-mode:multiply" opacity="0.19">
<g style="mix-blend-mode:multiply" opacity="0.19">
<path d="M324.255 145.555L313.41 161.584H318.278L328.798 145.555H324.255Z" fill="#F2F2F2"/>
</g>
</g>
<path d="M259.414 149.682V157.463C259.417 158.003 259.313 158.539 259.108 159.04C258.904 159.54 258.602 159.996 258.222 160.379C257.841 160.763 257.389 161.068 256.89 161.277C256.392 161.486 255.857 161.594 255.316 161.596H222.581C221.491 161.592 220.448 161.156 219.679 160.383C218.911 159.61 218.481 158.563 218.483 157.473V149.692C218.48 149.151 218.584 148.615 218.789 148.114C218.993 147.613 219.294 147.158 219.675 146.774C220.056 146.39 220.508 146.085 221.007 145.877C221.506 145.668 222.041 145.56 222.581 145.559H255.316C255.679 145.559 256.039 145.607 256.389 145.701C257.08 145.889 257.709 146.257 258.212 146.767C258.593 147.15 258.896 147.604 259.103 148.105C259.309 148.605 259.415 149.141 259.414 149.682Z" fill="#899EEA"/>
<g style="mix-blend-mode:screen" opacity="0.49">
<g style="mix-blend-mode:screen" opacity="0.49">
<path d="M257.054 148.035C256.694 147.672 256.266 147.384 255.794 147.188C255.321 146.992 254.815 146.893 254.304 146.895H223.358C222.848 146.896 222.343 146.998 221.872 147.194C221.402 147.391 220.974 147.678 220.614 148.04C220.254 148.402 219.969 148.832 219.775 149.304C219.581 149.776 219.482 150.282 219.483 150.793V152.129C219.481 151.097 219.887 150.107 220.614 149.376C221.341 148.644 222.328 148.231 223.358 148.228H254.314C254.825 148.227 255.332 148.327 255.804 148.523C256.276 148.719 256.704 149.008 257.064 149.371C257.792 150.102 258.2 151.092 258.199 152.124V150.788C258.198 150.276 258.097 149.77 257.9 149.297C257.704 148.825 257.416 148.396 257.054 148.035Z" fill="#222222"/>
</g>
</g>
<g style="mix-blend-mode:multiply" opacity="0.19">
<g style="mix-blend-mode:multiply" opacity="0.19">
<path d="M255.204 154.24H222.469C221.379 154.237 220.335 153.801 219.567 153.028C218.799 152.254 218.368 151.208 218.371 150.117V157.463C218.369 158.003 218.472 158.539 218.677 159.04C218.882 159.541 219.183 159.996 219.563 160.38C219.944 160.764 220.397 161.069 220.895 161.277C221.394 161.486 221.928 161.594 222.469 161.596H255.204C256.294 161.593 257.337 161.156 258.106 160.383C258.874 159.61 259.304 158.563 259.302 157.473V150.117C259.304 151.208 258.874 152.254 258.106 153.028C257.337 153.801 256.294 154.237 255.204 154.24Z" fill="#F2F2F2"/>
</g>
</g>
<g style="mix-blend-mode:multiply" opacity="0.42">
<g style="mix-blend-mode:multiply" opacity="0.42">
<path d="M255.204 160.027H222.469C221.379 160.024 220.335 159.588 219.567 158.815C218.799 158.042 218.368 156.995 218.371 155.904V157.463C218.369 158.004 218.472 158.54 218.677 159.04C218.882 159.541 219.183 159.996 219.563 160.38C219.944 160.764 220.397 161.069 220.895 161.277C221.394 161.486 221.928 161.594 222.469 161.596H255.204C256.294 161.593 257.337 161.157 258.106 160.383C258.874 159.61 259.304 158.563 259.302 157.473V155.914C259.302 157.003 258.87 158.047 258.102 158.818C257.334 159.589 256.292 160.024 255.204 160.027Z" fill="#F2F2F2"/>
</g>
</g>
<path d="M217.816 149.681V157.462C217.819 158.003 217.715 158.539 217.51 159.04C217.306 159.54 217.005 159.995 216.624 160.379C216.243 160.763 215.791 161.068 215.292 161.277C214.794 161.486 214.259 161.594 213.719 161.595H180.983C179.894 161.592 178.85 161.156 178.082 160.383C177.313 159.61 176.883 158.563 176.886 157.472V149.691C176.884 149.151 176.989 148.616 177.194 148.117C177.399 147.617 177.7 147.163 178.081 146.78C178.461 146.397 178.914 146.093 179.412 145.885C179.91 145.677 180.444 145.57 180.983 145.568H213.719C214.081 145.568 214.442 145.616 214.791 145.711C215.482 145.899 216.111 146.267 216.614 146.777C217.383 147.548 217.815 148.592 217.816 149.681Z" fill="#899EEA"/>
<g style="mix-blend-mode:screen" opacity="0.49">
<g style="mix-blend-mode:screen" opacity="0.49">
<path d="M215.456 148.035C215.097 147.672 214.668 147.384 214.196 147.188C213.724 146.992 213.217 146.893 212.706 146.895H181.756C181.246 146.896 180.741 146.998 180.27 147.194C179.799 147.391 179.372 147.678 179.012 148.04C178.652 148.402 178.367 148.832 178.173 149.304C177.979 149.776 177.88 150.282 177.881 150.793V152.129C177.878 151.097 178.285 150.107 179.012 149.376C179.738 148.644 180.725 148.231 181.756 148.228H212.716C213.228 148.227 213.734 148.327 214.206 148.523C214.678 148.719 215.107 149.008 215.466 149.371C216.194 150.102 216.602 151.092 216.601 152.124V150.788C216.601 150.276 216.499 149.77 216.303 149.297C216.106 148.825 215.819 148.396 215.456 148.035Z" fill="#222222"/>
</g>
</g>
<g style="mix-blend-mode:multiply" opacity="0.19">
<g style="mix-blend-mode:multiply" opacity="0.19">
<path d="M213.607 154.24H180.874C180.334 154.239 179.8 154.131 179.301 153.923C178.803 153.715 178.351 153.411 177.97 153.029C177.589 152.646 177.288 152.191 177.083 151.692C176.877 151.192 176.772 150.657 176.773 150.117V157.463C176.771 158.004 176.875 158.54 177.08 159.041C177.284 159.541 177.586 159.997 177.967 160.381C178.348 160.764 178.8 161.069 179.299 161.278C179.798 161.487 180.333 161.595 180.874 161.596H213.607C214.696 161.593 215.74 161.156 216.508 160.383C217.277 159.61 217.707 158.563 217.704 157.473V150.117C217.707 151.208 217.277 152.254 216.508 153.028C215.74 153.801 214.696 154.237 213.607 154.24Z" fill="#F2F2F2"/>
</g>
</g>
<g style="mix-blend-mode:multiply" opacity="0.42">
<g style="mix-blend-mode:multiply" opacity="0.42">
<path d="M213.607 160.027H180.874C180.334 160.026 179.8 159.918 179.301 159.71C178.803 159.503 178.351 159.198 177.97 158.816C177.589 158.433 177.288 157.979 177.083 157.479C176.877 156.98 176.772 156.444 176.773 155.904V157.463C176.771 158.004 176.875 158.54 177.08 159.041C177.284 159.541 177.586 159.997 177.967 160.381C178.348 160.765 178.8 161.07 179.299 161.278C179.798 161.487 180.333 161.595 180.874 161.596H213.607C214.696 161.593 215.74 161.157 216.508 160.383C217.277 159.61 217.707 158.563 217.704 157.473V155.914C217.704 157.003 217.273 158.047 216.505 158.818C215.737 159.589 214.694 160.024 213.607 160.027Z" fill="#F2F2F2"/>
</g>
</g>
<path d="M176.218 149.681V157.462C176.22 158.003 176.116 158.539 175.912 159.04C175.707 159.54 175.406 159.995 175.025 160.379C174.645 160.763 174.192 161.068 173.694 161.277C173.195 161.486 172.661 161.594 172.12 161.595H139.385C138.295 161.592 137.251 161.156 136.483 160.383C135.715 159.61 135.284 158.563 135.287 157.472V149.691C135.285 149.151 135.39 148.616 135.595 148.117C135.8 147.617 136.102 147.163 136.482 146.78C136.863 146.397 137.315 146.093 137.813 145.885C138.311 145.677 138.845 145.57 139.385 145.568H172.12C172.483 145.568 172.845 145.616 173.195 145.711C173.885 145.9 174.513 146.267 175.015 146.777C175.784 147.548 176.217 148.592 176.218 149.681Z" fill="#899EEA"/>
<g style="mix-blend-mode:screen" opacity="0.49">
<g style="mix-blend-mode:screen" opacity="0.49">
<path d="M173.858 148.035C173.498 147.672 173.069 147.384 172.597 147.188C172.125 146.992 171.619 146.893 171.108 146.895H140.162C139.652 146.896 139.147 146.998 138.676 147.194C138.205 147.391 137.778 147.678 137.418 148.04C137.058 148.402 136.773 148.832 136.579 149.304C136.385 149.776 136.286 150.282 136.287 150.793V152.129C136.284 151.097 136.691 150.107 137.418 149.376C138.144 148.644 139.132 148.231 140.162 148.228H171.118C171.629 148.227 172.135 148.327 172.607 148.523C173.08 148.719 173.508 149.008 173.868 149.371C174.595 150.102 175.004 151.092 175.003 152.124V150.788C175.002 150.276 174.9 149.77 174.704 149.297C174.507 148.825 174.22 148.396 173.858 148.035Z" fill="#222222"/>
</g>
</g>
<g style="mix-blend-mode:multiply" opacity="0.19">
<g style="mix-blend-mode:multiply" opacity="0.19">
<path d="M172.005 154.24H139.275C138.735 154.239 138.201 154.131 137.703 153.923C137.205 153.715 136.752 153.411 136.372 153.029C135.991 152.646 135.689 152.191 135.484 151.692C135.279 151.192 135.174 150.657 135.175 150.117V157.463C135.172 158.004 135.276 158.54 135.481 159.041C135.686 159.541 135.987 159.997 136.368 160.381C136.749 160.764 137.202 161.069 137.701 161.278C138.199 161.487 138.734 161.595 139.275 161.596H172.005C173.095 161.593 174.139 161.156 174.907 160.383C175.675 159.61 176.106 158.563 176.103 157.473V150.117C176.106 151.208 175.675 152.254 174.907 153.028C174.139 153.801 173.095 154.237 172.005 154.24Z" fill="#F2F2F2"/>
</g>
</g>
<g style="mix-blend-mode:multiply" opacity="0.42">
<g style="mix-blend-mode:multiply" opacity="0.42">
<path d="M172.005 160.027H139.275C138.735 160.026 138.201 159.918 137.703 159.71C137.205 159.503 136.752 159.198 136.372 158.816C135.991 158.433 135.689 157.979 135.484 157.479C135.279 156.98 135.174 156.444 135.175 155.904V157.463C135.172 158.004 135.276 158.54 135.481 159.041C135.686 159.541 135.987 159.997 136.368 160.381C136.749 160.765 137.202 161.07 137.701 161.278C138.199 161.487 138.734 161.595 139.275 161.596H172.005C173.095 161.593 174.139 161.157 174.907 160.383C175.675 159.61 176.106 158.563 176.103 157.473V155.914C176.103 157.003 175.672 158.047 174.904 158.818C174.135 159.589 173.093 160.024 172.005 160.027Z" fill="#F2F2F2"/>
</g>
</g>
<path d="M338.823 162.143H139.07C137.83 162.142 136.641 161.648 135.764 160.77C134.887 159.893 134.394 158.703 134.393 157.462V149.681C134.394 148.44 134.887 147.25 135.764 146.373C136.641 145.495 137.83 145.001 139.07 145H338.823C340.063 145.001 341.252 145.494 342.129 146.372C343.006 147.25 343.498 148.44 343.498 149.681V157.462C343.497 158.703 343.004 159.892 342.127 160.77C341.251 161.647 340.063 162.141 338.823 162.143ZM139.07 146.113C138.125 146.114 137.218 146.49 136.55 147.159C135.882 147.828 135.506 148.735 135.505 149.681V157.462C135.506 158.408 135.882 159.315 136.55 159.984C137.218 160.653 138.125 161.029 139.07 161.03H338.823C339.768 161.028 340.674 160.652 341.342 159.983C342.009 159.314 342.385 158.407 342.386 157.462V149.681C342.386 149.213 342.294 148.749 342.115 148.316C341.936 147.883 341.674 147.49 341.343 147.158C341.012 146.827 340.619 146.564 340.187 146.385C339.755 146.206 339.291 146.113 338.823 146.113H139.07Z" fill="#F7E46C"/>
<path d="M135.91 82.663C135.314 82.4056 134.792 82.0021 134.393 81.4896L135.793 79.8084C136.383 80.6073 137.057 81.0068 137.815 81.0068C138.84 81.0068 139.353 80.4047 139.353 79.2004V74.019H135.528V72H141.858V79.0653C141.858 80.3997 141.524 81.4004 140.858 82.0676C140.193 82.7356 139.22 83.0683 137.933 83.0683C137.237 83.0779 136.548 82.9398 135.91 82.663Z" fill="white"/>
<path d="M151.28 80.5565H146.227L145.262 82.8907H142.68L147.532 72H150.032L154.895 82.8907H152.245L151.28 80.5565ZM150.487 78.64L148.762 74.4694L147.035 78.64H150.487Z" fill="white"/>
<path d="M165.896 72L161.186 82.8957H158.685L154.003 72H156.723L160.036 79.7834L163.396 72H165.896Z" fill="white"/>
<path d="M173.61 80.5565H168.558L167.593 82.8907H165.013L169.863 72H172.363L177.23 82.8957H174.575L173.61 80.5565ZM172.818 78.64L171.093 74.4694L169.365 78.64H172.818Z" fill="white"/>
<path d="M139.104 127.187C140.068 127.187 140.903 127.348 141.608 127.669C142.323 127.991 142.873 128.447 143.256 129.039C143.64 129.63 143.832 130.33 143.832 131.139C143.832 131.938 143.64 132.639 143.256 133.24C142.873 133.832 142.323 134.288 141.608 134.61C140.903 134.921 140.068 135.077 139.104 135.077H136.912V138.08H134.393V127.187H139.104ZM138.964 133.022C139.721 133.022 140.296 132.862 140.69 132.54C141.084 132.208 141.281 131.741 141.281 131.139C141.281 130.527 141.084 130.06 140.69 129.739C140.296 129.407 139.721 129.241 138.964 129.241H136.912V133.022H138.964Z" fill="white"/>
<path d="M150.855 134.221V138.08H148.336V134.19L144.122 127.187H146.796L149.704 132.026L152.612 127.187H155.085L150.855 134.221Z" fill="white"/>
<path d="M158.196 129.241H154.713V127.187H164.198V129.241H160.715V138.08H158.196V129.241Z" fill="white"/>
<path d="M175.537 127.187V138.08H173.018V133.614H168.073V138.08H165.554V127.187H168.073V131.482H173.018V127.187H175.537Z" fill="white"/>
<path d="M183.384 138.267C182.254 138.267 181.233 138.023 180.321 137.535C179.419 137.048 178.708 136.379 178.19 135.528C177.682 134.667 177.428 133.702 177.428 132.633C177.428 131.565 177.682 130.605 178.19 129.754C178.708 128.893 179.419 128.219 180.321 127.731C181.233 127.244 182.254 127 183.384 127C184.514 127 185.53 127.244 186.432 127.731C187.334 128.219 188.044 128.893 188.562 129.754C189.08 130.605 189.34 131.565 189.34 132.633C189.34 133.702 189.08 134.667 188.562 135.528C188.044 136.379 187.334 137.048 186.432 137.535C185.53 138.023 184.514 138.267 183.384 138.267ZM183.384 136.119C184.027 136.119 184.607 135.974 185.126 135.683C185.644 135.383 186.048 134.968 186.338 134.439C186.639 133.909 186.789 133.308 186.789 132.633C186.789 131.959 186.639 131.357 186.338 130.828C186.048 130.299 185.644 129.889 185.126 129.599C184.607 129.298 184.027 129.148 183.384 129.148C182.741 129.148 182.161 129.298 181.642 129.599C181.124 129.889 180.714 130.299 180.414 130.828C180.124 131.357 179.978 131.959 179.978 132.633C179.978 133.308 180.124 133.909 180.414 134.439C180.714 134.968 181.124 135.383 181.642 135.683C182.161 135.974 182.741 136.119 183.384 136.119Z" fill="white"/>
<path d="M201.216 127.187V138.08H199.148L193.721 131.466V138.08H191.233V127.187H193.317L198.728 133.8V127.187H201.216Z" fill="white"/>
<g style="mix-blend-mode:multiply" opacity="0.57">
<g style="mix-blend-mode:multiply" opacity="0.57">
<path d="M337.823 220.584H138.07C137.529 220.584 136.993 220.478 136.493 220.27C135.993 220.063 135.539 219.759 135.156 219.376C134.773 218.993 134.47 218.538 134.263 218.037C134.056 217.537 133.95 217 133.95 216.459V208.678C133.95 207.584 134.384 206.536 135.157 205.762C135.93 204.989 136.978 204.555 138.07 204.555H337.823C338.364 204.554 338.9 204.661 339.4 204.868C339.9 205.075 340.354 205.379 340.737 205.762C341.12 206.145 341.423 206.599 341.63 207.1C341.837 207.6 341.943 208.136 341.943 208.678V216.459C341.943 217 341.837 217.537 341.63 218.037C341.423 218.538 341.12 218.993 340.737 219.376C340.355 219.759 339.9 220.063 339.4 220.27C338.9 220.478 338.364 220.584 337.823 220.584Z" fill="#C6C7C8"/>
</g>
</g>
<path d="M300.013 208.678V216.461C300.015 217.552 299.585 218.598 298.817 219.372C298.048 220.145 297.005 220.581 295.915 220.584H263.18C262.09 220.581 261.046 220.145 260.278 219.372C259.51 218.598 259.079 217.552 259.082 216.461V208.678C259.079 207.587 259.51 206.54 260.278 205.767C261.046 204.994 262.09 204.558 263.18 204.555H295.915C297.005 204.558 298.048 204.994 298.817 205.767C299.585 206.54 300.015 207.587 300.013 208.678Z" fill="#FD8D3C"/>
<g style="mix-blend-mode:screen" opacity="0.49">
<g style="mix-blend-mode:screen" opacity="0.49">
<path d="M297.644 207.032C297.284 206.669 296.855 206.381 296.383 206.185C295.911 205.989 295.405 205.889 294.894 205.891H263.959C263.448 205.892 262.943 205.994 262.472 206.191C262.001 206.387 261.573 206.675 261.213 207.037C260.853 207.399 260.567 207.829 260.373 208.302C260.179 208.774 260.08 209.28 260.081 209.791V211.127C260.08 210.616 260.179 210.11 260.373 209.638C260.567 209.165 260.853 208.735 261.213 208.373C261.573 208.011 262.001 207.723 262.472 207.527C262.943 207.33 263.448 207.228 263.959 207.227H294.912C295.423 207.225 295.929 207.325 296.401 207.521C296.873 207.717 297.302 208.005 297.662 208.368C298.388 209.099 298.796 210.088 298.797 211.12V209.784C298.791 208.75 298.377 207.76 297.644 207.032Z" fill="#FD8D3C"/>
</g>
</g>
<g style="mix-blend-mode:multiply" opacity="0.19">
<g style="mix-blend-mode:multiply" opacity="0.19">
<path d="M295.802 213.248H263.069C262.53 213.247 261.996 213.139 261.498 212.931C261 212.723 260.547 212.419 260.167 212.036C259.786 211.653 259.485 211.199 259.28 210.7C259.075 210.2 258.97 209.665 258.972 209.125V216.471C258.97 217.011 259.074 217.546 259.279 218.046C259.484 218.546 259.785 219 260.166 219.383C260.546 219.766 260.999 220.071 261.497 220.279C261.995 220.487 262.529 220.595 263.069 220.596H295.802C296.342 220.595 296.877 220.487 297.375 220.279C297.873 220.071 298.326 219.767 298.706 219.383C299.087 219 299.389 218.546 299.594 218.046C299.799 217.546 299.904 217.011 299.902 216.471V209.125C299.904 209.665 299.799 210.2 299.593 210.7C299.388 211.199 299.086 211.653 298.706 212.036C298.325 212.419 297.872 212.723 297.374 212.931C296.876 213.139 296.342 213.247 295.802 213.248Z" fill="#C6C7C8"/>
</g>
</g>
<g style="mix-blend-mode:multiply" opacity="0.42">
<g style="mix-blend-mode:multiply" opacity="0.42">
<path d="M295.802 219.026H263.069C262.529 219.025 261.995 218.917 261.497 218.709C260.999 218.501 260.546 218.196 260.166 217.813C259.785 217.43 259.484 216.976 259.279 216.476C259.074 215.976 258.97 215.441 258.972 214.9V216.459C258.97 216.999 259.074 217.535 259.279 218.034C259.484 218.534 259.785 218.989 260.166 219.372C260.546 219.755 260.999 220.059 261.497 220.267C261.995 220.476 262.529 220.583 263.069 220.585H295.802C296.342 220.583 296.877 220.476 297.375 220.268C297.873 220.059 298.326 219.755 298.706 219.372C299.087 218.989 299.389 218.534 299.594 218.035C299.799 217.535 299.904 216.999 299.902 216.459V214.9C299.904 215.441 299.799 215.976 299.594 216.476C299.389 216.976 299.087 217.43 298.706 217.813C298.326 218.196 297.873 218.501 297.375 218.709C296.877 218.917 296.342 219.025 295.802 219.026Z" fill="#C6C7C8"/>
</g>
</g>
<path d="M341.61 208.678V216.461C341.613 217.552 341.183 218.598 340.414 219.372C339.646 220.145 338.602 220.581 337.513 220.584H304.777C303.688 220.581 302.644 220.145 301.876 219.372C301.107 218.598 300.677 217.552 300.68 216.461V208.678C300.677 207.587 301.107 206.54 301.876 205.767C302.644 204.994 303.688 204.558 304.777 204.555H337.513C337.876 204.555 338.237 204.604 338.588 204.7C339.277 204.888 339.905 205.255 340.408 205.763C340.79 206.146 341.093 206.6 341.3 207.1C341.506 207.601 341.612 208.137 341.61 208.678Z" fill="#FD8D3C"/>
<g style="mix-blend-mode:screen" opacity="0.49">
<g style="mix-blend-mode:screen" opacity="0.49">
<path d="M339.25 207.032C338.89 206.668 338.462 206.38 337.99 206.184C337.518 205.988 337.011 205.889 336.5 205.891H305.557C305.047 205.892 304.541 205.994 304.07 206.191C303.599 206.387 303.171 206.675 302.811 207.037C302.451 207.399 302.166 207.829 301.972 208.302C301.778 208.774 301.678 209.28 301.68 209.791V211.127C301.678 210.616 301.778 210.11 301.972 209.638C302.166 209.165 302.451 208.735 302.811 208.373C303.171 208.011 303.599 207.723 304.07 207.527C304.541 207.33 305.047 207.228 305.557 207.227H336.51C337.021 207.225 337.528 207.324 338 207.52C338.472 207.716 338.9 208.004 339.26 208.368C339.988 209.098 340.398 210.088 340.398 211.12V209.784C340.394 208.75 339.982 207.761 339.25 207.032Z" fill="#FD8D3C"/>
</g>
</g>
<g style="mix-blend-mode:multiply" opacity="0.19">
<g style="mix-blend-mode:multiply" opacity="0.19">
<path d="M337.395 213.248H304.667C304.128 213.247 303.594 213.139 303.095 212.931C302.597 212.723 302.145 212.419 301.764 212.036C301.383 211.653 301.082 211.199 300.876 210.7C300.671 210.2 300.566 209.665 300.567 209.125V216.471C300.566 217.011 300.671 217.546 300.876 218.046C301.081 218.546 301.382 219 301.763 219.383C302.144 219.767 302.596 220.071 303.095 220.279C303.593 220.487 304.128 220.595 304.667 220.596H337.395C337.935 220.594 338.469 220.486 338.967 220.278C339.465 220.07 339.918 219.766 340.298 219.383C340.679 219 340.98 218.545 341.185 218.046C341.39 217.546 341.495 217.011 341.493 216.471V209.125C341.496 210.215 341.065 211.262 340.297 212.035C339.529 212.809 338.485 213.245 337.395 213.248Z" fill="#C6C7C8"/>
</g>
</g>
<g style="mix-blend-mode:multiply" opacity="0.42">
<g style="mix-blend-mode:multiply" opacity="0.42">
<path d="M337.395 219.026H304.667C304.128 219.025 303.593 218.917 303.095 218.709C302.596 218.501 302.144 218.196 301.763 217.813C301.382 217.43 301.081 216.976 300.876 216.476C300.671 215.976 300.566 215.441 300.567 214.9V216.459C300.566 216.999 300.671 217.535 300.876 218.035C301.081 218.534 301.382 218.989 301.763 219.372C302.144 219.755 302.596 220.059 303.095 220.268C303.593 220.476 304.128 220.583 304.667 220.585H337.395C337.935 220.583 338.469 220.475 338.967 220.267C339.465 220.059 339.918 219.754 340.298 219.371C340.679 218.988 340.98 218.534 341.185 218.034C341.39 217.534 341.495 216.999 341.493 216.459V214.9C341.495 215.441 341.39 215.976 341.185 216.475C340.98 216.975 340.679 217.429 340.298 217.812C339.918 218.196 339.465 218.5 338.967 218.708C338.469 218.916 337.935 219.024 337.395 219.026Z" fill="#C6C7C8"/>
</g>
</g>
<path d="M258.415 208.678V216.461C258.418 217.552 257.988 218.598 257.219 219.372C256.451 220.145 255.407 220.581 254.317 220.584H221.582C220.492 220.581 219.449 220.145 218.68 219.372C217.912 218.598 217.482 217.552 217.484 216.461V208.678C217.482 207.587 217.912 206.54 218.68 205.767C219.449 204.994 220.492 204.558 221.582 204.555H254.317C255.407 204.558 256.451 204.994 257.219 205.767C257.988 206.54 258.418 207.587 258.415 208.678Z" fill="#FD8D3C"/>
<g style="mix-blend-mode:screen" opacity="0.49">
<g style="mix-blend-mode:screen" opacity="0.49">
<path d="M256.057 207.032C255.697 206.668 255.268 206.381 254.796 206.185C254.324 205.989 253.818 205.889 253.307 205.891H222.361C221.331 205.894 220.344 206.307 219.617 207.038C218.89 207.77 218.484 208.76 218.486 209.791V211.127C218.484 210.096 218.89 209.106 219.617 208.374C220.344 207.643 221.331 207.23 222.361 207.227H253.314C253.825 207.225 254.332 207.325 254.804 207.521C255.276 207.717 255.704 208.004 256.064 208.368C256.791 209.099 257.199 210.088 257.199 211.12V209.784C257.196 208.751 256.786 207.762 256.057 207.032Z" fill="#FD8D3C"/>
</g>
</g>
<g style="mix-blend-mode:multiply" opacity="0.19">
<g style="mix-blend-mode:multiply" opacity="0.19">
<path d="M254.205 213.248H221.472C220.382 213.245 219.338 212.809 218.57 212.035C217.802 211.262 217.371 210.215 217.374 209.125V216.471C217.372 217.011 217.477 217.546 217.682 218.046C217.887 218.545 218.189 219 218.569 219.383C218.949 219.766 219.402 220.07 219.9 220.278C220.398 220.486 220.932 220.594 221.472 220.596H254.205C254.745 220.595 255.279 220.487 255.777 220.279C256.276 220.071 256.728 219.767 257.109 219.383C257.49 219 257.791 218.546 257.996 218.046C258.201 217.546 258.306 217.011 258.305 216.471V209.125C258.306 209.665 258.201 210.2 257.996 210.7C257.79 211.199 257.489 211.653 257.108 212.036C256.727 212.419 256.275 212.723 255.777 212.931C255.279 213.139 254.744 213.247 254.205 213.248Z" fill="#C6C7C8"/>
</g>
</g>
<g style="mix-blend-mode:multiply" opacity="0.42">
<g style="mix-blend-mode:multiply" opacity="0.42">
<path d="M254.205 219.026H221.472C220.932 219.024 220.398 218.916 219.9 218.708C219.402 218.5 218.949 218.196 218.569 217.812C218.189 217.429 217.887 216.975 217.682 216.475C217.477 215.976 217.372 215.441 217.374 214.9V216.459C217.372 216.999 217.477 217.534 217.682 218.034C217.887 218.534 218.189 218.988 218.569 219.371C218.949 219.754 219.402 220.059 219.9 220.267C220.398 220.475 220.932 220.583 221.472 220.585H254.205C254.745 220.583 255.279 220.476 255.777 220.268C256.276 220.059 256.728 219.755 257.109 219.372C257.49 218.989 257.791 218.534 257.996 218.035C258.201 217.535 258.306 216.999 258.305 216.459V214.9C258.306 215.441 258.201 215.976 257.996 216.476C257.791 216.976 257.49 217.43 257.109 217.813C256.728 218.196 256.276 218.501 255.777 218.709C255.279 218.917 254.745 219.025 254.205 219.026Z" fill="#C6C7C8"/>
</g>
</g>
<path d="M216.817 208.678V216.461C216.819 217.552 216.389 218.598 215.621 219.372C214.852 220.145 213.809 220.581 212.719 220.584H179.984C178.895 220.579 177.854 220.142 177.087 219.369C176.32 218.596 175.891 217.55 175.894 216.461V208.678C175.891 207.587 176.321 206.54 177.089 205.767C177.858 204.994 178.902 204.558 179.991 204.555H212.719C213.809 204.558 214.852 204.994 215.621 205.767C216.389 206.54 216.819 207.587 216.817 208.678Z" fill="#FD8D3C"/>
<g style="mix-blend-mode:screen" opacity="0.49">
<g style="mix-blend-mode:screen" opacity="0.49">
<path d="M214.458 207.032C214.098 206.668 213.67 206.381 213.198 206.185C212.726 205.989 212.219 205.889 211.708 205.891H180.763C179.732 205.894 178.745 206.307 178.018 207.038C177.292 207.77 176.885 208.76 176.888 209.791V211.127C176.885 210.096 177.292 209.106 178.018 208.374C178.745 207.643 179.732 207.23 180.763 207.227H211.718C212.229 207.225 212.736 207.325 213.208 207.521C213.68 207.717 214.108 208.004 214.468 208.368C215.195 209.099 215.603 210.088 215.603 211.12V209.784C215.6 208.751 215.188 207.762 214.458 207.032Z" fill="#FD8D3C"/>
</g>
</g>
<g style="mix-blend-mode:multiply" opacity="0.19">
<g style="mix-blend-mode:multiply" opacity="0.19">
<path d="M212.606 213.248H179.873C178.783 213.245 177.74 212.809 176.971 212.035C176.203 211.262 175.773 210.215 175.775 209.125V216.471C175.774 217.011 175.878 217.546 176.083 218.046C176.289 218.545 176.59 219 176.97 219.383C177.351 219.766 177.803 220.07 178.301 220.278C178.799 220.486 179.333 220.594 179.873 220.596H212.606C213.146 220.595 213.68 220.487 214.179 220.279C214.677 220.071 215.129 219.767 215.51 219.383C215.891 219 216.192 218.546 216.398 218.046C216.603 217.546 216.708 217.011 216.706 216.471V209.125C216.707 209.665 216.602 210.2 216.397 210.7C216.192 211.199 215.89 211.653 215.509 212.036C215.129 212.419 214.676 212.723 214.178 212.931C213.68 213.139 213.146 213.247 212.606 213.248Z" fill="#C6C7C8"/>
</g>
</g>
<g style="mix-blend-mode:multiply" opacity="0.42">
<g style="mix-blend-mode:multiply" opacity="0.42">
<path d="M212.606 219.026H179.873C179.333 219.024 178.799 218.916 178.301 218.708C177.803 218.5 177.351 218.196 176.97 217.812C176.59 217.429 176.289 216.975 176.083 216.475C175.878 215.976 175.774 215.441 175.775 214.9V216.459C175.774 216.999 175.878 217.534 176.083 218.034C176.289 218.534 176.59 218.988 176.97 219.371C177.351 219.754 177.803 220.059 178.301 220.267C178.799 220.475 179.333 220.583 179.873 220.585H212.606C213.146 220.583 213.68 220.476 214.179 220.268C214.677 220.059 215.129 219.755 215.51 219.372C215.891 218.989 216.192 218.534 216.398 218.035C216.603 217.535 216.708 216.999 216.706 216.459V214.9C216.708 215.441 216.603 215.976 216.398 216.476C216.192 216.976 215.891 217.43 215.51 217.813C215.129 218.196 214.677 218.501 214.179 218.709C213.68 218.917 213.146 219.025 212.606 219.026Z" fill="#C6C7C8"/>
</g>
</g>
<path d="M175.219 208.678V216.461C175.222 217.552 174.792 218.598 174.023 219.372C173.255 220.145 172.211 220.581 171.121 220.584H138.393C137.304 220.581 136.26 220.145 135.492 219.372C134.723 218.598 134.293 217.552 134.296 216.461V208.678C134.293 207.587 134.723 206.54 135.492 205.767C136.26 204.994 137.304 204.558 138.393 204.555H171.121C172.211 204.558 173.255 204.994 174.023 205.767C174.792 206.54 175.222 207.587 175.219 208.678Z" fill="#FD8D3C"/>
<g style="mix-blend-mode:screen" opacity="0.49">
<g style="mix-blend-mode:screen" opacity="0.49">
<path d="M172.861 207.032C172.501 206.668 172.072 206.381 171.6 206.185C171.128 205.989 170.622 205.889 170.111 205.891H139.165C138.134 205.894 137.147 206.307 136.421 207.038C135.694 207.77 135.287 208.76 135.29 209.791V211.127C135.287 210.096 135.694 209.106 136.421 208.374C137.147 207.643 138.134 207.23 139.165 207.227H170.121C170.632 207.225 171.138 207.325 171.61 207.521C172.082 207.717 172.511 208.004 172.871 208.368C173.597 209.099 174.005 210.088 174.006 211.12V209.784C174.002 208.751 173.59 207.762 172.861 207.032Z" fill="#FD8D3C"/>
</g>
</g>
<g style="mix-blend-mode:multiply" opacity="0.19">
<g style="mix-blend-mode:multiply" opacity="0.19">
<path d="M171.008 213.248H138.275C137.186 213.245 136.142 212.809 135.374 212.035C134.605 211.262 134.175 210.215 134.178 209.125V216.471C134.176 217.011 134.281 217.546 134.486 218.046C134.691 218.545 134.992 219 135.373 219.383C135.753 219.766 136.205 220.07 136.703 220.278C137.201 220.486 137.736 220.594 138.275 220.596H171.008C171.548 220.595 172.083 220.487 172.581 220.279C173.079 220.071 173.532 219.767 173.912 219.383C174.293 219 174.595 218.546 174.8 218.046C175.005 217.546 175.11 217.011 175.108 216.471V209.125C175.11 209.665 175.005 210.2 174.799 210.7C174.594 211.199 174.292 211.653 173.912 212.036C173.531 212.419 173.079 212.723 172.58 212.931C172.082 213.139 171.548 213.247 171.008 213.248Z" fill="#C6C7C8"/>
</g>
</g>
<g style="mix-blend-mode:multiply" opacity="0.42">
<g style="mix-blend-mode:multiply" opacity="0.42">
<path d="M171.008 219.026H138.275C137.736 219.024 137.201 218.916 136.703 218.708C136.205 218.5 135.753 218.196 135.373 217.812C134.992 217.429 134.691 216.975 134.486 216.475C134.281 215.976 134.176 215.441 134.178 214.9V216.459C134.176 216.999 134.281 217.534 134.486 218.034C134.691 218.534 134.992 218.988 135.373 219.371C135.753 219.754 136.205 220.059 136.703 220.267C137.201 220.475 137.736 220.583 138.275 220.585H171.008C171.548 220.583 172.083 220.476 172.581 220.268C173.079 220.059 173.532 219.755 173.912 219.372C174.293 218.989 174.595 218.534 174.8 218.035C175.005 217.535 175.11 216.999 175.108 216.459V214.9C175.11 215.441 175.005 215.976 174.8 216.476C174.595 216.976 174.293 217.43 173.912 217.813C173.532 218.196 173.079 218.501 172.581 218.709C172.083 218.917 171.548 219.025 171.008 219.026Z" fill="#C6C7C8"/>
</g>
</g>
<path d="M337.823 221.14H138.07C136.83 221.139 135.641 220.645 134.764 219.768C133.887 218.89 133.394 217.7 133.393 216.459V208.679C133.395 207.438 133.888 206.249 134.765 205.372C135.642 204.495 136.83 204.001 138.07 204H337.823C339.063 204 340.252 204.493 341.13 205.37C342.007 206.247 342.5 207.437 342.501 208.679V216.459C342.499 217.7 342.006 218.89 341.129 219.768C340.252 220.645 339.063 221.139 337.823 221.14ZM138.07 205.113C137.125 205.114 136.219 205.49 135.551 206.158C134.883 206.827 134.506 207.733 134.505 208.679V216.459C134.506 217.405 134.882 218.312 135.551 218.981C136.219 219.649 137.125 220.026 138.07 220.027H337.823C338.768 220.026 339.674 219.649 340.342 218.981C341.011 218.312 341.387 217.405 341.388 216.459V208.679C341.388 208.21 341.296 207.746 341.117 207.314C340.937 206.881 340.675 206.488 340.344 206.157C340.013 205.826 339.62 205.563 339.187 205.384C338.755 205.205 338.291 205.113 337.823 205.113H138.07Z" fill="#F7E46C"/>
<g style="mix-blend-mode:multiply" opacity="0.57">
<g style="mix-blend-mode:multiply" opacity="0.57">
<path d="M341.933 268.684V276.464C341.934 277.006 341.827 277.542 341.62 278.043C341.413 278.543 341.11 278.998 340.727 279.381C340.345 279.764 339.89 280.067 339.39 280.274C338.89 280.481 338.354 280.588 337.813 280.588H138.061C137.519 280.588 136.983 280.482 136.483 280.275C135.983 280.068 135.528 279.764 135.146 279.381C134.763 278.998 134.46 278.544 134.253 278.043C134.046 277.543 133.94 277.006 133.94 276.464V268.684C133.94 268.142 134.046 267.606 134.253 267.105C134.46 266.605 134.764 266.15 135.146 265.767C135.529 265.385 135.983 265.081 136.483 264.874C136.983 264.667 137.519 264.56 138.061 264.561H337.813C338.906 264.561 339.953 264.996 340.726 265.769C341.498 266.542 341.933 267.59 341.933 268.684Z" fill="#C6C7C8"/>
</g>
</g>
<g style="mix-blend-mode:multiply" opacity="0.19">
<g style="mix-blend-mode:multiply" opacity="0.19">
<path d="M136.15 280.114C136.743 280.428 137.404 280.592 138.075 280.59H139.883L153.341 264.562H149.748L136.15 280.114Z" fill="#C6C7C8"/>
</g>
</g>
<g style="mix-blend-mode:multiply" opacity="0.19">
<g style="mix-blend-mode:multiply" opacity="0.19">
<path d="M155.855 280.588H162.796L174.726 264.559H167.156L155.855 280.588Z" fill="#C6C7C8"/>
</g>
</g>
<g style="mix-blend-mode:multiply" opacity="0.19">
<g style="mix-blend-mode:multiply" opacity="0.19">
<path d="M200.231 264.559L187.693 280.588H190.401L203.081 264.559H200.231Z" fill="#C6C7C8"/>
</g>
</g>
<g style="mix-blend-mode:multiply" opacity="0.19">
<g style="mix-blend-mode:multiply" opacity="0.19">
<path d="M200.068 280.588H209.586L220.931 264.559H211.101L200.068 280.588Z" fill="#C6C7C8"/>
</g>
</g>
<g style="mix-blend-mode:multiply" opacity="0.19">
<g style="mix-blend-mode:multiply" opacity="0.19">
<path d="M246.107 280.588H252.89L264.673 264.559H257.133L246.107 280.588Z" fill="#C6C7C8"/>
</g>
</g>
<g style="mix-blend-mode:multiply" opacity="0.19">
<g style="mix-blend-mode:multiply" opacity="0.19">
<path d="M277.675 280.588H285.442L298.888 264.559H290.758L277.675 280.588Z" fill="#C6C7C8"/>
</g>
</g>
<g style="mix-blend-mode:multiply" opacity="0.19">
<g style="mix-blend-mode:multiply" opacity="0.19">
<path d="M323.255 264.559L312.41 280.588H317.278L327.798 264.559H323.255Z" fill="#C6C7C8"/>
</g>
</g>
<path d="M258.415 268.684V276.465C258.417 277.005 258.312 277.54 258.107 278.039C257.902 278.539 257.6 278.993 257.22 279.376C256.839 279.759 256.387 280.063 255.889 280.271C255.391 280.479 254.857 280.586 254.317 280.588H221.582C221.042 280.586 220.508 280.479 220.01 280.271C219.512 280.063 219.06 279.759 218.68 279.376C218.299 278.993 217.998 278.539 217.793 278.039C217.587 277.54 217.483 277.005 217.484 276.465V268.684C217.483 268.144 217.587 267.609 217.793 267.109C217.998 266.61 218.299 266.155 218.68 265.772C219.06 265.39 219.512 265.085 220.01 264.878C220.508 264.67 221.042 264.562 221.582 264.561H254.317C254.681 264.56 255.042 264.609 255.392 264.706C256.083 264.893 256.712 265.26 257.215 265.769C257.597 266.152 257.899 266.607 258.105 267.107C258.311 267.607 258.416 268.143 258.415 268.684Z" fill="#F7E46C"/>
<g style="mix-blend-mode:screen" opacity="0.49">
<g style="mix-blend-mode:screen" opacity="0.49">
<path d="M256.056 267.037C255.696 266.674 255.268 266.387 254.796 266.191C254.324 265.995 253.817 265.895 253.306 265.897H222.361C221.851 265.897 221.345 265.999 220.874 266.196C220.403 266.392 219.975 266.679 219.615 267.041C219.255 267.403 218.97 267.833 218.776 268.305C218.581 268.778 218.482 269.284 218.483 269.794V271.135C218.482 270.625 218.581 270.118 218.775 269.646C218.97 269.173 219.255 268.744 219.615 268.382C219.975 268.019 220.403 267.732 220.874 267.535C221.345 267.338 221.85 267.236 222.361 267.235H253.314C253.825 267.234 254.331 267.335 254.804 267.531C255.276 267.727 255.704 268.015 256.064 268.378C256.791 269.11 257.199 270.099 257.199 271.13V269.794C257.198 268.76 256.787 267.769 256.056 267.037Z" fill="#222222"/>
</g>
</g>
<g style="mix-blend-mode:multiply" opacity="0.19">
<g style="mix-blend-mode:multiply" opacity="0.19">
<path d="M254.205 273.242H221.472C220.932 273.241 220.398 273.133 219.9 272.925C219.402 272.717 218.95 272.413 218.569 272.03C218.189 271.647 217.887 271.193 217.682 270.694C217.477 270.194 217.372 269.659 217.374 269.119V276.465C217.372 277.005 217.477 277.54 217.682 278.039C217.887 278.539 218.189 278.993 218.569 279.376C218.95 279.759 219.402 280.063 219.9 280.271C220.398 280.479 220.932 280.586 221.472 280.588H254.205C254.744 280.586 255.279 280.479 255.777 280.271C256.275 280.063 256.727 279.759 257.108 279.376C257.489 278.993 257.79 278.539 257.996 278.039C258.201 277.54 258.306 277.005 258.305 276.465V269.119C258.306 269.659 258.201 270.194 257.996 270.694C257.79 271.193 257.489 271.648 257.108 272.03C256.727 272.413 256.275 272.717 255.777 272.925C255.279 273.133 254.744 273.241 254.205 273.242Z" fill="#C6C7C8"/>
</g>
</g>
<g style="mix-blend-mode:multiply" opacity="0.42">
<g style="mix-blend-mode:multiply" opacity="0.42">
<path d="M254.205 279.029H221.472C220.932 279.028 220.398 278.92 219.9 278.712C219.402 278.504 218.95 278.2 218.569 277.817C218.189 277.435 217.887 276.98 217.682 276.481C217.477 275.981 217.372 275.446 217.374 274.906V276.465C217.372 277.005 217.477 277.54 217.682 278.04C217.887 278.539 218.189 278.993 218.569 279.376C218.95 279.759 219.402 280.063 219.9 280.271C220.398 280.479 220.932 280.587 221.472 280.588H254.205C254.744 280.587 255.279 280.479 255.777 280.271C256.275 280.063 256.727 279.759 257.108 279.376C257.489 278.993 257.79 278.539 257.996 278.04C258.201 277.54 258.306 277.005 258.305 276.465V274.906C258.306 275.446 258.201 275.982 257.996 276.481C257.79 276.981 257.489 277.435 257.108 277.818C256.727 278.2 256.275 278.505 255.777 278.712C255.279 278.92 254.744 279.028 254.205 279.029Z" fill="#C6C7C8"/>
</g>
</g>
<path d="M216.816 268.684V276.465C216.818 277.005 216.713 277.54 216.508 278.039C216.303 278.539 216.002 278.993 215.621 279.376C215.241 279.759 214.789 280.063 214.29 280.271C213.792 280.479 213.258 280.586 212.719 280.588H179.983C179.444 280.586 178.91 280.479 178.412 280.271C177.914 280.063 177.461 279.759 177.081 279.376C176.7 278.993 176.399 278.539 176.194 278.039C175.989 277.54 175.884 277.005 175.886 276.465V268.684C175.884 268.144 175.989 267.609 176.194 267.109C176.399 266.61 176.7 266.155 177.081 265.772C177.461 265.39 177.914 265.085 178.412 264.878C178.91 264.67 179.444 264.562 179.983 264.561H212.719C213.082 264.56 213.444 264.609 213.794 264.706C214.484 264.893 215.113 265.26 215.616 265.769C215.998 266.152 216.3 266.607 216.506 267.107C216.712 267.607 216.818 268.143 216.816 268.684Z" fill="#F7E46C"/>
<g style="mix-blend-mode:screen" opacity="0.49">
<g style="mix-blend-mode:screen" opacity="0.49">
<path d="M214.458 267.037C214.098 266.674 213.67 266.386 213.198 266.191C212.726 265.995 212.219 265.895 211.708 265.897H180.763C180.253 265.898 179.748 266 179.277 266.196C178.806 266.393 178.378 266.68 178.019 267.042C177.659 267.404 177.374 267.834 177.18 268.306C176.986 268.778 176.886 269.284 176.888 269.794V271.135C176.885 270.104 177.292 269.114 178.018 268.382C178.745 267.651 179.732 267.238 180.763 267.235H211.716C212.227 267.234 212.733 267.334 213.205 267.53C213.678 267.727 214.106 268.015 214.466 268.378C215.192 269.11 215.6 270.099 215.601 271.13V269.794C215.6 268.76 215.189 267.769 214.458 267.037Z" fill="#222222"/>
</g>
</g>
<g style="mix-blend-mode:multiply" opacity="0.19">
<g style="mix-blend-mode:multiply" opacity="0.19">
<path d="M212.606 273.242H179.873C178.783 273.239 177.74 272.803 176.971 272.03C176.203 271.256 175.773 270.21 175.775 269.119V276.465C175.773 277.555 176.203 278.602 176.971 279.375C177.74 280.148 178.783 280.584 179.873 280.588H212.606C213.146 280.586 213.68 280.479 214.178 280.271C214.676 280.063 215.129 279.759 215.509 279.376C215.89 278.993 216.192 278.539 216.397 278.039C216.602 277.54 216.707 277.005 216.706 276.465V269.119C216.707 269.659 216.602 270.194 216.397 270.694C216.192 271.193 215.89 271.648 215.509 272.03C215.129 272.413 214.676 272.717 214.178 272.925C213.68 273.133 213.146 273.241 212.606 273.242Z" fill="#C6C7C8"/>
</g>
</g>
<g style="mix-blend-mode:multiply" opacity="0.42">
<g style="mix-blend-mode:multiply" opacity="0.42">
<path d="M212.606 279.029H179.873C178.783 279.026 177.74 278.59 176.971 277.817C176.203 277.044 175.773 275.997 175.775 274.906V276.465C175.773 277.555 176.203 278.602 176.971 279.375C177.74 280.149 178.783 280.585 179.873 280.588H212.606C213.146 280.587 213.68 280.479 214.178 280.271C214.676 280.063 215.129 279.759 215.509 279.376C215.89 278.993 216.192 278.539 216.397 278.04C216.602 277.54 216.707 277.005 216.706 276.465V274.906C216.707 275.446 216.602 275.982 216.397 276.481C216.192 276.981 215.89 277.435 215.509 277.818C215.129 278.2 214.676 278.505 214.178 278.712C213.68 278.92 213.146 279.028 212.606 279.029Z" fill="#C6C7C8"/>
</g>
</g>
<path d="M175.218 268.684V276.465C175.219 277.005 175.115 277.54 174.91 278.039C174.705 278.539 174.403 278.993 174.023 279.376C173.642 279.759 173.19 280.063 172.692 280.271C172.194 280.479 171.66 280.586 171.12 280.588H138.385C137.845 280.586 137.311 280.479 136.813 280.271C136.315 280.063 135.863 279.759 135.482 279.376C135.102 278.993 134.8 278.539 134.595 278.039C134.39 277.54 134.285 277.005 134.287 276.465V268.684C134.285 268.144 134.39 267.609 134.595 267.109C134.8 266.61 135.102 266.155 135.482 265.772C135.863 265.39 136.315 265.085 136.813 264.878C137.311 264.67 137.845 264.562 138.385 264.561H171.12C171.483 264.56 171.845 264.609 172.195 264.706C172.886 264.893 173.515 265.26 174.018 265.769C174.399 266.152 174.702 266.607 174.908 267.107C175.114 267.607 175.219 268.143 175.218 268.684Z" fill="#F7E46C"/>
<g style="mix-blend-mode:screen" opacity="0.49">
<g style="mix-blend-mode:screen" opacity="0.49">
<path d="M172.86 267.037C172.5 266.674 172.071 266.386 171.599 266.191C171.127 265.995 170.621 265.895 170.11 265.897H139.164C138.654 265.898 138.149 266 137.678 266.196C137.207 266.393 136.78 266.68 136.42 267.042C136.06 267.404 135.775 267.834 135.581 268.306C135.387 268.778 135.288 269.284 135.289 269.794V271.135C135.286 270.104 135.693 269.114 136.42 268.382C137.146 267.651 138.134 267.238 139.164 267.235H170.12C170.631 267.234 171.137 267.334 171.609 267.53C172.081 267.727 172.51 268.015 172.87 268.378C173.596 269.11 174.004 270.099 174.005 271.13V269.794C174.003 268.76 173.591 267.768 172.86 267.037Z" fill="#222222"/>
</g>
</g>
<g style="mix-blend-mode:multiply" opacity="0.19">
<g style="mix-blend-mode:multiply" opacity="0.19">
<path d="M171.008 273.242H138.275C137.186 273.238 136.142 272.802 135.375 272.029C134.607 271.256 134.177 270.209 134.18 269.119V276.465C134.177 277.555 134.607 278.602 135.376 279.375C136.144 280.148 137.188 280.584 138.277 280.588H171.01C171.55 280.586 172.084 280.479 172.582 280.271C173.081 280.063 173.533 279.759 173.914 279.376C174.294 278.993 174.596 278.539 174.801 278.039C175.007 277.54 175.112 277.005 175.11 276.465V269.119C175.112 269.659 175.007 270.195 174.801 270.695C174.596 271.194 174.294 271.648 173.913 272.031C173.532 272.414 173.079 272.718 172.581 272.926C172.082 273.134 171.548 273.241 171.008 273.242Z" fill="#C6C7C8"/>
</g>
</g>
<g style="mix-blend-mode:multiply" opacity="0.42">
<g style="mix-blend-mode:multiply" opacity="0.42">
<path d="M171.008 279.029H138.275C137.186 279.025 136.142 278.589 135.375 277.816C134.607 277.043 134.177 275.996 134.18 274.906V276.465C134.177 277.555 134.607 278.602 135.376 279.375C136.144 280.149 137.188 280.585 138.277 280.588H171.01C171.55 280.587 172.084 280.479 172.582 280.271C173.081 280.063 173.533 279.759 173.914 279.376C174.294 278.993 174.596 278.539 174.801 278.04C175.007 277.54 175.112 277.005 175.11 276.465V274.906C175.112 275.447 175.007 275.982 174.801 276.482C174.596 276.981 174.294 277.436 173.913 277.818C173.532 278.201 173.079 278.505 172.581 278.713C172.082 278.921 171.548 279.028 171.008 279.029Z" fill="#C6C7C8"/>
</g>
</g>
<path d="M337.823 281.143H138.07C136.83 281.142 135.641 280.648 134.764 279.77C133.887 278.893 133.394 277.703 133.393 276.462V268.681C133.394 267.44 133.887 266.25 134.764 265.372C135.641 264.495 136.83 264.001 138.07 264H337.823C339.064 264 340.253 264.493 341.131 265.371C342.008 266.249 342.501 267.44 342.501 268.681V276.462C342.499 277.703 342.005 278.892 341.128 279.77C340.252 280.647 339.063 281.141 337.823 281.143ZM138.07 265.113C137.125 265.115 136.219 265.491 135.551 266.16C134.882 266.829 134.506 267.735 134.505 268.681V276.462C134.506 277.408 134.882 278.314 135.551 278.983C136.219 279.652 137.125 280.028 138.07 280.03H337.823C338.768 280.028 339.674 279.652 340.342 278.983C341.011 278.314 341.387 277.408 341.388 276.462V268.681C341.387 267.735 341.012 266.828 340.343 266.159C339.675 265.49 338.768 265.114 337.823 265.113H138.07Z" fill="#F7E46C"/>
<path d="M136.913 188.209V191.089H141.95V193.113H136.913V197.081H134.393V186.188H142.618V188.209H136.913Z" fill="white"/>
<path d="M151.265 197.08L149.165 194.045H146.848V197.08H144.33V186.187H149.04C149.898 186.169 150.75 186.332 151.54 186.667C152.209 186.954 152.779 187.431 153.18 188.038C153.574 188.666 153.774 189.396 153.755 190.137C153.785 190.872 153.585 191.598 153.184 192.214C152.783 192.83 152.201 193.307 151.518 193.578L153.958 197.08H151.265ZM150.628 188.731C150.233 188.398 149.657 188.231 148.9 188.231H146.848V192.026H148.9C149.657 192.026 150.233 191.86 150.628 191.526C150.814 191.343 150.963 191.125 151.064 190.884C151.165 190.643 151.217 190.384 151.217 190.122C151.217 189.861 151.165 189.602 151.064 189.361C150.963 189.12 150.814 188.902 150.628 188.719V188.731Z" fill="white"/>
<path d="M157.978 196.534C157.096 196.072 156.359 195.374 155.848 194.518C155.456 193.872 155.199 193.153 155.094 192.404C154.989 191.656 155.038 190.894 155.237 190.165C155.436 189.436 155.782 188.755 156.254 188.164C156.725 187.574 157.312 187.085 157.978 186.73C158.924 186.25 159.969 186 161.029 186C162.089 186 163.135 186.25 164.08 186.73C164.97 187.199 165.712 187.906 166.225 188.771C166.738 189.637 167.002 190.627 166.988 191.633C167.002 192.639 166.738 193.629 166.225 194.494C165.712 195.359 164.97 196.065 164.08 196.534C163.135 197.014 162.089 197.264 161.029 197.264C159.969 197.264 158.924 197.014 157.978 196.534ZM162.775 194.676C163.291 194.38 163.713 193.947 163.995 193.425C164.286 192.867 164.438 192.248 164.438 191.619C164.438 190.991 164.286 190.372 163.995 189.814C163.711 189.297 163.289 188.869 162.775 188.578C162.241 188.286 161.642 188.133 161.033 188.133C160.424 188.133 159.825 188.286 159.29 188.578C158.777 188.869 158.355 189.297 158.07 189.814C157.78 190.372 157.628 190.991 157.628 191.619C157.628 192.248 157.78 192.867 158.07 193.425C158.353 193.947 158.775 194.38 159.29 194.676C159.825 194.966 160.424 195.118 161.033 195.118C161.642 195.118 162.241 194.966 162.775 194.676Z" fill="white"/>
<path d="M178.868 186.188V197.081H176.798L171.37 190.466V197.081H168.87V186.188H170.978L176.388 192.8V186.188H178.868Z" fill="white"/>
<path d="M183.704 188.242H180.229V186.188H189.714V188.242H186.229V197.081H183.704V188.242Z" fill="white"/>
<path d="M190.016 191.727H194.418V193.676H190.016V191.727Z" fill="white"/>
<path d="M204.931 195.057V197.081H196.501V186.188H204.729V188.209H199.006V190.576H204.059V192.535H199.006V195.057H204.931Z" fill="white"/>
<path d="M216.919 186.188V197.081H214.852L209.424 190.466V197.081H206.937V186.188H209.019L214.432 192.8V186.188H216.919Z" fill="white"/>
<path d="M219.501 186.187H224.446C225.529 186.165 226.601 186.396 227.579 186.862C228.451 187.283 229.185 187.944 229.694 188.769C230.188 189.642 230.449 190.629 230.449 191.632C230.449 192.636 230.188 193.623 229.694 194.496C229.186 195.321 228.452 195.983 227.579 196.402C226.601 196.869 225.529 197.101 224.446 197.08H219.501V186.187ZM224.321 195.009C225.411 195.009 226.279 194.705 226.926 194.098C227.573 193.491 227.897 192.669 227.899 191.634C227.899 190.596 227.574 189.774 226.926 189.167C226.278 188.56 225.409 188.256 224.321 188.256H222.021V195.011L224.321 195.009Z" fill="white"/>
<path d="M143.848 252.387C144.21 252.88 144.397 253.48 144.378 254.091C144.396 254.522 144.303 254.95 144.108 255.334C143.913 255.717 143.621 256.044 143.263 256.283C142.523 256.798 141.439 257.055 140.013 257.053H134.393V246.16H139.713C141.046 246.16 142.064 246.414 142.768 246.923C143.105 247.15 143.38 247.459 143.566 247.821C143.752 248.182 143.844 248.585 143.833 248.992C143.843 249.488 143.713 249.976 143.457 250.4C143.202 250.825 142.831 251.167 142.388 251.389C142.967 251.561 143.477 251.91 143.848 252.387ZM136.898 248.069V250.636H139.398C139.891 250.669 140.383 250.555 140.813 250.311C140.97 250.206 141.097 250.061 141.182 249.892C141.267 249.723 141.306 249.534 141.295 249.345C141.306 249.157 141.267 248.969 141.182 248.801C141.097 248.633 140.97 248.49 140.813 248.387C140.381 248.148 139.89 248.038 139.398 248.069H136.898ZM141.338 254.839C141.501 254.731 141.633 254.581 141.721 254.406C141.809 254.23 141.849 254.034 141.838 253.838C141.838 252.938 141.171 252.487 139.838 252.485H136.898V255.177H139.838C140.359 255.207 140.879 255.09 141.338 254.839Z" fill="white"/>
<path d="M153.458 254.731H148.405L147.44 257.065H144.86L149.71 246.172H152.21L157.078 257.065H154.433L153.458 254.731ZM152.665 252.817L150.94 248.646L149.213 252.817H152.665Z" fill="white"/>
<path d="M160.248 256.534C159.374 256.073 158.642 255.381 158.133 254.532C157.629 253.648 157.363 252.648 157.363 251.63C157.363 250.612 157.629 249.612 158.133 248.728C158.642 247.879 159.373 247.187 160.248 246.726C161.179 246.235 162.219 245.985 163.271 246.001C164.15 245.988 165.022 246.158 165.831 246.501C166.575 246.82 167.233 247.31 167.751 247.932L166.134 249.433C165.801 249.027 165.381 248.701 164.905 248.48C164.429 248.259 163.908 248.148 163.384 248.157C162.755 248.146 162.133 248.299 161.581 248.6C161.053 248.888 160.619 249.323 160.331 249.851C160.04 250.408 159.888 251.028 159.888 251.656C159.888 252.285 160.04 252.904 160.331 253.461C160.622 253.984 161.055 254.412 161.581 254.697C162.133 254.999 162.754 255.153 163.384 255.143C163.91 255.15 164.431 255.038 164.908 254.814C165.384 254.589 165.803 254.26 166.134 253.849L167.751 255.35C167.234 255.981 166.573 256.478 165.824 256.799C165.011 257.141 164.137 257.311 163.256 257.299C162.205 257.301 161.171 257.037 160.248 256.534Z" fill="white"/>
<path d="M173.411 252.782L171.948 254.305V257.057H169.448V246.164H171.948V251.253L176.768 246.164H179.568L175.068 251.02L179.843 257.057H176.903L173.411 252.782Z" fill="white"/>
<path d="M179.91 251.713H184.31V253.657H179.91V251.713Z" fill="white"/>
<path d="M194.824 255.032V257.053H186.396V246.16H194.622V248.184H188.899V250.548H193.954V252.53H188.899V255.032H194.824Z" fill="white"/>
<path d="M206.813 246.172V257.065H204.746L199.318 250.453V257.065H196.818V246.172H198.903L204.313 252.787V246.172H206.813Z" fill="white"/>
<path d="M209.394 246.171H214.339C215.422 246.149 216.496 246.381 217.474 246.849C218.346 247.269 219.08 247.931 219.589 248.756C220.082 249.629 220.341 250.616 220.341 251.619C220.341 252.623 220.082 253.609 219.589 254.483C219.079 255.306 218.345 255.968 217.474 256.389C216.495 256.855 215.422 257.086 214.339 257.065H209.394V246.171ZM214.216 254.996C215.304 254.996 216.173 254.692 216.821 254.085C217.47 253.478 217.793 252.655 217.791 251.618C217.791 250.582 217.468 249.76 216.821 249.151C216.174 248.542 215.306 248.239 214.216 248.24H211.914V254.996H214.216Z" fill="white"/>
<g style="mix-blend-mode:multiply" opacity="0.57">
<g style="mix-blend-mode:multiply" opacity="0.57">
<path d="M341.943 324.689V332.473C341.943 333.566 341.509 334.615 340.737 335.388C339.964 336.162 338.916 336.596 337.823 336.596H138.071C136.979 336.594 135.933 336.159 135.162 335.386C134.391 334.613 133.958 333.565 133.958 332.473V324.689C133.958 324.148 134.064 323.612 134.271 323.112C134.478 322.612 134.781 322.157 135.163 321.774C135.546 321.391 136 321.088 136.499 320.88C136.999 320.673 137.535 320.566 138.076 320.566H337.828C338.921 320.567 339.968 321.002 340.741 321.775C341.513 322.548 341.948 323.596 341.948 324.689H341.943Z" fill="#C6C7C8"/>
</g>
</g>
<g style="mix-blend-mode:multiply" opacity="0.19">
<g style="mix-blend-mode:multiply" opacity="0.19">
<path d="M136.15 336.118C136.742 336.433 137.403 336.597 138.073 336.596H139.883L153.341 320.566H149.748L136.15 336.118Z" fill="#C6C7C8"/>
</g>
</g>
<g style="mix-blend-mode:multiply" opacity="0.19">
<g style="mix-blend-mode:multiply" opacity="0.19">
<path d="M155.854 336.593H162.794L174.726 320.566H167.154L155.854 336.593Z" fill="#C6C7C8"/>
</g>
</g>
<g style="mix-blend-mode:multiply" opacity="0.19">
<g style="mix-blend-mode:multiply" opacity="0.19">
<path d="M200.229 320.566L187.693 336.593H190.401L203.079 320.566H200.229Z" fill="#C6C7C8"/>
</g>
</g>
<g style="mix-blend-mode:multiply" opacity="0.19">
<g style="mix-blend-mode:multiply" opacity="0.19">
<path d="M200.069 336.593H209.587L220.932 320.566H211.102L200.069 336.593Z" fill="#C6C7C8"/>
</g>
</g>
<g style="mix-blend-mode:multiply" opacity="0.19">
<g style="mix-blend-mode:multiply" opacity="0.19">
<path d="M246.107 336.593H252.888L264.673 320.566H257.13L246.107 336.593Z" fill="#C6C7C8"/>
</g>
</g>
<g style="mix-blend-mode:multiply" opacity="0.19">
<g style="mix-blend-mode:multiply" opacity="0.19">
<path d="M277.673 336.593H285.44L298.886 320.566H290.758L277.673 336.593Z" fill="#C6C7C8"/>
</g>
</g>
<g style="mix-blend-mode:multiply" opacity="0.19">
<g style="mix-blend-mode:multiply" opacity="0.19">
<path d="M323.255 320.566L312.41 336.593H317.278L327.798 320.566H323.255Z" fill="#C6C7C8"/>
</g>
</g>
<path d="M258.414 324.689V332.473C258.417 333.563 257.986 334.61 257.218 335.383C256.45 336.156 255.406 336.593 254.316 336.596H221.581C220.491 336.593 219.448 336.156 218.679 335.383C217.911 334.61 217.481 333.563 217.483 332.473V324.689C217.481 323.599 217.911 322.552 218.679 321.779C219.448 321.006 220.491 320.57 221.581 320.566H254.316C254.68 320.567 255.041 320.616 255.391 320.712C256.081 320.899 256.709 321.266 257.211 321.775C257.593 322.158 257.896 322.612 258.103 323.112C258.309 323.613 258.415 324.148 258.414 324.689Z" fill="#B02E75"/>
<g style="mix-blend-mode:screen" opacity="0.49">
<g style="mix-blend-mode:screen" opacity="0.49">
<path d="M256.054 323.046C255.695 322.682 255.266 322.393 254.794 322.197C254.322 322 253.815 321.9 253.304 321.902H222.358C221.328 321.906 220.341 322.318 219.614 323.05C218.887 323.781 218.481 324.771 218.483 325.803V327.134C218.481 326.102 218.887 325.112 219.614 324.381C220.341 323.649 221.328 323.237 222.358 323.233H253.314C253.825 323.231 254.331 323.331 254.804 323.527C255.276 323.723 255.704 324.011 256.064 324.374C256.792 325.105 257.2 326.095 257.199 327.126V325.79C257.196 324.76 256.784 323.773 256.054 323.046Z" fill="#222222"/>
</g>
</g>
<g style="mix-blend-mode:multiply" opacity="0.19">
<g style="mix-blend-mode:multiply" opacity="0.19">
<path d="M254.209 329.248H221.471C220.931 329.247 220.397 329.139 219.899 328.931C219.401 328.723 218.949 328.419 218.568 328.036C218.187 327.653 217.885 327.199 217.68 326.7C217.475 326.2 217.37 325.665 217.371 325.125V332.471C217.369 333.011 217.474 333.546 217.679 334.046C217.885 334.546 218.186 335 218.567 335.383C218.948 335.767 219.4 336.071 219.898 336.279C220.397 336.487 220.931 336.595 221.471 336.596H254.209C254.749 336.594 255.283 336.486 255.781 336.278C256.279 336.07 256.731 335.766 257.112 335.383C257.492 335 257.794 334.545 257.999 334.046C258.204 333.546 258.308 333.011 258.307 332.471V325.133C258.307 326.222 257.876 327.267 257.108 328.038C256.34 328.81 255.297 329.245 254.209 329.248Z" fill="#C6C7C8"/>
</g>
</g>
<g style="mix-blend-mode:multiply" opacity="0.42">
<g style="mix-blend-mode:multiply" opacity="0.42">
<path d="M254.209 335.038H221.471C220.931 335.036 220.397 334.929 219.898 334.721C219.4 334.513 218.948 334.208 218.567 333.825C218.186 333.442 217.885 332.987 217.679 332.488C217.474 331.988 217.369 331.452 217.371 330.912V332.471C217.369 333.011 217.474 333.547 217.679 334.046C217.885 334.546 218.186 335.001 218.567 335.384C218.948 335.767 219.4 336.071 219.898 336.279C220.397 336.487 220.931 336.595 221.471 336.596H254.209C254.749 336.595 255.283 336.487 255.781 336.279C256.279 336.07 256.731 335.766 257.112 335.383C257.492 335 257.794 334.545 257.999 334.046C258.204 333.546 258.308 333.011 258.307 332.471V330.912C258.308 331.452 258.204 331.987 257.999 332.487C257.794 332.987 257.492 333.441 257.112 333.824C256.731 334.207 256.279 334.512 255.781 334.72C255.283 334.928 254.749 335.036 254.209 335.038Z" fill="#C6C7C8"/>
</g>
</g>
<path d="M301.002 324.512V332.295C301.005 333.386 300.574 334.432 299.806 335.206C299.038 335.979 297.994 336.415 296.904 336.418H264.169C263.079 336.415 262.036 335.979 261.267 335.206C260.499 334.432 260.069 333.386 260.071 332.295V324.512C260.069 323.421 260.499 322.374 261.267 321.601C262.036 320.828 263.079 320.392 264.169 320.389H296.904C297.267 320.39 297.627 320.438 297.977 320.534C298.668 320.721 299.297 321.089 299.799 321.6C300.181 321.982 300.484 322.436 300.69 322.936C300.896 323.436 301.002 323.971 301.002 324.512Z" fill="#B13777"/>
<g style="mix-blend-mode:screen" opacity="0.49">
<g style="mix-blend-mode:screen" opacity="0.49">
<path d="M298.642 322.88C298.282 322.516 297.854 322.228 297.382 322.031C296.91 321.835 296.403 321.735 295.892 321.736H264.959C263.928 321.74 262.941 322.152 262.215 322.884C261.488 323.615 261.081 324.605 261.084 325.637V326.973C261.081 325.941 261.488 324.951 262.215 324.22C262.941 323.488 263.928 323.076 264.959 323.072H295.914C296.945 323.076 297.932 323.488 298.659 324.22C299.386 324.951 299.792 325.941 299.79 326.973V325.632C299.788 325.12 299.686 324.614 299.49 324.141C299.293 323.669 299.005 323.24 298.642 322.88Z" fill="#222222"/>
</g>
</g>
<g style="mix-blend-mode:multiply" opacity="0.19">
<g style="mix-blend-mode:multiply" opacity="0.19">
<path d="M296.792 329.073H264.059C263.519 329.072 262.985 328.964 262.486 328.756C261.988 328.548 261.536 328.243 261.155 327.86C260.774 327.477 260.473 327.023 260.267 326.523C260.062 326.023 259.957 325.488 259.959 324.947V332.295C259.958 332.835 260.063 333.371 260.268 333.87C260.473 334.37 260.775 334.824 261.156 335.207C261.536 335.59 261.989 335.894 262.487 336.102C262.985 336.309 263.519 336.417 264.059 336.418H296.792C297.882 336.415 298.925 335.979 299.694 335.206C300.462 334.433 300.892 333.386 300.89 332.295V324.947C300.891 325.487 300.787 326.023 300.582 326.522C300.377 327.022 300.075 327.476 299.695 327.859C299.314 328.242 298.862 328.547 298.364 328.755C297.866 328.963 297.332 329.071 296.792 329.073Z" fill="#C6C7C8"/>
</g>
</g>
<g style="mix-blend-mode:multiply" opacity="0.42">
<g style="mix-blend-mode:multiply" opacity="0.42">
<path d="M296.792 334.859H264.059C263.519 334.858 262.985 334.75 262.487 334.543C261.989 334.335 261.536 334.031 261.156 333.648C260.775 333.265 260.473 332.811 260.268 332.311C260.063 331.812 259.958 331.276 259.959 330.736V332.295C259.958 332.835 260.063 333.37 260.268 333.87C260.473 334.369 260.775 334.823 261.156 335.206C261.536 335.589 261.989 335.893 262.487 336.101C262.985 336.309 263.519 336.417 264.059 336.418H296.792C297.882 336.415 298.925 335.979 299.694 335.205C300.462 334.432 300.892 333.385 300.89 332.295V330.736C300.892 331.827 300.462 332.874 299.694 333.647C298.925 334.42 297.882 334.856 296.792 334.859Z" fill="#C6C7C8"/>
</g>
</g>
<path d="M216.816 324.689V332.473C216.818 333.014 216.712 333.549 216.507 334.049C216.301 334.549 215.998 335.004 215.617 335.387C215.235 335.77 214.782 336.074 214.283 336.281C213.784 336.489 213.249 336.596 212.709 336.596H179.983C178.894 336.593 177.85 336.156 177.082 335.383C176.313 334.61 175.883 333.563 175.886 332.473V324.689C175.883 323.599 176.313 322.552 177.082 321.779C177.85 321.006 178.894 320.57 179.983 320.566H212.709C213.072 320.567 213.433 320.616 213.784 320.712C214.473 320.899 215.101 321.266 215.604 321.775C215.988 322.157 216.293 322.611 216.501 323.111C216.709 323.611 216.816 324.148 216.816 324.689Z" fill="#B02E75"/>
<g style="mix-blend-mode:screen" opacity="0.49">
<g style="mix-blend-mode:screen" opacity="0.49">
<path d="M214.459 323.046C214.099 322.682 213.671 322.393 213.199 322.197C212.727 322 212.22 321.9 211.709 321.902H180.763C180.253 321.904 179.748 322.006 179.276 322.202C178.805 322.399 178.377 322.687 178.017 323.049C177.657 323.411 177.372 323.841 177.178 324.313C176.984 324.786 176.884 325.292 176.886 325.803V327.134C176.884 326.623 176.984 326.117 177.178 325.644C177.372 325.172 177.657 324.742 178.017 324.38C178.377 324.018 178.805 323.73 179.276 323.533C179.748 323.337 180.253 323.235 180.763 323.233H211.709C212.22 323.231 212.726 323.331 213.198 323.527C213.671 323.723 214.099 324.011 214.459 324.374C215.186 325.105 215.594 326.095 215.594 327.126V325.79C215.593 324.761 215.185 323.774 214.459 323.046Z" fill="#222222"/>
</g>
</g>
<g style="mix-blend-mode:multiply" opacity="0.19">
<g style="mix-blend-mode:multiply" opacity="0.19">
<path d="M212.606 329.248H179.874C179.334 329.247 178.8 329.139 178.301 328.931C177.803 328.723 177.351 328.419 176.97 328.036C176.589 327.653 176.288 327.199 176.082 326.7C175.877 326.2 175.772 325.665 175.773 325.125V332.471C175.772 333.011 175.877 333.546 176.082 334.046C176.287 334.546 176.589 335 176.969 335.383C177.35 335.767 177.803 336.071 178.301 336.279C178.799 336.487 179.334 336.595 179.874 336.596H212.606C213.147 336.595 213.681 336.488 214.18 336.28C214.679 336.072 215.131 335.768 215.512 335.384C215.893 335.001 216.195 334.547 216.4 334.047C216.606 333.547 216.711 333.011 216.709 332.471V325.133C216.71 326.223 216.278 327.268 215.509 328.04C214.74 328.812 213.696 329.246 212.606 329.248Z" fill="#C6C7C8"/>
</g>
</g>
<g style="mix-blend-mode:multiply" opacity="0.42">
<g style="mix-blend-mode:multiply" opacity="0.42">
<path d="M212.606 335.038H179.874C179.334 335.036 178.799 334.929 178.301 334.721C177.803 334.513 177.35 334.208 176.969 333.825C176.589 333.442 176.287 332.987 176.082 332.488C175.877 331.988 175.772 331.452 175.773 330.912V332.471C175.772 333.011 175.877 333.547 176.082 334.046C176.287 334.546 176.589 335.001 176.969 335.384C177.35 335.767 177.803 336.071 178.301 336.279C178.799 336.487 179.334 336.595 179.874 336.596H212.606C213.147 336.595 213.681 336.488 214.18 336.28C214.679 336.072 215.131 335.768 215.512 335.385C215.893 335.001 216.195 334.547 216.4 334.047C216.606 333.547 216.711 333.011 216.709 332.471V330.912C216.711 331.453 216.606 331.988 216.4 332.488C216.195 332.988 215.893 333.443 215.512 333.826C215.131 334.209 214.679 334.513 214.18 334.721C213.681 334.929 213.147 335.037 212.606 335.038Z" fill="#C6C7C8"/>
</g>
</g>
<path d="M175.209 324.689V332.473C175.211 333.563 174.781 334.61 174.013 335.383C173.244 336.156 172.201 336.593 171.111 336.596H138.386C137.296 336.593 136.252 336.156 135.484 335.383C134.716 334.61 134.285 333.563 134.288 332.473V324.689C134.285 323.599 134.716 322.552 135.484 321.779C136.252 321.006 137.296 320.57 138.386 320.566H171.121C171.484 320.567 171.846 320.616 172.196 320.712C172.886 320.899 173.514 321.266 174.016 321.775C174.397 322.158 174.698 322.613 174.903 323.113C175.107 323.613 175.211 324.149 175.209 324.689Z" fill="#B02E75"/>
<g style="mix-blend-mode:screen" opacity="0.49">
<g style="mix-blend-mode:screen" opacity="0.49">
<path d="M172.86 323.046C172.5 322.682 172.072 322.394 171.6 322.197C171.128 322.001 170.621 321.901 170.11 321.902H139.165C138.654 321.904 138.149 322.006 137.678 322.202C137.207 322.399 136.779 322.687 136.419 323.049C136.059 323.411 135.773 323.841 135.579 324.313C135.385 324.786 135.286 325.292 135.287 325.803V327.134C135.286 326.623 135.385 326.117 135.579 325.644C135.773 325.172 136.059 324.742 136.419 324.38C136.779 324.018 137.207 323.73 137.678 323.533C138.149 323.337 138.654 323.235 139.165 323.233H170.118C170.629 323.232 171.135 323.332 171.607 323.528C172.079 323.724 172.508 324.011 172.868 324.374C173.594 325.106 174.002 326.095 174.003 327.126V325.79C173.999 324.76 173.588 323.774 172.86 323.046Z" fill="#222222"/>
</g>
</g>
<g style="mix-blend-mode:multiply" opacity="0.19">
<g style="mix-blend-mode:multiply" opacity="0.19">
<path d="M171.008 329.248H138.275C137.187 329.246 136.144 328.811 135.376 328.039C134.607 327.267 134.176 326.222 134.178 325.133V332.478C134.176 333.019 134.28 333.554 134.485 334.054C134.69 334.554 134.991 335.008 135.372 335.391C135.753 335.774 136.205 336.079 136.703 336.287C137.201 336.495 137.735 336.603 138.275 336.604H171.008C171.548 336.603 172.082 336.495 172.581 336.287C173.079 336.079 173.531 335.774 173.912 335.391C174.292 335.008 174.594 334.554 174.798 334.054C175.003 333.554 175.108 333.019 175.106 332.478V325.133C175.107 326.222 174.676 327.267 173.908 328.039C173.14 328.811 172.097 329.246 171.008 329.248Z" fill="#C6C7C8"/>
</g>
</g>
<g style="mix-blend-mode:multiply" opacity="0.42">
<g style="mix-blend-mode:multiply" opacity="0.42">
<path d="M171.008 335.038H138.275C137.735 335.036 137.201 334.929 136.703 334.721C136.205 334.512 135.753 334.208 135.372 333.825C134.991 333.442 134.69 332.987 134.485 332.487C134.28 331.988 134.176 331.452 134.178 330.912V332.471C134.176 333.011 134.28 333.546 134.485 334.046C134.69 334.546 134.991 335 135.372 335.384C135.753 335.767 136.205 336.071 136.703 336.279C137.201 336.487 137.735 336.595 138.275 336.596H171.008C171.548 336.595 172.082 336.487 172.581 336.279C173.079 336.071 173.531 335.767 173.912 335.384C174.292 335 174.594 334.546 174.798 334.046C175.003 333.546 175.108 333.011 175.106 332.471V330.912C175.108 331.452 175.003 331.988 174.798 332.487C174.594 332.987 174.292 333.442 173.912 333.825C173.531 334.208 173.079 334.512 172.581 334.721C172.082 334.929 171.548 335.036 171.008 335.038Z" fill="#C6C7C8"/>
</g>
</g>
<path d="M337.823 337.14H138.07C136.83 337.139 135.641 336.646 134.764 335.768C133.887 334.89 133.394 333.7 133.393 332.459V324.679C133.394 323.438 133.887 322.248 134.764 321.371C135.641 320.494 136.83 320.001 138.07 320H337.823C338.437 320 339.045 320.12 339.612 320.355C340.18 320.59 340.695 320.935 341.129 321.37C341.564 321.804 341.908 322.32 342.143 322.888C342.378 323.456 342.498 324.064 342.498 324.679V332.459C342.497 333.7 342.005 334.89 341.128 335.768C340.252 336.645 339.063 337.139 337.823 337.14ZM138.07 321.113C137.125 321.114 136.219 321.49 135.551 322.158C134.883 322.827 134.506 323.733 134.505 324.679V332.459C134.506 333.405 134.882 334.312 135.551 334.981C136.219 335.649 137.125 336.026 138.07 336.027H337.823C338.768 336.026 339.674 335.649 340.342 334.981C341.011 334.312 341.387 333.405 341.388 332.459V324.679C341.388 324.21 341.296 323.746 341.117 323.314C340.937 322.881 340.675 322.488 340.344 322.157C340.013 321.826 339.62 321.563 339.187 321.384C338.755 321.205 338.291 321.113 337.823 321.113H138.07Z" fill="#F7E46C"/>
<path d="M141.993 310.757H136.938L135.973 313.091H133.393L138.245 302.195H140.733L145.6 313.091H142.955L141.993 310.757ZM141.198 308.843L139.473 304.672L137.748 308.843H141.198Z" fill="white"/>
<path d="M146.735 302.195H151.68C152.763 302.174 153.836 302.406 154.813 302.873C155.686 303.293 156.42 303.954 156.928 304.779C157.423 305.652 157.683 306.639 157.683 307.643C157.683 308.646 157.423 309.633 156.928 310.506C156.42 311.331 155.686 311.993 154.813 312.412C153.836 312.879 152.763 313.111 151.68 313.09H146.735V302.195ZM151.555 311.019C152.645 311.019 153.514 310.715 154.16 310.108C154.807 309.501 155.131 308.68 155.133 307.644C155.133 306.605 154.809 305.782 154.16 305.177C153.512 304.571 152.644 304.268 151.555 304.266H149.255V311.021L151.555 311.019Z" fill="white"/>
<path d="M169.688 302.195L164.97 313.091H162.483L157.785 302.195H160.508L163.82 309.979L167.178 302.195H169.688Z" fill="white"/>
<path d="M177.401 310.757H172.346L171.383 313.091H168.801L173.653 302.195H176.141L181.008 313.091H178.366L177.401 310.757ZM176.608 308.843L174.881 304.672L173.156 308.843H176.608Z" fill="white"/>
<path d="M192.129 302.195V313.091H190.059L184.631 306.476V313.091H182.144V302.195H184.221L189.631 308.81V302.195H192.129Z" fill="white"/>
<path d="M196.909 312.55C196.035 312.088 195.303 311.396 194.794 310.549C194.289 309.665 194.023 308.664 194.023 307.646C194.023 306.628 194.289 305.628 194.794 304.744C195.303 303.896 196.034 303.204 196.909 302.743C197.769 302.309 198.713 302.064 199.676 302.025C200.638 301.986 201.599 302.154 202.491 302.518C203.236 302.836 203.895 303.327 204.414 303.949L202.796 305.45C202.465 305.045 202.047 304.72 201.573 304.499C201.099 304.279 200.581 304.167 200.059 304.174C199.429 304.162 198.806 304.316 198.254 304.619C197.734 304.907 197.306 305.335 197.019 305.855C196.728 306.412 196.576 307.032 196.576 307.66C196.576 308.289 196.728 308.908 197.019 309.465C197.304 309.991 197.732 310.425 198.254 310.716C198.807 311.018 199.429 311.17 200.059 311.159C200.583 311.165 201.102 311.052 201.576 310.829C202.05 310.605 202.467 310.277 202.796 309.868L204.414 311.369C203.897 312.001 203.235 312.497 202.484 312.815C201.672 313.157 200.799 313.328 199.919 313.316C198.867 313.318 197.832 313.055 196.909 312.55Z" fill="white"/>
<path d="M214.537 311.067V313.091H206.106V302.195H214.334V304.219H208.611V306.586H213.664V308.548H208.611V311.069L214.537 311.067Z" fill="white"/>
<path d="M216.541 302.195H221.486C222.57 302.174 223.643 302.406 224.621 302.873C225.493 303.294 226.226 303.955 226.734 304.779C227.228 305.652 227.489 306.639 227.489 307.643C227.489 308.646 227.228 309.633 226.734 310.506C226.226 311.331 225.493 311.992 224.621 312.412C223.643 312.879 222.57 313.111 221.486 313.09H216.541V302.195ZM221.361 311.019C222.451 311.019 223.319 310.715 223.966 310.108C224.613 309.501 224.937 308.68 224.939 307.644C224.939 306.605 224.614 305.782 223.966 305.177C223.318 304.571 222.449 304.268 221.361 304.266H219.061V311.021L221.361 311.019Z" fill="white"/>
<path d="M242.221 311.067V313.091H233.786V302.195H242.014V304.219H236.291V306.586H241.344V308.548H236.291V311.069L242.221 311.067Z" fill="white"/>
<path d="M254.204 302.195V313.091H252.137L246.722 306.476V313.091H244.222V302.195H246.304L251.717 308.81V302.195H254.204Z" fill="white"/>
<path d="M264.142 307.471H266.444V311.892C265.825 312.352 265.131 312.699 264.392 312.918C263.631 313.155 262.839 313.275 262.042 313.276C260.982 313.293 259.934 313.044 258.994 312.553C258.116 312.094 257.381 311.401 256.872 310.551C256.367 309.667 256.102 308.667 256.102 307.649C256.102 306.631 256.367 305.631 256.872 304.747C257.384 303.893 258.124 303.2 259.009 302.745C259.961 302.254 261.019 302.006 262.089 302.022C262.979 302.01 263.861 302.174 264.687 302.505C265.442 302.81 266.114 303.29 266.647 303.906L265.029 305.407C264.674 305.015 264.239 304.702 263.754 304.49C263.268 304.278 262.744 304.171 262.214 304.176C261.571 304.164 260.935 304.314 260.364 304.612C259.839 304.894 259.405 305.321 259.114 305.843C258.817 306.401 258.662 307.023 258.662 307.655C258.662 308.287 258.817 308.91 259.114 309.468C259.405 309.994 259.838 310.428 260.364 310.719C260.926 311.021 261.555 311.173 262.192 311.162C262.874 311.173 263.548 311.012 264.152 310.694L264.142 307.471Z" fill="white"/>
<path d="M268.777 302.195H271.295V311.049H276.755V313.104H268.777V302.195Z" fill="white"/>
<path d="M278.17 302.195H280.687V313.091H278.17V302.195Z" fill="white"/>
<path d="M284.35 312.926C283.654 312.745 282.998 312.436 282.415 312.015L283.27 310.119C283.777 310.48 284.338 310.758 284.933 310.942C285.556 311.147 286.207 311.252 286.863 311.254C287.578 311.254 288.106 311.148 288.448 310.934C288.6 310.851 288.726 310.728 288.814 310.579C288.902 310.43 288.948 310.259 288.948 310.086C288.95 309.963 288.924 309.84 288.871 309.728C288.819 309.616 288.742 309.518 288.645 309.441C288.414 309.255 288.151 309.115 287.868 309.028C287.549 308.924 287.122 308.81 286.585 308.685C285.894 308.53 285.214 308.333 284.548 308.095C284.021 307.899 283.553 307.573 283.188 307.146C282.788 306.653 282.586 306.029 282.62 305.395C282.61 304.785 282.784 304.186 283.12 303.676C283.506 303.127 284.044 302.702 284.668 302.453C285.471 302.132 286.331 301.978 287.195 302.002C287.882 302.003 288.566 302.087 289.233 302.253C289.85 302.398 290.441 302.641 290.983 302.971L290.205 304.885C289.292 304.34 288.251 304.045 287.188 304.029C286.483 304.029 285.962 304.142 285.625 304.369C285.471 304.464 285.344 304.597 285.256 304.755C285.169 304.913 285.123 305.092 285.125 305.272C285.125 305.454 285.181 305.632 285.285 305.781C285.389 305.93 285.537 306.043 285.708 306.106C286.282 306.344 286.879 306.523 287.49 306.641C288.18 306.798 288.859 306.996 289.525 307.234C290.049 307.428 290.517 307.748 290.888 308.167C291.287 308.652 291.49 309.269 291.455 309.896C291.459 310.504 291.276 311.098 290.933 311.6C290.54 312.149 289.998 312.573 289.37 312.821C288.564 313.141 287.702 313.295 286.835 313.271C285.995 313.275 285.158 313.159 284.35 312.926Z" fill="white"/>
<path d="M303.175 302.195V313.091H300.655V308.623H295.722V313.091H293.202V302.195H295.722V306.491H300.667V302.195H303.175Z" fill="white"/>
<path d="M188.456 41.4106C187.353 41.1184 186.315 40.6222 185.393 39.9474L186.747 36.9187C187.549 37.497 188.438 37.9417 189.38 38.2355C190.366 38.5582 191.396 38.7228 192.433 38.7232C193.298 38.7906 194.166 38.6222 194.944 38.2355C195.189 38.1061 195.394 37.9119 195.537 37.6738C195.68 37.4358 195.756 37.1629 195.757 36.8845C195.76 36.6871 195.718 36.4918 195.634 36.3134C195.55 36.135 195.427 35.9783 195.273 35.8554C194.909 35.5585 194.492 35.335 194.044 35.197C193.561 35.0312 192.864 34.8507 192.012 34.6508C190.919 34.4024 189.841 34.0881 188.785 33.7095C187.951 33.396 187.21 32.874 186.631 32.1927C186.001 31.4101 185.68 30.4196 185.731 29.4127C185.721 28.4372 186.005 27.4816 186.544 26.6717C187.156 25.7968 188.007 25.1193 188.993 24.7208C190.264 24.2096 191.626 23.9657 192.994 24.0039C194.082 24.0021 195.166 24.1348 196.222 24.3989C197.195 24.6303 198.126 25.0155 198.98 25.5402L197.751 28.5933C196.302 27.7265 194.655 27.2558 192.97 27.2277C192.111 27.167 191.253 27.3566 190.498 27.7739C190.247 27.9246 190.041 28.1394 189.9 28.3964C189.759 28.6534 189.688 28.9434 189.694 29.2371C189.694 29.5279 189.782 29.8117 189.948 30.05C190.113 30.2882 190.347 30.4693 190.619 30.5686C191.528 30.9492 192.473 31.2352 193.44 31.4221C194.533 31.6724 195.611 31.9884 196.667 32.3683C197.496 32.6763 198.236 33.1875 198.82 33.8558C199.452 34.6282 199.774 35.6116 199.72 36.6114C199.728 37.5811 199.439 38.5295 198.893 39.328C198.271 40.2037 197.413 40.8808 196.42 41.2789C195.143 41.789 193.777 42.0329 192.404 41.9958C191.067 41.9896 189.738 41.7926 188.456 41.4106Z" fill="#F1F1F1"/>
<path d="M208.735 34.8462L206.422 37.2848V41.6743H202.459V24.2969H206.417V32.4125L214.053 24.2969H218.514L211.372 32.0418L218.93 41.6694H214.275L208.735 34.8462Z" fill="#F1F1F1"/>
<path d="M220.682 24.2969H224.669V41.6694H220.682V24.2969Z" fill="#F1F1F1"/>
<path d="M228.758 24.2969H232.745V38.3968H241.392V41.6694H228.758V24.2969Z" fill="#F1F1F1"/>
<path d="M243.633 24.2969H247.62V38.3968H256.257V41.6694H243.628L243.633 24.2969Z" fill="#F1F1F1"/>
<path d="M260.127 41.4107C259.024 41.1171 257.984 40.6211 257.06 39.9476L258.414 36.9188C259.218 37.4977 260.108 37.9423 261.052 38.2357C262.038 38.5592 263.068 38.7238 264.105 38.7234C264.97 38.7908 265.838 38.6223 266.616 38.2357C266.861 38.1062 267.066 37.912 267.209 37.674C267.352 37.436 267.428 37.1631 267.429 36.8847C267.432 36.6873 267.39 36.4919 267.306 36.3135C267.222 36.1351 267.099 35.9785 266.945 35.8556C266.579 35.5586 266.161 35.3351 265.711 35.1972C265.227 35.0314 264.536 34.8509 263.679 34.6509C262.587 34.402 261.511 34.0877 260.456 33.7096C259.621 33.3963 258.879 32.8744 258.298 32.1928C257.668 31.4102 257.347 30.4198 257.398 29.4128C257.388 28.4374 257.672 27.4818 258.211 26.6719C258.824 25.7957 259.676 25.1179 260.664 24.721C261.936 24.209 263.298 23.965 264.666 24.004C265.754 24.0029 266.838 24.1355 267.894 24.3991C268.866 24.6296 269.795 25.0148 270.647 25.5404L269.418 28.5935C267.971 27.7258 266.325 27.255 264.642 27.2279C263.781 27.1673 262.921 27.3569 262.164 27.7741C261.916 27.9258 261.711 28.1409 261.571 28.3977C261.43 28.6546 261.36 28.9442 261.366 29.2373C261.364 29.5284 261.452 29.8128 261.618 30.0514C261.783 30.2899 262.018 30.4707 262.29 30.5687C263.198 30.9495 264.141 31.2355 265.107 31.4222C266.2 31.6719 267.278 31.9879 268.334 32.3684C269.164 32.6751 269.904 33.1865 270.487 33.856C271.119 34.6283 271.441 35.6118 271.387 36.6116C271.394 37.5804 271.107 38.5281 270.565 39.3282C269.942 40.205 269.082 40.8823 268.087 41.279C266.812 41.7897 265.447 42.0336 264.076 41.996C262.739 41.9898 261.409 41.7927 260.127 41.4107Z" fill="#F1F1F1"/>
<path d="M408.893 12C408.893 18.3143 403.335 23.5 396.393 23.5C389.451 23.5 383.893 18.3143 383.893 12C383.893 5.68565 389.451 0.5 396.393 0.5C403.335 0.5 408.893 5.68565 408.893 12Z" stroke="#EDF049"/>
<path d="M511.871 98.75L517.5 89L523.129 98.75H511.871Z" stroke="#B02E75"/>
<path d="M2.47372 71.5L12 55L21.5263 71.5H2.47372Z" stroke="#FD8D3C"/>
<path d="M462.799 266.509L478.682 259.338L477.205 276.702L462.799 266.509Z" stroke="#EDF049"/>
<path d="M37.8926 364.5C37.8926 367.779 35.018 370.5 31.3926 370.5C27.7672 370.5 24.8926 367.779 24.8926 364.5C24.8926 361.221 27.7672 358.5 31.3926 358.5C35.018 358.5 37.8926 361.221 37.8926 364.5Z" stroke="#BA68C8"/>
<rect x="358.707" y="401.07" width="9" height="9" transform="rotate(-45 358.707 401.07)" stroke="#B02E75"/>
<rect x="11.2328" y="239.664" width="13.2464" height="13.2464" transform="rotate(24.8563 11.2328 239.664)" stroke="#EDF049"/>
</svg>
