<svg width="250" height="207" viewBox="0 0 250 207" fill="none" xmlns="http://www.w3.org/2000/svg">
<path d="M250 20.5312H0V183.29H250V20.5312Z" fill="white"/>
<path d="M200.918 68.5898H159.748V97.2647H200.918V68.5898Z" fill="#96C6EA"/>
<path d="M118.578 75.2422H77.5225V130.183H118.692V75.2422H118.578Z" fill="#FFE647"/>
<path d="M77.5229 140.736H38.3027V163.562H77.5229V140.736Z" fill="#F8D6FF"/>
<path d="M240.137 131.445H200.917V163.561H240.137V131.445Z" fill="#FFE647"/>
<path d="M240.137 92.5625H200.917V107.359H240.137V92.5625Z" fill="#F8D6FF"/>
<path d="M240.137 67.7871H200.917V82.5833H240.137V67.7871Z" fill="#FFE647"/>
<path d="M77.5229 61.25H38.3027V81.093H77.5229V61.25Z" fill="#96C6EA"/>
<path d="M159.748 86.3691H118.578V107.589H159.748V86.3691Z" fill="#F8D6FF"/>
<path d="M159.748 115.846H118.578V137.065H159.748V115.846Z" fill="#96C6EA"/>
<path d="M250 39.4573H0V19.8437C0 13.7646 4.81651 8.94727 10.7798 8.94727H239.105C245.069 8.94727 249.885 13.8793 249.885 19.8437V39.4573H250Z" fill="#657FDB"/>
<path d="M92.2021 29.2478C94.9544 29.2478 97.248 26.9539 97.248 24.2011C97.248 21.4483 94.9544 19.1543 92.2021 19.1543C89.4498 19.1543 87.1562 21.4483 87.1562 24.2011C87.1562 26.9539 89.4498 29.2478 92.2021 29.2478Z" fill="white"/>
<path d="M122.133 29.2478C124.885 29.2478 127.179 26.9539 127.179 24.2011C127.179 21.4483 124.885 19.1543 122.133 19.1543C119.38 19.1543 117.087 21.4483 117.087 24.2011C117.087 26.9539 119.266 29.2478 122.133 29.2478Z" fill="white"/>
<path d="M152.064 29.2478C154.817 29.2478 157.11 26.9539 157.11 24.2011C157.11 21.4483 154.817 19.1543 152.064 19.1543C149.312 19.1543 147.019 21.4483 147.019 24.2011C147.019 26.9539 149.312 29.2478 152.064 29.2478Z" fill="white"/>
<path d="M181.995 29.2478C184.747 29.2478 187.041 26.9539 187.041 24.2011C187.041 21.4483 184.747 19.1543 181.995 19.1543C179.243 19.1543 176.949 21.4483 176.949 24.2011C176.949 26.9539 179.243 29.2478 181.995 29.2478Z" fill="white"/>
<path d="M211.927 29.2478C214.679 29.2478 216.973 26.9539 216.973 24.2011C216.973 21.4483 214.679 19.1543 211.927 19.1543C209.174 19.1543 206.881 21.4483 206.881 24.2011C206.881 26.9539 209.06 29.2478 211.927 29.2478Z" fill="white"/>
<path d="M92.431 24.8903H92.2017C90.3668 24.8903 88.876 23.3992 88.876 21.4493V3.55621C88.876 1.72103 90.3668 0.115234 92.2017 0.115234H92.431C94.2659 0.115234 95.7567 1.60633 95.7567 3.55621V21.564C95.642 23.2845 94.1512 24.8903 92.431 24.8903Z" fill="#FFDF3D"/>
<path d="M65.1377 29.2478C67.89 29.2478 70.1835 26.9539 70.1835 24.2011C70.1835 21.4483 67.89 19.1543 65.1377 19.1543C62.3854 19.1543 60.0918 21.4483 60.0918 24.2011C60.0918 27.0686 62.3854 29.2478 65.1377 29.2478Z" fill="white"/>
<path d="M32.4541 28.9041C35.2064 28.9041 37.5 26.6101 37.5 23.8573C37.5 21.1045 35.2064 18.8105 32.4541 18.8105C29.7018 18.8105 27.4082 21.1045 27.4082 23.8573C27.4082 26.6101 29.5871 28.9041 32.4541 28.9041Z" fill="white"/>
<path d="M65.2523 24.6604H65.023C63.1881 24.6604 61.6973 23.1693 61.6973 21.2194V3.44098C61.6973 1.60579 63.1881 0 65.023 0H65.2523C67.0872 0 68.578 1.49109 68.578 3.44098V21.4488C68.578 23.1693 67.2019 24.6604 65.2523 24.6604Z" fill="#FFDF3D"/>
<path d="M32.4545 24.6604H32.2251C30.3902 24.6604 28.8994 23.1693 28.8994 21.2194V3.44098C28.8994 1.60579 30.3902 0 32.2251 0H32.4545C34.2893 0 35.7801 1.49109 35.7801 3.44098V21.4488C35.8948 23.1693 34.2893 24.6604 32.4545 24.6604Z" fill="#FFDF3D"/>
<path d="M122.247 24.8903H122.018C120.183 24.8903 118.692 23.3992 118.692 21.4493V3.55621C118.692 1.72103 120.183 0.115234 122.018 0.115234H122.247C124.082 0.115234 125.573 1.60633 125.573 3.55621V21.564C125.573 23.2845 124.082 24.8903 122.247 24.8903Z" fill="#FFDF3D"/>
<path d="M152.179 24.8903H151.95C150.115 24.8903 148.624 23.3992 148.624 21.4493V3.55621C148.624 1.72103 150.115 0.115234 151.95 0.115234H152.179C154.014 0.115234 155.505 1.60633 155.505 3.55621V21.564C155.505 23.2845 154.014 24.8903 152.179 24.8903Z" fill="#FFDF3D"/>
<path d="M182.11 24.8903H181.88C180.046 24.8903 178.555 23.3992 178.555 21.4493V3.55621C178.555 1.72103 180.046 0.115234 181.88 0.115234H182.11C183.945 0.115234 185.435 1.60633 185.435 3.55621V21.564C185.435 23.2845 183.83 24.8903 182.11 24.8903Z" fill="#FFDF3D"/>
<path d="M211.927 24.8903H211.698C209.863 24.8903 208.372 23.3992 208.372 21.4493V3.55621C208.372 1.72103 209.863 0.115234 211.698 0.115234H211.927C213.762 0.115234 215.253 1.60633 215.253 3.55621V21.564C215.367 23.2845 213.877 24.8903 211.927 24.8903Z" fill="#FFDF3D"/>
<path d="M126.146 120.664H151.949" stroke="#D9F7FF" stroke-miterlimit="10"/>
<path d="M126.146 124.562H151.949" stroke="#D9F7FF" stroke-miterlimit="10"/>
<path d="M126.146 128.348H151.949" stroke="#D9F7FF" stroke-miterlimit="10"/>
<path d="M126.146 132.133H151.949" stroke="#D9F7FF" stroke-miterlimit="10"/>
<path d="M84.2891 84.6484H110.092" stroke="#757575" stroke-miterlimit="10"/>
<path d="M84.2891 88.4336H110.092" stroke="#757575" stroke-miterlimit="10"/>
<path d="M84.2891 92.2188H110.092" stroke="#757575" stroke-miterlimit="10"/>
<path d="M84.2891 96.1172H110.092" stroke="#757575" stroke-miterlimit="10"/>
<path d="M167.432 77.1934H193.234" stroke="#D9F7FF" stroke-miterlimit="10"/>
<path d="M167.432 80.9785H193.234" stroke="#D9F7FF" stroke-miterlimit="10"/>
<path d="M167.432 84.877H193.234" stroke="#D9F7FF" stroke-miterlimit="10"/>
<path d="M167.432 88.5469H193.234" stroke="#D9F7FF" stroke-miterlimit="10"/>
<path d="M212.614 140.965H228.325" stroke="#888888" stroke-miterlimit="10"/>
<path d="M212.614 146.127H228.325" stroke="#888888" stroke-miterlimit="10"/>
<path d="M212.614 151.289H228.325" stroke="#888888" stroke-miterlimit="10"/>
<path d="M212.614 156.449H228.325" stroke="#888888" stroke-miterlimit="10"/>
<path d="M55.5045 50.0098V57.3505H53.899V51.3862H50.5733V57.3505H48.9678V50.0098H55.5045Z" fill="#5E5E5E"/>
<path d="M63.9908 50.0098V57.3505H62.3853V54.3683H59.0596V57.3505H57.4541V50.0098H59.0596V52.8772H62.3853V50.0098H63.9908Z" fill="#5E5E5E"/>
<path d="M8.02709 59.0703V62.7407H7.56838V59.5291H6.76562V59.0703H8.02709Z" fill="#727272"/>
<path d="M9.51857 62.5113C9.28921 62.2819 9.05986 62.1672 8.94518 61.9378C8.8305 61.7084 8.71582 61.3643 8.71582 60.9055C8.71582 60.5614 8.8305 60.2173 8.94518 59.8732C9.05986 59.6438 9.28921 59.2997 9.51857 59.2997C9.74793 59.185 10.092 59.0703 10.3213 59.0703C10.5507 59.0703 10.8947 59.185 11.1241 59.2997C11.3534 59.5291 11.5828 59.6438 11.6975 59.8732C11.8121 60.1026 11.9268 60.4467 11.9268 60.9055C11.9268 61.2496 11.8121 61.5937 11.6975 61.9378C11.5828 62.1672 11.3534 62.5113 11.1241 62.5113C10.8947 62.626 10.6654 62.7407 10.3213 62.7407C10.092 62.7407 9.74793 62.7407 9.51857 62.5113ZM11.0094 61.9378C11.2388 61.7084 11.2388 61.3643 11.2388 60.9055C11.2388 60.4467 11.1241 60.1026 11.0094 59.8732C10.78 59.6438 10.5507 59.5291 10.3213 59.5291C10.092 59.5291 9.74793 59.6438 9.63325 59.8732C9.40389 60.1026 9.40389 60.4467 9.40389 60.9055C9.40389 61.3643 9.51857 61.7084 9.63325 61.9378C9.86261 62.1672 10.092 62.2819 10.3213 62.2819C10.6654 62.2819 10.78 62.1672 11.0094 61.9378Z" fill="#727272"/>
<path d="M12.4999 60.7903C12.2705 60.5609 12.2705 60.3315 12.2705 59.9874C12.2705 59.6433 12.3852 59.4139 12.4999 59.1845C12.7292 58.9551 12.9586 58.9551 13.1879 58.9551C13.4173 58.9551 13.7613 59.0698 13.876 59.1845C14.1054 59.4139 14.1054 59.6433 14.1054 59.9874C14.1054 60.3315 13.9907 60.5609 13.876 60.7903C13.6467 61.0197 13.4173 61.0197 13.1879 61.0197C12.9586 61.0197 12.6145 60.905 12.4999 60.7903ZM13.6467 60.5609C13.7613 60.3315 13.876 60.2168 13.876 59.9874C13.876 59.758 13.7613 59.5286 13.6467 59.4139C13.532 59.1845 13.4173 59.1845 13.1879 59.1845C12.9586 59.1845 12.8439 59.2992 12.7292 59.4139C12.6145 59.4139 12.6145 59.6433 12.6145 59.8727C12.6145 60.1021 12.7292 60.3315 12.8439 60.4462C12.9586 60.6756 13.0733 60.6756 13.3026 60.6756C13.532 60.6756 13.532 60.6756 13.6467 60.5609Z" fill="#727272"/>
<path d="M14.6786 60.7903C14.4492 60.5609 14.4492 60.3315 14.4492 59.9874C14.4492 59.6433 14.5639 59.4139 14.6786 59.1845C14.9079 58.9551 15.1373 58.9551 15.3666 58.9551C15.596 58.9551 15.94 59.0698 16.0547 59.1845C16.2841 59.4139 16.2841 59.6433 16.2841 59.9874C16.2841 60.3315 16.1694 60.5609 16.0547 60.7903C15.8254 61.0197 15.596 61.0197 15.3666 61.0197C15.1373 61.0197 14.9079 60.905 14.6786 60.7903ZM15.8254 60.5609C15.94 60.3315 16.0547 60.2168 16.0547 59.9874C16.0547 59.758 15.94 59.5286 15.8254 59.4139C15.7107 59.1845 15.596 59.1845 15.3666 59.1845C15.1373 59.1845 15.0226 59.2992 14.9079 59.4139C14.7933 59.5286 14.6786 59.758 14.6786 59.9874C14.6786 60.2168 14.7933 60.4462 14.9079 60.5609C15.0226 60.6756 15.1373 60.7903 15.3666 60.7903C15.596 60.7903 15.8254 60.6756 15.8254 60.5609Z" fill="#727272"/>
<path d="M16.8574 61.0195H18.2336V61.4783H16.8574V61.0195Z" fill="#727272"/>
<path d="M19.839 59.0703V62.7407H19.2656V59.5291H18.4629V59.0703H19.839Z" fill="#727272"/>
<path d="M21.7892 59.0703V62.7407H21.2158V59.5291H20.4131V59.0703H21.7892Z" fill="#727272"/>
<path d="M22.7059 60.7903C22.4766 60.5609 22.4766 60.3315 22.4766 59.9874C22.4766 59.6433 22.5912 59.4139 22.7059 59.1845C22.9353 58.9551 23.1646 58.9551 23.394 58.9551C23.6234 58.9551 23.9674 59.0698 24.0821 59.1845C24.3114 59.4139 24.3114 59.6433 24.3114 59.9874C24.3114 60.3315 24.3114 60.5609 24.0821 60.7903C23.8527 61.0197 23.6234 61.0197 23.394 61.0197C23.1646 61.0197 22.8206 60.905 22.7059 60.7903ZM23.8527 60.5609C23.9674 60.3315 24.0821 60.2168 24.0821 59.9874C24.0821 59.758 23.9674 59.5286 23.8527 59.4139C23.738 59.1845 23.6234 59.1845 23.394 59.1845C23.1646 59.1845 23.05 59.2992 22.9353 59.4139C22.8206 59.5286 22.7059 59.758 22.7059 59.9874C22.7059 60.2168 22.8206 60.4462 22.9353 60.5609C23.05 60.7903 23.1646 60.7903 23.394 60.7903C23.6234 60.7903 23.738 60.6756 23.8527 60.5609Z" fill="#727272"/>
<path d="M24.9999 60.7903C24.7705 60.5609 24.7705 60.3315 24.7705 59.9874C24.7705 59.6433 24.8852 59.4139 24.9999 59.1845C25.2292 58.9551 25.4586 58.9551 25.6879 58.9551C25.9173 58.9551 26.2613 59.0698 26.376 59.1845C26.6054 59.4139 26.6054 59.6433 26.6054 59.9874C26.6054 60.3315 26.4907 60.5609 26.376 60.7903C26.1467 61.0197 25.9173 61.0197 25.6879 61.0197C25.3439 61.0197 25.1145 60.905 24.9999 60.7903ZM26.032 60.5609C26.1467 60.3315 26.2613 60.2168 26.2613 59.9874C26.2613 59.758 26.1467 59.5286 26.032 59.4139C25.9173 59.1845 25.8026 59.1845 25.5733 59.1845C25.3439 59.1845 25.2292 59.2992 25.1145 59.4139C24.9999 59.5286 24.8852 59.758 24.8852 59.9874C24.8852 60.2168 24.9999 60.4462 25.1145 60.5609C25.2292 60.7903 25.3439 60.7903 25.5733 60.7903C25.8026 60.6756 26.032 60.6756 26.032 60.5609Z" fill="#727272"/>
<path d="M8.02709 79.9453V83.6157H7.56838V80.4041H6.76562V79.9453H8.02709Z" fill="#727272"/>
<path d="M11.4681 83.1564V83.6152H8.8305V83.2711L10.3213 81.8947C10.5507 81.6653 10.5507 81.5506 10.6654 81.4359C10.78 81.3212 10.78 81.2065 10.78 81.0918C10.78 80.8624 10.6654 80.7477 10.5507 80.633C10.3213 80.5183 10.2066 80.4036 9.97729 80.4036C9.51857 80.4036 9.28922 80.633 9.05986 80.8624L8.71582 80.4036C8.8305 80.2889 9.05986 80.1742 9.17454 80.0595C9.40389 79.9448 9.74793 79.8301 9.97729 79.8301C10.3213 79.8301 10.6654 79.9448 10.8947 80.0595C11.1241 80.2889 11.2388 80.5183 11.2388 80.8624C11.2388 81.0918 11.2388 81.2065 11.1241 81.4359C11.0094 81.6653 10.8947 81.78 10.6654 82.0094L9.51857 83.1564H11.4681Z" fill="#727272"/>
<path d="M12.0409 81.6653C11.8115 81.4359 11.8115 81.2065 11.8115 80.8624C11.8115 80.5183 11.9262 80.2889 12.0409 80.0595C12.2702 79.8301 12.4996 79.8301 12.729 79.8301C12.9583 79.8301 13.3023 79.9448 13.417 80.0595C13.6464 80.2889 13.6464 80.5183 13.6464 80.8624C13.6464 81.2065 13.5317 81.4359 13.417 81.6653C13.1877 81.8947 12.9583 82.0094 12.729 82.0094C12.4996 82.0094 12.2702 81.8947 12.0409 81.6653ZM13.1877 81.4359C13.3023 81.2065 13.417 81.0918 13.417 80.8624C13.417 80.633 13.3023 80.4036 13.1877 80.2889C13.073 80.0595 12.9583 80.0595 12.729 80.0595C12.4996 80.0595 12.3849 80.1742 12.2702 80.2889C12.1556 80.4036 12.0409 80.633 12.0409 80.8624C12.0409 81.0918 12.1556 81.3212 12.2702 81.4359C12.3849 81.6653 12.4996 81.6653 12.729 81.6653C12.9583 81.6653 12.9583 81.5506 13.1877 81.4359Z" fill="#727272"/>
<path d="M14.2206 81.6653C13.9912 81.4359 13.9912 81.2065 13.9912 80.8624C13.9912 80.5183 14.1059 80.2889 14.2206 80.0595C14.4499 79.8301 14.6793 79.8301 14.9086 79.8301C15.138 79.8301 15.482 79.9448 15.5967 80.0595C15.8261 80.2889 15.8261 80.5183 15.8261 80.8624C15.8261 81.2065 15.7114 81.4359 15.5967 81.6653C15.3674 81.8947 15.138 81.8947 14.9086 81.8947C14.6793 81.8947 14.3352 81.8947 14.2206 81.6653ZM15.3674 81.4359C15.482 81.2065 15.5967 81.0918 15.5967 80.8624C15.5967 80.633 15.482 80.4036 15.3674 80.2889C15.2527 80.1742 15.138 80.0595 14.9086 80.0595C14.6793 80.0595 14.5646 80.1742 14.4499 80.2889C14.3352 80.4036 14.2206 80.633 14.2206 80.8624C14.2206 81.0918 14.3352 81.3212 14.4499 81.4359C14.5646 81.6653 14.6793 81.6653 14.9086 81.6653C15.138 81.6653 15.2527 81.5506 15.3674 81.4359Z" fill="#727272"/>
<path d="M16.3994 82.0098H17.7756V82.4686H16.3994V82.0098Z" fill="#727272"/>
<path d="M19.381 79.9453V83.6157H18.8076V80.4041H18.0049V79.9453H19.381Z" fill="#727272"/>
<path d="M22.3622 81.8952C22.5916 82.1246 22.5916 82.354 22.5916 82.5834C22.5916 82.8128 22.4769 83.0422 22.3622 83.1569C22.2475 83.3863 22.1329 83.3863 21.9035 83.6157C21.6741 83.7304 21.4448 83.8451 21.1008 83.8451C20.8714 83.8451 20.5274 83.8451 20.298 83.7304C20.0686 83.6157 19.8393 83.501 19.7246 83.3863L19.954 82.9275C20.0686 83.0422 20.1833 83.1569 20.5274 83.1569C20.7567 83.2716 20.9861 83.2716 21.1008 83.2716C21.3301 83.2716 21.6741 83.1569 21.6741 83.0422C21.9035 82.9275 21.9035 82.8128 21.9035 82.5834C21.9035 82.354 21.7888 82.2393 21.6741 82.1246C21.5595 81.8952 21.3301 81.8952 21.1008 81.8952H20.8714V81.5511L21.7888 80.4041H20.0686V79.9453H22.4769V80.2894L21.5595 81.5511C21.9035 81.5511 22.1329 81.6658 22.3622 81.8952Z" fill="#727272"/>
<path d="M23.2801 81.6653C23.0508 81.4359 23.0508 81.2065 23.0508 80.8624C23.0508 80.5183 23.1655 80.2889 23.2801 80.0595C23.5095 79.8301 23.7389 79.8301 23.9682 79.8301C24.1976 79.8301 24.5416 79.9448 24.6563 80.0595C24.8856 80.2889 24.8856 80.5183 24.8856 80.8624C24.8856 81.2065 24.771 81.4359 24.6563 81.6653C24.4269 81.8947 24.1976 82.0094 23.9682 82.0094C23.7389 82.0094 23.5095 81.8947 23.2801 81.6653ZM24.4269 81.4359C24.5416 81.2065 24.6563 81.0918 24.6563 80.8624C24.6563 80.633 24.5416 80.4036 24.4269 80.2889C24.3122 80.1742 24.1976 80.0595 23.9682 80.0595C23.7389 80.0595 23.6242 80.1742 23.5095 80.2889C23.3948 80.4036 23.2801 80.633 23.2801 80.8624C23.2801 81.0918 23.3948 81.3212 23.5095 81.4359C23.6242 81.6653 23.7389 81.6653 23.9682 81.6653C24.1976 81.6653 24.3122 81.5506 24.4269 81.4359Z" fill="#727272"/>
<path d="M25.4589 81.6653C25.3442 81.4359 25.2295 81.2065 25.2295 80.8624C25.2295 80.5183 25.3442 80.2889 25.4589 80.0595C25.6882 79.8301 25.9176 79.8301 26.1469 79.8301C26.3763 79.8301 26.7203 79.9448 26.835 80.0595C27.0644 80.2889 27.0644 80.5183 27.0644 80.8624C27.0644 81.2065 26.9497 81.4359 26.835 81.6653C26.6056 81.8947 26.3763 81.8947 26.1469 81.8947C25.9176 81.8947 25.6882 81.8947 25.4589 81.6653ZM26.7203 81.4359C26.835 81.2065 26.9497 81.0918 26.9497 80.8624C26.9497 80.633 26.835 80.4036 26.7203 80.2889C26.6056 80.0595 26.491 80.0595 26.2616 80.0595C26.0322 80.0595 25.9176 80.1742 25.8029 80.2889C25.6882 80.4036 25.5735 80.633 25.5735 80.8624C25.5735 81.0918 25.6882 81.3212 25.8029 81.4359C25.9176 81.6653 26.0322 81.6653 26.2616 81.6653C26.3763 81.6653 26.491 81.5506 26.7203 81.4359Z" fill="#727272"/>
<path d="M8.02709 69.6225V73.2929H7.56838V69.9666H6.76562V69.5078H8.02709V69.6225Z" fill="#727272"/>
<path d="M9.97729 69.6225V73.2929H9.40389V69.9666H8.71582V69.5078H9.97729V69.6225Z" fill="#727272"/>
<path d="M10.8944 71.2278C10.665 70.9984 10.665 70.769 10.665 70.4249C10.665 70.0808 10.7797 69.8514 10.8944 69.622C11.1238 69.3926 11.3531 69.3926 11.5825 69.3926C11.8118 69.3926 12.1559 69.5073 12.2705 69.622C12.4999 69.8514 12.4999 70.0808 12.4999 70.4249C12.4999 70.769 12.3852 70.9984 12.2705 71.2278C12.0412 71.4572 11.8118 71.4572 11.5825 71.4572C11.3531 71.4572 11.1238 71.4572 10.8944 71.2278ZM12.0412 71.1131C12.1559 70.8837 12.2705 70.769 12.2705 70.5396C12.2705 70.3102 12.1559 70.0808 12.0412 69.9661C11.9265 69.7367 11.8118 69.7367 11.5825 69.7367C11.3531 69.7367 11.2384 69.8514 11.1238 69.9661C11.0091 70.0808 10.8944 70.3102 10.8944 70.5396C10.8944 70.769 11.0091 70.9984 11.1238 71.1131C11.2384 71.3425 11.3531 71.3425 11.5825 71.3425C11.8118 71.2278 11.9265 71.1131 12.0412 71.1131Z" fill="#727272"/>
<path d="M13.1883 71.2278C12.959 70.9984 12.959 70.769 12.959 70.4249C12.959 70.0808 13.0737 69.8514 13.1883 69.622C13.4177 69.3926 13.6471 69.3926 13.8764 69.3926C14.1058 69.3926 14.4498 69.5073 14.5645 69.622C14.7938 69.8514 14.7938 70.0808 14.7938 70.4249C14.7938 70.769 14.6792 70.9984 14.5645 71.2278C14.3351 71.4572 14.1058 71.4572 13.8764 71.4572C13.6471 71.4572 13.303 71.4572 13.1883 71.2278ZM14.3351 71.1131C14.4498 70.8837 14.5645 70.769 14.5645 70.5396C14.5645 70.3102 14.4498 70.0808 14.3351 69.9661C14.2205 69.7367 14.1058 69.7367 13.8764 69.7367C13.6471 69.7367 13.5324 69.8514 13.4177 69.9661C13.303 70.0808 13.1883 70.3102 13.1883 70.5396C13.1883 70.769 13.303 70.9984 13.4177 71.1131C13.5324 71.3425 13.6471 71.3425 13.8764 71.3425C13.9911 71.2278 14.2205 71.1131 14.3351 71.1131Z" fill="#727272"/>
<path d="M15.252 71.5723H16.6281V72.0311H15.252V71.5723Z" fill="#727272"/>
<path d="M18.2336 69.6225V73.2929H17.6602V69.9666H16.8574V69.5078H18.2336V69.6225Z" fill="#727272"/>
<path d="M21.6742 72.8341V73.2929H19.0366V72.9488L20.5274 71.5724C20.7567 71.343 20.7567 71.2283 20.8714 71.1136C20.9861 70.9989 20.9861 70.8842 20.9861 70.7695C20.9861 70.5401 20.8714 70.4254 20.7567 70.3107C20.5274 70.196 20.4127 70.0813 20.1833 70.0813C19.7246 70.0813 19.4953 70.3107 19.2659 70.5401L18.9219 70.196C19.1512 69.9666 19.2659 69.8519 19.4953 69.7372C19.7246 69.6225 20.0687 69.5078 20.298 69.5078C20.6421 69.5078 20.9861 69.6225 21.2155 69.7372C21.4448 69.9666 21.5595 70.196 21.5595 70.5401C21.5595 70.7695 21.5595 70.8842 21.4448 71.1136C21.3301 71.343 21.2155 71.4577 20.9861 71.6871L19.8393 72.7194H21.6742V72.8341Z" fill="#727272"/>
<path d="M22.1327 71.2278C21.9033 70.9984 21.9033 70.769 21.9033 70.4249C21.9033 70.0808 22.018 69.8514 22.1327 69.622C22.362 69.3926 22.5914 69.3926 22.8208 69.3926C23.0501 69.3926 23.3941 69.5073 23.5088 69.622C23.7382 69.8514 23.7382 70.0808 23.7382 70.4249C23.7382 70.769 23.6235 70.9984 23.5088 71.2278C23.2795 71.4572 23.0501 71.4572 22.8208 71.4572C22.5914 71.4572 22.362 71.4572 22.1327 71.2278ZM23.3941 71.1131C23.5088 70.8837 23.6235 70.769 23.6235 70.5396C23.6235 70.3102 23.5088 70.0808 23.3941 69.9661C23.2795 69.7367 23.1648 69.7367 22.9354 69.7367C22.7061 69.7367 22.5914 69.8514 22.4767 69.9661C22.362 70.0808 22.2474 70.3102 22.2474 70.5396C22.2474 70.769 22.362 70.9984 22.4767 71.1131C22.5914 71.3425 22.7061 71.3425 22.9354 71.3425C23.1648 71.2278 23.2795 71.1131 23.3941 71.1131Z" fill="#727272"/>
<path d="M24.4266 71.2278C24.1973 70.9984 24.1973 70.769 24.1973 70.4249C24.1973 70.0808 24.3119 69.8514 24.4266 69.622C24.656 69.3926 24.8853 69.3926 25.1147 69.3926C25.3441 69.3926 25.6881 69.5073 25.8028 69.622C26.0321 69.8514 26.0321 70.0808 26.0321 70.4249C26.0321 70.769 25.9174 70.9984 25.8028 71.2278C25.5734 71.4572 25.3441 71.4572 25.1147 71.4572C24.8853 71.4572 24.656 71.4572 24.4266 71.2278ZM25.5734 71.1131C25.6881 70.8837 25.8028 70.769 25.8028 70.5396C25.8028 70.3102 25.6881 70.0808 25.5734 69.9661C25.4587 69.7367 25.3441 69.7367 25.1147 69.7367C24.8853 69.7367 24.7707 69.8514 24.656 69.9661C24.5413 70.0808 24.4266 70.3102 24.4266 70.5396C24.4266 70.769 24.5413 70.9984 24.656 71.1131C24.7707 71.3425 24.8853 71.3425 25.1147 71.3425C25.3441 71.3425 25.4587 71.1131 25.5734 71.1131Z" fill="#727272"/>
<path d="M8.02709 92.1035V95.7739H7.56838V92.5623H6.76562V92.1035H8.02709Z" fill="#727272"/>
<path d="M11.1239 93.9387C11.3533 94.1681 11.3533 94.3975 11.3533 94.6269C11.3533 94.8563 11.2386 95.0857 11.1239 95.2004C11.0093 95.4298 10.8946 95.4298 10.6652 95.6592C10.4359 95.7739 10.2065 95.8886 9.86248 95.8886C9.63312 95.8886 9.28908 95.8886 9.05972 95.7739C8.83036 95.6592 8.60101 95.5445 8.48633 95.4298L8.71569 94.971C8.83036 95.0857 8.94504 95.2004 9.28908 95.2004C9.51844 95.3151 9.7478 95.3151 9.86248 95.3151C10.0918 95.3151 10.4359 95.2004 10.4359 95.0857C10.6652 94.971 10.6652 94.8563 10.6652 94.6269C10.6652 94.3975 10.5505 94.2828 10.4359 94.1681C10.4359 94.1681 10.2065 94.0534 9.86248 94.0534H9.63312V93.7093L10.5505 92.5623H8.83036V92.1035H11.2386V92.4476L10.3212 93.7093C10.5505 93.5946 10.8946 93.7093 11.1239 93.9387Z" fill="#727272"/>
<path d="M11.9266 93.7102C11.6973 93.4808 11.6973 93.2514 11.6973 92.9073C11.6973 92.5632 11.8119 92.3338 11.9266 92.1044C12.156 91.875 12.3853 91.875 12.6147 91.875C12.8441 91.875 13.1881 91.9897 13.3028 92.1044C13.5321 92.3338 13.5321 92.5632 13.5321 92.9073C13.5321 93.2514 13.4175 93.4808 13.3028 93.7102C13.0734 93.9396 12.8441 93.9396 12.6147 93.9396C12.3853 93.9396 12.156 93.9396 11.9266 93.7102ZM13.1881 93.4808C13.3028 93.2514 13.4174 93.1367 13.4174 92.9073C13.4174 92.6779 13.3028 92.4485 13.1881 92.3338C13.0734 92.1044 12.9587 92.1044 12.7294 92.1044C12.5 92.1044 12.3853 92.2191 12.2707 92.3338C12.156 92.4485 12.0413 92.6779 12.0413 92.9073C12.0413 93.1367 12.156 93.3661 12.2707 93.4808C12.3853 93.7102 12.5 93.7102 12.7294 93.7102C12.9587 93.5955 12.9587 93.5955 13.1881 93.4808Z" fill="#727272"/>
<path d="M14.2206 93.7102C13.9912 93.4808 13.9912 93.2514 13.9912 92.9073C13.9912 92.5632 14.1059 92.3338 14.2206 92.1044C14.4499 91.875 14.6793 91.875 14.9086 91.875C15.138 91.875 15.482 91.9897 15.5967 92.1044C15.8261 92.3338 15.8261 92.5632 15.8261 92.9073C15.8261 93.2514 15.7114 93.4808 15.5967 93.7102C15.3674 93.9396 15.138 93.9396 14.9086 93.9396C14.6793 93.9396 14.3352 93.9396 14.2206 93.7102ZM15.3674 93.4808C15.482 93.2514 15.5967 93.1367 15.5967 92.9073C15.5967 92.6779 15.482 92.4485 15.3674 92.3338C15.2527 92.1044 15.138 92.1044 14.9086 92.1044C14.6793 92.1044 14.5646 92.2191 14.4499 92.3338C14.3352 92.4485 14.2206 92.6779 14.2206 92.9073C14.2206 93.1367 14.3352 93.3661 14.4499 93.4808C14.5646 93.7102 14.6793 93.7102 14.9086 93.7102C15.138 93.7102 15.2527 93.5955 15.3674 93.4808Z" fill="#727272"/>
<path d="M16.3994 94.0527H17.7756V94.5115H16.3994V94.0527Z" fill="#727272"/>
<path d="M19.381 92.1035V95.7739H18.8076V92.5623H18.0049V92.1035H19.381Z" fill="#727272"/>
<path d="M23.2794 94.7411H22.5913V95.6587H22.0179V94.7411H20.0684V94.397L21.9032 91.9883H22.4766L20.6418 94.397H22.0179V93.5941H22.5913V94.397H23.2794V94.7411Z" fill="#727272"/>
<path d="M23.7381 93.7102C23.5088 93.4808 23.5088 93.2514 23.5088 92.9073C23.5088 92.5632 23.6235 92.3338 23.7381 92.1044C23.9675 91.875 24.1969 91.875 24.4262 91.875C24.6556 91.875 24.9996 91.9897 25.1143 92.1044C25.3436 92.3338 25.3437 92.5632 25.3437 92.9073C25.3437 93.2514 25.229 93.4808 25.1143 93.7102C24.8849 93.9396 24.6556 93.9396 24.4262 93.9396C24.1969 93.9396 23.9675 93.9396 23.7381 93.7102ZM24.8849 93.4808C24.9996 93.2514 25.1143 93.1367 25.1143 92.9073C25.1143 92.6779 24.9996 92.4485 24.8849 92.3338C24.7703 92.1044 24.6556 92.1044 24.4262 92.1044C24.1969 92.1044 24.0822 92.2191 23.9675 92.3338C23.8528 92.4485 23.7381 92.6779 23.7381 92.9073C23.7381 93.1367 23.8528 93.3661 23.9675 93.4808C24.0822 93.7102 24.1969 93.7102 24.4262 93.7102C24.6556 93.7102 24.7703 93.5955 24.8849 93.4808Z" fill="#727272"/>
<path d="M26.0321 93.7102C25.8027 93.4808 25.8027 93.2514 25.8027 92.9073C25.8027 92.5632 25.9174 92.3338 26.0321 92.1044C26.2615 91.875 26.4908 91.875 26.7202 91.875C26.9495 91.875 27.2936 91.9897 27.4082 92.1044C27.6376 92.3338 27.6376 92.5632 27.6376 92.9073C27.6376 93.2514 27.5229 93.4808 27.4082 93.7102C27.1789 93.9396 26.9495 93.9396 26.7202 93.9396C26.3761 93.9396 26.1468 93.9396 26.0321 93.7102ZM27.1789 93.4808C27.2936 93.2514 27.4082 93.1367 27.4082 92.9073C27.4082 92.6779 27.2936 92.4485 27.1789 92.3338C27.0642 92.1044 26.9495 92.1044 26.7202 92.1044C26.4908 92.1044 26.3761 92.2191 26.2614 92.3338C26.1468 92.4485 26.0321 92.6779 26.0321 92.9073C26.0321 93.1367 26.1468 93.3661 26.2614 93.4808C26.3761 93.7102 26.4908 93.7102 26.7202 93.7102C26.8348 93.5955 27.0642 93.5955 27.1789 93.4808Z" fill="#727272"/>
<path d="M8.02709 104.031V107.702H7.56838V104.49H6.76562V104.031H8.02709Z" fill="#727272"/>
<path d="M12.0411 106.784H11.353V107.702H10.7796V106.784H8.83008V106.44L10.6649 104.031H11.2383L9.40347 106.44H10.7796V105.637H11.353V106.44H12.0411V106.784Z" fill="#727272"/>
<path d="M12.4999 105.753C12.2705 105.524 12.2705 105.294 12.2705 104.95C12.2705 104.606 12.3852 104.377 12.4999 104.147C12.7292 103.918 12.9586 103.918 13.1879 103.918C13.4173 103.918 13.7613 104.033 13.876 104.147C14.1054 104.377 14.1054 104.606 14.1054 104.95C14.1054 105.294 13.9907 105.524 13.876 105.753C13.6467 105.983 13.4173 105.983 13.1879 105.983C12.9586 105.983 12.6145 105.983 12.4999 105.753ZM13.6467 105.524C13.7613 105.294 13.876 105.18 13.876 104.95C13.876 104.721 13.7613 104.491 13.6467 104.377C13.532 104.147 13.4173 104.147 13.1879 104.147C12.9586 104.147 12.8439 104.262 12.7292 104.377C12.6145 104.377 12.6145 104.606 12.6145 104.95C12.6145 105.18 12.7292 105.409 12.8439 105.524C12.9586 105.753 13.0733 105.753 13.3026 105.753C13.532 105.753 13.532 105.638 13.6467 105.524Z" fill="#727272"/>
<path d="M14.6786 105.753C14.4492 105.524 14.4492 105.294 14.4492 104.95C14.4492 104.606 14.5639 104.377 14.6786 104.147C14.9079 103.918 15.1373 103.918 15.3666 103.918C15.596 103.918 15.94 104.033 16.0547 104.147C16.2841 104.377 16.2841 104.606 16.2841 104.95C16.2841 105.294 16.1694 105.524 16.0547 105.753C15.8254 105.983 15.596 105.983 15.3666 105.983C15.1373 105.983 14.9079 105.983 14.6786 105.753ZM15.8254 105.524C15.94 105.294 16.0547 105.18 16.0547 104.95C16.0547 104.721 15.94 104.491 15.8254 104.377C15.7107 104.147 15.596 104.147 15.3666 104.147C15.1373 104.147 15.0226 104.262 14.9079 104.377C14.7933 104.491 14.6786 104.721 14.6786 104.95C14.6786 105.18 14.7933 105.409 14.9079 105.524C15.0226 105.753 15.1373 105.753 15.3666 105.753C15.596 105.753 15.8254 105.638 15.8254 105.524Z" fill="#727272"/>
<path d="M16.8574 105.982H18.2336V106.441H16.8574V105.982Z" fill="#727272"/>
<path d="M19.839 104.031V107.702H19.2656V104.49H18.4629V104.031H19.839Z" fill="#727272"/>
<path d="M22.8213 105.867C23.0507 106.097 23.1654 106.326 23.1654 106.67C23.1654 106.9 23.0507 107.129 22.936 107.244C22.8213 107.473 22.7067 107.588 22.4773 107.703C22.3626 107.817 22.1333 107.817 21.7892 107.817C21.5599 107.817 21.2158 107.817 20.9865 107.703C20.7571 107.588 20.5278 107.473 20.4131 107.358L20.6424 106.9C20.7571 107.014 20.8718 107.129 21.2158 107.129C21.4452 107.244 21.6746 107.244 21.7892 107.244C22.0186 107.244 22.3626 107.129 22.3626 107.014C22.592 106.9 22.592 106.785 22.592 106.556C22.592 106.326 22.4773 106.211 22.3626 105.982C22.1333 105.867 21.9039 105.753 21.4452 105.753H20.6424L20.8718 103.803H22.936V104.262H21.3305L21.2158 105.294H21.7892C22.1333 105.523 22.4773 105.638 22.8213 105.867Z" fill="#727272"/>
<path d="M23.7381 105.753C23.5088 105.524 23.5088 105.294 23.5088 104.95C23.5088 104.606 23.6235 104.377 23.7381 104.147C23.9675 103.918 24.1969 103.918 24.4262 103.918C24.6556 103.918 24.9996 104.033 25.1143 104.147C25.3436 104.377 25.3437 104.606 25.3437 104.95C25.3437 105.294 25.229 105.524 25.1143 105.753C24.8849 105.983 24.6556 105.983 24.4262 105.983C24.1969 105.983 23.9675 105.983 23.7381 105.753ZM24.9996 105.524C25.1143 105.294 25.229 105.18 25.229 104.95C25.229 104.721 25.1143 104.491 24.9996 104.377C24.8849 104.147 24.7703 104.147 24.5409 104.147C24.3115 104.147 24.1969 104.262 24.0822 104.377C23.9675 104.491 23.8528 104.721 23.8528 104.95C23.8528 105.18 23.9675 105.409 24.0822 105.524C24.1969 105.753 24.3115 105.753 24.5409 105.753C24.6556 105.638 24.7703 105.638 24.9996 105.524Z" fill="#727272"/>
<path d="M26.0321 105.753C25.8027 105.524 25.8027 105.294 25.8027 104.95C25.8027 104.606 25.9174 104.377 26.0321 104.147C26.2615 103.918 26.4908 103.918 26.7202 103.918C26.9495 103.918 27.2936 104.033 27.4082 104.147C27.6376 104.377 27.6376 104.606 27.6376 104.95C27.6376 105.294 27.5229 105.524 27.4082 105.753C27.1789 105.983 26.9495 105.983 26.7202 105.983C26.3761 105.983 26.1468 105.983 26.0321 105.753ZM27.1789 105.524C27.2936 105.294 27.4082 105.18 27.4082 104.95C27.4082 104.721 27.2936 104.491 27.1789 104.377C27.0642 104.147 26.9495 104.147 26.7202 104.147C26.4908 104.147 26.3761 104.262 26.2614 104.377C26.1468 104.491 26.0321 104.721 26.0321 104.95C26.0321 105.18 26.1468 105.409 26.2614 105.524C26.3761 105.753 26.4908 105.753 26.7202 105.753C26.8348 105.638 27.0642 105.638 27.1789 105.524Z" fill="#727272"/>
<path d="M8.02709 115.961V119.631H7.56838V116.42H6.76562V115.961H8.02709Z" fill="#727272"/>
<path d="M11.0093 117.682C11.2386 117.912 11.3533 118.141 11.3533 118.485C11.3533 118.715 11.2386 118.944 11.1239 119.059C11.0093 119.288 10.8946 119.403 10.6652 119.517C10.4359 119.632 10.2065 119.747 9.86248 119.747C9.63312 119.747 9.28908 119.747 9.05972 119.632C8.83036 119.517 8.60101 119.403 8.48633 119.288L8.71569 118.829C8.83036 118.944 8.94504 119.059 9.28908 119.059C9.51844 119.173 9.7478 119.173 9.86248 119.173C10.0918 119.173 10.4359 119.059 10.4359 118.944C10.6652 118.829 10.6652 118.715 10.6652 118.485C10.6652 118.256 10.5505 118.141 10.4359 117.912C10.2065 117.797 9.97715 117.682 9.51844 117.682H8.83036L9.05972 115.732H11.1239V116.191H9.40376L9.28908 117.224H9.7478C10.4359 117.338 10.7799 117.568 11.0093 117.682Z" fill="#727272"/>
<path d="M11.9266 117.681C11.6973 117.451 11.6973 117.222 11.6973 116.878C11.6973 116.534 11.8119 116.304 11.9266 116.075C12.156 115.846 12.3853 115.846 12.6147 115.846C12.8441 115.846 13.1881 115.96 13.3028 116.075C13.4175 116.19 13.5321 116.534 13.5321 116.878C13.5321 117.222 13.4175 117.451 13.3028 117.681C13.1881 117.91 12.8441 117.91 12.6147 117.91C12.3853 117.91 12.2707 117.796 11.9266 117.681ZM13.1881 117.337C13.3028 117.107 13.4174 116.993 13.4174 116.763C13.4174 116.534 13.3028 116.305 13.1881 116.19C13.0734 115.96 12.9587 115.96 12.7294 115.96C12.5 115.96 12.3853 116.075 12.2707 116.19C12.156 116.305 12.0413 116.649 12.0413 116.878C12.0413 117.107 12.156 117.337 12.2707 117.452C12.3853 117.681 12.5 117.681 12.7294 117.681C12.9587 117.681 12.9587 117.566 13.1881 117.337Z" fill="#727272"/>
<path d="M14.2206 117.681C13.9912 117.451 13.9912 117.222 13.9912 116.878C13.9912 116.534 14.1059 116.304 14.2206 116.075C14.3352 115.846 14.6793 115.846 14.9086 115.846C15.138 115.846 15.482 115.96 15.5967 116.075C15.8261 116.304 15.8261 116.534 15.8261 116.878C15.8261 117.222 15.7114 117.451 15.5967 117.681C15.3674 117.91 15.138 117.91 14.9086 117.91C14.6793 117.91 14.3352 117.796 14.2206 117.681ZM15.3674 117.337C15.482 117.107 15.5967 116.993 15.5967 116.763C15.5967 116.534 15.482 116.305 15.3674 116.19C15.2527 116.075 15.138 115.96 14.9086 115.96C14.6793 115.96 14.5646 116.075 14.4499 116.19C14.3352 116.305 14.2206 116.534 14.2206 116.763C14.2206 116.993 14.3352 117.222 14.4499 117.337C14.5646 117.566 14.6793 117.566 14.9086 117.566C15.138 117.566 15.2527 117.566 15.3674 117.337Z" fill="#727272"/>
<path d="M16.3994 118.025H17.7756V118.484H16.3994V118.025Z" fill="#727272"/>
<path d="M19.381 115.961V119.631H18.8076V116.42H18.0049V115.961H19.381Z" fill="#727272"/>
<path d="M22.3619 117.567C22.5913 117.682 22.706 117.797 22.8207 117.911C22.9353 118.141 23.05 118.255 23.05 118.485C23.05 118.714 22.9353 118.944 22.8207 119.058C22.706 119.288 22.5913 119.402 22.3619 119.517C22.1326 119.632 21.9032 119.747 21.6739 119.747C21.1005 119.747 20.7564 119.517 20.5271 119.288C20.2977 119.058 20.0684 118.485 20.0684 118.026C20.0684 117.567 20.183 117.223 20.2977 116.994C20.4124 116.764 20.6418 116.42 20.8711 116.306C21.1005 116.191 21.4445 116.076 21.7885 116.076C22.0179 116.076 22.1326 116.076 22.3619 116.191C22.5913 116.191 22.5913 116.306 22.8207 116.42L22.5913 116.879C22.3619 116.764 22.1326 116.65 21.9032 116.65C21.5592 116.65 21.2151 116.764 20.9858 116.994C20.7564 117.223 20.6418 117.567 20.6418 118.026C20.6418 118.141 20.6418 118.141 20.6418 118.255C20.7564 118.026 20.8711 118.026 21.1005 117.911C21.3298 117.797 21.4445 117.797 21.6739 117.797C21.9032 117.338 22.1326 117.453 22.3619 117.567ZM22.1326 119.058C22.3619 118.944 22.3619 118.829 22.3619 118.485C22.3619 118.255 22.2473 118.141 22.1326 117.911C21.9032 117.797 21.7885 117.682 21.5592 117.682C21.3298 117.682 21.2151 117.682 21.1005 117.797C20.9858 117.911 20.8711 118.026 20.8711 118.026C20.8711 118.141 20.7564 118.255 20.7564 118.37C20.7564 118.485 20.7564 118.6 20.8711 118.714C20.9858 118.829 21.1005 118.944 21.1005 118.944C21.2151 119.058 21.3298 119.058 21.5592 119.058C21.7885 119.173 22.1326 119.173 22.1326 119.058Z" fill="#727272"/>
<path d="M23.5096 117.681C23.2803 117.451 23.2803 117.222 23.2803 116.878C23.2803 116.534 23.395 116.304 23.5096 116.075C23.739 115.846 23.9683 115.846 24.1977 115.846C24.4271 115.846 24.7711 115.96 24.8858 116.075C25.1151 116.304 25.1151 116.534 25.1151 116.878C25.1151 117.222 25.0005 117.451 24.8858 117.681C24.6564 117.91 24.4271 117.91 24.1977 117.91C23.9683 117.91 23.6243 117.796 23.5096 117.681ZM24.6564 117.337C24.7711 117.107 24.8858 116.993 24.8858 116.763C24.8858 116.534 24.7711 116.305 24.6564 116.19C24.5417 115.96 24.4271 115.96 24.1977 115.96C23.9683 115.96 23.8537 116.075 23.739 116.19C23.6243 116.305 23.5096 116.534 23.5096 116.763C23.5096 116.993 23.6243 117.222 23.739 117.337C23.8537 117.566 23.9683 117.566 24.1977 117.566C24.3124 117.566 24.5417 117.566 24.6564 117.337Z" fill="#727272"/>
<path d="M25.6883 117.681C25.459 117.451 25.459 117.222 25.459 116.878C25.459 116.534 25.5737 116.304 25.6883 116.075C25.803 115.846 26.1471 115.846 26.3764 115.846C26.6058 115.846 26.9498 115.96 27.0645 116.075C27.2938 116.304 27.2938 116.534 27.2938 116.878C27.2938 117.222 27.1792 117.451 27.0645 117.681C26.8351 117.91 26.6058 117.91 26.3764 117.91C26.1471 117.91 25.9177 117.796 25.6883 117.681ZM26.8351 117.337C26.9498 117.107 27.0645 116.993 27.0645 116.763C27.0645 116.534 26.9498 116.305 26.8351 116.19C26.7205 115.96 26.6058 115.96 26.3764 115.96C26.1471 115.96 26.0324 116.075 25.9177 116.19C25.803 116.305 25.6883 116.534 25.6883 116.763C25.6883 116.993 25.803 117.222 25.9177 117.337C26.0324 117.452 26.1471 117.566 26.3764 117.566C26.6058 117.566 26.7205 117.566 26.8351 117.337Z" fill="#727272"/>
<path d="M8.02709 127.775V131.446H7.56838V128.234H6.76562V127.775H8.02709Z" fill="#727272"/>
<path d="M11.1237 129.266C11.353 129.381 11.4677 129.496 11.5824 129.611C11.6971 129.84 11.8117 129.955 11.8117 130.184C11.8117 130.413 11.6971 130.643 11.5824 130.758C11.4677 130.987 11.353 131.102 11.1237 131.216C10.8943 131.331 10.6649 131.446 10.4356 131.446C9.86219 131.446 9.51815 131.216 9.28879 130.987C9.05944 130.758 8.83008 130.184 8.83008 129.725C8.83008 129.266 8.94476 128.922 9.05944 128.693C9.17412 128.464 9.40347 128.119 9.63283 128.005C9.86219 127.89 10.2062 127.775 10.5503 127.775C10.7796 127.775 10.8943 127.775 11.1237 127.89C11.353 127.89 11.353 128.005 11.5824 128.119L11.2383 128.464C11.009 128.349 10.7796 128.234 10.5503 128.234C10.2062 128.234 9.86219 128.349 9.63283 128.578C9.40347 128.808 9.28879 129.152 9.28879 129.611C9.28879 129.725 9.28879 129.725 9.28879 129.84C9.40347 129.611 9.51815 129.611 9.74751 129.496C9.97687 129.381 10.0915 129.381 10.3209 129.381C10.6649 129.266 10.8943 129.266 11.1237 129.266ZM10.8943 130.872C11.1237 130.758 11.1237 130.643 11.1237 130.299C11.1237 130.069 11.009 129.955 10.8943 129.725C10.7796 129.725 10.5503 129.611 10.3209 129.611C10.0915 129.611 9.97687 129.611 9.86219 129.725C9.74751 129.84 9.63283 129.955 9.63283 129.955C9.63283 130.069 9.51815 130.184 9.51815 130.299C9.51815 130.413 9.51815 130.528 9.63283 130.643C9.74751 130.758 9.86219 130.872 9.86219 130.872C9.97687 130.987 10.0915 130.987 10.3209 130.987C10.5503 131.102 10.7796 130.987 10.8943 130.872Z" fill="#727272"/>
<path d="M12.2704 129.495C12.041 129.266 12.041 129.037 12.041 128.692C12.041 128.348 12.1557 128.119 12.2704 127.89C12.4997 127.66 12.7291 127.66 12.9584 127.66C13.1878 127.66 13.5318 127.775 13.6465 127.89C13.8759 128.119 13.8759 128.348 13.8759 128.692C13.8759 129.037 13.7612 129.266 13.6465 129.495C13.4172 129.725 13.1878 129.725 12.9584 129.725C12.6144 129.725 12.3851 129.61 12.2704 129.495ZM13.3025 129.266C13.4172 129.037 13.5318 128.922 13.5318 128.692C13.5318 128.463 13.4172 128.234 13.3025 128.119C13.1878 127.89 13.0731 127.89 12.8438 127.89C12.6144 127.89 12.4997 128.004 12.3851 128.119C12.2704 128.234 12.1557 128.463 12.1557 128.692C12.1557 128.922 12.2704 129.151 12.3851 129.266C12.4997 129.495 12.6144 129.495 12.8438 129.495C13.0731 129.381 13.3025 129.381 13.3025 129.266Z" fill="#727272"/>
<path d="M14.4501 129.495C14.2207 129.266 14.2207 129.037 14.2207 128.692C14.2207 128.348 14.3354 128.119 14.4501 127.89C14.6794 127.66 14.9088 127.66 15.1381 127.66C15.3675 127.66 15.7115 127.775 15.8262 127.89C16.0556 128.119 16.0556 128.348 16.0556 128.692C16.0556 129.037 15.9409 129.266 15.8262 129.495C15.7115 129.725 15.3675 129.725 15.1381 129.725C14.9088 129.725 14.6794 129.61 14.4501 129.495ZM15.5969 129.266C15.7115 129.037 15.8262 128.922 15.8262 128.692C15.8262 128.463 15.7115 128.234 15.5969 128.119C15.4822 127.89 15.3675 127.89 15.1381 127.89C14.9088 127.89 14.7941 128.004 14.6794 128.119C14.5647 128.234 14.4501 128.463 14.4501 128.692C14.4501 128.922 14.5647 129.151 14.6794 129.266C14.7941 129.495 14.9088 129.495 15.1381 129.495C15.3675 129.495 15.4822 129.381 15.5969 129.266Z" fill="#727272"/>
<path d="M16.5137 129.725H17.8898V130.183H16.5137V129.725Z" fill="#727272"/>
<path d="M19.61 127.775V131.446H19.0366V128.234H18.1191V127.775H19.61Z" fill="#727272"/>
<path d="M22.9359 127.775V128.119L21.4451 131.446H20.8717L22.3625 128.234H20.757V128.922H20.1836V127.775H22.9359Z" fill="#727272"/>
<path d="M23.6239 129.495C23.3945 129.266 23.3945 129.037 23.3945 128.692C23.3945 128.348 23.5092 128.119 23.6239 127.89C23.8532 127.66 24.0826 127.66 24.312 127.66C24.5413 127.66 24.8854 127.775 25 127.89C25.2294 128.119 25.2294 128.348 25.2294 128.692C25.2294 129.037 25.1147 129.266 25 129.495C24.7707 129.725 24.5413 129.725 24.312 129.725C24.0826 129.725 23.8532 129.61 23.6239 129.495ZM24.7707 129.266C24.8854 129.037 25 128.922 25 128.692C25 128.463 24.8854 128.234 24.7707 128.119C24.656 127.89 24.5413 127.89 24.312 127.89C24.0826 127.89 23.9679 128.004 23.8532 128.119C23.7386 128.234 23.6239 128.463 23.6239 128.692C23.6239 128.922 23.7386 129.151 23.8532 129.266C23.9679 129.495 24.0826 129.495 24.312 129.495C24.5413 129.381 24.656 129.381 24.7707 129.266Z" fill="#727272"/>
<path d="M25.8026 129.495C25.5732 129.266 25.5732 129.037 25.5732 128.692C25.5732 128.348 25.6879 128.119 25.8026 127.89C26.032 127.66 26.2613 127.66 26.4907 127.66C26.72 127.66 27.0641 127.775 27.1787 127.89C27.4081 128.119 27.4081 128.348 27.4081 128.692C27.4081 129.037 27.2934 129.266 27.1787 129.495C27.0641 129.725 26.72 129.725 26.4907 129.725C26.2613 129.725 26.032 129.61 25.8026 129.495ZM27.0641 129.266C27.1787 129.037 27.2934 128.922 27.2934 128.692C27.2934 128.463 27.1787 128.234 27.0641 128.119C26.9494 127.89 26.8347 127.89 26.6054 127.89C26.376 127.89 26.2613 128.004 26.1466 128.119C26.032 128.234 25.9173 128.463 25.9173 128.692C25.9173 128.922 26.032 129.151 26.1466 129.266C26.2613 129.495 26.376 129.495 26.6054 129.495C26.72 129.381 26.8347 129.381 27.0641 129.266Z" fill="#727272"/>
<path d="M8.02709 158.744V162.415H7.56838V159.203H6.76562V158.744H8.02709Z" fill="#727272"/>
<path d="M11.1237 159.087C11.353 159.431 11.5824 159.89 11.5824 160.349C11.5824 160.808 11.4677 161.152 11.353 161.381C11.2383 161.611 11.009 161.955 10.7796 162.069C10.5503 162.299 10.2062 162.299 9.86219 162.299C9.63283 162.299 9.51815 162.299 9.28879 162.184C9.05944 162.184 9.05944 162.069 8.83008 161.955L9.17412 161.725C9.40347 161.84 9.63283 161.955 9.86219 161.955C10.2062 161.955 10.5503 161.84 10.7796 161.611C11.009 161.381 11.1237 161.037 11.1237 160.578V160.464C11.009 160.693 10.8943 160.693 10.6649 160.808C10.4356 160.922 10.2062 160.922 10.0915 160.922C9.86219 160.922 9.63283 160.808 9.51815 160.693C9.28879 160.578 9.17412 160.464 9.05944 160.349C8.94476 160.234 8.83008 160.005 8.83008 159.775C8.83008 159.546 8.94476 159.317 9.05944 159.202C9.17412 158.972 9.28879 158.858 9.51815 158.743C9.74751 158.628 9.97687 158.514 10.2062 158.514C10.4356 158.628 10.8943 158.743 11.1237 159.087ZM10.4356 160.349C10.5503 160.234 10.6649 160.119 10.6649 160.119C10.6649 160.119 10.7796 159.89 10.7796 159.775C10.7796 159.661 10.7796 159.546 10.6649 159.431C10.5503 159.317 10.4356 159.202 10.4356 159.202C10.3209 159.087 10.2062 159.087 9.97687 159.087C9.74751 159.087 9.51815 159.202 9.40347 159.317C9.28879 159.317 9.17412 159.431 9.17412 159.775C9.17412 160.119 9.28879 160.119 9.40347 160.349C9.63283 160.464 9.74751 160.578 9.97687 160.578C10.2062 160.578 10.4356 160.464 10.4356 160.349Z" fill="#727272"/>
<path d="M12.2704 160.349C12.041 160.119 12.041 159.89 12.041 159.546C12.041 159.202 12.1557 158.972 12.2704 158.743C12.4997 158.514 12.7291 158.514 12.9584 158.514C13.1878 158.514 13.5318 158.628 13.6465 158.743C13.8759 158.972 13.8759 159.202 13.8759 159.546C13.8759 159.89 13.7612 160.119 13.6465 160.349C13.4172 160.578 13.1878 160.578 12.9584 160.578C12.6144 160.578 12.3851 160.578 12.2704 160.349ZM13.3025 160.119C13.4172 159.89 13.5318 159.775 13.5318 159.546C13.5318 159.317 13.4172 159.087 13.3025 158.972C13.1878 158.743 13.0731 158.743 12.8438 158.743C12.6144 158.743 12.4997 158.858 12.3851 158.972C12.2704 159.087 12.1557 159.317 12.1557 159.546C12.1557 159.775 12.2704 160.005 12.3851 160.119C12.4997 160.349 12.6144 160.349 12.8438 160.349C13.0731 160.349 13.3025 160.234 13.3025 160.119Z" fill="#727272"/>
<path d="M14.4501 160.349C14.2207 160.119 14.2207 159.89 14.2207 159.546C14.2207 159.202 14.3354 158.972 14.4501 158.743C14.6794 158.514 14.9088 158.514 15.1381 158.514C15.3675 158.514 15.7115 158.628 15.8262 158.743C16.0556 158.972 16.0556 159.202 16.0556 159.546C16.0556 159.89 15.9409 160.119 15.8262 160.349C15.5969 160.578 15.3675 160.578 15.1381 160.578C14.9088 160.578 14.6794 160.578 14.4501 160.349ZM15.5969 160.119C15.7115 159.89 15.8262 159.775 15.8262 159.546C15.8262 159.317 15.7115 159.087 15.5969 158.972C15.4822 158.743 15.3675 158.743 15.1381 158.743C14.9088 158.743 14.7941 158.858 14.6794 158.972C14.5647 159.087 14.4501 159.317 14.4501 159.546C14.4501 159.775 14.5647 160.005 14.6794 160.119C14.7941 160.349 14.9088 160.349 15.1381 160.349C15.3675 160.349 15.4822 160.234 15.5969 160.119Z" fill="#727272"/>
<path d="M16.5137 160.693H17.8898V161.152H16.5137V160.693Z" fill="#727272"/>
<path d="M21.1009 161.955V162.414H18.4633V162.07L19.9541 160.693C20.1835 160.464 20.1835 160.349 20.2982 160.235C20.4129 160.12 20.4129 160.005 20.4129 159.891C20.4129 159.661 20.2982 159.546 20.1835 159.432C19.9541 159.317 19.8395 159.202 19.6101 159.202C19.1514 159.202 18.922 159.432 18.6927 159.661L18.3486 159.317C18.578 159.088 18.6927 158.973 18.922 158.858C19.1514 158.744 19.4954 158.629 19.7248 158.629C20.0688 158.629 20.4129 158.744 20.6422 158.858C20.8716 159.088 20.9862 159.317 20.9862 159.661C20.9862 159.891 20.9862 160.005 20.8716 160.235C20.7569 160.464 20.6422 160.579 20.4129 160.808L19.2661 161.84H21.1009V161.955Z" fill="#727272"/>
<path d="M22.1328 162.185C21.9035 161.956 21.6741 161.841 21.5594 161.612C21.4448 161.382 21.3301 161.038 21.3301 160.579C21.3301 160.235 21.4448 159.891 21.5594 159.547C21.6741 159.318 21.9035 158.974 22.1328 158.974C22.3622 158.859 22.7062 158.744 22.9356 158.744C23.1649 158.744 23.509 158.859 23.7383 158.974C23.9677 159.203 24.1971 159.318 24.3117 159.547C24.4264 159.776 24.5411 160.121 24.5411 160.579C24.5411 160.923 24.4264 161.268 24.3117 161.612C24.1971 161.841 23.9677 162.185 23.7383 162.185C23.509 162.185 23.1649 162.415 22.9356 162.415C22.5915 162.415 22.3622 162.415 22.1328 162.185ZM23.6237 161.612C23.853 161.382 23.853 161.038 23.853 160.579C23.853 160.121 23.7383 159.776 23.6237 159.547C23.3943 159.318 23.1649 159.203 22.9356 159.203C22.7062 159.203 22.3622 159.318 22.2475 159.547C22.0182 159.776 22.0182 160.121 22.0182 160.579C22.0182 161.038 22.1328 161.382 22.2475 161.612C22.4769 161.841 22.7062 161.956 22.9356 161.956C23.2796 161.956 23.3943 161.841 23.6237 161.612Z" fill="#727272"/>
<path d="M24.9999 160.349C24.7705 160.119 24.7705 159.89 24.7705 159.546C24.7705 159.202 24.8852 158.972 24.9999 158.743C25.2292 158.514 25.4586 158.514 25.6879 158.514C25.9173 158.514 26.2613 158.628 26.376 158.743C26.6054 158.972 26.6054 159.202 26.6054 159.546C26.6054 159.89 26.4907 160.119 26.376 160.349C26.1467 160.578 25.9173 160.578 25.6879 160.578C25.4586 160.578 25.2292 160.578 24.9999 160.349ZM26.1467 160.119C26.2613 159.89 26.376 159.775 26.376 159.546C26.376 159.317 26.2613 159.087 26.1467 158.972C26.032 158.743 25.9173 158.743 25.6879 158.743C25.4586 158.743 25.3439 158.858 25.2292 158.972C25.1145 159.087 24.9999 159.317 24.9999 159.546C24.9999 159.775 25.1145 160.005 25.2292 160.119C25.3439 160.349 25.4586 160.349 25.6879 160.349C25.9173 160.349 26.032 160.234 26.1467 160.119Z" fill="#727272"/>
<path d="M27.2938 160.349C27.0645 160.119 27.0645 159.89 27.0645 159.546C27.0645 159.202 27.1791 158.972 27.2938 158.743C27.5232 158.514 27.7525 158.514 27.9819 158.514C28.2112 158.514 28.5553 158.628 28.67 158.743C28.8993 158.972 28.8993 159.202 28.8993 159.546C28.8993 159.89 28.7846 160.119 28.67 160.349C28.4406 160.578 28.2112 160.578 27.9819 160.578C27.7525 160.578 27.5232 160.578 27.2938 160.349ZM28.4406 160.119C28.5553 159.89 28.67 159.775 28.67 159.546C28.67 159.317 28.5553 159.087 28.4406 158.972C28.3259 158.743 28.2112 158.743 27.9819 158.743C27.7525 158.743 27.6378 158.858 27.5232 158.972C27.4085 159.087 27.2938 159.317 27.2938 159.546C27.2938 159.775 27.4085 160.005 27.5232 160.119C27.6378 160.349 27.7525 160.349 27.9819 160.349C28.2112 160.349 28.3259 160.234 28.4406 160.119Z" fill="#727272"/>
<path d="M8.02709 148.766V152.436H7.56838V149.224H6.76562V148.766H8.02709Z" fill="#727272"/>
<path d="M11.468 150.83C11.5827 151.059 11.6973 151.174 11.6973 151.403C11.6973 151.633 11.5827 151.862 11.468 151.977C11.3533 152.206 11.2386 152.206 10.8946 152.321C10.5505 152.435 10.4359 152.435 10.0918 152.435C9.86248 152.435 9.51844 152.435 9.28908 152.321C9.05972 152.206 8.94504 152.091 8.71569 151.977C8.60101 151.747 8.48633 151.633 8.48633 151.403C8.48633 151.174 8.60101 151.059 8.71569 150.83C8.83036 150.6 8.94504 150.6 9.1744 150.486C8.94504 150.371 8.94504 150.256 8.83036 150.141C8.71569 149.912 8.60101 149.912 8.60101 149.683C8.60101 149.453 8.71569 149.339 8.83036 149.109C8.94504 148.88 9.05972 148.88 9.28908 148.765C9.51844 148.65 9.7478 148.65 9.97715 148.65C10.2065 148.65 10.5505 148.65 10.6652 148.765C10.8946 148.88 11.0093 148.994 11.1239 149.109C11.2386 149.339 11.3533 149.453 11.3533 149.683C11.3533 149.912 11.2386 150.027 11.1239 150.141C11.0093 150.371 10.8946 150.371 10.7799 150.486C11.2386 150.6 11.468 150.715 11.468 150.83ZM10.8946 151.862C11.1239 151.747 11.1239 151.633 11.1239 151.288C11.1239 151.059 11.0093 150.944 10.8946 150.83C10.6652 150.715 10.4359 150.6 10.2065 150.6C9.97715 150.6 9.63312 150.715 9.51844 150.83C9.28908 150.944 9.28908 151.059 9.28908 151.288C9.28908 151.518 9.40376 151.633 9.51844 151.862C9.7478 151.977 9.86247 152.091 10.2065 152.091C10.5505 151.977 10.7799 151.977 10.8946 151.862ZM9.7478 149.224C9.51844 149.339 9.51844 149.453 9.51844 149.683C9.51844 149.912 9.63312 150.027 9.7478 150.141C9.86247 150.256 10.0918 150.371 10.3212 150.371C10.5505 150.371 10.7799 150.256 10.8946 150.141C11.0093 150.027 11.1239 149.912 11.1239 149.683C11.1239 149.453 11.0093 149.339 10.8946 149.224C10.6652 149.109 10.5505 148.994 10.3212 148.994C9.97715 149.109 9.7478 149.224 9.7478 149.224Z" fill="#727272"/>
<path d="M12.3856 150.37C12.1562 150.141 12.1562 149.912 12.1562 149.567C12.1562 149.223 12.2709 148.994 12.3856 148.765C12.615 148.535 12.8443 148.535 13.0737 148.535C13.303 148.535 13.6471 148.65 13.7618 148.765C13.9911 148.994 13.9911 149.223 13.9911 149.567C13.9911 149.912 13.8764 150.141 13.7618 150.37C13.5324 150.6 13.303 150.6 13.0737 150.6C12.8443 150.6 12.615 150.6 12.3856 150.37ZM13.5324 150.256C13.6471 150.026 13.7618 149.912 13.7618 149.682C13.7618 149.453 13.6471 149.223 13.5324 149.109C13.4177 148.879 13.303 148.879 13.0737 148.879C12.8443 148.879 12.7296 148.994 12.615 149.109C12.5003 149.223 12.3856 149.453 12.3856 149.682C12.3856 149.912 12.5003 150.141 12.615 150.256C12.7296 150.485 12.8443 150.485 13.0737 150.485C13.303 150.485 13.4177 150.37 13.5324 150.256Z" fill="#727272"/>
<path d="M14.6786 150.37C14.4492 150.141 14.4492 149.912 14.4492 149.567C14.4492 149.223 14.5639 148.994 14.6786 148.765C14.9079 148.535 15.1373 148.535 15.3666 148.535C15.596 148.535 15.94 148.65 16.0547 148.765C16.2841 148.994 16.2841 149.223 16.2841 149.567C16.2841 149.912 16.1694 150.141 16.0547 150.37C15.8254 150.6 15.596 150.6 15.3666 150.6C15.0226 150.714 14.7933 150.6 14.6786 150.37ZM15.8254 150.256C15.94 150.026 16.0547 149.912 16.0547 149.682C16.0547 149.453 15.94 149.223 15.8254 149.109C15.7107 148.879 15.596 148.879 15.3666 148.879C15.1373 148.879 15.0226 148.994 14.9079 149.109C14.7933 149.223 14.6786 149.453 14.6786 149.682C14.6786 149.912 14.7933 150.141 14.9079 150.256C15.0226 150.485 15.1373 150.485 15.3666 150.485C15.4813 150.37 15.596 150.37 15.8254 150.256Z" fill="#727272"/>
<path d="M16.7432 150.715H18.1193V151.174H16.7432V150.715Z" fill="#727272"/>
<path d="M19.7248 148.766V152.436H19.1514V149.224H18.3486V148.766H19.7248Z" fill="#727272"/>
<path d="M22.8213 149.224C23.0507 149.568 23.2801 150.027 23.2801 150.486C23.2801 150.945 23.1654 151.289 23.0507 151.518C22.936 151.748 22.7067 152.092 22.4773 152.206C22.2479 152.436 21.9039 152.436 21.5599 152.436C21.3305 152.436 21.2158 152.436 20.9865 152.321C20.7571 152.321 20.7571 152.206 20.5278 152.092L20.7571 151.633C20.9865 151.748 21.2158 151.862 21.4452 151.862C21.7892 151.862 22.1333 151.748 22.3626 151.518C22.592 151.289 22.7067 150.945 22.7067 150.486V150.257C22.592 150.486 22.4773 150.486 22.2479 150.601C22.0186 150.715 21.7892 150.715 21.6746 150.715C21.4452 150.715 21.2158 150.601 21.1012 150.486C20.8718 150.371 20.7571 150.257 20.6424 150.142C20.5278 150.027 20.4131 149.798 20.4131 149.568C20.4131 149.339 20.5278 149.11 20.6424 148.995C20.7571 148.765 20.8718 148.651 21.1012 148.536C21.3305 148.421 21.5599 148.307 21.7892 148.307C22.1333 148.651 22.4773 148.88 22.8213 149.224ZM22.1333 150.371C22.2479 150.257 22.3626 150.142 22.3626 150.142C22.3626 150.142 22.4773 149.912 22.4773 149.798C22.4773 149.683 22.4773 149.568 22.3626 149.454C22.2479 149.339 22.1333 149.224 22.1333 149.224C22.0186 149.11 21.9039 149.11 21.6746 149.11C21.4452 149.11 21.2158 149.224 21.1012 149.339C20.8718 149.454 20.8718 149.568 20.8718 149.912C20.8718 150.257 20.9865 150.257 21.1012 150.486C21.3305 150.601 21.4452 150.715 21.6746 150.715C21.9039 150.601 22.0186 150.486 22.1333 150.371Z" fill="#727272"/>
<path d="M23.8534 150.37C23.624 150.141 23.624 149.912 23.624 149.567C23.624 149.223 23.7387 148.994 23.8534 148.765C24.0827 148.535 24.3121 148.535 24.5415 148.535C24.7708 148.535 25.1148 148.65 25.2295 148.765C25.4589 148.994 25.4589 149.223 25.4589 149.567C25.4589 149.912 25.3442 150.141 25.2295 150.37C25.0002 150.6 24.7708 150.6 24.5415 150.6C24.3121 150.6 23.9681 150.6 23.8534 150.37ZM25.0002 150.256C25.1148 150.026 25.2295 149.912 25.2295 149.682C25.2295 149.453 25.1148 149.223 25.0002 149.109C24.8855 148.879 24.7708 148.879 24.5415 148.879C24.3121 148.879 24.1974 148.994 24.0827 149.109C23.9681 149.223 23.8534 149.453 23.8534 149.682C23.8534 149.912 23.9681 150.141 24.0827 150.256C24.1974 150.485 24.3121 150.485 24.5415 150.485C24.7708 150.485 24.8855 150.37 25.0002 150.256Z" fill="#727272"/>
<path d="M26.0321 150.37C25.8027 150.141 25.8027 149.912 25.8027 149.567C25.8027 149.223 25.9174 148.994 26.0321 148.765C26.2615 148.535 26.4908 148.535 26.7202 148.535C26.9495 148.535 27.2936 148.65 27.4082 148.765C27.6376 148.994 27.6376 149.223 27.6376 149.567C27.6376 149.912 27.5229 150.141 27.4082 150.37C27.1789 150.6 26.9495 150.6 26.7202 150.6C26.4908 150.6 26.2615 150.6 26.0321 150.37ZM27.1789 150.256C27.2936 150.026 27.4082 149.912 27.4082 149.682C27.4082 149.453 27.2936 149.223 27.1789 149.109C27.0642 148.879 26.9495 148.879 26.7202 148.879C26.4908 148.879 26.3761 148.994 26.2614 149.109C26.1468 149.223 26.0321 149.453 26.0321 149.682C26.0321 149.912 26.1468 150.141 26.2614 150.256C26.3761 150.485 26.4908 150.485 26.7202 150.485C26.9495 150.37 27.1789 150.37 27.1789 150.256Z" fill="#727272"/>
<path d="M8.02709 137.984V141.655H7.56838V138.443H6.76562V137.984H8.02709Z" fill="#727272"/>
<path d="M11.4677 137.984V138.328L9.97687 141.655H9.51815L11.009 138.443H9.40347V139.131H8.83008V137.984H11.4677Z" fill="#727272"/>
<path d="M12.1561 139.589C11.9268 139.36 11.9268 139.13 11.9268 138.786C11.9268 138.442 12.0414 138.213 12.1561 137.983C12.3855 137.754 12.6148 137.754 12.8442 137.754C13.0735 137.754 13.4176 137.869 13.5323 137.983C13.7616 138.213 13.7616 138.442 13.7616 138.786C13.7616 139.13 13.6469 139.36 13.5323 139.589C13.3029 139.818 13.0735 139.818 12.8442 139.818C12.6148 139.818 12.2708 139.818 12.1561 139.589ZM13.3029 139.474C13.4176 139.245 13.5323 139.13 13.5323 138.901C13.5323 138.671 13.4176 138.442 13.3029 138.327C13.1882 138.098 13.0735 138.098 12.8442 138.098C12.6148 138.098 12.5002 138.213 12.3855 138.327C12.2708 138.442 12.1561 138.671 12.1561 138.901C12.1561 139.13 12.2708 139.36 12.3855 139.474C12.5002 139.704 12.6148 139.704 12.8442 139.704C12.9589 139.589 13.1882 139.474 13.3029 139.474Z" fill="#727272"/>
<path d="M14.3348 139.589C14.1055 139.36 14.1055 139.13 14.1055 138.786C14.1055 138.442 14.2201 138.213 14.3348 137.983C14.4495 137.754 14.7935 137.754 15.0229 137.754C15.2523 137.754 15.5963 137.869 15.711 137.983C15.8257 138.098 15.9403 138.442 15.9403 138.786C15.9403 139.13 15.8257 139.36 15.711 139.589C15.5963 139.818 15.2523 139.818 15.0229 139.818C14.7935 139.818 14.5642 139.818 14.3348 139.589ZM15.4816 139.474C15.5963 139.245 15.711 139.13 15.711 138.901C15.711 138.671 15.5963 138.442 15.4816 138.327C15.3669 138.213 15.2523 138.098 15.0229 138.098C14.7935 138.098 14.6789 138.213 14.5642 138.327C14.4495 138.442 14.3348 138.671 14.3348 138.901C14.3348 139.13 14.4495 139.36 14.5642 139.474C14.6789 139.704 14.7935 139.704 15.0229 139.704C15.2523 139.704 15.3669 139.474 15.4816 139.474Z" fill="#727272"/>
<path d="M16.5137 139.934H17.8898V140.392H16.5137V139.934Z" fill="#727272"/>
<path d="M19.4953 137.984V141.655H18.9219V138.443H18.1191V137.984H19.4953Z" fill="#727272"/>
<path d="M22.9358 140.048C23.0504 140.278 23.1651 140.393 23.1651 140.622C23.1651 140.851 23.0504 141.081 22.9358 141.195C22.8211 141.425 22.7064 141.425 22.3624 141.54C22.133 141.654 21.9036 141.654 21.5596 141.654C21.3302 141.654 20.9862 141.654 20.7569 141.54C20.5275 141.425 20.4128 141.31 20.1835 141.195C20.0688 140.966 19.9541 140.851 19.9541 140.622C19.9541 140.393 20.0688 140.278 20.1835 140.048C20.2981 139.819 20.4128 139.819 20.6422 139.704C20.4128 139.59 20.4128 139.475 20.2981 139.36C20.1835 139.131 20.0688 139.131 20.0688 138.901C20.0688 138.672 20.1835 138.557 20.2981 138.328C20.4128 138.099 20.5275 138.099 20.7569 137.984C20.9862 137.869 21.2156 137.869 21.4449 137.869C21.6743 137.869 22.0183 137.869 22.133 137.984C22.3624 138.099 22.477 138.213 22.5917 138.328C22.7064 138.443 22.8211 138.672 22.8211 138.901C22.8211 139.131 22.7064 139.246 22.5917 139.36C22.477 139.59 22.3624 139.59 22.2477 139.704C22.7064 139.819 22.8211 139.819 22.9358 140.048ZM22.3624 140.966C22.5917 140.851 22.5917 140.737 22.5917 140.393C22.5917 140.163 22.477 140.048 22.3624 139.934C22.133 139.819 21.9036 139.704 21.6743 139.704C21.4449 139.704 21.1009 139.819 20.9862 139.934C20.7569 140.048 20.7569 140.163 20.7569 140.393C20.7569 140.622 20.8715 140.737 20.9862 140.966C21.2156 141.081 21.3302 141.195 21.6743 141.195C22.0183 141.195 22.133 141.195 22.3624 140.966ZM21.1009 138.443C20.8715 138.557 20.8715 138.672 20.8715 138.901C20.8715 139.131 20.9862 139.246 21.1009 139.36C21.2156 139.475 21.4449 139.59 21.6743 139.59C21.9036 139.59 22.133 139.475 22.2477 139.36C22.477 139.246 22.477 139.131 22.477 138.901C22.477 138.672 22.3624 138.557 22.2477 138.443C22.0183 138.328 21.9036 138.213 21.6743 138.213C21.4449 138.213 21.2156 138.328 21.1009 138.443Z" fill="#727272"/>
<path d="M23.7381 139.589C23.5088 139.36 23.5088 139.13 23.5088 138.786C23.5088 138.442 23.6235 138.213 23.7381 137.983C23.8528 137.754 24.1969 137.754 24.4262 137.754C24.6556 137.754 24.9996 137.869 25.1143 137.983C25.3436 138.213 25.3437 138.442 25.3437 138.786C25.3437 139.13 25.229 139.36 25.1143 139.589C24.8849 139.818 24.6556 139.818 24.4262 139.818C24.1969 139.818 23.9675 139.818 23.7381 139.589ZM24.9996 139.474C25.1143 139.245 25.229 139.13 25.229 138.901C25.229 138.671 25.1143 138.442 24.9996 138.327C24.8849 138.098 24.7703 138.098 24.5409 138.098C24.3115 138.098 24.1969 138.213 24.0822 138.327C23.9675 138.442 23.8528 138.671 23.8528 138.901C23.8528 139.13 23.9675 139.36 24.0822 139.474C24.1969 139.704 24.3115 139.704 24.5409 139.704C24.6556 139.589 24.7703 139.474 24.9996 139.474Z" fill="#727272"/>
<path d="M26.0321 139.589C25.8027 139.36 25.8027 139.13 25.8027 138.786C25.8027 138.442 25.9174 138.213 26.0321 137.983C26.1468 137.754 26.4908 137.754 26.7202 137.754C26.9495 137.754 27.2936 137.869 27.4082 137.983C27.6376 138.213 27.6376 138.442 27.6376 138.786C27.6376 139.13 27.5229 139.36 27.4082 139.589C27.1789 139.818 26.9495 139.818 26.7202 139.818C26.3761 139.818 26.1468 139.818 26.0321 139.589ZM27.1789 139.474C27.2936 139.245 27.4082 139.13 27.4082 138.901C27.4082 138.671 27.2936 138.442 27.1789 138.327C27.0642 138.098 26.9495 138.098 26.7202 138.098C26.4908 138.098 26.3761 138.213 26.2614 138.327C26.1468 138.442 26.0321 138.671 26.0321 138.901C26.0321 139.13 26.1468 139.36 26.2614 139.474C26.3761 139.704 26.4908 139.704 26.7202 139.704C26.8348 139.589 27.0642 139.474 27.1789 139.474Z" fill="#727272"/>
<path d="M97.477 54.0237C97.7063 54.2531 97.821 54.7119 97.821 55.1707C97.821 55.7442 97.5916 56.3177 97.1329 56.6618C96.5595 57.0059 95.8715 57.2353 95.0687 57.2353H91.5137V49.8945H94.8394C95.7568 49.8945 96.3302 50.1239 96.7889 50.468C97.2476 50.8121 97.477 51.2709 97.477 51.8444C97.477 52.1885 97.3623 52.5326 97.2476 52.762C97.0183 52.9914 96.7889 53.3355 96.4449 53.4502C96.9036 53.6796 97.2476 53.7943 97.477 54.0237ZM93.1192 52.9914H94.7247C95.0687 52.9914 95.2981 52.8767 95.6421 52.762C95.8715 52.5326 95.8715 52.4179 95.8715 52.0738C95.8715 51.8444 95.7568 51.5003 95.6421 51.3856C95.4128 51.1562 95.1834 51.1562 94.7247 51.1562H93.1192V52.9914ZM96.1008 55.056C96.1008 54.4825 95.6421 54.1384 94.8394 54.1384H93.0045V55.9736H94.8394C95.7568 55.9736 96.1008 55.7442 96.1008 55.056Z" fill="#5E5E5E"/>
<path d="M104.587 51.3862H102.294V57.3505H100.688V51.3862H98.3945V50.0098H104.702V51.3862H104.587Z" fill="#5E5E5E"/>
<path d="M133.142 56.8912C132.569 56.5471 132.11 56.0883 131.766 55.6295C131.422 55.056 131.192 54.3678 131.192 53.6796C131.192 52.9914 131.422 52.3032 131.766 51.7297C132.11 51.1562 132.569 50.6974 133.142 50.468C133.715 50.1239 134.403 49.8945 135.091 49.8945C135.665 49.8945 136.353 50.0092 136.812 50.2386C137.385 50.468 137.729 50.8121 138.073 51.1562L137.041 52.1885C136.468 51.615 135.894 51.2709 135.206 51.2709C134.747 51.2709 134.289 51.3856 133.945 51.5003C133.601 51.7297 133.371 51.9591 133.027 52.4179C132.798 52.762 132.798 53.2208 132.798 53.6796C132.798 54.1384 132.913 54.5972 133.027 54.9413C133.257 55.2854 133.486 55.5148 133.945 55.8589C134.289 56.0883 134.747 56.0883 135.206 56.0883C135.894 56.0883 136.468 55.8589 137.041 55.1707L138.073 56.203C137.729 56.6618 137.27 57.0059 136.812 57.1206C136.238 57.35 135.665 57.4647 135.091 57.4647C134.403 57.35 133.83 57.2353 133.142 56.8912Z" fill="#5E5E5E"/>
<path d="M144.151 50.3539C144.61 50.5833 145.068 50.9274 145.298 51.2715C145.527 51.7303 145.642 52.1891 145.642 52.6479C145.642 53.2213 145.527 53.6801 145.298 54.0242C145.068 54.3683 144.724 54.7124 144.151 54.9418C143.578 55.1712 143.119 55.2859 142.546 55.2859H141.055V57.3505H139.449V50.0098H142.546C143.119 50.0098 143.692 50.0098 144.151 50.3539ZM143.463 53.5654C143.692 53.336 143.922 52.992 143.922 52.6479C143.922 52.3038 143.692 51.9597 143.463 51.7303C143.234 51.5009 142.89 51.3862 142.316 51.3862H140.94V53.9095H142.316C142.89 53.9095 143.234 53.7948 143.463 53.5654Z" fill="#5E5E5E"/>
<path d="M179.817 50.0098V57.3505H178.211V54.7124C177.638 54.9418 176.95 55.0565 176.491 55.0565C175.573 55.0565 174.771 54.8271 174.197 54.3683C173.624 53.9095 173.395 53.2213 173.395 52.4185V50.1245H175V52.1891C175 52.7626 175.229 53.1066 175.459 53.336C175.688 53.5654 176.147 53.6801 176.606 53.6801C177.179 53.6801 177.638 53.5654 178.211 53.336V50.0098H179.817Z" fill="#5E5E5E"/>
<path d="M187.156 51.3862H184.862V57.3505H183.256V51.3862H180.963V50.0098H187.27V51.3862H187.156Z" fill="#5E5E5E"/>
<path d="M221.101 50.0098V57.3505H219.496V51.3862H216.17V57.3505H214.564V50.0098H221.101Z" fill="#5E5E5E"/>
<path d="M228.555 51.3862H226.261V57.3505H224.656V51.3862H222.362V50.0098H228.67V51.3862H228.555Z" fill="#5E5E5E"/>
<path d="M213.188 194.302C213.188 194.875 212.156 197.398 210.321 198.087C208.371 198.775 204.816 196.71 204.816 196.71C204.816 196.71 206.422 194.302 206.422 193.04C206.307 190.861 206.193 186.961 206.193 186.961L213.303 186.502L213.073 193.613C212.959 193.613 213.073 193.728 213.188 194.302Z" fill="#E9A6A5"/>
<path d="M214.105 200.494C214.105 200.494 213.99 201.871 213.646 202.673C213.532 202.903 213.073 203.476 212.844 203.706C211.926 204.394 210.206 204.623 208.945 204.394C207.568 204.165 206.651 204.165 205.16 204.509C202.637 205.082 198.509 204.279 195.642 203.247C192.775 202.215 193.004 202.215 192.889 200.15C192.889 199.806 192.545 199.118 192.66 198.659C193.004 197.971 193.119 198.659 193.463 198.43L214.105 200.494Z" fill="#263238"/>
<path d="M212.729 194.301C212.5 194.416 212.385 194.531 212.156 194.646C211.927 194.76 211.812 194.99 211.582 195.219C211.353 195.563 211.009 195.907 210.665 196.251C210.55 196.366 210.436 196.366 210.321 196.366C210.206 196.251 210.321 196.137 210.321 196.022C210.436 195.793 210.436 195.678 210.436 195.448C210.436 194.875 209.862 194.646 209.404 194.416C208.371 194.072 207.225 193.843 206.078 193.728C205.849 193.728 205.619 193.728 205.39 193.728C205.16 193.843 204.931 194.072 204.816 194.416C203.784 196.71 203.44 196.366 201.032 196.825C199.082 197.169 196.215 197.398 195.527 197.513C192.775 198.087 192.316 198.431 192.316 199.922C192.316 202.101 195.527 202.445 197.936 202.904C200.688 203.477 203.44 204.051 205.504 203.363C207.225 202.904 207.798 203.133 209.174 203.363C210.665 203.592 212.615 202.904 213.188 202.216C214.335 200.495 213.761 197.972 213.532 196.595C213.303 195.793 213.303 194.416 213.188 193.957C213.188 193.843 213.073 193.728 213.073 193.728L212.844 193.613C212.959 193.843 212.959 194.072 212.729 194.301Z" fill="#455A64"/>
<path d="M210.78 196.251C211.124 195.907 211.468 195.563 211.697 195.219C211.812 194.99 212.041 194.875 212.27 194.646C212.5 194.531 212.615 194.416 212.844 194.301C213.073 194.072 213.073 193.843 213.073 193.613C213.188 193.613 213.303 193.613 213.303 193.728C213.417 193.843 213.417 193.957 213.417 193.957C213.417 194.187 213.532 194.646 213.532 195.104C213.188 195.334 212.844 195.678 212.614 195.907C211.812 196.595 209.977 197.857 207.339 198.889C204.243 200.036 200.573 200.381 200 200.266C199.426 200.151 197.706 200.381 199.77 199.578C201.835 198.66 208.83 198.545 210.78 196.251Z" fill="#37474F"/>
<path d="M202.867 199.577C202.867 199.577 202.752 199.577 202.867 199.577C202.637 199.004 201.261 197.054 200.229 196.71C200.229 196.71 200.114 196.71 200.114 196.595V196.48C200.114 196.48 200.114 196.48 200.229 196.48C200.229 196.48 200.229 196.48 200.344 196.48C201.49 196.939 202.867 198.889 203.096 199.463C202.981 199.692 202.867 199.692 202.867 199.577Z" fill="#263238"/>
<path d="M204.357 199.349C204.243 198.775 202.867 196.94 201.834 196.481C201.834 196.481 201.72 196.481 201.72 196.367V196.252C201.72 196.252 201.72 196.252 201.834 196.252C201.834 196.252 201.834 196.252 201.949 196.252C203.096 196.711 204.587 198.661 204.701 199.234C204.472 199.464 204.472 199.464 204.357 199.349C204.357 199.464 204.357 199.349 204.357 199.349Z" fill="#263238"/>
<path d="M205.848 199.233C205.618 198.43 204.013 196.595 202.981 196.251C202.981 196.251 202.866 196.251 202.866 196.136V196.021C202.866 196.021 202.866 196.021 202.981 196.021C202.981 196.021 202.981 196.021 203.096 196.021C204.242 196.48 205.848 198.315 206.077 199.233C205.963 199.348 205.963 199.348 205.848 199.233C205.963 199.233 205.848 199.233 205.848 199.233Z" fill="#263238"/>
<path d="M199.656 199.693C199.426 199.119 198.05 197.169 197.018 196.825C197.018 196.825 196.903 196.825 196.903 196.71V196.596C196.903 196.596 196.903 196.596 197.018 196.596C197.018 196.596 197.018 196.596 197.133 196.596C198.279 197.055 199.656 199.004 199.885 199.578C199.77 199.807 199.77 199.693 199.656 199.693Z" fill="#263238"/>
<path d="M201.261 199.577C201.032 199.004 199.656 197.054 198.623 196.71C198.623 196.71 198.509 196.71 198.509 196.595V196.48C198.509 196.48 198.509 196.48 198.623 196.48C198.623 196.48 198.623 196.48 198.738 196.48C199.885 196.939 201.261 198.889 201.49 199.463C201.376 199.692 201.376 199.692 201.261 199.577C201.261 199.692 201.261 199.692 201.261 199.577Z" fill="#263238"/>
<path d="M192.775 193.612C192.775 194.186 191.743 196.709 189.908 197.397C187.958 198.085 184.403 196.021 184.403 196.021C184.403 196.021 186.009 193.612 186.009 192.35C185.894 190.171 185.779 186.271 185.779 186.271L192.89 185.812L192.66 192.924C192.546 192.924 192.775 193.039 192.775 193.612Z" fill="#E9A6A5"/>
<path d="M193.692 202.444C193.692 202.444 193.692 203.935 193.348 204.509C193.348 204.623 193.233 204.623 193.119 204.738C192.087 205.082 190.94 205.082 189.908 204.967C188.532 204.738 187.155 204.394 185.779 204.967C184.403 205.541 181.307 206.229 178.44 206C175.458 205.77 173.967 204.738 173.509 203.706C173.394 203.362 173.279 203.018 173.279 202.673C173.394 201.985 173.509 201.985 173.738 201.756L193.692 202.444Z" fill="#263238"/>
<path d="M192.431 193.612C192.201 193.727 192.087 193.841 191.857 193.956C191.628 194.071 191.513 194.3 191.284 194.53C191.054 194.874 190.71 195.218 190.366 195.562C190.252 195.677 190.137 195.677 190.022 195.677C189.908 195.562 190.022 195.447 190.022 195.333C190.137 195.103 190.137 194.988 190.137 194.759C190.137 194.186 189.564 193.956 189.105 193.727C188.073 193.383 186.926 193.153 185.779 193.039C185.55 193.039 185.321 193.039 185.091 193.039C184.862 193.153 184.632 193.383 184.518 193.727C183.486 196.021 182.11 197.168 180.045 198.429C179.243 198.888 177.064 200.15 176.376 200.494C173.05 201.985 173.05 202.329 173.738 203.706C174.311 204.738 176.261 205.197 178.554 205.197C180.504 205.197 183.256 205.082 185.321 204.279C187.041 203.82 188.532 203.82 190.022 204.164C191.513 204.394 193.463 203.935 193.577 203.017C193.692 201.641 193.577 197.282 193.233 195.906C193.004 195.103 193.004 193.727 192.889 193.268C192.889 193.153 192.775 193.039 192.775 193.039L192.545 192.924C192.545 193.153 192.66 193.383 192.431 193.612Z" fill="#455A64"/>
<path d="M190.367 195.562C190.711 195.218 191.055 194.874 191.284 194.53C191.399 194.3 191.628 194.186 191.857 193.956C192.087 193.841 192.202 193.727 192.431 193.612C192.66 193.383 192.66 193.153 192.66 192.924C192.775 192.924 192.89 192.924 192.89 193.039C193.004 193.153 193.004 193.268 193.004 193.268C193.004 193.497 193.119 193.956 193.119 194.415C192.775 194.644 192.431 194.988 192.202 195.218C191.399 195.906 189.908 197.741 187.614 199.462C185.435 201.067 181.88 203.132 181.307 203.017C180.734 202.903 179.816 202.559 181.995 201.756C184.059 200.838 188.532 197.741 190.367 195.562Z" fill="#37474F"/>
<path d="M181.422 202.56C180.849 201.871 178.211 200.151 176.835 200.266H176.72L176.605 200.151C176.605 200.151 176.605 200.151 176.605 200.036C176.605 200.036 176.605 200.036 176.605 199.921C176.605 199.921 176.605 199.921 176.72 199.921C176.72 199.921 176.72 199.921 176.835 199.921C178.326 199.807 181.193 201.527 181.766 202.215C181.766 202.215 181.766 202.215 181.766 202.33C181.766 202.33 181.766 202.33 181.766 202.445C181.766 202.445 181.766 202.445 181.766 202.56C181.766 202.56 181.766 202.56 181.766 202.674C181.651 202.56 181.537 202.674 181.422 202.56C181.537 202.674 181.422 202.56 181.422 202.56Z" fill="#263238"/>
<path d="M183.256 201.526C182.683 200.838 180.045 199.118 178.669 199.232H178.554L178.439 199.118C178.439 199.118 178.439 199.118 178.439 199.003C178.439 199.003 178.439 199.003 178.439 198.888C178.439 198.888 178.439 198.888 178.554 198.888C178.554 198.888 178.554 198.888 178.669 198.888C180.16 198.774 183.027 200.494 183.6 201.182C183.6 201.182 183.6 201.182 183.6 201.297C183.6 201.297 183.6 201.297 183.6 201.412C183.6 201.412 183.6 201.412 183.6 201.526C183.6 201.526 183.6 201.526 183.6 201.641C183.485 201.526 183.371 201.526 183.256 201.526C183.371 201.526 183.256 201.526 183.256 201.526Z" fill="#263238"/>
<path d="M185.091 200.495C184.518 199.807 181.88 198.086 180.504 198.201H180.389L180.274 198.086C180.274 198.086 180.274 198.086 180.274 197.972C180.274 197.972 180.274 197.972 180.274 197.857C180.274 197.857 180.274 197.857 180.389 197.857C180.389 197.857 180.389 197.857 180.504 197.857C181.995 197.742 184.862 199.463 185.435 200.151C185.435 200.151 185.435 200.151 185.435 200.266C185.435 200.266 185.435 200.266 185.435 200.38C185.435 200.38 185.435 200.38 185.435 200.495C185.435 200.495 185.435 200.495 185.435 200.61C185.32 200.495 185.206 200.495 185.091 200.495C185.206 200.495 185.091 200.495 185.091 200.495Z" fill="#263238"/>
<path d="M186.697 199.234C186.238 198.66 183.601 196.94 182.224 197.055H182.11L181.995 196.94C181.995 196.94 181.995 196.94 181.995 196.825C181.995 196.825 181.995 196.825 181.995 196.711C181.995 196.711 181.995 196.711 182.11 196.711C182.11 196.711 182.11 196.711 182.224 196.711C183.715 196.596 186.582 198.316 187.156 199.005C187.156 199.005 187.156 199.005 187.156 199.119C187.156 199.119 187.156 199.119 187.156 199.234C187.156 199.234 187.156 199.234 187.156 199.349C187.156 199.349 187.156 199.349 187.156 199.463H187.041C186.812 199.349 186.812 199.349 186.697 199.234Z" fill="#263238"/>
<path d="M188.532 198.201C188.417 198.201 188.417 198.086 188.532 198.201C187.729 197.283 184.977 195.792 183.6 195.907H183.486L183.371 195.792C183.371 195.792 183.371 195.792 183.371 195.678C183.371 195.678 183.371 195.678 183.371 195.563C183.371 195.563 183.371 195.563 183.486 195.563C183.486 195.563 183.486 195.563 183.6 195.563C185.091 195.448 188.073 196.939 188.876 197.972C188.876 197.972 188.876 197.972 188.876 198.086C188.876 198.086 188.876 198.086 188.876 198.201C188.876 198.201 188.876 198.201 188.876 198.316C188.646 198.201 188.646 198.201 188.532 198.201Z" fill="#263238"/>
<path d="M184.518 123.303C183.83 136.264 183.715 153.813 184.059 162.874C184.288 167.462 185.32 189.025 185.32 189.025C188.875 191.893 192.889 189.025 192.889 189.025C192.889 189.025 194.953 174.344 194.953 170.444C195.068 167.118 194.724 162.415 194.724 162.415L196.559 151.404C196.559 151.404 199.082 162.415 200.802 169.756C202.637 177.441 206.077 191.893 206.077 191.893C209.518 193.04 213.531 190.517 213.531 190.517C213.531 190.517 213.531 181.341 212.843 174.803C212.155 168.609 211.353 166.43 211.238 165.283C211.238 165.283 208.027 142.113 207.109 124.335L184.518 123.303Z" fill="#0023A0"/>
<path opacity="0.2" d="M195.068 151.174L198.738 140.851C198.738 140.851 199.655 139.245 201.146 135.346C201.146 135.346 200.458 139.131 199.311 143.26L196.674 151.404L194.839 162.415L195.068 151.174Z" fill="black"/>
<path d="M213.531 187.305C211.697 188.91 207.797 189.943 205.504 189.14L206.192 191.778C209.288 192.81 212.843 191.663 213.646 190.402L213.531 187.305Z" fill="#93A3BB"/>
<path d="M193.233 186.617C191.169 187.879 187.27 187.879 185.091 186.732L185.206 189.37C188.072 190.976 191.857 190.402 192.889 189.37L193.233 186.617Z" fill="#93A3BB"/>
<path d="M207.912 81.5516C207.797 81.8957 207.453 81.4369 207.109 81.6663C206.88 81.781 206.536 81.6663 206.307 81.5516C206.192 81.5516 206.077 81.4369 205.848 81.4369C205.16 81.0928 204.472 80.634 203.898 79.9458C202.981 79.0283 202.293 78.1107 201.49 77.1931C200.687 76.2755 199.999 75.3579 199.197 74.4403C198.852 73.9815 197.591 72.3757 197.132 71.4581C196.788 70.5405 197.018 69.8523 197.476 69.5082C196.33 69.6229 195.756 68.9347 195.871 68.3612C195.871 68.0171 195.986 67.7877 196.215 67.5583C196.444 67.3289 196.674 67.2142 197.018 67.0995C197.018 67.0995 197.018 67.2142 196.903 67.3289C196.903 67.4436 196.903 67.4436 196.903 67.5583C196.903 67.673 196.903 67.673 197.018 67.673L197.132 67.7877C197.247 67.7877 197.362 67.9024 197.476 67.9024C197.591 67.9024 197.706 67.7877 197.82 67.7877C198.05 67.5583 198.164 67.3289 198.164 67.0995C198.164 66.7554 198.164 66.4113 198.05 66.1819C197.935 65.9525 197.935 65.6084 198.05 65.379C198.164 65.1496 198.279 64.9202 198.508 64.8055C198.853 64.6908 199.311 64.3467 201.146 64.8055C201.261 64.8055 201.375 64.8055 201.49 64.8055C201.605 64.8055 201.719 64.6908 201.834 64.5761C201.949 64.4614 201.949 64.3467 202.064 64.1173C202.178 63.888 202.408 63.7733 202.522 63.5439C202.752 63.4292 202.981 63.3145 203.21 63.3145C203.669 63.3145 204.242 63.4292 204.586 63.6586C204.93 63.8879 205.275 64.0026 205.619 64.1173C206.077 64.1173 206.651 63.8879 207.109 64.0026C208.027 64.1173 208.141 65.1496 209.059 65.4937C209.518 65.7231 210.091 65.379 210.664 66.1819C210.894 66.526 210.779 66.9848 210.894 67.4436C211.008 67.673 211.238 68.0171 211.467 68.1318C211.582 68.2465 211.697 68.4759 211.697 68.7053C211.697 68.9347 211.811 69.0494 211.697 69.2788C211.697 69.5082 211.582 69.6229 211.467 69.8523C211.352 69.967 211.238 70.1964 211.008 70.3111C211.811 70.6552 212.499 71.6875 212.385 73.408C212.27 74.555 211.926 75.5873 211.353 76.6196C211.238 77.4225 208.371 80.7487 207.912 81.5516Z" fill="#263238"/>
<path d="M207.568 84.0743C207.453 84.7625 207.568 85.1066 208.371 85.4506L209.976 86.3682C209.976 86.3682 206.995 88.3181 201.49 87.4005C197.935 86.827 198.853 85.2213 198.853 85.2213C198.853 85.2213 200.458 84.7625 200.802 84.7625C201.376 84.6478 201.261 84.0743 201.376 83.5008L201.605 82.3538C200.229 82.3538 199.541 81.895 198.853 81.4362C197.706 80.748 197.018 78.9128 197.247 75.3571C197.362 74.3248 197.476 73.4072 197.706 72.3749C197.82 72.1455 197.82 71.8014 197.935 71.572C198.165 70.8838 198.394 70.3103 198.623 69.6221C200.687 68.2457 203.898 68.3604 206.765 70.7691C206.536 73.1778 207.683 73.6366 207.683 74.6689C207.109 76.16 207.568 76.6188 208.486 76.7335C208.83 75.1277 210.779 75.2424 211.353 76.3894C211.926 77.307 211.697 78.6834 210.435 79.9451C209.174 81.0921 208.027 80.2892 208.027 80.0598C208.142 79.9451 207.683 83.3861 207.568 84.0743Z" fill="#EDBBA5"/>
<path d="M201.49 79.373H199.196C199.196 79.4877 199.196 79.7171 199.311 79.8318C199.311 79.9465 199.426 80.0612 199.54 80.1759C199.655 80.2906 199.77 80.4053 199.884 80.4053C199.999 80.52 200.114 80.52 200.343 80.52C200.687 80.52 200.916 80.4053 201.146 80.1759C201.375 79.9465 201.49 79.7171 201.49 79.373Z" fill="#AF6668"/>
<path d="M201.261 79.7169C201.032 79.6022 200.688 79.6022 200.459 79.7169C200.229 79.8316 200 79.9463 199.771 80.2904C200 80.4051 200.115 80.5198 200.344 80.5198C200.573 80.5198 200.803 80.4051 200.917 80.4051C201.147 80.2904 201.261 80.1757 201.376 79.9463C201.376 79.7169 201.261 79.7169 201.261 79.7169Z" fill="#E6977A"/>
<path d="M198.853 72.2605L197.706 72.3752C197.821 72.1458 197.821 71.8017 197.935 71.5723C197.935 71.5723 197.935 71.5723 198.05 71.5723C198.165 71.5723 198.279 71.5723 198.394 71.5723C198.509 71.5723 198.623 71.687 198.623 71.687C198.738 71.8017 198.738 71.8017 198.853 71.9164C198.853 72.0311 198.853 72.1458 198.853 72.2605Z" fill="#263238"/>
<path d="M204.472 73.1782L203.096 72.6047C203.096 72.49 203.21 72.3753 203.21 72.3753C203.21 72.3753 203.325 72.2607 203.44 72.146C203.554 72.146 203.669 72.0312 203.784 72.0312C203.898 72.0312 204.013 72.0313 204.128 72.146C204.357 72.2607 204.472 72.3753 204.587 72.6047C204.472 72.8341 204.472 72.9488 204.472 73.1782Z" fill="#263238"/>
<path d="M198.738 73.9817C198.738 74.0964 198.623 74.3258 198.509 74.4405C198.394 74.5552 198.279 74.6699 198.05 74.6699C197.935 74.6699 197.935 74.6699 197.821 74.6699C197.706 74.6699 197.706 74.5552 197.591 74.5552C197.477 74.4405 197.477 74.4405 197.477 74.3258C197.477 74.2111 197.477 74.2111 197.477 74.0964C197.477 73.9817 197.591 73.7523 197.706 73.6376C197.821 73.5229 197.935 73.4082 198.165 73.4082C198.279 73.4082 198.279 73.4082 198.394 73.4082C198.509 73.4082 198.509 73.5229 198.623 73.5229C198.738 73.6376 198.738 73.6376 198.738 73.7523C198.738 73.7523 198.738 73.867 198.738 73.9817Z" fill="#263238"/>
<path d="M203.784 74.4407C203.784 74.5554 203.669 74.7848 203.555 74.8995C203.44 75.0142 203.211 75.1289 203.096 75.1289C202.981 75.1289 202.981 75.1289 202.866 75.1289C202.752 75.1289 202.752 75.0142 202.637 75.0142C202.522 74.8995 202.522 74.8995 202.522 74.7848C202.522 74.6701 202.522 74.6701 202.522 74.5554C202.522 74.4407 202.637 74.2113 202.752 74.0966C202.866 73.9819 202.981 73.8672 203.211 73.8672C203.325 73.8672 203.325 73.8672 203.44 73.8672C203.555 73.8672 203.555 73.9819 203.669 73.9819C203.784 74.0966 203.784 74.0966 203.784 74.2113C203.669 74.2113 203.784 74.326 203.784 74.4407Z" fill="#263238"/>
<path d="M199.082 77.0779L200.688 77.5367L200.458 74.0957C199.77 74.2104 199.541 75.5868 199.082 77.0779Z" fill="#E6977A"/>
<path d="M201.72 82.3538C204.128 82.3538 206.537 81.7803 207.225 80.748C207.11 81.4362 206.651 82.0097 206.078 82.4685C204.358 83.6155 201.605 83.2714 201.605 83.2714L201.72 82.3538Z" fill="#E6977A"/>
<path d="M211.009 108.048C210.894 108.507 210.779 108.736 210.55 109.08C209.403 111.259 206.536 114.471 206.536 114.471L204.357 109.539C204.357 109.539 204.701 107.933 205.275 105.754C207.454 106.327 209.403 106.672 211.009 108.048Z" fill="#E8A290"/>
<path d="M198.623 103.803C198.623 103.803 210.55 109.079 211.008 108.964C211.238 108.85 215.94 100.935 215.94 93.4799C215.94 90.0389 212.499 85.9097 208.485 86.7126C206.536 87.1714 206.536 87.7449 203.669 91.9888C200.802 96.2327 198.623 103.803 198.623 103.803Z" fill="#404040"/>
<path d="M205.275 110.686L196.788 98.5279C196.788 98.4132 196.674 98.1838 196.559 97.8397C196.1 96.6927 195.183 94.1693 194.495 91.6459C194.266 90.7283 193.692 89.2372 193.233 87.7461C192.66 86.1404 191.972 84.0758 191.972 83.7317C191.972 83.617 192.087 83.617 192.087 83.3876C192.431 82.5847 192.775 80.6348 193.004 79.7172C193.119 79.1437 193.233 77.882 192.545 77.882C191.513 77.882 191.972 79.2584 191.513 80.0613C191.399 79.4878 191.054 78.4555 190.825 77.3085L190.71 74.6704C190.71 74.441 190.825 73.0646 190.137 73.0646C189.449 73.0646 189.564 74.6704 189.22 77.1938C189.105 76.9644 189.105 76.5056 188.99 76.1615C188.99 75.9321 188.876 75.2439 188.761 74.7851C188.876 74.0969 188.876 72.9499 188.073 73.0646C187.729 73.1793 187.729 74.6704 187.729 74.6704C187.729 74.8998 187.729 76.5056 187.729 76.8497C187.614 76.2762 187.385 73.8675 186.811 73.8675C186.353 73.8675 186.238 74.5557 186.353 75.0145C186.353 75.3586 186.697 77.882 186.697 78.2261C186.467 77.882 186.238 75.588 186.009 75.588C185.091 75.588 185.435 78.7996 185.779 79.6025C185.779 79.7172 185.894 79.8319 185.894 80.0613C186.009 80.6348 186.238 81.5524 186.697 82.47C187.27 83.5023 188.073 85.1081 188.188 85.4522C188.302 85.911 188.532 87.8608 188.876 90.1548C188.99 91.1871 189.22 92.2194 189.334 93.3664C189.334 93.5958 189.564 94.3987 190.252 97.2662C191.169 101.281 191.284 101.395 191.284 101.51C191.628 102.198 200.802 114.93 201.261 115.503L201.49 115.847L205.275 110.686Z" fill="#E8A28F"/>
<path d="M189.449 82.3535C189.449 82.3535 190.137 80.5183 191.399 80.5183C191.399 80.5183 190.711 80.2889 190.137 80.7477C189.564 81.2065 189.449 82.3535 189.449 82.3535Z" fill="#E17458"/>
<path d="M197.591 110.914L181.192 108.161C181.192 108.161 183.027 103.344 183.715 103.344C184.403 103.344 196.101 108.62 196.101 108.62L197.018 110.57L197.591 110.914Z" fill="#E8A290"/>
<path d="M190.023 103.116C190.023 103.116 183.83 109.08 180.963 108.048C178.211 107.015 178.326 102.427 180.734 98.9865C186.812 94.3985 190.023 103.116 190.023 103.116Z" fill="#E8A290"/>
<path d="M186.124 110.915C187.041 105.754 193.348 89.4665 193.922 86.599C194.151 85.2226 197.821 85.1079 201.261 85.3373C204.931 85.5667 208.486 86.0255 208.486 86.0255C208.486 86.0255 211.697 86.599 213.073 87.8607C214.449 89.2371 214.908 92.9075 212.844 100.019C211.238 105.639 209.289 108.621 208.257 112.75C208.027 114.127 207.913 115.503 207.683 116.994C207.339 123.073 208.371 125.138 206.307 127.547C202.752 131.791 186.009 129.382 184.518 125.367C183.945 123.991 185.206 116.077 186.124 110.915Z" fill="#FD8D3C"/>
<path d="M180.733 98.9857C180.733 98.9857 189.334 86.2541 194.495 85.6806C199.655 85.1071 201.719 88.6628 200.572 91.5303C199.426 94.3978 187.499 104.491 187.499 104.491C187.499 104.491 180.504 100.821 180.733 98.9857Z" fill="#E8A290"/>
<path d="M185.779 92.4477C185.779 92.4477 191.055 94.8564 193.004 99.7885C194.61 98.9856 204.816 91.5301 199.426 86.9421C193.348 81.666 185.779 92.4477 185.779 92.4477Z" fill="#404040"/>
</svg>
