<svg width="468" height="468" viewBox="0 0 468 468" fill="none" xmlns="http://www.w3.org/2000/svg">
<path d="M354.538 139.138C356.109 136.17 320.405 125.578 319.829 154.695C319.829 154.695 252.976 153.108 284.91 116.674C295.957 104.085 294.805 93.6461 294.491 83.9233C294.177 74.2005 301.401 46.0045 326.111 48.819C326.111 48.819 332.603 46.2604 340.665 50.3542C359.093 59.6676 400.293 149.885 354.538 139.138Z" fill="#070707"/>
<path d="M308.154 173.782C308.154 173.782 305.798 178.387 301.506 183.607C296.323 189.952 288.365 197.27 278.366 198.703C273.602 199.368 268.891 198.396 264.598 196.502C252.452 191.232 240.024 151.005 240.024 151.005C237.878 145.273 246.885 142.184 246.885 142.184C246.885 142.184 269.205 174.959 271.561 173.782C273.916 172.656 287.528 134.226 290.774 129.415C294.019 124.605 305.118 122.098 305.118 122.098L308.154 173.782Z" fill="#A66CDE"/>
<path d="M301.506 183.608C296.324 189.953 288.366 197.271 278.367 198.703C273.603 199.369 268.891 198.396 264.598 196.503C265.07 196.554 277.215 198.038 282.084 189.544C287.005 180.895 292.345 167.181 299.674 171.787C302.815 173.782 302.658 178.695 301.506 183.608Z" fill="#83438E"/>
<path d="M399.771 432.919C399.771 432.919 407.257 439.622 405.791 444.33C404.325 449.089 397.572 452.262 396.63 458.044C395.74 463.827 392.183 466.66 388.884 466.66C385.586 466.66 372.922 466.626 372.922 466.626C372.922 466.626 370.663 462.906 376.474 461.678C382.338 460.45 384.536 453.644 384.17 447.298C383.804 440.953 384.694 432.509 384.694 432.509L397.206 429.746L399.771 432.919Z" fill="#002822"/>
<path d="M336.372 435.734C336.372 435.734 339.042 464.033 335.797 465.619L293.706 465.517C293.706 465.517 290.451 460.467 297.204 459.443C303.988 456.73 305.344 454.016 321.138 446.174C323.075 437.577 336.372 435.734 336.372 435.734Z" fill="#002822"/>
<path d="M336.884 463.314L292.957 463.686C293.084 465.036 293.404 465.852 293.639 466.403C307.2 466.329 335.593 466.405 336.059 466.396C336.374 466.27 336.717 464.673 336.884 463.314Z" fill="#969696"/>
<path d="M366.37 232.578C357.732 213.594 352.392 208.118 353.439 202.233C354.172 197.832 351.136 120.408 351.136 120.408C350.089 120.101 348.047 119.794 346.895 119.59C343.335 118.822 340.404 116.366 339.199 113.04C337.734 108.997 336.53 103.061 336.582 95.5898L335.482 95.7945L316.845 99.4278C316.845 99.4278 317.264 105.159 317.264 110.583C317.264 110.635 317.264 110.686 317.264 110.737C317.264 115.445 314.123 119.59 309.516 120.869C307.16 121.534 305.119 122.097 305.119 122.097C305.119 122.097 298.26 141.236 296.952 160.886C295.643 180.536 309.411 189.082 296.847 228.331C283.969 268.348 371.134 243.069 366.37 232.578Z" fill="#F5C99D"/>
<path d="M316.793 99.3789C316.793 99.3789 317.211 105.11 317.211 110.535C327.629 110.228 333.179 100.914 335.43 95.7969L316.793 99.3789Z" fill="#D8A982"/>
<path d="M313.285 104.495C320.486 111.51 337.995 104.904 337.995 89.8592C337.995 74.8145 341.189 64.7335 325.431 63.8636C309.673 62.9937 306.584 68.725 305.328 73.7399C304.124 78.7548 306.084 97.4792 313.285 104.495Z" fill="#F5C99D"/>
<path d="M315.902 64.9385C315.902 64.9385 310.877 66.7807 308.835 70.3628C306.793 73.8425 305.118 78.4992 305.484 84.1794C305.484 84.1794 300.406 72.205 306.113 65.3991C312.185 58.1838 315.902 64.9385 315.902 64.9385Z" fill="#070707"/>
<path d="M368.726 154.695C368.726 154.695 369.354 163.343 368.726 173.731C368.307 180.589 361.187 189.8 360.192 192.102C357.679 197.834 354.8 198.755 354.8 198.755L332.708 204.077L324.96 205.919L300.459 198.755C300.459 198.755 289.308 168.307 293.758 151.164C298.26 134.022 305.066 122.098 305.066 122.098C305.066 122.098 325.064 141.237 351.136 120.461L368.726 154.695Z" fill="#A66CDE"/>
<path d="M362.286 176.495C361.867 183.352 361.239 189.799 360.192 192.051C357.679 197.782 354.8 198.703 354.8 198.703L332.707 204.025L323.127 201.262C323.127 201.262 355.166 196.503 351.606 169.535L362.286 176.495Z" fill="#F2CCAA"/>
<path d="M324.387 82.8329C325.283 82.8464 326.025 82.1458 326.042 81.2641C326.059 80.3825 325.35 79.6546 324.454 79.6411C323.558 79.6277 322.815 80.3283 322.798 81.2099C322.773 82.0925 323.491 82.8194 324.387 82.8329Z" fill="#565656"/>
<path d="M310.844 84.8429C311.74 84.8563 312.482 84.1557 312.5 83.2741C312.517 82.3924 311.807 81.6646 310.911 81.6511C310.015 81.6376 309.273 82.3382 309.256 83.2199C309.238 84.0939 309.947 84.8217 310.844 84.8429Z" fill="#565656"/>
<path d="M307.948 80.8321C308.218 80.8315 308.482 80.7219 308.634 80.5281C309.063 79.9982 309.566 79.6849 310.131 79.5771C311.1 79.3985 312.019 79.8885 312.036 79.8927C312.381 80.0778 312.864 80.0039 313.124 79.7246C313.386 79.4512 313.319 79.0758 312.981 78.8898C312.922 78.8601 311.529 78.1086 309.885 78.4015C308.876 78.5786 308.017 79.0912 307.338 79.9296C307.102 80.2182 307.2 80.584 307.559 80.7493C307.677 80.8087 307.814 80.8354 307.948 80.8321Z" fill="#5D5E5F"/>
<path d="M327.253 78.5584C327.427 78.5556 327.596 78.5131 327.745 78.4269C328.093 78.2255 328.171 77.8654 327.921 77.6236C326.96 76.7039 325.867 76.214 324.666 76.1682C323.115 76.1052 321.996 76.833 321.944 76.862C321.613 77.0787 321.567 77.4408 321.839 77.6685C322.111 77.8963 322.602 77.9029 322.926 77.6872C322.948 77.6731 323.613 77.2626 324.481 77.3064C325.237 77.3402 325.966 77.6936 326.652 78.3571C326.803 78.4952 327.024 78.5618 327.253 78.5584Z" fill="#5D5E5F"/>
<path d="M317.574 92.4357C317.059 92.2838 316.631 92.0164 316.147 91.7026C315.878 91.5225 315.608 91.3423 315.529 91.0874C315.322 90.5833 315.654 90.017 315.999 89.5549C317.445 87.4347 318.065 84.6177 317.47 82.0463L317.507 81.9365C317.513 81.9886 320.746 91.4892 317.574 92.4357Z" fill="#FA8950"/>
<path d="M323.799 96.9776C323.799 96.9776 320.678 95.6695 319.792 95.9174C318.906 96.1652 318.415 97.1845 318.415 97.1845C318.415 97.1845 317.295 96.6624 316.892 96.8294C316.489 96.911 316.473 98.7025 316.473 98.7025C316.473 98.7025 317.898 101.019 321.281 100.026C324.583 99.0323 323.799 96.9776 323.799 96.9776Z" fill="#FA7D3F"/>
<path d="M324.686 96.7298C324.767 96.6452 324.848 96.5607 324.929 96.4761C325.01 96.3915 325.091 96.3069 325.092 96.2216C325.093 96.1363 325.094 96.051 325.094 96.051C325.094 95.9657 325.014 95.965 325.014 95.965L324.934 95.9643C324.853 95.9635 324.853 95.9635 324.772 96.0481C324.692 96.0474 324.691 96.1327 324.611 96.1319C324.531 96.1312 324.368 96.3004 324.127 96.3835C323.884 96.5519 323.561 96.7196 323.158 96.8865C322.755 97.0535 322.271 97.2197 321.788 97.3859C321.304 97.5521 320.741 97.7176 320.258 97.7985C319.694 97.964 319.212 97.9596 318.649 98.0398C318.166 98.1207 317.684 98.2016 317.282 98.198C316.88 98.2796 316.558 98.2767 316.317 98.3598C316.075 98.4429 315.914 98.4415 315.994 98.5275C315.994 98.5275 316.154 98.6143 316.395 98.6165C316.636 98.6187 316.957 98.6216 317.359 98.6253C317.76 98.6289 318.243 98.548 318.725 98.5524C319.208 98.4715 319.77 98.4766 320.253 98.3957C320.816 98.3155 321.299 98.1493 321.783 97.9831C322.266 97.8168 322.75 97.6506 323.153 97.4837C323.556 97.3167 323.879 97.149 324.12 97.0659C324.363 96.8975 324.524 96.899 324.524 96.8137C324.524 96.899 324.605 96.8144 324.686 96.7298Z" fill="#A6522B"/>
<path d="M314.227 63.5057C314.227 63.5057 320.981 81.1602 331.399 83.77C341.764 86.3798 346.267 83.6677 346.267 83.6677C346.267 83.6677 338.309 77.4758 336.634 66.6784C336.634 66.6784 319.306 55.0623 314.227 63.5057Z" fill="#070707"/>
<path d="M301.977 203.359C301.977 203.359 289.831 240.306 289.046 252.843C288.261 265.432 312.238 431.486 313.232 437.269C314.122 442.744 321.085 446.224 321.085 446.224C321.085 446.224 324.279 448.066 328.833 446.787C335.168 445.047 337.157 442.949 337.157 442.949C337.157 442.949 346.58 324.536 340.769 282.216C334.906 239.897 334.801 203.359 334.801 203.359H301.977Z" fill="#CAB8CD"/>
<path d="M353.387 202.234C353.387 202.234 371.919 226.541 373.647 242.916C375.374 259.343 376.369 317.014 380.034 332.98C383.698 348.997 397.205 379.803 397.205 429.696C397.205 429.696 395.792 432.562 391.446 434.097C390.085 434.608 388.201 435.069 386.421 435.478C382.861 436.297 379.196 434.557 377.521 431.385C368.412 413.423 339.304 355.445 337.786 343.368C336.739 334.873 327.525 278.481 307.527 245.373C302.71 237.441 310.458 205.868 310.458 205.868L353.387 202.234Z" fill="#C1A9C5"/>
<path d="M300.04 197.629C300.04 197.629 304.909 201.416 314.594 201.569C326.164 201.774 354.8 198.704 354.8 198.704C354.8 198.704 356.057 202.183 356.004 205.868C356.004 205.868 321.033 214.516 300.721 207.147C300.773 207.096 298.156 202.286 300.04 197.629Z" fill="#070707"/>
<path d="M317.106 205.509C317.106 202.286 314.751 199.676 311.819 199.676C308.887 199.676 306.531 202.286 306.531 205.509C306.531 208.733 308.887 211.343 311.819 211.343C314.751 211.343 317.106 208.733 317.106 205.509ZM315.326 205.509C315.326 207.761 313.756 209.654 311.819 209.654C309.882 209.654 308.311 207.812 308.311 205.509C308.311 203.258 309.882 201.364 311.819 201.364C313.756 201.364 315.326 203.207 315.326 205.509Z" fill="white"/>
<path d="M392.493 204.332L356.632 234.831L313.913 186.882L349.722 156.332L392.493 204.332Z" fill="#FFF29F"/>
<path d="M346.738 204.434C346.738 204.434 333.598 205.918 333.65 208.988C333.703 212.058 336.948 218.301 338.571 218.557C340.194 218.813 349.251 210.114 349.251 210.114L346.738 204.434Z" fill="#F5C99D"/>
<path d="M351.135 120.41C351.135 120.41 368.673 121.587 375.374 137.604C382.075 153.57 394.849 180.384 394.849 184.887C394.849 189.391 387.729 203.31 349.46 211.292C349.46 211.292 345.481 207.199 345.743 204.026C345.743 204.026 369.615 183.966 369.563 181.612C369.458 177.16 365.636 171.327 344.696 150.807C338.989 145.28 351.135 120.41 351.135 120.41Z" fill="#A66CDE"/>
<path d="M407.123 447.255C407.802 444.569 406.161 442.477 405.456 440.531C405.613 443.235 405.114 444.733 404.465 445.939C402.97 448.719 397.599 450.123 396.657 456.613C395.715 463.102 394.543 462.467 393.182 463.514C391.822 464.561 372.934 463.467 372.648 464.108C372.358 464.76 372.459 465.778 372.906 466.641C379.5 466.71 392.401 466.724 394.746 466.641C397.677 466.536 399.632 461.608 400.169 456.43C400.5 453.236 406.411 450.077 407.123 447.255Z" fill="#969696"/>
<path d="M312.682 450.757C312.756 450.998 314.017 450.809 315.425 451.293C316.855 451.745 317.748 452.659 317.948 452.501C318.168 452.396 317.422 451.009 315.699 450.452C313.986 449.874 312.567 450.546 312.682 450.757Z" fill="#9E9E9E"/>
<path d="M384.272 449.571C384.465 449.734 385.423 448.893 386.869 448.538C388.316 448.146 389.562 448.432 389.645 448.191C389.774 447.984 388.396 447.22 386.645 447.683C384.891 448.123 384.061 449.456 384.272 449.571Z" fill="#9E9E9E"/>
<path d="M308.253 453.343C308.253 453.595 309.43 453.753 310.533 454.583C311.658 455.382 312.152 456.465 312.393 456.391C312.635 456.37 312.446 454.878 311.059 453.869C309.682 452.849 308.2 453.101 308.253 453.343Z" fill="#9E9E9E"/>
<path d="M383.923 452.337C384.005 452.576 385.17 452.344 386.483 452.772C387.805 453.164 388.623 454.029 388.828 453.881C389.05 453.783 388.388 452.432 386.748 451.926C385.116 451.407 383.795 452.125 383.923 452.337Z" fill="#9E9E9E"/>
<path d="M308.377 458.96C308.619 458.96 308.65 457.635 307.673 456.448C306.706 455.249 305.414 455.008 305.361 455.239C305.277 455.481 306.202 456.017 306.99 457.005C307.789 457.972 308.125 458.991 308.377 458.96Z" fill="#9E9E9E"/>
<path d="M387.613 456.954C387.833 456.853 387.312 455.635 385.929 454.96C384.552 454.271 383.276 454.588 383.324 454.82C383.348 455.075 384.412 455.179 385.539 455.751C386.667 456.299 387.396 457.087 387.613 456.954Z" fill="#9E9E9E"/>
<path d="M329.256 190.009L327.257 191.703L327.647 192.962L326.881 193.61L325.293 188.089L326.024 187.469L331.216 189.938L330.439 190.596L329.256 190.009ZM328.516 189.635L326.282 188.526L327.014 190.908L328.516 189.635Z" fill="#6911AE"/>
<path d="M333.061 188.443C332.745 188.711 332.405 188.885 332.041 188.964C331.676 189.044 331.324 189.025 330.983 188.909C330.639 188.788 330.339 188.578 330.085 188.277C329.83 187.976 329.673 187.648 329.614 187.293C329.554 186.937 329.592 186.588 329.727 186.245C329.865 185.899 330.094 185.59 330.414 185.319C330.715 185.065 331.029 184.903 331.357 184.834C331.689 184.763 332.008 184.793 332.316 184.924L332.039 185.709C331.832 185.642 331.633 185.631 331.441 185.675C331.251 185.713 331.077 185.797 330.921 185.93C330.655 186.155 330.508 186.43 330.481 186.754C330.451 187.073 330.559 187.378 330.804 187.667C331.049 187.957 331.332 188.116 331.651 188.146C331.972 188.169 332.267 188.066 332.537 187.837C332.693 187.705 332.807 187.549 332.879 187.371C332.95 187.186 332.971 186.986 332.939 186.771L333.758 186.626C333.833 186.955 333.81 187.278 333.688 187.598C333.567 187.91 333.358 188.192 333.061 188.443Z" fill="#6911AE"/>
<path d="M333.498 182.706C333.947 182.326 334.382 182.144 334.802 182.161C335.222 182.171 335.616 182.393 335.984 182.827L337.499 184.614L336.825 185.185L336.51 184.814C336.536 185.021 336.497 185.231 336.395 185.442C336.293 185.646 336.128 185.845 335.899 186.038C335.671 186.232 335.439 186.363 335.203 186.432C334.964 186.497 334.739 186.502 334.527 186.445C334.317 186.382 334.137 186.262 333.989 186.087C333.756 185.813 333.672 185.509 333.735 185.174C333.799 184.832 334.049 184.476 334.487 184.105L335.275 183.437L335.236 183.392C335.056 183.178 334.852 183.07 334.626 183.065C334.404 183.057 334.167 183.16 333.916 183.373C333.744 183.518 333.597 183.688 333.475 183.883C333.357 184.075 333.281 184.267 333.247 184.459L332.527 184.177C332.583 183.919 332.697 183.663 332.866 183.408C333.036 183.153 333.247 182.919 333.498 182.706ZM335.607 185.393C335.786 185.241 335.911 185.067 335.98 184.871C336.05 184.668 336.049 184.466 335.977 184.265L335.677 183.911L334.94 184.535C334.529 184.884 334.438 185.193 334.667 185.464C334.777 185.593 334.915 185.652 335.082 185.641C335.25 185.63 335.425 185.547 335.607 185.393Z" fill="#6911AE"/>
<path d="M337.839 177.046L341.429 181.284L340.744 181.864L340.41 181.47C340.415 181.715 340.36 181.948 340.246 182.168C340.136 182.386 339.977 182.583 339.767 182.761C339.474 183.009 339.155 183.169 338.809 183.239C338.467 183.307 338.129 183.279 337.796 183.155C337.46 183.029 337.161 182.811 336.899 182.502C336.638 182.194 336.474 181.865 336.407 181.516C336.341 181.168 336.369 180.83 336.491 180.504C336.617 180.174 336.827 179.885 337.12 179.637C337.322 179.466 337.536 179.344 337.761 179.27C337.987 179.197 338.217 179.179 338.451 179.216L337.125 177.651L337.839 177.046ZM339.335 182.077C339.506 181.932 339.628 181.763 339.701 181.571C339.77 181.375 339.784 181.171 339.741 180.958C339.698 180.746 339.596 180.544 339.435 180.354C339.274 180.164 339.092 180.03 338.889 179.953C338.687 179.876 338.485 179.858 338.283 179.898C338.078 179.934 337.89 180.025 337.719 180.17C337.548 180.315 337.427 180.486 337.358 180.682C337.285 180.874 337.271 181.076 337.313 181.289C337.356 181.501 337.458 181.702 337.619 181.893C337.78 182.083 337.962 182.217 338.165 182.294C338.367 182.371 338.571 182.391 338.776 182.355C338.977 182.315 339.164 182.222 339.335 182.077Z" fill="#6911AE"/>
<path d="M343.953 176.556C343.994 176.605 344.05 176.679 344.12 176.777L341.727 178.804C341.96 178.993 342.22 179.08 342.508 179.065C342.796 179.043 343.072 178.921 343.335 178.698C343.67 178.414 343.852 178.07 343.882 177.665L344.637 177.781C344.639 178.061 344.571 178.331 344.432 178.592C344.294 178.853 344.093 179.095 343.83 179.318C343.495 179.602 343.144 179.785 342.776 179.868C342.408 179.951 342.054 179.934 341.713 179.817C341.372 179.694 341.075 179.481 340.82 179.181C340.568 178.884 340.409 178.561 340.342 178.212C340.276 177.856 340.307 177.509 340.434 177.173C340.561 176.837 340.774 176.541 341.075 176.286C341.372 176.034 341.693 175.877 342.038 175.813C342.384 175.743 342.723 175.773 343.056 175.903C343.389 176.026 343.688 176.244 343.953 176.556ZM341.559 176.857C341.331 177.051 341.195 177.284 341.151 177.556C341.108 177.822 341.164 178.081 341.32 178.335L343.05 176.869C342.833 176.674 342.588 176.574 342.316 176.569C342.044 176.564 341.791 176.66 341.559 176.857Z" fill="#6911AE"/>
<path d="M347.152 171.137C347.536 170.811 347.936 170.666 348.351 170.7C348.763 170.73 349.157 170.968 349.535 171.414L351.015 173.161L350.301 173.766L348.898 172.11C348.672 171.844 348.444 171.694 348.213 171.66C347.979 171.623 347.752 171.698 347.531 171.886C347.291 172.089 347.166 172.332 347.157 172.614C347.145 172.893 347.263 173.179 347.511 173.472L348.822 175.019L348.109 175.624L346.705 173.968C346.48 173.702 346.251 173.552 346.02 173.519C345.786 173.482 345.559 173.557 345.338 173.744C345.094 173.95 344.966 174.193 344.954 174.471C344.945 174.747 345.067 175.033 345.318 175.33L346.63 176.878L345.916 177.482L343.332 174.433L344.011 173.857L344.34 174.245C344.338 174.012 344.393 173.786 344.503 173.568C344.613 173.351 344.772 173.153 344.982 172.976C345.21 172.782 345.449 172.655 345.698 172.594C345.948 172.527 346.196 172.533 346.44 172.613C346.43 172.347 346.487 172.086 346.611 171.831C346.732 171.572 346.912 171.34 347.152 171.137Z" fill="#6911AE"/>
<path d="M352.143 166.967L353.508 171.472C353.655 171.916 353.69 172.285 353.612 172.58C353.538 172.878 353.366 173.142 353.096 173.371C352.943 173.5 352.772 173.602 352.582 173.679C352.391 173.755 352.211 173.79 352.042 173.783L351.882 173.015C352.006 173.022 352.129 173.006 352.253 172.966C352.38 172.924 352.492 172.862 352.587 172.782C352.712 172.675 352.788 172.556 352.813 172.423C352.842 172.288 352.826 172.114 352.765 171.904L352.715 171.741L348.791 169.807L349.533 169.178L352.404 170.621L351.458 167.547L352.143 166.967Z" fill="#6911AE"/>
<path d="M340.903 196.544C340.595 196.805 340.259 197.015 339.895 197.172C339.535 197.327 339.21 197.402 338.92 197.4L338.689 196.605C338.962 196.596 339.252 196.533 339.559 196.417C339.867 196.294 340.14 196.13 340.38 195.927C340.677 195.675 340.858 195.441 340.922 195.223C340.99 195.002 340.957 194.813 340.825 194.657C340.728 194.543 340.607 194.485 340.462 194.484C340.318 194.476 340.165 194.504 340.004 194.568C339.843 194.633 339.631 194.73 339.369 194.861C339.003 195.047 338.694 195.184 338.443 195.273C338.195 195.359 337.938 195.384 337.672 195.347C337.406 195.304 337.162 195.151 336.94 194.889C336.753 194.668 336.642 194.418 336.609 194.139C336.576 193.853 336.634 193.555 336.784 193.245C336.937 192.932 337.189 192.627 337.539 192.331C337.783 192.124 338.048 191.951 338.336 191.812C338.624 191.673 338.901 191.588 339.17 191.557L339.424 192.332C339.162 192.378 338.913 192.455 338.677 192.563C338.442 192.671 338.235 192.8 338.056 192.952C337.763 193.201 337.586 193.435 337.525 193.657C337.468 193.875 337.509 194.066 337.647 194.23C337.744 194.344 337.863 194.404 338.004 194.408C338.15 194.41 338.303 194.378 338.464 194.314C338.625 194.249 338.836 194.151 339.099 194.021C339.454 193.838 339.759 193.704 340.013 193.618C340.265 193.529 340.522 193.505 340.784 193.544C341.05 193.58 341.293 193.728 341.513 193.987C341.7 194.207 341.808 194.459 341.838 194.741C341.871 195.02 341.812 195.316 341.658 195.629C341.505 195.942 341.253 196.247 340.903 196.544Z" fill="#6911AE"/>
<path d="M344.374 188.207C344.759 187.881 345.159 187.735 345.574 187.769C345.985 187.8 346.38 188.038 346.757 188.483L348.238 190.231L347.524 190.836L346.121 189.179C345.895 188.913 345.667 188.763 345.436 188.73C345.202 188.693 344.974 188.768 344.753 188.955C344.513 189.158 344.389 189.401 344.38 189.683C344.367 189.962 344.485 190.248 344.734 190.541L346.045 192.089L345.331 192.694L343.928 191.037C343.702 190.771 343.474 190.621 343.243 190.588C343.009 190.551 342.781 190.626 342.56 190.813C342.317 191.019 342.189 191.262 342.176 191.541C342.168 191.816 342.289 192.102 342.541 192.399L343.852 193.947L343.138 194.552L340.554 191.502L341.234 190.926L341.563 191.315C341.561 191.081 341.615 190.855 341.725 190.638C341.835 190.42 341.995 190.223 342.204 190.045C342.433 189.852 342.672 189.725 342.921 189.664C343.171 189.596 343.418 189.602 343.663 189.683C343.653 189.416 343.71 189.155 343.834 188.9C343.954 188.641 344.134 188.41 344.374 188.207Z" fill="#6911AE"/>
<path d="M347.702 185.387C348.151 185.006 348.586 184.824 349.006 184.841C349.426 184.851 349.821 185.073 350.188 185.507L351.703 187.295L351.029 187.866L350.714 187.495C350.74 187.702 350.701 187.911 350.599 188.122C350.497 188.326 350.332 188.525 350.103 188.719C349.875 188.912 349.643 189.044 349.407 189.113C349.168 189.178 348.943 189.182 348.731 189.126C348.521 189.062 348.341 188.943 348.193 188.768C347.961 188.494 347.876 188.189 347.939 187.855C348.003 187.513 348.253 187.157 348.691 186.786L349.479 186.118L349.441 186.072C349.26 185.859 349.056 185.75 348.83 185.746C348.608 185.738 348.371 185.84 348.12 186.053C347.948 186.199 347.802 186.369 347.679 186.564C347.561 186.756 347.485 186.948 347.451 187.14L346.731 186.857C346.788 186.6 346.901 186.344 347.071 186.089C347.24 185.834 347.451 185.6 347.702 185.387ZM349.812 188.073C349.99 187.922 350.115 187.748 350.184 187.552C350.254 187.349 350.253 187.147 350.181 186.946L349.881 186.592L349.144 187.216C348.733 187.565 348.642 187.874 348.871 188.144C348.981 188.274 349.119 188.333 349.286 188.322C349.454 188.311 349.629 188.228 349.812 188.073Z" fill="#6911AE"/>
<path d="M351.092 183.339C351.027 182.845 351.253 182.378 351.771 181.94L352.346 182.619C352.276 182.659 352.216 182.7 352.166 182.742C351.888 182.978 351.741 183.244 351.723 183.54C351.703 183.832 351.821 184.13 352.08 184.435L353.333 185.914L352.619 186.519L350.035 183.469L350.715 182.893L351.092 183.339Z" fill="#6911AE"/>
<path d="M356.793 182.697C356.768 182.836 356.708 182.975 356.616 183.112C356.527 183.247 356.416 183.37 356.282 183.483C355.947 183.767 355.614 183.899 355.283 183.879C354.952 183.858 354.644 183.681 354.361 183.346L353.117 181.878L352.614 182.304L352.131 181.733L352.633 181.307L352.043 180.61L352.757 180.005L353.347 180.702L354.164 180.01L354.648 180.581L353.831 181.273L355.06 182.724C355.186 182.872 355.319 182.956 355.459 182.974C355.596 182.989 355.733 182.939 355.87 182.822C356.03 182.687 356.127 182.532 356.163 182.358L356.793 182.697Z" fill="#6911AE"/>
<path d="M244.72 38.0299C245.34 33.5521 239.024 29.8733 234.274 29.4844C232.014 29.3057 229.66 29.6525 227.516 28.8958C222.871 27.277 221.011 21.2752 216.481 19.3622C213.087 17.9327 209.188 19.2046 205.909 20.8548C202.62 22.505 199.372 24.5862 195.705 24.828C192.51 25.0277 189.042 23.8504 186.246 25.4061C184.165 26.5728 183.072 28.9693 181.16 30.3883C179.278 31.7758 176.83 32.0701 174.507 32.1962C172.174 32.3224 169.768 32.3434 167.645 33.3209C165.522 34.2879 163.767 36.5373 164.208 38.8287L244.72 38.0299Z" fill="#F5F5F5"/>
<path d="M382.486 20.2779C383.106 15.8002 376.789 12.1213 372.039 11.7324C369.78 11.5537 367.426 11.9006 365.282 11.1438C360.637 9.52509 358.777 3.52328 354.247 1.61026C350.853 0.180759 346.954 1.4526 343.675 3.10283C340.385 4.75307 337.138 6.83426 333.47 7.07602C330.275 7.27573 326.807 6.09849 324.012 7.65412C321.931 8.82085 320.838 11.2174 318.925 12.6364C317.044 14.0238 314.595 14.3181 312.273 14.4443C309.94 14.5704 307.533 14.5914 305.41 15.569C303.287 16.536 301.532 18.7853 301.974 21.0768L382.486 20.2779Z" fill="#F5F5F5"/>
<path d="M455.325 71.5388C455.693 68.869 451.931 66.6722 449.093 66.4515C447.748 66.3464 446.34 66.5461 445.068 66.1046C442.294 65.1376 441.19 61.5638 438.49 60.4181C436.472 59.5667 434.139 60.3235 432.184 61.3116C430.229 62.2996 428.285 63.5399 426.099 63.6766C424.197 63.8027 422.127 63.0879 420.466 64.0234C419.226 64.7171 418.574 66.1466 417.429 66.9875C416.315 67.8179 414.854 67.9861 413.456 68.0597C412.069 68.1332 410.629 68.1543 409.368 68.7324C408.107 69.3105 407.056 70.6454 407.319 72.0118L455.325 71.5388Z" fill="#EBEBEB"/>
<path d="M75.1719 47.6843C78.4838 39.8322 74.8044 30.7816 66.9536 27.4691C59.1029 24.1567 50.0537 27.8368 46.7418 35.6888C43.4299 43.5409 47.1094 52.5915 54.9601 55.904C62.8109 59.2164 71.86 55.5364 75.1719 47.6843Z" fill="#EBEBEB"/>
<path d="M60.9538 57.1401C58.8729 57.1401 56.8446 56.7301 54.9425 55.9313C53.1033 55.1535 51.4534 54.0393 50.0346 52.6203C48.6159 51.2013 47.5019 49.5511 46.7242 47.7116C45.915 45.8091 45.5156 43.7805 45.5156 41.6993C45.5156 39.6181 45.9255 37.5895 46.7242 35.687C47.5019 33.8475 48.6159 32.1973 50.0346 30.7783C51.4534 29.3593 53.1033 28.2451 54.9425 27.4673C56.8446 26.658 58.8729 26.248 60.9538 26.248C63.0346 26.248 65.0629 26.658 66.9651 27.4673C68.8042 28.2451 70.4542 29.3593 71.8729 30.7783C73.2917 32.1973 74.4057 33.8475 75.1834 35.687C75.9926 37.5895 76.4024 39.6181 76.4024 41.6993C76.4024 43.7805 75.9926 45.8091 75.1834 47.7116C74.4057 49.5511 73.2917 51.2013 71.8729 52.6203C70.4542 54.0393 68.8042 55.1535 66.9651 55.9313C65.0629 56.7301 63.0346 57.1401 60.9538 57.1401Z" fill="#EBEBEB"/>
<path d="M58.7572 76.1945C58.6627 76.1945 58.5996 73.346 58.5996 69.8248C58.5996 66.3036 58.6732 63.4551 58.7572 63.4551C58.8518 63.4551 58.9149 66.3036 58.9149 69.8248C58.9149 73.346 58.8413 76.1945 58.7572 76.1945Z" fill="#EBEBEB"/>
<path d="M58.7575 76.2057C58.726 76.2057 58.6735 76.2057 58.6209 74.3243C58.5894 73.126 58.5684 71.5283 58.5684 69.8255C58.5684 68.1227 58.5894 66.5251 58.6209 65.3268C58.6735 63.4453 58.726 63.4453 58.7575 63.4453C58.7891 63.4453 58.8416 63.4453 58.8836 65.3268C58.9152 66.5251 58.9362 68.1332 58.9362 69.8255C58.9362 71.5283 58.9152 73.126 58.8836 74.3243C58.8416 76.2057 58.7891 76.2057 58.7575 76.2057ZM58.7575 63.4874C58.684 63.7186 58.6104 66.1361 58.6104 69.8255C58.6104 73.5149 58.684 75.9325 58.7575 76.1637C58.8311 75.9325 58.9047 73.5149 58.9047 69.8255C58.9047 66.1467 58.8311 63.7291 58.7575 63.4874Z" fill="#EBEBEB"/>
<path d="M49.8656 59.8716C49.9392 59.9136 48.4889 62.5729 46.6288 65.8104C44.7581 69.0478 43.1817 71.6335 43.1081 71.5914C43.0346 71.5494 44.4849 68.8901 46.345 65.6527C48.2052 62.4153 49.7816 59.8296 49.8656 59.8716Z" fill="#EBEBEB"/>
<path d="M43.0982 71.6029C43.0666 71.5819 43.0141 71.5609 43.9704 69.8055C44.58 68.6809 45.4207 67.2093 46.3245 65.6432C47.2283 64.077 48.0901 62.616 48.7522 61.5228C49.6875 59.9882 49.8241 59.8516 49.8556 59.8516H49.8662C49.8872 59.8621 49.9397 59.8936 48.9834 61.649C48.3738 62.7736 47.5331 64.2452 46.6293 65.8113C45.0319 68.5968 43.2558 71.5714 43.0982 71.6029C43.1087 71.6029 43.1087 71.6029 43.0982 71.6029ZM49.8451 59.9041C49.656 60.0828 48.3108 62.2691 46.3561 65.6642C44.4013 69.0487 43.1822 71.3086 43.1192 71.5714C43.3084 71.3927 44.6535 69.2064 46.6083 65.8113C48.563 62.4163 49.7821 60.1564 49.8451 59.9041Z" fill="#EBEBEB"/>
<path d="M40.7326 54.1945C40.7851 54.268 39.1772 55.645 37.1279 57.2637C35.0786 58.8929 33.3761 60.1542 33.3235 60.0807C33.271 60.0071 34.8789 58.6301 36.9282 57.0114C38.9775 55.3822 40.68 54.1209 40.7326 54.1945Z" fill="#EBEBEB"/>
<path d="M33.335 60.1028C33.3245 60.1028 33.3245 60.1028 33.314 60.0923C33.293 60.0713 33.2615 60.0292 34.3334 59.1148C35.0165 58.5367 35.9308 57.7799 36.9292 56.9915C38.6528 55.6146 40.576 54.1641 40.7336 54.1641C40.7441 54.1641 40.7441 54.1641 40.7546 54.1746C40.7546 54.1746 40.7651 54.1851 40.7546 54.1956C40.7336 54.3427 38.884 55.8879 37.1394 57.2753C36.1515 58.0637 35.2057 58.7889 34.4911 59.325C33.5663 60.0082 33.3771 60.1028 33.335 60.1028ZM40.7231 54.2061C40.5549 54.2481 39.0311 55.3623 36.9502 57.0231C34.7958 58.7364 33.4296 59.9136 33.3561 60.0713C33.5242 60.0292 34.985 58.9676 37.1289 57.2543C39.2098 55.5936 40.639 54.3638 40.7231 54.2061Z" fill="#EBEBEB"/>
<path d="M74.1525 69.9198C74.1104 69.9303 73.9633 69.3207 73.7426 68.3537C73.5219 67.3866 73.2066 66.0412 72.8073 64.5802C72.4079 63.1086 72.0086 61.7947 71.7143 60.8488C71.4201 59.8922 71.2414 59.3036 71.2834 59.2931C71.3255 59.2826 71.5777 59.8397 71.935 60.7752C72.2818 61.7107 72.7232 63.0245 73.1226 64.4961C73.5219 65.9676 73.7952 67.3236 73.9633 68.3116C74.1314 69.2996 74.1945 69.9093 74.1525 69.9198Z" fill="#EBEBEB"/>
<path d="M74.1427 69.941C74.0902 69.941 74.0271 69.6992 73.7223 68.3643C73.5122 67.4604 73.1969 66.0834 72.787 64.5909C72.3771 63.0668 71.9673 61.7319 71.694 60.8594L71.6835 60.8384C71.2947 59.5666 71.2106 59.2933 71.2632 59.2723C71.2842 59.2617 71.3052 59.2618 71.4944 59.6612C71.6205 59.9345 71.7781 60.3339 71.9358 60.7648C72.1775 61.406 72.6504 62.7409 73.1233 64.4963C73.5962 66.2516 73.8484 67.6391 73.964 68.3118C74.1112 69.1947 74.1847 69.8779 74.1427 69.9305C74.1637 69.9305 74.1532 69.941 74.1427 69.941C74.1532 69.941 74.1532 69.941 74.1427 69.941ZM71.2947 59.3143C71.2947 59.4299 71.4839 60.0501 71.7256 60.8279V60.8489C71.9988 61.7213 72.4087 63.0562 72.8185 64.5803C73.2179 66.0729 73.5437 67.4499 73.7539 68.3538C73.9325 69.1211 74.0797 69.7938 74.1427 69.8989C74.1532 69.8043 74.1112 69.2683 73.9535 68.3118C73.8379 67.6391 73.5857 66.2516 73.1128 64.4963C72.6399 62.7409 72.167 61.406 71.9252 60.7753C71.589 59.8714 71.3577 59.3879 71.2947 59.3143Z" fill="#EBEBEB"/>
<path d="M89.8016 58.8099C89.7385 58.873 87.6997 57.1912 85.2406 55.0365C82.7814 52.8817 80.8372 51.0843 80.8897 51.0212C80.9528 50.9582 82.9916 52.64 85.4507 54.7947C87.9099 56.9495 89.8541 58.7469 89.8016 58.8099Z" fill="#EBEBEB"/>
<path d="M89.7915 58.832C89.6339 58.832 87.3218 56.8874 85.22 55.0585C84.0324 54.0179 82.9184 53.0298 82.0987 52.273C80.8166 51.0853 80.8481 51.0433 80.8691 51.0222L80.8796 51.0117C81.0373 51.0117 83.3493 52.9563 85.4512 54.7852C86.6387 55.8258 87.7422 56.8138 88.5724 57.5706C89.8546 58.7584 89.823 58.8004 89.802 58.8214C89.8125 58.8319 89.802 58.832 89.7915 58.832ZM80.9111 51.0433C81.0268 51.243 82.6662 52.7776 85.2515 55.0269C87.8263 57.2868 89.5708 58.7058 89.781 58.7899C89.6654 58.5902 88.026 57.0556 85.4407 54.8062C82.8659 52.5568 81.1213 51.1379 80.9111 51.0433Z" fill="#EBEBEB"/>
<path d="M95.7914 43.5472C95.7809 43.5893 95.0768 43.4736 93.9313 43.2844C92.7858 43.0952 91.2094 42.8535 89.4543 42.6433C87.6993 42.4436 86.1019 42.3279 84.9458 42.2544C83.7898 42.1808 83.0752 42.1387 83.0752 42.0967C83.0752 42.0547 83.7898 42.0126 84.9564 42.0231C86.1229 42.0336 87.7308 42.1177 89.4859 42.3279C91.2514 42.5276 92.8383 42.8114 93.9733 43.0637C95.1083 43.3055 95.802 43.5052 95.7914 43.5472Z" fill="#EBEBEB"/>
<path d="M95.7394 43.5799C95.6028 43.5799 95.2245 43.5168 94.2996 43.3697L93.9318 43.3066C92.3659 43.0438 90.8631 42.8336 89.4549 42.6654C88.0571 42.5078 86.5333 42.3711 84.9464 42.2765L84.5785 42.2555C83.3069 42.1714 83.0547 42.1504 83.0547 42.0978C83.0547 42.0978 83.0547 42.0873 83.0652 42.0873C83.1177 42.0348 83.948 42.0032 84.9569 42.0137C85.7556 42.0242 87.4161 42.0768 89.4969 42.3186C91.5777 42.5603 93.1962 42.8861 93.9844 43.0543C94.9722 43.2645 95.7709 43.4853 95.813 43.5483C95.813 43.5589 95.813 43.5589 95.813 43.5694C95.8025 43.5694 95.7815 43.5799 95.7394 43.5799ZM83.1072 42.0978C83.2123 42.1294 83.8009 42.1714 84.5785 42.2134L84.9464 42.2345C86.5333 42.3396 88.0571 42.4657 89.4549 42.6234C90.8631 42.781 92.3659 43.0018 93.9318 43.2645L94.2996 43.3276C95.0458 43.4537 95.6028 43.5483 95.7499 43.5483C95.7604 43.5483 95.7604 43.5483 95.7709 43.5483C95.6658 43.4853 95.0248 43.3066 93.9844 43.0753C93.2067 42.9072 91.5777 42.5813 89.4969 42.3396C87.4161 42.0978 85.7661 42.0453 84.9674 42.0348C83.8849 42.0242 83.2228 42.0558 83.1072 42.0978Z" fill="#EBEBEB"/>
<path d="M95.8123 28.5397C95.8333 28.6238 92.4914 29.5172 88.3507 30.5263C84.21 31.5353 80.8365 32.2816 80.8155 32.1975C80.7945 32.1134 84.1365 31.22 88.2771 30.2109C92.4178 29.2019 95.7913 28.4556 95.8123 28.5397Z" fill="#EBEBEB"/>
<path d="M80.8479 32.2186C80.8059 32.2186 80.7954 32.2081 80.7954 32.1976C80.7849 32.166 80.7744 32.1135 82.9708 31.5354C84.3791 31.157 86.2602 30.684 88.2675 30.2005C90.2748 29.717 92.1559 29.2755 93.5852 28.9602C95.8132 28.4661 95.8237 28.5187 95.8237 28.5502C95.8342 28.5818 95.8447 28.6343 93.6377 29.2124C92.2295 29.5908 90.3483 30.0638 88.3516 30.5473C86.3443 31.0308 84.4631 31.4828 83.0339 31.7982C81.4154 32.145 80.9741 32.2186 80.8479 32.2186ZM95.7816 28.5502C95.4769 28.5502 92.6183 29.1704 88.278 30.2215C83.9377 31.2726 81.1212 32.0399 80.8479 32.1871C81.1527 32.1871 84.0112 31.5669 88.3516 30.5158C92.6814 29.4542 95.5084 28.6869 95.7816 28.5502Z" fill="#EBEBEB"/>
<path d="M78.3773 11.0594C78.4509 11.112 76.8535 13.6556 74.8042 16.7564C72.7548 19.8572 71.0418 22.3168 70.9683 22.2747C70.8947 22.2222 72.4921 19.6785 74.5414 16.5777C76.5802 13.477 78.3037 11.0069 78.3773 11.0594Z" fill="#EBEBEB"/>
<path d="M70.9687 22.2844C70.9582 22.2844 70.9582 22.2844 70.9687 22.2844C70.9582 22.2739 70.9477 22.2739 70.9477 22.2634C70.9161 22.1163 72.7658 19.2152 74.5208 16.5559C75.5087 15.0528 76.4545 13.6549 77.1797 12.6143C78.2937 11.0061 78.3567 11.0166 78.3777 11.0271C78.3988 11.0481 78.4513 11.0691 77.3899 12.7509C76.7173 13.823 75.803 15.242 74.8151 16.7451C73.8272 18.2377 72.8814 19.6356 72.1562 20.6868C71.1473 22.1478 71.0002 22.2844 70.9687 22.2844ZM78.3567 11.0796C78.157 11.2478 76.6857 13.3395 74.5418 16.5769C72.3979 19.8248 71.0528 21.9901 70.9792 22.2424C71.1789 22.0742 72.6502 19.9825 74.7941 16.7451C76.938 13.4972 78.2831 11.3319 78.3567 11.0796Z" fill="#EBEBEB"/>
<path d="M61.0695 7.40234C61.1115 7.40234 61.1115 8.2117 61.0905 9.52558C61.0695 10.8289 61.0485 12.6369 61.0485 14.634C61.0485 16.6311 61.08 18.4284 61.101 19.7423C61.122 21.0457 61.1325 21.8551 61.08 21.8656C61.0379 21.8656 60.9434 21.0667 60.8698 19.7528C60.7857 18.4495 60.7227 16.6416 60.7227 14.6445C60.7227 12.6474 60.7857 10.8395 60.8593 9.53609C60.9434 8.20118 61.0274 7.40234 61.0695 7.40234Z" fill="#EBEBEB"/>
<path d="M61.0905 21.8644C61.0695 21.8644 61.0379 21.8433 60.9854 21.2863C60.9434 20.8973 60.9013 20.3613 60.8698 19.7411C60.8172 18.8582 60.7227 17.0293 60.7227 14.6222C60.7227 12.2257 60.8067 10.3863 60.8593 9.51386C60.9013 8.89371 60.9328 8.35764 60.9749 7.96873C61.0274 7.41165 61.059 7.39062 61.08 7.39062C61.1325 7.39062 61.143 7.59033 61.122 9.52437C61.101 10.7542 61.08 12.6146 61.08 14.6327C61.08 16.5878 61.1115 18.3537 61.1325 19.657V19.7411C61.1535 21.6647 61.143 21.8644 61.0905 21.8644ZM61.0695 7.43267C61.0274 7.56931 60.9539 8.30509 60.8803 9.51386C60.8278 10.3968 60.7437 12.2362 60.7437 14.6222C60.7437 17.0188 60.8383 18.8582 60.8908 19.7306C60.9644 20.9394 61.0379 21.6752 61.08 21.8118C61.1115 21.6331 61.0905 20.4979 61.08 19.7306V19.6465C61.059 18.3537 61.0274 16.5773 61.0274 14.6222C61.0274 12.6146 61.0484 10.7542 61.0695 9.51386C61.0905 8.74655 61.1115 7.61136 61.0695 7.43267Z" fill="#EBEBEB"/>
<path d="M47.9739 23.7256C47.9004 23.7677 46.2714 21.2555 44.3482 18.0917C42.4145 14.9384 40.9222 12.3421 40.9958 12.2896C41.0693 12.2475 42.6983 14.7597 44.6215 17.9235C46.5447 21.0768 48.0475 23.6731 47.9739 23.7256Z" fill="#EBEBEB"/>
<path d="M47.9638 23.7463C47.9323 23.7463 47.7957 23.6201 46.8288 22.1276C46.1457 21.0659 45.2524 19.6364 44.3171 18.1123C42.6671 15.4005 40.9226 12.4469 40.9646 12.2997C40.9646 12.2892 40.9751 12.2892 40.9751 12.2892C40.9961 12.2787 41.0487 12.2472 42.1206 13.9079C42.8037 14.9695 43.697 16.399 44.6324 17.9231C45.5677 19.4472 46.4294 20.8978 47.06 21.9909C48.0479 23.6937 48.0058 23.7252 47.9638 23.7463C47.9743 23.7358 47.9743 23.7463 47.9638 23.7463ZM41.0067 12.3207C41.0802 12.573 42.3413 14.7803 44.3591 18.0808C46.3769 21.3918 47.7641 23.515 47.9638 23.6937C47.8902 23.4414 46.6291 21.2341 44.6113 17.9337C42.583 14.6227 41.1958 12.4994 41.0067 12.3207Z" fill="#EBEBEB"/>
<path d="M40.1458 30.3789C40.1353 30.421 39.5047 30.3264 38.5063 30.1161C37.5079 29.9059 36.1312 29.5696 34.6284 29.1281C33.1256 28.6866 31.7909 28.2242 30.8345 27.8563C29.8782 27.4884 29.3002 27.2256 29.3107 27.1836C29.3317 27.1415 29.9307 27.3307 30.9081 27.6355C31.8855 27.9509 33.2307 28.3713 34.723 28.8128C36.2153 29.2542 37.5815 29.6221 38.5694 29.8954C39.5467 30.1582 40.1563 30.3369 40.1458 30.3789Z" fill="#EBEBEB"/>
<path d="M40.0932 30.399C40.0302 30.399 39.9146 30.3885 39.6939 30.357C39.3891 30.3044 38.9792 30.2308 38.4958 30.1362C37.8127 29.9891 36.415 29.6737 34.6179 29.1482C32.8208 28.6226 31.4651 28.1181 30.824 27.8764C30.3721 27.6977 29.9833 27.54 29.6995 27.4139C29.2791 27.2247 29.2896 27.2036 29.3002 27.1826C29.3212 27.1406 29.5314 27.1826 30.9186 27.6241C31.6963 27.8764 33.1571 28.3388 34.7335 28.8013C36.1732 29.2218 37.4659 29.5791 38.5799 29.884C39.9776 30.2624 40.1878 30.3359 40.1773 30.3885C40.1563 30.3885 40.1563 30.399 40.0932 30.399ZM29.3317 27.1931C29.4158 27.2562 29.8992 27.4769 30.8345 27.8448C31.4861 28.0971 32.8418 28.5911 34.6284 29.1167C36.4255 29.6422 37.8337 29.9681 38.5063 30.1047C39.4732 30.3044 39.9566 30.378 40.0932 30.378C40.1037 30.378 40.1142 30.378 40.1142 30.378C39.9986 30.3149 39.1999 30.0942 38.5483 29.9155C37.4449 29.6212 36.1417 29.2638 34.7019 28.8329C33.1255 28.3704 31.6648 27.8974 30.8871 27.6556C30.288 27.4559 29.4683 27.1931 29.3317 27.1931Z" fill="#EBEBEB"/>
<path d="M36.7186 42.2339C36.7291 42.3285 34.5222 42.6123 31.8003 42.875C29.0679 43.1378 26.8504 43.2745 26.8399 43.1904C26.8294 43.1063 29.0363 42.812 31.7687 42.5492C34.4906 42.2864 36.7186 42.1393 36.7186 42.2339Z" fill="#EBEBEB"/>
<path d="M27.1243 43.2223C26.9562 43.2223 26.8616 43.2118 26.8406 43.2013C26.8301 43.1908 26.8301 43.1908 26.8301 43.1802C26.8301 43.1802 26.8301 43.1697 26.8406 43.1592C26.9352 43.0436 29.4574 42.7493 31.7694 42.518C34.092 42.2973 36.6142 42.1081 36.7298 42.2027C36.7403 42.2132 36.7403 42.2132 36.7403 42.2237C36.7403 42.2237 36.7403 42.2342 36.7298 42.2448C36.6353 42.3604 34.1235 42.6547 31.801 42.8859C29.9093 43.0646 27.8705 43.2223 27.1243 43.2223ZM26.8721 43.1802C27.0508 43.2328 28.9319 43.1277 31.801 42.8544C34.67 42.5811 36.5407 42.3183 36.6983 42.2342C36.5196 42.1817 34.6385 42.2868 31.7694 42.5601C28.9004 42.8334 27.0298 43.0962 26.8721 43.1802Z" fill="#EBEBEB"/>
<path d="M132.239 87.6738H132.249L142.17 87.9681L142.738 94.7162C142.738 94.7162 137.262 108.076 149.59 112.207C157.861 114.971 120.458 104.344 120.458 104.344L122.907 89.3661L132.239 87.6738Z" fill="#F4B498"/>
<path d="M119.154 78.6244C122.969 92.3623 134.803 101.076 145.585 98.0803C156.378 95.0847 163.062 82.8288 158.543 67.5352C154.508 53.8603 142.569 45.3358 131.786 48.3315C121.004 51.3166 115.35 64.8864 119.154 78.6244Z" fill="#F4B498"/>
<path d="M153.425 71.802C154.55 72.0753 155.685 71.3711 155.958 70.2464C156.231 69.1217 155.527 67.9865 154.403 67.7132C153.278 67.4399 152.143 68.1442 151.87 69.2689C151.597 70.3935 152.29 71.5287 153.425 71.802Z" fill="black"/>
<path d="M138.492 73.0012C139.101 73.9892 140.394 74.3045 141.392 73.6949C142.38 73.0853 142.695 71.7819 142.086 70.7939C141.476 69.8058 140.184 69.4905 139.185 70.1001C138.197 70.7098 137.882 72.0131 138.492 73.0012Z" fill="black"/>
<path d="M148.864 71.9609C151.344 74.7569 154.476 78.152 154.476 78.152C154.476 78.152 153.888 81.6416 149.547 82.43C151.26 81.3578 152.868 79.8127 151.702 77.4792C150.535 75.1458 148.864 71.9609 148.864 71.9609Z" fill="#C26240"/>
<path d="M135.738 69.8063C136.148 69.964 136.631 69.8168 136.883 69.4384C136.946 69.3544 138.449 67.2101 140.477 67.9669C140.982 68.1561 141.539 67.8933 141.728 67.3888C141.917 66.8843 141.654 66.3272 141.15 66.138C138.376 65.1079 136.085 67.1365 135.265 68.3453C134.96 68.7868 135.086 69.3964 135.528 69.6907C135.601 69.7433 135.675 69.7748 135.738 69.8063Z" fill="#263238"/>
<path d="M156.714 67.5777C156.325 67.7775 155.831 67.6934 155.537 67.3465C155.464 67.2624 153.73 65.3074 151.796 66.2849C151.312 66.5266 150.734 66.3374 150.493 65.8539C150.251 65.3704 150.451 64.7923 150.924 64.5506C153.572 63.2157 156.063 64.971 157.019 66.0852C157.366 66.4951 157.324 67.1048 156.914 67.4516C156.84 67.4937 156.777 67.5357 156.714 67.5777Z" fill="#263238"/>
<path d="M121.33 79.0653C121.624 73.8938 126.059 75.2498 126.921 68.4596C127.783 61.6695 128.729 56.5401 135.129 58.0221C141.529 59.5147 143.169 58.0747 145.859 56.6872C153.972 52.5249 158.26 66.6202 158.26 66.6202C158.26 66.6202 163.22 54.7952 156.641 48.9301C149.359 42.4237 147.593 47.2693 140.888 42.6234C134.183 37.967 124.042 40.29 121.772 44.4103C119.386 48.7619 118.819 51.9362 112.597 54.7322C106.365 57.5281 103.055 62.5734 108.33 69.3531C113.606 76.1432 104.042 80.3161 113.186 86.8119C116.727 89.3346 123.054 90.2386 124.136 88.9667C125.597 87.2744 121.141 82.3973 121.33 79.0653Z" fill="#263238"/>
<path d="M159.941 75.575C159.941 75.575 159.71 81.6925 158.281 83.8893C157.577 80.6834 153.919 83.1745 151.576 83.1535C145.922 83.101 135.927 80.8726 133.752 89.0607C126.658 90.2485 122.055 75.123 122.055 75.123C119.365 91.2996 128.939 108.811 149.831 106.625C164.744 105.059 163.252 86.8008 159.941 75.575Z" fill="#263238"/>
<path d="M156.011 87.6121C156.315 87.013 155.937 86.1931 155.401 86.2982C154.024 86.561 151.754 86.9394 149.579 87.013C147.403 87.0866 145.112 86.8553 143.725 86.6766C143.179 86.6031 142.853 87.4439 143.2 88.0221C144.261 89.8089 146.416 92.5103 149.758 92.4052C153.089 92.3001 155.065 89.4726 156.011 87.6121Z" fill="white"/>
<path d="M123.316 75.461C125.817 77.8575 126.248 81.4628 124.283 83.5125C122.318 85.5621 118.702 85.2678 116.201 82.8713C113.7 80.4748 113.269 76.8695 115.234 74.8198C117.2 72.7702 120.815 73.0539 123.316 75.461Z" fill="#F4B498"/>
<path d="M121.015 82.5131C121.12 82.471 121.225 82.408 121.309 82.3239C122.496 81.0415 122.759 79.4859 122.003 78.172C121.235 76.8266 119.617 76.0698 118.167 76.3956C117.757 76.4902 117.494 76.8897 117.589 77.2996C117.683 77.7095 118.083 77.9723 118.492 77.8777C119.291 77.699 120.258 78.1615 120.689 78.9288C121.109 79.6646 120.931 80.5055 120.195 81.2938C119.911 81.5986 119.932 82.0821 120.237 82.3659C120.458 82.5656 120.762 82.6182 121.015 82.5131Z" fill="#C26240"/>
<path d="M0 466.65C0 466.503 104.778 466.377 233.989 466.377C363.243 466.377 468 466.503 468 466.65C468 466.797 363.254 466.924 233.989 466.924C104.778 466.924 0 466.797 0 466.65Z" fill="#263238"/>
<path d="M250.437 136.897C250.101 135.951 250.206 134.426 250.395 133.386C250.584 132.345 250.111 131.2 249.638 130.537C249.165 129.875 249.449 129.013 249.165 127.216C248.882 125.418 246.412 124.746 246.412 124.746C246.412 124.746 246.034 123.894 245.466 122.559C244.899 121.235 241.578 119.9 239.013 119.238C236.449 118.576 235.503 120.089 235.503 120.089L235.598 120.657L236.827 122.276L231.699 124.273L228.283 142.982L226.57 146.661L239.56 152.495L242.523 147.733C242.523 147.733 249.354 141.185 249.932 140.029C250.479 138.862 250.773 137.843 250.437 136.897Z" fill="#F4B498"/>
<path d="M236.184 121.26C234.957 120.259 234.075 119.796 232.322 120.024C230.57 120.252 227.064 121.41 227.001 122.685C226.938 123.961 229.3 123.922 230.811 123.694L231.598 123.466L232.878 124H238C238 124 237.179 122.072 236.184 121.26Z" fill="#FFBF9D"/>
<path d="M230.018 123.036C230.018 123.036 226.225 122.84 224.85 123.36C223.475 123.88 221.882 125.481 224.105 127L230.477 126.223L239.827 126.25C239.827 126.25 240.216 124.366 239.827 124.042C239.449 123.718 234.12 122.942 230.018 123.036Z" fill="#FFBF9D"/>
<path d="M223.646 126.05C223.646 126.05 221.771 126.958 222.023 128.675C222.276 130.392 224.32 131 224.32 131L230.493 128.875L244.21 129.075C244.21 129.075 246.338 126.983 243.609 126.042C240.881 125.1 234.096 125.017 231.263 125C228.429 125 223.646 126.05 223.646 126.05Z" fill="#FFBF9D"/>
<path d="M223.868 130.266C223.868 130.266 222.354 131.673 223.325 133.294C224.297 134.915 225.153 134.915 225.153 134.915C225.153 134.915 225.153 136.958 225.885 137.638C226.616 138.319 227.776 139 227.776 139L232.351 135.919C232.351 135.919 238.818 135.399 239.664 134.638C240.521 133.876 241.064 132.622 241.064 132.622C241.064 132.622 243.404 132.936 244.365 132.049C245.326 131.162 245.399 128.726 243.143 128.26L229.99 128L223.868 130.266Z" fill="#FFBF9D"/>
<path d="M243.258 147.01C243.258 147.01 243.258 147.01 243.248 147.02C243.09 147.294 240.473 151.687 236.774 157.71C228.745 170.807 215.598 191.535 211.573 193.9C205.625 197.379 201.137 195.781 194.474 191.724C190.26 189.159 179.856 176.977 172.762 168.368C172.678 168.274 172.594 168.168 172.52 168.074C172.489 168.032 172.447 167.99 172.415 167.948C172.352 167.874 172.3 167.811 172.237 167.738C172.184 167.664 172.121 167.59 172.068 167.527C168.306 162.934 165.637 159.549 165.637 159.549L166.845 159.045L171.564 157.079L190.996 148.975L195.199 153.506L195.378 153.684L195.557 153.884L206.213 165.352L206.266 165.299L206.497 165.099L226.559 146.652L239.706 146.936L243.248 147.01H243.258Z" fill="#F4B498"/>
<path d="M239.785 132.64C240.608 132.211 237.45 132.502 234.14 133.052C230.74 133.632 228.164 134.476 228.108 134.412C228.086 134.387 228.691 134.143 229.763 133.822C230.826 133.502 232.348 133.115 234.08 132.818C235.811 132.516 237.404 132.366 238.54 132.307C238.829 132.296 239.08 132.281 239.305 132.279C239.539 132.275 239.767 132.297 239.88 132.376C239.985 132.452 239.968 132.535 239.918 132.584C239.85 132.636 239.796 132.648 239.785 132.64Z" fill="#FF9A6C"/>
<path d="M243.303 128.625C243.309 128.683 242.391 128.8 240.903 128.915C239.213 129.016 237.271 129.134 235.118 129.265C232.874 129.421 230.855 129.723 229.43 130.05C227.994 130.369 227.134 130.64 227.095 130.568C227.069 130.52 227.898 130.152 229.326 129.75C230.754 129.348 232.809 128.983 235.086 128.832C237.361 128.664 239.408 128.644 240.893 128.605C242.378 128.566 243.297 128.558 243.303 128.625Z" fill="#FF9A6C"/>
<path d="M236.988 125.409C236.98 125.578 234.737 125.388 231.983 125.609C229.229 125.83 227.023 126.429 227 126.261C226.993 126.187 227.533 125.956 228.426 125.693C229.319 125.43 230.572 125.168 231.968 125.062C233.364 124.947 234.624 125.01 235.532 125.105C236.44 125.21 236.995 125.346 236.988 125.409Z" fill="#FF9A6C"/>
<path d="M235.083 123.178C235.052 123.284 233.292 122.704 231.068 122.881C228.856 123.04 227.062 123.396 227.039 123.256C227.033 123.202 227.469 123.065 228.184 122.896C228.899 122.735 229.907 122.54 231.036 122.474C232.164 122.407 233.207 122.517 233.935 122.71C234.67 122.902 235.091 123.13 235.083 123.178Z" fill="#FF9A6C"/>
<path d="M205.499 177.66C205.342 177.618 206.13 174.748 206.34 171.122C206.571 167.496 206.13 164.553 206.298 164.532C206.424 164.5 207.118 167.454 206.886 171.153C206.676 174.864 205.625 177.712 205.499 177.66Z" fill="#6F4439"/>
<path d="M138.596 425.226L137.419 452.072C137.419 452.072 164.302 462.278 164.575 467.26L112.449 466.85L112.565 424.953L138.596 425.226Z" fill="#52825F"/>
<path d="M121.319 449.685C120.31 449.959 119.606 451.083 119.827 452.103C120.058 453.122 121.193 453.848 122.212 453.606C123.232 453.354 124.115 452.029 123.778 451.041C123.442 450.053 122.055 449.275 121.13 449.759L121.319 449.685Z" fill="#E0E0E0"/>
<g opacity="0.6">
<g opacity="0.6">
<g opacity="0.6">
<g opacity="0.6">
<g opacity="0.6">
<g opacity="0.6">
<g opacity="0.6">
<g opacity="0.6">
<g opacity="0.6">
<g opacity="0.6">
<g opacity="0.6">
<path opacity="0.6" d="M112.449 466.85L112.628 462.625L162.537 464.591C162.537 464.591 164.849 465.621 164.575 467.25L112.449 466.85Z" fill="white"/>
</g>
</g>
</g>
</g>
</g>
</g>
</g>
</g>
</g>
</g>
</g>
<path d="M138.271 451.81C138.26 452.062 136.989 452.167 135.727 452.976C134.445 453.754 133.794 454.847 133.563 454.742C133.331 454.69 133.72 453.176 135.265 452.219C136.789 451.263 138.323 451.578 138.271 451.81Z" fill="#263238"/>
<path d="M143.715 454.111C143.767 454.352 142.664 454.783 141.791 455.855C140.888 456.896 140.656 458.063 140.404 458.052C140.162 458.094 140.005 456.602 141.108 455.288C142.212 453.963 143.715 453.869 143.715 454.111Z" fill="#263238"/>
<path d="M146.772 460.679C146.541 460.732 146.194 459.46 146.857 458.073C147.508 456.675 148.717 456.139 148.822 456.349C148.969 456.559 148.181 457.305 147.655 458.451C147.098 459.586 147.025 460.658 146.772 460.679Z" fill="#263238"/>
<path d="M137.85 445.66C137.745 445.891 136.579 445.533 135.139 445.618C133.699 445.67 132.575 446.154 132.449 445.933C132.302 445.744 133.405 444.819 135.097 444.735C136.789 444.651 137.977 445.46 137.85 445.66Z" fill="#263238"/>
<path d="M138.523 445.365C138.649 445.365 138.67 447.856 138.596 451.83L138.386 451.514C141.434 452.67 145.48 454.226 149.778 456.255C154.486 458.462 158.638 460.753 161.328 462.908C162.673 463.97 163.672 464.979 164.187 465.82C164.733 466.661 164.659 467.291 164.575 467.27C164.533 467.26 164.502 466.745 163.913 466.019C163.346 465.284 162.326 464.38 160.96 463.413C158.238 461.437 154.087 459.25 149.41 457.054C145.144 455.035 141.129 453.406 138.145 452.134L137.924 452.04L137.934 451.819C138.176 447.825 138.386 445.355 138.523 445.365Z" fill="#263238"/>
<path d="M167.003 239.275L166.877 239.716L165.952 242.785L162.106 255.661L161.927 256.25L155.548 277.598L149.232 342.294L141.886 417.174L139.374 442.685L139.353 442.948L139.322 443.21L139.049 446.027H110.6C110.6 446.027 107.952 414.925 109.57 397.056C111.441 376.497 114.488 340.065 114.488 340.065L104.883 262.368V238.045L158.522 239.107L160.183 239.138L167.003 239.275Z" fill="#484E87"/>
<path d="M155.317 420.57L147.866 446.386C147.866 446.386 171.596 462.625 170.681 467.534L120.121 454.879L130.084 414.18L155.317 420.57Z" fill="#52825F"/>
<path d="M132.785 440.278C131.734 440.299 130.788 441.235 130.767 442.276C130.746 443.316 131.681 444.294 132.732 444.294C133.773 444.294 134.95 443.211 134.855 442.16C134.76 441.119 133.594 440.037 132.575 440.289L132.785 440.278Z" fill="#52825F"/>
<g opacity="0.6">
<g opacity="0.6">
<g opacity="0.6">
<g opacity="0.6">
<g opacity="0.6">
<g opacity="0.6">
<g opacity="0.6">
<g opacity="0.6">
<g opacity="0.6">
<g opacity="0.6">
<g opacity="0.6">
<path opacity="0.6" d="M120.121 454.878L121.288 450.811L169.336 464.464C169.336 464.464 171.343 466.01 170.692 467.534L120.121 454.878Z" fill="white"/>
</g>
</g>
</g>
</g>
</g>
</g>
</g>
</g>
</g>
</g>
</g>
<path d="M148.748 446.333C148.675 446.575 147.414 446.385 146.005 446.869C144.576 447.321 143.683 448.235 143.483 448.078C143.262 447.973 144.009 446.585 145.732 446.028C147.445 445.45 148.864 446.123 148.748 446.333Z" fill="#484E87"/>
<path d="M153.509 449.855C153.509 450.107 152.332 450.265 151.229 451.095C150.104 451.894 149.61 452.976 149.368 452.903C149.127 452.882 149.316 451.389 150.703 450.38C152.08 449.361 153.562 449.613 153.509 449.855Z" fill="#484E87"/>
<path d="M154.927 456.96C154.686 456.96 154.654 455.635 155.632 454.448C156.598 453.249 157.891 453.008 157.944 453.239C158.028 453.481 157.103 454.017 156.315 455.005C155.516 455.972 155.18 456.991 154.927 456.96Z" fill="#484E87"/>
<path d="M149.799 440.258C149.642 440.458 148.591 439.837 147.172 439.575C145.753 439.291 144.555 439.491 144.481 439.249C144.387 439.039 145.669 438.387 147.34 438.713C149.011 439.018 149.967 440.1 149.799 440.258Z" fill="#484E87"/>
<path d="M179.299 252.939L177.722 349.01L177.06 351.28C177.039 351.343 177.029 351.406 177.008 351.48C176.987 351.553 176.955 351.648 176.934 351.743L155.212 426.192L149.757 444.913L148.37 444.65L139.353 442.947L137.829 442.663L134.845 442.106L131.019 441.381L123.757 440.014L120.962 439.489L120.688 439.436L121.088 435.905V435.863L122.307 425.057L133.962 321.166V321.155L134.119 319.726L142.296 246.811L142.926 241.208L142.989 240.672L143.094 239.726L154.14 239.716H166.877L177.996 239.705L178.038 240.115L179.299 252.939Z" fill="#484E87"/>
<path d="M177.113 351.029C177.113 351.029 177.081 351.186 177.008 351.481C176.924 351.796 176.798 352.237 176.64 352.816C176.304 354.003 175.81 355.738 175.179 357.987C173.876 362.517 171.984 369.097 169.599 377.39C164.786 394.008 157.976 417.48 149.999 444.987L149.936 445.208L149.705 445.166C140.52 443.442 130.756 441.603 120.647 439.711L120.384 439.658L120.436 439.395C121.918 431.564 123.474 423.376 125.05 415.031C129.748 390.319 134.172 367.006 138.039 346.635V346.719C133.226 316.5 129.39 292.409 127.183 278.576L127.194 278.607C125.081 274.76 123.453 271.796 122.339 269.778C121.803 268.78 121.382 268.023 121.098 267.497C120.825 266.982 120.699 266.709 120.699 266.709C120.699 266.709 120.857 266.961 121.151 267.466C121.445 267.991 121.876 268.738 122.444 269.726C123.579 271.733 125.239 274.687 127.393 278.502L127.404 278.523V278.544C129.663 292.366 133.594 316.447 138.512 346.646L138.523 346.688L138.512 346.73C134.666 367.1 130.252 390.414 125.586 415.136C123.999 423.481 122.454 431.659 120.962 439.49L120.752 439.174C130.862 441.088 140.625 442.927 149.81 444.661L149.516 444.84C157.566 417.364 164.439 393.903 169.305 377.296C171.753 369.013 173.687 362.454 175.022 357.934C175.694 355.696 176.209 353.972 176.566 352.784C176.745 352.216 176.882 351.775 176.976 351.46C177.06 351.176 177.113 351.029 177.113 351.029Z" fill="#0A1235"/>
<path d="M172.773 247.579C172.826 247.611 172.311 248.567 171.186 249.902C170.072 251.237 168.307 252.919 166.026 254.306C163.746 255.694 161.444 256.503 159.741 256.871C158.039 257.25 156.957 257.271 156.957 257.207C156.904 257.029 161.265 256.598 165.742 253.833C170.251 251.132 172.636 247.453 172.773 247.579Z" fill="#455A64"/>
<path d="M101.719 174.78C101.677 174.37 101.635 173.95 101.593 173.519C101.572 173.287 101.541 173.056 101.52 172.814H101.562C101.572 173.056 101.593 173.287 101.614 173.519C101.646 173.95 101.677 174.37 101.719 174.78Z" fill="#F4B498"/>
<path d="M104.883 225.265C104.831 225.391 104.789 225.527 104.736 225.653C99.1032 218.537 90.7063 207.291 89.2244 201.657C88.0684 197.274 88.3732 189.495 88.9512 182.915V182.863C89.4556 177.292 90.1387 172.583 90.3069 171.521L101.142 173.435C101.289 174.959 101.426 176.367 101.573 177.639C101.615 178.028 101.657 178.396 101.699 178.753C101.899 180.572 102.098 182.054 102.256 183.136C102.351 183.735 102.435 184.219 102.498 184.629C102.55 184.965 102.592 185.144 102.613 185.144C102.634 185.133 102.624 184.955 102.603 184.608C102.571 184.208 102.529 183.714 102.477 183.115C102.372 182.064 102.256 180.74 102.109 179.174C102.056 178.669 102.014 178.143 101.962 177.597C101.888 176.819 101.815 175.989 101.752 175.116C101.888 176.588 102.035 177.965 102.172 179.247C102.435 181.675 102.676 183.746 102.887 185.312C102.981 186.048 103.076 186.826 103.16 187.656C103.191 187.898 103.212 188.139 103.244 188.392C104.6 201.793 104.883 225.265 104.883 225.265Z" fill="#F4B498"/>
<path d="M101.078 172.751C101.099 172.982 101.12 173.214 101.141 173.434L90.3062 171.521L90.1065 171.49L87.7314 171.069C87.7314 171.069 92.303 137.56 96.2019 127.911C98.3668 122.571 101.604 119.397 105.082 117.904C101.993 120.332 99.5544 122.519 99.1866 123.643C98.7557 124.936 98.6716 128.615 98.8082 133.608C98.8082 133.597 98.7977 133.597 98.7977 133.597C98.7872 133.608 98.7767 133.787 98.7767 134.133C98.7872 134.533 98.7977 135.037 98.8082 135.636C98.8713 137.024 98.9449 138.895 99.0394 141.165C99.2496 145.843 99.5754 152.296 100.038 159.423C100.206 162.093 100.395 164.658 100.584 167.075V167.086C100.752 169.093 100.91 170.996 101.078 172.751Z" fill="#737383"/>
<path d="M101.614 173.519H101.593C101.572 173.287 101.541 173.056 101.52 172.814H101.562C101.572 173.056 101.593 173.287 101.614 173.519Z" fill="#455A64"/>
<path d="M101.719 174.78C101.677 174.37 101.635 173.95 101.593 173.519C101.572 173.287 101.541 173.056 101.52 172.814H101.562C101.572 173.056 101.593 173.287 101.614 173.519C101.646 173.95 101.677 174.37 101.719 174.78Z" fill="#455A64"/>
<path d="M179.751 239.727C179.183 239.853 178.605 239.99 178.038 240.116L177.996 239.706L166.877 239.716L167.003 239.275L160.182 239.138C161.17 238.949 162.011 238.781 162.705 238.613C163.356 238.455 163.882 238.318 164.313 238.213C164.68 238.119 164.87 238.066 164.87 238.045C164.859 238.024 164.659 238.045 164.292 238.108C163.861 238.182 163.314 238.287 162.663 238.403C161.948 238.539 161.086 238.686 160.077 238.844C159.594 238.928 159.079 239.023 158.522 239.107L104.883 238.045V244.499C104.883 244.499 101.404 240.41 101.856 235.932C102.287 231.591 103.569 228.732 104.735 225.653C104.788 225.527 104.83 225.39 104.883 225.264C104.883 225.264 104.599 201.793 103.243 188.391C103.212 188.139 103.191 187.897 103.159 187.655C103.075 186.825 102.98 186.047 102.886 185.311C102.676 183.745 102.434 181.674 102.171 179.246C102.035 177.964 101.887 176.587 101.751 175.115C101.73 175 101.73 174.895 101.719 174.779C101.677 174.369 101.646 173.949 101.614 173.518C101.593 173.287 101.572 173.055 101.562 172.814C101.425 171.163 101.288 169.376 101.141 167.495C100.963 164.941 100.773 162.218 100.584 159.38C100.132 152.296 99.7225 145.895 99.4282 141.144C99.2601 138.873 99.1234 137.013 99.0289 135.625C98.9658 135.026 98.9238 134.532 98.8817 134.122C98.8502 133.828 98.8292 133.66 98.8082 133.607C98.6715 128.615 98.7556 124.936 99.1865 123.643C99.5543 122.518 101.992 120.332 105.082 117.904C111.241 113.048 119.995 107.267 119.995 107.267L120.457 104.334L151.407 110.861C151.407 110.861 160.33 115.928 161.98 116.895C161.486 116.811 160.96 116.748 160.414 116.716C159.258 116.663 157.986 116.737 156.693 117.157C155.38 117.578 154.213 118.492 153.089 119.522C151.985 120.584 151.018 121.951 150.472 123.58C148.202 129.981 148.265 138.4 150.756 146.988C151.071 148.06 151.397 149.143 151.796 150.225C152.195 151.308 152.71 152.359 153.267 153.4C153.446 153.736 153.635 154.062 153.824 154.388C154.781 158.455 156.273 163.196 158.606 168.147C165.269 182.295 175.169 191.145 175.169 191.145L172.52 168.073C172.594 168.168 172.678 168.273 172.762 168.367L179.488 231.812L179.751 239.727Z" fill="#737383"/>
<path d="M110.393 160.443L107.25 160.697L106.748 162.202L105.545 162.3L107.864 155.785L109.014 155.691L112.361 161.748L111.14 161.847L110.393 160.443ZM109.933 159.558L108.525 156.906L107.571 159.749L109.933 159.558Z" fill="#333333"/>
<path d="M115.214 161.58C114.717 161.62 114.263 161.551 113.851 161.374C113.438 161.196 113.107 160.931 112.855 160.578C112.603 160.218 112.458 159.802 112.419 159.329C112.381 158.856 112.458 158.425 112.649 158.036C112.84 157.647 113.122 157.332 113.494 157.091C113.872 156.849 114.313 156.708 114.816 156.667C115.289 156.629 115.71 156.691 116.078 156.854C116.453 157.017 116.745 157.27 116.954 157.615L116.132 158.188C115.977 157.977 115.79 157.827 115.571 157.736C115.359 157.639 115.13 157.6 114.884 157.62C114.465 157.654 114.129 157.82 113.876 158.118C113.622 158.409 113.514 158.783 113.551 159.238C113.588 159.693 113.752 160.047 114.044 160.3C114.341 160.548 114.702 160.654 115.127 160.619C115.373 160.6 115.593 160.527 115.788 160.403C115.988 160.272 116.148 160.091 116.268 159.858L117.171 160.291C117.014 160.665 116.764 160.966 116.421 161.192C116.083 161.413 115.681 161.542 115.214 161.58Z" fill="#333333"/>
<path d="M119.666 156.274C120.372 156.217 120.925 156.344 121.324 156.655C121.728 156.96 121.958 157.453 122.013 158.136L122.241 160.947L121.181 161.033L121.134 160.449C121.013 160.67 120.829 160.847 120.581 160.982C120.338 161.11 120.037 161.189 119.678 161.218C119.319 161.247 118.999 161.212 118.72 161.115C118.441 161.011 118.217 160.857 118.05 160.654C117.889 160.444 117.797 160.201 117.774 159.926C117.739 159.495 117.87 159.138 118.166 158.854C118.468 158.565 118.964 158.392 119.652 158.336L120.891 158.236L120.886 158.164C120.858 157.829 120.736 157.58 120.518 157.416C120.305 157.253 120.002 157.187 119.607 157.219C119.337 157.241 119.074 157.304 118.818 157.41C118.567 157.514 118.358 157.649 118.19 157.813L117.684 157.031C117.92 156.82 118.211 156.648 118.556 156.518C118.901 156.388 119.271 156.306 119.666 156.274ZM119.845 160.382C120.126 160.359 120.37 160.276 120.575 160.133C120.786 159.983 120.927 159.785 120.997 159.538L120.952 158.981L119.793 159.075C119.147 159.128 118.841 159.366 118.875 159.791C118.892 159.995 118.986 160.15 119.157 160.257C119.328 160.363 119.558 160.405 119.845 160.382Z" fill="#333333"/>
<path d="M127.882 153.782L128.422 160.446L127.344 160.533L127.294 159.913C127.127 160.156 126.91 160.345 126.644 160.481C126.384 160.617 126.089 160.698 125.76 160.725C125.299 160.762 124.875 160.694 124.487 160.521C124.105 160.347 123.795 160.083 123.555 159.728C123.315 159.368 123.175 158.946 123.136 158.461C123.097 157.976 123.167 157.539 123.346 157.151C123.526 156.763 123.79 156.452 124.138 156.219C124.493 155.985 124.901 155.85 125.362 155.813C125.679 155.787 125.974 155.817 126.246 155.904C126.518 155.99 126.756 156.133 126.959 156.334L126.759 153.873L127.882 153.782ZM125.817 159.753C126.086 159.731 126.324 159.652 126.53 159.514C126.735 159.371 126.891 159.181 126.999 158.943C127.106 158.705 127.147 158.437 127.123 158.137C127.099 157.838 127.015 157.58 126.871 157.362C126.726 157.145 126.542 156.985 126.316 156.883C126.091 156.775 125.843 156.732 125.574 156.754C125.304 156.775 125.067 156.858 124.862 157.001C124.656 157.138 124.499 157.326 124.392 157.563C124.285 157.801 124.243 158.07 124.267 158.369C124.292 158.668 124.376 158.927 124.52 159.144C124.664 159.361 124.849 159.524 125.075 159.632C125.3 159.735 125.547 159.775 125.817 159.753Z" fill="#333333"/>
<path d="M134.206 157.59C134.213 157.668 134.216 157.779 134.215 157.924L130.453 158.229C130.547 158.577 130.741 158.845 131.033 159.032C131.331 159.213 131.686 159.286 132.099 159.253C132.626 159.21 133.046 159.001 133.359 158.626L134.017 159.269C133.822 159.544 133.566 159.761 133.247 159.919C132.929 160.077 132.563 160.173 132.15 160.207C131.623 160.249 131.15 160.182 130.732 160.005C130.314 159.828 129.979 159.563 129.728 159.21C129.482 158.85 129.339 158.434 129.301 157.961C129.263 157.494 129.334 157.066 129.513 156.678C129.698 156.284 129.971 155.966 130.331 155.726C130.691 155.486 131.108 155.347 131.581 155.308C132.048 155.271 132.472 155.342 132.855 155.522C133.242 155.695 133.553 155.962 133.787 156.323C134.027 156.677 134.167 157.1 134.206 157.59ZM131.654 156.206C131.294 156.236 130.998 156.368 130.764 156.604C130.535 156.833 130.409 157.127 130.383 157.485L133.104 157.264C133.028 156.921 132.859 156.651 132.596 156.455C132.333 156.26 132.019 156.177 131.654 156.206Z" fill="#333333"/>
<path d="M141.136 154.534C141.741 154.485 142.234 154.623 142.616 154.947C142.998 155.266 143.217 155.775 143.274 156.476L143.496 159.224L142.374 159.315L142.163 156.71C142.129 156.291 142.01 155.985 141.808 155.79C141.605 155.59 141.33 155.503 140.982 155.532C140.605 155.562 140.313 155.712 140.106 155.982C139.898 156.246 139.813 156.609 139.851 157.07L140.048 159.503L138.925 159.594L138.714 156.99C138.68 156.571 138.562 156.264 138.359 156.07C138.156 155.869 137.881 155.783 137.534 155.811C137.151 155.842 136.855 155.99 136.648 156.254C136.446 156.517 136.364 156.882 136.402 157.349L136.599 159.783L135.477 159.874L135.088 155.078L136.157 154.992L136.206 155.602C136.368 155.372 136.58 155.189 136.84 155.054C137.1 154.918 137.395 154.837 137.724 154.81C138.083 154.781 138.406 154.824 138.693 154.94C138.985 155.049 139.222 155.228 139.405 155.479C139.582 155.211 139.821 154.996 140.121 154.833C140.421 154.664 140.759 154.564 141.136 154.534Z" fill="#333333"/>
<path d="M148.944 153.955L147.119 159.319C146.952 159.857 146.727 160.242 146.445 160.476C146.163 160.716 145.81 160.853 145.384 160.888C145.145 160.907 144.905 160.887 144.666 160.828C144.426 160.769 144.225 160.677 144.065 160.552L144.447 159.689C144.563 159.782 144.695 159.853 144.843 159.901C144.998 159.949 145.15 159.967 145.3 159.954C145.497 159.938 145.655 159.874 145.772 159.762C145.896 159.65 146.002 159.47 146.09 159.221L146.156 159.026L143.673 154.382L144.84 154.288L146.637 157.713L147.867 154.043L148.944 153.955Z" fill="#333333"/>
<path d="M117.204 175.004C116.719 175.044 116.243 175.013 115.777 174.912C115.317 174.811 114.946 174.657 114.664 174.451L114.995 173.511C115.269 173.694 115.596 173.836 115.978 173.938C116.366 174.033 116.748 174.065 117.125 174.034C117.592 173.997 117.933 173.894 118.149 173.725C118.37 173.557 118.471 173.35 118.451 173.104C118.436 172.925 118.358 172.783 118.218 172.68C118.082 172.571 117.913 172.491 117.71 172.441C117.507 172.391 117.232 172.338 116.884 172.282C116.395 172.207 115.997 172.125 115.689 172.036C115.386 171.946 115.117 171.79 114.882 171.568C114.653 171.339 114.521 171.018 114.488 170.605C114.46 170.258 114.527 169.936 114.69 169.64C114.858 169.337 115.124 169.086 115.488 168.888C115.857 168.69 116.317 168.568 116.868 168.523C117.251 168.492 117.632 168.509 118.011 168.575C118.39 168.641 118.722 168.753 119.006 168.91L118.711 169.847C118.423 169.708 118.125 169.608 117.819 169.549C117.513 169.489 117.219 169.471 116.938 169.494C116.477 169.531 116.139 169.637 115.924 169.811C115.715 169.985 115.621 170.2 115.642 170.458C115.657 170.637 115.731 170.779 115.866 170.882C116.007 170.985 116.179 171.062 116.382 171.112C116.585 171.162 116.86 171.214 117.208 171.271C117.684 171.341 118.076 171.423 118.385 171.519C118.694 171.608 118.963 171.764 119.192 171.987C119.427 172.209 119.561 172.523 119.594 172.93C119.622 173.278 119.552 173.6 119.383 173.897C119.22 174.193 118.954 174.441 118.584 174.639C118.215 174.838 117.754 174.96 117.204 175.004Z" fill="#333333"/>
<path d="M126.447 169.283C127.052 169.234 127.545 169.372 127.927 169.697C128.308 170.015 128.527 170.525 128.584 171.225L128.807 173.973L127.684 174.064L127.473 171.46C127.439 171.041 127.321 170.734 127.119 170.54C126.915 170.339 126.64 170.253 126.293 170.281C125.916 170.312 125.624 170.462 125.417 170.732C125.209 170.996 125.124 171.358 125.161 171.819L125.359 174.253L124.236 174.344L124.025 171.74C123.991 171.32 123.873 171.014 123.67 170.819C123.467 170.619 123.192 170.533 122.845 170.561C122.462 170.592 122.166 170.739 121.959 171.003C121.757 171.267 121.675 171.632 121.713 172.099L121.91 174.532L120.788 174.623L120.399 169.828L121.468 169.741L121.517 170.352C121.679 170.122 121.89 169.939 122.151 169.803C122.411 169.668 122.705 169.587 123.035 169.56C123.394 169.531 123.717 169.574 124.003 169.689C124.295 169.798 124.533 169.978 124.716 170.228C124.893 169.961 125.132 169.746 125.432 169.583C125.732 169.414 126.07 169.314 126.447 169.283Z" fill="#333333"/>
<path d="M131.68 168.859C132.387 168.802 132.939 168.929 133.338 169.24C133.743 169.545 133.972 170.038 134.028 170.721L134.256 173.532L133.196 173.618L133.149 173.034C133.028 173.255 132.843 173.432 132.595 173.567C132.353 173.695 132.052 173.774 131.692 173.803C131.333 173.832 131.014 173.797 130.735 173.7C130.455 173.596 130.232 173.442 130.065 173.239C129.903 173.029 129.811 172.786 129.789 172.511C129.754 172.08 129.885 171.723 130.181 171.439C130.483 171.15 130.978 170.977 131.667 170.921L132.906 170.821L132.9 170.749C132.873 170.414 132.75 170.165 132.532 170.001C132.32 169.838 132.016 169.772 131.621 169.804C131.352 169.826 131.089 169.889 130.832 169.995C130.582 170.099 130.373 170.234 130.205 170.398L129.699 169.616C129.935 169.404 130.225 169.233 130.57 169.103C130.915 168.972 131.285 168.891 131.68 168.859ZM131.86 172.967C132.141 172.944 132.384 172.861 132.59 172.718C132.8 172.568 132.941 172.37 133.011 172.123L132.966 171.566L131.808 171.66C131.161 171.712 130.855 171.951 130.89 172.376C130.906 172.58 131 172.735 131.172 172.842C131.343 172.948 131.572 172.99 131.86 172.967Z" fill="#333333"/>
<path d="M136.433 169.233C136.715 168.704 137.264 168.407 138.078 168.341L138.165 169.409C138.067 169.399 137.98 169.397 137.902 169.403C137.465 169.439 137.134 169.595 136.91 169.873C136.685 170.144 136.591 170.519 136.63 170.998L136.819 173.324L135.696 173.415L135.307 168.619L136.376 168.533L136.433 169.233Z" fill="#333333"/>
<path d="M142.46 172.604C142.337 172.723 142.182 172.817 141.995 172.886C141.814 172.955 141.618 172.998 141.409 173.015C140.882 173.058 140.464 172.953 140.154 172.701C139.844 172.449 139.668 172.059 139.625 171.533L139.438 169.225L138.648 169.289L138.575 168.391L139.366 168.327L139.277 167.231L140.399 167.14L140.488 168.236L141.772 168.132L141.845 169.03L140.561 169.134L140.746 171.415C140.765 171.648 140.836 171.823 140.96 171.94C141.084 172.05 141.253 172.097 141.469 172.079C141.72 172.059 141.924 171.976 142.081 171.831L142.46 172.604Z" fill="#333333"/>
<path d="M175.169 191.145C175.169 191.145 165.269 182.295 158.606 168.147C156.273 163.196 154.781 158.455 153.824 154.388C153.635 154.062 153.446 153.736 153.267 153.4C152.71 152.359 152.195 151.308 151.796 150.225C151.397 149.143 151.071 148.06 150.756 146.988C148.265 138.4 148.202 129.981 150.472 123.58C151.018 121.951 151.985 120.584 153.089 119.522C154.213 118.492 155.38 117.578 156.693 117.157C157.986 116.737 159.258 116.663 160.414 116.716C160.96 116.748 161.486 116.811 161.98 116.895C162.032 116.926 162.074 116.958 162.116 116.979C162.158 117 162.19 117.031 162.232 117.052C162.232 117.052 162.232 117.063 162.242 117.063C162.337 117.115 162.432 117.178 162.526 117.242C172.962 124.021 170.366 145.8 170.366 145.8L171.564 157.078L172.636 167.18L172.668 167.474L172.699 167.768L172.762 168.367C172.678 168.273 172.594 168.168 172.52 168.073L175.169 191.145Z" fill="#455A64"/>
<path d="M178.038 240.116C173.96 241.041 169.925 241.945 165.952 242.785C157.818 244.488 149.905 245.939 142.296 246.811C128.76 248.388 116.159 248.178 104.883 244.499V238.045L158.522 239.107C159.079 239.023 159.594 238.928 160.078 238.844C161.087 238.686 161.948 238.539 162.663 238.402C163.314 238.287 163.861 238.182 164.292 238.108C164.66 238.045 164.859 238.024 164.87 238.045C164.87 238.066 164.681 238.119 164.313 238.213C163.882 238.318 163.357 238.455 162.705 238.613C162.011 238.781 161.171 238.949 160.183 239.138L167.003 239.275L166.877 239.716L177.996 239.706L178.038 240.116Z" fill="#737383"/>
<path d="M175.169 191.145C175.169 191.145 165.27 182.295 158.607 168.147C156.274 163.196 154.781 158.456 153.825 154.388C153.751 154.094 153.688 153.81 153.625 153.526C153.615 153.516 153.625 153.516 153.625 153.516C153.552 153.2 153.489 152.896 153.426 152.591C152.059 146.021 152.123 141.617 152.123 141.617L166.846 159.045L172.216 165.404L172.437 167.296L172.469 167.59V167.601L172.5 167.895L172.521 168.074L175.169 191.145Z" fill="#505064"/>
<path d="M168.653 119.902C165.196 117.106 158.774 115.592 155.117 118.104C153.488 119.218 151.586 120.911 150.672 123.581C147.54 132.725 149.411 142.564 151.912 149.858C154.413 157.153 166.509 171.217 166.509 171.217L196.387 153.075C196.387 153.075 176.388 128.836 174.307 126.334C173.225 125.01 170.576 121.447 168.653 119.902Z" fill="#737383"/>
<path d="M196.765 153.126L196.524 153.284C196.208 153.484 195.883 153.673 195.557 153.883C188.579 158.109 180.854 162.807 172.699 167.768C172.636 167.81 172.562 167.852 172.499 167.894C172.468 167.905 172.447 167.926 172.415 167.947C171.049 168.767 169.683 169.608 168.296 170.449C167.728 170.785 167.171 171.132 166.656 171.437L166.457 171.563L166.309 171.384C162.967 167.432 159.857 163.469 157.072 159.475C155.905 157.804 154.802 156.111 153.824 154.388C153.635 154.062 153.446 153.736 153.267 153.4C152.71 152.359 152.195 151.308 151.796 150.225C151.397 149.143 151.071 148.06 150.756 146.988C148.265 138.4 148.202 129.981 150.472 123.58C151.018 121.951 151.985 120.584 153.089 119.522C154.213 118.492 155.38 117.578 156.693 117.157C157.986 116.737 159.258 116.663 160.414 116.716C160.96 116.748 161.486 116.811 161.98 116.895C162.516 116.989 163.031 117.115 163.503 117.252C165.322 117.757 166.625 118.471 167.455 118.997C168.086 119.386 168.443 119.701 168.579 119.838C168.59 119.848 168.59 119.848 168.6 119.859C168.611 119.859 168.611 119.869 168.621 119.89C168.495 119.817 168.107 119.501 167.402 119.092C166.551 118.597 165.259 117.914 163.451 117.452C163.157 117.368 162.852 117.294 162.526 117.242C161.864 117.105 161.16 117.01 160.393 116.979C159.268 116.937 158.028 117.021 156.788 117.452C155.548 117.851 154.413 118.755 153.33 119.775C152.269 120.815 151.344 122.129 150.84 123.706C148.643 130.034 148.738 138.348 151.239 146.851C151.554 147.913 151.88 148.995 152.269 150.047C152.595 150.909 152.994 151.749 153.425 152.59C153.52 152.779 153.625 152.958 153.719 153.147C154.823 155.187 156.126 157.184 157.513 159.17C160.246 163.07 163.304 166.98 166.572 170.848C167.024 170.575 167.518 170.28 168.012 169.976C169.378 169.145 170.723 168.325 172.069 167.526C172.195 167.442 172.31 167.369 172.436 167.295C172.51 167.253 172.573 167.211 172.636 167.18C180.686 162.292 188.316 157.678 195.2 153.505C195.473 153.337 195.746 153.168 196.019 153.011C187.99 143.214 181.201 134.932 176.388 129.067C173.95 126.144 172.153 123.727 170.818 122.182C170.156 121.404 169.609 120.836 169.231 120.468C168.926 120.153 168.716 119.985 168.674 119.922C168.674 119.922 168.685 119.922 168.695 119.932C168.779 119.985 168.989 120.143 169.294 120.405C169.683 120.763 170.25 121.32 170.934 122.077C172.321 123.601 174.149 125.987 176.609 128.877C181.495 134.753 188.4 143.067 196.587 152.916L196.765 153.126Z" fill="#737383"/>
<path d="M102.613 185.144C102.592 185.144 102.55 184.965 102.498 184.629C102.435 184.219 102.351 183.735 102.256 183.136C102.098 182.054 101.899 180.572 101.699 178.753C101.657 178.396 101.615 178.028 101.573 177.639C101.426 176.367 101.289 174.959 101.142 173.435C101.121 173.214 101.1 172.983 101.079 172.751C100.911 170.996 100.753 169.094 100.585 167.086V167.075C100.396 164.658 100.207 162.093 100.038 159.423C99.5761 152.297 99.2503 145.843 99.0401 141.166C98.9455 138.895 98.8719 137.024 98.8089 135.637C98.7984 135.038 98.7879 134.533 98.7773 134.134C98.7773 133.787 98.7879 133.608 98.7984 133.598C98.7984 133.598 98.8089 133.598 98.8089 133.608C98.8299 133.661 98.8509 133.829 98.8824 134.123C98.9245 134.533 98.9665 135.027 99.0296 135.626C99.1242 137.014 99.2608 138.874 99.4289 141.145C99.7232 145.896 100.133 152.297 100.585 159.381C100.774 162.219 100.963 164.942 101.142 167.496C101.289 169.377 101.426 171.164 101.562 172.814H101.52C101.541 173.056 101.573 173.287 101.594 173.519C101.636 173.95 101.678 174.37 101.72 174.78C101.73 174.896 101.73 175.001 101.751 175.116C101.815 175.989 101.888 176.819 101.962 177.597C102.014 178.144 102.056 178.669 102.109 179.174C102.256 180.74 102.372 182.064 102.477 183.115C102.529 183.714 102.571 184.208 102.603 184.608C102.624 184.955 102.634 185.133 102.613 185.144Z" fill="#505064"/>
<path d="M101.72 174.78C101.678 174.37 101.636 173.95 101.594 173.519C101.573 173.287 101.542 173.056 101.521 172.814H101.563C101.573 173.056 101.594 173.287 101.615 173.519C101.647 173.95 101.678 174.37 101.72 174.78Z" fill="#505064"/>
<path d="M164.87 238.045C164.87 238.066 164.681 238.119 164.313 238.213C163.882 238.318 163.356 238.455 162.705 238.613C162.011 238.781 161.171 238.949 160.183 239.138C160.162 239.138 160.151 239.149 160.13 239.149C159.195 239.338 158.144 239.538 156.956 239.716C156.872 239.737 156.788 239.748 156.704 239.758C154.171 240.2 151.124 240.547 147.729 240.883C146.195 241.009 144.587 241.125 142.926 241.209C140.909 241.324 138.817 241.398 136.652 241.43C132.722 241.451 128.97 241.314 125.576 241.093C122.17 240.82 119.123 240.515 116.569 240.095C115.297 239.916 114.152 239.706 113.143 239.517C112.134 239.338 111.272 239.159 110.579 238.991C109.927 238.833 109.391 238.707 108.96 238.602C108.592 238.507 108.403 238.444 108.403 238.434C108.414 238.413 108.614 238.434 108.981 238.497C109.423 238.571 109.959 238.665 110.621 238.781C111.325 238.917 112.187 239.065 113.196 239.212C114.204 239.38 115.35 239.559 116.632 239.716C119.175 240.074 122.223 240.347 125.607 240.589C129.002 240.788 132.732 240.904 136.652 240.883C138.828 240.851 140.951 240.778 142.989 240.673C144.618 240.589 146.184 240.494 147.687 240.378C150.02 240.168 152.185 239.958 154.14 239.716C155.023 239.611 155.863 239.496 156.652 239.38C157.314 239.296 157.934 239.201 158.522 239.107C159.079 239.023 159.594 238.928 160.078 238.844C161.086 238.686 161.948 238.539 162.663 238.402C163.314 238.287 163.861 238.182 164.292 238.108C164.66 238.045 164.859 238.024 164.87 238.045Z" fill="#505064"/>
<path d="M103.16 187.656C101.899 189.674 100.133 191.682 99.5129 192.386C100.112 191.787 101.73 190.126 103.244 188.392C103.212 188.139 103.191 187.898 103.16 187.656ZM101.615 173.519C101.594 173.287 101.573 173.056 101.562 172.814H101.52C101.541 173.056 101.573 173.287 101.594 173.519C101.636 173.95 101.678 174.37 101.72 174.78C101.678 174.37 101.646 173.95 101.615 173.519ZM101.573 177.639C101.426 176.367 101.289 174.959 101.142 173.435L90.3067 171.521C90.1386 172.583 89.4555 177.292 88.951 182.863V182.915C88.8565 185.47 88.9511 188.097 89.4135 190.83C89.6342 192.071 89.8233 193.185 89.9915 194.183C91.137 198.924 93.1022 205.441 93.1022 205.441C93.1022 205.441 92.5768 194.846 92.5347 192.722C92.4927 190.599 94.0901 186.763 94.0901 186.763L94.7942 198.388C94.7942 198.388 95.6245 182.59 96.0133 181.097C96.4021 179.604 100.501 173.561 100.501 173.561L101.331 178.406C101.331 178.406 101.468 178.532 101.699 178.753C101.657 178.396 101.615 178.028 101.573 177.639ZM92.5242 187.025C92.5242 187.025 91.757 182.537 91.8937 181.444C92.0303 180.361 94.4474 177.839 94.4789 177.797L92.5242 187.025ZM101.751 175.116C101.814 175.989 101.888 176.819 101.962 177.597C102.014 178.143 102.056 178.669 102.109 179.174C102.119 179.195 102.14 179.216 102.172 179.247C102.035 177.965 101.888 176.588 101.751 175.116Z" fill="#726C69"/>
</svg>
