<svg width="202" height="210" viewBox="0 0 202 210" fill="none" xmlns="http://www.w3.org/2000/svg">
<path d="M152.063 184.738C152.544 188.078 152.9 191.474 153.095 194.841L159.246 198.79L164.885 194.826C164.643 190 164.013 185.196 163.033 180.497L152.063 184.738Z" fill="#FFA8A7"/>
<path d="M153.095 194.839C153.208 197.009 153.321 199.179 153.334 201.345L171.384 203.16C171.384 203.16 164.805 195.205 164.909 194.764L153.095 194.839Z" fill="#AF7318"/>
<path d="M134.136 203.774L124.746 136.914L120.074 138.765L131.46 203.774H134.136Z" fill="#575757"/>
<path d="M63.0553 203.774L74.4411 138.765L69.7688 136.914L60.3789 203.774H63.0553Z" fill="#575757"/>
<path d="M106.421 203.774L97.0766 136.914L92.4043 138.765L103.79 203.774H106.421Z" fill="#575757"/>
<path d="M94.3093 120.841C104.243 120.525 140.805 114.611 141.622 128.2C141.848 131.947 138.492 134.881 135.316 136.868C116.264 148.56 91.4061 146.348 71.2655 138.854C55.525 133.03 45.5907 118.403 43.4134 101.79C41.1453 84.5894 40.6463 63.1003 54.2548 51.2722C76.3914 31.9501 92.9484 104.002 94.3093 120.841Z" fill="#969696"/>
<path d="M61.7305 11.9053C61.7305 11.9053 58.9909 12.2546 57.561 15.8893C56.7642 17.6357 56.3822 20.8883 59.4602 29.5767C60.6281 33.0259 62.3963 36.2786 64.4483 39.2038C65.136 40.2298 66.1074 40.9284 67.1989 41.1576L66.5549 34.292L65.911 29.5767C65.911 29.5767 69.4802 25.7892 69.5348 22.2527C69.6658 19.786 69.0327 17.3737 67.8102 15.3108L61.7305 11.9053Z" fill="#37474F"/>
<path d="M60.671 12.1339C61.0093 8.26994 65.7137 3.17264 75.1552 2.03749C82.9158 1.02241 87.6966 3.44555 90.6109 7.69151C93.6889 12.0794 92.27 18.0171 92.27 18.0171L67.7111 18.2354L60.671 12.1339Z" fill="#37474F"/>
<path d="M60.2681 36.584C62.2571 37.1816 65.3873 35.1432 65.3873 35.1432L67.0136 49.3109C74.545 57.9884 92.6421 53.3168 84.6632 46.9751L84.434 43.7661C85.5037 43.6897 86.5624 43.4605 87.6212 43.2313C90.7975 42.5436 92.5985 39.804 93.2752 36.3766C94.4431 29.0745 93.9083 21.5868 91.7144 14.5247C91.2887 12.8656 90.3937 11.0865 88.8219 10.5844C84.8707 9.02355 81.5416 11.8724 76.4988 14.3828C74.425 15.4525 69.0984 16.1401 67.6795 15.6271C69.6551 17.4827 70.1135 23.9007 67.5594 26.8478C67.2974 27.4808 66.8827 28.1248 66.3151 28.7797C65.169 29.9367 63.5701 27.3863 63.1632 26.9481C62.7563 26.5099 62.0535 25.858 61.3378 25.7562C60.627 25.6552 60.1933 25.6861 59.5041 25.8872C58.8101 26.0897 58.4001 26.2716 57.8778 26.7713C57.3501 27.2762 57.1909 27.6988 56.9172 28.3758C56.5474 29.2906 56.4767 29.8778 56.4806 30.8645C56.4847 31.8886 56.6007 32.5454 56.9718 33.4404C57.332 34.1826 57.6317 34.8453 58.3471 35.4925C58.987 36.0713 59.4418 36.3356 60.2681 36.584Z" fill="#FFA8A7"/>
<path d="M84.2787 43.778C80.7749 44.1818 77.2166 43.8216 73.9312 42.9812C71.4098 42.0861 69.0413 39.0299 68.0371 35.7227C68.2227 38.3204 69.7835 42.9702 73.5928 44.6948C77.4022 46.4194 81.8446 46.2557 84.4424 46.0701L84.2787 43.778Z" fill="#F28F8F"/>
<path d="M68.903 24.2602C68.128 26.3122 69.3024 31.946 71.1907 32.5791C73.079 33.2122 74.8255 31.8587 78.9295 31.2584C81.9639 30.7345 85.1947 30.8109 88.1527 31.3676C90.0192 31.695 93.4465 32.3718 93.4683 30.5271C93.643 35.1224 93.1081 40.5362 89.8664 42.4573C86.6246 44.3783 78.0999 45.448 73.341 43.3304C68.7458 41.3548 67.7852 38.6588 66.6173 35.2096C65.8205 32.6555 64.796 29.5858 63.7045 27.2064L68.903 24.2602Z" fill="#37474F"/>
<path d="M80.916 20.3633L82.848 30.2086L87.9016 27.851C86.1443 24.7511 83.8194 22.3062 80.916 20.3633Z" fill="#F28F8F"/>
<path d="M79.6629 32.8932L83.7342 33.9847C83.6032 34.3013 83.549 34.5097 83.3303 34.7815C83.1428 35.0146 83.1002 35.1119 82.8513 35.2779C82.5833 35.4567 82.3279 35.5942 82.0096 35.6438C81.7082 35.6908 81.5267 35.6338 81.2346 35.5456C80.6258 35.3617 80.2741 34.9998 79.9358 34.5632C79.5974 34.1266 79.5428 33.3626 79.6629 32.8932Z" fill="#B16668"/>
<path d="M80.1661 33.4723C79.9868 33.4649 79.8605 33.4941 79.7077 33.505C79.7295 33.8106 79.9151 34.2581 79.9151 34.2581C79.9151 34.2581 80.1644 34.761 80.4281 34.9895C80.6917 35.2179 80.8902 35.2949 81.2249 35.3933C81.5175 35.4794 81.847 35.5025 81.9998 35.4916C81.9671 35.0331 81.9461 34.5643 81.596 34.1381C81.205 33.6621 80.7816 33.4975 80.1661 33.4723Z" fill="#F28F8F"/>
<path d="M76.4749 19.9435L73.3016 21.3881C72.9152 20.6296 72.7044 19.4817 74.0746 18.9695C75.4448 18.4572 76.1726 19.2397 76.4749 19.9435Z" fill="#37474F"/>
<path d="M89.7364 17.6332L86.2695 18.0041C86.1419 17.1625 86.3036 16.0066 87.7654 15.9523C89.2272 15.898 89.6714 16.8699 89.7364 17.6332Z" fill="#37474F"/>
<path opacity="0.15" d="M141.62 128.2C140.804 114.611 104.242 120.525 94.3081 120.841C93.3102 108.246 83.8296 64.9517 69.8581 51.8145C65.4127 52.2659 55.6599 53.846 47.5401 59.6246C44.2287 65.674 42.7318 72.7167 42.2782 80.0302C42.1875 84.1384 42.2328 88.6981 42.4596 93.2126C42.6864 96.147 43.004 99.0363 43.3669 101.835C44.3195 108.923 46.6329 115.605 50.2165 121.428C50.4433 121.609 50.6701 121.79 50.8969 121.925C63.4621 130.006 72.4437 139.351 96.2587 139.08C114.993 138.854 121.298 137.771 126.651 141.112C129.6 139.983 132.503 138.584 135.224 136.913C138.49 134.882 141.802 131.947 141.62 128.2Z" fill="#0F1258"/>
<path d="M93.5391 52.3125C94.7638 52.6285 95.9432 53.08 97.0319 53.712C100.661 55.7435 103.246 59.2649 105.106 63.0119C109.688 72.0861 110.822 82.4243 113.408 92.2208C114.088 94.8393 114.95 97.548 116.855 99.4892C117.581 100.257 118.669 100.934 119.713 100.573C121.028 100.121 121.255 98.4509 121.527 97.0965C122.571 92.2208 127.651 88.5189 132.732 90.0087C136.224 92.4917 137.903 97.0514 137.268 101.295C136.633 105.494 133.911 109.286 130.327 111.588C126.744 113.891 122.389 114.884 118.08 114.793C113.317 114.703 108.372 113.213 105.016 109.827C101.704 106.487 100.253 101.746 99.2547 97.1417C97.4402 88.6995 96.7597 80.0768 96.1247 71.4992L93.5391 52.3125Z" fill="#FD8D3C"/>
<path opacity="0.15" d="M136.087 93.9799C131.052 94.2056 126.108 95.0634 121.798 96.1017C121.708 96.4177 121.572 96.7789 121.526 97.0949C121.254 98.4492 121.027 100.12 119.712 100.571C118.714 100.932 117.625 100.255 116.854 99.4876C116.355 98.9458 115.947 98.4041 115.539 97.7721C110.821 99.2167 107.782 100.571 107.782 100.571C107.6 82.9193 98.1196 67.2539 98.1196 67.2539C98.1196 67.2539 97.3938 69.6918 96.2598 73.4388C96.8948 81.3844 97.5753 89.3299 99.2536 97.14C100.252 101.745 101.703 106.485 105.015 109.826C108.371 113.212 113.27 114.702 118.079 114.792C122.343 114.882 126.743 113.934 130.326 111.586C133.91 109.284 136.632 105.492 137.267 101.293C137.63 98.8104 137.221 96.192 136.087 93.9799Z" fill="#0F1258"/>
<path d="M149.379 92.4006C151.012 92.1749 152.69 91.904 154.278 92.3555C154.641 92.4458 155.049 92.6715 155.094 93.0327C155.14 93.4841 154.686 93.8001 154.278 93.9807C152.372 94.7933 150.286 95.1545 148.199 95.0642L149.379 92.4006Z" fill="#FFA8A7"/>
<path d="M149.379 92.4006C151.012 92.1749 152.69 91.904 154.278 92.3555C154.641 92.4458 155.049 92.6715 155.094 93.0327C155.14 93.4841 154.686 93.8001 154.278 93.9807C152.372 94.7933 150.286 95.1545 148.199 95.0642L149.379 92.4006Z" stroke="#F28F8F" stroke-miterlimit="10" stroke-linecap="round" stroke-linejoin="round"/>
<path d="M136.813 70.4142C135.497 69.4662 134.998 67.6604 135.361 66.0803C135.724 64.5002 136.858 63.191 138.037 62.0624C136.268 62.1075 134.454 61.4303 133.411 59.9857C132.367 58.5862 132.276 56.4644 133.456 55.11C133.955 54.5231 134.635 54.162 135.134 53.5751C135.905 52.627 136.042 51.363 135.951 50.144C135.86 48.9251 135.588 47.7513 135.633 46.5776C135.679 45.3586 135.996 43.7786 137.402 43.1917C138.99 42.5145 140.895 42.5145 142.075 41.2956C142.846 40.4378 143.254 39.3092 143.798 38.2708C144.388 37.2777 145.341 36.2845 146.475 36.3296C147.654 36.3296 148.607 37.4131 148.788 38.5417C148.97 39.6704 148.471 40.8441 147.79 41.7922C147.11 42.7402 146.203 43.5077 145.386 44.3203C144.57 45.1329 143.798 46.081 143.435 47.1645C143.209 47.8868 143.209 48.7445 143.708 49.2863C144.025 49.6023 144.524 49.7377 144.932 49.9635C146.747 50.8664 147.518 53.4396 146.429 55.1551C145.93 55.9678 145.023 56.7352 145.159 57.7284C145.295 58.7668 146.52 59.2634 147.291 59.9857C148.652 61.2949 148.561 63.507 147.79 65.2225C147.019 66.938 145.658 68.2924 144.615 69.8273L136.813 70.4142Z" fill="#999999" fill-opacity="0.13"/>
<path d="M150.74 68.2475C152.056 78.36 151.602 88.8788 149.379 98.7205C149.062 98.8108 135.544 98.5399 135.544 98.5399C133.14 89.2852 132.142 79.3984 132.777 69.8276C132.913 67.6606 134.092 65.8999 135.68 65.3582C139.218 64.1393 142.983 63.6878 147.066 63.9587C148.926 64.049 150.423 65.8548 150.74 68.2475Z" fill="#F4E9A2"/>
<path d="M148.243 93.0324C149.468 92.9421 150.784 92.8067 151.782 92.0392C152.144 91.7684 152.462 91.3169 152.371 90.9106C152.235 90.414 151.646 90.1883 151.101 90.098C149.695 89.8723 148.243 90.0077 146.928 90.5043C146.338 90.73 145.703 91.1363 145.703 91.7232C145.703 92.1747 146.066 92.5358 146.474 92.7164C146.928 92.897 147.382 93.1227 148.243 93.0324Z" fill="#FFA8A7"/>
<path d="M148.243 93.0324C149.468 92.9421 150.784 92.8067 151.782 92.0392C152.144 91.7684 152.462 91.3169 152.371 90.9106C152.235 90.414 151.646 90.1883 151.101 90.098C149.695 89.8723 148.243 90.0077 146.928 90.5043C146.338 90.73 145.703 91.1363 145.703 91.7232C145.703 92.1747 146.066 92.5358 146.474 92.7164C146.928 92.897 147.382 93.1227 148.243 93.0324Z" stroke="#F28F8F" stroke-miterlimit="10" stroke-linecap="round" stroke-linejoin="round"/>
<path d="M147.698 90.1882C148.243 90.143 148.787 90.0979 149.286 89.9625C149.649 89.8722 150.057 89.827 150.465 89.7819C151.237 89.6916 152.053 89.4659 152.552 88.8338C152.779 88.5178 152.87 88.0664 152.779 87.7052C152.552 86.9829 151.736 86.8474 151.055 86.8023C149.331 86.712 147.608 87.028 145.975 87.66C145.43 87.8858 144.841 88.2018 144.75 88.7435C144.659 89.2401 144.977 89.7367 145.43 90.0076C145.884 90.2333 146.428 90.2785 146.927 90.2333C147.154 90.2333 147.426 90.1882 147.698 90.1882Z" fill="#FFA8A7"/>
<path d="M147.698 90.1882C148.243 90.143 148.787 90.0979 149.286 89.9625C149.649 89.8722 150.057 89.827 150.465 89.7819C151.237 89.6916 152.053 89.4659 152.552 88.8338C152.779 88.5178 152.87 88.0664 152.779 87.7052C152.552 86.9829 151.736 86.8474 151.055 86.8023C149.331 86.712 147.608 87.028 145.975 87.66C145.43 87.8858 144.841 88.2018 144.75 88.7435C144.659 89.2401 144.977 89.7367 145.43 90.0076C145.884 90.2333 146.428 90.2785 146.927 90.2333C147.154 90.2333 147.426 90.1882 147.698 90.1882Z" stroke="#F28F8F" stroke-miterlimit="10" stroke-linecap="round" stroke-linejoin="round"/>
<path d="M129.011 97.3659C128.875 91.7679 132.55 86.2602 137.812 84.1835C138.175 84.0481 138.628 83.9126 138.9 84.2287C139.218 84.5447 138.991 85.0413 138.764 85.4476C137.993 86.6665 137.086 87.7951 135.952 89.1043C138.084 91.0456 138.81 94.3412 137.676 97.0048L129.011 97.3659Z" fill="#FFA8A7"/>
<path d="M129.011 97.3659C128.875 91.7679 132.55 86.2602 137.812 84.1835C138.175 84.0481 138.628 83.9126 138.9 84.2287C139.218 84.5447 138.991 85.0413 138.764 85.4476C137.993 86.6665 137.086 87.7951 135.952 89.1043C138.084 91.0456 138.81 94.3412 137.676 97.0048L129.011 97.3659Z" stroke="#F28F8F" stroke-miterlimit="10" stroke-linecap="round" stroke-linejoin="round"/>
<path d="M149.016 86.849C149.741 86.7587 150.513 86.6684 151.057 86.217C151.601 85.7655 151.874 84.8175 151.329 84.3209C151.057 84.0952 150.694 84.0049 150.377 83.9597C148.29 83.6437 146.067 84.0952 144.298 85.2238C144.026 85.4044 143.799 85.5849 143.618 85.8107C143.436 86.0815 143.345 86.3976 143.482 86.6684C143.618 86.9844 143.981 87.165 144.343 87.3005C145.795 87.7971 147.292 87.0296 149.016 86.849Z" fill="#FFA8A7"/>
<path d="M149.016 86.849C149.741 86.7587 150.513 86.6684 151.057 86.217C151.601 85.7655 151.874 84.8175 151.329 84.3209C151.057 84.0952 150.694 84.0049 150.377 83.9597C148.29 83.6437 146.067 84.0952 144.298 85.2238C144.026 85.4044 143.799 85.5849 143.618 85.8107C143.436 86.0815 143.345 86.3976 143.482 86.6684C143.618 86.9844 143.981 87.165 144.343 87.3005C145.795 87.7971 147.292 87.0296 149.016 86.849Z" stroke="#F28F8F" stroke-miterlimit="10" stroke-linecap="round" stroke-linejoin="round"/>
<path d="M65.8676 121.474C64.3707 121.654 62.8737 121.654 61.3768 121.384C60.8778 121.293 60.3335 121.158 60.152 120.706C60.1067 120.571 60.0613 120.39 60.1067 120.255C60.1067 120.255 59.7438 116.643 62.9645 115.379C66.2305 114.16 65.8676 121.474 65.8676 121.474Z" fill="#BF7628"/>
<path d="M93.3574 110.55C105.424 102.875 119.304 98.0443 133.548 96.4642C134.637 96.3288 135.725 96.2385 136.859 96.1934L141.622 123.1L93.3574 110.55Z" fill="#394FBF"/>
<path opacity="0.15" d="M138.538 112.174C127.56 106.079 113.952 104.544 105.061 104.273C101.024 106.079 97.0771 108.201 93.3574 110.594L141.622 123.099L139.717 112.264L138.538 112.174Z" fill="#0F1258"/>
<path d="M83.1406 110.25C91.9408 108.579 99.6977 107.406 108.634 107.631C117.616 107.857 126.688 109.753 134.354 114.358C143.154 119.595 149.641 127.992 154.54 136.931C163.023 152.325 167.423 169.932 166.516 187.674C161.48 188.396 156.4 189.118 151.319 188.983C150.185 176.613 146.692 164.469 140.932 153.454C138.21 148.262 134.898 143.161 129.909 140C123.059 135.621 114.395 135.666 106.275 136.434C98.2007 137.201 89.8995 138.601 82.0973 136.434C73.0703 133.951 65.631 126.592 63 117.654L83.1406 110.25Z" fill="#394FBF"/>
<path d="M77.7889 117.789C77.7889 117.789 79.4672 123.342 74.3867 126.908" stroke="#0F1258" stroke-miterlimit="10" stroke-linecap="round" stroke-linejoin="round"/>
<path opacity="0.15" d="M83.1397 110.25L63.0898 117.609C63.5435 119.189 64.1785 120.724 64.9043 122.214C67.8528 121.672 77.0613 119.46 84.047 112.372C84.047 112.372 96.0678 112.147 104.188 107C96.7029 107.135 90.7605 108.761 83.1397 110.25Z" fill="#0F1258"/>
<path opacity="0.15" d="M141.023 153.454C144.153 159.458 146.603 165.734 148.372 172.234C151.003 168.623 157.58 158.781 159.939 148.217C158.397 144.335 156.627 140.543 154.632 136.886C149.732 127.947 143.246 119.55 134.446 114.313C134.355 114.268 134.309 114.223 134.219 114.178C134.945 117.473 137.757 131.378 135.716 145.057C137.757 147.585 139.481 150.52 141.023 153.454Z" fill="#0F1258"/>
<path d="M83.1406 110.25C91.9408 108.579 99.6977 107.406 108.634 107.631C117.616 107.857 126.688 109.753 134.354 114.358C143.154 119.595 149.641 127.992 154.54 136.931C163.023 152.325 167.423 169.932 166.516 187.674" stroke="#0F1258" stroke-miterlimit="10" stroke-linecap="round" stroke-linejoin="round"/>
<path d="M134.228 166.031C133.32 169.282 132.277 172.532 131.098 175.692L135.135 181.787L141.894 180.433C143.617 175.918 144.978 171.268 145.976 166.573L134.228 166.031Z" fill="#FFA8A7"/>
<path d="M131.098 175.691C130.326 177.723 129.555 179.754 128.693 181.741L144.479 190.68C144.479 190.68 141.667 180.748 141.939 180.386L131.098 175.691Z" fill="#AF7318"/>
<path d="M136.812 96.1927C141.575 95.9218 146.384 96.3732 150.421 98.7659C154.821 101.384 157.724 106.034 159.13 110.955C160.491 115.876 160.491 121.068 160.174 126.169C159.312 140.345 156.136 154.34 151.101 168.019C145.522 169.508 139.352 168.786 134.227 166.032C139.171 148.561 140.396 130.052 137.674 112.084L136.812 96.1927Z" fill="#394FBF"/>
<path d="M134.227 166.033C139.171 148.561 140.396 130.052 137.674 112.084" stroke="#0F1258" stroke-miterlimit="10" stroke-linecap="round" stroke-linejoin="round"/>
<path d="M98.1647 67.2548L93.5378 52.3117C92.1316 51.9506 90.6346 51.7248 89.1377 51.6797L81.2901 55.6073L67.9538 52.7632C64.5516 53.3049 61.1949 54.253 58.0195 55.5622L57.2484 79.6697C55.8875 93.0778 57.1123 107.163 60.1062 120.3C60.1515 119.984 60.333 119.668 60.6052 119.488C61.0134 119.217 61.5124 119.127 61.966 119.036C69.5868 117.682 77.2983 115.425 83.1953 110.459C90.4986 110.82 97.5296 109.736 104.243 107.253C105.74 93.6647 103.608 79.76 98.1647 67.2548Z" fill="#FD8D3C"/>
<path opacity="0.15" d="M57.3852 75.832L57.2491 79.6694C56.5687 86.3057 56.5233 93.0775 57.0223 99.8493C57.7934 94.3867 59.8801 81.4752 63.01 76.4189C63.0554 76.4641 60.1976 76.1029 57.3852 75.832Z" fill="#0F1258"/>
<path d="M89.1824 51.6786C86.0525 51.5431 82.8318 51.9946 79.7472 52.5363C75.7553 52.0397 71.8089 52.13 67.9531 52.762C70.1305 57.2766 74.9842 60.0304 79.6565 59.4887C83.9658 58.9921 87.8216 55.7416 89.1824 51.6786Z" fill="#FFBC97"/>
<path d="M56.9311 128.924C58.5188 132.265 60.0611 135.605 60.9683 139.172C61.8755 142.738 62.1477 146.53 61.2405 150.097C61.1497 150.503 61.0137 150.91 60.6961 151.226C60.3786 151.542 59.8796 151.632 59.5621 151.361C59.2899 151.135 59.2445 150.774 59.1992 150.413C59.0631 149.194 58.9724 147.93 58.8363 146.711C58.8363 146.801 58.8363 146.937 58.7909 147.027C58.6095 148.833 58.0651 150.594 56.9311 152.038C56.6136 152.444 55.9785 152.851 55.6156 152.49C55.3888 152.309 55.3888 151.948 55.4342 151.677C55.4795 150.729 55.5249 149.781 55.5702 148.878C55.2073 149.916 54.663 150.91 53.9372 151.767C53.665 152.083 53.2568 152.399 52.8485 152.219C52.4856 152.038 52.4403 151.496 52.4856 151.09L52.8032 147.524C52.4856 148.291 52.1227 149.013 51.7145 149.736C51.5784 149.916 51.4877 150.097 51.3062 150.232C51.1248 150.368 50.8526 150.413 50.6712 150.277C50.3536 150.097 50.399 149.645 50.4444 149.329C50.7165 147.749 51.0341 146.214 51.3062 144.634C49.9454 141.61 49.265 138.359 49.3557 135.154L56.9311 128.924Z" fill="#FFA8A7"/>
<path opacity="0.15" d="M58.6542 132.581C58.1098 131.362 57.5655 130.143 56.9758 128.924L49.4004 135.064C49.4004 135.831 49.4004 136.553 49.4911 137.276C55.116 137.592 57.5655 134.883 58.6542 132.581Z" fill="#F28F8F"/>
<path d="M52.8027 147.478L52.9388 145.943" stroke="#F28F8F" stroke-miterlimit="10" stroke-linecap="round" stroke-linejoin="round"/>
<path d="M56.3868 141.791C56.3868 143.552 56.3868 145.267 56.0693 146.983C55.9332 147.615 55.7971 148.202 55.5703 148.834" stroke="#F28F8F" stroke-miterlimit="10" stroke-linecap="round" stroke-linejoin="round"/>
<path d="M58.6992 141.609C58.8353 143.28 58.9714 144.995 58.8353 146.711" stroke="#F28F8F" stroke-miterlimit="10" stroke-linecap="round" stroke-linejoin="round"/>
<path d="M56.9309 128.924C58.5186 132.265 60.0609 135.605 60.9681 139.172C61.8753 142.738 62.1475 146.53 61.2403 150.097C61.1496 150.503 61.0135 150.91 60.6959 151.226C60.3784 151.542 59.8794 151.632 59.5619 151.361C59.2897 151.135 59.2444 150.774 59.199 150.413C59.0629 149.194 58.9722 147.93 58.8361 146.711C58.8361 146.801 58.8361 146.937 58.7907 147.027C58.6093 148.833 58.065 150.594 56.9309 152.038C56.6134 152.444 55.9783 152.851 55.6154 152.49C55.3886 152.309 55.3886 151.948 55.434 151.677C55.4793 150.729 55.5247 149.781 55.5701 148.878C55.2072 149.916 54.6628 150.91 53.937 151.767C53.6649 152.083 53.2566 152.399 52.8484 152.219C52.4855 152.038 52.4401 151.496 52.4855 151.09L52.803 147.524C52.4855 148.291 52.1226 149.013 51.7143 149.736C51.5782 149.916 51.4875 150.097 51.3061 150.232C51.1246 150.368 50.8524 150.413 50.671 150.277C50.3535 150.097 50.3988 149.645 50.4442 149.329C50.7164 147.749 51.0339 146.214 51.3061 144.634" stroke="#F28F8F" stroke-miterlimit="10" stroke-linecap="round" stroke-linejoin="round"/>
<path d="M58.0189 55.5625C48.8558 59.3547 41.0083 66.0813 36.0638 74.5235C27.4451 89.1957 27.3997 108.157 34.6576 123.551C36.6989 127.885 39.5113 132.174 43.8207 134.296C48.1301 136.418 54.2539 135.469 56.522 131.226C57.9736 128.472 57.5199 125.086 56.3405 122.197C55.1611 119.308 53.3013 116.779 51.8951 113.98C48.6744 107.57 47.9486 99.8951 49.9899 93.033C52.0312 86.1258 56.7941 80.0763 63.0087 76.4647L58.0189 55.5625Z" fill="#FD8D3C"/>
<path d="M30.4851 89.1504C29.0335 96.1027 29.0335 103.326 30.3943 110.369C34.3862 108.518 37.1079 104.274 37.1532 99.8949C37.1079 95.5159 34.3408 91.2271 30.4851 89.1504Z" fill="#AD6028"/>
<path d="M73.9883 44.8172C74.1244 47.6162 74.2151 50.4152 74.3512 53.1691V53.3496C74.3512 53.3496 82.108 53.2593 82.2895 52.853L81.8359 43.8691L73.9883 44.8172Z" fill="#FFBC97"/>
<path opacity="0.15" d="M82.108 48.7897L81.8812 43.9141L73.9883 44.817C74.0336 46.2165 74.1244 47.6611 74.1697 49.0606C76.8007 49.6475 79.5678 49.5121 82.108 48.7897Z" fill="#FFBC97"/>
<path d="M1.22656 203.773H200.773" stroke="#8E8E8E" stroke-miterlimit="10" stroke-linecap="round" stroke-linejoin="round"/>
<path d="M118.669 43.0574C117.762 42.4705 116.447 42.7414 115.812 43.554C115.177 44.4117 115.358 45.7209 116.174 46.3981C116.991 47.0753 118.352 46.8947 119.032 46.0821C119.713 45.2695 119.713 43.7346 118.669 43.0574Z" fill="white"/>
<path d="M50.0365 187.432C49.1293 186.845 47.8138 187.116 47.1788 187.929C46.5437 188.787 46.7251 190.096 47.5417 190.773C48.3582 191.45 49.719 191.27 50.3994 190.457C51.0345 189.644 51.0345 188.11 50.0365 187.432Z" fill="white"/>
<path d="M61.7305 11.9053C61.7305 11.9053 58.9909 12.2546 57.561 15.8893C56.7642 17.6357 56.3822 20.8883 59.4602 29.5767C60.6281 33.0259 62.3963 36.2786 64.4483 39.2038C65.136 40.2298 66.1074 40.9284 67.1989 41.1576L66.5549 34.292L65.911 29.5767C65.911 29.5767 69.4802 25.7892 69.5348 22.2527C69.6658 19.786 69.0327 17.3737 67.8102 15.3108L61.7305 11.9053Z" fill="#37474F"/>
<path d="M60.671 12.1339C61.0093 8.26994 65.7137 3.17264 75.1552 2.03749C82.9158 1.02241 87.6966 3.44555 90.6109 7.69151C93.6889 12.0794 92.27 18.0171 92.27 18.0171L67.7111 18.2354L60.671 12.1339Z" fill="#37474F"/>
<path d="M60.2681 36.584C62.2571 37.1816 65.3873 35.1432 65.3873 35.1432L67.0136 49.3109C74.545 57.9884 92.6421 53.3168 84.6632 46.9751L84.434 43.7661C85.5037 43.6897 86.5624 43.4605 87.6212 43.2313C90.7975 42.5436 92.5985 39.804 93.2752 36.3766C94.4431 29.0745 93.9083 21.5868 91.7144 14.5247C91.2887 12.8656 90.3937 11.0865 88.8219 10.5844C84.8707 9.02355 81.5416 11.8724 76.4988 14.3828C74.425 15.4525 69.0984 16.1401 67.6795 15.6271C69.6551 17.4827 70.1135 23.9007 67.5594 26.8478C67.2974 27.4808 66.8827 28.1248 66.3151 28.7797C65.169 29.9367 63.5701 27.3863 63.1632 26.9481C62.7563 26.5099 62.0535 25.858 61.3378 25.7562C60.627 25.6552 60.1933 25.6861 59.5041 25.8872C58.8101 26.0897 58.4001 26.2716 57.8778 26.7713C57.3501 27.2762 57.1909 27.6988 56.9172 28.3758C56.5474 29.2906 56.4767 29.8778 56.4806 30.8645C56.4847 31.8886 56.6007 32.5454 56.9718 33.4404C57.332 34.1826 57.6317 34.8453 58.3471 35.4925C58.987 36.0713 59.4418 36.3356 60.2681 36.584Z" fill="#FFA8A7"/>
<path d="M84.2787 43.778C80.7749 44.1818 77.2166 43.8216 73.9312 42.9812C71.4098 42.0861 69.0413 39.0299 68.0371 35.7227C68.2227 38.3204 69.7835 42.9702 73.5928 44.6948C77.4022 46.4194 81.8446 46.2557 84.4424 46.0701L84.2787 43.778Z" fill="#F28F8F"/>
<path d="M68.903 24.2602C68.128 26.3122 69.3024 31.946 71.1907 32.5791C73.079 33.2122 74.8255 31.8587 78.9295 31.2584C81.9639 30.7345 85.1947 30.8109 88.1527 31.3676C90.0192 31.695 93.8349 31.8719 93.8567 30.0273C94.0314 34.6225 93.1081 40.5362 89.8664 42.4573C86.6246 44.3783 78.0999 45.448 73.341 43.3304C68.7458 41.3548 67.7852 38.6588 66.6173 35.2096C65.8205 32.6555 64.796 29.5858 63.7045 27.2064L68.903 24.2602Z" fill="#37474F"/>
<path d="M80.916 20.3633L82.848 30.2086L87.9016 27.851C86.1443 24.7511 83.8194 22.3062 80.916 20.3633Z" fill="#F28F8F"/>
<path d="M79.6629 32.8932L83.7342 33.9847C83.6032 34.3013 83.549 34.5097 83.3303 34.7815C83.1428 35.0146 83.1002 35.1119 82.8513 35.2779C82.5833 35.4567 82.3279 35.5942 82.0096 35.6438C81.7082 35.6908 81.5267 35.6338 81.2346 35.5456C80.6258 35.3617 80.2741 34.9998 79.9358 34.5632C79.5974 34.1266 79.5428 33.3626 79.6629 32.8932Z" fill="#B16668"/>
<path d="M80.1661 33.4723C79.9868 33.4649 79.8605 33.4941 79.7077 33.505C79.7295 33.8106 79.9151 34.2581 79.9151 34.2581C79.9151 34.2581 80.1644 34.761 80.4281 34.9895C80.6917 35.2179 80.8902 35.2949 81.2249 35.3933C81.5175 35.4794 81.847 35.5025 81.9998 35.4916C81.9671 35.0331 81.9461 34.5643 81.596 34.1381C81.205 33.6621 80.7816 33.4975 80.1661 33.4723Z" fill="#F28F8F"/>
<path d="M76.4749 19.9435L73.3016 21.3881C72.9152 20.6296 72.7044 19.4817 74.0746 18.9695C75.4448 18.4572 76.1726 19.2397 76.4749 19.9435Z" fill="#37474F"/>
<path d="M89.7364 17.6332L86.2695 18.0041C86.1419 17.1625 86.3036 16.0066 87.7654 15.9523C89.2272 15.898 89.6714 16.8699 89.7364 17.6332Z" fill="#37474F"/>
<ellipse cx="76.6717" cy="24.4102" rx="1.4725" ry="1.45117" fill="#37474F"/>
<ellipse cx="88.7206" cy="22.1348" rx="1.4725" ry="1.45117" fill="#37474F"/>
<path d="M195.511 113.62C194.604 113.033 193.288 113.304 192.653 114.116C192.018 114.974 192.2 116.283 193.016 116.961C193.833 117.638 195.194 117.457 195.874 116.645C196.554 115.832 196.554 114.252 195.511 113.62Z" fill="white"/>
<path d="M67.5875 88.322L65.1162 88.7459L64.8252 89.9733L63.8791 90.1356L65.2555 84.8116L66.1592 84.6565L69.2382 89.2164L68.2779 89.3811L67.5875 88.322ZM67.1603 87.6539L65.8577 85.6532L65.3033 87.9724L67.1603 87.6539Z" fill="white"/>
<path d="M71.4859 88.8817C71.0952 88.9488 70.7304 88.9265 70.3915 88.8151C70.0525 88.7036 69.771 88.5169 69.5467 88.2549C69.3217 87.9882 69.1773 87.669 69.1135 87.2971C69.0497 86.9252 69.0799 86.5784 69.204 86.2567C69.3281 85.935 69.529 85.6655 69.8067 85.4483C70.0892 85.2303 70.4281 85.0873 70.8235 85.0195C71.1953 84.9557 71.533 84.9753 71.8366 85.0783C72.1449 85.1805 72.3938 85.3607 72.5835 85.6189L71.9735 86.1306C71.8353 85.975 71.6766 85.869 71.4973 85.8125C71.322 85.7505 71.1378 85.7361 70.9448 85.7692C70.6153 85.8257 70.3608 85.9808 70.1814 86.2344C70.0012 86.4834 69.9418 86.7868 70.0032 87.1445C70.0645 87.5022 70.2197 87.7712 70.4687 87.9514C70.7215 88.1261 71.015 88.1848 71.3493 88.1275C71.5423 88.0944 71.7115 88.0217 71.857 87.9095C72.0064 87.7918 72.1203 87.6366 72.1987 87.4439L72.9444 87.723C72.8469 88.0305 72.6703 88.2861 72.4145 88.4899C72.1626 88.6882 71.8531 88.8188 71.4859 88.8817Z" fill="white"/>
<path d="M74.6367 84.3655C75.1921 84.2702 75.6388 84.3317 75.9766 84.55C76.3184 84.7627 76.5353 85.1374 76.6273 85.674L77.0064 87.884L76.1732 88.0269L76.0945 87.568C76.0145 87.7513 75.8809 87.905 75.6939 88.0292C75.5107 88.1478 75.2779 88.2314 74.9955 88.2798C74.713 88.3282 74.4578 88.3236 74.2299 88.2657C74.0011 88.2032 73.8133 88.0973 73.6666 87.948C73.5238 87.7933 73.4338 87.6076 73.3966 87.3911C73.3385 87.0522 73.4168 86.7601 73.6316 86.5149C73.8502 86.2642 74.2302 86.0924 74.7716 85.9996L75.7459 85.8324L75.7363 85.776C75.691 85.5124 75.5763 85.3237 75.392 85.2099C75.2125 85.0953 74.9674 85.0647 74.6567 85.118C74.4449 85.1543 74.2411 85.2232 74.0452 85.3246C73.8541 85.4252 73.6981 85.5465 73.577 85.6884L73.1209 85.1052C73.2927 84.9207 73.5107 84.7646 73.7746 84.6369C74.0386 84.5092 74.326 84.4188 74.6367 84.3655ZM75.0689 87.6058C75.2901 87.5678 75.477 87.4849 75.6295 87.357C75.7859 87.2236 75.8832 87.0566 75.9215 86.8562L75.8465 86.4185L74.9356 86.5747C74.4272 86.6619 74.2017 86.8726 74.259 87.2068C74.2865 87.3669 74.3718 87.483 74.5151 87.5554C74.6583 87.6277 74.8429 87.6445 75.0689 87.6058Z" fill="white"/>
<path d="M80.9677 81.8114L81.8663 87.0505L81.019 87.1958L80.9355 86.7086C80.8202 86.9125 80.662 87.0777 80.4608 87.2043C80.2643 87.3301 80.0367 87.4152 79.7778 87.4596C79.4153 87.5217 79.0744 87.4978 78.7551 87.3878C78.4406 87.277 78.1759 87.0898 77.961 86.8263C77.7454 86.558 77.6049 86.2332 77.5395 85.8519C77.4741 85.4706 77.4988 85.1199 77.6135 84.7998C77.7282 84.4797 77.9154 84.215 78.1751 84.0057C78.4394 83.7956 78.7529 83.6595 79.1153 83.5973C79.3648 83.5545 79.6004 83.5577 79.822 83.6069C80.0437 83.6562 80.242 83.753 80.417 83.8974L80.0851 81.9628L80.9677 81.8114ZM79.7541 86.6859C79.9659 86.6496 80.1485 86.5698 80.3018 86.4466C80.4543 86.3187 80.5646 86.1568 80.6328 85.961C80.701 85.7651 80.7149 85.5495 80.6745 85.3142C80.6341 85.0788 80.5492 84.8802 80.4197 84.7183C80.2901 84.5564 80.1326 84.4429 79.947 84.3778C79.7605 84.308 79.5614 84.2913 79.3496 84.3276C79.1378 84.3639 78.9556 84.4461 78.8031 84.574C78.6498 84.6972 78.5391 84.8567 78.4709 85.0525C78.4027 85.2483 78.3888 85.4639 78.4292 85.6993C78.4696 85.9347 78.5545 86.1333 78.684 86.2952C78.8136 86.4571 78.9715 86.573 79.1579 86.6428C79.3436 86.7078 79.5423 86.7222 79.7541 86.6859Z" fill="white"/>
<path d="M86.2457 84.3804C86.2562 84.4416 86.2664 84.5295 86.2764 84.6441L83.3179 85.1515C83.4174 85.4204 83.5895 85.6186 83.8342 85.7462C84.0829 85.8683 84.3697 85.9015 84.6945 85.8458C85.1087 85.7748 85.4266 85.5797 85.648 85.2607L86.2144 85.7232C86.0796 85.9547 85.8917 86.1444 85.6505 86.2924C85.4094 86.4403 85.1264 86.5422 84.8017 86.5979C84.3874 86.6689 84.0085 86.6491 83.6648 86.5385C83.3212 86.4278 83.0373 86.2415 82.8131 85.9795C82.5927 85.712 82.4507 85.3924 82.3869 85.0205C82.3239 84.6533 82.3498 84.3097 82.4645 83.9896C82.5831 83.664 82.7765 83.3934 83.0448 83.1777C83.3131 82.9621 83.6332 82.8224 84.0051 82.7587C84.3722 82.6957 84.7135 82.7219 85.0289 82.8374C85.3482 82.9474 85.6133 83.137 85.8242 83.4061C86.039 83.6697 86.1795 83.9945 86.2457 84.3804ZM84.1262 83.4647C83.8437 83.5132 83.6182 83.6391 83.4496 83.8424C83.2848 84.0403 83.2051 84.2817 83.2104 84.5667L85.3498 84.1998C85.2653 83.9332 85.112 83.7317 84.89 83.5954C84.6679 83.459 84.4133 83.4155 84.1262 83.4647Z" fill="white"/>
<path d="M91.5182 81.47C91.9936 81.3885 92.394 81.4628 92.7194 81.6928C93.0439 81.9182 93.2534 82.3063 93.3479 82.857L93.7185 85.0176L92.8359 85.169L92.4847 83.1214C92.4282 82.7919 92.3128 82.5573 92.1386 82.4175C91.9636 82.2731 91.7396 82.2243 91.4666 82.2711C91.1701 82.322 90.9493 82.4616 90.8044 82.69C90.6586 82.9137 90.6168 83.2067 90.6789 83.5692L91.0071 85.4827L90.1245 85.634L89.7733 83.5864C89.7168 83.2569 89.6015 83.0223 89.4273 82.8826C89.2523 82.7381 89.0283 82.6893 88.7553 82.7362C88.454 82.7878 88.2305 82.9255 88.0848 83.1492C87.9437 83.3721 87.9046 83.6671 87.9676 84.0342L88.2958 85.9477L87.4132 86.0991L86.7665 82.3286L87.6067 82.1845L87.6891 82.6646C87.8012 82.471 87.9556 82.3112 88.152 82.1855C88.3485 82.0597 88.5762 81.9746 88.8351 81.9302C89.1175 81.8818 89.3763 81.8931 89.6114 81.9642C89.8504 82.0299 90.0512 82.1553 90.2138 82.3406C90.3353 82.1163 90.5091 81.929 90.7353 81.7788C90.9607 81.6238 91.2216 81.5209 91.5182 81.47Z" fill="white"/>
<path d="M97.661 80.46L96.5946 84.8369C96.5001 85.2746 96.3493 85.5961 96.1422 85.8012C95.9359 86.011 95.6657 86.1446 95.3314 86.2019C95.1432 86.2342 94.952 86.2355 94.7579 86.2058C94.5638 86.1761 94.3987 86.1172 94.2624 86.0291L94.504 85.319C94.6025 85.3845 94.7122 85.4311 94.8333 85.4588C94.959 85.4857 95.0808 85.489 95.1984 85.4688C95.3538 85.4422 95.474 85.3804 95.5591 85.2834C95.649 85.1856 95.7201 85.0353 95.7725 84.8325L95.8107 84.6733L93.5164 81.1709L94.4343 81.0135L96.0988 83.599L96.8138 80.6054L97.661 80.46Z" fill="white"/>
<path d="M74.0102 99.3733C73.6289 99.4387 73.2501 99.4479 72.8738 99.401C72.5022 99.3533 72.1975 99.2578 71.9597 99.1144L72.1551 98.3468C72.385 98.4721 72.6547 98.5615 72.9643 98.615C73.2778 98.663 73.5829 98.6616 73.8794 98.6107C74.2466 98.5478 74.5095 98.4421 74.6682 98.2937C74.8316 98.1446 74.8967 97.9735 74.8636 97.7805C74.8394 97.6393 74.7678 97.5328 74.6489 97.4612C74.5339 97.384 74.3943 97.3328 74.2301 97.3077C74.0659 97.2825 73.844 97.26 73.5644 97.2401C73.1725 97.2153 72.8512 97.1783 72.6005 97.1293C72.3545 97.0794 72.1306 96.9748 71.9288 96.8156C71.731 96.6509 71.6042 96.4061 71.5485 96.0813C71.5017 95.8083 71.5323 95.5487 71.6402 95.3024C71.7521 95.0506 71.945 94.8334 72.219 94.6507C72.4976 94.4673 72.8535 94.3384 73.2865 94.2641C73.5878 94.2124 73.8908 94.1992 74.1956 94.2245C74.5003 94.2498 74.7707 94.3148 75.0068 94.4197L74.8396 95.1825C74.6013 95.0925 74.3588 95.0348 74.1121 95.0093C73.8654 94.9837 73.6315 94.9899 73.4103 95.0279C73.0478 95.0901 72.7876 95.1977 72.6298 95.3507C72.4766 95.503 72.4174 95.6803 72.4521 95.8827C72.4763 96.024 72.5455 96.1308 72.6597 96.2033C72.7786 96.275 72.9201 96.3234 73.0844 96.3485C73.2486 96.3736 73.4705 96.3961 73.7501 96.416C74.1318 96.4378 74.4484 96.4755 74.6999 96.5293C74.9506 96.5784 75.1745 96.6829 75.3715 96.843C75.5733 97.0022 75.7016 97.2418 75.7565 97.5619C75.8033 97.8349 75.7704 98.095 75.6577 98.3421C75.5497 98.5883 75.3564 98.8032 75.0778 98.9867C74.7991 99.1701 74.4433 99.299 74.0102 99.3733Z" fill="white"/>
<path d="M80.9267 94.1893C81.4021 94.1078 81.8025 94.1821 82.1279 94.4122C82.4524 94.6375 82.6619 95.0256 82.7564 95.5763L83.127 97.7369L82.2444 97.8883L81.8932 95.8407C81.8367 95.5112 81.7213 95.2766 81.5471 95.1369C81.3722 94.9924 81.1482 94.9436 80.8751 94.9904C80.5786 95.0413 80.3578 95.1809 80.2129 95.4093C80.0671 95.633 80.0253 95.9261 80.0875 96.2885L80.4157 98.202L79.5331 98.3533L79.1819 96.3057C79.1253 95.9762 79.01 95.7416 78.8358 95.6019C78.6608 95.4575 78.4368 95.4087 78.1638 95.4555C77.8626 95.5072 77.639 95.6448 77.4933 95.8685C77.3522 96.0914 77.3132 96.3864 77.3761 96.7535L77.7043 98.667L76.8217 98.8184L76.175 95.0479L77.0153 94.9038L77.0976 95.384C77.2098 95.1903 77.3641 95.0306 77.5606 94.9048C77.757 94.779 77.9847 94.6939 78.2436 94.6495C78.5261 94.6011 78.7848 94.6124 79.0199 94.6836C79.2589 94.7492 79.4597 94.8746 79.6223 95.06C79.7438 94.8356 79.9176 94.6483 80.1438 94.4981C80.3692 94.3431 80.6302 94.2402 80.9267 94.1893Z" fill="white"/>
<path d="M85.0413 93.4836C85.5967 93.3884 86.0434 93.4499 86.3812 93.6681C86.723 93.8808 86.9399 94.2555 87.0319 94.7921L87.411 97.0022L86.5778 97.1451L86.4991 96.6861C86.4191 96.8694 86.2856 97.0232 86.0985 97.1473C85.9153 97.266 85.6825 97.3495 85.4001 97.3979C85.1177 97.4464 84.8625 97.4417 84.6345 97.3839C84.4057 97.3214 84.2179 97.2155 84.0712 97.0662C83.9284 96.9114 83.8384 96.7257 83.8012 96.5092C83.7431 96.1703 83.8214 95.8782 84.0362 95.633C84.2548 95.3823 84.6348 95.2105 85.1762 95.1177L86.1505 94.9506L86.1409 94.8941C86.0956 94.6305 85.9809 94.4418 85.7966 94.328C85.6171 94.2135 85.372 94.1828 85.0613 94.2361C84.8495 94.2724 84.6457 94.3413 84.4498 94.4427C84.2587 94.5434 84.1027 94.6646 83.9816 94.8065L83.5255 94.2233C83.6973 94.0388 83.9153 93.8827 84.1793 93.755C84.4433 93.6274 84.7306 93.5369 85.0413 93.4836ZM85.4735 96.7239C85.6947 96.686 85.8816 96.603 86.0341 96.4751C86.1905 96.3417 86.2878 96.1748 86.3261 95.9744L86.2511 95.5366L85.3402 95.6928C84.8318 95.78 84.6063 95.9907 84.6636 96.3249C84.6911 96.485 84.7764 96.6012 84.9197 96.6735C85.0629 96.7459 85.2475 96.7627 85.4735 96.7239Z" fill="white"/>
<path d="M88.8317 93.4441C89.0181 93.0051 89.4313 92.7307 90.0715 92.6209L90.2156 93.4611C90.1379 93.4599 90.0684 93.4645 90.0072 93.475C89.6636 93.534 89.4126 93.6812 89.2544 93.9167C89.0953 94.1475 89.048 94.4512 89.1126 94.8278L89.4263 96.6565L88.5437 96.8079L87.897 93.0374L88.7372 92.8933L88.8317 93.4441Z" fill="white"/>
<path d="M93.8435 95.6881C93.7544 95.7906 93.6382 95.8759 93.4949 95.9441C93.3562 96.0115 93.2045 96.0593 93.0398 96.0876C92.6255 96.1587 92.2869 96.1053 92.0238 95.9275C91.7607 95.7497 91.5936 95.4537 91.5226 95.0395L91.2114 93.2249L90.59 93.3315L90.4689 92.6254L91.0903 92.5188L90.9425 91.6574L91.8251 91.506L91.9729 92.3674L92.9825 92.1943L93.1036 92.9003L92.094 93.0735L92.4016 94.8669C92.433 95.0505 92.502 95.1841 92.6084 95.2676C92.714 95.3464 92.8515 95.3712 93.0209 95.3422C93.2186 95.3083 93.3745 95.2282 93.4886 95.1021L93.8435 95.6881Z" fill="white"/>
<path style="mix-blend-mode:multiply" d="M76.075 60.9187C78.2922 59.4923 80.7934 58.5769 82.775 56.7877C83.9476 55.7417 84.9934 54.564 85.8915 53.2784C86.7177 52.0569 87.2017 50.7168 87.7719 49.3747C88.115 48.588 88.7445 46.702 89.9519 47.2647C90.5569 47.5531 90.8169 48.3757 90.9307 49.1818C91.093 48.7047 91.2106 48.2136 91.2822 47.715C90.1733 46.454 88.6343 45.6427 86.9604 45.4369C84.2776 45.0569 81.5207 45.3677 78.903 45.9242C77.8874 46.1352 76.9785 46.5808 76.0968 47.0842C75.8026 47.015 75.4941 47.0375 75.2136 47.1488C74.5983 51.6649 74.0274 56.8164 76.075 60.9187Z" fill="url(#paint0_radial_907_67425)"/>
<path style="mix-blend-mode:screen" opacity="0.6" d="M73.9608 54.8426C74.0078 52.7883 74.8752 50.3425 74.4993 48.3741C74.4742 48.1981 74.2389 48.2427 74.1778 48.3756C72.1006 53.2652 71.7287 58.1116 73.9976 63.1294C74.1361 63.4307 74.6298 63.1779 74.592 62.8912C74.2426 60.1657 73.8876 57.6053 73.9608 54.8426Z" fill="url(#paint1_radial_907_67425)"/>
<path style="mix-blend-mode:screen" opacity="0.6" d="M89.7861 48.8557C89.7872 48.4745 89.2736 48.6666 89.1701 48.8711C87.9758 51.2161 86.6064 53.4691 85.0732 55.6114C82.7901 58.7669 80.3579 60.6138 77.0227 62.6247C76.7859 62.7806 76.744 63.2806 77.133 63.1555C80.559 61.9994 83.7088 60.0248 85.9393 57.1665C87.6504 54.9874 89.7807 51.7175 89.7861 48.8557Z" fill="url(#paint2_radial_907_67425)"/>
<path d="M66.9692 44.397C66.9692 44.397 64.9534 44.4565 64.4127 51.5028C63.872 58.5491 68.5238 61.5159 74.5835 62.8915C80.6431 64.2671 93.3352 61.5447 97.1983 50.7315C97.1983 50.7315 98.0931 46.5555 95.2878 45.2312C95.2878 45.2312 96.529 40.73 92.8765 40.2826C89.224 39.8352 85.8812 46.226 66.9692 44.397Z" fill="url(#paint3_linear_907_67425)"/>
<path opacity="0.5" d="M65.7865 47.7146C65.7865 47.7146 67.3043 54.1442 78.3152 52.6613C89.3261 51.1784 94.652 45.1086 94.652 45.1086C94.652 45.1086 73.7746 58.6834 65.7865 47.7146Z" fill="#1F5895"/>
<path opacity="0.5" d="M65.6465 56.177C65.6465 56.177 77.0649 60.2097 87.8948 50.0756C87.8948 50.0756 80.5024 61.3074 65.6465 56.177Z" fill="#1F5895"/>
<path style="mix-blend-mode:multiply" opacity="0.6" d="M95.2927 45.2311C95.2927 45.2311 96.5304 40.7297 92.8773 40.2909C90.8553 40.0435 88.9237 41.8905 84.4053 43.2744C86.1058 42.9731 87.7579 42.5933 89.3148 42.173C89.6538 42.0806 90.0499 42.2294 89.981 42.6472C89.1852 47.3183 82.0989 50.0739 77.9049 50.2517C73.9788 50.417 67.8302 49.6527 65.5946 45.8702C65.239 46.6709 64.9811 47.5109 64.8265 48.3724C64.8817 48.3883 64.9326 48.4165 64.9753 48.4548C65.018 48.493 65.0514 48.5404 65.073 48.5933C65.4325 49.388 65.8803 50.1406 66.4079 50.8372C70.1695 53.2952 75.177 54.1217 79.4876 53.1571C80.2026 52.9961 80.0031 53.9697 79.6314 54.2128C78.4042 55.0128 77.0532 55.609 75.6318 55.9777C77.4285 56.0947 79.164 55.864 80.9083 55.5643C83.9953 54.2482 86.7159 52.0299 89.9828 50.933C90.2694 50.8366 90.5958 50.933 90.6478 51.2626C91.4161 56.3114 83.4146 60.1441 79.4744 60.815C76.1321 61.3838 72.0482 61.4534 68.4554 60.4343C70.1505 61.5777 72.253 62.3553 74.5905 62.8864C80.6484 64.2618 93.3422 61.5396 97.2054 50.7264C97.1997 50.7312 98.0946 46.5552 95.2927 45.2311Z" fill="url(#paint4_linear_907_67425)"/>
<path style="mix-blend-mode:multiply" d="M67.2238 50.7461C67.0726 48.5808 67.5676 46.4202 68.6472 44.5336C68.1024 44.4918 67.5454 44.4491 66.974 44.3878C66.974 44.3878 64.9576 44.4559 64.4168 51.504C64.2526 53.6433 64.5726 55.402 65.26 56.858C66.0274 54.8468 67.3367 52.7083 67.2238 50.7461Z" fill="url(#paint5_linear_907_67425)"/>
<path style="mix-blend-mode:multiply" d="M89.8858 59.7238C90.7057 54.7603 88.9277 51.1278 85.7828 46.8124C84.9879 45.7727 84.3222 44.6419 83.8 43.4446C83.1662 43.624 82.4892 43.7932 81.7485 43.947C81.7477 47.6432 83.4156 50.6735 84.1457 54.5042C84.6282 57.0662 84.6674 59.6903 84.2616 62.2642C86.2467 61.6809 88.1396 60.8258 89.8858 59.7238Z" fill="url(#paint6_linear_907_67425)"/>
<path style="mix-blend-mode:multiply" d="M92.6447 42.7112C92.6488 43.7109 91.9795 46.6646 92.7683 47.2353C93.5571 47.8059 94.5094 48.2133 95.3602 48.7312C96.1684 49.2302 96.7937 49.9735 97.1437 50.8511C97.161 50.8089 97.178 50.7702 97.1933 50.7313C97.1933 50.7313 98.0881 46.5553 95.2828 45.231C95.2828 45.231 96.524 40.7299 92.8715 40.2824C92.4474 40.2392 92.0191 40.2736 91.6078 40.384C92.2002 41.1102 92.6432 41.8841 92.6447 42.7112Z" fill="url(#paint7_linear_907_67425)"/>
<path style="mix-blend-mode:multiply" d="M95.9405 53.451C95.7706 51.9564 95.0887 50.5652 93.6214 49.8415C92.5622 49.3162 91.6986 48.9191 90.9813 47.9657C90.449 47.258 90.5684 46.2278 90.7346 45.4362C91.1664 43.3801 90.5782 42.2328 89.6369 41.1316C88.314 41.7807 86.9585 42.3624 85.5757 42.8744C86.9936 46.1415 90.1955 49.051 91.3047 52.4041C91.9456 54.3528 92.0079 56.3789 91.7523 58.3824C93.4453 57.0109 94.8656 55.3386 95.9405 53.451Z" fill="url(#paint8_linear_907_67425)"/>
<path style="mix-blend-mode:multiply" d="M80.7437 49.9638C80.1804 48.1158 79.9282 46.1888 79.9975 44.2603C77.4205 44.6527 74.2689 44.8427 70.3308 44.638C69.3575 46.2208 68.8798 47.9826 68.9011 50.131C68.9105 51.0388 68.9995 52.0537 68.6209 52.9126C67.7153 54.9863 66.7809 56.8629 66.5583 58.8254C68.4126 60.9142 71.2864 62.148 74.5841 62.892C76.6555 63.3661 79.5196 63.3525 82.5346 62.6994C83.1446 58.1151 82.0736 54.5839 80.7437 49.9638Z" fill="url(#paint9_linear_907_67425)"/>
<path d="M73.6641 43.7928C73.6641 43.7928 69.5863 42.3186 68.0018 47.6778C66.4172 53.0371 66.5823 81.4672 62.1157 89.431C62.1157 89.431 62.1255 91.5924 66.1841 93.2253C70.2427 94.8582 76.4129 95.3421 77.4995 92.1001C78.5861 88.8581 81.5792 65.1657 80.2852 58.0865C78.9911 51.0073 80.1834 44.1224 81.213 43.707C82.2425 43.2915 78.2117 41.3195 73.6641 43.7928Z" fill="url(#paint10_linear_907_67425)"/>
<path style="mix-blend-mode:multiply" d="M78.3248 70.8263C75.5732 70.2895 73.1779 70.6716 70.5285 71.4589C68.8081 71.9729 67.2548 72.3237 65.7341 72.1357C65.5821 73.6596 65.4188 75.1688 65.2299 76.6237C66.5176 76.9419 67.8599 77.1198 69.1141 77.5538C72.385 78.6927 74.2351 77.4732 77.024 76.6077C77.924 76.3394 78.8718 76.2654 79.8036 76.391C79.9736 74.6786 80.1268 72.9337 80.2497 71.2404C79.6292 71.1092 79.0013 70.96 78.3248 70.8263Z" fill="url(#paint11_linear_907_67425)"/>
<path style="mix-blend-mode:multiply" d="M74.3956 64.5135C76.524 64.6333 78.5014 65.5076 80.538 65.9094C80.5614 65.2148 80.5814 64.5199 80.5875 63.8674C77.6699 63.1822 74.6952 61.9598 72.0644 63.2134C69.8188 64.2773 68.4674 65.1555 66.3518 64.7999C66.3234 65.1703 66.2946 65.5459 66.2663 65.9146C69.3753 67.0585 71.3859 64.3418 74.3956 64.5135Z" fill="url(#paint12_linear_907_67425)"/>
<path style="mix-blend-mode:multiply" d="M75.2747 67.0456C72.1997 66.8096 69.5745 68.243 66.5802 68.5564C66.4891 68.5723 66.3956 68.568 66.3063 68.5436C66.217 68.5193 66.1343 68.4757 66.0641 68.4159C66.0148 69.0586 65.9597 69.7003 65.8988 70.341C68.7762 70.9326 71.5005 69.0089 74.5717 68.905C76.5369 68.8399 78.4473 69.3295 80.3568 69.6467C80.3978 68.9987 80.432 68.3693 80.461 67.7395C78.7357 67.5392 77.0384 67.1809 75.2747 67.0456Z" fill="url(#paint13_linear_907_67425)"/>
<path style="mix-blend-mode:multiply" d="M77.0002 45.1363C74.1344 45.3777 71.4217 45.4568 68.7041 46.5141C68.6092 46.5509 68.5091 46.5731 68.4074 46.5801C68.2479 46.9372 68.1118 47.3042 67.9999 47.6788C67.8124 48.3897 67.6742 49.1127 67.5862 49.8425C69.4647 49.1683 71.4196 49.3984 73.7991 48.7175C75.7652 48.1139 77.8618 48.0591 79.8588 48.5591C79.9544 47.3109 80.181 46.0761 80.5349 44.8747C79.3787 44.927 78.2146 45.0362 77.0002 45.1363Z" fill="url(#paint14_linear_907_67425)"/>
<path style="mix-blend-mode:multiply" d="M74.9116 51.2044C76.5739 51.1265 78.1303 51.7422 79.7205 52.0557C79.7168 51.3938 79.7239 50.7519 79.7513 50.1429C79.2411 49.9683 78.7144 49.8456 78.1793 49.7768C76.2404 49.5671 74.7037 50.0916 72.8699 50.5498C70.8109 51.0586 69.0785 50.6541 67.3827 51.5338C67.3325 52.0052 67.283 52.5133 67.2357 53.0372C69.7989 52.3895 72.2449 51.3236 74.9116 51.2044Z" fill="url(#paint15_linear_907_67425)"/>
<path style="mix-blend-mode:multiply" d="M76.2092 53.0819C73.0579 52.5354 70.3005 53.8821 67.3085 54.624C67.2393 54.6369 67.1688 54.642 67.0983 54.6392C67.0617 55.1169 67.0241 55.6068 66.9849 56.1174C67.1625 56.0523 67.3482 56.0115 67.537 55.9961C69.6704 55.8447 71.3761 54.8125 73.4245 54.5327C75.6166 54.2343 77.7378 54.4946 79.8554 54.8695C79.8226 54.5188 79.802 54.169 79.7814 53.8192C78.5968 53.6464 77.4399 53.2948 76.2092 53.0819Z" fill="url(#paint16_linear_907_67425)"/>
<path style="mix-blend-mode:multiply" d="M80.0595 56.7524C77.0114 56.2574 74.1333 55.9495 70.767 57.084C69.4943 57.5087 68.1534 58.0221 66.8101 58.4292C66.706 59.8993 66.5983 61.4406 66.4826 63.0404C69.4375 63.7651 72.2544 61.0702 75.3313 61.0539C77.1797 61.046 78.861 61.6817 80.5873 62.1432C80.5886 60.7883 80.4846 59.4351 80.2761 58.0957C80.1946 57.6473 80.1224 57.1995 80.0595 56.7524Z" fill="url(#paint17_linear_907_67425)"/>
<path style="mix-blend-mode:multiply" d="M71.5451 81.7077C74.4877 81.0142 79.4247 79.8522 79.3381 80.5907C79.4232 79.8713 79.508 79.1552 79.5883 78.4058C77.6875 78.3417 75.9786 78.7747 73.755 79.3684C72.8423 79.6118 71.714 80.0092 70.7504 79.8169C68.8832 79.4525 66.8715 79.0474 64.9741 78.4805C64.877 79.1503 64.773 79.7969 64.6659 80.4364C66.2138 81.0026 67.7406 82.1418 69.4526 82.1495C69.6316 82.1511 70.4506 81.9615 71.5451 81.7077Z" fill="url(#paint18_linear_907_67425)"/>
<path style="mix-blend-mode:multiply" d="M69.9417 83.8285C68.065 84.1598 66.1788 82.9199 64.3511 82.1999C64.2875 82.5258 64.2276 82.8712 64.1611 83.1882C66.8487 84.5592 69.4379 86.5947 72.5288 85.8447C74.8216 85.2876 76.6869 85.1052 78.7379 85.3183C78.8347 84.6293 78.934 83.8848 79.0327 83.1245C76.0451 81.9098 73.3014 83.2384 69.9417 83.8285Z" fill="url(#paint19_linear_907_67425)"/>
<path style="mix-blend-mode:multiply" d="M73.4922 87.2069C72.3433 87.4843 70.8754 87.9358 69.6589 87.6509C67.4923 87.1365 65.6687 85.9519 63.7359 84.9766C63.2726 86.7796 62.7404 88.3127 62.1138 89.4276C62.1138 89.4276 62.1236 91.589 66.1822 93.2219C70.2408 94.8548 76.411 95.3387 77.4976 92.0967C77.7503 91.3448 78.1073 89.4849 78.4865 86.9929C76.8232 86.7396 75.1264 86.8123 73.4922 87.2069Z" fill="url(#paint20_linear_907_67425)"/>
<path opacity="0.5" d="M74.2554 44.16C74.2554 44.16 70.2822 45.9008 70.1137 59.0155C69.9452 72.1301 69.7914 85.0752 67.8577 88.4159C67.8577 88.4159 71.3254 80.3754 70.7508 68.2014C70.1761 56.0274 70.9125 48.1708 74.2554 44.16Z" fill="#1F5895"/>
<path style="mix-blend-mode:multiply" opacity="0.6" d="M81.2121 43.7107C81.4876 43.5995 81.3976 43.3767 81.047 43.1618C78.0042 46.6716 76.668 51.3343 75.7938 55.9054C75.1436 59.3202 74.6312 62.6568 74.9268 66.1511C75.0934 68.147 75.1782 69.9259 74.6642 71.8625C74.5661 72.2258 73.949 72.5772 73.6371 72.2468C70.4668 68.8801 70.4043 63.2169 70.4109 58.8961C70.3919 54.7375 71.0842 50.6068 72.4584 46.6795C70.2555 51.1469 69.7779 56.4327 69.6388 61.6103C69.5182 65.7222 69.6997 69.9721 68.935 74.0327C68.4495 76.5827 67.4992 79.0099 67.0043 81.5452C66.8292 82.4528 66.7722 83.4025 66.4435 84.2757C66.2742 84.7188 64.4246 86.6418 64.6578 85.3434C65.2736 81.8964 65.4204 78.4726 65.4143 75.0492C64.7108 81.1272 63.709 86.5834 62.1142 89.4208C62.1142 89.4208 62.124 91.5822 66.1826 93.2151C70.2412 94.848 76.4114 95.3319 77.498 92.0899C78.5846 88.8478 81.5777 65.1555 80.2836 58.0763C78.9896 50.9971 80.1753 44.1291 81.2121 43.7107Z" fill="url(#paint21_linear_907_67425)"/>
<path style="mix-blend-mode:screen" d="M72.7765 53.2008C73.1361 51.2157 73.6456 49.3832 74.5594 47.5921C74.996 46.7551 75.5758 45.7915 75.6863 44.832C75.7661 44.0894 75.4548 44.1178 75.0823 44.3712C74.5655 44.9027 73.9873 45.3876 73.6377 46.0519C72.7498 47.7248 72.0556 49.492 71.5684 51.32C70.6715 54.6306 71.321 58.4585 72.372 61.6539C72.3852 61.7012 72.411 61.7441 72.4468 61.778C72.3347 58.9123 72.2656 56.0134 72.7765 53.2008Z" fill="url(#paint22_linear_907_67425)"/>
<path style="mix-blend-mode:screen" d="M70.7504 45.2883C64.971 55.117 67.4458 66.9058 66.3168 77.887C66.4762 77.8007 66.5991 77.6607 66.6633 77.4923C69.4703 67.0298 67.6472 55.9491 70.9068 45.6084C70.9806 45.4017 70.8917 45.3009 70.7504 45.2883Z" fill="url(#paint23_linear_907_67425)"/>
<defs>
<radialGradient id="paint0_radial_907_67425" cx="0" cy="0" r="1" gradientUnits="userSpaceOnUse" gradientTransform="translate(94.0803 30.3172) rotate(4.38799) scale(33.5814 33.2868)">
<stop offset="0.53" stop-color="#C05F26"/>
<stop offset="0.62" stop-color="#AD6F2B"/>
<stop offset="0.63" stop-color="#B07432"/>
<stop offset="0.73" stop-color="#CCA57A"/>
<stop offset="0.82" stop-color="#E2CCB3"/>
<stop offset="0.9" stop-color="#F2E7DC"/>
<stop offset="0.96" stop-color="#FBF9F6"/>
<stop offset="1" stop-color="white"/>
</radialGradient>
<radialGradient id="paint1_radial_907_67425" cx="0" cy="0" r="1" gradientUnits="userSpaceOnUse" gradientTransform="translate(73.7827 55.7221) rotate(4.38799) scale(5.42732 5.37971)">
<stop offset="0.04" stop-color="white"/>
<stop offset="0.31" stop-color="#FDE27D"/>
<stop offset="0.88" stop-color="#F2722A"/>
</radialGradient>
<radialGradient id="paint2_radial_907_67425" cx="0" cy="0" r="1" gradientUnits="userSpaceOnUse" gradientTransform="translate(1270.84 1610.76) rotate(4.38799) scale(468.164 611.075)">
<stop offset="0.04" stop-color="white"/>
<stop offset="0.31" stop-color="#FDE27D"/>
<stop offset="0.88" stop-color="#F2722A"/>
</radialGradient>
<linearGradient id="paint3_linear_907_67425" x1="80.0599" y1="35.2198" x2="81.5178" y2="65.5786" gradientUnits="userSpaceOnUse">
<stop stop-color="#47C1F0"/>
<stop offset="0.5" stop-color="#00A0E4"/>
<stop offset="1" stop-color="#008CD3"/>
</linearGradient>
<linearGradient id="paint4_linear_907_67425" x1="2857.25" y1="-296.158" x2="2927.82" y2="3931.12" gradientUnits="userSpaceOnUse">
<stop stop-color="#47C1F0"/>
<stop offset="0.5" stop-color="#00A0E4"/>
<stop offset="1" stop-color="#008CD3"/>
</linearGradient>
<linearGradient id="paint5_linear_907_67425" x1="85.5334" y1="-109.063" x2="745.639" y2="1816.89" gradientUnits="userSpaceOnUse">
<stop stop-color="#47C1F0"/>
<stop offset="0.5" stop-color="#00A0E4"/>
<stop offset="1" stop-color="#008CD3"/>
</linearGradient>
<linearGradient id="paint6_linear_907_67425" x1="1163.22" y1="-364.182" x2="1707.33" y2="2793.46" gradientUnits="userSpaceOnUse">
<stop stop-color="#47C1F0"/>
<stop offset="0.5" stop-color="#00A0E4"/>
<stop offset="1" stop-color="#008CD3"/>
</linearGradient>
<linearGradient id="paint7_linear_907_67425" x1="1150.3" y1="-211.032" x2="1365.76" y2="1542.43" gradientUnits="userSpaceOnUse">
<stop stop-color="#47C1F0"/>
<stop offset="0.5" stop-color="#00A0E4"/>
<stop offset="1" stop-color="#008CD3"/>
</linearGradient>
<linearGradient id="paint8_linear_907_67425" x1="1677.41" y1="-344.386" x2="2014.05" y2="2588.58" gradientUnits="userSpaceOnUse">
<stop stop-color="#47C1F0"/>
<stop offset="0.5" stop-color="#00A0E4"/>
<stop offset="1" stop-color="#008CD3"/>
</linearGradient>
<linearGradient id="paint9_linear_907_67425" x1="829.335" y1="-238.695" x2="1066.11" y2="3090.97" gradientUnits="userSpaceOnUse">
<stop stop-color="#47C1F0"/>
<stop offset="0.5" stop-color="#00A0E4"/>
<stop offset="1" stop-color="#008CD3"/>
</linearGradient>
<linearGradient id="paint10_linear_907_67425" x1="-544.527" y1="8961.43" x2="1041.1" y2="9083.11" gradientUnits="userSpaceOnUse">
<stop stop-color="#47C1F0"/>
<stop offset="0.5" stop-color="#00A0E4"/>
<stop offset="1" stop-color="#008CD3"/>
</linearGradient>
<linearGradient id="paint11_linear_907_67425" x1="8.09589" y1="1664.53" x2="1391.96" y2="1770.72" gradientUnits="userSpaceOnUse">
<stop stop-color="#47C1F0"/>
<stop offset="0.5" stop-color="#00A0E4"/>
<stop offset="1" stop-color="#008CD3"/>
</linearGradient>
<linearGradient id="paint12_linear_907_67425" x1="82.9354" y1="672.583" x2="1434.88" y2="776.324" gradientUnits="userSpaceOnUse">
<stop stop-color="#47C1F0"/>
<stop offset="0.5" stop-color="#00A0E4"/>
<stop offset="1" stop-color="#008CD3"/>
</linearGradient>
<linearGradient id="paint13_linear_907_67425" x1="75.7582" y1="773.458" x2="1440.35" y2="878.169" gradientUnits="userSpaceOnUse">
<stop stop-color="#47C1F0"/>
<stop offset="0.5" stop-color="#00A0E4"/>
<stop offset="1" stop-color="#008CD3"/>
</linearGradient>
<linearGradient id="paint14_linear_907_67425" x1="100.719" y1="343.598" x2="1291.26" y2="434.954" gradientUnits="userSpaceOnUse">
<stop stop-color="#47C1F0"/>
<stop offset="0.5" stop-color="#00A0E4"/>
<stop offset="1" stop-color="#008CD3"/>
</linearGradient>
<linearGradient id="paint15_linear_907_67425" x1="99.1258" y1="353.859" x2="1274.7" y2="444.067" gradientUnits="userSpaceOnUse">
<stop stop-color="#47C1F0"/>
<stop offset="0.5" stop-color="#00A0E4"/>
<stop offset="1" stop-color="#008CD3"/>
</linearGradient>
<linearGradient id="paint16_linear_907_67425" x1="96.8606" y1="404.283" x2="1307.04" y2="497.146" gradientUnits="userSpaceOnUse">
<stop stop-color="#47C1F0"/>
<stop offset="0.5" stop-color="#00A0E4"/>
<stop offset="1" stop-color="#008CD3"/>
</linearGradient>
<linearGradient id="paint17_linear_907_67425" x1="58.797" y1="974.684" x2="1390.94" y2="1076.91" gradientUnits="userSpaceOnUse">
<stop stop-color="#47C1F0"/>
<stop offset="0.5" stop-color="#00A0E4"/>
<stop offset="1" stop-color="#008CD3"/>
</linearGradient>
<linearGradient id="paint18_linear_907_67425" x1="47.3887" y1="1158.08" x2="1446.26" y2="1265.43" gradientUnits="userSpaceOnUse">
<stop stop-color="#47C1F0"/>
<stop offset="0.5" stop-color="#00A0E4"/>
<stop offset="1" stop-color="#008CD3"/>
</linearGradient>
<linearGradient id="paint19_linear_907_67425" x1="53.3473" y1="1082.38" x2="1461.7" y2="1190.45" gradientUnits="userSpaceOnUse">
<stop stop-color="#47C1F0"/>
<stop offset="0.5" stop-color="#00A0E4"/>
<stop offset="1" stop-color="#008CD3"/>
</linearGradient>
<linearGradient id="paint20_linear_907_67425" x1="-66.9385" y1="2705.65" x2="1466.38" y2="2823.31" gradientUnits="userSpaceOnUse">
<stop stop-color="#47C1F0"/>
<stop offset="0.5" stop-color="#00A0E4"/>
<stop offset="1" stop-color="#008CD3"/>
</linearGradient>
<linearGradient id="paint21_linear_907_67425" x1="-543.75" y1="8951.28" x2="1041.88" y2="9072.95" gradientUnits="userSpaceOnUse">
<stop stop-color="#47C1F0"/>
<stop offset="0.5" stop-color="#00A0E4"/>
<stop offset="1" stop-color="#008CD3"/>
</linearGradient>
<linearGradient id="paint22_linear_907_67425" x1="71.2559" y1="52.7829" x2="75.0608" y2="53.0749" gradientUnits="userSpaceOnUse">
<stop stop-color="#5E4F9C"/>
<stop offset="0.5" stop-color="#312783"/>
<stop offset="1" stop-color="#463A6A"/>
</linearGradient>
<linearGradient id="paint23_linear_907_67425" x1="-214.108" y1="4438.57" x2="-163.89" y2="4442.42" gradientUnits="userSpaceOnUse">
<stop stop-color="#5E4F9C"/>
<stop offset="0.5" stop-color="#312783"/>
<stop offset="1" stop-color="#463A6A"/>
</linearGradient>
</defs>
</svg>
