<svg width="290" height="94" viewBox="0 0 290 94" fill="none" xmlns="http://www.w3.org/2000/svg">
<g filter="url(#filter0_d_907_62860)">
<path d="M252.78 59.1298V21.2266H275.481C276.975 21.2266 278.186 22.4408 278.186 23.9387V28.9356H261.587V36.1089H275.069C276.288 36.1089 277.277 37.1007 277.277 38.3235V43.4421H261.587V51.3142H276.606C278.008 51.3142 279.144 52.4543 279.144 53.8604V59.1298H252.78Z" fill="black"/>
</g>
<path d="M252.78 59.1298V21.2266H275.481C276.975 21.2266 278.186 22.4408 278.186 23.9387V28.9356H261.587V36.1089H275.069C276.288 36.1089 277.277 37.1007 277.277 38.3235V43.4421H261.587V51.3142H276.606C278.008 51.3142 279.144 52.4543 279.144 53.8604V59.1298H252.78Z" fill="white"/>
<g filter="url(#filter1_d_907_62860)">
<path d="M236.363 59.1298H227.053L212.46 21.2266H220.913C222.106 21.2266 223.165 21.9811 223.535 23.0963L231.845 48.0999H232.061L240.319 23.101C240.688 21.9832 241.748 21.2266 242.943 21.2266H251.23L236.363 59.1298Z" fill="black"/>
</g>
<path d="M236.363 59.1298H227.053L212.46 21.2266H220.913C222.106 21.2266 223.165 21.9811 223.535 23.0963L231.845 48.0999H232.061L240.319 23.101C240.688 21.9832 241.748 21.2266 242.943 21.2266H251.23L236.363 59.1298Z" fill="white"/>
<g filter="url(#filter2_d_907_62860)">
<path d="M181.444 59.1298H176.397L167.752 44.0843H164.473V59.1298H155.08V21.2266H170.266C172.178 21.2266 174.045 21.413 175.862 21.7889C177.68 22.1614 179.313 22.7972 180.756 23.6885C182.2 24.5805 183.354 25.758 184.217 27.2224C185.077 28.6861 185.511 30.5062 185.511 32.6823C185.511 35.254 184.78 37.4132 183.316 39.1601C181.854 40.9104 179.83 42.1581 177.24 42.9065L183.945 53.359L197.872 21.2266H205.184C206.317 21.2266 207.338 21.8864 207.773 22.8987L223.315 59.1298H212.806L209.764 51.6868H194.607L191.733 59.1298H181.444ZM202.297 31.3442L197.319 44.3536H207.165L202.297 31.3442ZM176.002 32.8417C176.002 31.9501 175.806 31.2283 175.408 30.6757C175.013 30.1235 174.506 29.6944 173.884 29.3913C173.262 29.0886 172.566 28.8823 171.793 28.7761C171.021 28.666 170.276 28.613 169.56 28.613H164.417V37.4466H168.993C169.786 37.4466 170.594 37.3869 171.426 37.2602C172.255 37.1338 173.006 36.911 173.684 36.5917C174.363 36.2691 174.919 35.8062 175.352 35.1975C175.785 34.5916 176.002 33.8069 176.002 32.8417Z" fill="black"/>
</g>
<path d="M181.444 59.1298H176.397L167.752 44.0843H164.473V59.1298H155.08V21.2266H170.266C172.178 21.2266 174.045 21.413 175.862 21.7889C177.68 22.1614 179.313 22.7972 180.756 23.6885C182.2 24.5805 183.354 25.758 184.217 27.2224C185.077 28.6861 185.511 30.5062 185.511 32.6823C185.511 35.254 184.78 37.4132 183.316 39.1601C181.854 40.9104 179.83 42.1581 177.24 42.9065L183.945 53.359L197.872 21.2266H205.184C206.317 21.2266 207.338 21.8864 207.773 22.8987L223.315 59.1298H212.806L209.764 51.6868H194.607L191.733 59.1298H181.444ZM202.297 31.3442L197.319 44.3536H207.165L202.297 31.3442ZM176.002 32.8417C176.002 31.9501 175.806 31.2283 175.408 30.6757C175.013 30.1235 174.506 29.6944 173.884 29.3913C173.262 29.0886 172.566 28.8823 171.793 28.7761C171.021 28.666 170.276 28.613 169.56 28.613H164.417V37.4466H168.993C169.786 37.4466 170.594 37.3869 171.426 37.2602C172.255 37.1338 173.006 36.911 173.684 36.5917C174.363 36.2691 174.919 35.8062 175.352 35.1975C175.785 34.5916 176.002 33.8069 176.002 32.8417Z" fill="white"/>
<g filter="url(#filter3_d_907_62860)">
<path d="M143.919 47.245C143.919 45.6747 143.301 44.5865 142.064 43.9778C140.828 43.3719 139.18 43.0692 137.12 43.0692H131.784V51.7397H137.176C137.926 51.7397 138.702 51.68 139.508 51.5536C140.315 51.4305 141.045 51.2077 141.701 50.8848C142.354 50.5622 142.888 50.1097 143.301 49.5208C143.713 48.9319 143.919 48.173 143.919 47.245ZM142.627 32.1992C142.627 30.9151 142.113 29.9802 141.083 29.391C140.05 28.8024 138.524 28.5061 136.502 28.5061H131.784V36.3217H136.952C138.751 36.3217 140.144 35.9757 141.139 35.2806C142.131 34.5815 142.627 33.557 142.627 32.1992ZM153.529 48.0999C153.529 50.1731 153.096 51.9132 152.237 53.3204C151.374 54.7312 150.232 55.8622 148.807 56.7208C147.382 57.5757 145.762 58.1913 143.947 58.5675C142.131 58.9433 140.266 59.1298 138.356 59.1298H122.513V21.2266H138.356C139.892 21.2266 141.464 21.3792 143.077 21.6819C144.687 21.9847 146.146 22.5005 147.46 23.2327C148.769 23.9646 149.837 24.956 150.661 26.2037C151.486 27.4546 151.898 29.0421 151.898 30.9684C151.898 33.0747 151.297 34.8148 150.099 36.1885C148.902 37.5629 147.327 38.5543 145.382 39.1598V39.2663C146.503 39.446 147.561 39.7754 148.556 40.2577C149.548 40.7405 150.41 41.356 151.14 42.1044C151.87 42.8532 152.45 43.728 152.883 44.7298C153.312 45.7277 153.529 46.8522 153.529 48.0999Z" fill="black"/>
</g>
<path d="M143.919 47.245C143.919 45.6747 143.301 44.5865 142.064 43.9778C140.828 43.3719 139.18 43.0692 137.12 43.0692H131.784V51.7397H137.176C137.926 51.7397 138.702 51.68 139.508 51.5536C140.315 51.4305 141.045 51.2077 141.701 50.8848C142.354 50.5622 142.888 50.1097 143.301 49.5208C143.713 48.9319 143.919 48.173 143.919 47.245ZM142.627 32.1992C142.627 30.9151 142.113 29.9802 141.083 29.391C140.05 28.8024 138.524 28.5061 136.502 28.5061H131.784V36.3217H136.952C138.751 36.3217 140.144 35.9757 141.139 35.2806C142.131 34.5815 142.627 33.557 142.627 32.1992ZM153.529 48.0999C153.529 50.1731 153.096 51.9132 152.237 53.3204C151.374 54.7312 150.232 55.8622 148.807 56.7208C147.382 57.5757 145.762 58.1913 143.947 58.5675C142.131 58.9433 140.266 59.1298 138.356 59.1298H122.513V21.2266H138.356C139.892 21.2266 141.464 21.3792 143.077 21.6819C144.687 21.9847 146.146 22.5005 147.46 23.2327C148.769 23.9646 149.837 24.956 150.661 26.2037C151.486 27.4546 151.898 29.0421 151.898 30.9684C151.898 33.0747 151.297 34.8148 150.099 36.1885C148.902 37.5629 147.327 38.5543 145.382 39.1598V39.2663C146.503 39.446 147.561 39.7754 148.556 40.2577C149.548 40.7405 150.41 41.356 151.14 42.1044C151.87 42.8532 152.45 43.728 152.883 44.7298C153.312 45.7277 153.529 46.8522 153.529 48.0999Z" fill="white"/>
<g filter="url(#filter4_d_907_62860)">
<path d="M104.801 56.4842C102.881 57.4719 100.639 58.2752 98.0726 58.8974C95.5062 59.5174 92.7101 59.8274 89.6839 59.8274C86.5453 59.8274 83.6567 59.3345 81.018 58.3486C78.3769 57.361 76.1081 55.9733 74.2063 54.1823C72.3049 52.3913 70.8198 50.2462 69.7496 47.7411C68.6772 45.239 68.1432 42.4533 68.1432 39.3845C68.1432 36.2774 68.6883 33.4627 69.7767 30.9426C70.8651 28.4203 72.3698 26.2748 74.2898 24.5018C76.2098 22.7306 78.4608 21.3679 81.045 20.4181C83.6297 19.4678 86.4165 18.9929 89.4067 18.9929C92.5071 18.9929 95.3867 19.4586 98.0456 20.3909C100.704 21.3231 102.863 22.5745 104.524 24.1448L98.5436 30.8871C97.6222 29.8278 96.4031 28.9598 94.8891 28.2844C93.3747 27.6085 91.6577 27.2695 89.7403 27.2695C88.0775 27.2695 86.5453 27.5703 85.1437 28.1749C83.7399 28.7769 82.5209 29.6177 81.4889 30.695C80.4547 31.7749 79.6524 33.0524 79.0802 34.5334C78.5079 36.0122 78.2218 37.6291 78.2218 39.3845C78.2218 41.1729 78.4786 42.8192 78.9967 44.3156C79.5128 45.8142 80.2788 47.1035 81.2952 48.1808C82.309 49.2577 83.564 50.0989 85.0602 50.7009C86.5564 51.3051 88.2623 51.6067 90.1819 51.6067C91.2903 51.6067 92.3427 51.524 93.3387 51.3591C94.3343 51.1964 95.2583 50.9308 96.1078 50.565V43.495H88.6315V35.9295H101.67C103.399 35.9295 104.801 37.3169 104.801 39.0285V56.4842ZM63.977 58.8416H54.4527V20.0342H60.8465C62.5754 20.0342 63.977 21.4215 63.977 23.1328V58.8416ZM49.7106 52.8956C48.8612 54.3384 47.7346 55.4983 46.333 56.3747C44.9292 57.2515 43.3317 57.8825 41.5427 58.2664C39.7515 58.6498 37.915 58.8416 36.0313 58.8416H20.4165V20.0342H36.0313C37.5454 20.0342 39.0958 20.1903 40.684 20.5003C42.2704 20.8103 43.7102 21.3411 45.0034 22.0904C46.2948 22.8397 47.3468 23.8524 48.1603 25.1328C48.9714 26.4107 49.3774 28.0368 49.3774 30.0103C49.3774 32.1672 48.7866 33.949 47.6062 35.3543C46.4232 36.7619 44.8728 37.7764 42.9532 38.3964V38.5058C44.0616 38.6888 45.1051 39.0278 46.0829 39.5204C47.0607 40.0133 47.9101 40.6447 48.6312 41.4116C49.35 42.1789 49.9225 43.0755 50.3459 44.097C50.7719 45.1207 50.9838 46.2715 50.9838 47.5497C50.9838 49.6706 50.5578 51.4506 49.7106 52.8956ZM107.942 10.7578L11.5446 10.7641C11.1842 10.7644 10.8922 11.0535 10.8918 11.4109L10.8555 80.8622C10.8551 81.4315 11.5501 81.7176 11.958 81.3161L24.9448 68.5319C25.1155 68.3637 25.3471 68.2689 25.5879 68.2689H107.942C111.55 68.2689 114.476 65.3731 114.476 61.801V17.2261C114.476 13.6687 111.536 10.7578 107.942 10.7578Z" fill="black"/>
</g>
<path d="M104.801 56.4842C102.881 57.4719 100.639 58.2752 98.0726 58.8974C95.5062 59.5174 92.7101 59.8274 89.6839 59.8274C86.5453 59.8274 83.6567 59.3345 81.018 58.3486C78.3769 57.361 76.1081 55.9733 74.2063 54.1823C72.3049 52.3913 70.8198 50.2462 69.7496 47.7411C68.6772 45.239 68.1432 42.4533 68.1432 39.3845C68.1432 36.2774 68.6883 33.4627 69.7767 30.9426C70.8651 28.4203 72.3698 26.2748 74.2898 24.5018C76.2098 22.7306 78.4608 21.3679 81.045 20.4181C83.6297 19.4678 86.4165 18.9929 89.4067 18.9929C92.5071 18.9929 95.3867 19.4586 98.0456 20.3909C100.704 21.3231 102.863 22.5745 104.524 24.1448L98.5436 30.8871C97.6222 29.8278 96.4031 28.9598 94.8891 28.2844C93.3747 27.6085 91.6577 27.2695 89.7403 27.2695C88.0775 27.2695 86.5453 27.5703 85.1437 28.1749C83.7399 28.7769 82.5209 29.6177 81.4889 30.695C80.4547 31.7749 79.6524 33.0524 79.0802 34.5334C78.5079 36.0122 78.2218 37.6291 78.2218 39.3845C78.2218 41.1729 78.4786 42.8192 78.9967 44.3156C79.5128 45.8142 80.2788 47.1035 81.2952 48.1808C82.309 49.2577 83.564 50.0989 85.0602 50.7009C86.5564 51.3051 88.2623 51.6067 90.1819 51.6067C91.2903 51.6067 92.3427 51.524 93.3387 51.3591C94.3343 51.1964 95.2583 50.9308 96.1078 50.565V43.495H88.6315V35.9295H101.67C103.399 35.9295 104.801 37.3169 104.801 39.0285V56.4842ZM63.977 58.8416H54.4527V20.0342H60.8465C62.5754 20.0342 63.977 21.4215 63.977 23.1328V58.8416ZM49.7106 52.8956C48.8612 54.3384 47.7346 55.4983 46.333 56.3747C44.9292 57.2515 43.3317 57.8825 41.5427 58.2664C39.7515 58.6498 37.915 58.8416 36.0313 58.8416H20.4165V20.0342H36.0313C37.5454 20.0342 39.0958 20.1903 40.684 20.5003C42.2704 20.8103 43.7102 21.3411 45.0034 22.0904C46.2948 22.8397 47.3468 23.8524 48.1603 25.1328C48.9714 26.4107 49.3774 28.0368 49.3774 30.0103C49.3774 32.1672 48.7866 33.949 47.6062 35.3543C46.4232 36.7619 44.8728 37.7764 42.9532 38.3964V38.5058C44.0616 38.6888 45.1051 39.0278 46.0829 39.5204C47.0607 40.0133 47.9101 40.6447 48.6312 41.4116C49.35 42.1789 49.9225 43.0755 50.3459 44.097C50.7719 45.1207 50.9838 46.2715 50.9838 47.5497C50.9838 49.6706 50.5578 51.4506 49.7106 52.8956ZM107.942 10.7578L11.5446 10.7641C11.1842 10.7644 10.8922 11.0535 10.8918 11.4109L10.8555 80.8622C10.8551 81.4315 11.5501 81.7176 11.958 81.3161L24.9448 68.5319C25.1155 68.3637 25.3471 68.2689 25.5879 68.2689H107.942C111.55 68.2689 114.476 65.3731 114.476 61.801V17.2261C114.476 13.6687 111.536 10.7578 107.942 10.7578Z" fill="white"/>
<g filter="url(#filter5_d_907_62860)">
<path d="M39.9739 43.406C38.7119 42.771 37.027 42.4512 34.9214 42.4512H29.4648V51.5479H34.9776C35.7439 51.5479 36.5386 51.4813 37.3611 51.3489C38.1839 51.2187 38.9317 50.9855 39.6021 50.6476C40.2706 50.3117 40.8175 49.8342 41.2382 49.2176C41.6588 48.5987 41.8713 47.8034 41.8713 46.8304C41.8713 45.1833 41.2382 44.043 39.9739 43.406Z" fill="black"/>
</g>
<path d="M39.9739 43.406C38.7119 42.771 37.027 42.4512 34.9214 42.4512H29.4648V51.5479H34.9776C35.7439 51.5479 36.5386 51.4813 37.3611 51.3489C38.1839 51.2187 38.9317 50.9855 39.6021 50.6476C40.2706 50.3117 40.8175 49.8342 41.2382 49.2176C41.6588 48.5987 41.8713 47.8034 41.8713 46.8304C41.8713 45.1833 41.2382 44.043 39.9739 43.406Z" fill="white"/>
<g filter="url(#filter6_d_907_62860)">
<path d="M38.8304 33.8574C39.8237 33.1834 40.3205 32.1883 40.3205 30.8721C40.3205 29.6257 39.8056 28.7172 38.7732 28.147C37.7434 27.5763 36.2145 27.291 34.1889 27.291H29.4648V34.8717H34.6397C36.4411 34.8717 37.8372 34.5335 38.8304 33.8574Z" fill="black"/>
</g>
<path d="M38.8304 33.8574C39.8237 33.1834 40.3205 32.1883 40.3205 30.8721C40.3205 29.6257 39.8056 28.7172 38.7732 28.147C37.7434 27.5763 36.2145 27.291 34.1889 27.291H29.4648V34.8717H34.6397C36.4411 34.8717 37.8372 34.5335 38.8304 33.8574Z" fill="white"/>
<path d="M283.829 19.7725C285.56 19.7725 286.963 18.4007 286.963 16.7085C286.963 15.0163 285.56 13.6445 283.829 13.6445C282.098 13.6445 280.695 15.0163 280.695 16.7085C280.695 18.4007 282.098 19.7725 283.829 19.7725Z" stroke="white" stroke-width="0.5"/>
<path fill-rule="evenodd" clip-rule="evenodd" d="M283.908 15.1621C284.697 15.1621 285.086 15.5969 285.086 16.1849C285.086 16.6997 284.732 16.9789 284.515 17.0658L285.151 18.2854H284.295L283.754 17.1711H283.316V18.2854H282.556V15.1621H283.908ZM283.316 16.6357H283.787C284.086 16.6357 284.288 16.4869 284.288 16.1918C284.288 15.8829 284.07 15.7296 283.794 15.7296H283.316V16.6357Z" fill="white"/>
<defs>
<filter id="filter0_d_907_62860" x="243.78" y="14.2266" width="42.3633" height="53.9023" filterUnits="userSpaceOnUse" color-interpolation-filters="sRGB">
<feFlood flood-opacity="0" result="BackgroundImageFix"/>
<feColorMatrix in="SourceAlpha" type="matrix" values="0 0 0 0 0 0 0 0 0 0 0 0 0 0 0 0 0 0 127 0" result="hardAlpha"/>
<feOffset dx="-1" dy="1"/>
<feGaussianBlur stdDeviation="4"/>
<feColorMatrix type="matrix" values="0 0 0 0 0 0 0 0 0 0 0 0 0 0 0 0 0 0 0.2 0"/>
<feBlend mode="normal" in2="BackgroundImageFix" result="effect1_dropShadow_907_62860"/>
<feBlend mode="normal" in="SourceGraphic" in2="effect1_dropShadow_907_62860" result="shape"/>
</filter>
<filter id="filter1_d_907_62860" x="203.46" y="14.2266" width="54.7695" height="53.9023" filterUnits="userSpaceOnUse" color-interpolation-filters="sRGB">
<feFlood flood-opacity="0" result="BackgroundImageFix"/>
<feColorMatrix in="SourceAlpha" type="matrix" values="0 0 0 0 0 0 0 0 0 0 0 0 0 0 0 0 0 0 127 0" result="hardAlpha"/>
<feOffset dx="-1" dy="1"/>
<feGaussianBlur stdDeviation="4"/>
<feColorMatrix type="matrix" values="0 0 0 0 0 0 0 0 0 0 0 0 0 0 0 0 0 0 0.2 0"/>
<feBlend mode="normal" in2="BackgroundImageFix" result="effect1_dropShadow_907_62860"/>
<feBlend mode="normal" in="SourceGraphic" in2="effect1_dropShadow_907_62860" result="shape"/>
</filter>
<filter id="filter2_d_907_62860" x="146.08" y="14.2266" width="84.2354" height="53.9023" filterUnits="userSpaceOnUse" color-interpolation-filters="sRGB">
<feFlood flood-opacity="0" result="BackgroundImageFix"/>
<feColorMatrix in="SourceAlpha" type="matrix" values="0 0 0 0 0 0 0 0 0 0 0 0 0 0 0 0 0 0 127 0" result="hardAlpha"/>
<feOffset dx="-1" dy="1"/>
<feGaussianBlur stdDeviation="4"/>
<feColorMatrix type="matrix" values="0 0 0 0 0 0 0 0 0 0 0 0 0 0 0 0 0 0 0.2 0"/>
<feBlend mode="normal" in2="BackgroundImageFix" result="effect1_dropShadow_907_62860"/>
<feBlend mode="normal" in="SourceGraphic" in2="effect1_dropShadow_907_62860" result="shape"/>
</filter>
<filter id="filter3_d_907_62860" x="113.513" y="14.2266" width="47.0156" height="53.9023" filterUnits="userSpaceOnUse" color-interpolation-filters="sRGB">
<feFlood flood-opacity="0" result="BackgroundImageFix"/>
<feColorMatrix in="SourceAlpha" type="matrix" values="0 0 0 0 0 0 0 0 0 0 0 0 0 0 0 0 0 0 127 0" result="hardAlpha"/>
<feOffset dx="-1" dy="1"/>
<feGaussianBlur stdDeviation="4"/>
<feColorMatrix type="matrix" values="0 0 0 0 0 0 0 0 0 0 0 0 0 0 0 0 0 0 0.2 0"/>
<feBlend mode="normal" in2="BackgroundImageFix" result="effect1_dropShadow_907_62860"/>
<feBlend mode="normal" in="SourceGraphic" in2="effect1_dropShadow_907_62860" result="shape"/>
</filter>
<filter id="filter4_d_907_62860" x="3.85547" y="3.75781" width="119.621" height="86.7461" filterUnits="userSpaceOnUse" color-interpolation-filters="sRGB">
<feFlood flood-opacity="0" result="BackgroundImageFix"/>
<feColorMatrix in="SourceAlpha" type="matrix" values="0 0 0 0 0 0 0 0 0 0 0 0 0 0 0 0 0 0 127 0" result="hardAlpha"/>
<feOffset dx="1" dy="1"/>
<feGaussianBlur stdDeviation="4"/>
<feColorMatrix type="matrix" values="0 0 0 0 0 0 0 0 0 0 0 0 0 0 0 0 0 0 0.2 0"/>
<feBlend mode="normal" in2="BackgroundImageFix" result="effect1_dropShadow_907_62860"/>
<feBlend mode="normal" in="SourceGraphic" in2="effect1_dropShadow_907_62860" result="shape"/>
</filter>
<filter id="filter5_d_907_62860" x="22.4648" y="35.4512" width="28.4062" height="25.0977" filterUnits="userSpaceOnUse" color-interpolation-filters="sRGB">
<feFlood flood-opacity="0" result="BackgroundImageFix"/>
<feColorMatrix in="SourceAlpha" type="matrix" values="0 0 0 0 0 0 0 0 0 0 0 0 0 0 0 0 0 0 127 0" result="hardAlpha"/>
<feOffset dx="1" dy="1"/>
<feGaussianBlur stdDeviation="4"/>
<feColorMatrix type="matrix" values="0 0 0 0 0 0 0 0 0 0 0 0 0 0 0 0 0 0 0.5 0"/>
<feBlend mode="normal" in2="BackgroundImageFix" result="effect1_dropShadow_907_62860"/>
<feBlend mode="normal" in="SourceGraphic" in2="effect1_dropShadow_907_62860" result="shape"/>
</filter>
<filter id="filter6_d_907_62860" x="22.4648" y="20.291" width="26.8555" height="23.5801" filterUnits="userSpaceOnUse" color-interpolation-filters="sRGB">
<feFlood flood-opacity="0" result="BackgroundImageFix"/>
<feColorMatrix in="SourceAlpha" type="matrix" values="0 0 0 0 0 0 0 0 0 0 0 0 0 0 0 0 0 0 127 0" result="hardAlpha"/>
<feOffset dx="1" dy="1"/>
<feGaussianBlur stdDeviation="4"/>
<feColorMatrix type="matrix" values="0 0 0 0 0 0 0 0 0 0 0 0 0 0 0 0 0 0 0.5 0"/>
<feBlend mode="normal" in2="BackgroundImageFix" result="effect1_dropShadow_907_62860"/>
<feBlend mode="normal" in="SourceGraphic" in2="effect1_dropShadow_907_62860" result="shape"/>
</filter>
</defs>
</svg>
