<svg width="146" height="129" viewBox="0 0 146 129" fill="none" xmlns="http://www.w3.org/2000/svg">
<path d="M145.846 0H0V128.697H145.846V0Z" fill="#0F75BB"/>
<path d="M20.3789 23.3164H31.352C36.5372 23.3164 40.215 24.1037 42.5664 25.6178C44.8574 27.1925 46.003 29.615 46.003 33.0065C46.003 35.308 45.3398 37.246 44.0737 38.7601C42.8075 40.2741 40.9385 41.2432 38.4665 41.6671V41.9094C44.3751 42.9389 47.3294 46.0277 47.3294 51.2967C47.3294 54.8094 46.1839 57.5347 43.8325 59.4727C41.4811 61.4108 38.2253 62.4403 34.0049 62.4403H20.3789V23.3164ZM24.9008 40.0925H32.3167C35.5122 40.0925 37.8033 39.608 39.19 38.5784C40.5767 37.5488 41.3002 35.853 41.3002 33.4911C41.3002 31.3108 40.5164 29.7361 38.9488 28.7065C37.3812 27.7375 34.9093 27.253 31.5329 27.253H24.9008V40.0925ZM24.9008 43.9685V58.6248H32.9799C36.1151 58.6248 38.4665 58.0192 40.0944 56.8079C41.662 55.5967 42.4458 53.6587 42.4458 51.0544C42.4458 48.6319 41.662 46.815 40.0341 45.7249C38.4062 44.5741 35.9342 44.0291 32.6182 44.0291L24.9008 43.9685Z" fill="white"/>
<path d="M59.3877 62.5017H54.9863V20.834H59.3877V62.5017Z" fill="white"/>
<path d="M72.8932 33.129V52.2065C72.8932 54.629 73.4359 56.3854 74.5211 57.5361C75.6064 58.6868 77.2946 59.2924 79.5857 59.2924C82.6605 59.2924 84.8913 58.4445 86.2781 56.7488C87.6648 55.053 88.3883 52.3276 88.3883 48.5121V33.129H92.7896V62.5023H89.1721L88.5089 58.5657H88.2677C87.3633 60.0192 86.0972 61.1093 84.5296 61.8967C82.9017 62.684 81.093 63.0474 79.043 63.0474C75.4858 63.0474 72.833 62.1995 71.0845 60.5037C69.336 58.8079 68.4316 56.0826 68.4316 52.3882V33.129H72.8932ZM114.495 63.0474C110.214 63.0474 106.777 61.715 104.305 59.1107C101.833 56.446 100.567 52.8121 100.567 48.0882C100.567 43.3643 101.713 39.6093 104.064 36.8234C106.355 34.0375 109.49 32.6445 113.409 32.6445C117.087 32.6445 119.921 33.8558 122.091 36.2783C124.202 38.7009 125.287 41.9107 125.287 45.8474V48.6333H105.21C105.27 52.0854 106.174 54.6896 107.802 56.5065C109.43 58.2629 111.721 59.1713 114.736 59.1713C117.871 59.1713 120.946 58.5051 124.021 57.1727V61.1093C122.453 61.7755 121.006 62.26 119.62 62.5629C118.233 62.8657 116.484 63.0474 114.495 63.0474ZM113.289 36.3389C110.937 36.3389 109.068 37.1262 107.682 38.6403C106.295 40.1544 105.451 42.2741 105.21 44.9995H120.464C120.464 42.2136 119.861 40.0333 118.595 38.5797C117.389 37.0657 115.64 36.3389 113.289 36.3389Z" fill="white"/>
<path d="M20.3789 99.9891H24.7199V75.037H20.3789V67.8906H50.4042V79.4581H42.2046V75.5822H34.4872V83.5159H45.8822V91.2075H34.4872V99.4439H42.8677V95.568H51.0069V107.135H20.3789V99.9891Z" fill="white"/>
<path d="M76.0892 67.2246C87.7255 67.2246 96.5885 75.1584 96.5885 86.726C96.5885 91.5105 95.1415 95.3866 92.4283 98.8387L96.6488 102.23L91.2828 108.347L87.1829 104.471C84.0477 106.712 80.2493 107.802 76.0892 107.802C64.0308 107.802 55.5296 98.7781 55.5296 87.3922C55.4693 75.9457 63.9705 67.2246 76.0892 67.2246ZM76.0892 99.2627C77.4156 99.2627 79.1641 98.9598 80.3699 98.2331L75.2451 93.4486L80.4905 87.4528L85.6756 92.419C86.3388 90.8443 86.7609 89.088 86.7609 87.0894C86.7609 80.7302 82.0581 75.7035 76.0892 75.7035C70.1806 75.7035 65.5381 80.6091 65.5381 87.3317C65.5381 94.1148 70.1806 99.2627 76.0892 99.2627ZM101.954 76.2486H101.05V69.4049H98.759V68.557H104.246V69.4049H101.954V76.2486ZM108.285 76.2486L105.934 69.7683H105.873L105.934 71.888V76.2486H105.029V68.557H106.356L108.707 75.0373L111.059 68.557H112.385V76.2486H111.481V72.0091L111.541 69.8288H111.481L109.069 76.2486H108.285Z" fill="white"/>
</svg>
