<svg width="134" height="131" viewBox="0 0 134 131" fill="none" xmlns="http://www.w3.org/2000/svg">
<path d="M133.392 26.2005L133.513 0.853516H0.972656V26.0786H8.14688V10.2368L126.218 10.3586V26.2005H133.392Z" fill="white"/>
<path d="M0.972656 104.557V129.782L133.392 129.904L133.513 104.557H126.339L126.218 120.399H8.14688V104.557H0.972656Z" fill="white"/>
<path d="M4.37791 60.9315C2.79715 60.444 1.45958 59.8347 0.608398 59.1036L2.18916 56.057C3.16194 56.7882 4.25631 57.2757 5.59388 57.6412C6.93145 58.0068 8.26902 58.2505 9.60658 58.2505C13.0113 58.2505 14.7137 57.2757 14.7137 55.3259C14.7137 54.7166 14.4705 54.2291 13.9841 53.7417C13.4977 53.3761 13.0113 53.1324 12.2817 52.8887C11.5521 52.7668 10.5794 52.5231 9.36339 52.2794C7.66103 52.0357 6.20187 51.6701 5.22909 51.3045C4.25631 50.9389 3.16194 50.5733 2.43235 49.7203C1.70277 48.8673 1.21638 47.7705 1.21638 46.1864C1.21638 44.2366 2.06756 42.6524 3.64833 41.5557C5.22909 40.4589 7.41784 39.8496 10.093 39.8496C11.5521 39.8496 12.8897 39.9715 14.3489 40.337C15.808 40.7026 16.9024 41.1901 17.8752 41.7994L16.1728 44.8459C14.4705 43.7491 12.4033 43.1398 10.093 43.1398C8.51221 43.1398 7.17464 43.3836 6.32346 43.9929C5.47228 44.4803 4.98589 45.2115 4.98589 46.0645C4.98589 46.7957 5.22909 47.2831 5.71548 47.7705C6.20186 48.1361 6.80985 48.5017 7.53943 48.6236C8.26902 48.8673 9.24179 48.9891 10.5794 49.2329C12.2817 49.4766 13.6193 49.8422 14.7137 50.2077C15.808 50.5733 16.6592 51.0608 17.3888 51.9138C18.1184 52.7668 18.4832 53.8636 18.4832 55.3259C18.4832 57.2757 17.632 58.738 16.0512 59.9566C14.3489 61.0533 12.1601 61.6626 9.36339 61.6626C7.66103 61.6626 5.95867 61.4189 4.37791 60.9315Z" fill="white"/>
<path d="M26.7521 60.2003C25.0498 59.2254 23.7122 58.0068 22.7394 56.3008C21.7667 54.5947 21.2803 52.7668 21.2803 50.6952C21.2803 48.6236 21.7667 46.7957 22.7394 45.0896C23.7122 43.3836 25.0498 42.165 26.7521 41.1901C28.4545 40.2152 30.2785 39.8496 32.4672 39.8496C34.5344 39.8496 36.4799 40.337 38.1823 41.1901C39.8846 42.165 41.2222 43.3836 42.0734 45.0896C43.0462 46.7957 43.5325 48.6236 43.5325 50.6952C43.5325 52.7668 43.0462 54.7166 42.0734 56.3008C41.1006 58.0068 39.763 59.2254 38.1823 60.2003C36.4799 61.1752 34.656 61.6626 32.4672 61.6626C30.4001 61.6626 28.4545 61.1752 26.7521 60.2003ZM36.1151 57.2757C37.2095 56.6664 38.0607 55.8133 38.6687 54.5947C39.2766 53.498 39.6414 52.1575 39.6414 50.6952C39.6414 49.2329 39.2766 47.8924 38.6687 46.7957C38.0607 45.6989 37.2095 44.724 36.1151 44.1147C35.0207 43.5054 33.8048 43.1398 32.4672 43.1398C31.1296 43.1398 29.9137 43.5054 28.8193 44.1147C27.7249 44.724 26.8737 45.5771 26.2658 46.7957C25.6578 47.8924 25.293 49.2329 25.293 50.6952C25.293 52.1575 25.6578 53.498 26.2658 54.5947C26.8737 55.6915 27.7249 56.6664 28.8193 57.2757C29.9137 57.885 31.1296 58.2505 32.4672 58.2505C33.8048 58.2505 35.0207 58.0068 36.1151 57.2757Z" fill="white"/>
<path d="M68.7027 40.0938V61.4193H65.0548V58.251C64.3252 59.3477 63.2308 60.2007 62.0148 60.81C60.7989 61.4193 59.3397 61.6631 57.8805 61.6631C55.0838 61.6631 52.7734 60.9319 51.1927 59.3477C49.6119 57.7635 48.7607 55.4482 48.7607 52.4017V40.0938H52.6518V51.9142C52.6518 53.9858 53.1382 55.57 54.111 56.5449C55.0838 57.6417 56.543 58.1291 58.3669 58.1291C60.4341 58.1291 62.0148 57.5198 63.2308 56.3012C64.4468 55.0826 65.0548 53.3765 65.0548 51.0612V40.0938H68.7027Z" fill="white"/>
<path d="M82.6869 40.8245C84.0244 40.2152 85.6052 39.8496 87.4291 39.8496V43.6273C87.186 43.6273 86.9428 43.6273 86.578 43.6273C84.5108 43.6273 82.8085 44.2366 81.7141 45.4552C80.4981 46.6738 79.8901 48.5017 79.8901 50.8171V61.4189H75.999V40.0933H79.6469V43.6273C80.3765 42.4087 81.3493 41.4338 82.6869 40.8245Z" fill="white"/>
<path d="M95.4543 60.2003C93.7519 59.2254 92.4144 58.0068 91.4416 56.3008C90.4688 54.5947 89.9824 52.7668 89.9824 50.6952C89.9824 48.6236 90.4688 46.7957 91.4416 45.0896C92.4144 43.3836 93.7519 42.165 95.4543 41.1901C97.1566 40.2152 99.1022 39.8496 101.291 39.8496C103.236 39.8496 104.939 40.2152 106.398 41.0682C107.857 41.7994 109.073 43.018 109.924 44.4803L107.006 46.3082C106.276 45.3333 105.547 44.4803 104.574 43.9929C103.601 43.5054 102.507 43.2617 101.291 43.2617C99.9534 43.2617 98.6158 43.6273 97.5214 44.2366C96.4271 44.8459 95.5759 45.6989 94.9679 46.9175C94.3599 48.0143 93.9951 49.3547 93.9951 50.8171C93.9951 52.2794 94.3599 53.6198 94.9679 54.8385C95.5759 55.9352 96.4271 56.9101 97.5214 57.5194C98.6158 58.1287 99.8318 58.4943 101.291 58.4943C102.507 58.4943 103.601 58.2505 104.574 57.7631C105.547 57.2757 106.398 56.5445 107.006 55.4478L109.924 57.2757C109.073 58.738 107.979 59.8347 106.398 60.6878C104.939 61.4189 103.115 61.9064 101.291 61.9064C99.1022 61.6626 97.1566 61.1752 95.4543 60.2003Z" fill="white"/>
<path d="M133.757 52.0357H116.49C116.733 53.8636 117.585 55.4477 118.922 56.5445C120.381 57.6412 122.084 58.2505 124.151 58.2505C126.704 58.2505 128.772 57.3975 130.231 55.6915L132.298 58.1287C131.325 59.2254 130.109 60.0784 128.65 60.6877C127.191 61.297 125.61 61.5408 123.908 61.5408C121.719 61.5408 119.652 61.0533 117.949 60.2003C116.247 59.2254 114.909 58.0068 113.937 56.3008C112.964 54.5947 112.478 52.7668 112.478 50.6952C112.478 48.6236 112.964 46.7957 113.815 45.0896C114.666 43.3836 116.004 42.165 117.585 41.1901C119.165 40.2152 120.989 39.8496 123.056 39.8496C125.124 39.8496 126.948 40.337 128.528 41.1901C130.109 42.165 131.325 43.3836 132.298 45.0896C133.271 46.7957 133.635 48.6236 133.635 50.817C133.757 51.1826 133.757 51.5482 133.757 52.0357ZM118.679 44.8459C117.463 45.9426 116.733 47.405 116.49 49.2329H130.109C129.866 47.405 129.136 45.9426 127.92 44.8459C126.704 43.7491 125.124 43.1398 123.3 43.1398C121.476 43.1398 119.895 43.7491 118.679 44.8459Z" fill="white"/>
<path d="M0.973633 73.4824H7.90467C9.72862 73.4824 11.3094 73.848 12.647 74.5792C13.9845 75.3103 15.0789 76.2852 15.9301 77.6257C16.6597 78.9661 17.0244 80.4285 17.0244 82.0127C17.0244 83.5968 16.6597 85.3029 15.9301 86.5215C15.2005 87.862 14.1061 88.8368 12.647 89.568C11.3094 90.2992 9.60703 90.6647 7.90467 90.6647H0.973633V73.4824ZM7.78307 89.0806C9.24223 89.0806 10.5798 88.8368 11.6742 88.2275C12.7686 87.6182 13.6197 86.7652 14.3493 85.7903C14.9573 84.6936 15.3221 83.475 15.3221 82.1345C15.3221 80.794 14.9573 79.5754 14.3493 78.4787C13.7413 77.382 12.8901 76.6508 11.6742 76.0415C10.5798 75.4322 9.24223 75.1885 7.78307 75.1885H2.67599V89.2024H7.78307V89.0806Z" fill="white"/>
<path d="M36.1153 89.0806V90.6647H24.0771V73.4824H35.7505V75.0666H25.7795V81.1596H34.6561V82.7438H25.7795V89.0806H36.1153Z" fill="white"/>
<path d="M44.9919 75.0666V81.7689H53.8685V83.3531H44.9919V90.6647H43.168V73.4824H54.8413V75.0666H44.9919Z" fill="white"/>
<path d="M73.5674 89.0806V90.6647H61.5293V73.4824H73.2026V75.0666H63.2317V81.1596H72.1082V82.7438H63.2317V89.0806H73.5674Z" fill="white"/>
<path d="M95.0892 73.4824V90.6647H93.63L82.6863 76.7727V90.6647H80.8623V73.4824H82.3215L93.3868 87.3745V73.4824H95.0892Z" fill="white"/>
<path d="M104.575 90.1773C103.359 89.8117 102.507 89.2024 101.899 88.5931L102.629 87.2527C103.237 87.862 104.088 88.3494 105.061 88.715C106.034 89.0806 107.128 89.3243 108.222 89.3243C109.803 89.3243 110.898 89.0806 111.627 88.4713C112.357 87.862 112.722 87.1308 112.722 86.2778C112.722 85.5466 112.478 85.0592 112.114 84.6936C111.749 84.328 111.141 83.9624 110.533 83.7187C109.925 83.475 109.074 83.2313 107.979 82.9875C106.642 82.622 105.669 82.3782 104.939 82.0127C104.21 81.7689 103.48 81.2815 102.994 80.6722C102.507 80.0629 102.143 79.2099 102.143 78.1131C102.143 77.2601 102.386 76.4071 102.872 75.7978C103.359 75.0666 104.088 74.5792 104.939 74.0917C105.912 73.7261 107.006 73.4824 108.466 73.4824C109.438 73.4824 110.411 73.6043 111.384 73.848C112.357 74.0917 113.086 74.4573 113.816 74.9447L113.208 76.4071C112.478 75.9196 111.749 75.554 110.898 75.3103C110.046 75.0666 109.317 74.9447 108.466 74.9447C107.006 74.9447 105.791 75.1885 105.061 75.7978C104.331 76.4071 103.967 77.1382 103.967 77.9913C103.967 78.7224 104.21 79.2099 104.575 79.6973C104.939 80.0629 105.547 80.4285 106.155 80.6722C106.763 80.9159 107.614 81.1596 108.709 81.4034C109.925 81.7689 111.019 82.0127 111.749 82.3782C112.478 82.622 113.208 83.1094 113.694 83.7187C114.181 84.328 114.545 85.181 114.545 86.1559C114.545 87.0089 114.302 87.862 113.816 88.4713C113.33 89.2024 112.6 89.6899 111.627 90.1773C110.654 90.5429 109.438 90.7866 108.101 90.7866C106.885 90.7866 105.669 90.6647 104.575 90.1773Z" fill="white"/>
<path d="M133.515 89.0806V90.6647H121.477V73.4824H133.15V75.0666H123.179V81.1596H132.056V82.7438H123.179V89.0806H133.515Z" fill="white"/>
</svg>
