<svg width="210" height="120" viewBox="0 0 210 120" fill="none" xmlns="http://www.w3.org/2000/svg">
<g clip-path="url(#clip0_907_61485)">
<path d="M-13.3055 83.5308C-13.3055 83.5308 -16.0127 62.3056 16.2387 24.7808C48.4901 -12.744 62.8909 -8.9229 82.6074 -0.852995C102.324 7.2169 115.639 42.8288 132.996 48.5863C150.353 54.3438 195.473 56.9852 202.18 99.4544C208.887 141.924 157.709 188.341 100.688 202.77C43.6679 217.199 -3.94313 135.325 -8.95804 116.431C-13.9729 97.5368 -13.3055 83.5308 -13.3055 83.5308Z" fill="#0A431A"/>
<path d="M-13.3055 83.5308C-13.3055 83.5308 -16.0127 62.3056 16.2387 24.7808C48.4901 -12.744 62.8909 -8.9229 82.6074 -0.852995C102.324 7.2169 115.639 42.8288 132.996 48.5863C150.353 54.3438 195.473 56.9852 202.18 99.4544C208.887 141.924 157.709 188.341 100.688 202.77C43.6679 217.199 -3.94313 135.325 -8.95804 116.431C-13.9729 97.5368 -13.3055 83.5308 -13.3055 83.5308Z" fill="#FF020C" fill-opacity="0.63"/>
<path d="M85.3945 29.0808C85.3945 29.0808 40.4578 29.0103 25.7609 -8.18555" stroke="#272727" stroke-width="4" stroke-linecap="round" stroke-linejoin="round"/>
<path d="M84.7129 33.5323C84.7129 33.5323 81.6344 33.0341 79.8531 34.0023C72.2955 38.1242 53.19 48.6474 39.1699 33.2503C34.7307 28.2997 32.0062 22.0496 31.4008 15.4279C30.6723 7.98776 29.6571 -4.17114 30.4937 -7.08984" stroke="#272727" stroke-width="4" stroke-linecap="round" stroke-linejoin="round"/>
<path d="M85.5742 38.8805C85.5742 38.8805 40.5999 46.7154 41.8219 -8.00195" stroke="#272727" stroke-width="4" stroke-linecap="round" stroke-linejoin="round"/>
<path d="M86.2773 27.8936L88.5449 28.2051L88.1747 30.9011L85.907 30.5896L86.2773 27.8936Z" fill="#272727" stroke="#272727" stroke-linecap="round" stroke-linejoin="round"/>
<path d="M84.7856 28.2685L86.2012 28.4629L86.0068 29.8784L84.5912 29.684L84.7856 28.2685Z" fill="#272727" stroke="#272727" stroke-linecap="round" stroke-linejoin="round"/>
<path d="M86.2793 32.4718L88.5469 32.7832L88.1766 35.4792L85.909 35.1678L86.2793 32.4718Z" fill="#272727" stroke="#272727" stroke-linecap="round" stroke-linejoin="round"/>
<path d="M84.7876 32.8644L86.2031 33.0586L86.009 34.4741L84.5934 34.28L84.7876 32.8644Z" fill="#272727" stroke="#272727" stroke-linecap="round" stroke-linejoin="round"/>
<path d="M87.3535 37.9854L89.6211 38.2969L89.2508 40.9929L86.9832 40.6814L87.3535 37.9854Z" fill="#272727" stroke="#272727" stroke-linecap="round" stroke-linejoin="round"/>
<path d="M85.8559 38.3781L87.2715 38.5723L87.0773 39.9878L85.6618 39.7937L85.8559 38.3781Z" fill="#272727" stroke="#272727" stroke-linecap="round" stroke-linejoin="round"/>
<path d="M127.093 50.6544C127.093 50.6544 131.413 51.8623 131.615 51.9328C131.817 52.0033 132.028 52.6143 131.685 53.1595C131.342 53.7047 130.661 56.3697 130.661 56.3697C129.969 56.8612 129.211 57.252 128.409 57.5305C127.521 57.7326 125.477 57.9395 125.063 56.7786C124.649 55.6176 124.725 52.5485 125.477 51.726C126.229 50.9035 126.525 50.2596 127.093 50.6544Z" fill="#BABABA" stroke="#272727" stroke-linecap="round" stroke-linejoin="round"/>
<path d="M131.07 51.998C130.268 52.3631 129.513 52.8223 128.819 53.3657C128.067 54.0472 127.931 54.1835 127.879 54.5266C127.695 55.4695 127.603 56.4282 127.606 57.389" fill="#9C9C9C"/>
<path d="M131.07 51.998C130.268 52.3631 129.513 52.8223 128.819 53.3657C128.067 54.0472 127.931 54.1835 127.879 54.5266C127.695 55.4695 127.603 56.4282 127.606 57.389" stroke="#272727" stroke-linecap="round" stroke-linejoin="round"/>
<path d="M127.865 54.527C127.865 54.527 125.478 53.3661 125.478 51.707L127.865 54.527Z" fill="#E5E5E5"/>
<path d="M127.865 54.527C127.865 54.527 125.478 53.3661 125.478 51.707" stroke="#272727" stroke-linecap="round" stroke-linejoin="round"/>
<path d="M107.184 78.4783C107.184 78.4783 109.844 76.1612 112.918 73.0216C115.992 69.882 119.127 65.2384 119.761 63.3208C120.396 61.4032 121.947 55.4718 122.694 53.4226C123.442 51.3734 123.583 49.9446 124.198 49.1926C124.814 48.4406 127.747 47.3502 128.019 47.2139C128.292 47.0776 129.725 46.5982 131.023 46.053C132.32 45.5078 134.092 46.053 132.456 47.7591C131.338 48.8192 129.893 49.4687 128.358 49.6015L126.313 51.3076C126.313 51.3076 125.561 54.8561 125.698 55.7444C125.747 56.2211 125.937 56.6724 126.243 57.0416C126.966 57.1867 127.717 57.0648 128.358 56.6985C129.453 56.0875 130.205 55.1992 132.32 55.7585C134.435 56.3178 133.819 57.944 132.522 58.1461C131.225 58.3482 129.044 58.8981 128.085 60.059C127.126 61.2199 127.813 62.5171 125.834 63.8801C123.855 65.2431 123.376 65.5862 123.376 65.5862C122.471 68.5288 121.826 71.5453 121.449 74.6008C120.904 79.376 120.217 84.4943 115.578 88.6585C110.94 92.8227 108.825 94.1857 107.936 94.0494C107.048 93.9131 106.366 93.5794 106.366 91.8686C106.366 90.1578 107.184 78.4783 107.184 78.4783Z" fill="#9C9C9C"/>
<path d="M119.761 63.3208C119.127 65.2384 115.992 69.882 112.918 73.0216C109.844 76.1612 107.184 78.4783 107.184 78.4783C107.184 78.4783 106.366 90.1578 106.366 91.8686C106.366 93.5794 107.048 93.9131 107.936 94.0494C108.825 94.1857 110.94 92.8227 115.578 88.6585C120.217 84.4943 120.904 79.376 121.449 74.6008C121.826 71.5453 122.471 68.5288 123.376 65.5862M119.761 63.3208C120.396 61.4032 121.947 55.4718 122.694 53.4226C123.442 51.3734 123.583 49.9446 124.198 49.1926C124.814 48.4406 127.747 47.3502 128.019 47.2139C128.292 47.0776 129.725 46.5982 131.023 46.053C132.32 45.5078 134.092 46.053 132.456 47.7591C131.338 48.8192 129.893 49.4687 128.358 49.6015L126.313 51.3076C126.313 51.3076 125.561 54.8561 125.698 55.7444C125.747 56.2211 125.937 56.6724 126.243 57.0416C126.966 57.1867 127.717 57.0648 128.358 56.6985C129.453 56.0875 130.205 55.1992 132.32 55.7585C134.435 56.3178 133.819 57.944 132.522 58.1461C131.225 58.3482 129.044 58.8981 128.085 60.059C127.126 61.2199 127.813 62.5171 125.834 63.8801C123.855 65.2431 123.376 65.5862 123.376 65.5862M119.761 63.3208C120.192 64.2713 121.518 66.0551 123.376 65.5862" stroke="#272727" stroke-linecap="round" stroke-linejoin="round"/>
<path d="M120.23 69.1816C120.23 69.1816 116.94 80.5321 112.377 86.2426C109.406 89.9556 107.31 90.7405 107.31 90.7405" stroke="#272727" stroke-linecap="round" stroke-linejoin="round"/>
<path d="M123.098 66.4591C122.905 67.1265 122.628 68.1417 122.35 69.3731C120.598 69.0869 118.996 68.2134 117.805 66.8962C118.41 65.9938 118.954 65.0516 119.432 64.0762C121.001 65.7024 122.285 66.2664 123.098 66.4591Z" fill="#272727" stroke="#272727" stroke-linecap="round" stroke-linejoin="round"/>
<path d="M128.964 49.5267C128.883 49.0977 128.716 48.6893 128.474 48.326C128.232 47.9627 127.919 47.6517 127.554 47.4117C127.785 47.3177 127.949 47.2519 128.024 47.2237C128.156 47.1579 128.551 47.0169 129.063 46.8242C129.72 47.4445 130.172 48.2516 130.355 49.1366C129.905 49.3089 129.439 49.4395 128.964 49.5267Z" fill="#272727" stroke="#272727" stroke-linecap="round" stroke-linejoin="round"/>
<path d="M128.099 56.8203C127.911 57.2903 127.718 58.2585 128.889 59.3536C128.58 59.5436 128.303 59.7798 128.066 60.0539C127.995 60.141 127.93 60.2338 127.873 60.3312C127.409 59.9407 127.048 59.4419 126.821 58.8788C126.595 58.3157 126.511 57.7056 126.576 57.1023C127.099 57.1367 127.623 57.0398 128.099 56.8203Z" fill="#272727" stroke="#272727" stroke-linecap="round" stroke-linejoin="round"/>
<path d="M124.18 49.2209C124.439 48.9559 124.741 48.7366 125.073 48.5723C125.952 49.0407 126.66 49.7764 127.094 50.6732L126.295 51.3359L126.168 51.9563L126.088 51.9798C126.064 51.8905 125.618 50.0998 123.921 49.6298C123.991 49.4837 124.078 49.3464 124.18 49.2209Z" fill="#272727" stroke="#272727" stroke-linecap="round" stroke-linejoin="round"/>
<path d="M107.203 100.047V104.329C107.203 104.329 107.612 111.877 107.918 115.547C108.223 119.218 107.509 123.805 107.509 123.805C107.509 123.805 109.243 146.342 107.406 153.787C105.568 161.231 104.656 182.927 104.656 182.927L104.247 187.627C104.247 187.627 104.247 189.46 104.755 189.46C105.262 189.46 105.573 189.563 105.695 190.87C105.817 192.176 105.385 193.929 104.877 194.235C104.369 194.54 94.8518 197.327 94.8518 197.327C94.8518 197.327 95.0539 196.387 93.7285 196.308C92.4031 196.228 80.0657 198.958 80.0657 198.958C79.5027 198.292 79.1481 197.475 79.0457 196.608C78.9423 195.283 80.6766 192.632 80.6766 192.632L80.8787 183.862C80.8787 183.862 80.4746 170.199 81.8987 163.365C83.3228 156.531 83.4308 149.091 83.1253 141.543C82.8198 133.995 81.2876 124.717 80.5732 123.19C79.8588 121.662 78.6368 114.114 79.0457 109.32C79.4546 104.526 79.8635 102.491 79.8635 102.491C79.8635 102.491 79.8635 102.063 79.8635 101.513C79.8635 100.963 107.203 100.047 107.203 100.047Z" fill="#272727" stroke="#272727" stroke-linecap="round" stroke-linejoin="round"/>
<path d="M98.7392 100.357C103.439 100.174 107.199 100.047 107.199 100.047V104.131L98.7392 104.211V100.357Z" fill="#A1A1A1" stroke="#272727" stroke-linecap="round" stroke-linejoin="round"/>
<path d="M87.1148 104.318L79.5948 104.389C79.7687 103.091 79.8909 102.509 79.8909 102.509C79.8909 102.509 79.8909 102.081 79.8909 101.531C79.8909 101.343 83.007 101.117 87.1289 100.896L87.1148 104.318Z" fill="#A1A1A1" stroke="#272727" stroke-linecap="round" stroke-linejoin="round"/>
<path d="M96.8027 104.211L88.4414 104.286V100.794C91.0922 100.662 94.0391 100.531 96.8027 100.418V104.211Z" fill="#A1A1A1" stroke="#272727" stroke-linecap="round" stroke-linejoin="round"/>
<path d="M101.902 101.268H106.184V103.918H101.902V101.268Z" fill="#E5E5E5" stroke="#272727" stroke-linecap="round" stroke-linejoin="round"/>
<path d="M101.68 56.6231C101.68 56.6231 108.608 67.2451 108.514 70.662C108.42 74.0789 108.42 79.2536 108.42 79.2536C108.42 79.2536 108.053 95.6049 108.331 96.8034C108.608 98.0019 109.068 100.131 108.697 100.314C108.326 100.498 102.324 100.869 101.031 101.052C99.7389 101.236 81.6345 101.795 79.8814 101.522C78.1283 101.25 77.851 98.8432 77.851 98.1946C77.851 97.546 74.8054 67.2498 74.8054 59.4901C74.8054 51.7304 76.0979 50.4379 78.1283 49.0514C80.1587 47.6649 84.9621 45.7285 84.9621 45.7285L101.68 56.6231Z" fill="#9C9C9C" stroke="#272727" stroke-linecap="round" stroke-linejoin="round"/>
<path d="M83.9099 56.7769C83.9099 56.7769 88.7415 61.8247 88.9624 67.4224C89.1833 73.0201 87.6652 86.3493 87.6652 86.3493C87.6652 86.3493 80.8408 84.3048 78.2652 84.7795C76.4695 85.1675 74.7316 85.7868 73.0952 86.6219C73.0952 86.6219 71.8638 80.9584 72.7521 71.6101C73.6404 62.2618 73.2221 56.321 73.9788 54.2765C74.7355 52.232 76.3711 49.1535 79.3039 49.5765" fill="#9C9C9C"/>
<path d="M83.9099 56.7769C83.9099 56.7769 88.7415 61.8247 88.9624 67.4224C89.1833 73.0201 87.6652 86.3493 87.6652 86.3493C87.6652 86.3493 80.8408 84.3048 78.2652 84.7795C76.4695 85.1675 74.7316 85.7868 73.0952 86.6219C73.0952 86.6219 71.8638 80.9584 72.7521 71.6101C73.6404 62.2618 73.2221 56.321 73.9788 54.2765C74.7355 52.232 76.3711 49.1535 79.3039 49.5765" stroke="#272727" stroke-linecap="round" stroke-linejoin="round"/>
<path d="M99.4053 52.3691L102.418 54.4042L98.9071 56.8999L98.329 55.5651L99.4053 52.3691Z" fill="#E5E5E5" stroke="#272727" stroke-linecap="round" stroke-linejoin="round"/>
<path d="M102.418 54.4043L103.527 59.673L99.9224 56.3454L102.418 54.4043Z" fill="#E5E5E5" stroke="#272727" stroke-linecap="round" stroke-linejoin="round"/>
<path d="M97.0613 55.1465C97.0613 55.1465 99.8343 55.8844 100.666 56.8996C101.498 57.9148 102.236 59.118 102.142 60.4105C102.048 61.703 102.048 62.2576 101.959 62.9015C101.869 63.5454 105.747 73.6175 106.114 80.362C106.48 87.1065 107.5 95.872 107.5 95.872L106.019 99.5662L101.959 93.8698C101.959 93.8698 103.806 81.5887 102.325 72.9971C100.845 64.4055 100.112 62.925 100.112 62.925C99.2084 62.283 98.4785 61.4272 97.9872 60.434C97.3211 59.198 96.5473 58.0231 95.6748 56.9231L97.0613 55.1465Z" fill="#41BF47" stroke="#272727" stroke-linecap="round" stroke-linejoin="round"/>
<path d="M110.192 27.4553C110.192 27.4553 111.48 27.5258 112.34 25.5753C113.2 23.6248 112.481 22.9997 111.978 23.3569C111.475 23.7141 111.123 24.0008 111.123 24.0008C111.123 24.0008 112.063 21.2842 109.976 19.7708C107.889 18.2574 108.096 20.3442 108.096 20.3442C108.096 20.3442 108.312 19.7003 105.45 18.1258C102.587 16.5513 101.159 16.3351 97.864 16.9085C94.5693 17.4819 93.9301 18.7885 93.9301 18.7885C93.9301 18.7885 97.2201 18.0036 98.9403 20.2925C100.66 22.5814 101.159 24.2264 102.014 25.4625C103.001 26.9043 104.455 27.9617 106.131 28.4564C108.044 29.011 110.192 27.4553 110.192 27.4553Z" fill="#272727" stroke="#272727" stroke-linecap="round" stroke-linejoin="round"/>
<path d="M110.191 27.4541C110.191 27.4541 109.764 36.1867 108.904 38.3299C108.261 39.7934 107.392 41.1464 106.328 42.339C106.328 42.339 104.965 47.2035 103.823 47.8474C102.681 48.4913 100.815 47.9179 100.815 47.9179C100.815 47.9179 98.526 55.5742 98.0983 55.6494C97.6706 55.7246 86.8653 44.6984 86.8653 44.6984C86.8653 44.6984 88.5808 40.1206 88.5808 39.9044C88.5808 39.6882 87.4387 31.8909 87.7959 28.8124C88.1531 25.7339 89.3704 21.1561 92.0259 19.2996C94.6814 17.4431 97.7505 18.0118 100.18 19.6568C102.61 21.3018 103.903 26.453 103.903 26.453L106.601 28.1685L110.191 27.4541Z" fill="#E5E5E5" stroke="#272727" stroke-linecap="round" stroke-linejoin="round"/>
<path d="M87.8013 28.8124C88.1585 25.7386 89.3758 21.1561 92.0313 19.2996C94.6868 17.4431 97.7559 18.0118 100.186 19.6568C102.616 21.3018 103.908 26.453 103.908 26.453C103.908 26.453 102.907 24.808 98.3998 24.5213C98.3998 24.5213 97.253 33.6816 97.112 35.6838C96.971 37.686 98.992 38.8328 98.992 39.8339C98.992 40.835 97.9862 44.6279 97.9157 45.2718C97.8452 45.9157 100.848 47.9179 100.848 47.9179C100.848 47.9179 98.7946 55.4943 98.3622 55.5648C97.9298 55.6353 86.8613 44.6984 86.8613 44.6984C86.8613 44.6984 88.5768 40.1206 88.5768 39.9044C88.5768 39.6882 87.4394 31.8909 87.8013 28.8124Z" fill="#E5E5E5" stroke="#272727" stroke-linecap="round" stroke-linejoin="round"/>
<path d="M92.0313 19.2996C94.6774 17.4196 97.7559 18.0118 100.186 19.6568C102.616 21.3018 103.908 26.4531 103.908 26.4531C103.908 26.4531 100.115 23.304 94.3202 25.0947C90.0291 26.4202 88.4828 27.3132 87.9705 27.6845C88.4546 24.7094 89.6813 20.9399 92.0313 19.2996Z" fill="#BABABA" stroke="#272727" stroke-linecap="round" stroke-linejoin="round"/>
<path d="M100.816 47.9181C100.816 47.9181 93.3763 42.9126 93.0896 41.4086C92.8029 39.9046 92.6619 35.9707 92.6619 35.9707" stroke="#272727" stroke-linecap="round" stroke-linejoin="round"/>
<path d="M87.1485 43.416L99.1758 53.1074" stroke="#272727" stroke-linecap="round" stroke-linejoin="round"/>
<path d="M100.078 50.6176L88.2012 40.9355" stroke="#272727" stroke-linecap="round" stroke-linejoin="round"/>
<path d="M92.877 40.836L88.5811 39.9054L88.4401 38.9043H92.7313L92.877 40.836Z" stroke="#272727" stroke-linecap="round" stroke-linejoin="round"/>
<path d="M89.5133 32.4278C89.5133 34.383 90.8246 35.9716 92.4461 35.9716C94.0676 35.9716 95.3789 34.383 95.3789 32.4278C95.3789 30.4726 94.0676 28.8887 92.4461 28.8887C90.8246 28.8887 89.5133 30.4726 89.5133 32.4278Z" fill="#272727" stroke="#272727" stroke-linecap="round" stroke-linejoin="round"/>
<path d="M91.255 32.4263C91.255 33.5026 91.9459 34.3721 92.8013 34.3721C93.6568 34.3721 94.3477 33.5026 94.3477 32.4263C94.3477 31.35 93.6568 30.4805 92.8013 30.4805C91.9459 30.4805 91.255 31.3594 91.255 32.4263Z" fill="#0A431A" stroke="#272727" stroke-linecap="round" stroke-linejoin="round"/>
<path d="M91.975 30.0254C91.4915 30.206 91.0783 30.5365 90.7959 30.9686C90.5135 31.4006 90.3766 31.9117 90.4052 32.4271C90.4052 33.6538 91.1431 34.669 92.1113 34.8617" stroke="#41BF47" stroke-linecap="round" stroke-linejoin="round"/>
<path d="M103.25 39.2608L105.756 40.0504L106.042 33.6819L107.043 32.1074C107.043 32.1074 108.759 32.1074 109.262 32.8923" stroke="#272727" stroke-linecap="round" stroke-linejoin="round"/>
<path d="M104.684 42.6978C104.684 42.6978 102.677 42.5521 101.676 41.4805" stroke="#272727" stroke-linecap="round" stroke-linejoin="round"/>
<path d="M100.397 33.6393C100.289 34.2221 100.468 34.7438 100.797 34.8049C101.126 34.866 101.483 34.4477 101.596 33.8649C101.708 33.2821 101.525 32.7604 101.196 32.6993C100.867 32.6382 100.491 33.0565 100.397 33.6393Z" fill="#272727"/>
<path d="M106.602 35.1203C106.494 35.7031 106.673 36.2295 107.002 36.2906C107.331 36.3517 107.688 35.9334 107.801 35.3506C107.913 34.7678 107.73 34.2461 107.401 34.1803C107.072 34.1145 106.701 34.561 106.602 35.1203Z" fill="#272727"/>
<path d="M104.111 31.6752C104.111 31.6752 101.179 30.2652 98.8849 30.8903" stroke="#272727" stroke-linecap="round" stroke-linejoin="round"/>
<path d="M85.4233 41.4746L97.0605 54.4983L94.3815 58.5638L83.2989 44.8915L85.4233 41.4746Z" fill="#E5E5E5" stroke="#272727" stroke-linecap="round" stroke-linejoin="round"/>
<path d="M87.1852 86.8765C87.1852 86.8765 88.2098 90.2887 87.1852 93.2215C86.1607 96.1543 82.2738 97.522 78.1096 96.0885C73.9454 94.655 73.8091 91.6517 73.6728 89.8093C73.5365 87.9669 73.0571 88.3993 73.2639 87.5956C73.4707 86.7919 81.2492 83.1212 87.1852 86.8765Z" fill="#9C9C9C" stroke="#272727" stroke-linecap="round" stroke-linejoin="round"/>
<path d="M81.4374 78.8906C81.4374 78.8906 83.4256 83.4073 83.717 83.6987C84.0084 83.9901 85.9119 84.1123 86.2879 84.4037C86.6699 84.728 87.1246 84.9553 87.6133 85.0664C88.735 85.4507 89.943 85.5078 91.096 85.2309C92.7504 84.7609 92.036 87.7595 89.4369 88.1731C86.8378 88.5867 86.6169 88.1308 84.8779 87.6749C83.1389 87.219 81.851 88.0932 80.9815 88.3799C80.112 88.6666 78.9934 88.2154 78.0816 88.1731C77.0662 88.1476 76.056 88.3266 75.1112 88.6995C73.9127 89.1131 73.3299 89.1695 72.7941 88.5726C72.4795 88.2484 72.2474 87.8533 72.1173 87.4206C71.9873 86.9879 71.9631 86.5303 72.0468 86.0863C72.2113 84.9254 74.0772 83.3086 75.9008 82.2323C77.7244 81.156 80.3752 79.8306 80.3752 79.8306L81.4374 78.8906Z" fill="#9C9C9C" stroke="#272727" stroke-linecap="round" stroke-linejoin="round"/>
<path d="M86.2871 84.4041C85.8754 84.8375 85.5678 85.359 85.3878 85.9291C85.2079 86.4992 85.1602 87.1028 85.2484 87.6941L84.3789 87.5719C84.3789 87.5719 84.0076 84.7942 85.2061 84.1738C85.2061 84.155 85.9957 84.0704 86.2871 84.4041Z" fill="#272727" stroke="#272727" stroke-linecap="round" stroke-linejoin="round"/>
<path d="M72.0703 86.102C72.2348 84.9411 74.1007 83.3243 75.9243 82.248C77.7479 81.1717 80.3987 79.8463 80.3987 79.8463L81.4374 78.9062C81.4374 78.9062 82.5607 81.4584 83.2422 82.8496C82.8944 83.4277 82.0437 84.5744 80.6901 84.7906C78.8665 85.082 78.4529 84.2126 77.292 85.3312C76.1311 86.4498 74.143 87.8974 72.6484 88.0243H72.3899C72.0607 87.441 71.9475 86.7604 72.0703 86.102Z" fill="#272727" stroke="#272727" stroke-linecap="round" stroke-linejoin="round"/>
<path d="M78.7114 78.9474C78.7287 78.6345 78.8471 78.3356 79.0488 78.0958C79.2506 77.8559 79.5247 77.688 79.83 77.6173C80.0671 77.5698 80.313 77.5946 80.5359 77.6884C80.7588 77.7823 80.9484 77.9409 81.0801 78.1437C82.0953 79.4409 81.7287 81.3773 81.5501 82.2092C81.3715 83.0411 80.9062 84.4276 79.8864 84.1503C78.8665 83.873 78.5939 83.4124 78.5939 81.7486C78.5845 80.7099 78.655 79.6383 78.7114 78.9474Z" fill="#9C9C9C" stroke="#272727" stroke-linecap="round" stroke-linejoin="round"/>
<path d="M75.2289 80.3575C75.247 80.0449 75.3657 79.7464 75.5673 79.5067C75.7689 79.267 76.0426 79.0989 76.3475 79.0274C76.5846 78.9799 76.8306 79.0047 77.0535 79.0986C77.2764 79.1924 77.466 79.351 77.5977 79.5538C78.6129 80.8463 78.2463 82.7874 78.0677 83.6193C77.8891 84.4512 77.4238 85.8377 76.4086 85.5604C75.3934 85.2831 75.1161 84.8178 75.1161 83.1587C75.1114 82.12 75.1725 81.0484 75.2289 80.3575Z" fill="#9C9C9C" stroke="#272727" stroke-linecap="round" stroke-linejoin="round"/>
<path d="M71.9868 83.6561C71.9868 83.6561 70.6191 83.4493 70.5768 84.6525C70.5345 85.8557 70.2478 88.7556 71.1596 88.9201C72.0714 89.0846 72.2782 88.6287 72.2782 88.0083C72.282 87.5918 72.3103 87.176 72.3628 86.7628L72.4004 83.7407L71.9868 83.6561Z" fill="#9C9C9C" stroke="#272727" stroke-linecap="round" stroke-linejoin="round"/>
<path d="M72.2588 83.1216C72.2736 82.8559 72.3727 82.602 72.5418 82.3966C72.7108 82.1912 72.941 82.0451 73.1988 81.9795C73.4047 81.9401 73.6177 81.9639 73.8098 82.0477C74.0019 82.1316 74.1641 82.2717 74.2751 82.4495C75.1493 83.5634 74.8344 85.2319 74.6746 85.9463C74.5148 86.6607 74.12 87.8544 73.2646 87.6147C72.4092 87.3751 72.1507 86.9802 72.1507 85.5467C72.1507 84.6538 72.2118 83.7185 72.2588 83.1216Z" fill="#9C9C9C" stroke="#272727" stroke-linecap="round" stroke-linejoin="round"/>
<path d="M37.5618 114.287H45.9701L50.1719 121.567L45.9701 128.852H37.5618L33.3553 121.567L37.5618 114.287Z" fill="#263238"/>
<path d="M129.71 117.65H177.387V123.648H129.71V117.65Z" stroke="#263238" stroke-miterlimit="10"/>
<path d="M153.548 117.65H177.387V123.648H153.548V117.65Z" fill="#41BF47" stroke="#263238" stroke-miterlimit="10"/>
<path d="M156.843 115.018C157.049 115.028 157.253 114.979 157.431 114.877C157.584 114.779 157.698 114.631 157.755 114.459C157.83 114.243 157.865 114.015 157.859 113.787H157.445C157.448 113.945 157.431 114.103 157.393 114.257C157.365 114.38 157.297 114.49 157.201 114.572C157.091 114.649 156.958 114.687 156.825 114.68C156.752 114.687 156.678 114.679 156.609 114.656C156.539 114.633 156.475 114.597 156.42 114.548C156.321 114.438 156.257 114.3 156.237 114.153C156.2 113.944 156.183 113.731 156.185 113.519C156.179 113.295 156.2 113.071 156.246 112.851C156.269 112.713 156.339 112.587 156.444 112.494C156.549 112.414 156.679 112.374 156.81 112.381C156.927 112.381 157.042 112.416 157.139 112.48C157.248 112.553 157.338 112.649 157.403 112.762H157.746V110.412H155.969V110.802H157.379V112.386C157.304 112.296 157.211 112.223 157.107 112.17C156.973 112.107 156.826 112.076 156.679 112.081C156.484 112.071 156.293 112.131 156.138 112.25C155.992 112.371 155.888 112.536 155.842 112.72C155.776 112.965 155.744 113.218 155.748 113.472C155.746 113.692 155.765 113.913 155.805 114.13C155.836 114.296 155.898 114.456 155.988 114.6C156.067 114.729 156.181 114.833 156.317 114.901C156.479 114.985 156.661 115.026 156.843 115.018Z" fill="#41BF47"/>
<path d="M154.07 115.02C154.298 115.03 154.523 114.97 154.714 114.846C154.874 114.729 154.992 114.564 155.053 114.376C155.125 114.151 155.16 113.916 155.156 113.68V111.697C155.159 111.459 155.123 111.222 155.048 110.997C154.986 110.808 154.866 110.643 154.705 110.527C154.52 110.392 154.298 110.32 154.07 110.32C153.843 110.308 153.618 110.367 153.426 110.489C153.268 110.607 153.15 110.771 153.088 110.959C153.015 111.185 152.98 111.422 152.985 111.659V113.643C152.981 113.88 153.014 114.116 153.083 114.343C153.144 114.531 153.262 114.696 153.422 114.813C153.61 114.951 153.837 115.023 154.07 115.02ZM154.07 114.691C153.922 114.7 153.776 114.653 153.661 114.559C153.561 114.462 153.491 114.338 153.459 114.202C153.418 114.039 153.398 113.872 153.398 113.704V111.659C153.398 111.491 153.418 111.324 153.459 111.161C153.489 111.026 153.56 110.903 153.661 110.809C153.78 110.723 153.922 110.677 154.068 110.677C154.214 110.677 154.356 110.723 154.474 110.809C154.576 110.903 154.646 111.026 154.677 111.161C154.72 111.323 154.741 111.491 154.738 111.659V113.704C154.741 113.872 154.72 114.04 154.677 114.202C154.645 114.339 154.573 114.464 154.47 114.559C154.356 114.647 154.213 114.687 154.07 114.672V114.691Z" fill="#41BF47"/>
<path d="M151.677 112.669C151.78 112.679 151.883 112.661 151.977 112.618C152.071 112.575 152.152 112.509 152.213 112.425C152.323 112.232 152.377 112.012 152.368 111.79V111.151C152.379 110.93 152.325 110.711 152.213 110.521C152.151 110.439 152.069 110.375 151.975 110.335C151.881 110.294 151.778 110.279 151.677 110.291C151.576 110.28 151.473 110.295 151.38 110.335C151.286 110.374 151.204 110.437 151.141 110.516C151.029 110.705 150.975 110.922 150.986 111.142V111.804C150.976 112.023 151.03 112.241 151.141 112.429C151.201 112.513 151.283 112.579 151.377 112.621C151.471 112.663 151.574 112.68 151.677 112.669ZM151.677 112.349C151.642 112.352 151.606 112.347 151.573 112.335C151.54 112.322 151.509 112.304 151.484 112.279C151.435 112.223 151.402 112.155 151.39 112.082C151.37 111.992 151.361 111.901 151.362 111.809V111.137C151.357 111.007 151.378 110.878 151.423 110.756C151.446 110.709 151.482 110.67 151.527 110.644C151.573 110.618 151.625 110.606 151.677 110.61C151.73 110.605 151.783 110.617 151.828 110.644C151.874 110.671 151.91 110.712 151.931 110.761C151.976 110.882 151.997 111.012 151.992 111.142V111.809C151.993 111.902 151.983 111.995 151.963 112.086C151.949 112.157 151.916 112.224 151.869 112.279C151.844 112.304 151.814 112.322 151.781 112.335C151.747 112.347 151.712 112.352 151.677 112.349ZM151.432 114.944L149.985 110.338H149.623L151.061 114.944H151.432ZM149.388 114.977C149.49 114.987 149.593 114.97 149.687 114.927C149.78 114.884 149.86 114.817 149.919 114.732C150.031 114.54 150.085 114.32 150.074 114.098V113.468C150.086 113.246 150.032 113.025 149.919 112.834C149.858 112.753 149.776 112.689 149.683 112.649C149.59 112.609 149.489 112.593 149.388 112.603C149.287 112.593 149.185 112.608 149.091 112.647C148.997 112.687 148.915 112.749 148.852 112.829C148.735 113.015 148.679 113.234 148.692 113.454V114.107C148.682 114.329 148.735 114.55 148.847 114.742C148.908 114.821 148.987 114.884 149.078 114.925C149.17 114.966 149.269 114.984 149.369 114.977H149.388ZM149.388 114.662C149.351 114.664 149.315 114.659 149.281 114.646C149.247 114.633 149.216 114.613 149.19 114.587C149.14 114.534 149.107 114.466 149.096 114.394C149.077 114.304 149.067 114.213 149.068 114.121V113.449C149.065 113.319 149.087 113.19 149.134 113.069C149.154 113.019 149.19 112.978 149.236 112.951C149.282 112.924 149.335 112.912 149.388 112.918C149.441 112.913 149.494 112.925 149.539 112.952C149.585 112.979 149.621 113.02 149.642 113.069C149.685 113.191 149.705 113.32 149.703 113.449V114.121C149.704 114.213 149.694 114.304 149.675 114.394C149.66 114.466 149.626 114.533 149.576 114.587C149.55 114.615 149.518 114.637 149.482 114.651C149.446 114.664 149.407 114.668 149.369 114.662H149.388Z" fill="#41BF47"/>
<path d="M36.2879 78.4863H58.3262V94.2266H36.2879V78.4863Z" stroke="#41BF47" stroke-miterlimit="10"/>
<path d="M41.9936 63.3809H52.625V70.976H41.9936V63.3809Z" stroke="#41BF47" stroke-miterlimit="10"/>
<path d="M47.6719 78.2422V70.7363" stroke="#41BF47" stroke-miterlimit="10"/>
<path d="M47.6719 101.973V94.4668" stroke="#41BF47" stroke-miterlimit="10"/>
<path d="M44.933 108.348C43.4206 106.835 43.4206 104.383 44.933 102.871C46.4454 101.358 48.8975 101.358 50.41 102.871C51.9224 104.383 51.9224 106.835 50.41 108.348C48.8975 109.86 46.4454 109.86 44.933 108.348Z" stroke="#41BF47" stroke-miterlimit="10"/>
<path d="M32.4378 74.125H40.4043V78.2422" stroke="#41BF47" stroke-miterlimit="10"/>
<path d="M23.2168 98.4616H16.9141V74.125H23.2168" stroke="#41BF47" stroke-miterlimit="10"/>
<path d="M40.4043 94.2266V98.4613H32.4378" stroke="#41BF47" stroke-miterlimit="10"/>
<path d="M23.0811 71.2637H32.5234V77.0776H23.0811V71.2637Z" stroke="#41BF47" stroke-miterlimit="10"/>
<path d="M23.0811 83.1016H32.5234V88.9155H23.0811V83.1016Z" stroke="#41BF47" stroke-miterlimit="10"/>
<path d="M23.0811 94.9414H32.5234V100.755H23.0811V94.9414Z" stroke="#41BF47" stroke-miterlimit="10"/>
<path d="M27.6211 77.3203V83.1013" stroke="#41BF47" stroke-miterlimit="10"/>
<path d="M27.6211 89.0234V94.8044" stroke="#41BF47" stroke-miterlimit="10"/>
<path d="M96.293 81.0352V74.8359H65.1226V98.1197H96.293V87.9818" stroke="#41BF47" stroke-miterlimit="10"/>
<path d="M63.2478 70.7037C59.6189 70.7037 56.6772 67.7619 56.6772 64.1331C56.6772 60.5043 59.6189 57.5625 63.2478 57.5625C66.8766 57.5625 69.8184 60.5043 69.8184 64.1331C69.8184 67.7619 66.8766 70.7037 63.2478 70.7037Z" stroke="#41BF47" stroke-miterlimit="10"/>
<path d="M94.6863 87.1695C93.2674 85.6711 93.3318 83.3062 94.8302 81.8872C96.3286 80.4683 98.6935 80.5327 100.112 82.0311C101.531 83.5295 101.467 85.8944 99.9686 87.3133C98.4702 88.7323 96.1053 88.6679 94.6863 87.1695Z" stroke="#41BF47" stroke-miterlimit="10"/>
<path d="M67.1905 69.7637L70.7578 75.211" stroke="#41BF47" stroke-miterlimit="10"/>
<path d="M72.4492 103.189H62.8706" stroke="#41BF47" stroke-miterlimit="10"/>
<path d="M72.4492 105.348H62.8706" stroke="#41BF47" stroke-miterlimit="10"/>
<path d="M72.4492 107.51H62.8706" stroke="#41BF47" stroke-miterlimit="10"/>
<path d="M72.4492 109.668H62.8706" stroke="#41BF47" stroke-miterlimit="10"/>
<path d="M72.4492 111.828H62.8706" stroke="#41BF47" stroke-miterlimit="10"/>
<path d="M52.3574 81.7812H42.7788" stroke="#41BF47" stroke-miterlimit="10"/>
<path d="M52.3574 83.9434H42.7788" stroke="#41BF47" stroke-miterlimit="10"/>
<path d="M52.3574 86.0996H42.7788" stroke="#41BF47" stroke-miterlimit="10"/>
<path d="M52.3574 88.2637H42.7788" stroke="#41BF47" stroke-miterlimit="10"/>
<path d="M52.3574 90.4199H42.7788" stroke="#41BF47" stroke-miterlimit="10"/>
<path d="M136.888 73.9373C131.624 73.9373 127.357 62.8415 127.357 49.1542C127.357 35.4669 131.624 24.3711 136.888 24.3711C142.152 24.3711 146.42 35.4669 146.42 49.1542C146.42 62.8415 142.152 73.9373 136.888 73.9373Z" stroke="#9C9C9C" stroke-miterlimit="10"/>
<path d="M136.888 66.5401C133.194 66.5401 130.2 58.7565 130.2 49.1548C130.2 39.5532 133.194 31.7695 136.888 31.7695C140.582 31.7695 143.576 39.5532 143.576 49.1548C143.576 58.7565 140.582 66.5401 136.888 66.5401Z" stroke="#9C9C9C" stroke-miterlimit="10"/>
<path d="M158.471 49.1539C158.471 53.6236 159.881 57.2473 161.582 57.2473C163.283 57.2473 164.693 53.6236 164.693 49.1539C164.693 44.6842 163.283 41.0605 161.582 41.0605C159.881 41.0605 158.471 44.6842 158.471 49.1539Z" stroke="#9C9C9C" stroke-miterlimit="10"/>
<path d="M157.625 55.9453H148.046" stroke="#9C9C9C" stroke-miterlimit="10"/>
<path d="M157.625 58.1074H148.046" stroke="#9C9C9C" stroke-miterlimit="10"/>
<path d="M157.625 60.2656H148.046" stroke="#9C9C9C" stroke-miterlimit="10"/>
<path d="M157.625 62.4219H148.046" stroke="#9C9C9C" stroke-miterlimit="10"/>
<path d="M157.625 64.584H148.046" stroke="#9C9C9C" stroke-miterlimit="10"/>
<path d="M136.498 50.3477H158.334" stroke="#9C9C9C" stroke-miterlimit="10"/>
<path d="M136.887 66.5449V94.6415H150.428" stroke="#9C9C9C" stroke-miterlimit="10"/>
<path d="M150.433 89.9688H161.803V97.7567H150.433V89.9688Z" stroke="#9C9C9C" stroke-miterlimit="10"/>
<path d="M150.433 78.4395H161.803V86.2274H150.433V78.4395Z" stroke="#9C9C9C" stroke-miterlimit="10"/>
<path d="M150.428 82.1816H137.033" stroke="#9C9C9C" stroke-miterlimit="10"/>
</g>
<defs>
<clipPath id="clip0_907_61485">
<rect width="235" height="235" fill="white" transform="matrix(-1 0 0 1 210 -10)"/>
</clipPath>
</defs>
</svg>
