<svg width="174" height="129" viewBox="0 0 174 129" fill="none" xmlns="http://www.w3.org/2000/svg">
<path d="M76.4433 80.934L69.7733 82.8014C70.3533 84.4938 70.8173 87.5283 70.8173 91.6133V111.688H78.2993V90.4462C79.6913 88.7538 81.1993 87.9368 82.8233 87.9368C83.6353 87.9368 84.2733 88.1119 84.9693 88.5204L86.9993 81.5759C85.8393 81.0507 85.3173 80.934 84.2153 80.934C83.4033 80.934 82.4173 81.109 81.7793 81.4008C80.3873 82.1011 78.6473 83.6768 77.5453 85.194C77.5453 83.5017 77.1393 82.1595 76.4433 80.934ZM50.6913 71.0133H49.8793V111.63H57.6513V93.6558H67.4533V86.9448H57.6513V77.6076H69.8893L70.3533 74.0478C62.9873 73.5226 56.3173 72.3555 50.6913 71.0133ZM32.5373 117.057L36.1333 121.259C39.6133 119.858 43.9633 116.707 45.1233 111.688C45.5293 110.054 45.6453 109.004 45.6453 103.693V71.0716H37.8153V104.569C37.8153 108.945 37.6413 110.579 37.0613 112.097C36.3073 113.789 34.5093 115.773 32.5373 117.057ZM103.123 96.457C103.123 103.577 101.731 106.611 98.5413 106.611C97.0913 106.611 95.4673 105.794 94.7713 104.16C94.1913 102.643 93.8433 100.075 93.8433 96.5737C93.8433 93.5975 94.1333 91.4966 94.5973 89.8626C95.1773 87.9952 96.6273 86.828 98.4253 86.828C99.7593 86.828 100.919 87.4116 101.615 88.4037C102.659 89.8043 103.123 92.4303 103.123 96.457ZM107.705 108.128C110.141 105.211 111.243 101.651 111.243 96.5153C111.243 91.6717 110.257 88.3453 107.995 85.5442C105.559 82.5096 102.427 81.0507 98.3673 81.0507C90.7113 81.0507 85.6073 87.2949 85.6073 96.7488C85.6073 106.203 90.6533 112.272 98.3673 112.272C102.717 112.33 105.559 110.696 107.705 108.128ZM128.933 91.3215C128.933 94.0643 127.309 95.5816 124.409 95.5816C121.799 95.5816 120.059 94.3561 120.059 91.3215C120.059 88.5204 121.683 86.8864 124.467 86.8864C127.251 86.8864 128.933 88.5204 128.933 91.3215ZM142.099 84.9023L139.025 79.9419C137.285 81.5759 135.197 82.5096 133.167 82.5096C132.239 82.5096 131.717 82.3929 129.687 81.8677C127.657 81.2841 126.207 81.109 124.583 81.109C117.333 81.109 112.635 85.0773 112.635 91.2632C112.635 95.6983 114.607 98.4995 118.725 99.6083C117.043 100.017 115.245 100.892 114.433 101.884C113.853 102.584 113.563 103.518 113.563 104.627C113.563 105.561 113.795 106.378 114.143 107.078C114.549 107.72 115.071 108.245 115.767 108.537C117.101 109.062 119.247 109.412 122.553 109.471C124.293 109.471 125.337 109.529 125.685 109.529C127.715 109.646 128.759 109.996 129.571 110.404C130.325 110.871 130.905 111.922 130.905 113.089C130.905 114.256 130.209 115.423 129.107 116.123C128.121 116.824 126.497 117.115 124.409 117.115C120.987 117.115 119.073 115.832 119.073 113.439C119.073 112.388 119.189 112.155 119.421 111.513H112.577C112.287 112.097 111.939 112.914 111.939 114.548C111.939 116.59 112.693 118.341 114.259 119.858C116.811 122.368 120.987 123.068 124.989 123.068C129.397 123.068 133.689 122.017 136.183 119.216C137.749 117.466 138.445 115.54 138.445 113.03C138.445 110.346 137.691 108.303 136.009 106.611C134.037 104.685 131.775 103.985 127.425 103.927L123.423 103.868C122.669 103.868 122.205 103.577 122.205 103.168C122.205 102.351 123.249 101.651 125.163 100.717C125.743 100.775 125.917 100.775 126.265 100.775C132.297 100.775 136.705 97.0406 136.705 91.8468C136.705 89.8626 136.125 88.3453 135.023 86.9448C135.951 87.0615 136.241 87.1198 136.937 87.1198C138.909 87.1198 140.475 86.4779 142.099 84.9023ZM48.7193 35.7072C39.4393 37.9831 33.1173 42.4766 33.1173 47.612C33.1173 50.8217 35.5533 53.7395 39.5553 56.0155C38.3373 54.0897 37.6993 51.9888 37.6993 49.888C37.7573 44.5775 41.8753 39.6171 48.7193 35.7072ZM146.623 55.8404C146.623 52.4557 144.535 49.3628 141.055 46.795C141.345 47.8455 141.577 48.8959 141.577 49.9463C141.577 59.5753 128.179 67.862 109.155 71.305C111.301 71.5385 113.505 71.6552 115.825 71.6552C132.819 71.5968 146.623 64.5356 146.623 55.8404ZM135.661 50.5883C135.661 47.0285 132.645 43.7605 127.483 41.076C128.701 42.535 129.339 44.1106 129.339 45.7446C129.339 54.3231 111.243 61.2676 88.8553 61.2676C66.5253 61.2676 48.3713 54.3231 48.3713 45.7446C48.3713 44.6358 48.6613 43.5854 49.2413 42.5933C45.6453 44.986 43.6153 47.7288 43.6153 50.6466C43.6153 59.9254 64.2053 67.4535 89.6093 67.4535C115.013 67.4535 135.661 59.8087 135.661 50.5883ZM115.593 50.1214C106.197 56.1905 77.3133 58.5248 64.9013 50.705C55.1573 44.5775 58.5213 34.8318 30.6233 13.4731C26.9693 10.672 31.3193 7.69576 34.0453 9.62154C36.7713 11.5473 34.2773 12.0142 39.7873 17.5581C50.9233 28.7627 50.8073 18.6669 52.5473 22.5185C56.2593 30.5134 64.3793 38.5667 64.3793 38.5667C72.5573 43.9355 79.0533 45.1027 91.1173 36.8743C98.7733 31.6805 95.6413 45.161 114.375 35.4154C121.219 31.8556 120.929 34.2483 127.889 24.5026C130.789 20.476 136.299 27.5955 130.035 28.5876C127.541 28.9961 123.307 31.7389 121.509 36.0573C118.899 42.535 120.001 47.3203 115.593 50.1214ZM63.5093 33.6647C61.1893 32.6143 58.7533 28.646 57.8253 27.0703C60.4353 24.5026 59.3913 20.2425 57.8833 17.9083C56.4333 15.574 54.6353 16.2159 52.7213 14.0567C50.7493 11.8975 53.4753 6.29519 55.9693 10.6136C65.3073 26.7785 71.4553 20.0675 79.0533 19.0754C86.3613 18.1417 92.8573 22.1683 94.8293 10.7887C95.1773 8.92126 96.9753 8.51276 97.1493 11.5473C97.3233 14.6403 98.4833 22.11 102.485 23.0437C106.487 24.0358 109.735 22.11 110.663 21.0595C111.591 20.0091 112.113 20.1258 112.519 22.8103C112.925 25.4363 113.969 29.1128 119.595 25.0278C131.137 16.7411 127.831 13.5315 132.355 11.3723C134.907 10.1468 138.967 14.115 133.109 17.0913C124.757 21.3513 123.887 26.6035 118.609 29.9298C109.735 35.5321 112.461 30.1633 98.1933 28.1208C92.6833 27.3621 90.9433 33.4896 86.6513 31.7389C76.8493 27.6539 69.9473 28.4709 63.5093 33.6647ZM94.4233 3.72747C94.7713 6.17847 95.1773 6.12011 96.0473 6.29519C96.9173 6.52861 98.0193 5.12804 98.0193 3.84418C98.0773 2.50197 97.4393 1.68497 96.1633 1.74333C94.8293 1.80169 94.3653 2.44361 94.4233 3.72747ZM137.343 8.10426C138.387 9.09633 141.171 8.4544 141.809 7.69576C143.491 5.82833 143.549 4.71954 142.679 3.43568C141.809 2.21018 140.011 2.38526 138.213 3.72747C136.415 5.06968 136.763 7.57904 137.343 8.10426ZM136.589 20.476C135.719 21.6431 135.661 22.5185 136.299 23.1604C136.995 23.8607 138.387 24.4443 139.373 23.6856C140.359 22.8686 140.359 21.7015 139.547 20.7094C138.677 19.659 137.517 19.659 136.589 20.476ZM48.5453 5.88668C49.8793 6.29518 50.5173 7.57904 51.6193 6.12011C52.1993 5.41983 52.2573 4.42776 51.5033 3.37733C51.0393 2.7354 48.8353 2.26854 47.9073 3.20226C46.9793 4.13597 47.8493 5.65326 48.5453 5.88668ZM21.3433 5.06969C23.7793 6.58697 25.3453 8.8629 27.2013 6.8204C27.8393 6.12011 28.5933 4.89461 27.2593 2.44361C26.2733 0.634543 23.0833 -0.0657442 21.9813 0.634542C20.8213 1.27647 19.4293 3.90254 21.3433 5.06969ZM43.7893 16.6828C44.5433 17.4998 45.8773 17.4414 46.6893 16.9745C47.4433 16.5077 47.3273 15.2822 46.5733 14.2318C46.1093 13.5898 44.7173 13.2397 43.7893 14.2318C42.8613 15.2238 43.2673 16.0992 43.7893 16.6828Z" fill="#41BF47"/>
</svg>
