<svg width="42" height="30" viewBox="0 0 42 30" fill="none" xmlns="http://www.w3.org/2000/svg">
<path d="M21.4964 3.56804V2.28402V1H20.1229H18.7495V2.28402V3.56804H20.1229H21.4964Z" stroke="#9C9C9C"/>
<path d="M12.3398 7.8481V6.56408V5.28006H10.9664H9.59286V6.56408V7.8481H10.9664H12.3398Z" stroke="#9C9C9C"/>
<path d="M16.9181 7.8481V6.56408V5.28006H15.5447H14.1712V6.56408V7.8481H15.5447H16.9181Z" stroke="#9C9C9C"/>
<path d="M21.4964 7.8481V6.60688V5.36566H20.1229H18.7495V6.60688V7.8481H20.1229H21.4964Z" stroke="#9C9C9C"/>
<path d="M35.5102 12.1859C35.2812 11.3488 34.9717 10.8122 34.3437 10.1635C34.0737 9.88455 33.6901 9.53589 33.4913 9.38866L33.1298 9.12107L32.9437 9.40475C31.9603 10.9041 31.856 13.4903 32.7169 15.0294C33.2167 15.9231 32.8366 16.3514 31.0973 16.8542L30.4241 17.0488L15.7278 17.0923L1.03144 17.1358L1.00461 17.9059C0.932368 19.9831 1.71242 22.403 3.07382 24.3252C3.64547 25.1324 4.96658 26.3976 5.80075 26.9367C7.17012 27.8217 8.97177 28.4864 10.829 28.7919C12.4289 29.055 15.7667 29.0713 17.7422 28.8255C24.4308 27.9936 29.5431 25.1434 32.8754 20.3887C33.1724 19.9649 33.7633 18.958 34.1883 18.1511C34.8212 16.9498 35.0065 16.668 35.2108 16.5959C35.348 16.5474 35.8895 16.4847 36.4141 16.4567C38.5103 16.3442 39.7104 15.7645 40.6448 14.413C40.8401 14.1305 41 13.8675 41 13.8286C41 13.7185 40.3652 13.4473 39.8096 13.3201C39.321 13.2081 37.7498 13.1665 36.669 13.2369C35.9603 13.283 35.7608 13.102 35.5102 12.1859Z" stroke="#9C9C9C"/>
<path d="M7.76154 12.1282V10.8441V9.56012H6.38805H5.01456V10.8441V12.1282H6.38805H7.76154Z" stroke="#9C9C9C"/>
<path d="M26.0747 12.1282V10.8441V9.56012H24.7013H23.3278V10.8441V12.1282H24.7013H26.0747Z" stroke="#9C9C9C"/>
<path d="M12.3398 12.1282V10.8869V9.64572H10.9664H9.59286V10.8869V12.1282H10.9664H12.3398Z" stroke="#9C9C9C"/>
<path d="M16.9181 12.1282V10.8869V9.64572H15.5447H14.1712V10.8869V12.1282H15.5447H16.9181Z" stroke="#9C9C9C"/>
<path d="M21.4964 12.1282V10.8869V9.64572H20.1229H18.7495V10.8869V12.1282H20.1229H21.4964Z" stroke="#9C9C9C"/>
</svg>
