<svg width="180" height="104" viewBox="0 0 180 104" fill="none" xmlns="http://www.w3.org/2000/svg">
<path d="M138.694 38.8927C144.145 34.773 149.88 31.3928 155.575 29.5896C149.668 28.0837 134.428 24.2221 119.483 20.4378C110.406 18.1395 101.44 15.8703 94.7432 14.1756L86.6697 12.1327L84.4152 11.5623L83.8749 11.4256L83.4388 11.6678C83.0036 11.9096 82.3652 12.2644 81.5521 12.7166C79.9259 13.621 77.6011 14.915 74.8068 16.4732C69.2183 19.5896 61.7523 23.7627 54.2418 27.9896C46.7309 32.2167 39.1775 36.4966 33.4134 39.8271C30.5308 41.4926 28.099 42.9188 26.3447 43.9814C25.8205 44.299 25.3585 44.583 24.9642 44.8306C40.6405 45.8951 60.217 53.4024 76.0524 60.7392C84.3197 64.5695 91.5942 68.3665 96.8019 71.2057C99.406 72.6255 101.494 73.8062 102.932 74.6323C103.65 75.0454 104.207 75.3698 104.584 75.5913C104.597 75.5991 104.61 75.6067 104.623 75.6143C104.834 75.3124 105.137 74.8835 105.525 74.3436C106.341 73.2072 107.534 71.5785 109.046 69.606C112.069 65.6617 116.365 60.3389 121.461 54.8267C126.556 49.3161 132.458 43.6056 138.694 38.8927Z" stroke="#ED1C24"/>
<path opacity="0.5" d="M106.738 88.0038C106.773 88.0268 106.807 88.049 106.839 88.0703C107.079 87.6913 107.433 87.1356 107.894 86.4263C108.817 85.007 110.167 82.9726 111.876 80.5085C115.293 75.581 120.152 68.9313 125.914 62.0453C131.674 55.1611 138.348 48.0287 145.396 42.143C151.726 36.8573 158.394 32.5468 165.005 30.3451C158.747 28.581 141.017 23.6171 123.638 18.7554C113.369 15.8826 103.225 13.0461 95.6482 10.9277L86.5138 8.37408L83.9631 7.66109L83.3271 7.48332L82.8508 7.75027C82.383 8.01262 81.6958 8.3982 80.8186 8.89103C79.0643 9.87669 76.5501 11.2914 73.5106 13.0072C67.4315 16.4391 59.2518 21.0757 50.8489 25.8949C42.4454 30.7144 33.821 35.7153 26.8516 39.8761C21.2674 43.2099 16.7841 45.9822 14.3168 47.6893C32.145 48.9492 54.9583 58.8502 73.4775 68.5306C83.0818 73.551 91.5632 78.5296 97.6433 82.2528C100.684 84.1147 103.124 85.663 104.805 86.7464C105.646 87.2881 106.297 87.7135 106.738 88.0038Z" stroke="#ED1C24"/>
<path opacity="0.3" d="M109.06 101.911C109.121 101.955 109.178 101.997 109.232 102.036C109.248 102.009 109.265 101.982 109.282 101.954C109.561 101.487 109.975 100.802 110.513 99.9278C111.589 98.1793 113.163 95.6729 115.155 92.6378C119.138 86.5683 124.796 78.3804 131.494 69.9098C138.19 61.4412 145.936 52.6772 154.096 45.4631C161.579 38.8482 169.451 33.4995 177.216 30.9031C170.514 28.7917 149.719 22.2912 129.348 15.9275C117.584 12.2526 105.963 8.62412 97.2834 5.91433L86.8192 2.64771L83.8972 1.73565L83.1471 1.50155L82.583 1.83414C82.0481 2.14961 81.2624 2.61335 80.2591 3.20639C78.2526 4.39246 75.3758 6.09565 71.8952 8.16399C64.9339 12.3008 55.5577 17.8979 45.8973 23.7398C36.2364 29.5821 26.2939 35.6676 18.1991 40.7816C11.3529 45.1067 5.86824 48.7125 2.98049 50.8879C12.9651 51.678 24.2979 55.0662 35.7332 59.7343C47.8448 64.6784 60.1145 71.0765 71.0856 77.4048C82.0583 83.734 91.7416 89.9991 98.6816 94.6816C102.152 97.0231 104.937 98.9694 106.855 100.331C107.814 101.011 108.557 101.546 109.06 101.911Z" stroke="#ED1C24"/>
</svg>
