<svg width="213" height="122" viewBox="0 0 213 122" fill="none" xmlns="http://www.w3.org/2000/svg">
<path d="M163.459 45.864C170.036 40.9241 176.956 36.8945 183.811 34.8117C177.13 33.1179 158.715 28.4809 140.663 23.9387C129.915 21.2341 119.297 18.5635 111.366 16.5692L101.805 14.165L99.1351 13.4938L98.4466 13.3207L97.8866 13.6298C97.3712 13.9143 96.6151 14.3319 95.6522 14.8641C93.7263 15.9285 90.9731 17.4513 87.664 19.2851C81.0458 22.9526 72.204 27.8637 63.3096 32.8381C54.4148 37.8128 45.4692 42.8498 38.6424 46.7695C35.2285 48.7297 32.3478 50.4086 30.2692 51.6599C29.5067 52.1188 28.8548 52.5187 28.3254 52.8529C46.9243 54.0113 70.271 62.896 89.1474 71.5871C98.9348 76.0933 107.547 80.5604 113.713 83.9008C116.796 85.5712 119.267 86.9602 120.969 87.932C121.82 88.4179 122.479 88.7995 122.925 89.0599C122.976 89.09 123.025 89.1186 123.071 89.1454C123.08 89.1328 123.089 89.1199 123.098 89.1068C123.349 88.7498 123.721 88.2263 124.204 87.558C125.17 86.2215 126.582 84.3059 128.372 81.9856C131.95 77.3459 137.036 71.0848 143.067 64.6013C149.097 58.1193 156.082 51.4045 163.459 45.864Z" stroke="#ED1C24"/>
<path opacity="0.5" d="M125.469 103.663C125.551 103.716 125.626 103.765 125.695 103.811C125.717 103.777 125.739 103.742 125.762 103.706C126.046 103.26 126.466 102.606 127.012 101.771C128.104 100.102 129.701 97.7088 131.725 94.81C135.771 89.0132 141.522 81.1907 148.343 73.0905C155.162 64.9921 163.06 56.6042 171.399 49.684C179.008 43.3701 187.021 38.2473 194.949 35.7021C187.892 33.7238 166.523 27.7787 145.586 21.9583C133.425 18.5774 121.412 15.2393 112.439 12.7463L101.622 9.74116L98.6013 8.90208L97.8066 8.68134L97.7978 8.67889L97.1884 9.01834C96.6343 9.32709 95.8205 9.78087 94.7817 10.3609C92.7041 11.5208 89.7266 13.1857 86.127 15.2051C78.9277 19.2439 69.2408 24.7005 59.2893 30.3721C49.3373 36.044 39.1232 41.9296 30.8687 46.8267C24.0481 50.8732 18.6063 54.2213 15.7424 56.2165C36.8743 57.5954 64.0417 69.2985 86.0914 80.7522C97.4621 86.6588 107.504 92.5162 114.702 96.8969C118.302 99.0874 121.191 100.909 123.182 102.184C124.177 102.821 124.947 103.321 125.469 103.663Z" stroke="#ED1C24"/>
<path opacity="0.3" d="M128.214 120.025C128.33 120.108 128.436 120.184 128.53 120.252C128.57 120.186 128.612 120.116 128.658 120.04C128.989 119.491 129.478 118.686 130.115 117.657C131.389 115.6 133.252 112.652 135.61 109.081C140.326 101.94 147.025 92.3072 154.954 82.342C162.881 72.379 172.05 62.071 181.706 53.5876C190.674 45.7089 200.106 39.3665 209.39 36.3631C201.85 34.0006 176.843 26.2323 152.353 18.6303C138.422 14.3057 124.66 10.0357 114.381 6.8468L101.989 3.00267L98.5286 1.92936L97.6182 1.64699L97.5868 1.63724L96.8706 2.05683C96.2371 2.4281 95.3066 2.97389 94.1184 3.67182C91.7421 5.06769 88.3352 7.07214 84.2132 9.50634C75.9691 14.3748 64.865 20.962 53.4243 27.8373C41.9831 34.7129 30.2079 41.8751 20.6206 47.8941C12.3179 53.1066 5.69794 57.4363 2.34203 59.98C14.223 60.8617 27.7475 64.8653 41.4046 70.4053C55.7406 76.2208 70.2656 83.7472 83.2551 91.1928C96.2462 98.6392 107.711 106.01 115.928 111.52C120.037 114.275 123.334 116.565 125.605 118.166C126.74 118.967 127.619 119.596 128.214 120.025Z" stroke="#ED1C24"/>
</svg>
