<svg width="12" height="17" viewBox="0 0 12 17" fill="none" xmlns="http://www.w3.org/2000/svg">
<path d="M11.4444 8.16452C11.1148 7.38694 10.6356 6.68902 10.037 6.11443L9.54291 5.63928C9.52614 5.62359 9.50595 5.61245 9.48411 5.60685C9.46228 5.60125 9.43946 5.60135 9.41767 5.60715C9.39588 5.61295 9.37578 5.62427 9.35914 5.64011C9.34249 5.65595 9.32981 5.67583 9.32221 5.69801L9.1015 6.36179C8.96399 6.77822 8.71103 7.20354 8.35281 7.62174C8.32904 7.64843 8.30188 7.65555 8.2832 7.65733C8.26453 7.65911 8.23566 7.65555 8.2102 7.63064C8.18643 7.60928 8.17455 7.57725 8.17624 7.54522C8.23906 6.47391 7.93347 5.26557 7.26457 3.95045C6.71111 2.85778 5.94204 2.00536 4.98113 1.41098L4.27997 0.978539C4.18829 0.921592 4.07115 0.996335 4.07624 1.10845L4.11359 1.96265C4.13905 2.54636 4.07454 3.06244 3.92175 3.49132C3.735 4.0163 3.46675 4.5039 3.12381 4.94168C2.88515 5.24592 2.61465 5.52111 2.31739 5.76207C1.60147 6.33895 1.01934 7.07814 0.614576 7.92427C0.210813 8.77778 0.000492613 9.71749 0 10.6702C0 11.5101 0.157888 12.3234 0.47027 13.0904C0.771898 13.8289 1.20718 14.4991 1.75205 15.064C2.30212 15.6334 2.94046 16.0819 3.65181 16.3933C4.38862 16.7172 5.16957 16.8809 5.97599 16.8809C6.78241 16.8809 7.56337 16.7172 8.30018 16.3951C9.00977 16.0855 9.65504 15.634 10.1999 15.0658C10.75 14.4963 11.1812 13.8307 11.4817 13.0922C11.7936 12.3273 11.9536 11.5038 11.952 10.672C11.952 9.80351 11.7822 8.95999 11.4444 8.16452ZM9.38842 14.2027C8.47674 15.1494 7.26626 15.669 5.97599 15.669C4.68572 15.669 3.47524 15.1494 2.56357 14.2027C1.65528 13.2577 1.15445 12.0049 1.15445 10.672C1.15445 9.89783 1.32083 9.15575 1.64849 8.46527C1.96766 7.7908 2.44303 7.18752 3.02025 6.72305C3.38838 6.42798 3.72228 6.08873 4.01512 5.71224C4.43955 5.16947 4.77231 4.56441 5.0032 3.91486C5.09791 3.64692 5.16673 3.36969 5.20862 3.08735C5.61777 3.48242 5.96071 3.95935 6.24763 4.51814C6.81467 5.63216 7.07612 6.62339 7.02519 7.46692C7.01302 7.66558 7.04397 7.86456 7.11572 8.04888C7.18747 8.2332 7.29815 8.39808 7.43943 8.53111C7.56187 8.64704 7.70506 8.73632 7.8607 8.79375C8.01633 8.85119 8.1813 8.87563 8.34602 8.86567C8.68047 8.84788 8.98776 8.69305 9.21186 8.43145C9.43765 8.16629 9.63289 7.8958 9.79587 7.61996C10.0336 7.93851 10.2322 8.28553 10.3901 8.65924C10.66 9.29633 10.7975 9.97435 10.7975 10.672C10.7975 12.0049 10.2967 13.2595 9.38842 14.2027Z" fill="#ED1C24"/>
</svg>
