<svg width="18" height="18" viewBox="0 0 18 18" fill="none" xmlns="http://www.w3.org/2000/svg">
<path d="M9.12857 6.71357C10.0325 5.78996 11.2094 5.18571 12.5786 5.18571C14.0164 5.18571 15.3954 5.7569 16.4121 6.77361C17.4288 7.79033 18 9.16929 18 10.6071V18H16.0286V10.6071C16.0286 9.69215 15.6651 8.81463 15.0181 8.16762C14.3711 7.52062 13.4936 7.15714 12.5786 7.15714C11.6636 7.15714 10.7861 7.52062 10.1391 8.16762C9.49205 8.81463 9.12857 9.69215 9.12857 10.6071V18H7.15714V5.67857H9.12857V6.71357ZM2.22857 3.70714C1.83643 3.70714 1.46035 3.55137 1.18306 3.27408C0.905778 2.99679 0.75 2.62071 0.75 2.22857C0.75 1.83643 0.905778 1.46035 1.18306 1.18306C1.46035 0.905778 1.83643 0.75 2.22857 0.75C2.62071 0.75 2.99679 0.905778 3.27408 1.18306C3.55137 1.46035 3.70714 1.83643 3.70714 2.22857C3.70714 2.62071 3.55137 2.99679 3.27408 3.27408C2.99679 3.55137 2.62071 3.70714 2.22857 3.70714ZM1.24286 5.67857H3.21429V18H1.24286V5.67857Z" fill="#1C1C1C"/>
</svg>
