<svg width="127" height="138" viewBox="0 0 127 138" fill="none" xmlns="http://www.w3.org/2000/svg">
<path fill-rule="evenodd" clip-rule="evenodd" d="M76.0309 1.75888C72.7395 4.89784 70.7175 8.31412 69.5017 12.7902C68.636 15.977 68.5385 22.5745 69.3163 25.3591C70.6101 29.993 72.5724 33.3574 74.7719 34.7138C80.2547 38.0946 83.2388 44.5974 82.4354 51.4133C82.0294 54.8582 81.0771 57.3346 79.2023 59.8219V59.8219C78.6284 60.5835 78.7404 61.6591 79.4589 62.2861L79.8094 62.5919C80.7034 63.3723 81.5743 64.0107 81.7448 64.011C82.1127 64.0115 84.0413 61.4061 84.942 59.6919C87.7878 54.2754 88.1936 47.0231 85.97 41.3171C84.3015 37.0353 82.0622 34.1172 78.4685 31.541C76.8049 30.3487 76.3722 29.8579 75.5433 28.2234C74.0841 25.3455 73.641 23.3102 73.6245 19.4125C73.5981 13.0908 75.5876 8.46711 80.0346 4.51591V4.51591C80.7414 3.88778 80.8508 2.82355 80.2866 2.06473L80.0497 1.74618C79.3709 0.833113 78.6236 0.0481707 78.3886 0.00194988C78.1539 -0.0445412 77.0928 0.746078 76.0309 1.75888ZM52.2488 1.65319C50.4132 3.90666 49.1654 6.12634 48.2566 8.75633C45.3712 17.1055 46.9185 26.1835 52.3234 32.6168C54.0543 34.677 55.3459 37.0526 56.0926 39.5496C56.6268 41.3363 56.7409 42.3697 56.749 45.4962C56.7605 49.7712 56.2563 51.9136 54.5136 54.9993C53.6435 56.5397 53.6085 56.6924 54.0448 57.0495C54.7635 57.6379 57.182 59.1462 57.4069 59.1462C57.9368 59.1462 60.0441 54.9452 60.864 52.2536C61.4467 50.3415 61.5221 49.5439 61.5159 45.361C61.5098 41.2236 61.4273 40.3597 60.857 38.4685C59.8733 35.2046 57.8911 31.5694 55.9513 29.4711C52.0258 25.2253 50.5728 16.9274 52.6736 10.7565C53.3519 8.76417 54.7514 6.12769 55.7124 5.03083C57.3154 3.20173 57.3199 3.41823 55.6428 1.74915C54.7985 0.908796 53.9472 0.227107 53.7509 0.234135C53.5549 0.241163 52.8788 0.879874 52.2488 1.65319ZM42.7388 67.8178C22.6179 68.9134 14.4431 70.081 11.8665 72.228C10.5517 73.3238 10.2446 75.0923 11.1725 76.226C12.4525 77.7894 16.5518 78.9492 23.8113 79.802C47.5034 82.5855 94.2361 81.833 107.629 78.4521C111.666 77.4334 112.981 76.45 112.981 74.4512C112.981 73.5727 112.797 73.2195 111.92 72.4164C110.873 71.4569 108.351 70.4841 105.922 70.1029C104.744 69.9181 104.775 69.8689 104.273 72.7213C103.965 74.4663 103.918 74.5442 103.069 74.6777C98.7442 75.358 91.3437 75.9935 82.2762 76.463C73.6281 76.9109 40.749 76.6493 33.7657 76.0773C26.7895 75.5056 20.7268 74.7802 20.7268 74.5172C20.7268 73.7744 42.8414 72.1877 54.0251 72.1283V72.1283C54.8394 72.1239 55.4973 71.4626 55.4973 70.6483V69.8229V69.8229C55.4973 68.5574 54.4654 67.5346 53.1999 67.5459L51.0809 67.5648C48.652 67.5865 44.8979 67.7003 42.7388 67.8178ZM44.399 86.7394C39.539 87.0233 33.5798 87.692 30.1204 88.342C23.8682 89.5165 21.6821 90.6477 21.3731 92.8684C21.197 94.1348 21.7741 95.3633 22.8957 96.1096C26.8043 98.7106 40.823 100.287 60.124 100.295C82.2349 100.305 96.5904 98.3363 98.6971 95.0059C99.7697 93.3101 99.1766 91.5029 97.1762 90.3728C95.8425 89.6195 93.193 88.7748 92.8343 88.9886C92.7104 89.0624 92.3784 90.096 92.0966 91.2858C91.637 93.2252 91.5086 93.4642 90.8558 93.5958C88.8907 93.9912 82.1261 94.8184 79.5601 94.977C77.9694 95.0754 76.2264 95.2051 75.6866 95.2654C75.1468 95.3257 69.7209 95.4471 63.6291 95.5355C51.4544 95.7117 41.676 95.2922 34.1541 94.271C29.803 93.6804 28.7403 93.3628 30.1244 93.0671C30.5848 92.9687 31.1386 92.8341 31.3551 92.7681C32.6127 92.3846 41.9317 91.5564 47.8733 91.3002C51.6809 91.1358 54.9541 90.9534 55.1468 90.8947C55.3888 90.8209 55.4973 90.1165 55.4973 88.6169V88.6169C55.4973 87.4218 54.5217 86.4566 53.3267 86.4694L51.7819 86.4859C49.7386 86.5075 46.4163 86.6219 44.399 86.7394ZM51.151 105.285C36.0564 106.267 29.6597 107.794 28.0911 110.792C26.5441 113.748 28.9747 115.851 35.5794 117.27C48.9024 120.134 75.921 119.682 86.2526 116.423C91.9726 114.619 92.6352 110.513 87.5557 108.348C86.0729 107.715 85.5278 107.663 85.3733 108.138C85.313 108.323 84.9961 109.341 84.6697 110.398V110.398C84.3037 111.584 83.3189 112.474 82.1028 112.719L81.9142 112.757C73.894 114.375 60.6338 114.902 47.3655 114.131C42.5941 113.854 34.225 112.513 34.6703 112.097C35.3789 111.434 44.2616 110.324 51.4314 110.003L52.993 109.933C54.3278 109.873 55.3924 108.797 55.4381 107.462V107.462L55.4683 106.58C55.4958 105.777 54.8386 105.119 54.0361 105.145V105.145C53.2204 105.172 51.9221 105.235 51.151 105.285ZM43.1594 124.205C25.1253 124.608 7.41109 126.206 2.88757 127.837C0.331934 128.758 -0.617524 130.505 0.403158 132.407C1.40253 134.271 6.09599 135.412 16.5207 136.326C48.9203 139.167 107.739 138.245 122.046 134.671C125.24 133.874 126.997 132.519 127 130.852C127.002 129.9 125.443 128.426 123.813 127.838C122.277 127.284 117.25 126.299 117.032 126.51C116.963 126.576 116.762 127.611 116.586 128.81L116.415 129.975C116.327 130.577 115.856 131.051 115.255 131.144V131.144C114.698 131.23 111.467 131.545 108.074 131.845C90.5804 133.392 56.7992 133.758 31.3823 132.675C23.793 132.351 11.9983 131.364 11.6276 131.021C11.4633 130.869 11.5709 130.775 11.908 130.775C12.2086 130.774 14.0952 130.595 16.1001 130.375C21.1267 129.825 32.4077 129.202 40.6357 129.02C44.4142 128.937 49.3036 128.798 51.5015 128.713L53.2296 128.645C54.4961 128.595 55.4973 127.554 55.4973 126.287V126.287V126.287C55.4973 125.038 54.4766 124.03 53.2281 124.046L50.9407 124.075C48.4347 124.107 44.9329 124.165 43.1594 124.205Z" fill="#F1F1F1"/>
</svg>
