<svg width="33" height="36" viewBox="0 0 33 36" fill="none" xmlns="http://www.w3.org/2000/svg">
<path fill-rule="evenodd" clip-rule="evenodd" d="M19.7561 0.458838C18.9008 1.2777 18.3754 2.1689 18.0595 3.33658C17.8346 4.16792 17.8092 5.88899 18.0113 6.6154C18.3475 7.82427 18.8574 8.70193 19.4289 9.05576C20.8536 9.93773 21.629 11.6341 21.4202 13.4122C21.3147 14.3108 21.0673 14.9569 20.5801 15.6057V15.6057C20.4309 15.8046 20.46 16.0849 20.6471 16.2488L20.7379 16.3283C20.9702 16.5319 21.1965 16.6984 21.2408 16.6985C21.3364 16.6987 21.8375 16.019 22.0715 15.5718C22.811 14.1588 22.9164 12.2669 22.3387 10.7784C21.9051 9.66139 21.3233 8.90014 20.3895 8.22809C19.9572 7.91706 19.8447 7.78901 19.6294 7.36262C19.2502 6.61188 19.1351 6.08092 19.1308 5.06413C19.1239 3.41499 19.6409 2.20881 20.7964 1.17806V1.17806C20.9802 1.01404 21.0087 0.736899 20.8621 0.538905L20.8003 0.455524C20.6239 0.217334 20.4297 0.0125663 20.3687 0.000508663C20.3077 -0.0116194 20.032 0.194629 19.7561 0.458838ZM13.5765 0.431268C13.0995 1.01913 12.7753 1.59818 12.5391 2.28426C11.7894 4.46231 12.1914 6.83047 13.5958 8.50873C14.0456 9.04617 14.3812 9.66591 14.5752 10.3173C14.714 10.7834 14.7437 11.053 14.7458 11.8686C14.7488 12.9838 14.6178 13.5427 14.165 14.3476C13.9389 14.7495 13.9298 14.7893 14.0431 14.8825C14.2299 15.036 14.8583 15.4294 14.9167 15.4294C15.0545 15.4294 15.602 14.3335 15.8151 13.6314C15.9665 13.1326 15.9861 12.9245 15.9845 11.8333C15.9829 10.754 15.9614 10.5286 15.8132 10.0352C15.5576 9.18381 15.0426 8.23549 14.5385 7.68811C13.5185 6.5805 13.141 4.41585 13.6868 2.80605C13.8631 2.2863 14.2267 1.59853 14.4764 1.31239C14.893 0.835233 14.8942 0.891713 14.4584 0.4563C14.239 0.237077 14.0178 0.0592454 13.9668 0.0610787C13.9158 0.062912 13.7402 0.229532 13.5765 0.431268ZM11.1053 17.6916C5.87708 17.9774 3.75294 18.282 3.08342 18.8421C2.74177 19.1279 2.66198 19.5893 2.90308 19.885C3.2357 20.2929 4.30086 20.5954 6.18718 20.8179C12.3434 21.544 24.4865 21.3477 27.9666 20.4658C29.0155 20.2 29.3572 19.9435 29.3572 19.4221C29.3572 19.1929 29.3093 19.1007 29.0816 18.8912C28.8096 18.6409 28.1542 18.3871 27.5231 18.2877C27.217 18.2395 27.2251 18.2267 27.0945 18.9708C27.0146 19.426 27.0022 19.4463 26.7817 19.4811C25.6579 19.6586 23.735 19.8244 21.3788 19.9469C19.1317 20.0637 10.5883 19.9955 8.77377 19.8463C6.96104 19.6971 5.3857 19.5079 5.3857 19.4393C5.3857 19.2455 11.132 18.8316 14.038 18.8161V18.8161C14.2496 18.8149 14.4206 18.6431 14.4206 18.4315V18.2147V18.2147C14.4206 17.8845 14.1514 17.6177 13.8212 17.6207L13.273 17.6256C12.6419 17.6313 11.6664 17.6609 11.1053 17.6916ZM11.5368 22.6277C10.2739 22.7017 8.72546 22.8762 7.82657 23.0457C6.20197 23.3521 5.63394 23.6472 5.55365 24.2265C5.50789 24.5569 5.65784 24.8774 5.94929 25.0721C6.96491 25.7506 10.6076 26.1618 15.6228 26.1639C21.3681 26.1664 25.0983 25.6529 25.6457 24.7842C25.9244 24.3418 25.7703 23.8703 25.2505 23.5755C24.904 23.379 24.2155 23.1586 24.1223 23.2144C24.0901 23.2337 24.0038 23.5033 23.9306 23.8137C23.8112 24.3196 23.7778 24.382 23.6082 24.4163C23.0976 24.5195 21.3399 24.7352 20.6731 24.7766C20.2598 24.8023 19.8069 24.8361 19.6666 24.8518C19.5263 24.8676 18.1165 24.8992 16.5335 24.9223C13.37 24.9683 10.8292 24.8588 8.87468 24.5924C7.74409 24.4384 7.46794 24.3555 7.82759 24.2784C7.94723 24.2527 8.09113 24.2176 8.14738 24.2004C8.47416 24.1003 10.8957 23.8843 12.4395 23.8174C13.4289 23.7746 14.2794 23.727 14.3295 23.7117C14.3924 23.6924 14.4206 23.5087 14.4206 23.1175V23.1175C14.4206 22.8057 14.166 22.5539 13.8543 22.5573L13.4551 22.5615C12.9242 22.5672 12.0609 22.597 11.5368 22.6277ZM13.2912 27.4657C9.36898 27.7218 7.70686 28.1203 7.29927 28.9024C6.89729 29.6735 7.52886 30.2219 9.24504 30.5923C12.7069 31.3392 19.7275 31.2214 22.4121 30.3713C23.8984 29.9007 24.0706 28.8296 22.7507 28.2646C22.3654 28.0996 22.2238 28.086 22.1836 28.2098C22.1679 28.2583 22.0856 28.5236 22.0008 28.7995V28.7995C21.9057 29.1088 21.6491 29.3412 21.332 29.4054L21.2848 29.415C19.2008 29.8369 15.7552 29.9746 12.3076 29.7734C11.0677 29.7011 8.89312 29.3512 9.00882 29.2426C9.19294 29.0698 11.5011 28.7803 13.3641 28.6964L13.7674 28.6782C14.1156 28.6626 14.3933 28.3819 14.4052 28.0335V28.0335L14.4131 27.8019C14.4202 27.5934 14.2494 27.4223 14.0409 27.4292V27.4292C13.8289 27.4362 13.4916 27.4526 13.2912 27.4657ZM11.2146 32.4013C6.52861 32.5064 1.92572 32.9232 0.750312 33.3488C0.0862507 33.5892 -0.160459 34.0448 0.104758 34.5411C0.364437 35.0271 1.584 35.3248 4.29278 35.5632C12.7116 36.3045 27.9953 36.0639 31.7127 35.1316C32.5426 34.9235 32.9993 34.5701 33 34.1353C33.0004 33.8869 32.5953 33.5024 32.1718 33.349C31.7726 33.2045 30.4665 32.9476 30.4098 33.0026C30.3918 33.0199 30.3397 33.2899 30.2941 33.6025L30.2495 33.9075C30.2266 34.064 30.1043 34.1873 29.948 34.2115V34.2115C29.8034 34.2339 28.9637 34.3161 28.0821 34.3944C23.5366 34.798 14.7588 34.8934 8.15445 34.6107C6.18244 34.5264 3.11766 34.2689 3.02134 34.1794C2.97864 34.1399 3.00662 34.1152 3.0942 34.1151C3.17231 34.115 3.66252 34.0682 4.18348 34.0109C5.4896 33.8673 8.4209 33.7049 10.5589 33.6575C11.5407 33.6357 12.8112 33.5996 13.3823 33.5772L13.829 33.5596C14.1594 33.5467 14.4206 33.2751 14.4206 32.9444V32.9444V32.9444C14.4206 32.6187 14.1543 32.3558 13.8286 32.3599L13.2366 32.3675C12.5854 32.3757 11.6755 32.3909 11.2146 32.4013Z" fill="#9C9C9C"/>
</svg>
