<svg width="122" height="90" viewBox="0 0 122 90" fill="none" xmlns="http://www.w3.org/2000/svg">
<path d="M53.599 56.4672L48.9223 57.7701C49.329 58.9508 49.6543 61.0679 49.6543 63.9179V77.9236H54.9003V63.1036C55.8763 61.9229 56.9336 61.3529 58.0723 61.3529C58.6416 61.3529 59.089 61.4751 59.577 61.7601L61.0003 56.9151C60.187 56.5486 59.821 56.4672 59.0483 56.4672C58.479 56.4672 57.7876 56.5893 57.3403 56.7929C56.3643 57.2815 55.1443 58.3808 54.3716 59.4393C54.3716 58.2586 54.087 57.3222 53.599 56.4672ZM35.543 49.5458H34.9736V77.8829H40.423V65.3429H47.2956V60.6608H40.423V54.1465H49.0036L49.329 51.6629C44.1643 51.2965 39.4876 50.4822 35.543 49.5458ZM22.8143 81.6693L25.3356 84.6008C27.7756 83.6236 30.8256 81.4251 31.639 77.9236C31.9236 76.7836 32.005 76.0508 32.005 72.3458V49.5865H26.515V72.9565C26.515 76.0101 26.393 77.1501 25.9863 78.2086C25.4576 79.3893 24.197 80.7736 22.8143 81.6693ZM72.3056 67.2972C72.3056 72.2643 71.3296 74.3815 69.093 74.3815C68.0763 74.3815 66.9376 73.8115 66.4496 72.6715C66.043 71.6129 65.799 69.8215 65.799 67.3786C65.799 65.3022 66.0023 63.8365 66.3276 62.6965C66.7343 61.3936 67.751 60.5793 69.0116 60.5793C69.947 60.5793 70.7603 60.9865 71.2483 61.6786C71.9803 62.6558 72.3056 64.4879 72.3056 67.2972ZM75.5183 75.4401C77.2263 73.4043 77.999 70.9208 77.999 67.3379C77.999 63.9586 77.3076 61.6379 75.7216 59.6836C74.0136 57.5665 71.8176 56.5486 68.971 56.5486C63.603 56.5486 60.0243 60.9051 60.0243 67.5008C60.0243 74.0965 63.5623 78.3308 68.971 78.3308C72.021 78.3715 74.0136 77.2315 75.5183 75.4401ZM90.4023 63.7143C90.4023 65.6279 89.2636 66.6865 87.2303 66.6865C85.4003 66.6865 84.1803 65.8315 84.1803 63.7143C84.1803 61.7601 85.319 60.6201 87.271 60.6201C89.223 60.6201 90.4023 61.7601 90.4023 63.7143ZM99.6336 59.2358L97.4783 55.7751C96.2583 56.9151 94.7943 57.5665 93.371 57.5665C92.7203 57.5665 92.3543 57.4851 90.931 57.1186C89.5076 56.7115 88.491 56.5893 87.3523 56.5893C82.269 56.5893 78.975 59.3579 78.975 63.6736C78.975 66.7679 80.3576 68.7222 83.245 69.4958C82.0656 69.7808 80.805 70.3915 80.2356 71.0836C79.829 71.5722 79.6256 72.2236 79.6256 72.9972C79.6256 73.6486 79.7883 74.2186 80.0323 74.7072C80.317 75.1551 80.683 75.5215 81.171 75.7251C82.1063 76.0915 83.611 76.3358 85.929 76.3765C87.149 76.3765 87.881 76.4172 88.125 76.4172C89.5483 76.4986 90.2803 76.7429 90.8496 77.0279C91.3783 77.3536 91.785 78.0865 91.785 78.9008C91.785 79.7151 91.297 80.5293 90.5243 81.0179C89.833 81.5065 88.6943 81.7101 87.2303 81.7101C84.831 81.7101 83.489 80.8143 83.489 79.1451C83.489 78.4122 83.5703 78.2493 83.733 77.8015H78.9343C78.731 78.2086 78.487 78.7786 78.487 79.9186C78.487 81.3436 79.0156 82.5651 80.1136 83.6236C81.903 85.3744 84.831 85.8629 87.637 85.8629C90.7276 85.8629 93.737 85.1301 95.4856 83.1758C96.5836 81.9543 97.0716 80.6108 97.0716 78.8601C97.0716 76.9872 96.543 75.5622 95.3636 74.3815C93.981 73.0379 92.395 72.5493 89.345 72.5086L86.539 72.4679C86.0103 72.4679 85.685 72.2643 85.685 71.9793C85.685 71.4093 86.417 70.9208 87.759 70.2693C88.1656 70.3101 88.2876 70.3101 88.5316 70.3101C92.761 70.3101 95.8516 67.7043 95.8516 64.0808C95.8516 62.6965 95.445 61.6379 94.6723 60.6608C95.323 60.7422 95.5263 60.7829 96.0143 60.7829C97.397 60.7829 98.495 60.3351 99.6336 59.2358ZM34.1603 24.9136C27.6536 26.5015 23.221 29.6365 23.221 33.2193C23.221 35.4586 24.929 37.4943 27.735 39.0822C26.881 37.7386 26.4336 36.2729 26.4336 34.8072C26.4743 31.1022 29.3616 27.6415 34.1603 24.9136ZM102.806 38.9601C102.806 36.5986 101.342 34.4408 98.9016 32.6493C99.105 33.3822 99.2676 34.1151 99.2676 34.8479C99.2676 41.5658 89.8736 47.3472 76.535 49.7493C78.0396 49.9122 79.585 49.9936 81.2116 49.9936C93.127 49.9529 102.806 45.0265 102.806 38.9601ZM95.1196 35.2958C95.1196 32.8122 93.005 30.5322 89.3856 28.6593C90.2396 29.6772 90.687 30.7765 90.687 31.9165C90.687 37.9015 77.999 42.7465 62.3016 42.7465C46.645 42.7465 33.9163 37.9015 33.9163 31.9165C33.9163 31.1429 34.1196 30.4101 34.5263 29.7179C32.005 31.3872 30.5816 33.3008 30.5816 35.3365C30.5816 41.8101 45.0183 47.0622 62.8303 47.0622C80.6423 47.0622 95.1196 41.7286 95.1196 35.2958ZM81.049 34.9701C74.461 39.2043 54.209 40.8329 45.5063 35.3772C38.6743 31.1022 41.033 24.3029 21.4723 9.40148C18.9103 7.4472 21.9603 5.37077 23.8716 6.71434C25.783 8.05791 24.0343 8.38363 27.8976 12.2515C35.7056 20.0686 35.6243 13.0251 36.8443 15.7122C39.447 21.2901 45.1403 26.9086 45.1403 26.9086C50.8743 30.6543 55.429 31.4686 63.8876 25.7279C69.2556 22.1043 67.0596 31.5093 80.195 24.7101C84.9936 22.2265 84.7903 23.8958 89.6703 17.0965C91.7036 14.2872 95.567 19.2543 91.175 19.9465C89.4263 20.2315 86.4576 22.1451 85.197 25.1579C83.367 29.6772 84.1396 33.0158 81.049 34.9701ZM44.5303 23.4886C42.9036 22.7558 41.1956 19.9872 40.545 18.8879C42.375 17.0965 41.643 14.1243 40.5856 12.4958C39.569 10.8672 38.3083 11.3151 36.9663 9.80863C35.5836 8.3022 37.495 4.39363 39.2436 7.40648C45.791 18.6843 50.1016 14.0022 55.429 13.3101C60.553 12.6586 65.1076 15.4679 66.4903 7.52863C66.7343 6.22577 67.995 5.94077 68.117 8.05791C68.239 10.2158 69.0523 15.4272 71.8583 16.0786C74.6643 16.7708 76.9416 15.4272 77.5923 14.6943C78.243 13.9615 78.609 14.0429 78.8936 15.9158C79.1783 17.7479 79.9103 20.3129 83.855 17.4629C91.9476 11.6815 89.6296 9.4422 92.8016 7.93577C94.591 7.08077 97.4376 9.84934 93.3303 11.9258C87.4743 14.8979 86.8643 18.5622 83.1636 20.8829C76.9416 24.7915 78.853 21.0458 68.849 19.6208C64.9856 19.0915 63.7656 23.3665 60.7563 22.1451C53.8836 19.2951 49.0443 19.8651 44.5303 23.4886ZM66.2056 2.6022C66.4496 4.3122 66.7343 4.27148 67.3443 4.39362C67.9543 4.55648 68.727 3.57934 68.727 2.68362C68.7676 1.7472 68.3203 1.1772 67.4256 1.21791C66.4903 1.25862 66.165 1.70648 66.2056 2.6022ZM96.299 5.65577C97.031 6.34791 98.983 5.90005 99.4303 5.37077C100.61 4.06791 100.65 3.29434 100.04 2.39862C99.4303 1.54362 98.1696 1.66577 96.909 2.6022C95.6483 3.53862 95.8923 5.28934 96.299 5.65577ZM95.7703 14.2872C95.1603 15.1015 95.1196 15.7122 95.567 16.1601C96.055 16.6486 97.031 17.0558 97.7223 16.5265C98.4136 15.9565 98.4136 15.1422 97.8443 14.4501C97.2343 13.7172 96.421 13.7172 95.7703 14.2872ZM34.0383 4.10862C34.9736 4.39362 35.421 5.28934 36.1936 4.27148C36.6003 3.78291 36.641 3.09077 36.1123 2.35791C35.787 1.91005 34.2416 1.58434 33.591 2.23577C32.9403 2.8872 33.5503 3.94577 34.0383 4.10862ZM14.9656 3.53863C16.6736 4.5972 17.7716 6.18505 19.073 4.76005C19.5203 4.27148 20.049 3.41648 19.1136 1.70648C18.4223 0.44434 16.1856 -0.0442329 15.413 0.444339C14.5996 0.892196 13.6236 2.72434 14.9656 3.53863ZM30.7036 11.6408C31.2323 12.2108 32.1676 12.1701 32.737 11.8443C33.2656 11.5186 33.1843 10.6636 32.6556 9.93077C32.3303 9.48291 31.3543 9.23862 30.7036 9.93077C30.053 10.6229 30.3376 11.2336 30.7036 11.6408Z" fill="#41BF47"/>
</svg>
