<svg width="16" height="19" viewBox="0 0 16 19" fill="none" xmlns="http://www.w3.org/2000/svg">
<path d="M12.6711 13.0057L12.673 13.0038C14.0021 11.6949 14.75 9.91852 14.75 8.06495C14.75 6.21138 14.0021 4.43503 12.673 3.12606C12.0151 2.47805 11.2343 1.96434 10.3754 1.61397C9.51649 1.26359 8.59605 1.08333 7.66667 1.08333C6.73728 1.08333 5.81685 1.26359 4.95792 1.61397C4.09898 1.96435 3.31819 2.47804 2.6603 3.12606C1.33119 4.43503 0.583333 6.21138 0.583333 8.06495C0.583333 9.91852 1.33119 11.6949 2.6603 13.0038L2.66255 13.006L4.11103 14.4112L4.11102 14.4112L4.11317 14.4133L6.05876 16.274L6.06557 16.2805L6.07267 16.2867L6.19933 16.3973L6.20633 16.4034L6.21359 16.4092C6.35312 16.5205 6.62864 16.8066 6.89064 17.0919C7.01664 17.229 7.13241 17.3581 7.21675 17.453C7.25888 17.5004 7.29308 17.5391 7.31666 17.5659L7.34374 17.5968L7.35067 17.6047L7.35238 17.6067L7.35277 17.6071L7.35286 17.6072L7.65493 17.9535L7.97011 17.6191L7.66687 17.3333L7.97011 17.6191L7.97014 17.6191L7.97026 17.6189L7.97075 17.6184L7.97274 17.6163L7.98062 17.6079L8.01106 17.5757L8.12277 17.4577C8.21691 17.3585 8.34627 17.2225 8.48724 17.0754C8.77185 16.7786 9.09531 16.4456 9.27483 16.2747L9.27579 16.2738L11.5947 14.0521L11.5947 14.0521L11.5969 14.05L12.6711 13.0057L12.6711 13.0057Z" stroke="#9C9C9C" stroke-width="0.833333"/>
</svg>
