<svg width="249" height="89" viewBox="0 0 249 89" fill="none" xmlns="http://www.w3.org/2000/svg">
<path d="M92.2415 67.8675C94.3176 68.9464 97.5096 70.028 100.8 70.028C104.346 70.028 106.224 68.5358 106.224 66.2733C106.224 64.1155 104.603 62.8809 100.498 61.3914C94.8253 59.3839 91.1255 56.1982 91.1255 51.1579C91.1255 45.2481 95.989 40.7231 104.045 40.7231C107.895 40.7231 110.73 41.547 112.759 42.4703L111.034 48.7934C109.67 48.1278 107.237 47.1482 103.891 47.1482C100.548 47.1482 98.9271 48.6914 98.9271 50.4896C98.9271 52.7011 100.852 53.6807 105.261 55.3769C111.288 57.6367 114.126 60.8251 114.126 65.7097C114.126 71.5149 109.717 76.4531 100.345 76.4531C96.4438 76.4531 92.5959 75.4252 90.668 74.349L92.2415 67.8675Z" fill="#ED1C24"/>
<path d="M148.226 62.6713C148.073 58.5059 147.922 53.471 147.922 48.4281H147.771C146.708 52.8484 145.291 57.7867 143.974 61.8446L139.816 75.3685H133.789L130.14 61.952C129.026 57.8887 127.863 52.9557 127.051 48.4281H126.95C126.747 53.1087 126.593 58.4523 126.342 62.7759L125.731 75.9375H118.588L120.767 41.281H131.055L134.397 52.8484C135.461 56.8607 136.524 61.1764 137.283 65.2397H137.439C138.399 61.2327 139.562 56.6541 140.678 52.8001L144.325 41.281H154.407L156.284 75.9375H148.734L148.226 62.6713Z" fill="#ED1C24"/>
<path d="M178.678 61.1764L176.547 53.828C175.941 51.7722 175.333 49.1984 174.825 47.1425H174.727C174.217 49.1984 173.712 51.8205 173.156 53.828L171.131 61.1764H178.678ZM170.015 67.0406L167.584 75.9375H159.576L170.015 41.281H180.149L190.735 75.9375H182.426L179.794 67.0406H170.015Z" fill="#ED1C24"/>
<path d="M202.947 56.6509H205.985C209.836 56.6509 212.118 54.6998 212.118 51.6643C212.118 48.4759 209.989 46.8817 206.44 46.8307C204.565 46.8307 203.505 46.9837 202.947 47.0884V56.6509ZM195.293 41.7421C197.779 41.3315 201.476 41.0202 205.581 41.0202C210.648 41.0202 214.194 41.7931 216.625 43.7443C218.65 45.3922 219.764 47.8076 219.764 50.996C219.764 55.419 216.677 58.4518 213.739 59.5307V59.6836C216.117 60.6633 217.436 62.9767 218.299 66.1624C219.362 70.0701 220.425 74.5951 221.083 75.9316H213.181C212.623 74.9547 211.814 72.1286 210.798 67.8586C209.886 63.543 208.416 62.3568 205.276 62.3058H202.947V75.9316H195.293V41.7421Z" fill="#ED1C24"/>
<path d="M231.927 47.8613H222.758V41.2778H249V47.8613H239.681V75.9316H231.927V47.8613Z" fill="#ED1C24"/>
<path d="M105.571 30.2715L104.394 26.0283C104.106 24.9816 103.86 23.8061 103.641 22.8077H103.596C103.373 23.8061 103.149 25.0058 102.882 26.0283L101.731 30.2715H105.571ZM101.287 32.6493L99.9989 37.5312H97.1797L101.974 20.3063H105.457L110.321 37.5312H107.391L106.034 32.6493H101.287Z" fill="#F1F1F1"/>
<path d="M130.422 37.0117C129.779 37.3982 128.359 37.7793 126.563 37.7793C121.814 37.7793 118.926 34.3574 118.926 29.1158C118.926 23.4422 122.345 20.0176 126.918 20.0176C128.714 20.0176 130.001 20.4524 130.557 20.7825L129.957 23.2892C129.248 22.9323 128.272 22.6236 127.029 22.6236C123.988 22.6236 121.79 24.8217 121.79 28.9602C121.79 32.7444 123.723 35.1706 127.005 35.1706C128.116 35.1706 129.266 34.9156 129.978 34.5345L130.422 37.0117Z" fill="#F1F1F1"/>
<path d="M147.956 30.2715L146.776 26.0283C146.488 24.9816 146.247 23.8061 146.025 22.8077H145.978C145.758 23.8061 145.536 25.0058 145.266 26.0283L144.116 30.2715H147.956ZM143.672 32.6493L142.384 37.5312H139.564L144.359 20.3063H147.842L152.703 37.5312H149.775L148.419 32.6493H143.672Z" fill="#F1F1F1"/>
<path d="M165.281 35.122C165.662 35.1971 166.236 35.1971 166.791 35.1971C170.343 35.224 172.451 32.9749 172.451 28.6056C172.472 24.7972 170.565 22.6233 167.146 22.6233C166.284 22.6233 165.662 22.7012 165.281 22.8032V35.122ZM162.555 20.5273C163.753 20.3018 165.281 20.1703 166.902 20.1703C169.7 20.1703 171.628 20.8359 173.006 22.1644C174.448 23.5197 175.336 25.5621 175.336 28.501C175.336 31.5686 174.424 33.8686 173.006 35.3501C171.517 36.9094 169.145 37.7012 166.236 37.7012C164.639 37.7012 163.443 37.5992 162.555 37.473V20.5273Z" fill="#F1F1F1"/>
<path d="M193.846 29.8845H188.21V34.9462H194.51V37.5254H185.479V20.2978H194.179V22.8823H188.21V27.3268H193.846V29.8845Z" fill="#F1F1F1"/>
<path d="M217.301 30.4991C217.213 28.2742 217.102 25.5877 217.123 23.2661H217.055C216.571 25.3595 215.946 27.6837 215.28 29.8576L213.106 37.3214H210.996L209.002 29.9596C208.425 27.7616 207.891 25.4105 207.494 23.2661H207.447C207.381 25.5125 207.293 28.25 207.18 30.6011L206.849 37.5254H204.297L205.297 20.3032H208.888L210.842 27.2275C211.377 29.2457 211.845 31.2908 212.218 33.2044H212.286C212.686 31.3391 213.196 29.2189 213.773 27.2006L215.835 20.3032H219.387L220.252 37.5254H217.589L217.301 30.4991Z" fill="#F1F1F1"/>
<path d="M234.188 37.5254V30.3434L229.459 20.3032H232.566L234.362 24.7208C234.875 25.9983 235.248 26.9698 235.65 28.1454H235.695C236.073 27.045 236.494 25.9741 237.004 24.7208L238.802 20.3032H241.886L236.914 30.2656V37.5254H234.188Z" fill="#F1F1F1"/>
<path d="M1.72927 24.2695C23.5792 25.0371 59.4298 48.1074 59.4298 48.1074C59.4298 48.1074 78.6854 18.1611 96.2378 13.7837C93.7968 13.1047 44.9161 -0.000480328 44.9161 -0.000480328C44.9161 -0.000480328 -10.362 28.1772 1.72927 24.2695Z" fill="#F1F1F1"/>
<path d="M82.9084 27.9001C78.6373 30.5276 60.3999 53.9522 60.3999 53.9522C60.3999 53.9522 25.4062 32.8223 22.6875 34.0354C23.4492 36.7864 25.4141 47.5217 25.4141 47.5217C25.4141 47.5217 46.5579 56.1503 61.0029 66C74.6254 48.2839 80.5335 43.5013 80.5335 43.5013L82.9084 27.9001Z" fill="#ED1C24"/>
<path d="M74.2324 62.7391C74.2324 62.7391 97.529 34.5667 90.9967 20.7933C92.1445 20.1384 92.5068 19.811 92.5068 19.811C98.042 37.3418 75.6235 62.8008 75.6235 62.8008L74.2324 62.7391Z" fill="#ED1C24"/>
<path d="M74.0615 62.5024C74.0615 62.5024 69.5074 61.5255 68.3147 70.3043C67.2278 78.3344 76.1243 89 76.1243 89C76.1243 89 82.8787 70.7982 80.1124 65.825C79.3851 64.5153 78.6394 63.8792 77.6159 63.2754C76.5898 62.6688 74.0615 62.5024 74.0615 62.5024Z" fill="#ED1C24"/>
</svg>
