<svg width="39" height="22" viewBox="0 0 39 22" fill="none" xmlns="http://www.w3.org/2000/svg">
<path fill-rule="evenodd" clip-rule="evenodd" d="M22.45 14.9656L22.2617 15.0316L22.2691 15.3525C22.276 15.6529 22.2674 15.6807 22.1331 15.7897L21.9897 15.9061L21.7547 15.8002C21.6255 15.742 21.5157 15.7014 21.5107 15.7098C21.4602 15.7949 21.2025 16.2957 21.2025 16.3087C21.2025 16.318 21.2978 16.4038 21.4143 16.4995C21.6025 16.6539 21.6262 16.6965 21.6262 16.8808C21.6262 17.0824 21.6194 17.0909 21.3875 17.179C21.2561 17.2288 21.1401 17.2973 21.1296 17.3312C21.119 17.3651 21.1373 17.526 21.1702 17.6887L21.23 17.9846L21.5168 17.9676C21.7858 17.9516 21.8096 17.9601 21.8988 18.1032C21.9827 18.2379 21.9868 18.2752 21.9337 18.4195L21.9293 18.4314C21.8584 18.6239 21.825 18.7147 21.8487 18.7829C21.8698 18.8438 21.9364 18.8868 22.0624 18.968L22.0712 18.9737C22.214 19.0658 22.3398 19.1411 22.3508 19.1411C22.3617 19.1411 22.4309 19.0313 22.5045 18.8971C22.6081 18.708 22.6595 18.6593 22.7324 18.6811C22.7842 18.6966 22.8721 18.7096 22.9278 18.71C23.0063 18.7106 23.0478 18.771 23.1135 18.9797C23.1601 19.1277 23.2192 19.2487 23.2449 19.2487C23.2706 19.2487 23.4147 19.2197 23.5651 19.1841L23.5659 19.184C23.7037 19.1514 23.7773 19.1341 23.81 19.0854C23.8475 19.0295 23.8311 18.9324 23.7958 18.7239L23.7956 18.7229C23.7589 18.5062 23.7649 18.4863 23.8992 18.377C24.0379 18.2641 24.0474 18.2635 24.2642 18.3515C24.3866 18.4011 24.4978 18.4418 24.5113 18.4418C24.5247 18.4418 24.6031 18.3053 24.6855 18.1385C24.8044 17.8978 24.8223 17.8255 24.7724 17.7879C24.7378 17.7619 24.6444 17.6933 24.5649 17.6355C24.4316 17.5386 24.4224 17.5128 24.4472 17.3042C24.4725 17.0918 24.4885 17.0713 24.7095 16.9705C24.8389 16.9114 24.9518 16.8573 24.9602 16.8503C24.9687 16.8434 24.9387 16.6872 24.8935 16.5034L24.8114 16.169L24.5415 16.2013C24.2791 16.2326 24.2684 16.2287 24.1564 16.0601C24.042 15.8877 24.0417 15.8853 24.1247 15.6714C24.1707 15.5531 24.2094 15.4321 24.2109 15.4025C24.2123 15.3729 24.1043 15.267 23.9708 15.1672C23.7673 15.0151 23.7199 14.9983 23.6774 15.0629C23.3981 15.4877 23.3958 15.4896 23.1913 15.4522C23.0098 15.419 22.9912 15.3989 22.9141 15.154C22.8229 14.8642 22.7843 14.8486 22.45 14.9656ZM23.8796 17.2676C23.966 16.8071 23.7913 16.4019 23.4109 16.1801C22.8013 15.8247 22.0769 16.3986 22.1644 17.1677C22.2453 17.88 22.828 18.2576 23.3934 17.9641C23.6484 17.8318 23.8197 17.5863 23.8796 17.2676Z" fill="#9C9C9C"/>
<path fill-rule="evenodd" clip-rule="evenodd" d="M14.7307 1.24001C15.2229 0.620531 15.9079 0.173186 16.5519 0.0506991C17.547 -0.138546 18.4697 0.204494 19.2078 1.03807C19.4182 1.27562 19.6567 1.59413 19.7379 1.74583L19.8854 2.02168L20.289 1.86272C20.6242 1.73066 20.7656 1.70409 21.124 1.7057C22.6724 1.71269 23.9122 2.89701 24.2411 4.68321C24.2801 4.89548 24.3015 5.10054 24.2886 5.13889C24.2758 5.17725 24.1957 5.20926 24.1108 5.20996C24.0258 5.21065 23.8791 5.23174 23.7847 5.25681L23.6132 5.30237L23.541 4.85304C23.4451 4.25626 23.226 3.76125 22.8628 3.321C22.2202 2.54192 21.3569 2.27693 20.5144 2.60007C20.3211 2.6743 20.0345 2.809 19.8776 2.89948C19.7208 2.98996 19.5874 3.05634 19.5811 3.04698C19.5748 3.03768 19.4575 2.80007 19.3206 2.519C18.9962 1.85374 18.7554 1.53007 18.3758 1.24943C17.8841 0.885947 17.5563 0.783255 16.9613 0.806333C16.4826 0.824891 16.4458 0.835112 16.0487 1.06002C15.5458 1.34475 15.1289 1.8042 14.8778 2.35031C14.6556 2.83337 14.5692 3.22945 14.5335 3.92742C14.5173 4.24345 14.4884 4.53092 14.4694 4.56621C14.4428 4.61527 14.3344 4.6093 14.009 4.54098C13.0566 4.34098 12.3398 4.66062 11.9046 5.47941L11.7339 5.80039H11.2651C10.918 5.80039 10.7224 5.82885 10.5117 5.90997L10.2271 6.01954L9.83244 5.87263C9.37569 5.70265 9.37606 5.68775 9.84501 5.38807C10.2179 5.14982 10.5821 5.01705 11.005 4.96536C11.3265 4.92603 11.3304 4.92356 11.6405 4.56583C12.0186 4.12973 12.3631 3.89853 12.8539 3.75151C13.132 3.66824 13.3023 3.64855 13.5413 3.67201C13.8579 3.7031 13.8591 3.70272 13.8591 3.5655C13.8591 2.95785 14.2996 1.78257 14.7307 1.24001ZM28.1218 2.23363C28.5974 1.65196 29.0522 1.33684 29.6993 1.14077C29.8494 1.09526 30.1307 1.07546 30.476 1.086C31.0818 1.10456 31.4843 1.232 31.9746 1.56035C32.3133 1.78731 32.8609 2.40894 33.0643 2.79754L33.2211 3.09717L33.4167 2.9983C34.4658 2.46795 35.7641 2.76295 36.617 3.72553C37.2625 4.454 37.5802 5.2851 37.6203 6.35086L37.644 6.98201L37.9318 7.22371C38.9807 8.10457 39.3037 9.799 38.6921 11.213C38.4115 11.8618 37.8972 12.3922 37.2809 12.6682L37.0013 12.7935L33.7754 12.7932L30.5494 12.7929C25.1644 12.7923 24.0565 12.7797 23.8495 12.7168C22.8209 12.4039 22.0655 11.5049 21.7863 10.2617C21.682 9.7969 21.7167 8.82551 21.8555 8.32867C22.2172 7.03392 23.3343 6.01556 24.3928 6.01556C24.6227 6.01556 24.6349 6.00706 24.998 5.59458C25.5693 4.94551 26.0965 4.69655 26.8207 4.73378L27.1636 4.75142L27.2179 4.36072C27.336 3.51052 27.6154 2.85295 28.1218 2.23363ZM32.6977 3.6719C32.3092 2.78458 31.8177 2.24127 31.1667 1.97978C30.2615 1.61624 29.1828 1.97246 28.5475 2.84483C28.0927 3.46926 27.9006 4.0725 27.8535 5.02415C27.8384 5.32846 27.8104 5.60647 27.7912 5.64186C27.7645 5.69124 27.6592 5.68581 27.3392 5.61873C26.7791 5.50125 26.4395 5.50775 26.1257 5.64191C25.8151 5.77473 25.4448 6.14171 25.2247 6.53483C25.0638 6.82214 25.0634 6.82246 24.816 6.82413C23.852 6.83058 23.2421 7.15969 22.8037 7.90995C22.3046 8.76402 22.2823 10.0585 22.7529 10.8614C23.1021 11.4572 23.6274 11.874 24.1725 11.9877C24.3455 12.0239 26.5726 12.0377 30.6686 12.0281L36.9015 12.0135L37.1712 11.8573C37.6245 11.595 38.0162 11.094 38.1782 10.5696C38.5398 9.39824 38.1433 8.18865 37.2049 7.60085L36.8689 7.39036L36.908 6.98535C36.9839 6.20201 36.9239 5.75397 36.6566 5.10839C36.4379 4.58004 35.9438 4.00122 35.5115 3.76717C34.7971 3.38029 34.099 3.43677 33.2381 3.95098C33.0614 4.05647 32.9103 4.13452 32.9023 4.12435C32.8942 4.11419 32.8022 3.91058 32.6977 3.6719ZM16.7541 4.81006L16.9424 4.74454C17.2835 4.62581 17.3139 4.64023 17.411 4.96659C17.4987 5.26154 17.4996 5.26246 17.6945 5.26246C17.8712 5.26246 17.9051 5.23927 18.0486 5.02039C18.1359 4.88725 18.2142 4.77832 18.2226 4.77832C18.2768 4.77832 18.7054 5.13809 18.7033 5.18177C18.7018 5.21135 18.6635 5.33185 18.618 5.4495C18.5358 5.6623 18.536 5.66445 18.6568 5.8637C18.7271 5.97963 18.808 6.05548 18.8488 6.04375C18.8877 6.03256 19.0063 6.00803 19.1124 5.9892L19.3055 5.95505L19.3663 6.28249C19.3997 6.46258 19.4188 6.61832 19.4086 6.62854C19.3985 6.63876 19.292 6.6961 19.172 6.75592C18.9701 6.85657 18.9524 6.8812 18.9355 7.08519C18.9181 7.2924 18.9291 7.31564 19.1183 7.47088C19.229 7.56174 19.3196 7.647 19.3196 7.6604C19.3196 7.70322 19.029 8.27488 19.0072 8.27488C18.9957 8.27488 18.9033 8.22647 18.8018 8.16729C18.5715 8.03308 18.5267 8.03464 18.3686 8.18268C18.2517 8.29215 18.245 8.31915 18.2851 8.51695C18.3596 8.88376 18.3547 8.89329 18.0575 8.96343C17.9071 8.99894 17.763 9.02798 17.7373 9.02798C17.7116 9.02798 17.6525 8.90695 17.606 8.75902C17.5316 8.52276 17.5052 8.49005 17.3887 8.49005C17.3158 8.49005 17.2278 8.47779 17.1934 8.46283C17.1557 8.44643 17.0773 8.53228 16.9969 8.67801C16.9233 8.81131 16.8541 8.9204 16.8432 8.9204C16.8105 8.9204 16.3069 8.58908 16.3069 8.56762C16.3069 8.5567 16.347 8.43158 16.396 8.28951L16.4851 8.03114L16.3798 7.88025C16.2827 7.74109 16.253 7.73065 15.9985 7.74657L15.7226 7.76384L15.6627 7.46798C15.6298 7.30526 15.6115 7.14436 15.622 7.11047C15.6325 7.07658 15.7485 7.00805 15.8799 6.95823C16.1118 6.87017 16.1186 6.86173 16.1186 6.66011C16.1186 6.47576 16.0949 6.43316 15.9067 6.27877C15.7902 6.18313 15.6949 6.09727 15.6949 6.08797C15.6949 6.075 15.9526 5.57419 16.0031 5.48909C16.0081 5.48064 16.1175 5.52115 16.2462 5.57914C16.4771 5.68307 16.4822 5.68312 16.6172 5.58161C16.744 5.48624 16.7541 5.45396 16.7541 5.14433V4.81006ZM30.1095 6.28517C30.0539 5.90265 30.0577 5.89437 30.3348 5.79566C30.4771 5.74488 30.6051 5.70098 30.6192 5.69808C30.6333 5.69517 30.6837 5.82368 30.7313 5.98366C30.8149 6.26489 30.8243 6.27538 31.0117 6.29819C31.2106 6.32245 31.242 6.2976 31.4912 5.91874C31.5335 5.85434 31.5815 5.86543 31.7972 5.98926C31.9378 6.07 32.0604 6.14375 32.0696 6.15306C32.0787 6.16242 32.0341 6.29981 31.9706 6.45844L31.8551 6.74677L31.9775 6.91434C32.0939 7.07362 32.1105 7.07965 32.3118 7.03521C32.4283 7.00955 32.5457 6.9875 32.5727 6.98621C32.616 6.98411 32.8092 7.67804 32.7733 7.70677C32.7654 7.71306 32.6531 7.76643 32.5237 7.82538C32.2986 7.92791 32.2877 7.94249 32.2738 8.15756C32.2658 8.28123 32.2764 8.38311 32.2974 8.38392C32.3183 8.38472 32.4066 8.45288 32.4936 8.5354L32.6519 8.68543L32.5009 8.99119C32.4179 9.15935 32.3405 9.29695 32.329 9.29695C32.3175 9.29695 32.225 9.24854 32.1235 9.18936C31.8861 9.0509 31.8484 9.05359 31.6964 9.22008C31.5843 9.34278 31.5746 9.38071 31.6103 9.55629C31.681 9.90385 31.6734 9.91826 31.3711 10.0143C31.2161 10.0636 31.0723 10.1038 31.0513 10.1038C31.0304 10.1038 30.9737 9.97071 30.9253 9.80799C30.8393 9.51912 30.8331 9.51212 30.6589 9.51212C30.5005 9.51212 30.4642 9.53918 30.3348 9.75419C30.2546 9.88733 30.1791 9.99626 30.167 9.99626C30.1391 9.99626 29.6287 9.66786 29.6287 9.64989C29.6287 9.64257 29.6683 9.5047 29.7169 9.34359L29.805 9.05063L29.7007 8.90103C29.6047 8.76348 29.5741 8.75278 29.3223 8.76865L29.0483 8.78591L28.9861 8.51695C28.952 8.36902 28.9328 8.22023 28.9434 8.18634C28.9541 8.15245 29.0703 8.08391 29.2017 8.0341C29.4399 7.94367 29.4404 7.94303 29.4404 7.70908C29.4404 7.49289 29.4239 7.46115 29.2285 7.30085C29.112 7.2052 29.0167 7.11935 29.0167 7.11004C29.0167 7.09643 29.2852 6.57566 29.3263 6.50944C29.3322 6.50003 29.4395 6.55183 29.5648 6.62461L29.7927 6.75694L29.9648 6.61552C30.1208 6.48744 30.1343 6.4564 30.1095 6.28517ZM18.1247 7.55593C18.572 7.04334 18.4535 6.24999 17.8858 5.95531C17.4813 5.74531 17.0287 5.8892 16.7853 6.30513C16.4507 6.87679 16.7423 7.69241 17.333 7.83716C17.6523 7.91543 17.8823 7.83372 18.1247 7.55593ZM7.32074 6.8861C7.5435 6.76038 7.86124 6.62396 8.02684 6.58287C9.01167 6.33875 10.0112 6.66253 10.7688 7.47094C10.9667 7.68218 11.2154 8.00823 11.3213 8.19543L11.5139 8.53583L11.7333 8.42744C12.5025 8.04733 13.3963 8.10258 14.2027 8.58016C14.605 8.81841 15.2119 9.48507 15.4511 9.95135C15.7519 10.5377 15.9292 11.3154 15.9299 12.0513L15.9303 12.4118L16.135 12.5727C16.8276 13.1173 17.2954 14.1736 17.2954 15.1933C17.2954 15.7349 17.2244 16.08 17.0046 16.6059C16.6814 17.3795 16.0449 17.9882 15.3399 18.1981C14.9338 18.3189 2.53672 18.3217 2.13989 18.2011C1.21424 17.9195 0.450565 17.0611 0.128912 15.9404C0.0252093 15.5791 0.00463833 15.4065 0.000637086 14.8646C-0.00355245 14.2867 0.0100048 14.1721 0.130466 13.771C0.294423 13.2252 0.639894 12.6204 0.993651 12.2601C1.43925 11.8062 2.19995 11.4516 2.73264 11.4495C2.911 11.4487 2.95657 11.4157 3.27398 11.0571C3.83707 10.4208 4.49177 10.1141 5.15654 10.1753L5.46855 10.2041L5.50107 9.87157C5.54297 9.44257 5.72401 8.8247 5.9373 8.38247C6.1995 7.83894 6.81828 7.16964 7.32074 6.8861ZM31.6269 8.35379C31.8213 7.88563 31.6684 7.29278 31.2926 7.05759C31.0443 6.90218 30.8687 6.87593 30.6041 6.95479C29.7701 7.20326 29.7644 8.55385 30.596 8.86747C30.9667 9.00727 31.4569 8.763 31.6269 8.35379ZM10.4863 8.23792C10.2196 7.87848 9.77416 7.54566 9.38708 7.41666C8.99919 7.2874 8.78153 7.26437 8.39854 7.31214C7.41009 7.43538 6.5381 8.33201 6.25218 9.51917C6.21391 9.67802 6.16975 10.0785 6.15398 10.4091C6.13826 10.7398 6.10968 11.0394 6.09048 11.0748C6.06369 11.1244 5.9566 11.1185 5.62944 11.0499C5.08391 10.9353 4.55518 10.9965 4.20401 11.2149C3.96483 11.3637 3.67203 11.6976 3.44392 12.0818L3.31432 12.3001L2.78489 12.3182C2.30827 12.3344 2.22495 12.3528 1.94948 12.5027C1.76989 12.6003 1.53655 12.7899 1.3846 12.9615C0.249326 14.2442 0.565754 16.5064 1.98808 17.2764L2.30253 17.4466H8.75159H15.2006L15.4547 17.2969C15.8185 17.0826 16.0398 16.8669 16.2265 16.5448C16.5163 16.045 16.6611 15.3341 16.5853 14.7837C16.5415 14.4661 16.2802 13.8198 16.1069 13.6004C15.9526 13.4051 15.6065 13.0972 15.3859 12.9587L15.1945 12.8387L15.1964 12.1033C15.1981 11.4379 15.1861 11.3282 15.07 10.9501C14.9118 10.4342 14.7659 10.1597 14.4539 9.79126C13.9827 9.2345 13.4521 8.97419 12.7885 8.97419C12.4008 8.97419 12.0574 9.0871 11.5411 9.3842C11.3608 9.48792 11.2082 9.56522 11.2019 9.55591C11.1957 9.5466 11.0787 9.30905 10.942 9.02798C10.8052 8.74691 10.6002 8.39139 10.4863 8.23792ZM19.7422 12.3363C19.9988 11.7278 20.384 11.2007 20.8198 10.8615L21.0833 10.6564L21.2057 11.0122L21.3281 11.368L21.183 11.4988C20.8925 11.7604 20.5395 12.2366 20.3825 12.5783C20.1709 13.0392 20.0727 13.4942 20.0393 14.169C20.0242 14.4733 19.9962 14.7513 19.977 14.7867C19.9504 14.836 19.8428 14.8302 19.5166 14.7617C19.0442 14.6625 18.5523 14.6984 18.223 14.8562L18.1945 14.87C18.131 14.9009 18.092 14.9199 18.065 14.9079C18.0222 14.8889 18.0098 14.7918 17.9777 14.5405L17.9686 14.4695C17.9252 14.1329 17.9262 14.1275 18.0454 14.0753C18.3887 13.925 18.7468 13.8576 19.0489 13.8865C19.3633 13.9166 19.3666 13.9155 19.3666 13.7827C19.3666 13.4698 19.5308 12.8375 19.7422 12.3363ZM16.6621 11.7042C16.652 11.6672 16.6305 11.4857 16.6142 11.3007L16.5847 10.9645H18.0949H19.6051L19.4211 11.247C19.3199 11.4023 19.2125 11.5838 19.1825 11.6504C19.1281 11.7712 19.1257 11.7714 17.9042 11.7714C16.9664 11.7714 16.6762 11.7557 16.6621 11.7042ZM8.375 11.3198L8.56329 11.2539C8.89888 11.1364 8.93607 11.152 9.02946 11.4487C9.07602 11.5966 9.14107 11.7176 9.17407 11.7176C9.20707 11.7176 9.29731 11.7321 9.37456 11.7498C9.49643 11.7776 9.5282 11.758 9.61491 11.6018C9.6699 11.5028 9.73297 11.3905 9.75505 11.3522C9.78617 11.2984 9.8556 11.3223 10.0619 11.4577C10.2086 11.554 10.327 11.6579 10.3251 11.6887C10.3231 11.7194 10.284 11.8414 10.2381 11.9597C10.1551 12.1735 10.1553 12.176 10.2698 12.3483C10.3818 12.5171 10.3923 12.5209 10.6556 12.4895L10.9263 12.4571L10.9805 12.7029C11.069 13.1044 11.0583 13.1373 10.7993 13.2624C10.606 13.3556 10.5639 13.4 10.5639 13.5107C10.5639 13.5848 10.552 13.6808 10.5375 13.7241C10.5207 13.7739 10.5681 13.8441 10.667 13.9157C10.7527 13.9779 10.8511 14.0501 10.8857 14.0762C10.9357 14.1138 10.9178 14.1861 10.7989 14.4268C10.7165 14.5936 10.6381 14.7301 10.6246 14.7301C10.6111 14.7301 10.4999 14.6894 10.3775 14.6397C10.1607 14.5517 10.1513 14.5524 10.0125 14.6653C9.87824 14.7746 9.87226 14.7945 9.90893 15.0112L9.90909 15.0122C9.9444 15.2207 9.96084 15.3178 9.92332 15.3737C9.89063 15.4223 9.81699 15.4397 9.67919 15.4722L9.67846 15.4724C9.52802 15.5079 9.38392 15.537 9.35822 15.537C9.33257 15.537 9.27344 15.4159 9.22689 15.268C9.16117 15.0592 9.11961 14.9989 9.04109 14.9983C8.9854 14.9979 8.89752 14.9849 8.84573 14.9694C8.77282 14.9476 8.72141 14.9963 8.6178 15.1853C8.54423 15.3195 8.47508 15.4294 8.46411 15.4294C8.45314 15.4294 8.32732 15.354 8.18449 15.2619L8.17573 15.2563C8.04975 15.175 7.98317 15.1321 7.96204 15.0712C7.93835 15.003 7.97177 14.9122 8.04264 14.7196L8.04699 14.7078C8.10018 14.5632 8.096 14.5261 8.01089 14.3896C7.91768 14.24 7.9053 14.2361 7.62592 14.2704L7.33722 14.3057L7.25851 13.97C7.21525 13.7854 7.1895 13.6164 7.20132 13.5946C7.21313 13.5727 7.3263 13.5156 7.45278 13.4675C7.65774 13.3898 7.68617 13.3597 7.71381 13.1912C7.7397 13.0336 7.72675 12.9858 7.63628 12.9042C7.57654 12.8503 7.47764 12.7598 7.41644 12.703L7.30516 12.5997L7.46003 12.3066C7.54519 12.1454 7.61891 12.0066 7.6239 11.9982C7.62889 11.9897 7.7356 12.0289 7.8611 12.0853C8.08813 12.1872 8.08992 12.1871 8.23952 12.075C8.38263 11.9678 8.3895 11.947 8.38244 11.6412L8.375 11.3198ZM9.50848 14.2515C10.1329 13.9274 10.1579 12.879 9.55042 12.4859C9.18895 12.2519 8.67608 12.3725 8.43196 12.7487C8.38079 12.8277 8.31272 13.0092 8.28076 13.1522C8.10127 13.9547 8.82742 14.605 9.50848 14.2515ZM29.0368 14.8431C28.9486 14.4964 28.7714 14.0765 28.6089 13.829L28.4941 13.6542H28.9193H29.3446L29.4577 13.9097C29.6717 14.3931 29.7775 14.8863 29.8046 15.5262L29.8303 16.134L30.0283 16.2897C30.5124 16.6703 30.9698 17.4465 31.1097 18.1246C31.2616 18.8611 31.1807 19.6788 30.8865 20.3784C30.6007 21.0582 29.8949 21.7165 29.2375 21.9165C28.864 22.0302 16.4009 22.0266 16.0266 21.9128C15.4039 21.7235 14.7228 21.1557 14.3748 20.536C14.2082 20.2394 13.9813 19.5985 13.9332 19.289L13.9018 19.0873H14.2552H14.6086L14.6622 19.3146C14.8246 20.0042 15.3169 20.6863 15.8669 20.9839L16.1892 21.1584H22.6383H29.0873L29.3697 21.0003C29.9722 20.6631 30.381 19.981 30.4707 19.1633C30.5887 18.0881 30.1834 17.2518 29.2594 16.6637L29.0548 16.5335L29.094 16.1293C29.146 15.5938 29.1286 15.2042 29.0368 14.8431Z" fill="#9C9C9C"/>
</svg>
