<svg width="23" height="32" viewBox="0 0 23 32" fill="none" xmlns="http://www.w3.org/2000/svg">
<path d="M6.24858 30.8142L2.55479 9.88277C2.44674 9.27043 2.91778 8.70898 3.53958 8.70898H20.749C21.3592 8.70898 21.8272 9.25076 21.7384 9.85448L18.6602 30.7859C18.588 31.2767 18.167 31.6404 17.6709 31.6404H7.23336C6.74812 31.6404 6.33291 31.2921 6.24858 30.8142Z" stroke="#9C9C9C" stroke-width="0.7"/>
<path d="M10.4537 29.4456C10.7659 29.4456 11.0017 29.1626 10.9455 28.8555L5.78762 0.687485C5.74414 0.450026 5.53721 0.277543 5.2958 0.277543L3.96721 0.277543C3.65237 0.277543 3.41588 0.565037 3.4766 0.873972L9.01292 29.042C9.059 29.2765 9.26456 29.4456 9.50353 29.4456L10.4537 29.4456Z" fill="#9C9C9C"/>
</svg>
