<svg width="135" height="81" viewBox="0 0 135 81" fill="none" xmlns="http://www.w3.org/2000/svg">
<g clip-path="url(#clip0_907_62123)">
<path d="M92.0294 79.5482C87.4199 79.5482 84.2857 79.0362 84.1447 79.0135L84.7135 76.1839C84.7463 76.1888 88.1838 76.7463 93.0228 76.6634C97.4421 76.5886 103.976 75.9499 110.012 73.3365C115.257 71.0661 120.742 67.1363 123.76 64.8171C111.794 62.5222 73.9996 55.2704 73.3094 55.1144L74.0766 52.3239L74.0684 52.3223C74.9601 52.514 109.412 59.1271 127.505 62.597L130.486 63.1691L128.258 65.0576C127.905 65.355 119.55 72.3955 111.374 75.9369C104.801 78.7827 97.7552 79.4685 93.0031 79.5433C92.672 79.5449 92.3474 79.5482 92.0294 79.5482Z" fill="#639334"/>
<path d="M118.498 74.9629C112.01 78.2855 107.132 79.6853 103.551 80.2154C100.096 80.7267 97.8304 80.4324 96.4489 80.2529C96.4169 80.2488 96.3853 80.2447 96.3543 80.2407L74.9987 73.2788L54.3443 66.5456L69.7256 50.0631L134.03 62.5451C133.831 62.76 133.583 63.0226 133.293 63.3249C132.437 64.2145 131.208 65.4465 129.714 66.8138C126.722 69.5531 122.692 72.8148 118.498 74.9629Z" fill="#1C1C1C" stroke="#F1F1F1"/>
<path d="M88.3728 76.2797C90.3378 77.9446 92.1303 79.1165 93.4967 79.8979L30.6401 72.4576C30.6357 72.455 30.6311 72.4523 30.6264 72.4495C30.5605 72.4106 30.4614 72.3509 30.3332 72.2698C30.0767 72.1075 29.7034 71.8597 29.2441 71.5219C28.3251 70.8462 27.0631 69.8112 25.7026 68.3812C22.9821 65.5218 19.8706 61.0863 18.3136 54.7821C15.9491 45.2056 14.5725 36.1831 13.543 29.4355C13.0693 26.3306 12.6691 23.7074 12.2799 21.7334C11.0947 15.7206 8.10831 10.1998 5.43513 6.19627C4.0964 4.19128 2.8312 2.55936 1.89989 1.42779C1.61379 1.08017 1.35908 0.779626 1.14329 0.529844L55.2463 1.93414C55.2488 1.93521 55.2514 1.9363 55.254 1.93743C55.3135 1.96294 55.4037 2.00291 55.5211 2.05871C55.7562 2.17031 56.1003 2.34513 56.5266 2.59406C57.3794 3.09198 58.5601 3.88578 59.8541 5.0624C62.4395 7.41317 65.4854 11.2987 67.2724 17.4275C68.0357 20.0456 68.9349 25.159 69.973 31.0617C70.2525 32.651 70.5421 34.2975 70.8418 35.968C72.2476 43.8037 73.8735 52.1463 75.7164 57.3697C79.0083 66.7022 84.0967 72.6566 88.3728 76.2797Z" fill="#1C1C1C" stroke="#F1F1F1"/>
<path d="M87.4372 79.1526L83.2669 78.6587C80.3119 76.0407 76.9949 72.4676 74.3293 67.9218L73.898 68.1747L74.3292 67.9217C71.2589 62.6872 68.8403 56.6159 66.9429 49.3532L66.4592 49.4796L66.9429 49.3532C65.2776 42.9805 64.2073 36.515 63.1691 30.2382L63.1691 30.2381L63.1588 30.176C62.4107 25.6574 61.7012 21.3723 60.7971 17.2626C60.7971 17.2625 60.7971 17.2625 60.7971 17.2625L87.4372 79.1526ZM87.4372 79.1526C84.1858 76.636 79.8031 72.5639 76.5107 66.9503C69.8348 55.569 67.6736 42.501 65.6011 29.9696L65.5954 29.935L65.5954 29.9349L65.593 29.9202C64.8345 25.34 64.1208 21.0301 63.2055 16.8613C61.0713 7.15814 53.4891 4.64053 53.2213 4.55509L53.221 4.55501L53.0385 4.49667L6.12164 3.02475L7.27122 4.70811C7.33104 4.79538 9.00995 7.27234 10.7922 10.4878C12.5751 13.7046 14.5052 17.7363 14.969 20.8589C16.7222 32.6541 18.3415 43.0512 20.445 51.1861C22.7005 59.906 25.4477 65.6489 29.0543 69.3468L29.0544 69.3469C30.2701 70.5942 31.499 71.7041 32.6501 72.6646L36.0092 73.0445C35.5802 72.6692 35.1307 72.2452 34.6505 71.7738C33.9166 71.0534 33.0979 70.2087 32.1623 69.2434C31.7696 68.8383 31.3564 68.412 30.9202 67.9647L30.9201 67.9646C27.3134 64.2644 24.8516 58.507 22.8337 50.6742C20.8133 42.8321 19.2198 32.8315 17.3993 20.585L17.3993 20.585C17.0572 18.2834 15.9983 15.5402 14.7381 12.9136C13.482 10.2955 12.044 7.82974 10.9706 6.09187L10.4816 5.30019L11.4117 5.32937L52.4447 6.61655L52.535 6.61938L52.6186 6.65365C53.1454 6.86952 54.4747 7.48814 55.9214 8.73871L87.4372 79.1526Z" fill="#1C1C1C" stroke="#F1F1F1"/>
<path d="M30.17 68.3793C28.6012 66.5961 27.3711 63.7626 28.4735 61.3123C29.5721 58.8702 33.127 56.4936 41.9027 55.9614C53.3102 55.2698 61.1119 57.8203 66.5023 61.2233C71.8982 64.6299 74.9178 68.9156 76.7229 71.766L77.1453 71.4984L76.7229 71.766C77.195 72.5115 77.2677 73.1975 77.1098 73.8158C76.9475 74.451 76.529 75.0607 75.9411 75.5997C74.7584 76.684 73.0413 77.3483 71.9336 77.342L36.2502 73.0987C33.5259 71.5892 31.45 69.8338 30.17 68.3793ZM30.17 68.3793L29.7946 68.7095L30.17 68.3793Z" fill="#1C1C1C" stroke="#F1F1F1"/>
<path d="M45.7802 29.6657C45.7802 30.534 45.2061 31.3999 44.1093 32.0747C43.0207 32.7445 41.4852 33.1751 39.7627 33.1751C38.04 33.1751 36.5045 32.7448 35.416 32.0752C34.3193 31.4007 33.7451 30.5349 33.7451 29.6657C33.7451 28.7974 34.3193 27.9315 35.416 27.2567C36.5046 26.5869 38.0401 26.1562 39.7627 26.1562C41.4853 26.1562 43.0208 26.5866 44.1094 27.2562C45.206 27.9307 45.7802 28.7965 45.7802 29.6657Z" stroke="#F1F1F1"/>
<path d="M93.2552 68.2236C93.0772 68.7215 92.396 69.182 91.129 69.3567C89.9083 69.525 88.3182 69.395 86.6599 68.9054C85.0006 68.4156 83.6348 67.6727 82.7632 66.8915C81.8585 66.0806 81.6281 65.3746 81.7977 64.9003C81.9758 64.4023 82.6569 63.9418 83.9239 63.7671C85.1446 63.5989 86.7347 63.7289 88.393 64.2184C90.0523 64.7083 91.4181 65.4512 92.2897 66.2323C93.1944 67.0433 93.4248 67.7492 93.2552 68.2236Z" stroke="#F1F1F1"/>
<path d="M67.4733 73.6103L66.9719 73.5645L66.9296 74.0662C66.8424 75.0994 66.6017 75.9516 66.2575 76.6591L60.2153 75.9441C60.4003 75.8329 60.5817 75.7069 60.7563 75.5641C61.6193 74.8584 62.2776 73.7753 62.4261 72.1665L62.4262 72.1662C62.5815 70.4717 62.3076 69.0624 61.5077 68.058C60.6992 67.0428 59.4329 66.5398 57.825 66.4932C56.4765 66.4541 55.4711 67.0853 54.6805 68.1225C53.9095 69.134 53.3163 70.5624 52.7498 72.2057C52.7318 72.2578 52.7136 72.3105 52.6952 72.3638C52.4251 73.1466 52.1141 74.0482 51.6432 74.931L46.5399 74.3268C46.9122 74.0815 47.2134 73.7496 47.4764 73.3711C47.784 72.9284 48.0563 72.3967 48.3323 71.8221C48.4231 71.6332 48.5142 71.44 48.6077 71.2416C48.8042 70.8243 49.0115 70.3845 49.2491 69.915C49.4793 69.4601 49.7006 68.9166 49.9275 68.3592C50.0557 68.0443 50.1857 67.7249 50.3202 67.4145C50.7061 66.5239 51.1578 65.6281 51.7901 64.8349C53.0261 63.2841 55.0124 62.0472 58.7793 62.2202L58.7794 62.2202C61.5939 62.349 63.4815 63.2235 64.7288 64.6274C65.9877 66.0443 66.6567 68.0699 66.8822 70.6206L66.9215 71.0648L67.3672 71.0764L69.5048 71.1324L69.5969 73.8042L67.4733 73.6103ZM43.7645 65.5298C43.741 65.531 43.717 65.5325 43.6924 65.5342C43.3176 65.5611 42.8085 65.6544 42.3022 65.9295C41.7887 66.2086 41.294 66.6665 40.9527 67.3913C40.6145 68.1095 40.4391 69.0629 40.5109 70.3207L40.5109 70.3209C40.5945 71.7723 40.9912 72.8551 41.7403 73.5954C41.8069 73.6612 41.8756 73.7236 41.9465 73.7829L36.5899 73.1488C36.4444 72.7345 36.3221 72.2962 36.2265 71.83L36.1557 71.4847L35.8067 71.4353L33.6499 71.1304L33.592 68.9929L35.4885 69.0513L35.9723 69.0662L36.0029 68.5832C36.12 66.7398 36.6899 65.4269 37.4535 64.4829C38.2206 63.5347 39.2075 62.9291 40.2 62.544C41.194 62.1584 42.1803 61.9993 42.9226 61.9379C43.2211 61.9132 43.4779 61.9044 43.6772 61.9027L43.7645 65.5298Z" stroke="#F1F1F1"/>
</g>
<defs>
<clipPath id="clip0_907_62123">
<rect width="135" height="81" fill="white"/>
</clipPath>
</defs>
</svg>
