<svg width="148" height="76" viewBox="0 0 148 76" fill="none" xmlns="http://www.w3.org/2000/svg">
<path d="M58.9843 8.22113L58.9843 8.22116C60.6406 9.19284 63.689 10.514 67.4657 12.045C70.0342 13.0861 72.959 14.232 76.0412 15.4394C77.5034 16.0122 79.001 16.5989 80.5128 17.1949C89.9324 20.9083 99.8875 24.9773 105.453 28.3568C116.376 34.9892 126.926 43.1421 134.75 49.6418C138.661 52.8907 141.888 55.7245 144.137 57.7455C145.262 58.7561 146.142 59.5633 146.74 60.1176C146.89 60.2568 147.023 60.38 147.137 60.4864L117.6 75.4969L73.7832 74.3662C73.7763 74.3568 73.7692 74.3471 73.7619 74.337C73.6523 74.1866 73.4902 73.9652 73.2799 73.6807C72.8592 73.1117 72.2452 72.2902 71.471 71.2784C69.9229 69.2551 67.7335 66.4701 65.1678 63.4228C60.0455 57.339 53.3907 50.1698 47.3323 45.949C39.0976 40.2121 30.0555 36.729 22.6812 34.3717C20.0851 33.5418 17.6864 32.8487 15.6064 32.2477C14.7352 31.996 13.92 31.7605 13.1695 31.5378C11.8936 31.1591 10.8079 30.8186 9.94208 30.4976C9.06483 30.1724 8.45886 29.8831 8.1107 29.6202L7.80945 30.0193L8.1107 29.6202C4.65579 27.0121 2.75141 24.2264 1.71089 22.1048C1.19018 21.0431 0.885151 20.1463 0.710922 19.5196C0.647572 19.2918 0.601538 19.0998 0.568728 18.9486L51.9936 0.600961C52.107 0.76599 52.2615 0.987987 52.4503 1.25288C52.8739 1.84713 53.4713 2.65891 54.1667 3.52855C55.5412 5.24755 57.3536 7.26424 58.9843 8.22113Z" fill="#1C1C1C" stroke="#F1F1F1"/>
<path d="M50.2215 43.4468C39.3806 36.0805 27.1251 32.7005 20.2358 30.8004C17.8837 30.1517 16.157 29.6755 15.3258 29.272L50.2215 43.4468ZM50.2215 43.4468C60.8927 50.6996 79.2377 73.5292 79.2377 73.5292L50.2215 43.4468ZM15.5441 28.8222L15.5441 28.8222C10.8897 26.5635 8.71095 24.3809 7.69152 22.8136C7.18194 22.0302 6.95824 21.395 6.85998 20.971C6.8332 20.8554 6.81562 20.755 6.80415 20.671L51.4138 4.21748C51.5314 4.39701 51.6934 4.63995 51.8941 4.93C52.3372 5.57045 52.9705 6.44284 53.7313 7.37034C55.2359 9.20459 57.3014 11.3329 59.4219 12.2392C61.0072 12.9167 63.8758 14.0247 67.4215 15.3942C70.7102 16.6645 74.5814 18.1597 78.5516 19.7453C86.8335 23.0527 95.5571 26.7568 100.507 29.6884C110.22 35.4415 120.439 42.9787 128.235 49.0841C132.132 52.1356 135.421 54.827 137.735 56.7554C138.892 57.7195 139.806 58.4928 140.43 59.0249C140.575 59.1493 140.705 59.2605 140.819 59.3578L111.887 73.7867L79.4811 73.0347C79.4617 73.0108 79.4405 72.9846 79.4175 72.9562C79.2801 72.7866 79.0773 72.5372 78.8155 72.2174C78.292 71.5777 77.5326 70.6562 76.5879 69.5278C74.6989 67.2712 72.0686 64.1865 69.1039 60.8743C63.1881 54.2653 55.8961 46.6991 50.5025 43.0333L50.5025 43.0333C43.1767 38.0554 35.2199 34.8905 28.6996 32.7728C25.4985 31.7332 22.639 30.9445 20.3709 30.319L20.2441 30.284C17.927 29.6449 16.3078 29.1928 15.5441 28.8222ZM108.011 72.5086L108.119 72.5061L108.216 72.4593L135.836 59.1601L136.487 58.8468L135.965 58.348L135.619 58.7096C135.965 58.348 135.965 58.3479 135.964 58.3477L135.964 58.3472L135.962 58.3453L135.954 58.338L135.924 58.3097C135.91 58.296 135.892 58.2787 135.869 58.2579C135.851 58.2406 135.83 58.221 135.807 58.199C135.703 58.1015 135.549 57.9573 135.345 57.7693C134.938 57.3933 134.334 56.842 133.544 56.1393C131.965 54.7338 129.644 52.7224 126.674 50.295C120.734 45.4406 112.195 38.921 101.794 32.2581C92.1605 26.0864 76.8687 20.6542 68.0922 17.5365C67.3734 17.2811 66.6983 17.0413 66.0735 16.8178L65.9052 17.2886L66.0735 16.8178C61.0929 15.0368 57.3821 12.5063 54.918 10.4231C53.6861 9.38157 52.7669 8.45268 52.1575 7.78668C51.8529 7.45373 51.6258 7.18664 51.476 7.00423C51.4011 6.91303 51.3455 6.84302 51.3092 6.79655C51.291 6.77332 51.2777 6.75597 51.2692 6.74481L51.26 6.73273L51.2582 6.73024L51.2581 6.73016L51.2579 6.72995L51.2579 6.7299L51.0371 6.43343L50.6887 6.558L10.307 20.9975L9.88787 21.1473L9.98822 21.581L10.4754 21.4683C9.98822 21.581 9.98836 21.5816 9.98849 21.5822L9.98879 21.5834L9.98947 21.5863L9.99121 21.5934L9.99629 21.6129C10.0004 21.6282 10.0061 21.6482 10.0137 21.6726C10.0289 21.7215 10.0516 21.7881 10.0843 21.8705C10.1498 22.0356 10.2554 22.2639 10.4213 22.5413C10.7536 23.0969 11.3249 23.8446 12.2931 24.6742C14.2286 26.3324 17.7389 28.3083 24.0799 29.7458C27.5554 30.5343 41.6051 35.4014 56.0991 45.2515C61.3807 48.8412 68.2026 55.7353 73.7276 61.7656C76.4843 64.7745 78.9086 67.5576 80.6436 69.5885C81.5111 70.6038 82.2061 71.4309 82.684 72.0039C82.923 72.2904 83.1077 72.5134 83.2325 72.6646C83.2949 72.7402 83.3424 72.7979 83.3742 72.8366L83.41 72.8803L83.419 72.8912L83.4212 72.8939L83.4217 72.8945C83.4218 72.8947 83.4219 72.8947 83.8089 72.5781L83.4219 72.8947L83.5765 73.0838L83.8206 73.078L108.011 72.5086Z" fill="#1C1C1C" stroke="#F1F1F1"/>
<path d="M86.7331 70.5383L86.7332 70.5383C88.6382 69.3976 92.1149 67.3075 95.1149 65.5029C96.615 64.6005 97.996 63.7693 99.0021 63.1638L100.198 62.444L100.245 62.4154C100.383 62.6039 100.568 62.8564 100.792 63.1567C101.298 63.8362 102.002 64.7619 102.79 65.7457C103.578 66.7288 104.455 67.7742 105.307 68.6916C106.153 69.6022 106.997 70.4119 107.72 70.9028C109.836 72.3422 112.282 73.729 114.193 74.7535C114.664 75.006 115.104 75.2368 115.498 75.4414L76.7423 74.4427C77.3533 74.2554 78.0243 74.0444 78.7262 73.8151C81.4844 72.9137 84.7734 71.7112 86.7331 70.5383Z" fill="#1C1C1C" stroke="#F1F1F1"/>
<path d="M99.2937 66.5576C99.314 66.5973 99.3354 66.6387 99.3579 66.6819C99.5768 67.1019 99.8989 67.6824 100.314 68.3271C101.137 69.6077 102.35 71.1803 103.871 72.2355L103.872 72.2356C105.83 73.5927 108.112 74.5876 109.961 75.2579L105.916 75.133C105.904 75.1289 105.892 75.1243 105.879 75.1193C105.806 75.0921 105.7 75.0518 105.568 74.9997C105.304 74.8955 104.936 74.7446 104.523 74.5586C103.689 74.1822 102.707 73.6778 102.019 73.1392L102.019 73.1391C101.377 72.6362 100.622 71.816 100.013 71.0994C99.7124 70.7453 99.4535 70.4239 99.2698 70.191C99.178 70.0747 99.1053 69.9807 99.0556 69.9161C99.0308 69.8838 99.0118 69.8589 98.9991 69.8421L98.9848 69.8234L98.9814 69.8188L98.9806 69.8178L98.9805 69.8176L98.9805 69.8176L98.9805 69.8176L98.7088 69.4561L98.3219 69.6902L98.5808 70.118L98.3219 69.6902L98.3218 69.6903L98.3213 69.6906L98.3194 69.6917L98.3117 69.6964L98.2815 69.7146L98.1652 69.7848C98.0641 69.8458 97.9177 69.9338 97.7371 70.0421C97.3758 70.2588 96.8774 70.5564 96.329 70.8803C95.2286 71.5303 93.9387 72.2789 93.1475 72.6947C91.5404 73.5391 90.2593 74.0548 89.3856 74.3583C88.9487 74.5101 88.6136 74.6089 88.3904 74.6691C88.2787 74.6993 88.1951 74.7198 88.1407 74.7325C88.133 74.7343 88.1259 74.7359 88.1193 74.7374L84.0139 74.585C85.6937 74.0905 87.8202 73.3387 90.0963 72.2245C92.7857 70.9084 95.2061 69.3986 96.9524 68.2196C97.8262 67.6296 98.5328 67.1214 99.0216 66.7602C99.1215 66.6863 99.2123 66.6186 99.2937 66.5576Z" fill="#1C1C1C" stroke="#F1F1F1"/>
<path d="M60.8114 26.848L60.8114 26.848C70.7674 21.4127 79.5422 22.0344 85.314 24.2612L90.6455 26.5486C92.3752 27.5572 93.4405 28.797 93.9029 30.1603C94.3665 31.5275 94.2473 33.0882 93.4745 34.7796C91.9171 38.1879 87.7396 42.0358 80.7301 45.5318C75.0497 48.3649 70.1552 49.311 65.6659 48.6809C61.1806 48.0514 57.0375 45.8399 52.8719 42.242C51.2639 40.5875 50.5183 39.0912 50.3613 37.7371C50.2047 36.386 50.6253 35.0989 51.5043 33.8427C53.287 31.2952 56.8608 29.0046 60.8114 26.848Z" fill="#1C1C1C" stroke="#F1F1F1"/>
<path d="M85.2057 28.395L85.9511 28.0046L87.2043 27.3481L84.9462 26.0296L82.9175 27.2029L82.7203 27.317L82.5049 27.243C80.7094 26.6269 78.7023 26.0067 77.4178 25.9445L85.2057 28.395ZM85.2057 28.395L85.905 28.863C86.8352 29.4855 87.4949 30.1611 87.7933 30.8487L87.7935 30.8491C88.2988 32.0107 87.7847 33.3414 86.9928 34.4964C86.6089 35.0563 86.1857 35.5357 85.8567 35.8763C85.7664 35.9698 85.6836 36.0524 85.6111 36.1229L83.031 34.0408M85.2057 28.395L83.031 34.0408M83.031 34.0408C83.2631 33.8153 83.5334 33.4897 83.7046 33.0711C83.898 32.5983 83.9577 32.0214 83.717 31.3812C83.4813 30.7547 82.9739 30.1096 82.1161 29.4487C80.9197 28.5268 79.2792 28.1525 77.685 28.1632C76.0874 28.1738 74.4613 28.5709 73.2554 29.2763C72.598 29.6607 72.2089 30.1821 72.1503 30.8171C72.0949 31.4181 72.3486 32.0067 72.7045 32.5244C73.418 33.562 74.7248 34.5777 75.9535 35.327L76.2138 34.9001L75.9535 35.327C77.4535 36.2417 78.2648 37.5836 78.2469 38.8633C78.2293 40.1167 77.4106 41.4888 75.2663 42.4725L75.2663 42.4726C70.9023 44.4753 66.2022 43.7151 62.454 41.9352L62.2286 41.8281L62.0075 41.9439L59.943 43.025L57.8421 41.7389L59.5045 40.7776L60.1605 40.3983L59.576 39.961C58.2963 38.6821 57.8029 37.5152 57.7258 36.5052C57.648 35.4858 57.9886 34.5534 58.5087 33.743C59.03 32.9309 59.7166 32.2659 60.2824 31.7999C60.542 31.5861 60.7728 31.4169 60.945 31.2974L62.6972 32.9623C62.5808 33.077 62.4518 33.2165 62.3224 33.3801C61.9135 33.8968 61.4829 34.6772 61.4711 35.6804C61.4711 35.6805 61.4711 35.6806 61.4711 35.6806L61.971 35.6865M83.031 34.0408L70.1955 39.8223L70.0212 39.3537M61.971 35.6865C61.9433 37.9794 67.0899 40.4447 70.0212 39.3537M61.971 35.6865C61.9843 34.5477 62.6282 33.7289 63.0598 33.3069L61.971 35.6865ZM70.0212 39.3537C74.102 37.8354 72.1594 36.2679 69.9179 34.4592C68.7969 33.5547 67.6012 32.5899 67.0467 31.5407L70.1956 39.8223M70.0212 39.3537L70.1956 39.8223M70.1956 39.8223C70.984 39.5289 71.5882 39.2219 72.0224 38.8906C72.4582 38.5582 72.7558 38.1752 72.8599 37.7279C72.9649 37.2763 72.852 36.8487 72.6485 36.4725C72.4479 36.102 72.143 35.7492 71.8032 35.4162C71.3528 34.9746 70.7774 34.5102 70.2053 34.0483C69.9299 33.826 69.6553 33.6043 69.3957 33.3861C68.5614 32.6847 67.8547 31.9995 67.4888 31.3072M70.1956 39.8223L67.4888 31.3072M67.4888 31.3072C67.2912 30.933 67.2365 30.5956 67.2752 30.2864M67.4888 31.3072L67.2752 30.2864M67.2752 30.2864C67.3145 29.9726 67.4547 29.6523 67.7028 29.3266M67.2752 30.2864L67.7028 29.3266M67.7028 29.3266C68.2075 28.6639 69.1126 28.0404 70.2567 27.5082M67.7028 29.3266L70.2567 27.5082M70.2567 27.5082C72.5404 26.4459 75.5402 25.8543 77.4177 25.9445L70.2567 27.5082Z" fill="#1C1C1C" stroke="#F1F1F1"/>
<path d="M108.47 53.4745C109.513 55.4212 108.357 58.0666 105.889 59.3824C103.42 60.6997 100.572 60.1887 99.5296 58.242C98.4867 56.2953 99.6422 53.65 102.111 52.3342C104.581 51.0185 107.427 51.5278 108.47 53.4745Z" fill="#1C1C1C"/>
<path d="M48.8299 19.0331C49.4485 20.4566 48.2143 22.3602 46.0714 23.2866C43.9301 24.213 41.6915 23.8098 41.0744 22.3863C40.4558 20.9629 41.69 19.0592 43.8329 18.1328C45.9742 17.2064 48.2112 17.6096 48.8299 19.0331Z" fill="#1C1C1C"/>
</svg>
