<svg width="147" height="106" viewBox="0 0 147 106" fill="none" xmlns="http://www.w3.org/2000/svg">
<path d="M85.0368 42.7304C87.7119 45.4383 88.6685 49.3138 88.25 52.7725C87.8292 56.2505 86.0462 59.1535 83.4213 60.0766C80.6688 61.0445 76.0537 61.1441 71.2501 59.9637C66.4573 58.7859 61.5615 56.3539 58.2108 52.35C54.8349 48.3153 54.0036 44.8661 54.5278 42.1827C55.0533 39.4926 56.9645 37.4485 59.3279 36.2734C70.2156 30.862 79.4662 37.0945 85.0368 42.7304ZM85.0368 42.7304L85.3924 42.379L85.0368 42.7304Z" stroke="#F1F1F1"/>
<path d="M44.7355 64.0986C44.6998 63.4269 44.4176 62.6542 43.8743 61.9589C43.3301 61.264 42.6539 60.8112 42.0212 60.6239C41.3876 60.4365 40.8421 60.5227 40.4675 60.8237C40.0912 61.1261 39.8813 61.65 39.9171 62.3242C39.9527 62.996 40.235 63.7688 40.7785 64.4642C41.3219 65.1596 41.9977 65.6123 42.6303 65.7993C43.2636 65.9866 43.8097 65.9003 44.1852 65.599L44.7355 64.0986ZM44.7355 64.0986C44.7712 64.7726 44.5614 65.2965 44.1853 65.5989L44.7355 64.0986Z" stroke="#F1F1F1"/>
<path d="M102.234 28.6657L102.235 28.6654C102.561 28.3095 103.088 28.1414 103.741 28.2302C104.394 28.3189 105.13 28.6637 105.771 29.2679C106.411 29.8717 106.804 30.592 106.938 31.2503C107.074 31.9108 106.944 32.462 106.615 32.82C106.288 33.1762 105.761 33.3443 105.107 33.2555C104.454 33.1668 103.719 32.822 103.079 32.2179C102.439 31.6141 102.046 30.8938 101.911 30.2354C101.776 29.5749 101.906 29.0237 102.234 28.6657Z" stroke="#F1F1F1"/>
<path d="M68.0607 53.7498C68.0331 53.7143 68.0077 53.6799 67.9845 53.647L71.6375 51.7766C71.6475 51.7861 71.6577 51.7956 71.6682 51.8053C71.8754 51.9961 72.1867 52.2279 72.6103 52.4018C73.4776 52.7578 74.7318 52.8374 76.387 52.0047L76.3871 52.0047C76.9717 51.7105 77.5213 51.3939 77.9697 51.0421C78.4148 50.6928 78.7957 50.2815 78.9915 49.7863C79.1956 49.27 79.1778 48.715 78.9167 48.1428C78.664 47.589 78.1886 47.0275 77.492 46.4412L77.4918 46.4411C76.903 45.9461 76.0261 45.8602 75.1217 46.003C74.1957 46.1491 73.1316 46.5494 72.0492 47.1733C71.232 47.6442 69.7479 48.216 68.1814 48.2433C66.6359 48.2703 65.0388 47.7717 63.8719 46.1384L63.8719 46.1383C63.4185 45.5039 63.2163 44.4068 63.441 43.2405C63.6627 42.0896 64.286 40.9538 65.3707 40.2323L65.8889 39.8876L65.4405 39.4558L64.7704 38.8106L65.8792 38.2435L66.9549 39.091L67.2018 39.2854L67.484 39.1474C69.3876 38.2165 71.0662 38.4616 72.2828 38.941C72.8143 39.1503 73.2565 39.4044 73.5861 39.6247L71.5017 40.4647C71.3305 40.3477 71.0861 40.227 70.76 40.1645C70.0778 40.0336 69.1196 40.1706 67.8186 40.9545C66.8932 41.5121 66.2182 42.3433 65.9275 43.1642C65.6422 43.9698 65.6947 44.9376 66.5286 45.4509L66.5287 45.4509C67.3244 45.9403 68.2314 46.004 69.1537 45.8556C70.0703 45.7082 71.0502 45.3438 72.037 44.9202C72.9688 44.5202 74.641 44.0272 76.4268 44.0374C78.2063 44.0476 80.0481 44.5545 81.4192 46.0917C82.4678 47.2678 82.9006 48.4906 82.694 49.6152C82.4875 50.739 81.6155 51.9109 79.7348 52.9263L79.1561 53.2387L79.6119 53.7128L80.5137 54.6508L78.6763 55.5255L77.7329 54.3478L77.5102 54.0698L77.1747 54.1895C72.9752 55.6878 70.612 55.3497 69.3314 54.7402C68.6881 54.434 68.2928 54.0484 68.0607 53.7498ZM67.768 53.2666L67.7681 53.2669L67.768 53.2666Z" stroke="#F1F1F1"/>
<path d="M43.0766 94.0766L12.3174 61.4647C18.9586 51.2953 33.2896 43.9314 59.8544 34.814C81.1062 27.5202 94.575 15.8781 98.653 10.9688L133.257 32.3594C126.965 40.3078 108.16 57.0463 83.2733 60.4127C58.3863 63.779 46.1059 84.2579 43.0766 94.0766Z" stroke="#F1F1F1"/>
<path d="M43.7757 104.949L1.48178 62.5182C8.93356 50.397 26.4296 43.4427 57.1684 31.9658C81.7595 22.7844 94.3875 7.02905 99.0026 1.15166L145.141 28.5036C138.032 38.0102 114.21 56.6072 85.2601 61.2907C56.3099 65.9743 47.0218 93.3456 43.7757 104.949Z" stroke="#F1F1F1"/>
</svg>
