<svg width="74" height="98" viewBox="0 0 74 98" fill="none" xmlns="http://www.w3.org/2000/svg">
<path d="M128.04 26.7912C127.503 26.2685 126.977 25.7341 126.461 25.1879C123.827 22.3636 114.029 12.6439 100.634 8.59065C84.869 3.81609 68.9107 5.91721 59.1032 22.344C49.2958 38.7707 49.6825 42.5849 33.5308 44.1117C17.3791 45.6386 9.4956 48.6962 4.68856 62.6376C-0.118482 76.5791 12.3846 98.733 43.7211 93.5763C75.0576 88.4195 82.1774 82.5003 96.2117 86.8927C110.246 91.285 127.941 93.7683 135.246 81.928C142.435 70.2777 145.344 43.6531 128.04 26.7912Z" fill="#A41A11"/>
<path d="M128.04 26.7912C127.503 26.2685 126.977 25.7341 126.461 25.1879C123.827 22.3636 114.029 12.6439 100.634 8.59065C84.869 3.81609 68.9107 5.91721 59.1032 22.344C49.2958 38.7707 49.6825 42.5849 33.5308 44.1117C17.3791 45.6386 9.4956 48.6962 4.68856 62.6376C-0.118482 76.5791 12.3846 98.733 43.7211 93.5762C75.0576 88.4195 82.1774 82.5003 96.2117 86.8926C110.246 91.285 127.941 93.7683 135.246 81.928C142.435 70.2777 145.344 43.6531 128.04 26.7912Z" fill="#A41A11"/>
<path d="M70.9829 39.8977C70.9829 39.9173 72.4077 40.0075 72.5004 40.0016C73.5542 39.9467 75.5571 39.2176 75.8551 38.0925C75.9004 37.903 75.905 37.7062 75.8687 37.5148C75.8323 37.3234 75.7559 37.1417 75.6442 36.9816C75.5325 36.8215 75.3881 36.6865 75.2205 36.5855C75.0528 36.4845 74.8656 36.4196 74.6711 36.3952C73.8482 36.2639 72.972 36.797 72.4017 37.3399C71.7367 37.9769 70.9849 39.8977 70.9829 39.8977Z" fill="#E5E5E5"/>
<path d="M67.4582 19.3493C67.2608 20.245 67.695 22.2599 67.695 22.2618C67.695 22.2638 68.9441 21.5719 69.0171 21.517C69.8656 20.8957 71.1364 19.1964 70.7595 18.0831C70.4892 17.2815 69.5755 16.9836 68.8257 17.3187C68.0758 17.6539 67.6318 18.5849 67.4582 19.3493Z" fill="#E5E5E5"/>
<path d="M61.6942 21.1779C61.7357 22.0599 62.6138 23.7631 62.6809 23.8984C61.6987 24.3954 60.7507 24.9565 59.8432 25.5781C59.3124 25.9368 58.7895 26.315 58.2646 26.7012C58.4757 26.4895 58.6592 26.3092 58.6869 26.27C59.34 25.4468 60.1136 23.475 59.4545 22.5009C59.3404 22.3422 59.194 22.2092 59.0248 22.1104C58.8556 22.0116 58.6674 21.9492 58.4723 21.9274C58.2773 21.9056 58.0798 21.9248 57.8927 21.9838C57.7056 22.0427 57.5331 22.1401 57.3864 22.2696C56.7451 22.7988 56.5714 23.8062 56.607 24.5883C56.6425 25.3703 57.3687 26.8521 57.564 27.2441C57.3667 27.393 57.1694 27.54 56.972 27.691C56.0248 28.4162 55.0835 29.1414 54.1383 29.8254C53.8048 30.0665 53.4674 30.2919 53.1319 30.5192C53.3194 30.3232 53.4753 30.1704 53.497 30.1449C54.1482 29.3217 54.9237 27.348 54.2646 26.3738C54.1504 26.215 54.0038 26.0819 53.8344 25.9831C53.6649 25.8842 53.4764 25.822 53.2811 25.8004C53.0858 25.7787 52.8882 25.7982 52.7009 25.8575C52.5137 25.9168 52.3412 26.0146 52.1946 26.1445C51.5533 26.6737 51.3816 27.6792 51.4171 28.4612C51.4526 29.2433 52.0959 30.5761 52.3307 31.0328C51.9795 31.2542 51.6282 31.4757 51.277 31.6756C51.0343 31.807 50.8113 31.95 50.5587 32.0676L49.8286 32.4283C49.3569 32.6419 48.8695 32.8654 48.4038 33.0614C48.0802 33.2005 47.7684 33.326 47.4566 33.4534C47.7901 33.2162 48.4433 32.7399 48.4847 32.6948C49.2563 31.9794 50.3219 30.1468 49.8187 29.0845C49.7303 28.9104 49.6059 28.7568 49.4538 28.6336C49.3017 28.5103 49.1251 28.4203 48.9357 28.3693C48.7462 28.3182 48.548 28.3074 48.3541 28.3374C48.1601 28.3674 47.9747 28.4377 47.8098 28.5436C47.0935 28.9708 46.7699 29.9391 46.685 30.7172C46.5943 31.5757 47.1685 33.324 47.2435 33.5416C46.7245 33.7513 46.2174 33.9532 45.7378 34.1296C44.0763 34.7587 42.6693 35.2213 41.6807 35.5329L41.8326 36.3169L41.9194 36.2875C42.9061 35.9524 44.3269 35.4545 45.9944 34.7803C46.5213 34.5686 47.0797 34.3314 47.652 34.0825C47.9747 34.5803 48.3259 35.0593 48.7038 35.5172C48.1749 36.2307 47.7171 37.8849 47.6579 38.1005C47.1093 37.9908 46.5765 37.881 46.0792 37.7693C44.3427 37.3773 42.91 36.999 41.9135 36.7148L42.0793 37.5733C43.0659 37.8242 44.3782 38.1397 45.9332 38.4494C46.4897 38.5611 47.0876 38.6709 47.7092 38.7767C47.7092 39.0021 47.6875 40.8445 48.0348 41.6364C48.3505 42.3537 48.9544 43.1789 49.7654 43.3729C49.9548 43.4247 50.153 43.4363 50.3472 43.4069C50.5414 43.3776 50.7272 43.3079 50.8925 43.2026C51.0578 43.0972 51.1989 42.9584 51.3066 42.7953C51.4143 42.6321 51.4863 42.4483 51.5177 42.2557C51.6756 41.0934 50.1029 39.6646 49.1497 39.2118C49.0945 39.1864 48.4512 38.9649 48.0447 38.8316C48.2953 38.8747 48.54 38.9178 48.7985 38.957C49.3115 39.0394 49.8246 39.108 50.3771 39.1824L51.1902 39.2628C51.4605 39.2961 51.7506 39.2961 52.0328 39.3157C52.6899 39.3432 53.3569 39.3412 54.0298 39.3157C53.9587 39.7626 53.7259 41.3482 53.9291 42.1087C54.1324 42.8692 54.604 43.7728 55.3756 44.0864C55.5549 44.166 55.7491 44.2073 55.9455 44.2074C56.1419 44.2076 56.3361 44.1667 56.5156 44.0874C56.695 44.0081 56.8556 43.8921 56.987 43.7471C57.1183 43.602 57.2174 43.4311 57.2779 43.2455C57.6114 42.1205 56.2735 40.4702 55.4013 39.8822C55.346 39.8449 54.6731 39.4902 54.2982 39.2942C54.7027 39.2804 55.1053 39.2687 55.5137 39.2412C56.6977 39.1628 57.8817 39.0452 59.0657 38.9374C59.4308 38.9022 59.7919 38.8728 60.157 38.8434C60.1294 39.0002 59.8117 40.8818 60.0406 41.7324C60.2379 42.489 60.7135 43.3964 61.487 43.71C61.6662 43.7897 61.8602 43.8309 62.0565 43.8311C62.2528 43.8312 62.4469 43.7903 62.6261 43.711C62.8054 43.6316 62.9659 43.5157 63.097 43.3706C63.2282 43.2256 63.3271 43.0548 63.3873 42.8692C63.7208 41.7442 62.3849 40.0938 61.5127 39.5058C61.4456 39.4608 60.4747 38.9531 60.2221 38.8375C61.0213 38.7689 61.8205 38.7081 62.6079 38.6807C63.6734 38.6386 64.7406 38.6647 65.8027 38.7591C65.7889 38.8336 65.4495 40.7936 65.6843 41.6658C65.8816 42.4223 66.3572 43.3298 67.1288 43.6414C67.9003 43.9531 68.7923 43.614 69.0311 42.8026C69.3646 41.6756 68.0286 40.0272 67.1544 39.4372C67.0972 39.4 66.3651 39.0119 66.004 38.8375L66.0217 38.7728C67.0878 38.8955 68.1405 39.1133 69.1672 39.4235C69.7336 39.5862 70.2664 39.7744 70.7814 39.9684C70.6808 40.3271 70.2368 41.9715 70.3611 42.779C70.4795 43.563 70.8465 44.5078 71.5786 44.9017C71.748 45.0007 71.9365 45.0631 72.1318 45.0849C72.3271 45.1067 72.5249 45.0874 72.7122 45.0282C72.8995 44.9691 73.0721 44.8714 73.2188 44.7415C73.3656 44.6116 73.4831 44.4525 73.5638 44.2745C74.0177 43.1926 72.8712 41.407 72.07 40.7269C72.0266 40.6897 71.5411 40.3624 71.184 40.1272C71.4149 40.2193 71.6556 40.3094 71.8746 40.3996C72.6995 40.7426 73.4336 41.1072 74.0808 41.4345C74.4459 41.6305 74.7735 41.801 75.0793 41.9715C75.1642 42.3753 75.5312 43.9962 76.0068 44.645C76.4824 45.2937 77.2382 45.9562 78.0729 45.9699C78.269 45.9801 78.4651 45.9492 78.6483 45.8792C78.8316 45.8092 78.998 45.7016 79.1367 45.5635C79.2753 45.4254 79.3832 45.2598 79.4532 45.0776C79.5232 44.8954 79.5538 44.7006 79.543 44.5058C79.4443 43.3298 77.5993 42.2773 76.5712 42.0401C76.4824 42.0186 75.0557 41.8559 75.0596 41.8774V41.9029C74.7695 41.7324 74.4558 41.554 74.1104 41.3659C73.4691 41.0248 72.7409 40.6446 71.92 40.282C71.0407 39.8832 70.1386 39.5357 69.2185 39.2412C68.1898 38.9066 67.1332 38.6633 66.0612 38.5141H66.0217C66.3631 38.4533 67.3103 38.2573 67.3833 38.2338C68.3838 37.9045 70.1263 36.6834 70.1164 35.5094C70.1092 35.3147 70.0609 35.1236 69.9746 34.9486C69.8883 34.7736 69.7659 34.6186 69.6153 34.4937C69.4648 34.3688 69.2895 34.2767 69.1008 34.2234C68.9121 34.1701 68.7142 34.1568 68.52 34.1844C67.6912 34.2746 66.9867 35.0174 66.5822 35.6897C66.1263 36.4482 65.9112 38.3514 65.8954 38.5023C64.8003 38.3781 63.6981 38.3264 62.596 38.3475C61.9527 38.3573 61.3074 38.3847 60.6602 38.422C60.9522 38.3612 61.2147 38.3063 61.2522 38.2946C62.2546 37.9653 63.9951 36.7442 63.9853 35.5702C63.9784 35.3753 63.9303 35.184 63.8441 35.0088C63.7579 34.8336 63.6355 34.6783 63.4849 34.5532C63.3343 34.428 63.1589 34.3357 62.9701 34.2823C62.7812 34.2289 62.5832 34.2156 62.3888 34.2432C61.56 34.3334 60.8575 35.0782 60.453 35.7505C60.0485 36.4228 59.8255 38.0515 59.7742 38.4808L59.0302 38.5278C57.8462 38.614 56.6504 38.7022 55.4782 38.7552C55.0658 38.7748 54.6593 38.7767 54.2528 38.7826C54.5133 38.7277 54.7323 38.6807 54.7658 38.6709C55.7663 38.3416 57.5088 37.1205 57.4989 35.9465C57.492 35.7516 57.4439 35.5603 57.3577 35.3851C57.2715 35.2099 57.1491 35.0546 56.9986 34.9295C56.848 34.8043 56.6726 34.712 56.4837 34.6587C56.2949 34.6053 56.0968 34.5919 55.9025 34.6196C55.0737 34.7097 54.3692 35.4545 53.9647 36.1268C53.5601 36.7991 53.3608 38.2691 53.2977 38.7787C52.8813 38.7787 52.4649 38.765 52.0604 38.7395C51.7861 38.716 51.5197 38.712 51.2454 38.6728L50.4344 38.5729C49.9213 38.4925 49.3925 38.4122 48.8952 38.32C48.5479 38.2573 48.2183 38.1926 47.8848 38.124C48.2953 38.1103 49.0984 38.0652 49.1655 38.0535C50.0741 37.8666 50.9192 37.4516 51.6203 36.8481C51.7225 36.831 51.8229 36.8047 51.9203 36.7697C52.1071 36.7093 52.2789 36.6104 52.4247 36.4797C52.5705 36.3489 52.6869 36.1891 52.7664 36.0107C52.8459 35.8323 52.8867 35.6392 52.8861 35.4441C52.8855 35.249 52.8435 35.0562 52.7629 34.8783C52.2479 33.8218 50.1423 33.4926 49.0965 33.6376C49.0353 33.6474 48.3762 33.814 47.9638 33.9257C48.1966 33.8238 48.4235 33.7297 48.6623 33.618C49.1359 33.4063 49.6016 33.1809 50.1048 32.9398L50.8271 32.5635C51.0698 32.442 51.3125 32.2832 51.5592 32.1441C52.1216 31.807 52.6761 31.4385 53.2266 31.0563C53.424 31.4679 54.1028 32.9183 54.6948 33.4396C55.2868 33.961 56.1807 34.4588 56.9997 34.2962C57.1934 34.2645 57.3782 34.1927 57.5421 34.0853C57.706 33.978 57.8452 33.8375 57.9508 33.6731C58.0564 33.5087 58.1259 33.324 58.1548 33.1312C58.1837 32.9383 58.1713 32.7415 58.1185 32.5537C57.7712 31.4326 55.7505 30.7897 54.6849 30.776C54.6198 30.776 53.8621 30.8505 53.4457 30.8995C53.7752 30.6662 54.1048 30.435 54.4323 30.188C55.3717 29.4785 56.2991 28.7298 57.2286 27.9869C57.5127 27.7576 57.7989 27.5342 58.085 27.3107C58.1501 27.4577 58.9296 29.2002 59.5926 29.7842C60.1846 30.3036 61.0785 30.8034 61.8975 30.6408C62.091 30.6088 62.2757 30.5368 62.4394 30.4294C62.6031 30.3219 62.7423 30.1815 62.8478 30.0172C62.9533 29.8528 63.0229 29.6683 63.0519 29.4756C63.0809 29.2828 63.0688 29.0861 63.0163 28.8983C62.669 27.7752 60.6385 27.1343 59.5827 27.1206C59.5038 27.1206 58.4126 27.2284 58.1363 27.2696C58.7658 26.7737 59.3973 26.2896 60.0406 25.8309C60.9071 25.2191 61.8128 24.6639 62.7519 24.1688C62.7815 24.2374 63.5866 26.0583 64.2674 26.658C64.8594 27.1774 65.7534 27.6753 66.5703 27.5126C66.7641 27.4809 66.9489 27.4091 67.1129 27.3017C67.2768 27.1944 67.4162 27.054 67.5219 26.8896C67.6277 26.7253 67.6974 26.5407 67.7265 26.3478C67.7557 26.1549 67.7436 25.9581 67.6912 25.7702C67.3439 24.649 65.3113 24.0062 64.2576 23.9924C64.1885 23.9924 63.3558 24.0748 62.9611 24.1218C62.9611 24.0865 62.9611 24.0944 62.9414 24.0591C63.8994 23.5797 64.8986 23.1861 65.927 22.8831C66.4914 22.7086 67.04 22.5734 67.5767 22.4519C67.6912 22.8066 68.2358 24.4119 68.7864 25.0273C69.3369 25.6428 70.1519 26.2033 70.9827 26.1308C71.1788 26.1201 71.3704 26.0686 71.5452 25.9796C71.7199 25.8906 71.8739 25.7661 71.997 25.6142C72.1202 25.4622 72.2099 25.2863 72.2602 25.0978C72.3105 24.9092 72.3203 24.7123 72.289 24.5197C72.066 23.3672 70.1184 22.5068 69.0725 22.3794C69.0153 22.3794 68.4272 22.3637 68.001 22.3656C68.2437 22.3147 68.4943 22.2578 68.7272 22.2147C69.6053 22.0481 70.4203 21.9482 71.1406 21.8678C71.553 21.8247 71.9299 21.7933 72.2733 21.7678C72.5693 22.0579 73.775 23.2084 74.5327 23.4887C75.2905 23.769 76.287 23.9082 76.9915 23.4632C77.1607 23.3642 77.307 23.231 77.4209 23.0721C77.5348 22.9133 77.6138 22.7324 77.6527 22.5413C77.6916 22.3501 77.6895 22.153 77.6467 21.9626C77.6038 21.7723 77.5211 21.5931 77.4039 21.4366C76.6718 20.5154 74.5446 20.6526 73.5559 21.0074C73.4691 21.0387 72.1904 21.6855 72.2062 21.7012L72.2239 21.7188C71.8865 21.7365 71.5273 21.758 71.1346 21.7914C70.4085 21.858 69.5915 21.9384 68.7055 22.0873C67.7504 22.2364 66.8049 22.4406 65.8737 22.6988C64.8291 22.9833 63.8121 23.3599 62.8348 23.8239L62.8013 23.8435C63.0519 23.6063 63.7327 22.9223 63.7879 22.8635C64.4411 22.0403 65.2146 20.0685 64.5555 19.0944C64.4415 18.9357 64.2951 18.8027 64.1259 18.7039C63.9567 18.6051 63.7685 18.5428 63.5734 18.5209C63.3784 18.4991 63.1809 18.5183 62.9938 18.5773C62.8067 18.6362 62.6342 18.7336 62.4875 18.8631C61.8323 19.3884 61.6587 20.3958 61.6942 21.1779Z" fill="#E5E5E5"/>
<path opacity="0.3" d="M67.4582 19.3493C67.2608 20.245 67.695 22.2599 67.695 22.2618C67.695 22.2638 68.9441 21.5719 69.0171 21.517C69.8656 20.8957 71.1364 19.1964 70.7595 18.0831C70.4892 17.2815 69.5755 16.9836 68.8257 17.3187C68.0758 17.6539 67.6318 18.5849 67.4582 19.3493Z" fill="#E5E5E5"/>
<path opacity="0.3" d="M70.9829 39.8977C70.9829 39.9173 72.4077 40.0075 72.5004 40.0016C73.5542 39.9467 75.5571 39.2176 75.8551 38.0925C75.9004 37.903 75.905 37.7062 75.8687 37.5148C75.8323 37.3234 75.7559 37.1417 75.6442 36.9816C75.5325 36.8215 75.3881 36.6865 75.2205 36.5855C75.0528 36.4845 74.8656 36.4196 74.6711 36.3952C73.8482 36.2639 72.972 36.797 72.4017 37.3399C71.7367 37.9769 70.9849 39.8977 70.9829 39.8977Z" fill="#E5E5E5"/>
<path opacity="0.3" d="M61.6942 21.1779C61.7357 22.0599 62.6138 23.7631 62.6809 23.8984C61.6987 24.3954 60.7507 24.9565 59.8432 25.5781C59.3124 25.9368 58.7895 26.315 58.2646 26.7012C58.4757 26.4895 58.6592 26.3092 58.6869 26.27C59.34 25.4468 60.1136 23.475 59.4545 22.5009C59.3404 22.3422 59.194 22.2092 59.0248 22.1104C58.8556 22.0116 58.6674 21.9492 58.4723 21.9274C58.2773 21.9056 58.0798 21.9248 57.8927 21.9838C57.7056 22.0427 57.5331 22.1401 57.3864 22.2696C56.7451 22.7988 56.5714 23.8062 56.607 24.5883C56.6425 25.3703 57.3687 26.8521 57.564 27.2441C57.3667 27.393 57.1694 27.54 56.972 27.691C56.0248 28.4162 55.0835 29.1414 54.1383 29.8254C53.8048 30.0665 53.4674 30.2919 53.1319 30.5192C53.3194 30.3232 53.4753 30.1704 53.497 30.1449C54.1482 29.3217 54.9237 27.348 54.2646 26.3738C54.1504 26.215 54.0038 26.0819 53.8344 25.9831C53.6649 25.8842 53.4764 25.822 53.2811 25.8004C53.0858 25.7787 52.8882 25.7982 52.7009 25.8575C52.5137 25.9168 52.3412 26.0146 52.1946 26.1445C51.5533 26.6737 51.3816 27.6792 51.4171 28.4612C51.4526 29.2433 52.0959 30.5761 52.3307 31.0328C51.9795 31.2542 51.6282 31.4757 51.277 31.6756C51.0343 31.807 50.8113 31.95 50.5587 32.0676L49.8286 32.4283C49.3569 32.6419 48.8695 32.8654 48.4038 33.0614C48.0802 33.2005 47.7684 33.326 47.4566 33.4534C47.7901 33.2162 48.4433 32.7399 48.4847 32.6948C49.2563 31.9794 50.3219 30.1468 49.8187 29.0845C49.7303 28.9104 49.6059 28.7568 49.4538 28.6336C49.3017 28.5103 49.1251 28.4203 48.9357 28.3693C48.7462 28.3182 48.548 28.3074 48.3541 28.3374C48.1601 28.3674 47.9747 28.4377 47.8098 28.5436C47.0935 28.9708 46.7699 29.9391 46.685 30.7172C46.5943 31.5757 47.1685 33.324 47.2435 33.5416C46.7245 33.7513 46.2174 33.9532 45.7378 34.1296C44.0763 34.7587 42.6693 35.2213 41.6807 35.5329L41.8326 36.3169L41.9194 36.2875C42.9061 35.9524 44.3269 35.4545 45.9944 34.7803C46.5213 34.5686 47.0797 34.3314 47.652 34.0825C47.9747 34.5803 48.3259 35.0593 48.7038 35.5172C48.1749 36.2307 47.7171 37.8849 47.6579 38.1005C47.1093 37.9908 46.5765 37.881 46.0792 37.7693C44.3427 37.3773 42.91 36.999 41.9135 36.7148L42.0793 37.5733C43.0659 37.8242 44.3782 38.1397 45.9332 38.4494C46.4897 38.5611 47.0876 38.6709 47.7092 38.7767C47.7092 39.0021 47.6875 40.8445 48.0348 41.6364C48.3505 42.3537 48.9544 43.1789 49.7654 43.3729C49.9548 43.4247 50.153 43.4363 50.3472 43.4069C50.5414 43.3776 50.7272 43.3079 50.8925 43.2026C51.0578 43.0972 51.1989 42.9584 51.3066 42.7953C51.4143 42.6321 51.4863 42.4483 51.5177 42.2557C51.6756 41.0934 50.1029 39.6646 49.1497 39.2118C49.0945 39.1864 48.4512 38.9649 48.0447 38.8316C48.2953 38.8747 48.54 38.9178 48.7985 38.957C49.3115 39.0394 49.8246 39.108 50.3771 39.1824L51.1902 39.2628C51.4605 39.2961 51.7506 39.2961 52.0328 39.3157C52.6899 39.3432 53.3569 39.3412 54.0298 39.3157C53.9587 39.7626 53.7259 41.3482 53.9291 42.1087C54.1324 42.8692 54.604 43.7728 55.3756 44.0864C55.5549 44.166 55.7491 44.2073 55.9455 44.2074C56.1419 44.2076 56.3361 44.1667 56.5156 44.0874C56.695 44.0081 56.8556 43.8921 56.987 43.7471C57.1183 43.602 57.2174 43.4311 57.2779 43.2455C57.6114 42.1205 56.2735 40.4702 55.4013 39.8822C55.346 39.8449 54.6731 39.4902 54.2982 39.2942C54.7027 39.2804 55.1053 39.2687 55.5137 39.2412C56.6977 39.1628 57.8817 39.0452 59.0657 38.9374C59.4308 38.9022 59.7919 38.8728 60.157 38.8434C60.1294 39.0002 59.8117 40.8818 60.0406 41.7324C60.2379 42.489 60.7135 43.3964 61.487 43.71C61.6662 43.7897 61.8602 43.8309 62.0565 43.8311C62.2528 43.8312 62.4469 43.7903 62.6261 43.711C62.8054 43.6316 62.9659 43.5157 63.097 43.3706C63.2282 43.2256 63.3271 43.0548 63.3873 42.8692C63.7208 41.7442 62.3849 40.0938 61.5127 39.5058C61.4456 39.4608 60.4747 38.9531 60.2221 38.8375C61.0213 38.7689 61.8205 38.7081 62.6079 38.6807C63.6734 38.6386 64.7406 38.6647 65.8027 38.7591C65.7889 38.8336 65.4495 40.7936 65.6843 41.6658C65.8816 42.4223 66.3572 43.3298 67.1288 43.6414C67.9003 43.9531 68.7923 43.614 69.0311 42.8026C69.3646 41.6756 68.0286 40.0272 67.1544 39.4372C67.0972 39.4 66.3651 39.0119 66.004 38.8375L66.0217 38.7728C67.0878 38.8955 68.1405 39.1133 69.1672 39.4235C69.7336 39.5862 70.2664 39.7744 70.7814 39.9684C70.6808 40.3271 70.2368 41.9715 70.3611 42.779C70.4795 43.563 70.8465 44.5078 71.5786 44.9017C71.748 45.0007 71.9365 45.0631 72.1318 45.0849C72.3271 45.1067 72.5249 45.0874 72.7122 45.0282C72.8995 44.9691 73.0721 44.8714 73.2188 44.7415C73.3656 44.6116 73.4831 44.4525 73.5638 44.2745C74.0177 43.1926 72.8712 41.407 72.07 40.7269C72.0266 40.6897 71.5411 40.3624 71.184 40.1272C71.4149 40.2193 71.6556 40.3094 71.8746 40.3996C72.6995 40.7426 73.4336 41.1072 74.0808 41.4345C74.4459 41.6305 74.7735 41.801 75.0793 41.9715C75.1642 42.3753 75.5312 43.9962 76.0068 44.645C76.4824 45.2937 77.2382 45.9562 78.0729 45.9699C78.269 45.9801 78.4651 45.9492 78.6483 45.8792C78.8316 45.8092 78.998 45.7016 79.1367 45.5635C79.2753 45.4254 79.3832 45.2598 79.4532 45.0776C79.5232 44.8954 79.5538 44.7006 79.543 44.5058C79.4443 43.3298 77.5993 42.2773 76.5712 42.0401C76.4824 42.0186 75.0557 41.8559 75.0596 41.8774V41.9029C74.7695 41.7324 74.4558 41.554 74.1104 41.3659C73.4691 41.0248 72.7409 40.6446 71.92 40.282C71.0407 39.8832 70.1386 39.5357 69.2185 39.2412C68.1898 38.9066 67.1332 38.6633 66.0612 38.5141H66.0217C66.3631 38.4533 67.3103 38.2573 67.3833 38.2338C68.3838 37.9045 70.1263 36.6834 70.1164 35.5094C70.1092 35.3147 70.0609 35.1236 69.9746 34.9486C69.8883 34.7736 69.7659 34.6186 69.6153 34.4937C69.4648 34.3688 69.2895 34.2767 69.1008 34.2234C68.9121 34.1701 68.7142 34.1568 68.52 34.1844C67.6912 34.2746 66.9867 35.0174 66.5822 35.6897C66.1263 36.4482 65.9112 38.3514 65.8954 38.5023C64.8003 38.3781 63.6981 38.3264 62.596 38.3475C61.9527 38.3573 61.3074 38.3847 60.6602 38.422C60.9522 38.3612 61.2147 38.3063 61.2522 38.2946C62.2546 37.9653 63.9951 36.7442 63.9853 35.5702C63.9784 35.3753 63.9303 35.184 63.8441 35.0088C63.7579 34.8336 63.6355 34.6783 63.4849 34.5532C63.3343 34.428 63.1589 34.3357 62.9701 34.2823C62.7812 34.2289 62.5832 34.2156 62.3888 34.2432C61.56 34.3334 60.8575 35.0782 60.453 35.7505C60.0485 36.4228 59.8255 38.0515 59.7742 38.4808L59.0302 38.5278C57.8462 38.614 56.6504 38.7022 55.4782 38.7552C55.0658 38.7748 54.6593 38.7767 54.2528 38.7826C54.5133 38.7277 54.7323 38.6807 54.7658 38.6709C55.7663 38.3416 57.5088 37.1205 57.4989 35.9465C57.492 35.7516 57.4439 35.5603 57.3577 35.3851C57.2715 35.2099 57.1491 35.0546 56.9986 34.9295C56.848 34.8043 56.6726 34.712 56.4837 34.6587C56.2949 34.6053 56.0968 34.5919 55.9025 34.6196C55.0737 34.7097 54.3692 35.4545 53.9647 36.1268C53.5601 36.7991 53.3608 38.2691 53.2977 38.7787C52.8813 38.7787 52.4649 38.765 52.0604 38.7395C51.7861 38.716 51.5197 38.712 51.2454 38.6728L50.4344 38.5729C49.9213 38.4925 49.3925 38.4122 48.8952 38.32C48.5479 38.2573 48.2183 38.1926 47.8848 38.124C48.2953 38.1103 49.0984 38.0652 49.1655 38.0535C50.0741 37.8666 50.9192 37.4516 51.6203 36.8481C51.7225 36.831 51.8229 36.8047 51.9203 36.7697C52.1071 36.7093 52.2789 36.6104 52.4247 36.4797C52.5705 36.3489 52.6869 36.1891 52.7664 36.0107C52.8459 35.8323 52.8867 35.6392 52.8861 35.4441C52.8855 35.249 52.8435 35.0562 52.7629 34.8783C52.2479 33.8218 50.1423 33.4926 49.0965 33.6376C49.0353 33.6474 48.3762 33.814 47.9638 33.9257C48.1966 33.8238 48.4235 33.7297 48.6623 33.618C49.1359 33.4063 49.6016 33.1809 50.1048 32.9398L50.8271 32.5635C51.0698 32.442 51.3125 32.2832 51.5592 32.1441C52.1216 31.807 52.6761 31.4385 53.2266 31.0563C53.424 31.4679 54.1028 32.9183 54.6948 33.4396C55.2868 33.961 56.1807 34.4588 56.9997 34.2962C57.1934 34.2645 57.3782 34.1927 57.5421 34.0853C57.706 33.978 57.8452 33.8375 57.9508 33.6731C58.0564 33.5087 58.1259 33.324 58.1548 33.1312C58.1837 32.9383 58.1713 32.7415 58.1185 32.5537C57.7712 31.4326 55.7505 30.7897 54.6849 30.776C54.6198 30.776 53.8621 30.8505 53.4457 30.8995C53.7752 30.6662 54.1048 30.435 54.4323 30.188C55.3717 29.4785 56.2991 28.7298 57.2286 27.9869C57.5127 27.7576 57.7989 27.5342 58.085 27.3107C58.1501 27.4577 58.9296 29.2002 59.5926 29.7842C60.1846 30.3036 61.0785 30.8034 61.8975 30.6408C62.091 30.6088 62.2757 30.5368 62.4394 30.4294C62.6031 30.3219 62.7423 30.1815 62.8478 30.0172C62.9533 29.8528 63.0229 29.6683 63.0519 29.4756C63.0809 29.2828 63.0688 29.0861 63.0163 28.8983C62.669 27.7752 60.6385 27.1343 59.5827 27.1206C59.5038 27.1206 58.4126 27.2284 58.1363 27.2696C58.7658 26.7737 59.3973 26.2896 60.0406 25.8309C60.9071 25.2191 61.8128 24.6639 62.7519 24.1688C62.7815 24.2374 63.5866 26.0583 64.2674 26.658C64.8594 27.1774 65.7534 27.6753 66.5703 27.5126C66.7641 27.4809 66.9489 27.4091 67.1129 27.3017C67.2768 27.1944 67.4162 27.054 67.5219 26.8896C67.6277 26.7253 67.6974 26.5407 67.7265 26.3478C67.7557 26.1549 67.7436 25.9581 67.6912 25.7702C67.3439 24.649 65.3113 24.0062 64.2576 23.9924C64.1885 23.9924 63.3558 24.0748 62.9611 24.1218C62.9611 24.0865 62.9611 24.0944 62.9414 24.0591C63.8994 23.5797 64.8986 23.1861 65.927 22.8831C66.4914 22.7086 67.04 22.5734 67.5767 22.4519C67.6912 22.8066 68.2358 24.4119 68.7864 25.0273C69.3369 25.6428 70.1519 26.2033 70.9827 26.1308C71.1788 26.1201 71.3704 26.0686 71.5452 25.9796C71.7199 25.8906 71.8739 25.7661 71.997 25.6142C72.1202 25.4622 72.2099 25.2863 72.2602 25.0978C72.3105 24.9092 72.3203 24.7123 72.289 24.5197C72.066 23.3672 70.1184 22.5068 69.0725 22.3794C69.0153 22.3794 68.4272 22.3637 68.001 22.3656C68.2437 22.3147 68.4943 22.2578 68.7272 22.2147C69.6053 22.0481 70.4203 21.9482 71.1406 21.8678C71.553 21.8247 71.9299 21.7933 72.2733 21.7678C72.5693 22.0579 73.775 23.2084 74.5327 23.4887C75.2905 23.769 76.287 23.9082 76.9915 23.4632C77.1607 23.3642 77.307 23.231 77.4209 23.0721C77.5348 22.9133 77.6138 22.7324 77.6527 22.5413C77.6916 22.3501 77.6895 22.153 77.6467 21.9626C77.6038 21.7723 77.5211 21.5931 77.4039 21.4366C76.6718 20.5154 74.5446 20.6526 73.5559 21.0074C73.4691 21.0387 72.1904 21.6855 72.2062 21.7012L72.2239 21.7188C71.8865 21.7365 71.5273 21.758 71.1346 21.7914C70.4085 21.858 69.5915 21.9384 68.7055 22.0873C67.7504 22.2364 66.8049 22.4406 65.8737 22.6988C64.8291 22.9833 63.8121 23.3599 62.8348 23.8239L62.8013 23.8435C63.0519 23.6063 63.7327 22.9223 63.7879 22.8635C64.4411 22.0403 65.2146 20.0685 64.5555 19.0944C64.4415 18.9357 64.2951 18.8027 64.1259 18.7039C63.9567 18.6051 63.7685 18.5428 63.5734 18.5209C63.3784 18.4991 63.1809 18.5183 62.9938 18.5773C62.8067 18.6362 62.6342 18.7336 62.4875 18.8631C61.8323 19.3884 61.6587 20.3958 61.6942 21.1779Z" fill="#9C9C9C"/>
<path d="M16.3783 73.7546C16.3902 73.7546 16.5757 72.9706 16.5895 72.9235C16.6645 72.3355 16.4612 71.1497 15.8534 70.8675C15.7514 70.8227 15.6409 70.8 15.5294 70.8008C15.4178 70.8015 15.3077 70.8258 15.2063 70.8719C15.1048 70.918 15.0144 70.9849 14.9409 71.0683C14.8674 71.1517 14.8126 71.2496 14.7799 71.3555C14.624 71.8004 14.8352 72.3355 15.0838 72.7079C15.3779 73.143 16.3783 73.7526 16.3783 73.7546Z" fill="#41BF47"/>
<path d="M4.47939 73.645C4.96286 73.841 6.13896 73.8057 6.14094 73.8057C6.14291 73.8057 5.87848 73.0452 5.8548 72.9982C5.59038 72.465 4.76158 71.5909 4.09854 71.6869C3.98858 71.7056 3.88387 71.7472 3.7913 71.8091C3.69872 71.8709 3.6204 71.9515 3.56147 72.0456C3.50255 72.1396 3.46438 72.2451 3.44947 72.3549C3.43456 72.4647 3.44324 72.5764 3.47496 72.6826C3.59139 73.1393 4.06696 73.4725 4.47939 73.645Z" fill="#41BF47"/>
<path d="M4.9334 77.0279C5.43265 77.0946 6.47852 76.779 6.5614 76.7535C6.74216 77.3481 6.96234 77.9302 7.22049 78.496C7.36849 78.8272 7.52833 79.1545 7.69409 79.476C7.59543 79.3368 7.5086 79.2153 7.49676 79.1996C7.10209 78.7547 6.07004 78.1275 5.45633 78.394C5.35503 78.4408 5.26488 78.5084 5.19184 78.5924C5.1188 78.6764 5.06454 78.7748 5.03264 78.8811C5.00075 78.9875 4.99194 79.0993 5.00681 79.2093C5.02168 79.3193 5.05988 79.4249 5.11889 79.5191C5.35175 79.9268 5.90823 80.1247 6.34236 80.1835C6.77649 80.2423 7.69015 79.9875 7.92103 79.9209C7.98615 80.0463 8.04732 80.1718 8.11836 80.2952C8.43015 80.893 8.74391 81.4889 9.03399 82.0808C9.1366 82.2905 9.23132 82.5002 9.32209 82.708C9.23527 82.5865 9.16225 82.4846 9.14844 82.4689C8.75377 82.024 7.71975 81.3968 7.10604 81.6653C7.00518 81.7123 6.91548 81.78 6.84284 81.8639C6.7702 81.9478 6.71626 82.046 6.68458 82.1521C6.65289 82.2581 6.64417 82.3697 6.65899 82.4794C6.67381 82.589 6.71184 82.6943 6.77057 82.7884C7.00343 83.198 7.55004 83.394 7.99404 83.4528C8.43804 83.5116 9.25303 83.2862 9.53521 83.2039C9.62401 83.4214 9.71479 83.639 9.79175 83.8526C9.84108 83.9996 9.8983 84.1388 9.93974 84.2897L10.07 84.7307C10.141 85.0149 10.218 85.307 10.2811 85.5853C10.3265 85.7813 10.366 85.9636 10.4074 86.1498C10.3088 85.942 10.1055 85.5363 10.0838 85.5049C9.76017 85.0051 8.83665 84.229 8.1894 84.4014C8.08228 84.4317 7.98283 84.4842 7.89757 84.5553C7.81231 84.6265 7.74319 84.7148 7.69473 84.8144C7.64627 84.914 7.61958 85.0226 7.61641 85.1332C7.61324 85.2438 7.63366 85.3538 7.67633 85.4559C7.84407 85.895 8.35713 86.1733 8.78535 86.2968C9.25697 86.434 10.2989 86.2968 10.4291 86.2713C10.4943 86.581 10.5554 86.8808 10.6087 87.165C10.806 88.145 10.9165 88.9761 10.9915 89.5563H11.4454C11.4454 89.5386 11.4454 89.5229 11.4454 89.5053C11.3566 88.9173 11.2185 88.0862 11.0073 87.0945C10.9402 86.7809 10.8633 86.4477 10.7824 86.1047C11.094 85.9762 11.3978 85.8296 11.6921 85.6656C12.0413 86.0302 12.9254 86.4496 13.0399 86.5045C12.9234 86.7985 12.809 87.0827 12.6945 87.3493C12.2999 88.2744 11.9427 89.029 11.6842 89.5543H12.1834C12.4242 89.0329 12.732 88.3371 13.0616 87.5061C13.1819 87.2082 13.3023 86.8887 13.4247 86.5574C13.5509 86.5829 14.585 86.777 15.0645 86.6633C15.4986 86.5614 16.0235 86.3085 16.213 85.8793C16.2618 85.7797 16.2889 85.671 16.2924 85.5603C16.2959 85.4496 16.2757 85.3394 16.2332 85.237C16.1907 85.1345 16.1268 85.0422 16.0458 84.9661C15.9647 84.89 15.8684 84.8318 15.7631 84.7954C15.1237 84.5994 14.1627 85.3187 13.8134 85.8028C13.7937 85.8303 13.6042 86.1654 13.4898 86.3771C13.5371 86.2419 13.5865 86.1106 13.6358 85.9714C13.7325 85.695 13.8331 85.4187 13.92 85.1188L14.0482 84.6758C14.0936 84.5308 14.1232 84.3681 14.1607 84.2133C14.2436 83.8526 14.3087 83.4822 14.358 83.1078C14.6008 83.1921 15.469 83.4802 15.917 83.443C16.3649 83.4058 16.9194 83.2372 17.174 82.8393C17.2373 82.7481 17.2804 82.6446 17.3005 82.5356C17.3206 82.4266 17.3173 82.3146 17.2906 82.2069C17.2639 82.0993 17.2146 81.9986 17.1459 81.9113C17.0771 81.824 16.9905 81.7522 16.8918 81.7006C16.2998 81.4026 15.2322 81.9789 14.8119 82.4042C14.7863 82.4297 14.5199 82.7688 14.3778 82.9569C14.4113 82.7315 14.4449 82.5081 14.4705 82.2788C14.5435 81.6163 14.5988 80.946 14.656 80.2756C14.6738 80.0796 14.6935 79.866 14.7132 79.6622C14.7981 79.6935 15.8242 80.0542 16.3255 80.0169C16.7695 79.9797 17.3279 79.8111 17.5805 79.4132C17.6439 79.3221 17.6871 79.2187 17.7074 79.1098C17.7276 79.0009 17.7244 78.8889 17.6979 78.7813C17.6715 78.6738 17.6223 78.573 17.5538 78.4856C17.4852 78.3982 17.3988 78.3263 17.3003 78.2745C16.7083 77.9766 15.6387 78.5528 15.2204 78.9762C15.1888 79.0095 14.806 79.4956 14.7152 79.6249C14.7586 79.1741 14.804 78.7253 14.8672 78.2862C14.9504 77.691 15.0723 77.1018 15.2322 76.5222C15.2717 76.5379 16.3393 76.9142 16.8543 76.8809C17.2983 76.8437 17.8568 76.6751 18.1093 76.2772C18.1727 76.1861 18.216 76.0827 18.2362 75.9738C18.2565 75.8649 18.2533 75.7529 18.2268 75.6453C18.2003 75.5378 18.1512 75.437 18.0826 75.3496C18.0141 75.2622 17.9277 75.1903 17.8291 75.1385C17.2371 74.8406 16.1676 75.4168 15.7492 75.8402C15.7216 75.8696 15.4296 76.2322 15.2954 76.4282L15.2618 76.4105C15.4377 75.8322 15.6656 75.2706 15.9426 74.7328C16.0926 74.4329 16.2505 74.1565 16.4123 73.8919C16.6096 73.984 17.4838 74.3937 17.9495 74.4074C18.4152 74.4211 18.9697 74.3114 19.2657 73.9448C19.3391 73.8611 19.3937 73.7628 19.4259 73.6565C19.4581 73.5502 19.4673 73.4384 19.4527 73.3283C19.4382 73.2182 19.4003 73.1125 19.3415 73.0181C19.2827 72.9237 19.2044 72.8427 19.1118 72.7806C18.5494 72.42 17.4305 72.8766 16.9668 73.253C16.9411 73.2745 16.7083 73.5097 16.5425 73.6842C16.6155 73.5646 16.6905 73.4411 16.7635 73.3294C17.0398 72.906 17.318 72.5356 17.5667 72.2102C17.7088 72.026 17.8429 71.8614 17.9613 71.7104C18.1962 71.7104 19.1453 71.6614 19.5558 71.4635C19.9663 71.2655 20.4162 70.9127 20.5089 70.4502C20.5348 70.3426 20.5374 70.2307 20.5166 70.1221C20.4958 70.0134 20.4521 69.9103 20.3884 69.8196C20.3246 69.7289 20.2423 69.6526 20.1467 69.5958C20.0512 69.5389 19.9446 69.5028 19.834 69.4898C19.1671 69.427 18.3856 70.3424 18.1488 70.8892C18.1291 70.9362 17.8943 71.7104 17.9061 71.7104H17.9199C17.7956 71.8535 17.6653 72.0103 17.5252 72.1828C17.2667 72.5042 16.9806 72.8688 16.6945 73.2882C16.3855 73.7346 16.1022 74.1979 15.8459 74.6759C15.5548 75.2134 15.3125 75.7755 15.1217 76.3556C15.1208 76.3622 15.1208 76.3687 15.1217 76.3752C15.1217 76.1792 15.1059 75.6363 15.1 75.5912C15.0152 75.0032 14.508 73.9154 13.845 73.8018C13.7346 73.7854 13.622 73.7924 13.5146 73.8224C13.4071 73.8524 13.3073 73.9047 13.2217 73.9758C13.1361 74.0469 13.0667 74.1353 13.018 74.235C12.9693 74.3348 12.9424 74.4436 12.9392 74.5544C12.9057 75.0228 13.253 75.4874 13.5904 75.7794C13.9713 76.1087 15.0191 76.4184 15.102 76.4438C14.9233 77.0386 14.7835 77.6442 14.6836 78.2568C14.6244 78.6136 14.5751 78.9762 14.5317 79.3388C14.5317 79.1702 14.5317 79.0193 14.5179 78.9977C14.435 78.4097 13.9259 77.3219 13.2628 77.2082C13.1525 77.1919 13.0399 77.1989 12.9324 77.2289C12.825 77.2589 12.7252 77.3112 12.6396 77.3823C12.554 77.4534 12.4846 77.5418 12.4359 77.6415C12.3872 77.7412 12.3603 77.8501 12.3571 77.9609C12.3235 78.4293 12.6728 78.8938 13.0083 79.1859C13.3437 79.4779 14.2396 79.7641 14.4745 79.8366L14.4271 80.2541C14.3561 80.9224 14.287 81.5908 14.1982 82.2435C14.1686 82.4748 14.1291 82.7002 14.0916 82.9256C14.0916 82.7766 14.0916 82.6492 14.0798 82.6316C13.9949 82.0436 13.4878 80.9538 12.8228 80.8421C12.7126 80.8257 12.6001 80.8327 12.4928 80.8626C12.3855 80.8925 12.2858 80.9446 12.2003 81.0155C12.1147 81.0864 12.0452 81.1745 11.9964 81.274C11.9476 81.3735 11.9205 81.4821 11.917 81.5928C11.8855 82.0632 12.2328 82.5277 12.5702 82.8178C12.9076 83.1078 13.7128 83.3685 13.993 83.4548C13.9476 83.686 13.9022 83.9154 13.8469 84.1368C13.8055 84.2878 13.7759 84.4348 13.7266 84.5818L13.5904 85.0228C13.4937 85.2972 13.3931 85.5833 13.2924 85.8499C13.2234 86.0361 13.1543 86.2125 13.0951 86.3908C13.1287 86.1615 13.1839 85.7127 13.1839 85.6754C13.1707 85.1522 13.0218 84.6412 12.7517 84.1917C12.7538 84.1333 12.7498 84.0749 12.7399 84.0173C12.7254 83.9065 12.6873 83.8001 12.6281 83.7052C12.5689 83.6102 12.4899 83.5289 12.3965 83.4668C12.3031 83.4046 12.1973 83.363 12.0864 83.3447C11.9755 83.3264 11.8619 83.3318 11.7532 83.3607C11.108 83.541 10.7113 84.6758 10.6876 85.2697C10.6876 85.303 10.7133 85.6852 10.735 85.9263C10.7015 85.7872 10.6699 85.6519 10.6324 85.5088C10.5613 85.2246 10.4804 84.9424 10.3956 84.6406L10.2575 84.2015C10.214 84.0545 10.1489 83.9036 10.0956 83.7546C9.96145 83.4077 9.81148 83.0628 9.65164 82.7198C9.90028 82.657 10.7843 82.4199 11.1376 82.1455C11.4908 81.8711 11.8519 81.4164 11.8401 80.9479C11.8423 80.8372 11.8208 80.7273 11.7772 80.6254C11.7335 80.5236 11.6687 80.432 11.5868 80.3568C11.505 80.2817 11.408 80.2245 11.3024 80.1893C11.1967 80.154 11.0847 80.1413 10.9738 80.1522C10.3088 80.2325 9.74439 81.2929 9.62993 81.877C9.62993 81.9142 9.58849 82.3415 9.57468 82.5767C9.47601 82.3709 9.37735 82.1651 9.27473 81.9593C8.96887 81.3713 8.64129 80.7833 8.31767 80.1953C8.21703 80.015 8.12033 79.8346 8.02364 79.6524C8.11244 79.6308 9.17015 79.374 9.56481 79.0644C9.91607 78.79 10.2871 78.3431 10.2772 77.8727C10.2794 77.762 10.258 77.6521 10.2143 77.5502C10.1707 77.4483 10.1058 77.3568 10.0239 77.2816C9.9421 77.2064 9.84516 77.1493 9.73949 77.114C9.63383 77.0788 9.52183 77.0661 9.41089 77.0769C8.74588 77.1573 8.17953 78.2196 8.06705 78.8037C8.06705 78.8468 8.00983 79.4622 8.00588 79.621C7.79079 79.229 7.57964 78.8213 7.38823 78.4195C7.12547 77.8755 6.89871 77.3151 6.7094 76.7418C6.75084 76.732 7.85591 76.4693 8.26044 76.1538C8.61169 75.8794 8.98268 75.4325 8.97281 74.9621C8.97502 74.8514 8.95359 74.7415 8.90994 74.6396C8.86629 74.5377 8.80141 74.4462 8.71957 74.371C8.63773 74.2958 8.54078 74.2387 8.43512 74.2034C8.32945 74.1682 8.21746 74.1555 8.10652 74.1663C7.43953 74.2467 6.87516 75.309 6.76268 75.8911C6.76268 75.9303 6.71729 76.3988 6.70545 76.6222H6.66599C6.49639 76.0437 6.37885 75.4514 6.31473 74.8523C6.27329 74.5211 6.25159 74.2036 6.23975 73.8939C6.44892 73.8664 7.41191 73.7273 7.81841 73.4823C8.22492 73.2373 8.60775 72.8433 8.65708 72.3749C8.67159 72.265 8.66249 72.1533 8.63037 72.0472C8.59826 71.9411 8.54386 71.843 8.47077 71.7592C8.39767 71.6755 8.30755 71.6082 8.20632 71.5616C8.1051 71.515 7.99509 71.4902 7.88353 71.489C7.21457 71.489 6.53575 72.4905 6.35815 73.057C6.35815 73.0883 6.28513 73.4137 6.24172 73.645C6.24172 73.5038 6.23185 73.3608 6.22988 73.2255C6.22988 72.7218 6.25159 72.2612 6.27724 71.8535C6.295 71.6203 6.31473 71.4106 6.33447 71.2146C6.5318 71.0813 7.29548 70.5266 7.53031 70.1366C7.76513 69.7465 7.94076 69.2036 7.76119 68.7646C7.72298 68.6605 7.66303 68.5658 7.58527 68.4864C7.50752 68.4071 7.41373 68.345 7.31008 68.3043C7.20643 68.2635 7.09526 68.2451 6.98391 68.2501C6.87255 68.2551 6.76353 68.2835 6.66401 68.3334C6.07201 68.647 5.93191 69.8386 6.03649 70.4247C6.03649 70.4756 6.28119 71.2498 6.29105 71.242H6.30289C6.27921 71.438 6.25553 71.634 6.23383 71.8535C6.19831 72.2612 6.16279 72.7238 6.15687 73.2255C6.14435 73.7704 6.16412 74.3156 6.21607 74.8582C6.27176 75.4657 6.38138 76.0672 6.54364 76.6555V76.6751C6.43511 76.5124 6.11937 76.0656 6.09175 76.0342C5.69708 75.5893 4.66305 74.9621 4.04935 75.2306C3.94832 75.2774 3.85843 75.345 3.78558 75.4288C3.71274 75.5126 3.65859 75.6108 3.62671 75.7169C3.59483 75.823 3.58594 75.9346 3.60063 76.0443C3.61531 76.1541 3.65324 76.2595 3.7119 76.3537C3.94673 76.7692 4.48545 76.9672 4.9334 77.0279Z" fill="#41BF47"/>
<path opacity="0.3" d="M4.47939 73.645C4.96286 73.841 6.13896 73.8057 6.14094 73.8057C6.14291 73.8057 5.87848 73.0452 5.8548 72.9982C5.59038 72.465 4.76158 71.5909 4.09854 71.6869C3.98858 71.7056 3.88387 71.7472 3.7913 71.8091C3.69872 71.8709 3.6204 71.9515 3.56147 72.0456C3.50255 72.1396 3.46438 72.2451 3.44947 72.3549C3.43456 72.4647 3.44324 72.5764 3.47496 72.6826C3.59139 73.1393 4.06696 73.4725 4.47939 73.645Z" fill="#41BF47"/>
<path opacity="0.3" d="M16.3783 73.7546C16.3902 73.7546 16.5757 72.9706 16.5895 72.9235C16.6645 72.3355 16.4612 71.1497 15.8534 70.8675C15.7514 70.8227 15.6409 70.8 15.5294 70.8008C15.4178 70.8015 15.3077 70.8258 15.2063 70.8719C15.1048 70.918 15.0144 70.9849 14.9409 71.0683C14.8674 71.1517 14.8126 71.2496 14.7799 71.3555C14.624 71.8004 14.8352 72.3355 15.0838 72.7079C15.3779 73.143 16.3783 73.7526 16.3783 73.7546Z" fill="#41BF47"/>
<path opacity="0.3" d="M4.9334 77.0279C5.43265 77.0946 6.47852 76.779 6.5614 76.7535C6.74216 77.3481 6.96234 77.9302 7.22049 78.496C7.36849 78.8272 7.52833 79.1545 7.69409 79.476C7.59543 79.3368 7.5086 79.2153 7.49676 79.1996C7.10209 78.7547 6.07004 78.1275 5.45633 78.394C5.35503 78.4408 5.26488 78.5084 5.19184 78.5924C5.1188 78.6764 5.06454 78.7748 5.03264 78.8811C5.00075 78.9875 4.99194 79.0993 5.00681 79.2093C5.02168 79.3193 5.05988 79.4249 5.11889 79.5191C5.35175 79.9268 5.90823 80.1247 6.34236 80.1835C6.77649 80.2423 7.69015 79.9875 7.92103 79.9209C7.98615 80.0463 8.04732 80.1718 8.11836 80.2952C8.43015 80.893 8.74391 81.4889 9.03399 82.0808C9.1366 82.2905 9.23132 82.5002 9.32209 82.708C9.23527 82.5865 9.16225 82.4846 9.14844 82.4689C8.75377 82.024 7.71975 81.3968 7.10604 81.6653C7.00518 81.7123 6.91548 81.78 6.84284 81.8639C6.7702 81.9478 6.71626 82.046 6.68458 82.1521C6.65289 82.2581 6.64417 82.3697 6.65899 82.4794C6.67381 82.589 6.71184 82.6943 6.77057 82.7884C7.00343 83.198 7.55004 83.394 7.99404 83.4528C8.43804 83.5116 9.25303 83.2862 9.53521 83.2039C9.62401 83.4214 9.71479 83.639 9.79175 83.8526C9.84108 83.9996 9.8983 84.1388 9.93974 84.2897L10.07 84.7307C10.141 85.0149 10.218 85.307 10.2811 85.5853C10.3265 85.7813 10.366 85.9636 10.4074 86.1498C10.3088 85.942 10.1055 85.5363 10.0838 85.5049C9.76017 85.0051 8.83665 84.229 8.1894 84.4014C8.08228 84.4317 7.98283 84.4842 7.89757 84.5553C7.81231 84.6265 7.74319 84.7148 7.69473 84.8144C7.64627 84.914 7.61958 85.0226 7.61641 85.1332C7.61324 85.2438 7.63366 85.3538 7.67633 85.4559C7.84407 85.895 8.35713 86.1733 8.78535 86.2968C9.25697 86.434 10.2989 86.2968 10.4291 86.2713C10.4943 86.581 10.5554 86.8808 10.6087 87.165C10.806 88.145 10.9165 88.9761 10.9915 89.5563H11.4454C11.4454 89.5386 11.4454 89.5229 11.4454 89.5053C11.3566 88.9173 11.2185 88.0862 11.0073 87.0945C10.9402 86.7809 10.8633 86.4477 10.7824 86.1047C11.094 85.9762 11.3978 85.8296 11.6921 85.6656C12.0413 86.0302 12.9254 86.4496 13.0399 86.5045C12.9234 86.7985 12.809 87.0827 12.6945 87.3493C12.2999 88.2744 11.9427 89.029 11.6842 89.5543H12.1834C12.4242 89.0329 12.732 88.3371 13.0616 87.5061C13.1819 87.2082 13.3023 86.8887 13.4247 86.5574C13.5509 86.5829 14.585 86.777 15.0645 86.6633C15.4986 86.5614 16.0235 86.3085 16.213 85.8793C16.2618 85.7797 16.2889 85.671 16.2924 85.5603C16.2959 85.4496 16.2757 85.3394 16.2332 85.237C16.1907 85.1345 16.1268 85.0422 16.0458 84.9661C15.9647 84.89 15.8684 84.8318 15.7631 84.7954C15.1237 84.5994 14.1627 85.3187 13.8134 85.8028C13.7937 85.8303 13.6042 86.1654 13.4898 86.3771C13.5371 86.2419 13.5865 86.1106 13.6358 85.9714C13.7325 85.695 13.8331 85.4187 13.92 85.1188L14.0482 84.6758C14.0936 84.5308 14.1232 84.3681 14.1607 84.2133C14.2436 83.8526 14.3087 83.4822 14.358 83.1078C14.6008 83.1921 15.469 83.4802 15.917 83.443C16.3649 83.4058 16.9194 83.2372 17.174 82.8393C17.2373 82.7481 17.2804 82.6446 17.3005 82.5356C17.3206 82.4266 17.3173 82.3146 17.2906 82.2069C17.2639 82.0993 17.2146 81.9986 17.1459 81.9113C17.0771 81.824 16.9905 81.7522 16.8918 81.7006C16.2998 81.4026 15.2322 81.9789 14.8119 82.4042C14.7863 82.4297 14.5199 82.7688 14.3778 82.9569C14.4113 82.7315 14.4449 82.5081 14.4705 82.2788C14.5435 81.6163 14.5988 80.946 14.656 80.2756C14.6738 80.0796 14.6935 79.866 14.7132 79.6622C14.7981 79.6935 15.8242 80.0542 16.3255 80.0169C16.7695 79.9797 17.3279 79.8111 17.5805 79.4132C17.6439 79.3221 17.6871 79.2187 17.7074 79.1098C17.7276 79.0009 17.7244 78.8889 17.6979 78.7813C17.6715 78.6738 17.6223 78.573 17.5538 78.4856C17.4852 78.3982 17.3988 78.3263 17.3003 78.2745C16.7083 77.9766 15.6387 78.5528 15.2204 78.9762C15.1888 79.0095 14.806 79.4956 14.7152 79.6249C14.7586 79.1741 14.804 78.7253 14.8672 78.2862C14.9504 77.691 15.0723 77.1018 15.2322 76.5222C15.2717 76.5379 16.3393 76.9142 16.8543 76.8809C17.2983 76.8437 17.8568 76.6751 18.1093 76.2772C18.1727 76.1861 18.216 76.0827 18.2362 75.9738C18.2565 75.8649 18.2533 75.7529 18.2268 75.6453C18.2003 75.5378 18.1512 75.437 18.0826 75.3496C18.0141 75.2622 17.9277 75.1903 17.8291 75.1385C17.2371 74.8406 16.1676 75.4168 15.7492 75.8402C15.7216 75.8696 15.4296 76.2322 15.2954 76.4282L15.2618 76.4105C15.4377 75.8322 15.6656 75.2706 15.9426 74.7328C16.0926 74.4329 16.2505 74.1565 16.4123 73.8919C16.6096 73.984 17.4838 74.3937 17.9495 74.4074C18.4152 74.4211 18.9697 74.3114 19.2657 73.9448C19.3391 73.8611 19.3937 73.7628 19.4259 73.6565C19.4581 73.5502 19.4673 73.4384 19.4527 73.3283C19.4382 73.2182 19.4003 73.1125 19.3415 73.0181C19.2827 72.9237 19.2044 72.8427 19.1118 72.7806C18.5494 72.42 17.4305 72.8766 16.9668 73.253C16.9411 73.2745 16.7083 73.5097 16.5425 73.6842C16.6155 73.5646 16.6905 73.4411 16.7635 73.3294C17.0398 72.906 17.318 72.5356 17.5667 72.2102C17.7088 72.026 17.8429 71.8614 17.9613 71.7104C18.1962 71.7104 19.1453 71.6614 19.5558 71.4635C19.9663 71.2655 20.4162 70.9127 20.5089 70.4502C20.5348 70.3426 20.5374 70.2307 20.5166 70.1221C20.4958 70.0134 20.4521 69.9103 20.3884 69.8196C20.3246 69.7289 20.2423 69.6526 20.1467 69.5958C20.0512 69.5389 19.9446 69.5028 19.834 69.4898C19.1671 69.427 18.3856 70.3424 18.1488 70.8892C18.1291 70.9362 17.8943 71.7104 17.9061 71.7104H17.9199C17.7956 71.8535 17.6653 72.0103 17.5252 72.1828C17.2667 72.5042 16.9806 72.8688 16.6945 73.2882C16.3855 73.7346 16.1022 74.1979 15.8459 74.6759C15.5548 75.2134 15.3125 75.7755 15.1217 76.3556C15.1208 76.3622 15.1208 76.3687 15.1217 76.3752C15.1217 76.1792 15.1059 75.6363 15.1 75.5912C15.0152 75.0032 14.508 73.9154 13.845 73.8018C13.7346 73.7854 13.622 73.7924 13.5146 73.8224C13.4071 73.8524 13.3073 73.9047 13.2217 73.9758C13.1361 74.0469 13.0667 74.1353 13.018 74.235C12.9693 74.3348 12.9424 74.4436 12.9392 74.5544C12.9057 75.0228 13.253 75.4874 13.5904 75.7794C13.9713 76.1087 15.0191 76.4184 15.102 76.4438C14.9233 77.0386 14.7835 77.6442 14.6836 78.2568C14.6244 78.6136 14.5751 78.9762 14.5317 79.3388C14.5317 79.1702 14.5317 79.0193 14.5179 78.9977C14.435 78.4097 13.9259 77.3219 13.2628 77.2082C13.1525 77.1919 13.0399 77.1989 12.9324 77.2289C12.825 77.2589 12.7252 77.3112 12.6396 77.3823C12.554 77.4534 12.4846 77.5418 12.4359 77.6415C12.3872 77.7412 12.3603 77.8501 12.3571 77.9609C12.3235 78.4293 12.6728 78.8938 13.0083 79.1859C13.3437 79.4779 14.2396 79.7641 14.4745 79.8366L14.4271 80.2541C14.3561 80.9224 14.287 81.5908 14.1982 82.2435C14.1686 82.4748 14.1291 82.7002 14.0916 82.9256C14.0916 82.7766 14.0916 82.6492 14.0798 82.6316C13.9949 82.0436 13.4878 80.9538 12.8228 80.8421C12.7126 80.8257 12.6001 80.8327 12.4928 80.8626C12.3855 80.8925 12.2858 80.9446 12.2003 81.0155C12.1147 81.0864 12.0452 81.1745 11.9964 81.274C11.9476 81.3735 11.9205 81.4821 11.917 81.5928C11.8855 82.0632 12.2328 82.5277 12.5702 82.8178C12.9076 83.1078 13.7128 83.3685 13.993 83.4548C13.9476 83.686 13.9022 83.9154 13.8469 84.1368C13.8055 84.2878 13.7759 84.4348 13.7266 84.5818L13.5904 85.0228C13.4937 85.2972 13.3931 85.5833 13.2924 85.8499C13.2234 86.0361 13.1543 86.2125 13.0951 86.3908C13.1287 86.1615 13.1839 85.7127 13.1839 85.6754C13.1707 85.1522 13.0218 84.6412 12.7517 84.1917C12.7538 84.1333 12.7498 84.0749 12.7399 84.0173C12.7254 83.9065 12.6873 83.8001 12.6281 83.7052C12.5689 83.6102 12.4899 83.5289 12.3965 83.4668C12.3031 83.4046 12.1973 83.363 12.0864 83.3447C11.9755 83.3264 11.8619 83.3318 11.7532 83.3607C11.108 83.541 10.7113 84.6758 10.6876 85.2697C10.6876 85.303 10.7133 85.6852 10.735 85.9263C10.7015 85.7872 10.6699 85.6519 10.6324 85.5088C10.5613 85.2246 10.4804 84.9424 10.3956 84.6406L10.2575 84.2015C10.214 84.0545 10.1489 83.9036 10.0956 83.7546C9.96145 83.4077 9.81148 83.0628 9.65164 82.7198C9.90028 82.657 10.7843 82.4199 11.1376 82.1455C11.4908 81.8711 11.8519 81.4164 11.8401 80.9479C11.8423 80.8372 11.8208 80.7273 11.7772 80.6254C11.7335 80.5236 11.6687 80.432 11.5868 80.3568C11.505 80.2817 11.408 80.2245 11.3024 80.1893C11.1967 80.154 11.0847 80.1413 10.9738 80.1522C10.3088 80.2325 9.74439 81.2929 9.62993 81.877C9.62993 81.9142 9.58849 82.3415 9.57468 82.5767C9.47601 82.3709 9.37735 82.1651 9.27473 81.9593C8.96887 81.3713 8.64129 80.7833 8.31767 80.1953C8.21703 80.015 8.12033 79.8346 8.02364 79.6524C8.11244 79.6308 9.17015 79.374 9.56481 79.0644C9.91607 78.79 10.2871 78.3431 10.2772 77.8727C10.2794 77.762 10.258 77.6521 10.2143 77.5502C10.1707 77.4483 10.1058 77.3568 10.0239 77.2816C9.9421 77.2064 9.84516 77.1493 9.73949 77.114C9.63383 77.0788 9.52183 77.0661 9.41089 77.0769C8.74588 77.1573 8.17953 78.2196 8.06705 78.8037C8.06705 78.8468 8.00983 79.4622 8.00588 79.621C7.79079 79.229 7.57964 78.8213 7.38823 78.4195C7.12547 77.8755 6.89871 77.3151 6.7094 76.7418C6.75084 76.732 7.85591 76.4693 8.26044 76.1538C8.61169 75.8794 8.98268 75.4325 8.97281 74.9621C8.97502 74.8514 8.95359 74.7415 8.90994 74.6396C8.86629 74.5377 8.80141 74.4462 8.71957 74.371C8.63773 74.2958 8.54078 74.2387 8.43512 74.2034C8.32945 74.1682 8.21746 74.1555 8.10652 74.1663C7.43953 74.2467 6.87516 75.309 6.76268 75.8911C6.76268 75.9303 6.71729 76.3988 6.70545 76.6222H6.66599C6.49639 76.0437 6.37885 75.4514 6.31473 74.8523C6.27329 74.5211 6.25159 74.2036 6.23975 73.8939C6.44892 73.8664 7.41191 73.7273 7.81841 73.4823C8.22492 73.2373 8.60775 72.8433 8.65708 72.3749C8.67159 72.265 8.66249 72.1533 8.63037 72.0472C8.59826 71.9411 8.54386 71.843 8.47077 71.7592C8.39767 71.6755 8.30755 71.6082 8.20632 71.5616C8.1051 71.515 7.99509 71.4902 7.88353 71.489C7.21457 71.489 6.53575 72.4905 6.35815 73.057C6.35815 73.0883 6.28513 73.4137 6.24172 73.645C6.24172 73.5038 6.23185 73.3608 6.22988 73.2255C6.22988 72.7218 6.25159 72.2612 6.27724 71.8535C6.295 71.6203 6.31473 71.4106 6.33447 71.2146C6.5318 71.0813 7.29548 70.5266 7.53031 70.1366C7.76513 69.7465 7.94076 69.2036 7.76119 68.7646C7.72298 68.6605 7.66303 68.5658 7.58527 68.4864C7.50752 68.4071 7.41373 68.345 7.31008 68.3043C7.20643 68.2635 7.09526 68.2451 6.98391 68.2501C6.87255 68.2551 6.76353 68.2835 6.66401 68.3334C6.07201 68.647 5.93191 69.8386 6.03649 70.4247C6.03649 70.4756 6.28119 71.2498 6.29105 71.242H6.30289C6.27921 71.438 6.25553 71.634 6.23383 71.8535C6.19831 72.2612 6.16279 72.7238 6.15687 73.2255C6.14435 73.7704 6.16412 74.3156 6.21607 74.8582C6.27176 75.4657 6.38138 76.0672 6.54364 76.6555V76.6751C6.43511 76.5124 6.11937 76.0656 6.09175 76.0342C5.69708 75.5893 4.66305 74.9621 4.04935 75.2306C3.94832 75.2774 3.85843 75.345 3.78558 75.4288C3.71274 75.5126 3.65859 75.6108 3.62671 75.7169C3.59483 75.823 3.58594 75.9346 3.60063 76.0443C3.61531 76.1541 3.65324 76.2595 3.7119 76.3537C3.94673 76.7692 4.48545 76.9672 4.9334 77.0279Z" fill="#41BF47"/>
<path d="M62.4521 67.9002V47.5338C62.4519 47.1692 62.524 46.8081 62.6643 46.4711C62.8046 46.1342 63.0104 45.828 63.2699 45.5701C63.5294 45.3122 63.8375 45.1076 64.1766 44.968C64.5158 44.8284 64.8793 44.7565 65.2464 44.7565H106.939V63.2707" stroke="#263238" stroke-width="7" stroke-linecap="round" stroke-linejoin="round"/>
<path d="M125.247 68.1354H50.9771C50.6198 68.1354 50.266 68.2053 49.936 68.3412C49.606 68.477 49.3061 68.6762 49.0536 68.9272C48.801 69.1782 48.6008 69.4762 48.4642 69.8041C48.3277 70.132 48.2576 70.4834 48.2578 70.8383V78.7625" stroke="#263238" stroke-width="7" stroke-linecap="round" stroke-linejoin="round"/>
<path d="M57.3844 61.5439H67.9477C68.1047 61.5439 68.2553 61.6058 68.3663 61.7161C68.4773 61.8264 68.5397 61.9759 68.5397 62.1319V74.5916C68.5397 74.7303 68.5122 74.8677 68.4587 74.9959C68.4053 75.1241 68.3269 75.2405 68.2281 75.3386C68.1294 75.4367 68.0121 75.5145 67.8831 75.5676C67.754 75.6207 67.6157 75.6481 67.476 75.6481H57.862C57.5799 75.6481 57.3093 75.5368 57.1099 75.3386C56.9104 75.1405 56.7983 74.8718 56.7983 74.5916V62.1319C56.7983 61.977 56.8599 61.8283 56.9696 61.7182C57.0794 61.6081 57.2284 61.5454 57.3844 61.5439Z" fill="#E5E5E5" stroke="#263238" stroke-linecap="round" stroke-linejoin="round"/>
<path d="M57.3844 61.5439H67.9477C68.1047 61.5439 68.2553 61.6058 68.3663 61.7161C68.4773 61.8264 68.5397 61.9759 68.5397 62.1319V62.9708H56.7983V62.1319C56.7983 61.977 56.8599 61.8283 56.9696 61.7182C57.0794 61.6081 57.2284 61.5454 57.3844 61.5439Z" fill="#263238" stroke="#263238" stroke-linecap="round" stroke-linejoin="round"/>
<path d="M65.6724 62.2888C65.6728 62.2135 65.6506 62.1397 65.6087 62.0768C65.5668 62.014 65.507 61.965 65.437 61.936C65.3669 61.9069 65.2898 61.8992 65.2154 61.9138C65.1409 61.9285 65.0725 61.9647 65.0189 62.018C64.9652 62.0713 64.9287 62.1392 64.914 62.2132C64.8993 62.2871 64.907 62.3637 64.9363 62.4333C64.9655 62.5028 65.0149 62.5622 65.0781 62.6038C65.1414 62.6455 65.2156 62.6675 65.2915 62.6671C65.3924 62.6666 65.489 62.6266 65.5603 62.5557C65.6316 62.4849 65.6719 62.389 65.6724 62.2888Z" fill="#E5E5E5" stroke="#263238" stroke-linecap="round" stroke-linejoin="round"/>
<path d="M66.896 62.2888C66.8964 62.2135 66.8743 62.1398 66.8325 62.077C66.7906 62.0143 66.731 61.9652 66.6611 61.9361C66.5912 61.9071 66.5141 61.8993 66.4397 61.9137C66.3653 61.9282 66.2969 61.9642 66.2432 62.0173C66.1895 62.0704 66.1528 62.1382 66.1379 62.212C66.1229 62.2858 66.1304 62.3623 66.1593 62.4319C66.1882 62.5015 66.2373 62.561 66.3003 62.6029C66.3633 62.6448 66.4374 62.6671 66.5132 62.6671C66.6144 62.6671 66.7115 62.6273 66.7832 62.5564C66.8549 62.4855 66.8955 62.3893 66.896 62.2888Z" fill="#E5E5E5" stroke="#263238" stroke-linecap="round" stroke-linejoin="round"/>
<path d="M68.1138 62.2886C68.1138 62.2138 68.0914 62.1407 68.0496 62.0785C68.0077 62.0163 67.9482 61.9678 67.8787 61.9392C67.8091 61.9105 67.7325 61.903 67.6586 61.9176C67.5847 61.9322 67.5169 61.9683 67.4636 62.0212C67.4103 62.0741 67.3741 62.1415 67.3594 62.2149C67.3447 62.2882 67.3522 62.3643 67.381 62.4334C67.4099 62.5025 67.4587 62.5616 67.5213 62.6032C67.5839 62.6447 67.6576 62.6669 67.7329 62.6669C67.8339 62.6669 67.9308 62.6271 68.0022 62.5561C68.0736 62.4852 68.1138 62.389 68.1138 62.2886Z" fill="#E5E5E5" stroke="#263238" stroke-linecap="round" stroke-linejoin="round"/>
<path d="M61.256 64.5919L59.2451 66.1697L61.256 67.7494" stroke="#263238" stroke-width="3" stroke-linecap="round" stroke-linejoin="round"/>
<path d="M64.0127 64.5919L66.0235 66.1697L64.0127 67.7494" stroke="#263238" stroke-width="3" stroke-linecap="round" stroke-linejoin="round"/>
<path d="M62.892 64.2192L62.2842 68.0275" stroke="#263238" stroke-width="3" stroke-linecap="round" stroke-linejoin="round"/>
<path d="M65.106 69.8307H67.326" stroke="#263238" stroke-linecap="round" stroke-linejoin="round"/>
<path d="M61.8125 69.8307H64.7015" stroke="#263238" stroke-linecap="round" stroke-linejoin="round"/>
<path d="M59.3872 69.8307H61.177" stroke="#263238" stroke-linecap="round" stroke-linejoin="round"/>
<path d="M58.144 69.8307H58.9827" stroke="#263238" stroke-linecap="round" stroke-linejoin="round"/>
<path d="M66.0298 71.134H67.3263" stroke="#263238" stroke-linecap="round" stroke-linejoin="round"/>
<path d="M59.561 71.134H65.3942" stroke="#263238" stroke-linecap="round" stroke-linejoin="round"/>
<path d="M58.144 71.134H58.8683" stroke="#263238" stroke-linecap="round" stroke-linejoin="round"/>
<path d="M62.9097 72.4376H67.326" stroke="#263238" stroke-linecap="round" stroke-linejoin="round"/>
<path d="M59.2139 72.4376H62.1028" stroke="#263238" stroke-linecap="round" stroke-linejoin="round"/>
<path d="M58.144 72.4376H58.7518" stroke="#263238" stroke-linecap="round" stroke-linejoin="round"/>
<path d="M66.0869 73.7409H67.3262" stroke="#263238" stroke-linecap="round" stroke-linejoin="round"/>
<path d="M61.8716 73.7409H65.394" stroke="#263238" stroke-linecap="round" stroke-linejoin="round"/>
<path d="M58.144 73.7409H61.177" stroke="#263238" stroke-linecap="round" stroke-linejoin="round"/>
<path d="M74.6472 36.403C74.6472 36.403 74.0809 36.4873 73.8579 36.8519C73.6349 37.2164 73.2067 38.2552 73.406 38.3395C73.6053 38.4238 73.7434 38.1161 73.8855 37.8907C74.0276 37.6653 74.2249 37.3281 74.2249 37.3281L74.6768 37.2439L74.6472 36.403Z" fill="#E5E5E5" stroke="#263238" stroke-linecap="round" stroke-linejoin="round"/>
<path d="M75.4387 35.868C75.4387 35.868 74.7895 35.8112 74.6198 36.0915C74.4501 36.3717 74.1107 38.2259 74.1383 38.4435C74.1659 38.661 74.4501 38.7806 74.675 38.3886C74.9 37.9966 75.3815 36.26 75.3815 36.26L75.4387 35.868Z" fill="#E5E5E5" stroke="#263238" stroke-linecap="round" stroke-linejoin="round"/>
<path d="M92.368 38.5022H68.0684V39.1921H92.368V38.5022Z" fill="#263238" stroke="#263238" stroke-linecap="round" stroke-linejoin="round"/>
<path d="M84.1253 38.5022H68.3387L66.8054 28.0789C66.7841 27.9675 66.7882 27.8528 66.8175 27.7432C66.8467 27.6336 66.9003 27.5319 66.9743 27.4456C67.0483 27.3593 67.1409 27.2906 67.2452 27.2445C67.3495 27.1984 67.4629 27.1761 67.577 27.1792H81.5442C81.7953 27.1867 82.036 27.2805 82.2253 27.4445C82.4146 27.6086 82.5407 27.8328 82.5822 28.0789L84.1253 38.5022Z" fill="#E5E5E5" stroke="#263238" stroke-linecap="round" stroke-linejoin="round"/>
<path d="M83.8212 38.5022H68.0444L66.5013 28.0789C66.4803 27.9674 66.4848 27.8527 66.5143 27.7431C66.5437 27.6335 66.5975 27.5319 66.6717 27.4456C66.7459 27.3594 66.8385 27.2907 66.9429 27.2446C67.0472 27.1985 67.1607 27.1762 67.2748 27.1793H81.2421C81.4931 27.1871 81.7336 27.281 81.9228 27.445C82.112 27.609 82.2382 27.833 82.28 28.0789L83.8212 38.5022Z" fill="#9C9C9C" stroke="#263238" stroke-linecap="round" stroke-linejoin="round"/>
<path d="M112.366 39.1921H61.4497" stroke="#263238" stroke-linecap="round" stroke-linejoin="round"/>
<path d="M14.4466 89.6013L13.087 76.9358C13.0767 76.8422 13.0864 76.7475 13.1155 76.6579C13.1445 76.5683 13.1922 76.4857 13.2555 76.4157C13.3188 76.3456 13.3963 76.2895 13.4828 76.2512C13.5694 76.2128 13.6631 76.193 13.7579 76.193H22.5491C22.7029 76.1934 22.852 76.2458 22.9718 76.3417C23.0916 76.4375 23.175 76.571 23.2082 76.7202L26.0814 89.6013H14.4466Z" fill="#263238" stroke="#263238" stroke-linecap="round" stroke-linejoin="round"/>
<path d="M25.1935 68.1234C25.1935 68.1234 19.6524 71.0517 19.4984 72.214C19.3445 73.3762 18.8887 89.5815 18.8887 89.5815H31.9679L31.9265 84.3405L32.5994 83.3938L33.4025 85.101L36.9743 83.4487L33.5111 72.2022C33.3919 71.8034 33.1383 71.4573 32.7928 71.2222C31.6719 70.4519 29.1145 68.7369 28.408 68.5801C27.4825 68.3743 25.1935 68.1234 25.1935 68.1234Z" fill="#E5E5E5"/>
<path d="M19.4983 72.214C19.4983 72.265 19.4845 72.3493 19.4766 72.4571C19.8395 72.3331 20.2216 72.2741 20.6053 72.2826C21.6058 72.2826 22.0794 72.5825 22.628 72.9314C23.22 73.3018 23.8731 73.7154 25.1381 73.7154C26.403 73.7154 27.066 73.294 27.6501 72.9314C28.1987 72.5825 28.6723 72.2826 29.6728 72.2826C30.6733 72.2826 31.1468 72.5825 31.6954 72.9314C32.3571 73.4114 33.148 73.6844 33.9667 73.7154L33.6826 72.7883C33.1391 72.7082 32.624 72.4961 32.1828 72.1709C31.5908 71.8005 30.9377 71.3869 29.6728 71.3869C28.4079 71.3869 27.7448 71.8083 27.1607 72.1709C26.6141 72.5198 26.1405 72.8197 25.1381 72.8197C24.1356 72.8197 23.664 72.5198 23.1174 72.1709C22.5254 71.8005 21.8722 71.3869 20.6053 71.3869C20.408 71.3869 20.2402 71.3987 20.0765 71.4143C19.743 71.7181 19.5358 71.9965 19.4983 72.214Z" fill="#41BF47"/>
<path d="M23.1175 89.464C22.5255 89.0935 21.8724 88.68 20.6055 88.68C20.0204 88.667 19.4397 88.7821 18.9045 89.0171C18.9045 89.3817 18.8887 89.5894 18.8887 89.5894H20.3568C20.4358 89.5894 20.5186 89.5894 20.6055 89.5894C20.6923 89.5894 20.7752 89.5894 20.8541 89.5894H23.301L23.1175 89.464Z" fill="#41BF47"/>
<path d="M31.9563 89.321C31.2795 88.8789 30.4829 88.6526 29.6731 88.6722C28.4062 88.6722 27.7452 89.0936 27.1611 89.4562L26.9775 89.5738H29.4245C29.5034 89.5738 29.5863 89.5738 29.6731 89.5738C29.7599 89.5738 29.8428 89.5738 29.9218 89.5738H31.9681L31.9563 89.321Z" fill="#41BF47"/>
<path d="M29.6727 74.2641C28.4058 74.2641 27.7448 74.6835 27.1606 75.0481C26.614 75.397 26.1404 75.6988 25.138 75.6988C24.1355 75.6988 23.6639 75.397 23.1173 75.0481C22.5253 74.6777 21.8721 74.2641 20.6052 74.2641C20.1905 74.2591 19.7771 74.3133 19.3778 74.4248C19.366 74.7267 19.3541 75.0501 19.3403 75.3931C19.7413 75.23 20.1721 75.1519 20.6052 75.1637C21.6057 75.1637 22.0793 75.4656 22.6279 75.8125C23.2199 76.1849 23.8731 76.5965 25.138 76.5965C26.4029 76.5965 27.0659 76.1771 27.65 75.8125C28.1986 75.4656 28.6722 75.1637 29.6727 75.1637C30.6732 75.1637 31.1468 75.4656 31.6954 75.8125C32.2874 76.1849 32.9405 76.5965 34.2054 76.5965C34.4185 76.5974 34.6315 76.5843 34.8428 76.5573L34.5745 75.6812C34.46 75.691 34.3377 75.6969 34.2054 75.6969C33.205 75.6969 32.7314 75.395 32.1828 75.0461C31.6006 74.6757 30.9376 74.2641 29.6727 74.2641Z" fill="#41BF47"/>
<path d="M22.6284 87.3413C23.2204 87.7117 23.8736 88.1253 25.1385 88.1253C26.4034 88.1253 27.0664 87.7039 27.6505 87.3413C28.1991 86.9924 28.6727 86.6905 29.6732 86.6905C30.6737 86.6905 31.1473 86.9924 31.6959 87.3413L31.9425 87.4961L31.9327 86.4259C31.2618 85.9915 30.4738 85.77 29.6732 85.7909C28.4063 85.7909 27.7452 86.2123 27.1611 86.5749C26.6145 86.9238 26.1409 87.2237 25.1385 87.2237C24.136 87.2237 23.6644 86.9238 23.1178 86.5749C22.5258 86.2045 21.8726 85.7909 20.6057 85.7909C20.0529 85.7803 19.5036 85.8817 18.9915 86.0888C18.9797 86.4495 18.9698 86.7905 18.96 87.11C19.4566 86.8162 20.028 86.6705 20.6057 86.6905C21.6062 86.6905 22.0798 86.9924 22.6284 87.3413Z" fill="#41BF47"/>
<path d="M32.1829 77.9373C31.5909 77.5668 30.9377 77.1533 29.6728 77.1533C28.4079 77.1533 27.7449 77.5747 27.1607 77.9373C26.6141 78.2861 26.1405 78.586 25.1381 78.586C24.1356 78.586 23.664 78.2861 23.1174 77.9373C22.5254 77.5668 21.8722 77.1533 20.6053 77.1533C20.1523 77.147 19.7012 77.2132 19.2694 77.3493C19.2575 77.6687 19.2477 77.9961 19.2358 78.3293C19.6648 78.1335 20.1335 78.0389 20.6053 78.0529C21.6058 78.0529 22.0794 78.3547 22.628 78.7036C23.22 79.074 23.8732 79.4876 25.1381 79.4876C26.403 79.4876 27.066 79.0662 27.6501 78.7036C28.1987 78.3547 28.6723 78.0529 29.6728 78.0529C30.6733 78.0529 31.1469 78.3547 31.6955 78.7036C32.2875 79.074 32.9406 79.4876 34.2055 79.4876C34.7043 79.4963 35.2005 79.4146 35.6698 79.2465L35.4034 78.3861C35.0203 78.5266 34.6137 78.5931 34.2055 78.5821C33.2051 78.5958 32.7315 78.2861 32.1829 77.9373Z" fill="#41BF47"/>
<path d="M22.628 81.5769C23.22 81.9473 23.8732 82.3609 25.1381 82.3609C26.403 82.3609 27.066 81.9395 27.6501 81.5769C28.1987 81.228 28.6723 80.9281 29.6728 80.9281C30.6733 80.9281 31.1469 81.228 31.6955 81.5769C32.2875 81.9473 32.9406 82.3609 34.2056 82.3609C34.9958 82.3813 35.774 82.1655 36.4394 81.7415L36.1651 80.8517C35.5983 81.2653 34.9086 81.4792 34.2056 81.4593C33.2051 81.4593 32.7315 81.1594 32.1829 80.8105C31.5909 80.4401 30.9377 80.0265 29.6728 80.0265C28.4079 80.0265 27.7449 80.4479 27.1608 80.8105C26.6141 81.1594 26.1405 81.4593 25.1381 81.4593C24.1356 81.4593 23.664 81.1594 23.1174 80.8105C22.5254 80.4401 21.8722 80.0265 20.6053 80.0265C20.1173 80.0194 19.6318 80.097 19.1707 80.2558C19.1609 80.5871 19.151 80.9183 19.1392 81.2496C19.593 81.0219 20.0972 80.9113 20.6053 80.9281C21.6058 80.9281 22.0794 81.228 22.628 81.5769Z" fill="#41BF47"/>
<path d="M22.628 84.4581C23.22 84.8305 23.8731 85.2421 25.138 85.2421C26.403 85.2421 27.066 84.8227 27.6501 84.4581C28.1987 84.1112 28.6723 83.8094 29.6728 83.8094C30.6732 83.8094 31.1468 84.1112 31.6954 84.4581L31.9184 84.5993V84.3405L32.3131 83.782L32.1828 83.7016C31.4551 83.1744 30.5733 82.899 29.6728 82.9176C28.4059 82.9176 27.7448 83.337 27.1607 83.7016C26.6141 84.0485 26.1405 84.3503 25.138 84.3503C24.1356 84.3503 23.664 84.0485 23.1174 83.7016C22.5254 83.3292 21.8722 82.9176 20.6053 82.9176C20.0846 82.9079 19.5669 82.997 19.0799 83.1802C19.0681 83.5213 19.0582 83.8584 19.0483 84.1857C19.5247 83.9265 20.0624 83.7992 20.6053 83.8172C21.6058 83.8094 22.0794 84.1112 22.628 84.4581Z" fill="#41BF47"/>
<path d="M36.9642 83.4489L36.9168 83.3019C36.6799 83.4195 36.45 83.5504 36.2281 83.6939C35.6795 84.0409 35.2079 84.3427 34.2054 84.3427C33.7687 84.3547 33.3344 84.2752 32.9307 84.1095L33.3924 85.0894L36.9642 83.4489Z" fill="#41BF47"/>
<g opacity="0.5">
<path opacity="0.5" d="M19.4983 72.214C19.4983 72.265 19.4845 72.3493 19.4766 72.4571C19.8395 72.3331 20.2216 72.2741 20.6053 72.2826C21.6058 72.2826 22.0794 72.5825 22.628 72.9314C23.22 73.3018 23.8731 73.7154 25.1381 73.7154C26.403 73.7154 27.066 73.294 27.6501 72.9314C28.1987 72.5825 28.6723 72.2826 29.6728 72.2826C30.6733 72.2826 31.1468 72.5825 31.6954 72.9314C32.3571 73.4114 33.148 73.6844 33.9667 73.7154L33.6826 72.7883C33.1391 72.7082 32.624 72.4961 32.1828 72.1709C31.5908 71.8005 30.9377 71.3869 29.6728 71.3869C28.4079 71.3869 27.7448 71.8083 27.1607 72.1709C26.6141 72.5198 26.1405 72.8197 25.1381 72.8197C24.1356 72.8197 23.664 72.5198 23.1174 72.1709C22.5254 71.8005 21.8722 71.3869 20.6053 71.3869C20.408 71.3869 20.2402 71.3987 20.0765 71.4143C19.743 71.7181 19.5358 71.9965 19.4983 72.214Z" fill="#E5E5E5"/>
<path opacity="0.5" d="M23.1175 89.464C22.5255 89.0935 21.8724 88.68 20.6055 88.68C20.0204 88.667 19.4397 88.7821 18.9045 89.0171C18.9045 89.3817 18.8887 89.5894 18.8887 89.5894H20.3568C20.4358 89.5894 20.5186 89.5894 20.6055 89.5894C20.6923 89.5894 20.7752 89.5894 20.8541 89.5894H23.301L23.1175 89.464Z" fill="#E5E5E5"/>
<path opacity="0.5" d="M31.9563 89.3208C31.2795 88.8788 30.4829 88.6524 29.6731 88.6721C28.4062 88.6721 27.7452 89.0935 27.1611 89.4561L26.9775 89.5737H29.4245C29.5034 89.5737 29.5863 89.5737 29.6731 89.5737C29.7599 89.5737 29.8428 89.5737 29.9218 89.5737H31.9681L31.9563 89.3208Z" fill="#E5E5E5"/>
<path opacity="0.5" d="M29.6732 74.2643C28.4063 74.2643 27.7452 74.6837 27.1611 75.0483C26.6145 75.3972 26.1409 75.699 25.1385 75.699C24.136 75.699 23.6644 75.3972 23.1178 75.0483C22.5258 74.6778 21.8726 74.2643 20.6057 74.2643C20.191 74.2593 19.7776 74.3135 19.3783 74.425C19.3665 74.7268 19.3546 75.0502 19.3408 75.3932C19.7418 75.2302 20.1726 75.1521 20.6057 75.1639C21.6062 75.1639 22.0798 75.4658 22.6284 75.8127C23.2204 76.1851 23.8736 76.5967 25.1385 76.5967C26.4034 76.5967 27.0664 76.1772 27.6505 75.8127C28.1991 75.4658 28.6727 75.1639 29.6732 75.1639C30.6737 75.1639 31.1473 75.4658 31.6959 75.8127C32.2879 76.1851 32.941 76.5967 34.2059 76.5967C34.419 76.5976 34.632 76.5845 34.8433 76.5575L34.575 75.6814C34.4605 75.6912 34.3382 75.697 34.2059 75.697C33.2055 75.697 32.7319 75.3952 32.1833 75.0463C31.6011 74.6759 30.9381 74.2643 29.6732 74.2643Z" fill="#E5E5E5"/>
<path opacity="0.5" d="M22.6284 87.3415C23.2204 87.7119 23.8736 88.1255 25.1385 88.1255C26.4034 88.1255 27.0664 87.7041 27.6505 87.3415C28.1991 86.9926 28.6727 86.6907 29.6732 86.6907C30.6737 86.6907 31.1473 86.9926 31.6958 87.3415L31.9425 87.4963L31.9327 86.4261C31.2618 85.9917 30.4738 85.7702 29.6732 85.7911C28.4063 85.7911 27.7452 86.2125 27.1611 86.5751C26.6145 86.924 26.1409 87.2238 25.1385 87.2238C24.136 87.2238 23.6644 86.924 23.1178 86.5751C22.5258 86.2047 21.8726 85.7911 20.6057 85.7911C20.0529 85.7805 19.5036 85.8819 18.9915 86.089C18.9797 86.4497 18.9698 86.7907 18.96 87.1102C19.4566 86.8164 20.028 86.6707 20.6057 86.6907C21.6062 86.6907 22.0798 86.9926 22.6284 87.3415Z" fill="#E5E5E5"/>
<path opacity="0.5" d="M32.1829 77.9373C31.5909 77.5668 30.9377 77.1533 29.6728 77.1533C28.4079 77.1533 27.7449 77.5747 27.1607 77.9373C26.6141 78.2861 26.1405 78.586 25.1381 78.586C24.1356 78.586 23.664 78.2861 23.1174 77.9373C22.5254 77.5668 21.8722 77.1533 20.6053 77.1533C20.1523 77.147 19.7012 77.2132 19.2694 77.3493C19.2575 77.6687 19.2477 77.9961 19.2358 78.3293C19.6648 78.1335 20.1335 78.0389 20.6053 78.0529C21.6058 78.0529 22.0794 78.3547 22.628 78.7036C23.22 79.074 23.8732 79.4876 25.1381 79.4876C26.403 79.4876 27.066 79.0662 27.6501 78.7036C28.1987 78.3547 28.6723 78.0529 29.6728 78.0529C30.6733 78.0529 31.1469 78.3547 31.6955 78.7036C32.2875 79.074 32.9406 79.4876 34.2055 79.4876C34.7043 79.4963 35.2005 79.4146 35.6698 79.2465L35.4034 78.3861C35.0203 78.5266 34.6137 78.5931 34.2055 78.5821C33.2051 78.5958 32.7315 78.2861 32.1829 77.9373Z" fill="#E5E5E5"/>
<path opacity="0.5" d="M22.6285 81.577C23.2205 81.9475 23.8737 82.361 25.1386 82.361C26.4035 82.361 27.0665 81.9396 27.6506 81.577C28.1992 81.2282 28.6728 80.9283 29.6733 80.9283C30.6738 80.9283 31.1474 81.2282 31.696 81.577C32.288 81.9475 32.9411 82.361 34.206 82.361C34.9963 82.3815 35.7745 82.1657 36.4399 81.7417L36.1656 80.8519C35.5988 81.2655 34.9091 81.4794 34.206 81.4594C33.2056 81.4594 32.732 81.1596 32.1834 80.8107C31.5914 80.4403 30.9382 80.0267 29.6733 80.0267C28.4084 80.0267 27.7454 80.4481 27.1612 80.8107C26.6146 81.1596 26.141 81.4594 25.1386 81.4594C24.1361 81.4594 23.6645 81.1596 23.1179 80.8107C22.5259 80.4403 21.8727 80.0267 20.6058 80.0267C20.1178 80.0196 19.6323 80.0972 19.1712 80.256C19.1614 80.5873 19.1515 80.9185 19.1396 81.2497C19.5935 81.0221 20.0977 80.9115 20.6058 80.9283C21.6063 80.9283 22.0799 81.2282 22.6285 81.577Z" fill="#E5E5E5"/>
<path opacity="0.5" d="M22.628 84.4581C23.22 84.8305 23.8731 85.2421 25.138 85.2421C26.403 85.2421 27.066 84.8226 27.6501 84.4581C28.1987 84.1111 28.6723 83.8093 29.6728 83.8093C30.6732 83.8093 31.1468 84.1111 31.6954 84.4581L31.9184 84.5992V84.3405L32.3131 83.7819L32.1828 83.7015C31.4551 83.1743 30.5733 82.8989 29.6728 82.9175C28.4059 82.9175 27.7448 83.3369 27.1607 83.7015C26.6141 84.0484 26.1405 84.3503 25.138 84.3503C24.1356 84.3503 23.664 84.0484 23.1174 83.7015C22.5254 83.3291 21.8722 82.9175 20.6053 82.9175C20.0846 82.9078 19.5669 82.9969 19.0799 83.1802C19.0681 83.5212 19.0582 83.8583 19.0483 84.1856C19.5247 83.9264 20.0624 83.7991 20.6053 83.8172C21.6058 83.8093 22.0794 84.1111 22.628 84.4581Z" fill="#E5E5E5"/>
<path opacity="0.5" d="M36.9641 83.4486L36.9168 83.3016C36.6799 83.4192 36.45 83.5501 36.2281 83.6936C35.6795 84.0406 35.2079 84.3424 34.2054 84.3424C33.7687 84.3544 33.3344 84.2749 32.9307 84.1092L33.3924 85.0891L36.9641 83.4486Z" fill="#E5E5E5"/>
</g>
<path d="M25.1935 68.1234C25.1935 68.1234 19.6524 71.0517 19.4984 72.214C19.3445 73.3762 18.8887 89.5815 18.8887 89.5815H31.9679L31.9265 84.3405L32.5994 83.3938L33.4025 85.101L36.9743 83.4487L33.5111 72.2022C33.3919 71.8034 33.1383 71.4573 32.7928 71.2222C31.6719 70.4519 29.1145 68.7369 28.408 68.5801C27.4825 68.3743 25.1935 68.1234 25.1935 68.1234Z" stroke="#263238" stroke-linecap="round" stroke-linejoin="round"/>
<path d="M23.6855 76.5867L24.0723 76.0399" stroke="#263238" stroke-linecap="round" stroke-linejoin="round"/>
<path d="M22.1211 78.7938L23.2972 77.1337" stroke="#263238" stroke-linecap="round" stroke-linejoin="round"/>
<path d="M20.9175 70.799C20.9175 70.799 18.9856 71.8593 18.9442 72.416C18.9027 72.9726 15.333 85.3951 15.6902 86.3555C16.0473 87.3159 17.7247 87.4668 17.7247 87.4668C17.7247 87.4668 19.3033 84.8914 20.1637 84.4367C20.5408 84.2253 20.9317 84.0393 21.3339 83.88L23.1651 75.2443" fill="#E5E5E5"/>
<path d="M18.9436 72.4159C18.9436 72.459 18.914 72.5766 18.8706 72.755C19.3886 72.4264 19.9948 72.2617 20.6091 72.2826C21.0035 72.273 21.3963 72.3362 21.7675 72.4688L21.2386 71.4202C21.0298 71.3943 20.8196 71.3812 20.6091 71.381C20.3747 71.3811 20.1407 71.3975 19.9086 71.43C19.431 71.7593 18.9634 72.1454 18.9436 72.4159Z" fill="#41BF47"/>
<path d="M18.0952 80.8184C17.6557 81.1413 17.1437 81.3532 16.6034 81.4357C16.5244 81.7493 16.4495 82.059 16.3784 82.3589C17.1738 82.3134 17.939 82.0413 18.5826 81.5749C19.1312 81.226 19.6048 80.9262 20.6053 80.9262C21.0504 80.914 21.4931 80.9962 21.9038 81.1672L22.1011 80.2735C21.6248 80.1002 21.1204 80.0158 20.6132 80.0246C19.3384 80.0265 18.6774 80.4479 18.0952 80.8184Z" fill="#41BF47"/>
<path d="M20.6053 82.9077C19.7047 82.8891 18.8229 83.1645 18.0952 83.6917C17.5466 84.0386 17.073 84.3405 16.0725 84.3405H15.9304C15.8633 84.6717 15.8061 84.9716 15.7627 85.2342C15.8614 85.2342 15.96 85.244 16.0725 85.244C16.973 85.2627 17.8549 84.9872 18.5826 84.46C19.1312 84.1131 19.6048 83.8113 20.6053 83.8113C20.8489 83.8093 21.0921 83.831 21.3314 83.876L21.5169 82.9959C21.2167 82.9366 20.9113 82.9071 20.6053 82.9077Z" fill="#41BF47"/>
<path d="M18.0954 77.9371C17.8719 78.0847 17.6377 78.2157 17.3949 78.3291C17.3041 78.6728 17.214 79.019 17.1245 79.3679C17.6474 79.231 18.1414 79.002 18.5828 78.6917C19.1314 78.3428 19.605 78.041 20.6055 78.041C21.2632 78.021 21.9102 78.2098 22.4525 78.58L22.6498 77.649C22.0273 77.2989 21.3207 77.1234 20.6055 77.1414C19.3386 77.1453 18.6775 77.5667 18.0954 77.9371Z" fill="#41BF47"/>
<path d="M18.2969 74.9266C18.1943 75.3186 18.0818 75.7361 17.9634 76.1791C18.1903 76.0615 18.3916 75.936 18.583 75.8125C19.1316 75.4656 19.6052 75.1638 20.6057 75.1638C21.6062 75.1638 22.0798 75.4656 22.6283 75.8125C22.7448 75.887 22.8651 75.9635 22.9914 76.0379L23.1611 75.2441L23.0408 75.007C22.3305 74.5059 21.4767 74.2454 20.6057 74.2641C19.7858 74.2441 18.9796 74.4754 18.2969 74.9266Z" fill="#41BF47"/>
<path d="M18.4423 86.3673C18.32 86.4379 18.2055 86.5123 18.095 86.5829C17.6644 86.8997 17.1637 87.1093 16.6348 87.1944C16.9828 87.3327 17.3478 87.4243 17.7201 87.4669C17.7201 87.4669 18.026 86.9651 18.4423 86.3673Z" fill="#41BF47"/>
<g opacity="0.5">
<path opacity="0.5" d="M18.9436 72.4159C18.9436 72.459 18.914 72.5766 18.8706 72.755C19.3886 72.4264 19.9948 72.2617 20.6091 72.2826C21.0035 72.273 21.3963 72.3362 21.7675 72.4688L21.2386 71.4202C21.0298 71.3943 20.8196 71.3812 20.6091 71.381C20.3747 71.3811 20.1407 71.3975 19.9086 71.43C19.431 71.7593 18.9634 72.1454 18.9436 72.4159Z" fill="#E5E5E5"/>
<path opacity="0.5" d="M18.0952 80.8185C17.6557 81.1414 17.1437 81.3533 16.6034 81.4359C16.5244 81.7494 16.4495 82.0591 16.3784 82.359C17.1738 82.3135 17.939 82.0414 18.5826 81.575C19.1312 81.2261 19.6048 80.9263 20.6053 80.9263C21.0504 80.9141 21.4931 80.9963 21.9038 81.1673L22.1011 80.2736C21.6248 80.1003 21.1204 80.0159 20.6132 80.0247C19.3384 80.0266 18.6774 80.448 18.0952 80.8185Z" fill="#E5E5E5"/>
<path opacity="0.5" d="M20.6053 82.9077C19.7047 82.8891 18.8229 83.1645 18.0952 83.6917C17.5466 84.0386 17.073 84.3405 16.0725 84.3405H15.9304C15.8633 84.6717 15.8061 84.9716 15.7627 85.2342C15.8614 85.2342 15.96 85.244 16.0725 85.244C16.973 85.2627 17.8549 84.9872 18.5826 84.46C19.1312 84.1131 19.6048 83.8113 20.6053 83.8113C20.8489 83.8093 21.0921 83.831 21.3314 83.876L21.5169 82.9959C21.2167 82.9366 20.9113 82.9071 20.6053 82.9077Z" fill="#E5E5E5"/>
<path opacity="0.5" d="M18.0954 77.9371C17.8719 78.0847 17.6377 78.2157 17.3949 78.3291C17.3041 78.6728 17.214 79.019 17.1245 79.3679C17.6474 79.231 18.1414 79.002 18.5828 78.6917C19.1314 78.3428 19.605 78.041 20.6055 78.041C21.2632 78.021 21.9102 78.2098 22.4525 78.58L22.6498 77.649C22.0273 77.2989 21.3207 77.1234 20.6055 77.1414C19.3386 77.1453 18.6775 77.5667 18.0954 77.9371Z" fill="#E5E5E5"/>
<path opacity="0.5" d="M18.2964 74.9267C18.1938 75.3187 18.0813 75.7362 17.9629 76.1792C18.1898 76.0616 18.3911 75.9361 18.5825 75.8126C19.1311 75.4657 19.6047 75.1639 20.6052 75.1639C21.6057 75.1639 22.0793 75.4657 22.6279 75.8126C22.7443 75.8871 22.8647 75.9636 22.9909 76.038L23.1607 75.2442L23.0403 75.0071C22.33 74.506 21.4762 74.2455 20.6052 74.2642C19.7853 74.2441 18.9792 74.4755 18.2964 74.9267Z" fill="#E5E5E5"/>
<path opacity="0.5" d="M18.4423 86.3673C18.32 86.4379 18.2055 86.5123 18.095 86.5829C17.6644 86.8997 17.1637 87.1093 16.6348 87.1944C16.9828 87.3327 17.3478 87.4243 17.7201 87.4669C17.7201 87.4669 18.026 86.9651 18.4423 86.3673Z" fill="#E5E5E5"/>
</g>
<path d="M20.9175 70.799C20.9175 70.799 18.9856 71.8593 18.9442 72.416C18.9027 72.9726 15.333 85.3951 15.6902 86.3555C16.0473 87.3159 17.7247 87.4668 17.7247 87.4668C17.7247 87.4668 19.3033 84.8914 20.1637 84.4367C20.5408 84.2253 20.9317 84.0393 21.3339 83.88L23.1651 75.2443" stroke="#263238" stroke-linecap="round" stroke-linejoin="round"/>
<path d="M33.2188 87.2728C33.5775 87.416 33.9575 87.5001 34.3435 87.5217C34.9355 87.5452 35.5887 87.361 35.2868 87.7569C34.9849 88.1528 34.2133 88.2273 33.7338 88.2018C33.2543 88.1763 33.2188 87.2728 33.2188 87.2728Z" fill="#E5E5E5" stroke="#263238" stroke-linecap="round" stroke-linejoin="round"/>
<path d="M22.2983 84.7894L22.2135 84.6874C21.9089 84.3233 21.5413 84.016 21.1281 83.78C20.5184 83.4762 18.6871 83.4252 17.1104 85.2441C15.5337 87.063 16.3487 87.9704 17.6196 88.2742C18.8904 88.578 23.6698 88.8309 24.84 89.0328C26.0102 89.2346 28.5893 89.5953 29.3964 89.2405C29.8686 89.0407 30.3046 88.7653 30.687 88.4252C30.687 88.4252 30.9415 89.2346 31.2987 89.2346C31.6559 89.2346 31.6026 88.9308 31.6026 88.9308C31.6026 88.9308 31.7999 89.1268 31.9598 89.1268C32.0889 89.1065 32.211 89.0547 32.315 88.9759C32.3939 89.0344 32.4854 89.0739 32.5823 89.0913C32.6793 89.1086 32.7789 89.1033 32.8734 89.0759C33.1793 88.9759 33.1793 88.825 33.1793 88.825C33.1793 88.825 33.5345 89.1268 33.6884 88.825C33.8423 88.5232 33.5858 87.5118 33.4911 86.8042C33.3964 86.0967 32.8793 86.0967 32.8793 86.0967L32.7235 85.9869C32.6451 85.931 32.5555 85.8926 32.4608 85.8744C32.3661 85.8561 32.2686 85.8584 32.1749 85.8811L31.9144 85.9458C31.9144 85.9458 31.4053 85.8438 31.1507 85.9458C30.8961 86.0477 28.761 87.3178 28.4571 87.4608C28.1532 87.6039 27.3382 87.4608 26.4226 87.1061C25.507 86.7513 22.7542 85.5479 22.2983 84.7894Z" fill="#E5E5E5" stroke="#263238" stroke-linecap="round" stroke-linejoin="round"/>
<path d="M30.685 88.4252L30.5252 87.7137C30.5252 87.7137 30.0082 88.6427 29.4023 88.8231" stroke="#263238" stroke-linecap="round" stroke-linejoin="round"/>
<path d="M18.5332 86.6572C19.6521 85.1422 22.2983 84.7894 22.2983 84.7894L22.2135 84.6874C21.9089 84.3233 21.5413 84.016 21.1281 83.78C20.5184 83.4762 18.6871 83.4252 17.1104 85.2441C15.5337 87.063 16.3487 87.9704 17.6196 88.2742C17.7636 88.3095 17.955 88.3428 18.18 88.3762C18.032 87.9234 18.0359 87.3315 18.5332 86.6572Z" fill="#E5E5E5" stroke="#263238" stroke-linecap="round" stroke-linejoin="round"/>
<path d="M31.6009 88.9308C31.6009 88.9308 31.5002 86.861 31.1431 86.4063" stroke="#263238" stroke-linecap="round" stroke-linejoin="round"/>
<path d="M32.3131 88.9836C32.3131 88.9836 32.465 87.1648 32.1157 86.3063" stroke="#263238" stroke-linecap="round" stroke-linejoin="round"/>
<path d="M33.1773 88.8309C33.2041 88.0847 33.1378 87.3382 32.98 86.6082" stroke="#263238" stroke-linecap="round" stroke-linejoin="round"/>
<path d="M32.8695 77.1573C32.8695 77.1573 33.5997 79.3838 33.6589 80.8323C33.7181 82.2807 32.5933 83.394 32.5933 83.394" stroke="#263238" stroke-linecap="round" stroke-linejoin="round"/>
<path d="M48.9937 86.8278C48.9937 86.8278 49.5521 86.6475 49.783 86.8944C50.0138 87.1414 50.4164 88.7309 50.2487 88.9132C50.0809 89.0955 49.8205 88.9132 49.6902 88.5643C49.56 88.2155 48.9937 86.8278 48.9937 86.8278Z" fill="#E5E5E5" stroke="#263238" stroke-linecap="round" stroke-linejoin="round"/>
<path d="M48.3467 86.7826C48.3467 86.7826 48.9387 86.5651 49.1755 86.8611C49.4123 87.157 49.8484 89.0406 49.6708 89.2562C49.4932 89.4718 49.2169 89.2562 49.0788 88.8446C48.9407 88.433 48.3467 86.7826 48.3467 86.7826Z" fill="#E5E5E5" stroke="#263238" stroke-linecap="round" stroke-linejoin="round"/>
<path d="M48.6563 87.953L46.091 89.033L44.8813 88.1333C44.8813 88.1333 46.8547 88.0118 47.5118 87.8629C47.8932 87.7708 48.2943 87.8024 48.6563 87.953Z" fill="#E5E5E5" stroke="#263238" stroke-linecap="round" stroke-linejoin="round"/>
<path d="M47.4268 86.7123C47.4268 86.7123 48.1095 86.4202 48.4134 86.7123C48.7173 87.0043 49.4001 89.0094 49.2028 89.2602C49.0054 89.5111 48.664 89.3034 48.4647 88.8683C48.2654 88.4331 47.4268 86.7123 47.4268 86.7123Z" fill="#E5E5E5" stroke="#263238" stroke-linecap="round" stroke-linejoin="round"/>
<path d="M37.6907 84.3209L43.8652 87.5706C43.8652 87.5706 47.0048 86.5122 47.2298 86.5122C47.4547 86.5122 47.9717 87.3119 47.9717 87.3119C47.9717 87.3119 49.3037 89.2405 48.7986 89.3523C48.2934 89.464 48.1197 89.4934 47.9579 89.0739C47.5968 88.137 47.0048 88.0724 47.0048 88.0724L45.6097 88.3723C45.9647 88.6891 46.3829 88.9282 46.8371 89.0739C47.5652 89.2974 47.06 89.6325 46.9495 89.6306C45.9956 89.6221 45.0431 89.5527 44.0981 89.4228C43.6296 89.3266 43.1802 89.1544 42.7681 88.9132C42.7681 88.9132 38.7188 88.582 37.1381 88.2939C35.6996 88.0332 34.3913 86.7258 34.4465 86.3456C34.5018 85.9654 37.0197 84.6718 37.0197 84.6718L37.6907 84.3209Z" fill="#E5E5E5" stroke="#263238" stroke-linecap="round" stroke-linejoin="round"/>
<path d="M38.0278 84.0624C38.0278 84.0624 37.5246 83.004 36.7392 83.004C35.9538 83.004 33.2622 84.8425 33.2069 85.2874C33.1517 85.7323 34.8211 87.5159 34.9632 87.022C35.0895 86.5868 36.3958 83.8997 38.4698 84.6798C39.6479 85.1227 38.0278 84.0624 38.0278 84.0624Z" fill="#E5E5E5" stroke="#263238" stroke-linecap="round" stroke-linejoin="round"/>
<path d="M26.8628 63.6782C26.8628 63.6782 26.5056 66.3046 26.405 67.163C26.3043 68.0215 24.7336 69.468 25.0394 70.5284C25.3453 71.5887 29.1223 74.4248 29.4775 74.0701C29.8327 73.7153 29.9136 69.0819 30.1681 68.7781C30.4227 68.4743 30.8785 67.8686 30.8785 67.8686L26.8628 63.6782Z" fill="#E5E5E5" stroke="#263238" stroke-linecap="round" stroke-linejoin="round"/>
<path d="M26.837 63.9194C26.768 64.4349 26.6022 65.6638 26.4917 66.5223L30.3831 67.8943L30.0693 67.0279L27.2159 64.0507L26.837 63.9194Z" fill="#263238" stroke="#263238" stroke-linecap="round" stroke-linejoin="round"/>
<path d="M30.1679 68.7802C29.726 69.5647 29.4381 70.4253 29.3193 71.3164" stroke="#263238" stroke-linecap="round" stroke-linejoin="round"/>
<path d="M35.6796 60.5167C35.6796 60.5167 35.7033 60.5697 35.7388 60.6637C35.8987 61.0793 36.3111 62.2944 36.0881 63.245C35.8158 64.4112 34.464 64.5445 34.397 64.7464C34.3299 64.9483 34.2608 61.7927 34.7344 61.0538" fill="#263238"/>
<path d="M35.6796 60.5167C35.6796 60.5167 35.7033 60.5697 35.7388 60.6637C35.8987 61.0793 36.3111 62.2944 36.0881 63.245C35.8158 64.4112 34.464 64.5445 34.397 64.7464C34.3299 64.9483 34.2608 61.7927 34.7344 61.0538" stroke="#263238" stroke-linecap="round" stroke-linejoin="round"/>
<path d="M33.7754 66.2479C33.7754 66.2479 34.1701 66.5811 34.3339 68.1923C34.4977 69.8034 33.215 70.3032 33.215 70.3032C33.215 70.3032 34.2786 71.0245 33.7182 71.5243C33.1578 72.0241 30.922 71.5243 30.1958 70.6364C29.4696 69.7485 30.4543 67.8159 30.4543 67.8159L33.7754 66.2479Z" fill="#263238" stroke="#263238" stroke-linecap="round" stroke-linejoin="round"/>
<path d="M26.3516 61.444C25.1163 61.444 25.4241 62.9768 25.8109 63.7431C26.1976 64.5095 26.6594 64.6624 26.6594 64.6624C26.6594 64.6624 29.0531 67.7984 29.9016 68.2648C30.7501 68.7313 31.2139 69.0332 31.8295 68.7254C32.4452 68.4177 34.3001 66.1186 34.608 64.8936C34.7918 64.2177 34.899 63.5235 34.9277 62.8239C34.9277 62.8239 35.7959 61.6067 35.9735 60.9403C36.1499 60.3405 36.2285 59.7165 36.2064 59.092C36.2064 59.092 32.0624 57.3809 31.0757 57.6122C30.0891 57.8435 27.5849 61.444 26.3516 61.444Z" fill="#E5E5E5" stroke="#263238" stroke-linecap="round" stroke-linejoin="round"/>
<path d="M34.1069 62.169C34.2657 62.1388 34.429 62.142 34.5864 62.1785C34.7438 62.215 34.8917 62.2838 35.0206 62.3807" stroke="#263238" stroke-linecap="round" stroke-linejoin="round"/>
<path d="M31.7824 62.7982C31.7094 63.0707 31.5219 63.2569 31.3621 63.2137C31.2022 63.1706 31.1292 62.9178 31.2022 62.6453C31.2752 62.3729 31.4627 62.1867 31.6245 62.2298C31.7863 62.2729 31.8554 62.5238 31.7824 62.7982Z" fill="#263238"/>
<path d="M34.553 63.5449C34.48 63.8174 34.2926 64.0036 34.1308 63.9605C33.9689 63.9173 33.8999 63.6645 33.9729 63.3921C34.0459 63.1196 34.2334 62.9354 34.3932 62.9765C34.553 63.0177 34.6261 63.2725 34.553 63.5449Z" fill="#263238"/>
<path d="M31.0781 61.4457C31.0781 61.4457 31.8418 60.94 32.9607 61.5966" stroke="#263238" stroke-linecap="round" stroke-linejoin="round"/>
<path d="M32.7332 66.3498C32.7332 66.3498 31.7466 66.4321 31.1763 65.699" stroke="#263238" stroke-linecap="round" stroke-linejoin="round"/>
<path d="M33.1619 62.2003C33.1619 62.2003 31.5319 61.5005 30.8275 61.5868C30.123 61.673 29.6435 63.5468 30.8709 63.9937C32.0983 64.4406 32.8087 63.2508 33.1619 62.2003Z" stroke="#263238" stroke-linecap="round" stroke-linejoin="round"/>
<path d="M33.8147 62.4572C33.8147 62.4572 35.3637 62.6669 35.8255 63.0726C36.2872 63.4783 35.6282 65.2169 34.5073 64.9836C33.3865 64.7504 33.5068 63.4666 33.8147 62.4572Z" stroke="#263238" stroke-linecap="round" stroke-linejoin="round"/>
<path d="M33.1616 62.2004C33.2839 62.1733 33.4117 62.1855 33.5266 62.2352C33.6415 62.2848 33.7376 62.3694 33.801 62.4768" stroke="#263238" stroke-linecap="round" stroke-linejoin="round"/>
<path d="M33.0293 62.8569C33.1272 62.821 33.2335 62.8142 33.3352 62.8376C33.4369 62.8609 33.5295 62.9133 33.6016 62.9883" stroke="#263238" stroke-linecap="round" stroke-linejoin="round"/>
<path d="M32.3247 65.1305L33.558 65.0011C33.558 65.0011 33.4258 64.7385 33.558 63.5997" stroke="#263238" stroke-linecap="round" stroke-linejoin="round"/>
<path d="M33.44 59.9503C33.44 59.9503 32.7632 59.5407 32.6507 59.7034C32.1317 60.4188 30.6162 62.7061 28.6211 62.4062C25.083 61.8731 28.0587 65.9734 27.4845 68.2529C26.9103 70.5324 24.4949 71.5849 22.636 71.1537C20.5048 70.6656 19.8852 71.4398 19.8852 71.4398C19.8852 71.4398 17.9711 69.8816 18.5493 68.0902C19.1274 66.2988 21.008 66.1302 21.0909 65.648C21.1738 65.1659 19.0406 65.4854 19.3682 62.9609C19.6958 60.4364 23.303 58.3196 24.3686 58.3196C25.4342 58.3196 24.2048 57.7492 26.1722 55.5501C28.1397 53.351 33.961 54.3291 36.0113 55.7951C38.0616 57.2612 38.3891 60.2169 36.8322 60.5442C35.2752 60.8715 33.44 59.9503 33.44 59.9503Z" fill="#263238" stroke="#263238" stroke-linecap="round" stroke-linejoin="round"/>
<path d="M28.021 62.7415C28.021 62.7415 27.2751 60.5678 26.4759 61.1402C25.6767 61.7125 25.7853 63.6549 25.9984 63.8842C26.2115 64.1135 26.9554 64.3409 27.435 64.1115" fill="#E5E5E5"/>
<path d="M28.021 62.7415C28.021 62.7415 27.2751 60.5678 26.4759 61.1402C25.6767 61.7125 25.7853 63.6549 25.9984 63.8842C26.2115 64.1135 26.9554 64.3409 27.435 64.1115" stroke="#263238" stroke-linecap="round" stroke-linejoin="round"/>
<path d="M32.8363 89.6093H56.7866V88.9802H32.8363V89.6093Z" fill="#263238" stroke="#263238" stroke-linecap="round" stroke-linejoin="round"/>
<path d="M32.8345 89.6093H42.4189V88.9802H32.8345V89.6093Z" fill="#41BF47" stroke="#263238" stroke-linecap="round" stroke-linejoin="round"/>
<path d="M43.948 77.7768L42.1582 88.9802H56.532L58.3218 77.7768H43.948Z" fill="#41BF47" stroke="#263238" stroke-linecap="round" stroke-linejoin="round"/>
<path d="M44.2244 77.7768L42.4346 88.9802H56.8083L58.5962 77.7768H44.2244Z" fill="#41BF47" stroke="#263238" stroke-linecap="round" stroke-linejoin="round"/>
<path d="M47.8043 79.9916H45.0732L45.1956 79.239H47.9267L47.8043 79.9916Z" fill="#263238" stroke="#263238" stroke-linecap="round" stroke-linejoin="round"/>
<path d="M73.9998 89.6092H8.7002" stroke="#263238" stroke-linecap="round" stroke-linejoin="round"/>
<path d="M94.7634 40.872H73.9486C73.4277 40.872 73.0054 41.2914 73.0054 41.8089V46.6167C73.0054 47.1342 73.4277 47.5536 73.9486 47.5536H94.7634C95.2843 47.5536 95.7066 47.1342 95.7066 46.6167V41.8089C95.7066 41.2914 95.2843 40.872 94.7634 40.872Z" fill="#E5E5E5" stroke="#263238" stroke-linecap="round" stroke-linejoin="round"/>
<path d="M34.1448 40.6818C42.5344 40.6818 49.3355 33.9266 49.3355 25.5937C49.3355 17.2608 42.5344 10.5056 34.1448 10.5056C25.7552 10.5056 18.9541 17.2608 18.9541 25.5937C18.9541 33.9266 25.7552 40.6818 34.1448 40.6818Z" fill="#272727"/>
<path d="M28.8483 15.1292C29.5803 15.1367 30.2875 15.394 30.8512 15.8579C31.415 16.3219 31.8009 16.9642 31.9444 17.6772C32.0796 18.387 31.9622 19.1213 31.6123 19.7546C31.2624 20.3878 30.7017 20.8805 30.0263 21.1484C29.9837 21.1582 29.9466 21.1843 29.923 21.2209C29.8994 21.2575 29.8912 21.3018 29.9001 21.3444C29.9001 24.159 29.9001 26.9742 29.9001 29.79C29.8944 29.8334 29.9049 29.8773 29.9296 29.9134C29.9544 29.9495 29.9916 29.9754 30.0342 29.986C30.6299 30.2216 31.1385 30.633 31.4913 31.1647C31.8442 31.6964 32.0244 32.3228 32.0076 32.9594C31.9818 33.7362 31.6655 34.4756 31.1206 35.0333C30.5756 35.5911 29.841 35.9273 29.0601 35.9762C28.2791 36.0252 27.5078 35.7834 26.8966 35.2981C26.2853 34.8128 25.878 34.1188 25.7541 33.3514C25.6448 32.6535 25.7774 31.9394 26.1302 31.3262C26.483 30.713 27.035 30.237 27.6958 29.9762C27.7345 29.9665 27.7682 29.9429 27.7904 29.91C27.8126 29.877 27.8218 29.8371 27.8162 29.7979C27.8162 26.9781 27.8162 24.159 27.8162 21.3405C27.824 21.2977 27.8151 21.2536 27.7912 21.2172C27.7674 21.1808 27.7304 21.1548 27.6879 21.1445C27.0552 20.8936 26.522 20.4445 26.1694 19.8655C25.8167 19.2864 25.6639 18.6089 25.7339 17.9357C25.804 17.2626 26.0932 16.6305 26.5577 16.1353C27.0221 15.6402 27.6365 15.309 28.3076 15.192C28.4812 15.1606 28.6647 15.1488 28.8483 15.1292ZM29.902 32.8516C29.9028 32.6457 29.8421 32.4443 29.7276 32.2727C29.6131 32.1011 29.45 31.9671 29.2588 31.8876C29.0677 31.8081 28.8571 31.7867 28.6536 31.8261C28.4502 31.8655 28.2631 31.964 28.1161 32.109C27.969 32.254 27.8685 32.439 27.8273 32.6408C27.7861 32.8425 27.806 33.0518 27.8846 33.2423C27.9632 33.4328 28.0969 33.5958 28.2688 33.7108C28.4406 33.8258 28.643 33.8876 28.8502 33.8884C28.9883 33.8905 29.1253 33.8652 29.2534 33.8139C29.3814 33.7626 29.4979 33.6865 29.5959 33.5899C29.6938 33.4933 29.7714 33.3782 29.824 33.2514C29.8766 33.1246 29.9031 32.9887 29.902 32.8516ZM28.8562 17.2264C28.6488 17.2261 28.4461 17.2868 28.2735 17.4009C28.1009 17.515 27.9663 17.6774 27.8867 17.8676C27.8071 18.0577 27.786 18.267 27.8262 18.469C27.8665 18.6711 27.9661 18.8567 28.1126 19.0024C28.259 19.1482 28.4457 19.2475 28.649 19.2878C28.8524 19.3281 29.0631 19.3076 29.2547 19.2289C29.4463 19.1502 29.6101 19.0168 29.7253 18.8456C29.8405 18.6744 29.902 18.4731 29.902 18.2672C29.905 18.1299 29.88 17.9934 29.8285 17.8659C29.777 17.7385 29.7001 17.6227 29.6024 17.5254C29.5047 17.4282 29.3883 17.3516 29.26 17.3003C29.1318 17.2489 28.9944 17.2238 28.8562 17.2264Z" fill="#E5E5E5"/>
<path d="M36.2011 19.3139V21.3347L33.1069 18.2535L36.1952 15.1842V17.2245H36.3452C36.8247 17.2343 37.3082 17.2245 37.7837 17.2559C38.9237 17.3741 39.9935 17.8595 40.8297 18.6381C41.666 19.4167 42.2228 20.4456 42.4151 21.5679C42.4631 21.8766 42.4875 22.1885 42.4882 22.5009C42.4882 24.9208 42.4882 27.3382 42.4882 29.7529C42.482 29.7992 42.4928 29.8462 42.5185 29.8854C42.5441 29.9246 42.5831 29.9534 42.6283 29.9665C43.2233 30.2036 43.731 30.6161 44.0831 31.1483C44.4352 31.6806 44.6147 32.3071 44.5976 32.9438C44.5716 33.7164 44.2584 34.452 43.7182 35.0087C43.1781 35.5653 42.4496 35.9035 41.6732 35.9578C40.8968 36.0121 40.1276 35.7788 39.5143 35.3029C38.9009 34.827 38.4869 34.1422 38.3521 33.3808C38.2312 32.677 38.3579 31.9533 38.7107 31.3312C39.0636 30.7091 39.6212 30.2266 40.2899 29.9646C40.3268 29.9548 40.3588 29.9318 40.3796 29.8999C40.4004 29.868 40.4085 29.8296 40.4023 29.7921C40.4023 27.3597 40.4023 24.9273 40.4023 22.4969C40.4233 21.9076 40.2715 21.3249 39.9653 20.8197C39.6591 20.3145 39.2118 19.9085 38.6776 19.651C38.2522 19.4268 37.778 19.309 37.2963 19.308C36.9727 19.308 36.6491 19.308 36.3274 19.308L36.2011 19.3139ZM42.4901 32.8379C42.4882 32.6326 42.4251 32.4324 42.3089 32.2626C42.1927 32.0928 42.0285 31.9609 41.8369 31.8836C41.6454 31.8062 41.4352 31.7869 41.2326 31.828C41.0301 31.8691 40.8443 31.9688 40.6986 32.1145C40.553 32.2603 40.454 32.4456 40.4142 32.647C40.3743 32.8485 40.3953 33.0572 40.4746 33.2469C40.5539 33.4365 40.6879 33.5986 40.8597 33.7128C41.0316 33.8269 41.2336 33.8881 41.4403 33.8885C41.5787 33.8903 41.716 33.8646 41.8442 33.8129C41.9725 33.7611 42.0889 33.6844 42.1868 33.5872C42.2846 33.49 42.3619 33.3743 42.414 33.247C42.4661 33.1196 42.492 32.9832 42.4901 32.8457V32.8379Z" fill="#E5E5E5"/>
</svg>
