<svg width="264" height="120" viewBox="0 0 264 120" fill="none" xmlns="http://www.w3.org/2000/svg">
<path d="M276.844 57.6827C275.683 56.5573 274.545 55.4067 273.43 54.2307C267.734 48.1497 246.55 27.2227 217.588 18.4957C183.502 8.21582 148.997 12.7397 127.792 48.1075C106.586 83.4753 107.423 91.6874 72.5 94.9748C37.5774 98.2622 20.532 104.845 10.1384 134.862C-0.255176 164.879 26.7784 212.578 94.5331 201.475C162.288 190.372 177.682 177.628 208.026 187.085C238.371 196.542 276.63 201.889 292.425 176.395C307.969 151.312 314.258 93.9873 276.844 57.6827Z" fill="#A41A11"/>
<path d="M276.844 57.6827C275.683 56.5573 274.545 55.4067 273.43 54.2307C267.734 48.1497 246.55 27.2227 217.588 18.4957C183.502 8.21581 148.997 12.7397 127.792 48.1075C106.586 83.4753 107.423 91.6874 72.5 94.9748C37.5774 98.2622 20.532 104.845 10.1384 134.862C-0.255176 164.879 26.7784 212.578 94.5331 201.475C162.288 190.372 177.682 177.628 208.026 187.085C238.371 196.542 276.63 201.889 292.425 176.395C307.969 151.312 314.258 93.9873 276.844 57.6827Z" fill="#A41A11"/>
<path d="M311.737 111.015C309.143 110.99 306.438 114.763 305.708 116.923C305.644 117.113 304.996 120.16 305.043 120.156H305.098C304.671 120.746 304.211 121.388 303.728 122.097C302.845 123.413 301.86 124.907 300.9 126.608C299.841 128.428 298.892 130.307 298.058 132.238C297.111 134.394 296.362 136.629 295.818 138.918C295.818 138.943 295.818 138.973 295.818 138.998C295.758 138.251 295.519 136.162 295.481 136.002C294.96 133.774 292.631 129.76 290.045 129.545C289.615 129.521 289.185 129.587 288.782 129.738C288.379 129.889 288.013 130.122 287.707 130.422C287.401 130.722 287.163 131.082 287.007 131.479C286.851 131.876 286.781 132.302 286.803 132.727C286.832 134.537 288.33 136.209 289.725 137.217C291.3 138.357 295.438 139.205 295.771 139.272C295.273 141.613 294.936 143.985 294.76 146.37C294.649 147.759 294.581 149.164 294.529 150.569C294.457 149.924 294.384 149.345 294.367 149.265C293.847 147.037 291.517 143.024 288.932 142.809C288.502 142.784 288.071 142.85 287.668 143.001C287.266 143.152 286.899 143.385 286.594 143.685C286.288 143.985 286.049 144.346 285.893 144.743C285.738 145.14 285.668 145.565 285.689 145.991C285.719 147.801 287.212 149.472 288.612 150.481C290.011 151.489 293.544 152.299 294.478 152.498C294.478 153.038 294.444 153.574 294.431 154.114C294.376 156.709 294.333 159.296 294.209 161.828C294.167 162.723 294.09 163.601 294.022 164.483C293.953 163.909 293.894 163.423 293.877 163.352C293.356 161.119 291.027 157.11 288.441 156.891C286.581 156.735 285.173 158.304 285.198 160.077C285.224 161.849 286.726 163.554 288.121 164.567C289.516 165.58 292.712 166.306 293.817 166.546C293.719 167.445 293.616 168.344 293.48 169.209C293.369 169.8 293.309 170.374 293.164 170.96C293.019 171.547 292.912 172.117 292.784 172.69C292.503 173.779 292.217 174.91 291.931 175.965C291.722 176.704 291.504 177.404 291.304 178.109C291.359 177.218 291.423 175.476 291.415 175.332C291.193 173.332 290.459 171.42 289.281 169.779C289.266 169.555 289.229 169.333 289.171 169.116C289.075 168.7 288.893 168.309 288.634 167.968C288.376 167.627 288.048 167.343 287.672 167.135C287.296 166.928 286.88 166.801 286.451 166.762C286.021 166.724 285.589 166.775 285.181 166.913C282.753 167.812 281.601 172.294 281.708 174.581C281.708 174.716 281.947 176.176 282.135 177.092C281.956 176.569 281.789 176.054 281.597 175.518C281.226 174.454 280.825 173.408 280.398 172.264L279.716 170.627C279.498 170.078 279.199 169.521 278.943 168.939C278.316 167.673 277.621 166.382 276.891 165.111C277.834 164.791 281.158 163.596 282.438 162.423C283.718 161.25 284.998 159.419 284.789 157.621C284.758 157.196 284.638 156.782 284.435 156.405C284.232 156.029 283.952 155.7 283.612 155.438C283.272 155.176 282.88 154.988 282.461 154.885C282.043 154.783 281.608 154.769 281.183 154.844C278.623 155.372 276.818 159.63 276.575 161.908C276.575 162.048 276.575 163.702 276.575 164.609C276.127 163.854 275.688 163.094 275.214 162.339C273.84 160.165 272.381 158.009 270.948 155.853C270.51 155.189 270.073 154.526 269.638 153.865C269.975 153.751 273.964 152.418 275.385 151.105C276.665 149.936 277.945 148.1 277.736 146.299C277.706 145.873 277.585 145.46 277.382 145.084C277.179 144.708 276.899 144.378 276.559 144.117C276.219 143.855 275.827 143.667 275.408 143.565C274.99 143.464 274.554 143.45 274.131 143.526C271.592 144.049 269.766 148.307 269.523 150.586C269.523 150.759 269.523 153.118 269.557 153.743C268.597 152.283 267.654 150.818 266.783 149.337C265.595 147.344 264.54 145.276 263.626 143.146C263.784 143.096 267.952 141.724 269.407 140.378C270.687 139.209 271.967 137.373 271.758 135.571C271.729 135.146 271.609 134.733 271.406 134.357C271.204 133.981 270.924 133.651 270.584 133.389C270.244 133.128 269.852 132.94 269.434 132.838C269.016 132.736 268.581 132.723 268.157 132.799C265.619 133.322 263.792 137.58 263.545 139.859C263.545 140.007 263.545 141.821 263.571 142.682L263.425 142.716C262.562 140.548 261.896 138.308 261.437 136.023C261.164 134.757 260.981 133.558 260.823 132.373C261.629 132.195 265.29 131.347 266.736 130.263C268.183 129.178 269.595 127.553 269.608 125.743C269.625 125.317 269.551 124.892 269.391 124.496C269.232 124.1 268.989 123.742 268.68 123.445C268.371 123.148 268.002 122.919 267.597 122.773C267.192 122.626 266.761 122.565 266.331 122.595C263.771 122.84 261.463 126.874 260.968 129.111C260.938 129.233 260.801 130.499 260.716 131.423C260.656 130.887 260.584 130.334 260.533 129.819C260.345 127.891 260.294 126.11 260.26 124.536C260.26 123.637 260.26 122.827 260.26 122.067C260.955 121.489 263.737 119.113 264.505 117.535C265.273 115.957 265.785 113.826 264.932 112.218C264.078 110.61 262.124 109.909 260.558 110.914C258.382 112.311 258.229 116.932 258.83 119.143C258.886 119.337 260.046 122.232 260.08 122.202L260.123 122.169C260.093 122.899 260.072 123.679 260.063 124.536C260.063 126.114 260.063 127.912 260.221 129.845C260.356 131.938 260.612 134.022 260.989 136.086C261.404 138.401 262.027 140.675 262.849 142.88L262.879 142.956C262.414 142.366 261.049 140.758 260.929 140.644C259.248 139.065 255.067 136.993 252.793 138.221C252.42 138.435 252.097 138.725 251.845 139.07C251.593 139.416 251.418 139.81 251.33 140.227C251.242 140.645 251.244 141.076 251.336 141.492C251.428 141.908 251.607 142.301 251.863 142.644C252.9 144.138 255.076 144.716 256.804 144.796C258.753 144.889 262.679 143.336 262.99 143.21C263.884 145.433 264.926 147.596 266.109 149.683C266.792 150.903 267.517 152.109 268.243 153.312C267.816 152.814 267.44 152.371 267.389 152.316C265.708 150.738 261.527 148.666 259.253 149.894C257.61 150.776 257.311 152.848 258.323 154.317C259.334 155.785 261.535 156.384 263.263 156.469C264.991 156.553 268.383 155.291 269.279 154.95L270.133 156.321C271.532 158.515 272.94 160.697 274.25 162.879C274.715 163.647 275.142 164.419 275.573 165.192C275.197 164.748 274.877 164.381 274.822 164.348C273.145 162.769 268.964 160.697 266.685 161.925C266.313 162.14 265.99 162.429 265.739 162.775C265.487 163.121 265.312 163.515 265.225 163.932C265.137 164.349 265.14 164.78 265.232 165.196C265.324 165.613 265.504 166.005 265.759 166.348C266.792 167.842 268.972 168.42 270.696 168.5C272.42 168.58 275.496 167.445 276.554 167.04C276.981 167.846 277.407 168.652 277.757 169.449C277.996 169.998 278.265 170.513 278.47 171.078C278.674 171.644 278.896 172.184 279.118 172.728C279.494 173.796 279.882 174.893 280.219 175.94C280.462 176.666 280.676 177.366 280.893 178.05C280.441 177.278 279.528 175.788 279.434 175.674C278.017 173.864 274.203 171.188 271.754 172.062C271.355 172.218 270.993 172.455 270.692 172.758C270.391 173.061 270.158 173.423 270.008 173.821C269.857 174.219 269.793 174.643 269.819 175.067C269.845 175.491 269.96 175.905 270.158 176.282C270.952 177.911 273.017 178.814 274.715 179.147C276.58 179.518 280.543 178.628 281.038 178.514C281.397 179.679 281.734 180.814 282.032 181.89C282.813 184.663 283.419 187.11 283.876 189.089H285.629C285.113 187.034 284.417 184.447 283.496 181.468C283.137 180.286 282.728 179.029 282.301 177.746C283.461 177.15 284.585 176.488 285.668 175.763C287.127 177.05 290.677 178.375 291.133 178.544C290.783 179.708 290.433 180.839 290.084 181.898C289.162 184.726 288.275 187.161 287.524 189.072H289.328C289.985 187.207 290.749 184.937 291.534 182.32C291.893 181.139 292.255 179.869 292.614 178.565C293.109 178.615 297.162 179.029 298.971 178.438C300.614 177.898 302.555 176.75 303.144 175.062C303.296 174.663 303.362 174.238 303.337 173.812C303.312 173.387 303.196 172.971 302.998 172.593C302.8 172.214 302.524 171.881 302.188 171.615C301.851 171.349 301.462 171.156 301.045 171.049C298.515 170.475 295.071 173.581 293.868 175.552C293.796 175.666 293.181 177.008 292.806 177.864C292.947 177.328 293.092 176.809 293.232 176.256C293.523 175.168 293.774 174.07 294.052 172.88C294.163 172.306 294.278 171.724 294.393 171.142C294.508 170.559 294.581 169.935 294.679 169.327C294.875 167.913 295.003 166.47 295.105 165.014C296.07 165.259 299.513 166.082 301.228 165.795C302.943 165.508 305.025 164.677 305.87 163.073C306.715 161.469 306.143 159.473 304.407 158.794C302 157.844 298.101 160.402 296.624 162.17C296.535 162.28 295.622 163.664 295.135 164.436C295.187 163.558 295.242 162.685 295.263 161.799C295.332 159.237 295.319 156.642 295.315 154.055C295.315 153.262 295.315 152.472 295.315 151.679C295.656 151.772 299.726 152.835 301.646 152.523C303.353 152.236 305.444 151.405 306.288 149.797C306.488 149.43 306.609 149.027 306.645 148.612C306.68 148.198 306.629 147.78 306.495 147.385C306.361 146.991 306.146 146.628 305.864 146.319C305.581 146.01 305.238 145.762 304.855 145.59C302.444 144.644 298.544 147.197 297.072 148.966C296.961 149.096 295.647 151.076 295.34 151.616C295.34 149.873 295.383 148.138 295.481 146.425C295.604 144.116 295.878 141.817 296.3 139.542C296.462 139.585 300.703 140.716 302.67 140.386C304.377 140.099 306.468 139.268 307.312 137.66C307.524 137.289 307.655 136.878 307.695 136.454C307.736 136.03 307.686 135.602 307.548 135.199C307.41 134.795 307.188 134.425 306.896 134.111C306.604 133.798 306.249 133.549 305.853 133.381C303.443 132.436 299.543 134.989 298.071 136.757C297.973 136.871 296.974 138.39 296.513 139.125L296.377 139.07C296.866 136.792 297.559 134.563 298.446 132.406C298.924 131.212 299.445 130.098 299.974 129.03C300.746 129.322 304.27 130.613 306.071 130.507C307.777 130.41 309.971 129.811 310.99 128.304C312.01 126.798 311.664 124.76 310.013 123.895C307.722 122.688 303.566 124.806 301.907 126.401C301.817 126.486 300.998 127.469 300.409 128.195C300.656 127.714 300.904 127.212 301.151 126.756C302.073 125.047 303.02 123.532 303.873 122.202C304.364 121.447 304.821 120.776 305.256 120.151C306.16 120.046 309.804 119.582 311.327 118.687C312.851 117.792 314.459 116.29 314.664 114.488C314.727 114.066 314.698 113.636 314.582 113.225C314.465 112.814 314.261 112.432 313.985 112.105C313.709 111.777 313.366 111.511 312.979 111.323C312.591 111.135 312.168 111.03 311.737 111.015Z" fill="#E5E5E5"/>
<path opacity="0.3" d="M311.737 111.015C309.143 110.99 306.438 114.763 305.708 116.923C305.644 117.113 304.996 120.16 305.043 120.156H305.098C304.671 120.746 304.211 121.388 303.728 122.097C302.845 123.413 301.86 124.907 300.9 126.608C299.841 128.428 298.892 130.307 298.058 132.238C297.111 134.394 296.362 136.629 295.818 138.918C295.818 138.943 295.818 138.973 295.818 138.998C295.758 138.251 295.519 136.162 295.481 136.002C294.96 133.774 292.631 129.76 290.045 129.545C289.615 129.521 289.185 129.587 288.782 129.738C288.379 129.889 288.013 130.122 287.707 130.422C287.401 130.722 287.163 131.082 287.007 131.479C286.851 131.876 286.781 132.302 286.803 132.727C286.832 134.537 288.33 136.209 289.725 137.217C291.3 138.357 295.438 139.205 295.771 139.272C295.273 141.613 294.936 143.985 294.76 146.37C294.649 147.759 294.581 149.164 294.529 150.569C294.457 149.924 294.384 149.345 294.367 149.265C293.847 147.037 291.517 143.024 288.932 142.809C288.502 142.784 288.071 142.85 287.668 143.001C287.266 143.152 286.899 143.385 286.594 143.685C286.288 143.985 286.049 144.346 285.893 144.743C285.738 145.14 285.668 145.565 285.689 145.991C285.719 147.801 287.212 149.472 288.612 150.481C290.011 151.489 293.544 152.299 294.478 152.498C294.478 153.038 294.444 153.574 294.431 154.114C294.376 156.709 294.333 159.296 294.209 161.828C294.167 162.723 294.09 163.601 294.022 164.483C293.953 163.909 293.894 163.423 293.877 163.352C293.356 161.119 291.027 157.11 288.441 156.891C286.581 156.735 285.173 158.304 285.198 160.077C285.224 161.849 286.726 163.554 288.121 164.567C289.516 165.58 292.712 166.306 293.817 166.546C293.719 167.445 293.616 168.344 293.48 169.209C293.369 169.8 293.309 170.374 293.164 170.96C293.019 171.547 292.912 172.117 292.784 172.69C292.503 173.779 292.217 174.91 291.931 175.965C291.722 176.704 291.504 177.404 291.304 178.109C291.359 177.218 291.423 175.476 291.415 175.332C291.193 173.332 290.459 171.42 289.281 169.779C289.266 169.555 289.229 169.333 289.171 169.116C289.075 168.7 288.893 168.309 288.634 167.968C288.376 167.627 288.048 167.343 287.672 167.135C287.296 166.928 286.88 166.801 286.451 166.762C286.021 166.724 285.589 166.775 285.181 166.913C282.753 167.812 281.601 172.294 281.708 174.581C281.708 174.716 281.947 176.176 282.135 177.092C281.956 176.569 281.789 176.054 281.597 175.518C281.226 174.454 280.825 173.408 280.398 172.264L279.716 170.627C279.498 170.078 279.199 169.521 278.943 168.939C278.316 167.673 277.621 166.382 276.891 165.111C277.834 164.791 281.158 163.596 282.438 162.423C283.718 161.25 284.998 159.419 284.789 157.621C284.758 157.196 284.638 156.782 284.435 156.405C284.232 156.029 283.952 155.7 283.612 155.438C283.272 155.176 282.88 154.988 282.461 154.885C282.043 154.783 281.608 154.769 281.183 154.844C278.623 155.372 276.818 159.63 276.575 161.908C276.575 162.048 276.575 163.702 276.575 164.609C276.127 163.854 275.688 163.094 275.214 162.339C273.84 160.165 272.381 158.009 270.948 155.853C270.51 155.189 270.073 154.526 269.638 153.865C269.975 153.751 273.964 152.418 275.385 151.105C276.665 149.936 277.945 148.1 277.736 146.299C277.706 145.873 277.585 145.46 277.382 145.084C277.179 144.708 276.899 144.378 276.559 144.117C276.219 143.855 275.827 143.667 275.408 143.565C274.99 143.464 274.554 143.45 274.131 143.526C271.592 144.049 269.766 148.307 269.523 150.586C269.523 150.759 269.523 153.118 269.557 153.743C268.597 152.283 267.654 150.818 266.783 149.337C265.595 147.344 264.54 145.276 263.626 143.146C263.784 143.096 267.952 141.724 269.407 140.378C270.687 139.209 271.967 137.373 271.758 135.571C271.729 135.146 271.609 134.733 271.406 134.357C271.204 133.981 270.924 133.651 270.584 133.389C270.244 133.128 269.852 132.94 269.434 132.838C269.016 132.736 268.581 132.723 268.157 132.799C265.619 133.322 263.792 137.58 263.545 139.859C263.545 140.007 263.545 141.821 263.571 142.682L263.425 142.716C262.562 140.548 261.896 138.308 261.437 136.023C261.164 134.757 260.981 133.558 260.823 132.373C261.629 132.195 265.29 131.347 266.736 130.263C268.183 129.178 269.595 127.553 269.608 125.743C269.625 125.317 269.551 124.892 269.391 124.496C269.232 124.1 268.989 123.742 268.68 123.445C268.371 123.148 268.002 122.919 267.597 122.773C267.192 122.626 266.761 122.565 266.331 122.595C263.771 122.84 261.463 126.874 260.968 129.111C260.938 129.233 260.801 130.499 260.716 131.423C260.656 130.887 260.584 130.334 260.533 129.819C260.345 127.891 260.294 126.11 260.26 124.536C260.26 123.637 260.26 122.827 260.26 122.067C260.955 121.489 263.737 119.113 264.505 117.535C265.273 115.957 265.785 113.826 264.932 112.218C264.078 110.61 262.124 109.909 260.558 110.914C258.382 112.311 258.229 116.932 258.83 119.143C258.886 119.337 260.046 122.232 260.08 122.202L260.123 122.169C260.093 122.899 260.072 123.679 260.063 124.536C260.063 126.114 260.063 127.912 260.221 129.845C260.356 131.938 260.612 134.022 260.989 136.086C261.404 138.401 262.027 140.675 262.849 142.88L262.879 142.956C262.414 142.366 261.049 140.758 260.929 140.644C259.248 139.065 255.067 136.993 252.793 138.221C252.42 138.435 252.097 138.725 251.845 139.07C251.593 139.416 251.418 139.81 251.33 140.227C251.242 140.645 251.244 141.076 251.336 141.492C251.428 141.908 251.607 142.301 251.863 142.644C252.9 144.138 255.076 144.716 256.804 144.796C258.753 144.889 262.679 143.336 262.99 143.21C263.884 145.433 264.926 147.596 266.109 149.683C266.792 150.903 267.517 152.109 268.243 153.312C267.816 152.814 267.44 152.371 267.389 152.316C265.708 150.738 261.527 148.666 259.253 149.894C257.61 150.776 257.311 152.848 258.323 154.317C259.334 155.785 261.535 156.384 263.263 156.469C264.991 156.553 268.383 155.291 269.279 154.95L270.133 156.321C271.532 158.515 272.94 160.697 274.25 162.879C274.715 163.647 275.142 164.419 275.573 165.192C275.197 164.748 274.877 164.381 274.822 164.348C273.145 162.769 268.964 160.697 266.685 161.925C266.313 162.14 265.99 162.429 265.739 162.775C265.487 163.121 265.312 163.515 265.225 163.932C265.137 164.349 265.14 164.78 265.232 165.196C265.324 165.613 265.504 166.005 265.759 166.348C266.792 167.842 268.972 168.42 270.696 168.5C272.42 168.58 275.496 167.445 276.554 167.04C276.981 167.846 277.407 168.652 277.757 169.449C277.996 169.998 278.265 170.513 278.47 171.078C278.674 171.644 278.896 172.184 279.118 172.728C279.494 173.796 279.882 174.893 280.219 175.94C280.462 176.666 280.676 177.366 280.893 178.05C280.441 177.278 279.528 175.788 279.434 175.674C278.017 173.864 274.203 171.188 271.754 172.062C271.355 172.218 270.993 172.455 270.692 172.758C270.391 173.061 270.158 173.423 270.008 173.821C269.857 174.219 269.793 174.643 269.819 175.067C269.845 175.491 269.96 175.905 270.158 176.282C270.952 177.911 273.017 178.814 274.715 179.147C276.58 179.518 280.543 178.628 281.038 178.514C281.397 179.679 281.734 180.814 282.032 181.89C282.813 184.663 283.419 187.11 283.876 189.089H285.629C285.113 187.034 284.417 184.447 283.496 181.468C283.137 180.286 282.728 179.029 282.301 177.746C283.461 177.15 284.585 176.488 285.668 175.763C287.127 177.05 290.677 178.375 291.133 178.544C290.783 179.708 290.433 180.839 290.084 181.898C289.162 184.726 288.275 187.161 287.524 189.072H289.328C289.985 187.207 290.749 184.937 291.534 182.32C291.893 181.139 292.255 179.869 292.614 178.565C293.109 178.615 297.162 179.029 298.971 178.438C300.614 177.898 302.555 176.75 303.144 175.062C303.296 174.663 303.362 174.238 303.337 173.812C303.312 173.387 303.196 172.971 302.998 172.593C302.8 172.214 302.524 171.881 302.188 171.615C301.851 171.349 301.462 171.156 301.045 171.049C298.515 170.475 295.071 173.581 293.868 175.552C293.796 175.666 293.181 177.008 292.806 177.864C292.947 177.328 293.092 176.809 293.232 176.256C293.523 175.168 293.774 174.07 294.052 172.88C294.163 172.306 294.278 171.724 294.393 171.142C294.508 170.559 294.581 169.935 294.679 169.327C294.875 167.913 295.003 166.47 295.105 165.014C296.07 165.259 299.513 166.082 301.228 165.795C302.943 165.508 305.025 164.677 305.87 163.073C306.715 161.469 306.143 159.473 304.407 158.794C302 157.844 298.101 160.402 296.624 162.17C296.535 162.28 295.622 163.664 295.135 164.436C295.187 163.558 295.242 162.685 295.263 161.799C295.332 159.237 295.319 156.642 295.315 154.055C295.315 153.262 295.315 152.472 295.315 151.679C295.656 151.772 299.726 152.835 301.646 152.523C303.353 152.236 305.444 151.405 306.288 149.797C306.488 149.43 306.609 149.027 306.645 148.612C306.68 148.198 306.629 147.78 306.495 147.385C306.361 146.991 306.146 146.628 305.864 146.319C305.581 146.01 305.238 145.762 304.855 145.59C302.444 144.644 298.544 147.197 297.072 148.966C296.961 149.096 295.647 151.076 295.34 151.616C295.34 149.873 295.383 148.138 295.481 146.425C295.604 144.116 295.878 141.817 296.3 139.542C296.462 139.585 300.703 140.716 302.67 140.386C304.377 140.099 306.468 139.268 307.312 137.66C307.524 137.289 307.655 136.878 307.695 136.454C307.736 136.03 307.686 135.602 307.548 135.199C307.41 134.795 307.188 134.425 306.896 134.111C306.604 133.798 306.249 133.549 305.853 133.381C303.443 132.436 299.543 134.989 298.071 136.757C297.973 136.871 296.974 138.39 296.513 139.125L296.377 139.07C296.866 136.792 297.559 134.563 298.446 132.406C298.924 131.212 299.445 130.098 299.974 129.03C300.746 129.322 304.27 130.613 306.071 130.507C307.777 130.41 309.971 129.811 310.99 128.304C312.01 126.798 311.664 124.76 310.013 123.895C307.722 122.688 303.566 124.806 301.907 126.401C301.817 126.486 300.998 127.469 300.409 128.195C300.656 127.714 300.904 127.212 301.151 126.756C302.073 125.047 303.02 123.532 303.873 122.202C304.364 121.447 304.821 120.776 305.256 120.151C306.16 120.046 309.804 119.582 311.327 118.687C312.851 117.792 314.459 116.29 314.664 114.488C314.727 114.066 314.698 113.636 314.582 113.225C314.465 112.814 314.261 112.432 313.985 112.105C313.709 111.777 313.366 111.511 312.979 111.323C312.591 111.135 312.168 111.03 311.737 111.015Z" fill="#E5E5E5"/>
<path d="M153.477 85.9009C153.477 85.9431 156.557 86.1373 156.758 86.1246C159.036 86.0064 163.367 84.4366 164.011 82.0143C164.109 81.6063 164.119 81.1824 164.04 80.7703C163.962 80.3582 163.796 79.9671 163.555 79.6224C163.314 79.2777 163.001 78.9871 162.639 78.7696C162.276 78.552 161.872 78.4124 161.451 78.3598C159.672 78.077 157.777 79.2249 156.544 80.3938C155.106 81.7653 153.481 85.9009 153.477 85.9009Z" fill="#E5E5E5"/>
<path d="M145.857 41.6599C145.431 43.5885 146.369 47.9266 146.369 47.9308C146.369 47.9351 149.07 46.4454 149.228 46.3272C151.063 44.9895 153.81 41.3308 152.995 38.9338C152.411 37.2078 150.435 36.5664 148.814 37.288C147.193 38.0096 146.233 40.0141 145.857 41.6599Z" fill="#E5E5E5"/>
<path d="M133.394 45.5968C133.483 47.4958 135.382 51.1629 135.527 51.4541C133.403 52.5242 131.354 53.7323 129.392 55.0707C128.244 55.8429 127.113 56.6574 125.978 57.4887C126.435 57.033 126.831 56.6447 126.891 56.5603C128.303 54.7879 129.976 50.5426 128.551 48.4453C128.304 48.1036 127.988 47.8172 127.622 47.6045C127.256 47.3917 126.849 47.2575 126.427 47.2106C126.006 47.1636 125.579 47.2049 125.174 47.3319C124.77 47.4588 124.397 47.6685 124.079 47.9473C122.693 49.0867 122.317 51.2558 122.394 52.9396C122.471 54.6233 124.041 57.8137 124.463 58.6577C124.037 58.9784 123.61 59.2949 123.183 59.6198C121.135 61.1812 119.1 62.7426 117.057 64.2154C116.335 64.7345 115.606 65.2198 114.881 65.7093C115.286 65.2873 115.623 64.9581 115.67 64.9033C117.078 63.1309 118.755 58.8813 117.33 56.784C117.083 56.442 116.766 56.1553 116.399 55.9426C116.033 55.7298 115.625 55.5958 115.203 55.5492C114.781 55.5026 114.353 55.5446 113.949 55.6722C113.544 55.7999 113.171 56.0105 112.854 56.2902C111.467 57.4296 111.096 59.5945 111.173 61.2783C111.25 62.9621 112.641 65.8317 113.148 66.8149C112.389 67.2918 111.629 67.7686 110.87 68.1991C110.345 68.4818 109.863 68.7899 109.317 69.0431L107.738 69.8196C106.718 70.2795 105.665 70.7606 104.658 71.1826C103.958 71.4822 103.284 71.7523 102.61 72.0266C103.331 71.516 104.743 70.4905 104.833 70.3935C106.501 68.8532 108.805 64.9075 107.717 62.6202C107.526 62.2454 107.257 61.9146 106.928 61.6493C106.599 61.384 106.217 61.1901 105.808 61.0802C105.398 60.9704 104.969 60.947 104.55 61.0117C104.131 61.0763 103.73 61.2276 103.373 61.4555C101.825 62.3755 101.125 64.4602 100.941 66.1355C100.745 67.9839 101.987 71.7481 102.149 72.2165C101.027 72.6681 99.9302 73.1027 98.8934 73.4825C95.3008 74.8371 92.2587 75.8331 90.1211 76.504L90.4496 78.192L90.6374 78.1287C92.7707 77.4071 95.8427 76.3352 99.448 74.8836C100.587 74.4278 101.795 73.9172 103.032 73.3812C103.73 74.453 104.489 75.4843 105.306 76.4703C104.163 78.0064 103.173 81.568 103.045 82.0322C101.859 81.7959 100.707 81.5596 99.6315 81.3191C95.8768 80.4751 92.7792 79.6606 90.6246 79.0487L90.983 80.8971C93.1163 81.4372 95.9536 82.1166 99.3158 82.7834C100.519 83.0239 101.812 83.2603 103.156 83.4881C103.156 83.9734 103.109 87.9402 103.86 89.6451C104.542 91.1896 105.848 92.9663 107.602 93.384C108.011 93.4955 108.44 93.5205 108.86 93.4573C109.279 93.3941 109.681 93.2441 110.039 93.0172C110.396 92.7903 110.701 92.4915 110.934 92.1403C111.167 91.7891 111.322 91.3933 111.39 90.9786C111.732 88.4762 108.331 85.3998 106.27 84.425C106.151 84.3701 104.76 83.8933 103.881 83.6063C104.423 83.6991 104.952 83.792 105.511 83.8764C106.62 84.0536 107.73 84.2013 108.924 84.3617L110.682 84.5347C111.267 84.6064 111.894 84.6064 112.504 84.6486C113.925 84.7077 115.367 84.7035 116.822 84.6486C116.668 85.6108 116.165 89.0248 116.604 90.6621C117.044 92.2995 118.063 94.2449 119.732 94.9201C120.119 95.0916 120.539 95.1804 120.964 95.1808C121.389 95.1811 121.809 95.0931 122.197 94.9223C122.585 94.7515 122.932 94.5019 123.216 94.1896C123.5 93.8773 123.714 93.5094 123.845 93.1097C124.566 90.6875 121.673 87.1342 119.787 85.8682C119.668 85.788 118.213 85.0242 117.402 84.6022C118.277 84.5727 119.147 84.5474 120.03 84.4883C122.59 84.3195 125.15 84.0663 127.71 83.8342C128.5 83.7582 129.281 83.6949 130.07 83.6316C130.01 83.9692 129.323 88.0204 129.818 89.8519C130.245 91.4808 131.273 93.4347 132.946 94.1099C133.333 94.2813 133.753 94.3701 134.177 94.3704C134.601 94.3708 135.021 94.2827 135.409 94.1119C135.796 93.9411 136.143 93.6914 136.427 93.3791C136.71 93.0668 136.924 92.699 137.054 92.2995C137.775 89.8772 134.887 86.324 133.001 85.058C132.856 84.9609 130.757 83.8679 130.211 83.619C131.939 83.4713 133.667 83.3404 135.369 83.2814C137.673 83.1906 139.98 83.247 142.277 83.4502C142.247 83.6105 141.513 87.8305 142.021 89.7084C142.447 91.3373 143.476 93.2912 145.144 93.9622C146.812 94.6332 148.741 93.9031 149.257 92.156C149.978 89.7295 147.09 86.1805 145.199 84.9103C145.076 84.8301 143.493 83.9945 142.712 83.619L142.75 83.4797C145.055 83.744 147.332 84.2129 149.552 84.8807C150.776 85.231 151.928 85.6361 153.042 86.0539C152.824 86.8262 151.864 90.3667 152.133 92.1054C152.389 93.7934 153.182 95.8274 154.765 96.6756C155.132 96.8888 155.539 97.0232 155.961 97.0701C156.384 97.117 156.811 97.0754 157.216 96.948C157.621 96.8206 157.994 96.6103 158.312 96.3307C158.629 96.0511 158.883 95.7085 159.058 95.3252C160.039 92.9958 157.56 89.1514 155.828 87.687C155.734 87.6069 154.684 86.9021 153.912 86.3957C154.411 86.5941 154.932 86.7882 155.405 86.9823C157.189 87.7208 158.776 88.5057 160.175 89.2105C160.965 89.6325 161.673 89.9996 162.334 90.3667C162.518 91.2361 163.312 94.726 164.34 96.1228C165.368 97.5196 167.002 98.946 168.807 98.9755C169.231 98.9975 169.655 98.9309 170.051 98.7802C170.447 98.6294 170.807 98.3978 171.107 98.1005C171.407 97.8031 171.64 97.4467 171.791 97.0543C171.943 96.662 172.009 96.2425 171.986 95.8232C171.772 93.2912 167.783 91.0251 165.56 90.5144C165.368 90.468 162.283 90.1178 162.292 90.1642V90.219C161.665 89.8519 160.986 89.4679 160.24 89.0628C158.853 88.3285 157.278 87.5098 155.503 86.7291C153.602 85.8704 151.652 85.1222 149.662 84.4883C147.438 83.7678 145.154 83.2439 142.836 82.9227H142.75C143.489 82.7918 145.537 82.3698 145.694 82.3192C147.858 81.6102 151.625 78.9812 151.604 76.4534C151.588 76.0341 151.484 75.6228 151.297 75.246C151.111 74.8693 150.846 74.5355 150.52 74.2665C150.195 73.9975 149.816 73.7992 149.408 73.6845C149 73.5698 148.572 73.5412 148.152 73.6007C146.36 73.7948 144.837 75.3942 143.962 76.8416C142.977 78.4748 142.511 82.5724 142.477 82.8973C140.11 82.6299 137.726 82.5186 135.343 82.564C133.953 82.5851 132.557 82.6441 131.158 82.7243C131.789 82.5935 132.357 82.4753 132.438 82.45C134.605 81.7411 138.369 79.112 138.347 76.5842C138.332 76.1646 138.228 75.7528 138.042 75.3755C137.856 74.9982 137.591 74.664 137.265 74.3945C136.94 74.1251 136.561 73.9264 136.152 73.8114C135.744 73.6965 135.316 73.6678 134.896 73.7273C133.104 73.9214 131.585 75.525 130.71 76.9725C129.835 78.4199 129.353 81.9267 129.242 82.8509L127.634 82.9522C125.074 83.1379 122.488 83.3278 119.954 83.4417C119.062 83.4839 118.183 83.4881 117.304 83.5008C117.867 83.3826 118.341 83.2814 118.413 83.2603C120.577 82.5513 124.344 79.9222 124.323 77.3945C124.308 76.9748 124.204 76.563 124.017 76.1857C123.831 75.8085 123.566 75.4743 123.241 75.2048C122.915 74.9353 122.536 74.7366 122.128 74.6217C121.719 74.5067 121.291 74.478 120.871 74.5375C119.079 74.7316 117.556 76.3352 116.681 77.7827C115.806 79.2302 115.375 82.3952 115.239 83.4924C114.339 83.4924 113.438 83.4628 112.564 83.408C111.971 83.3573 111.395 83.3489 110.802 83.2645L109.048 83.0493C107.939 82.8762 106.795 82.7032 105.72 82.5049C104.969 82.3698 104.257 82.2306 103.535 82.0829C104.423 82.0533 106.159 81.9563 106.305 81.931C108.269 81.5287 110.096 80.6352 111.612 79.3357C111.833 79.2988 112.05 79.2423 112.261 79.1669C112.665 79.0368 113.036 78.824 113.351 78.5424C113.667 78.2609 113.918 77.9168 114.09 77.5327C114.262 77.1485 114.35 76.7329 114.349 76.3128C114.348 75.8927 114.257 75.4777 114.083 75.0946C112.969 72.82 108.417 72.111 106.155 72.4233C106.023 72.4444 104.598 72.8031 103.706 73.0436C104.21 72.8242 104.7 72.6216 105.217 72.3811C106.241 71.9253 107.247 71.44 108.335 70.921L109.897 70.1107C110.422 69.8491 110.947 69.5073 111.48 69.2077C112.696 68.4818 113.895 67.6885 115.085 66.8656C115.512 67.7518 116.98 70.8746 118.26 71.9971C119.54 73.1196 121.473 74.1915 123.243 73.8412C123.662 73.7731 124.062 73.6184 124.416 73.3872C124.77 73.1561 125.072 72.8537 125.3 72.4997C125.528 72.1457 125.678 71.7482 125.741 71.3329C125.803 70.9176 125.777 70.494 125.662 70.0896C124.911 67.6758 120.542 66.2916 118.238 66.2621C118.098 66.2621 116.459 66.4225 115.559 66.528C116.271 66.0258 116.984 65.5278 117.692 64.9961C119.723 63.4685 121.729 61.8564 123.738 60.257C124.353 59.7633 124.971 59.2822 125.59 58.8011C125.731 59.1176 127.416 62.8692 128.85 64.1268C130.13 65.2451 132.062 66.3212 133.833 65.9709C134.252 65.9022 134.651 65.7471 135.005 65.5158C135.359 65.2844 135.66 64.9821 135.888 64.6283C136.116 64.2745 136.266 63.8772 136.329 63.4621C136.392 63.0471 136.366 62.6237 136.252 62.2193C135.501 59.8013 131.111 58.4213 128.828 58.3918C128.658 58.3918 126.298 58.6239 125.701 58.7125C127.062 57.6449 128.427 56.6025 129.818 55.615C131.692 54.2977 133.65 53.1023 135.681 52.0365C135.745 52.1842 137.485 56.1046 138.957 57.3959C140.237 58.5142 142.17 59.5861 143.937 59.2358C144.355 59.1675 144.755 59.0128 145.11 58.7818C145.464 58.5507 145.766 58.2484 145.994 57.8945C146.223 57.5406 146.373 57.1431 146.436 56.7279C146.5 56.3126 146.473 55.8889 146.36 55.4842C145.609 53.0704 141.214 51.6862 138.936 51.6567C138.787 51.6567 136.986 51.8339 136.133 51.9352C136.133 51.8592 136.133 51.8761 136.09 51.8002C138.162 50.768 140.322 49.9206 142.546 49.2682C143.766 48.8926 144.952 48.6014 146.113 48.3398C146.36 49.1036 147.538 52.5598 148.728 53.8848C149.918 55.2099 151.681 56.4168 153.477 56.2607C153.901 56.2377 154.315 56.1267 154.693 55.9351C155.071 55.7435 155.404 55.4754 155.67 55.1483C155.936 54.8212 156.13 54.4424 156.239 54.0365C156.348 53.6305 156.369 53.2065 156.301 52.7919C155.819 50.3105 151.608 48.4579 149.347 48.1836C149.223 48.1836 147.951 48.1499 147.03 48.1541C147.555 48.0444 148.097 47.922 148.6 47.8291C150.499 47.4704 152.261 47.2552 153.818 47.0822C154.71 46.9894 155.525 46.9218 156.267 46.867C156.907 47.4915 159.514 49.9687 161.153 50.5721C162.791 51.1756 164.946 51.4752 166.469 50.5173C166.835 50.3041 167.151 50.0172 167.397 49.6752C167.644 49.3332 167.814 48.9438 167.898 48.5322C167.983 48.1206 167.978 47.6961 167.885 47.2864C167.793 46.8766 167.614 46.4907 167.361 46.1538C165.778 44.1704 161.178 44.4658 159.041 45.2296C158.853 45.2971 156.088 46.6897 156.122 46.7235L156.161 46.7615C155.431 46.7995 154.654 46.8459 153.805 46.9176C152.235 47.0611 150.469 47.2341 148.553 47.5548C146.488 47.8758 144.444 48.3154 142.43 48.8715C140.172 49.484 137.973 50.2947 135.86 51.2938L135.787 51.336C136.329 50.8253 137.801 49.3526 137.921 49.226C139.333 47.4536 141.005 43.2082 139.58 41.1109C139.334 40.7693 139.017 40.4828 138.651 40.2701C138.286 40.0574 137.878 39.9232 137.457 39.8762C137.035 39.8292 136.608 39.8706 136.204 39.9975C135.799 40.1244 135.426 40.3341 135.109 40.6129C133.692 41.7439 133.317 43.913 133.394 45.5968Z" fill="#E5E5E5"/>
<path opacity="0.3" d="M145.857 41.6599C145.431 43.5885 146.369 47.9266 146.369 47.9308C146.369 47.9351 149.07 46.4454 149.228 46.3272C151.063 44.9895 153.81 41.3308 152.995 38.9338C152.411 37.2078 150.435 36.5664 148.814 37.288C147.193 38.0096 146.233 40.0141 145.857 41.6599Z" fill="#E5E5E5"/>
<path opacity="0.3" d="M153.477 85.9009C153.477 85.9431 156.557 86.1373 156.758 86.1246C159.036 86.0064 163.367 84.4366 164.011 82.0143C164.109 81.6063 164.119 81.1824 164.04 80.7703C163.962 80.3582 163.796 79.9671 163.555 79.6224C163.314 79.2777 163.001 78.9871 162.639 78.7696C162.276 78.552 161.872 78.4124 161.451 78.3598C159.672 78.077 157.777 79.2249 156.544 80.3938C155.106 81.7653 153.481 85.9009 153.477 85.9009Z" fill="#E5E5E5"/>
<path opacity="0.3" d="M133.394 45.5968C133.483 47.4958 135.382 51.1629 135.527 51.4541C133.403 52.5242 131.354 53.7323 129.392 55.0707C128.244 55.8429 127.113 56.6574 125.978 57.4887C126.435 57.033 126.831 56.6447 126.891 56.5603C128.303 54.7879 129.976 50.5426 128.551 48.4453C128.304 48.1036 127.988 47.8172 127.622 47.6045C127.256 47.3917 126.849 47.2575 126.427 47.2106C126.006 47.1636 125.579 47.2049 125.174 47.3319C124.77 47.4588 124.397 47.6685 124.079 47.9473C122.693 49.0867 122.317 51.2558 122.394 52.9396C122.471 54.6233 124.041 57.8137 124.463 58.6577C124.037 58.9784 123.61 59.2949 123.183 59.6198C121.135 61.1812 119.1 62.7426 117.057 64.2154C116.335 64.7345 115.606 65.2198 114.881 65.7093C115.286 65.2873 115.623 64.9581 115.67 64.9033C117.078 63.1309 118.755 58.8813 117.33 56.784C117.083 56.442 116.766 56.1553 116.399 55.9426C116.033 55.7298 115.625 55.5958 115.203 55.5492C114.781 55.5026 114.353 55.5446 113.949 55.6722C113.544 55.7999 113.171 56.0105 112.854 56.2902C111.467 57.4296 111.096 59.5945 111.173 61.2783C111.25 62.9621 112.641 65.8317 113.148 66.8149C112.389 67.2918 111.629 67.7686 110.87 68.1991C110.345 68.4818 109.863 68.7899 109.317 69.0431L107.738 69.8196C106.718 70.2795 105.665 70.7606 104.658 71.1826C103.958 71.4822 103.284 71.7523 102.61 72.0266C103.331 71.516 104.743 70.4905 104.833 70.3935C106.501 68.8532 108.805 64.9075 107.717 62.6202C107.526 62.2454 107.257 61.9146 106.928 61.6493C106.599 61.384 106.217 61.1901 105.808 61.0802C105.398 60.9704 104.969 60.947 104.55 61.0117C104.131 61.0763 103.73 61.2276 103.373 61.4555C101.825 62.3755 101.125 64.4602 100.941 66.1355C100.745 67.9839 101.987 71.7481 102.149 72.2165C101.027 72.6681 99.9302 73.1027 98.8934 73.4825C95.3008 74.8371 92.2587 75.8331 90.1211 76.504L90.4496 78.192L90.6374 78.1287C92.7707 77.4071 95.8427 76.3352 99.448 74.8836C100.587 74.4278 101.795 73.9172 103.032 73.3812C103.73 74.453 104.489 75.4843 105.306 76.4703C104.163 78.0064 103.173 81.568 103.045 82.0322C101.859 81.7959 100.707 81.5596 99.6315 81.3191C95.8768 80.4751 92.7792 79.6606 90.6246 79.0487L90.983 80.8971C93.1163 81.4372 95.9536 82.1166 99.3158 82.7834C100.519 83.0239 101.812 83.2603 103.156 83.4881C103.156 83.9734 103.109 87.9402 103.86 89.6451C104.542 91.1896 105.848 92.9663 107.602 93.384C108.011 93.4955 108.44 93.5205 108.86 93.4573C109.279 93.3941 109.681 93.2441 110.039 93.0172C110.396 92.7903 110.701 92.4915 110.934 92.1403C111.167 91.7891 111.322 91.3933 111.39 90.9786C111.732 88.4762 108.331 85.3998 106.27 84.425C106.151 84.3701 104.76 83.8933 103.881 83.6063C104.423 83.6991 104.952 83.792 105.511 83.8764C106.62 84.0536 107.73 84.2013 108.924 84.3617L110.682 84.5347C111.267 84.6064 111.894 84.6064 112.504 84.6486C113.925 84.7077 115.367 84.7035 116.822 84.6486C116.668 85.6108 116.165 89.0248 116.604 90.6621C117.044 92.2995 118.063 94.2449 119.732 94.9201C120.119 95.0916 120.539 95.1804 120.964 95.1808C121.389 95.1811 121.809 95.0931 122.197 94.9223C122.585 94.7515 122.932 94.5019 123.216 94.1896C123.5 93.8773 123.714 93.5094 123.845 93.1097C124.566 90.6875 121.673 87.1342 119.787 85.8682C119.668 85.788 118.213 85.0242 117.402 84.6022C118.277 84.5727 119.147 84.5474 120.03 84.4883C122.59 84.3195 125.15 84.0663 127.71 83.8342C128.5 83.7582 129.281 83.6949 130.07 83.6316C130.01 83.9692 129.323 88.0204 129.818 89.8519C130.245 91.4808 131.273 93.4347 132.946 94.1099C133.333 94.2813 133.753 94.3701 134.177 94.3704C134.601 94.3708 135.021 94.2827 135.409 94.1119C135.796 93.9411 136.143 93.6914 136.427 93.3791C136.71 93.0668 136.924 92.699 137.054 92.2995C137.775 89.8772 134.887 86.324 133.001 85.058C132.856 84.9609 130.757 83.8679 130.211 83.619C131.939 83.4713 133.667 83.3404 135.369 83.2814C137.673 83.1906 139.98 83.247 142.277 83.4502C142.247 83.6105 141.513 87.8305 142.021 89.7084C142.447 91.3373 143.476 93.2912 145.144 93.9622C146.812 94.6332 148.741 93.9031 149.257 92.156C149.978 89.7295 147.09 86.1805 145.199 84.9103C145.076 84.8301 143.493 83.9945 142.712 83.619L142.75 83.4797C145.055 83.744 147.332 84.2129 149.552 84.8807C150.776 85.231 151.928 85.6361 153.042 86.0539C152.824 86.8262 151.864 90.3667 152.133 92.1054C152.389 93.7934 153.182 95.8274 154.765 96.6756C155.132 96.8888 155.539 97.0232 155.961 97.0701C156.384 97.117 156.811 97.0754 157.216 96.948C157.621 96.8206 157.994 96.6103 158.312 96.3307C158.629 96.0511 158.883 95.7085 159.058 95.3252C160.039 92.9958 157.56 89.1514 155.828 87.687C155.734 87.6069 154.684 86.9021 153.912 86.3957C154.411 86.5941 154.932 86.7882 155.405 86.9823C157.189 87.7208 158.776 88.5057 160.175 89.2105C160.965 89.6325 161.673 89.9996 162.334 90.3667C162.518 91.2361 163.312 94.726 164.34 96.1228C165.368 97.5196 167.002 98.946 168.807 98.9755C169.231 98.9975 169.655 98.9309 170.051 98.7802C170.447 98.6294 170.807 98.3978 171.107 98.1005C171.407 97.8031 171.64 97.4467 171.791 97.0543C171.943 96.662 172.009 96.2425 171.986 95.8232C171.772 93.2912 167.783 91.0251 165.56 90.5144C165.368 90.468 162.283 90.1178 162.292 90.1642V90.219C161.665 89.8519 160.986 89.4679 160.24 89.0628C158.853 88.3285 157.278 87.5098 155.503 86.7291C153.602 85.8704 151.652 85.1222 149.662 84.4883C147.438 83.7678 145.154 83.2439 142.836 82.9227H142.75C143.489 82.7918 145.537 82.3698 145.694 82.3192C147.858 81.6102 151.625 78.9812 151.604 76.4534C151.588 76.0341 151.484 75.6228 151.297 75.246C151.111 74.8693 150.846 74.5355 150.52 74.2665C150.195 73.9975 149.816 73.7992 149.408 73.6845C149 73.5698 148.572 73.5412 148.152 73.6007C146.36 73.7948 144.837 75.3942 143.962 76.8416C142.977 78.4748 142.511 82.5724 142.477 82.8973C140.11 82.6299 137.726 82.5186 135.343 82.564C133.953 82.5851 132.557 82.6441 131.158 82.7243C131.789 82.5935 132.357 82.4753 132.438 82.45C134.605 81.7411 138.369 79.112 138.347 76.5842C138.332 76.1646 138.228 75.7528 138.042 75.3755C137.856 74.9982 137.591 74.664 137.265 74.3945C136.94 74.1251 136.561 73.9264 136.152 73.8114C135.744 73.6965 135.316 73.6678 134.896 73.7273C133.104 73.9214 131.585 75.525 130.71 76.9725C129.835 78.4199 129.353 81.9267 129.242 82.8509L127.634 82.9522C125.074 83.1379 122.488 83.3278 119.954 83.4417C119.062 83.4839 118.183 83.4881 117.304 83.5008C117.867 83.3826 118.341 83.2814 118.413 83.2603C120.577 82.5513 124.344 79.9222 124.323 77.3945C124.308 76.9748 124.204 76.563 124.017 76.1857C123.831 75.8085 123.566 75.4743 123.241 75.2048C122.915 74.9353 122.536 74.7366 122.128 74.6217C121.719 74.5067 121.291 74.478 120.871 74.5375C119.079 74.7316 117.556 76.3352 116.681 77.7827C115.806 79.2302 115.375 82.3952 115.239 83.4924C114.339 83.4924 113.438 83.4628 112.564 83.408C111.971 83.3573 111.395 83.3489 110.802 83.2645L109.048 83.0493C107.939 82.8762 106.795 82.7032 105.72 82.5049C104.969 82.3698 104.257 82.2306 103.535 82.0829C104.423 82.0533 106.159 81.9563 106.305 81.931C108.269 81.5287 110.096 80.6352 111.612 79.3357C111.833 79.2988 112.05 79.2423 112.261 79.1669C112.665 79.0368 113.036 78.824 113.351 78.5424C113.667 78.2609 113.918 77.9168 114.09 77.5327C114.262 77.1485 114.35 76.7329 114.349 76.3128C114.348 75.8927 114.257 75.4777 114.083 75.0946C112.969 72.82 108.417 72.111 106.155 72.4233C106.023 72.4444 104.598 72.8031 103.706 73.0436C104.21 72.8242 104.7 72.6216 105.217 72.3811C106.241 71.9253 107.247 71.44 108.335 70.921L109.897 70.1107C110.422 69.8491 110.947 69.5073 111.48 69.2077C112.696 68.4818 113.895 67.6885 115.085 66.8656C115.512 67.7518 116.98 70.8746 118.26 71.9971C119.54 73.1196 121.473 74.1915 123.243 73.8412C123.662 73.7731 124.062 73.6184 124.416 73.3872C124.77 73.1561 125.072 72.8537 125.3 72.4997C125.528 72.1457 125.678 71.7482 125.741 71.3329C125.803 70.9176 125.777 70.494 125.662 70.0896C124.911 67.6758 120.542 66.2916 118.238 66.2621C118.098 66.2621 116.459 66.4225 115.559 66.528C116.271 66.0258 116.984 65.5278 117.692 64.9961C119.723 63.4685 121.729 61.8564 123.738 60.257C124.353 59.7633 124.971 59.2822 125.59 58.8011C125.731 59.1176 127.416 62.8692 128.85 64.1268C130.13 65.2451 132.062 66.3212 133.833 65.9709C134.252 65.9022 134.651 65.7471 135.005 65.5158C135.359 65.2844 135.66 64.9821 135.888 64.6283C136.116 64.2745 136.266 63.8772 136.329 63.4621C136.392 63.0471 136.366 62.6237 136.252 62.2193C135.501 59.8013 131.111 58.4213 128.828 58.3918C128.658 58.3918 126.298 58.6239 125.701 58.7125C127.062 57.6449 128.427 56.6025 129.818 55.615C131.692 54.2977 133.65 53.1023 135.681 52.0365C135.745 52.1842 137.485 56.1046 138.957 57.3959C140.237 58.5142 142.17 59.5861 143.937 59.2358C144.355 59.1675 144.755 59.0128 145.11 58.7818C145.464 58.5507 145.766 58.2484 145.994 57.8945C146.223 57.5406 146.373 57.1431 146.436 56.7279C146.5 56.3126 146.473 55.8889 146.36 55.4842C145.609 53.0704 141.214 51.6862 138.936 51.6567C138.787 51.6567 136.986 51.8339 136.133 51.9352C136.133 51.8592 136.133 51.8761 136.09 51.8002C138.162 50.768 140.322 49.9206 142.546 49.2682C143.766 48.8926 144.952 48.6014 146.113 48.3398C146.36 49.1036 147.538 52.5598 148.728 53.8848C149.918 55.2099 151.681 56.4168 153.477 56.2607C153.901 56.2377 154.315 56.1267 154.693 55.9351C155.071 55.7435 155.404 55.4754 155.67 55.1483C155.936 54.8212 156.13 54.4424 156.239 54.0365C156.348 53.6305 156.369 53.2065 156.301 52.7919C155.819 50.3105 151.608 48.4579 149.347 48.1836C149.223 48.1836 147.951 48.1499 147.03 48.1541C147.555 48.0444 148.097 47.922 148.6 47.8291C150.499 47.4704 152.261 47.2552 153.818 47.0822C154.71 46.9894 155.525 46.9218 156.267 46.867C156.907 47.4915 159.514 49.9687 161.153 50.5721C162.791 51.1756 164.946 51.4752 166.469 50.5173C166.835 50.3041 167.151 50.0172 167.397 49.6752C167.644 49.3332 167.814 48.9438 167.898 48.5322C167.983 48.1206 167.978 47.6961 167.885 47.2864C167.793 46.8766 167.614 46.4907 167.361 46.1538C165.778 44.1704 161.178 44.4658 159.041 45.2296C158.853 45.2971 156.088 46.6897 156.122 46.7235L156.161 46.7615C155.431 46.7995 154.654 46.8459 153.805 46.9176C152.235 47.0611 150.469 47.2341 148.553 47.5548C146.488 47.8758 144.444 48.3154 142.43 48.8715C140.172 49.484 137.973 50.2947 135.86 51.2938L135.787 51.336C136.329 50.8253 137.801 49.3526 137.921 49.226C139.333 47.4536 141.005 43.2082 139.58 41.1109C139.334 40.7693 139.017 40.4828 138.651 40.2701C138.286 40.0574 137.878 39.9232 137.457 39.8762C137.035 39.8292 136.608 39.8706 136.204 39.9975C135.799 40.1244 135.426 40.3341 135.109 40.6129C133.692 41.7439 133.317 43.913 133.394 45.5968Z" fill="#9C9C9C"/>
<path d="M135.031 146.193V102.343C135.031 101.558 135.187 100.78 135.49 100.055C135.793 99.3295 136.238 98.6703 136.799 98.115C137.36 97.5596 138.027 97.1191 138.76 96.8185C139.493 96.518 140.279 96.3633 141.073 96.3633H231.219V136.225" stroke="#263238" stroke-width="7" stroke-linecap="round" stroke-linejoin="round"/>
<path d="M219.506 89.7559H242.345C242.685 89.7559 243.01 89.8892 243.25 90.1267C243.49 90.3641 243.625 90.6861 243.625 91.0219V117.848C243.625 118.452 243.383 119.03 242.952 119.457C242.52 119.883 241.935 120.123 241.326 120.123H220.534C219.924 120.123 219.339 119.883 218.908 119.457C218.477 119.03 218.234 118.452 218.234 117.848V91.0092C218.238 90.6771 218.373 90.3596 218.611 90.1251C218.849 89.8907 219.17 89.7581 219.506 89.7559Z" fill="#E5E5E5" stroke="#263238" stroke-linecap="round" stroke-linejoin="round"/>
<path d="M219.505 89.7559H242.345C242.684 89.7559 243.01 89.8892 243.25 90.1267C243.49 90.3641 243.625 90.6861 243.625 91.0219V92.828H218.238V91.0219C218.238 90.6883 218.371 90.3682 218.609 90.1311C218.846 89.8941 219.168 89.7592 219.505 89.7559Z" fill="#263238" stroke="#263238" stroke-linecap="round" stroke-linejoin="round"/>
<path d="M237.427 91.346C237.427 91.1841 237.378 91.0258 237.287 90.8912C237.197 90.7566 237.067 90.6516 236.916 90.5897C236.765 90.5277 236.598 90.5115 236.438 90.5431C236.277 90.5747 236.13 90.6526 236.014 90.7671C235.898 90.8816 235.819 91.0275 235.787 91.1863C235.755 91.3451 235.772 91.5097 235.834 91.6593C235.897 91.8089 236.003 91.9368 236.139 92.0267C236.275 92.1167 236.436 92.1647 236.599 92.1647C236.819 92.1647 237.029 92.0785 237.185 91.9249C237.34 91.7714 237.427 91.5632 237.427 91.346Z" fill="#E5E5E5" stroke="#263238" stroke-linecap="round" stroke-linejoin="round"/>
<path d="M240.063 91.3474C240.062 91.1865 240.013 91.0294 239.922 90.896C239.831 90.7626 239.702 90.6589 239.552 90.5979C239.401 90.5369 239.236 90.5214 239.076 90.5533C238.917 90.5852 238.77 90.6631 238.656 90.7772C238.541 90.8912 238.463 91.0364 238.432 91.1942C238.4 91.3521 238.417 91.5157 238.479 91.6642C238.542 91.8128 238.647 91.9398 238.782 92.0291C238.918 92.1184 239.077 92.166 239.239 92.166C239.348 92.166 239.455 92.1448 239.556 92.1036C239.656 92.0625 239.747 92.0021 239.823 91.926C239.9 91.8499 239.96 91.7596 240.001 91.6603C240.043 91.561 240.063 91.4547 240.063 91.3474Z" fill="#E5E5E5" stroke="#263238" stroke-linecap="round" stroke-linejoin="round"/>
<path d="M242.704 91.346C242.704 91.1839 242.656 91.0255 242.564 90.8907C242.473 90.756 242.344 90.6511 242.192 90.5893C242.041 90.5274 241.874 90.5115 241.713 90.5434C241.553 90.5753 241.405 90.6537 241.29 90.7686C241.174 90.8835 241.096 91.0298 241.064 91.1889C241.033 91.348 241.05 91.5127 241.113 91.6622C241.176 91.8118 241.283 91.9393 241.42 92.0288C241.556 92.1182 241.717 92.1655 241.881 92.1647C242.1 92.1636 242.309 92.0768 242.463 91.9234C242.618 91.77 242.704 91.5624 242.704 91.346Z" fill="#E5E5E5" stroke="#263238" stroke-linecap="round" stroke-linejoin="round"/>
<path d="M227.873 96.3047L223.525 99.706L227.873 103.107" stroke="#263238" stroke-width="3" stroke-linecap="round" stroke-linejoin="round"/>
<path d="M233.838 96.3047L238.186 99.706L233.838 103.107" stroke="#263238" stroke-width="3" stroke-linecap="round" stroke-linejoin="round"/>
<path d="M231.41 95.5078L230.096 103.707" stroke="#263238" stroke-width="3" stroke-linecap="round" stroke-linejoin="round"/>
<path d="M236.197 107.59H241.002" stroke="#263238" stroke-linecap="round" stroke-linejoin="round"/>
<path d="M229.08 107.59H235.322" stroke="#263238" stroke-linecap="round" stroke-linejoin="round"/>
<path d="M223.838 107.59H227.708" stroke="#263238" stroke-linecap="round" stroke-linejoin="round"/>
<path d="M221.148 107.59H222.962" stroke="#263238" stroke-linecap="round" stroke-linejoin="round"/>
<path d="M238.199 110.396H241.002" stroke="#263238" stroke-linecap="round" stroke-linejoin="round"/>
<path d="M224.213 110.396H236.825" stroke="#263238" stroke-linecap="round" stroke-linejoin="round"/>
<path d="M221.148 110.396H222.71" stroke="#263238" stroke-linecap="round" stroke-linejoin="round"/>
<path d="M231.453 113.201H241.002" stroke="#263238" stroke-linecap="round" stroke-linejoin="round"/>
<path d="M223.461 113.201H229.703" stroke="#263238" stroke-linecap="round" stroke-linejoin="round"/>
<path d="M221.148 113.201H222.463" stroke="#263238" stroke-linecap="round" stroke-linejoin="round"/>
<path d="M238.322 116.004H241.002" stroke="#263238" stroke-linecap="round" stroke-linejoin="round"/>
<path d="M229.205 116.004H236.825" stroke="#263238" stroke-linecap="round" stroke-linejoin="round"/>
<path d="M221.148 116.004H227.706" stroke="#263238" stroke-linecap="round" stroke-linejoin="round"/>
<path d="M242.086 109.902H248.012" stroke="#263238" stroke-linecap="round" stroke-linejoin="round"/>
<path d="M253.358 115.191C256.31 115.191 258.704 112.823 258.704 109.903C258.704 106.983 256.31 104.615 253.358 104.615C250.405 104.615 248.012 106.983 248.012 109.903C248.012 112.823 250.405 115.191 253.358 115.191Z" fill="#263238"/>
<path d="M256.055 107.434L250.939 112.493" stroke="#41BF47" stroke-width="4" stroke-miterlimit="10" stroke-linecap="round"/>
<path d="M250.939 107.434L256.055 112.493" stroke="#41BF47" stroke-width="4" stroke-miterlimit="10" stroke-linecap="round"/>
<path d="M240.805 111.169C241.512 111.169 242.085 110.602 242.085 109.903C242.085 109.204 241.512 108.637 240.805 108.637C240.098 108.637 239.525 109.204 239.525 109.903C239.525 110.602 240.098 111.169 240.805 111.169Z" fill="#263238"/>
<path d="M203.518 38.3338C203.518 38.3338 189.903 44.6005 188.5 46.1703C186.52 48.3858 184.463 70.6463 184.463 70.6463L180.572 73.8493L186.546 84.3065H221.938C221.938 84.3065 226.597 48.2086 226.081 46.4109C225.564 44.6132 211.177 39.3593 209.752 38.7178C208.327 38.0764 204.687 37.6924 203.518 38.3338Z" fill="#272727" stroke="#263238" stroke-linecap="round" stroke-linejoin="round"/>
<path d="M191.449 55.1682L190.988 54.1934" stroke="#41BF47" stroke-linecap="round" stroke-linejoin="round"/>
<path d="M191.598 75.302L191.798 69.816L190.761 65.8661C190.514 64.9112 190.523 63.9089 190.787 62.9585L192.426 57.1982L191.973 56.2402" stroke="#41BF47" stroke-linecap="round" stroke-linejoin="round"/>
<path d="M191.393 80.9814L191.542 76.8965" stroke="#263238" stroke-linecap="round" stroke-linejoin="round"/>
<path d="M189.959 73.4824C190.143 73.9671 190.278 74.4691 190.36 74.9805L189.959 73.4824Z" fill="#41BF47"/>
<path d="M189.959 73.4824C190.143 73.9671 190.278 74.4691 190.36 74.9805" stroke="#263238" stroke-linecap="round" stroke-linejoin="round"/>
<path d="M186.191 71.1139C186.817 71.006 187.46 71.0829 188.042 71.3351C188.623 71.5873 189.116 72.0036 189.46 72.5319" fill="#41BF47"/>
<path d="M186.191 71.1139C186.817 71.006 187.46 71.0829 188.042 71.3351C188.623 71.5873 189.116 72.0036 189.46 72.5319" stroke="#263238" stroke-linecap="round" stroke-linejoin="round"/>
<path d="M161.399 78.377C161.399 78.377 160.174 78.5584 159.692 79.3433C159.21 80.1283 158.284 82.3648 158.715 82.5463C159.146 82.7278 159.444 82.0652 159.752 81.5799C160.059 81.0946 160.486 80.3688 160.486 80.3688L161.463 80.1873L161.399 78.377Z" fill="#E5E5E5" stroke="#263238" stroke-linecap="round" stroke-linejoin="round"/>
<path d="M163.11 77.225C163.11 77.225 161.706 77.1027 161.339 77.7061C160.972 78.3096 160.239 82.3017 160.298 82.7701C160.358 83.2385 160.972 83.496 161.459 82.652C161.945 81.808 162.986 78.069 162.986 78.069L163.11 77.225Z" fill="#E5E5E5" stroke="#263238" stroke-linecap="round" stroke-linejoin="round"/>
<path d="M165.973 77.167C165.973 77.167 163.895 76.2006 163.042 76.3821C162.188 76.5635 160.964 82.7121 161.147 83.0328C161.241 83.1169 161.352 83.1808 161.473 83.2204C161.593 83.2601 161.72 83.2746 161.846 83.2631C161.973 83.2516 162.095 83.2143 162.206 83.1536C162.317 83.0929 162.414 83.0101 162.491 82.9104C162.794 82.4251 164.569 79.4669 165.051 78.741C165.388 78.2335 165.695 77.708 165.973 77.167Z" fill="#E5E5E5" stroke="#263238" stroke-linecap="round" stroke-linejoin="round"/>
<path d="M187.305 80.3271C187.305 80.3271 186.512 74.9719 185.057 72.8788C183.602 70.7857 182.535 72.5918 180.338 73.7228C179.002 74.4107 171.049 77.7149 170.652 77.8457C170.256 77.9766 166.812 76.0143 166.16 76.5375C165.507 77.0608 162.99 80.1963 162.46 81.8969C161.931 83.5976 163.254 83.7242 163.783 83.2051C164.312 82.6861 165.895 80.1963 166.556 79.673C167.218 79.1497 168.805 80.8504 168.805 80.8504C168.805 80.8504 166.424 82.0278 165.635 82.5384C164.846 83.049 166.027 83.3233 167.342 83.3233C168.67 83.2687 169.974 82.9576 171.182 82.4076L172.504 81.7535C172.504 81.7535 182.953 81.7661 187.305 80.3271Z" fill="#E5E5E5" stroke="#263238" stroke-linecap="round" stroke-linejoin="round"/>
<path d="M222.499 44C222.499 44 227.024 45.8578 226.802 47.1575C226.58 48.4573 225.705 77.1406 224.297 79.1156C222.889 81.0906 218.951 80.428 218.951 80.428C218.951 80.428 217.278 75.2796 215.576 73.7224C213.874 72.1653 213.242 72.697 213.242 72.697L214.407 55.281" fill="#272727"/>
<path d="M222.499 44C222.499 44 227.024 45.8578 226.802 47.1575C226.58 48.4573 225.705 77.1406 224.297 79.1156C222.889 81.0906 218.951 80.428 218.951 80.428C218.951 80.428 217.278 75.2796 215.576 73.7224C213.874 72.1653 213.242 72.697 213.242 72.697L214.407 55.281" stroke="#263238" stroke-linecap="round" stroke-linejoin="round"/>
<path d="M213.551 71.3729C213.551 71.3729 214.332 68.2839 222.148 71.3729H213.551Z" fill="#41BF47"/>
<path d="M213.551 71.3729C213.551 71.3729 214.332 68.2839 222.148 71.3729" stroke="#263238" stroke-linecap="round" stroke-linejoin="round"/>
<path d="M216.156 67.7676C216.156 67.7676 221.886 68.5398 223.708 71.114L216.156 67.7676Z" fill="#41BF47"/>
<path d="M216.156 67.7676C216.156 67.7676 221.886 68.5398 223.708 71.114" stroke="#263238" stroke-linecap="round" stroke-linejoin="round"/>
<path d="M183.039 78.748C182.458 79.4507 181.765 80.055 180.987 80.5373C179.779 81.2547 178.209 81.6134 179.28 82.0903C180.351 82.5671 182.054 81.8497 183.022 81.2463C183.991 80.6428 183.039 78.748 183.039 78.748Z" fill="#E5E5E5" stroke="#263238" stroke-linecap="round" stroke-linejoin="round"/>
<path d="M207.266 76.3821C209.903 74.787 212.275 72.1368 215.556 72.0144C218.837 71.892 221.866 74.1962 223.321 76.9434C223.795 77.8423 224.128 78.8973 223.829 79.8721C223.266 81.6951 220.962 82.2226 219.046 82.4505L208.469 83.687C202.146 84.4255 195.486 85.1218 189.619 82.6657C189.543 83.2207 189.294 83.7385 188.906 84.1469C188.48 84.5099 187.69 84.493 187.469 83.9824C187.241 84.1918 186.95 84.3199 186.64 84.3459C186.331 84.3719 186.022 84.2944 185.762 84.1258C185.651 84.0583 185.088 84.3453 184.503 84.244C184.294 84.206 183.573 83.8937 183.368 83.8431C183.231 83.8269 183.097 83.7839 182.977 83.7166C182.856 83.6492 182.75 83.5588 182.664 83.4506C182.581 83.2773 182.545 83.085 182.562 82.8936C182.485 81.6634 182.603 80.4289 182.912 79.2348C184.401 74.5169 189.717 77.1248 192.55 78.9521C193.514 79.5851 194.526 80.2181 195.678 80.3405C196.537 80.3674 197.395 80.2386 198.208 79.9607C201.25 79.1167 204.458 78.0701 207.232 76.4074L207.266 76.3821Z" fill="#E5E5E5" stroke="#263238" stroke-linecap="round" stroke-linejoin="round"/>
<path d="M189.619 82.651L190.076 80.8828" stroke="#263238" stroke-linecap="round" stroke-linejoin="round"/>
<path d="M187.52 83.762C187.52 83.762 187.763 78.8668 188.608 77.7949" stroke="#263238" stroke-linecap="round" stroke-linejoin="round"/>
<path d="M185.829 83.8808C185.829 83.8808 185.467 79.5848 186.311 77.5508" stroke="#263238" stroke-linecap="round" stroke-linejoin="round"/>
<path d="M184.004 83.863C184.004 83.863 183.659 80.5756 184.265 78.2715" stroke="#263238" stroke-linecap="round" stroke-linejoin="round"/>
<path d="M199.909 40.0256C199.909 40.0256 196.205 50.3351 201.918 50.4912C208.489 50.6727 211.045 39.4813 211.045 39.4813C211.045 39.4813 207.393 33.3369 206.48 28.2729C205.566 23.2089 199.909 40.0256 199.909 40.0256Z" fill="#E5E5E5" stroke="#263238" stroke-linecap="round" stroke-linejoin="round"/>
<path d="M199.91 40.0254C199.91 40.0254 200.823 41.1057 201.553 43.9964" stroke="#263238" stroke-linecap="round" stroke-linejoin="round"/>
<path d="M188.585 19.4707C188.585 19.4707 185.334 21.5512 185.334 23.6316C185.334 25.7121 189.349 26.4675 189.349 26.4675L188.585 19.4707Z" fill="#263238" stroke="#263238" stroke-linecap="round" stroke-linejoin="round"/>
<path d="M187.4 20.7621C187.4 20.7621 187.767 25.096 188.13 27.5141C188.493 29.9322 190.05 31.9409 190.14 33.5656C190.229 35.1903 193.886 39.1655 195.712 40.5201C197.538 41.8747 200.277 41.4232 201.647 40.3429C203.717 38.566 205.342 36.3386 206.396 33.8357C207.492 31.0378 206.669 26.9739 206.396 25.7079C206.123 24.4419 199.275 19.4961 194.065 19.4961C188.855 19.4961 187.4 20.7621 187.4 20.7621Z" fill="#E5E5E5" stroke="#263238" stroke-linecap="round" stroke-linejoin="round"/>
<path d="M193.152 30.877C193.152 30.877 192.789 34.1306 192.789 34.4007C192.789 34.6707 193.608 35.4852 194.978 34.6707" stroke="#263238" stroke-linecap="round" stroke-linejoin="round"/>
<path d="M198.633 34.6699C198.156 35.2134 197.566 35.6483 196.903 35.9448C196.24 36.2413 195.52 36.3923 194.793 36.3874" stroke="#263238" stroke-linecap="round" stroke-linejoin="round"/>
<path d="M196.027 30.0421C196.129 30.6329 196.428 31.076 196.688 31.0296C196.948 30.9832 197.072 30.4683 196.97 29.8775C196.867 29.2867 196.564 28.8436 196.304 28.8901C196.044 28.9365 195.92 29.4513 196.027 30.0421Z" fill="#263238"/>
<path d="M190.569 31.3499C190.714 31.869 191.021 32.2361 191.248 32.1939C191.474 32.1517 191.542 31.658 191.397 31.1389C191.252 30.6199 190.97 30.2485 190.719 30.2949C190.467 30.3414 190.424 30.8267 190.569 31.3499Z" fill="#263238"/>
<path d="M198.851 27.7162C198.851 27.7162 196.556 26.9608 195.502 28.1888" stroke="#263238" stroke-width="2" stroke-linecap="round" stroke-linejoin="round"/>
<path d="M191.534 28.987C191.138 28.8537 190.708 28.8618 190.319 29.0098C189.929 29.1579 189.604 29.4366 189.4 29.7973" stroke="#263238" stroke-width="2" stroke-linecap="round" stroke-linejoin="round"/>
<path d="M205.4 12.6254C205.4 12.6254 208.673 7.32513 213.136 10.4184C217.599 13.5117 224.229 27.1465 222.13 30.974C220.03 34.8016 207.845 37.1099 207.397 34.0209C206.949 30.9318 207.632 16.7442 206.142 14.6848C204.653 12.6254 205.4 12.6254 205.4 12.6254Z" fill="#263238" stroke="#263238" stroke-linecap="round" stroke-linejoin="round"/>
<path d="M203.2 25.9103C203.2 25.9103 198.267 23.2896 194.065 22.4752C189.862 21.6607 186.671 22.0236 185.958 19.5845C185.246 17.1453 190.139 13.0815 195.255 11.6382C200.371 10.195 206.485 11.7268 208.951 15.3392C211.417 18.9515 210.598 23.2896 209.864 24.9143C209.13 26.539 208.584 27.805 207.219 27.9865C205.854 28.168 203.2 25.9103 203.2 25.9103Z" fill="#263238" stroke="#263238" stroke-linecap="round" stroke-linejoin="round"/>
<path d="M206.77 23.0449C207.271 23.3329 207.721 23.7008 208.101 24.1337" stroke="#E5E5E5" stroke-linecap="round" stroke-linejoin="round"/>
<path d="M189.593 16.8789C189.593 16.8789 188.262 17.6723 192.123 19.2505C194.926 20.3984 200.605 20.7149 204.577 22.0611" stroke="#E5E5E5" stroke-linecap="round" stroke-linejoin="round"/>
<path d="M194.716 15.9629C194.398 15.6188 194.149 15.2177 193.982 14.7812" stroke="#E5E5E5" stroke-linecap="round" stroke-linejoin="round"/>
<path d="M209.032 22.5511C209.032 22.5511 210.23 20.8631 206.1 19.6562C203.114 18.8122 198.847 18.4957 196.172 17.0566" stroke="#E5E5E5" stroke-linecap="round" stroke-linejoin="round"/>
<path d="M205.756 29.3401C205.756 29.3401 206.481 25.8164 208.034 25.8164C209.587 25.8164 209.796 27.4453 209.173 29.4329C208.551 31.4206 207.518 32.0493 206.584 31.4163" fill="#E5E5E5"/>
<path d="M205.756 29.3401C205.756 29.3401 206.481 25.8164 208.034 25.8164C209.587 25.8164 209.796 27.4453 209.173 29.4329C208.551 31.4206 207.518 32.0493 206.584 31.4163" stroke="#263238" stroke-linecap="round" stroke-linejoin="round"/>
<path d="M199.714 82.8965H147.174V84.3819H199.714V82.8965Z" fill="#263238" stroke="#263238" stroke-linecap="round" stroke-linejoin="round"/>
<path d="M199.712 82.8965H181.268V84.3819H199.712V82.8965Z" fill="#E5E5E5" stroke="#263238" stroke-linecap="round" stroke-linejoin="round"/>
<path d="M181.892 82.8971H147.758L144.443 60.4552C144.397 60.2154 144.406 59.9684 144.469 59.7324C144.532 59.4965 144.648 59.2775 144.808 59.0917C144.968 58.9059 145.168 58.7579 145.394 58.6586C145.619 58.5594 145.865 58.5114 146.111 58.5182H176.311C176.854 58.5343 177.374 58.7362 177.783 59.0894C178.193 59.4426 178.465 59.9253 178.555 60.4552L181.892 82.8971Z" fill="#E5E5E5" stroke="#263238" stroke-linecap="round" stroke-linejoin="round"/>
<path d="M181.234 82.8971H147.122L143.786 60.4552C143.741 60.2151 143.75 59.968 143.814 59.7321C143.878 59.4961 143.994 59.2773 144.154 59.0916C144.315 58.9059 144.515 58.758 144.741 58.6588C144.966 58.5596 145.212 58.5115 145.458 58.5182H175.658C176.201 58.5351 176.721 58.7372 177.13 59.0903C177.539 59.4434 177.812 59.9256 177.902 60.4552L181.234 82.8971Z" fill="#9C9C9C" stroke="#263238" stroke-linecap="round" stroke-linejoin="round"/>
<path d="M242.952 84.3828H132.863" stroke="#263238" stroke-linecap="round" stroke-linejoin="round"/>
<path d="M72.3027 129.077C72.3027 129.077 70.8392 128.195 70.596 128.545C69.4739 130.085 66.197 135.01 61.8834 134.364C54.2333 133.217 60.6674 142.045 59.4258 146.953C58.1842 151.861 52.9618 154.127 48.9426 153.198C44.3346 152.148 42.9949 153.814 42.9949 153.814C42.9949 153.814 38.8563 150.46 40.1064 146.602C41.3565 142.745 45.4226 142.382 45.6018 141.344C45.781 140.306 41.1688 140.994 41.8771 135.559C42.5853 130.123 50.3848 125.566 52.6888 125.566C54.9928 125.566 52.3347 124.338 56.5885 119.603C60.8424 114.868 73.4291 116.974 77.8621 120.13C82.2952 123.287 83.0034 129.651 79.637 130.355C76.2706 131.06 72.3027 129.077 72.3027 129.077Z" fill="#263238" stroke="#263238" stroke-linecap="round" stroke-linejoin="round"/>
<path d="M204.894 88H159.889C158.763 88 157.85 88.9031 157.85 90.0172V100.369C157.85 101.483 158.763 102.386 159.889 102.386H204.894C206.02 102.386 206.933 101.483 206.933 100.369V90.0172C206.933 88.9031 206.02 88 204.894 88Z" fill="#E5E5E5" stroke="#263238" stroke-linecap="round" stroke-linejoin="round"/>
<path d="M165.21 93.388V94.232C165.21 95.2996 164.694 95.8778 163.635 95.8778H163.136V98.376H162.078V91.7422H163.635C164.694 91.7422 165.21 92.3203 165.21 93.388ZM163.136 92.6917V94.9494H163.635C163.973 94.9494 164.156 94.7975 164.156 94.3206V93.3247C164.156 92.8478 163.973 92.6959 163.635 92.6959L163.136 92.6917Z" fill="#41BF47"/>
<path d="M166.759 91.7422V96.8737C166.759 97.3506 166.972 97.5194 167.309 97.5194C167.646 97.5194 167.855 97.3506 167.855 96.8737V91.7422H168.854V96.8062C168.854 97.8696 168.316 98.4942 167.279 98.4942C166.243 98.4942 165.705 97.8865 165.705 96.8062V91.7422H166.759Z" fill="#41BF47"/>
<path d="M169.574 91.7422H170.632V97.4434H172.373V98.3929H169.574V91.7422Z" fill="#41BF47"/>
<path d="M172.834 91.7422H173.892V97.4434H175.629V98.3929H172.834V91.7422Z" fill="#41BF47"/>
<path d="M179.792 98.3929C179.702 98.1312 179.669 97.8537 179.694 97.5784V96.5319C179.694 95.9158 179.481 95.6879 179.003 95.6879H178.636V98.3971H177.582V91.7422H179.174C180.27 91.7422 180.739 92.2444 180.739 93.2698V93.7931C180.739 94.4767 180.522 94.9241 180.048 95.1435C180.577 95.363 180.752 95.8651 180.752 96.5614V97.5869C180.732 97.8606 180.772 98.1353 180.867 98.3929H179.792ZM178.636 92.6917V94.7342H179.063C179.455 94.7342 179.698 94.5654 179.698 94.0336V93.3753C179.698 92.9027 179.532 92.6917 179.161 92.6917H178.636Z" fill="#41BF47"/>
<path d="M182.502 94.5274H183.953V95.4769H182.502V97.4265H184.32V98.376H181.436V91.7422H184.32V92.6917H182.494L182.502 94.5274Z" fill="#41BF47"/>
<path d="M184.896 93.3384C184.896 92.275 185.464 91.6504 186.501 91.6504C187.538 91.6504 188.105 92.2581 188.105 93.3384V96.7988C188.116 97.1211 188.047 97.4412 187.904 97.7314C187.951 97.8538 188.028 97.8707 188.199 97.8707H188.297V98.8033H188.16C187.98 98.8244 187.797 98.7925 187.635 98.7114C187.472 98.6304 187.338 98.5038 187.247 98.3475C187.01 98.4306 186.761 98.472 186.509 98.4699C185.472 98.4699 184.905 97.8622 184.905 96.7819L184.896 93.3384ZM185.95 96.8663C185.95 97.339 186.164 97.5204 186.501 97.5204C186.838 97.5204 187.047 97.339 187.047 96.8663V93.2624C187.047 92.7898 186.838 92.6083 186.501 92.6083C186.164 92.6083 185.95 92.7898 185.95 93.2624V96.8663Z" fill="#41BF47"/>
<path d="M189.794 91.7422V96.8737C189.794 97.3506 190.007 97.5194 190.345 97.5194C190.682 97.5194 190.891 97.3506 190.891 96.8737V91.7422H191.889V96.8062C191.889 97.8696 191.351 98.4942 190.315 98.4942C189.278 98.4942 188.74 97.8865 188.74 96.8062V91.7422H189.794Z" fill="#41BF47"/>
<path d="M193.669 94.5274H195.12V95.4769H193.669V97.4265H195.495V98.376H192.615V91.7422H195.495V92.6917H193.669V94.5274Z" fill="#41BF47"/>
<path d="M197.572 91.668C198.6 91.668 199.129 92.2756 199.129 93.356V93.567H198.126V93.2631C198.126 92.7905 197.934 92.609 197.601 92.609C197.269 92.609 197.072 92.7905 197.072 93.2631C197.072 94.6346 199.137 94.892 199.137 96.791C199.137 97.8545 198.6 98.479 197.563 98.479C196.526 98.479 195.984 97.8714 195.984 96.791V96.369H196.983V96.8459C196.983 97.3186 197.196 97.4916 197.533 97.4916C197.87 97.4916 198.079 97.3186 198.079 96.8459C198.079 95.4744 196.014 95.2212 196.014 93.318C196.014 92.2757 196.543 91.668 197.572 91.668Z" fill="#41BF47"/>
<path d="M199.436 91.7422H202.7V92.6917H201.599V98.3929H200.533V92.6917H199.428L199.436 91.7422Z" fill="#41BF47"/>
<path d="M73.8272 87.5903C91.9669 87.5903 106.672 73.046 106.672 55.1047C106.672 37.1634 91.9669 22.6191 73.8272 22.6191C55.6875 22.6191 40.9824 37.1634 40.9824 55.1047C40.9824 73.046 55.6875 87.5903 73.8272 87.5903Z" fill="#272727"/>
<path d="M62.3762 32.5742C63.959 32.5903 65.4881 33.1443 66.707 34.1431C67.9258 35.142 68.7604 36.525 69.0706 38.0602C69.3629 39.5883 69.109 41.1694 68.3524 42.5328C67.5959 43.8962 66.3837 44.9571 64.9234 45.5338C64.8312 45.555 64.7511 45.611 64.7 45.6899C64.649 45.7687 64.6312 45.8642 64.6504 45.9558C64.6504 52.0158 64.6504 58.0771 64.6504 64.1398C64.6381 64.2331 64.6608 64.3276 64.7143 64.4054C64.7678 64.4832 64.8483 64.5388 64.9405 64.5618C66.2284 65.069 67.328 65.9548 68.091 67.0995C68.8539 68.2443 69.2435 69.5929 69.2071 70.9636C69.1513 72.6361 68.4676 74.2281 67.2893 75.429C66.1111 76.6299 64.5227 77.3536 62.8342 77.459C61.1456 77.5644 59.4779 77.0439 58.1563 75.9991C56.8347 74.9542 55.954 73.4599 55.6861 71.8076C55.4498 70.305 55.7365 68.7676 56.4993 67.4473C57.2621 66.1271 58.4557 65.1022 59.8845 64.5407C59.9681 64.5197 60.0409 64.4689 60.089 64.398C60.137 64.3271 60.1569 64.2412 60.1448 64.1567C60.1448 58.0855 60.1448 52.0158 60.1448 45.9474C60.1616 45.8553 60.1422 45.7604 60.0907 45.682C60.0392 45.6036 59.9593 45.5476 59.8674 45.5254C58.4992 44.9852 57.3465 44.0184 56.584 42.7716C55.8216 41.5248 55.491 40.0661 55.6425 38.6168C55.794 37.1674 56.4193 35.8065 57.4236 34.7404C58.4278 33.6743 59.7561 32.9612 61.2071 32.7093C61.5826 32.6417 61.9794 32.6164 62.3762 32.5742ZM64.6546 70.7315C64.6563 70.2883 64.5251 69.8545 64.2775 69.4851C64.03 69.1157 63.6772 68.8272 63.2639 68.656C62.8506 68.4849 62.3952 68.4388 61.9554 68.5236C61.5156 68.6085 61.1111 68.8204 60.7931 69.1326C60.475 69.4448 60.2577 69.8432 60.1686 70.2776C60.0796 70.7119 60.1227 71.1627 60.2926 71.5727C60.4626 71.9828 60.7516 72.3339 61.1232 72.5815C61.4949 72.8291 61.9324 72.9622 62.3805 72.9638C62.6789 72.9683 62.9753 72.9138 63.2522 72.8034C63.529 72.693 63.7808 72.5291 63.9926 72.3211C64.2045 72.1131 64.3722 71.8653 64.4859 71.5924C64.5996 71.3194 64.6569 71.0267 64.6546 70.7315ZM62.3933 37.0896C61.945 37.0888 61.5066 37.2195 61.1334 37.4652C60.7603 37.7109 60.4692 38.0606 60.2971 38.47C60.125 38.8794 60.0795 39.3301 60.1664 39.765C60.2534 40.2 60.4688 40.5996 60.7855 40.9134C61.1022 41.2272 61.5058 41.4411 61.9454 41.5279C62.385 41.6147 62.8408 41.5706 63.255 41.4011C63.6693 41.2316 64.0234 40.9444 64.2725 40.5758C64.5216 40.2072 64.6546 39.7738 64.6546 39.3304C64.661 39.0348 64.6069 38.7409 64.4956 38.4665C64.3842 38.192 64.218 37.9427 64.0068 37.7334C63.7956 37.5241 63.5438 37.3592 63.2665 37.2486C62.9892 37.1379 62.6922 37.0839 62.3933 37.0896Z" fill="#E5E5E5"/>
<path d="M78.2741 41.5829V45.9338L71.584 39.2999L78.2613 32.6914V37.0844H78.5856C79.6224 37.1055 80.6677 37.0844 81.696 37.1519C84.1608 37.4064 86.4738 38.4516 88.2819 40.1279C90.09 41.8042 91.2939 44.0196 91.7098 46.4359C91.8136 47.1006 91.8664 47.7721 91.8677 48.4447C91.8677 53.655 91.8677 58.8596 91.8677 64.0587C91.8544 64.1585 91.8777 64.2597 91.9332 64.344C91.9888 64.4284 92.073 64.4903 92.1706 64.5186C93.4573 65.0292 94.555 65.9172 95.3162 67.0632C96.0775 68.2091 96.4657 69.5581 96.4288 70.9288C96.3726 72.5924 95.6952 74.1763 94.5274 75.3748C93.3596 76.5732 91.7842 77.3013 90.1055 77.4183C88.4268 77.5352 86.7639 77.0329 85.4377 76.0082C84.1115 74.9835 83.2163 73.5092 82.9248 71.8699C82.6635 70.3545 82.9374 68.7963 83.7003 67.4569C84.4632 66.1176 85.6688 65.0786 87.1146 64.5144C87.1946 64.4935 87.2638 64.4438 87.3087 64.3752C87.3537 64.3065 87.3712 64.2238 87.3578 64.1431C87.3578 58.906 87.3578 53.669 87.3578 48.4362C87.4032 47.1674 87.0749 45.9128 86.4129 44.8251C85.7509 43.7373 84.7836 42.8631 83.6288 42.3088C82.7088 41.8259 81.6836 41.5724 80.6421 41.5703C79.9424 41.5703 79.2426 41.5703 78.5472 41.5703L78.2741 41.5829ZM91.872 70.7009C91.8678 70.2589 91.7314 69.8279 91.4801 69.4623C91.2288 69.0966 90.8738 68.8127 90.4597 68.6462C90.0456 68.4797 89.591 68.4381 89.153 68.5266C88.7151 68.6151 88.3134 68.8297 87.9985 69.1435C87.6836 69.4573 87.4696 69.8562 87.3834 70.29C87.2972 70.7238 87.3427 71.1732 87.5141 71.5815C87.6856 71.9898 87.9753 72.3388 88.3468 72.5846C88.7184 72.8304 89.1551 72.962 89.6021 72.9629C89.9013 72.9668 90.1983 72.9115 90.4755 72.8001C90.7527 72.6887 91.0045 72.5234 91.2161 72.3142C91.4277 72.1049 91.5947 71.8558 91.7074 71.5816C91.82 71.3075 91.876 71.0138 91.872 70.7178V70.7009Z" fill="#E5E5E5"/>
</svg>
