<svg width="123" height="109" viewBox="0 0 123 109" fill="none" xmlns="http://www.w3.org/2000/svg">
<path fill-rule="evenodd" clip-rule="evenodd" d="M92.6228 3.14867C96.9847 5.89434 98.6435 12.9779 97.7249 24.9267L96.9167 35.4462L102.364 36.9833C113.911 40.2422 123.555 49.9893 121.871 56.6982C120.635 61.6238 113.714 67.9119 105.302 71.7519L97.6621 75.2392L98.0277 86.8082C98.5421 103.06 95.2014 108.91 85.4013 108.91C80.8457 108.91 70.9121 104.206 65.0492 99.2715L61.0504 95.9062L56.2062 99.7244C41.0114 111.705 28.8328 111.991 25.0264 100.456C24.1719 97.8666 23.7088 91.3617 23.9654 85.5624L24.4221 75.2649L18.1115 72.7784C4.08931 67.2524 -2.80505 57.8876 1.30283 49.9444C3.91739 44.8854 11.8984 39.1041 19.2712 36.9268L25.0366 35.2255L24.2361 24.8164C22.9558 8.16273 26.6557 1.13561 36.7047 1.13561C41.8761 1.13561 52.0842 6.0188 57.3698 11.0226L60.8118 14.2802L66.3501 9.80243C78.2016 0.22081 85.1704 -1.54463 92.6228 3.14867ZM28.8456 13.359C29.5101 10.5556 31.0624 7.52378 32.294 6.6231C33.5269 5.72242 35.4654 4.98468 36.6033 4.98468C39.8311 4.98468 51.2516 11.0739 54.4896 14.5214C57.711 17.9496 57.6494 18.1331 50.4562 26.6165C47.7428 29.815 45.3964 31.0057 39.7452 32.0501C35.7643 32.7865 31.7706 33.106 30.87 32.7596C28.6429 31.9051 27.3613 19.6253 28.8456 13.359ZM67.4483 14.5548C69.0724 12.8265 73.3022 9.96666 76.8494 8.19865C80.3967 6.43065 84.6149 4.98468 86.2236 4.98468C91.8441 4.98468 95.349 15.73 93.3374 26.7961C92.3329 32.3246 92.1083 32.5607 88.0402 32.3644C78.0502 31.8833 75.3459 30.658 69.8807 24.1287L64.4963 17.6982L67.4483 14.5548ZM53.3427 30.0036L56.6154 25.8338C58.4153 23.5411 60.3846 21.664 60.9901 21.664C62.4231 21.664 67.8768 29.3134 67.0403 30.1499C66.6875 30.5014 63.4623 30.6118 59.8714 30.3962L53.3427 30.0036ZM39.1756 54.6698C39.1756 53.5317 41.6259 48.5266 44.6215 43.5472L50.0674 34.4942H61.2082H72.349L78.4646 44.3068L84.579 54.1193L80.1876 62.341C73.3407 75.1558 72.7711 75.551 61.1338 75.551C53.2029 75.551 50.7089 75.084 49.1463 73.3057C46.0276 69.7568 39.1756 56.951 39.1756 54.6698ZM34.6135 45.8823C31.5025 39.9381 31.8181 37.8519 35.9683 36.9333C40.8331 35.8555 43.0243 35.6464 43.0243 36.2571C43.0243 36.5214 41.4912 39.4813 39.6169 42.8339C36.2403 48.8756 36.1954 48.9039 34.6135 45.8823ZM82.4083 42.9314C80.5032 39.5249 78.9457 36.4945 78.9457 36.1994C78.9457 35.4321 88.3879 37.2091 89.4591 38.1778C89.9505 38.6217 89.3437 41.2673 88.1108 44.0553L85.8696 49.1271L82.4083 42.9314ZM4.53704 54.68C4.53704 51.1145 12.3653 44.0951 18.9351 41.7702C21.9538 40.7028 25.002 39.7828 25.7114 39.7277C26.4209 39.6725 28.344 43.0905 29.9861 47.3245L32.9701 55.0226L29.9861 62.7207C28.344 66.9547 26.2413 70.4189 25.3112 70.4189C24.3823 70.4189 20.4964 68.9408 16.6772 67.1331C9.2158 63.6035 4.53704 58.8037 4.53704 54.68ZM89.1589 54.8006L92.0712 47.2321C93.6722 43.07 95.739 39.6558 96.6652 39.6456C100.008 39.6084 112.297 46.2724 114.835 49.5005C118.502 54.1617 118.077 57.3231 113.165 61.9278C108.612 66.1952 97.0783 71.122 95.4837 69.481C94.9551 68.9383 93.3168 65.4138 91.8415 61.6481L89.1589 54.8006ZM31.4781 71.6942C31.4781 71.1656 32.3954 68.5367 33.5166 65.8539L35.5552 60.9745L39.3731 67.11C41.4732 70.4843 42.9422 73.4943 42.6381 73.7997C41.7478 74.6901 31.4781 72.7527 31.4781 71.6942ZM78.9457 73.8458C78.9457 73.5507 80.4377 70.637 82.262 67.373C84.0876 64.109 85.8478 61.4377 86.1775 61.4377C87.4655 61.4377 90.6048 70.8141 89.6169 71.7147C88.4405 72.7899 78.9457 74.6862 78.9457 73.8458ZM29.7936 99.9284C27.5024 95.502 27.4357 84.7426 29.6641 78.9356C30.1426 77.6859 31.3922 77.0162 32.5917 77.3639C33.7437 77.6975 37.4295 78.3582 40.7818 78.8317C46.0301 79.572 47.594 80.5471 52.0175 85.8306C54.8553 89.219 56.845 92.7794 56.4615 93.7789C55.2196 97.0147 41.9685 104.124 36.8958 104.275C32.6751 104.402 31.8489 103.897 29.7936 99.9284ZM67.2802 89.9375C73.9064 80.9063 75.8295 79.3243 81.5115 78.2286L81.5201 78.227C87.8617 77.0037 90.6304 76.4697 92.011 77.6126C93.0808 78.4983 93.3172 80.3908 93.7367 83.7499L93.7376 83.7572C95.1617 95.1556 91.83 105.061 86.5726 105.061C82.8727 105.061 76.5813 102.138 70.2322 97.4689L64.726 93.4196L67.2802 89.9375ZM57.7777 85.4226C56.0137 83.4429 54.5704 81.3182 54.5704 80.701C54.5704 80.0839 57.4519 79.6823 60.9747 79.8106C64.4976 79.9376 67.3841 80.4419 67.3893 80.932C67.3944 81.4221 65.9563 83.4429 64.1923 85.4226L60.985 89.0227L57.7777 85.4226Z" fill="#F1F1F1"/>
<path d="M68.2796 47.5477C74.6993 53.5805 69.8858 65.2868 60.985 65.2868C52.2266 65.2868 47.4837 54.145 53.5108 47.7273C57.1914 43.8103 64.2102 43.7256 68.2796 47.5477Z" fill="#F1F1F1"/>
</svg>
