<svg width="183" height="124" viewBox="0 0 183 124" fill="none" xmlns="http://www.w3.org/2000/svg">
<path d="M69.3153 13.7855L68.6301 13.6118L68.0725 13.9222C67.5579 14.2088 66.8028 14.6294 65.8411 15.1655C63.9179 16.2377 61.1684 17.7717 57.8637 19.6188C51.2543 23.3133 42.4244 28.2603 33.542 33.2712C24.659 38.2823 15.7254 43.3562 8.90785 47.3046C5.49854 49.2791 2.62165 50.9703 0.545845 52.2307C-0.222873 52.6975 -0.879054 53.1036 -1.41039 53.4421C17.167 54.6057 40.4896 63.5581 59.3449 72.3147C69.1192 76.8541 77.7201 81.3539 83.8774 84.7188C86.9563 86.4014 89.4248 87.8005 91.1243 88.7795C91.9741 89.2689 92.6316 89.6534 93.0771 89.9157C93.1273 89.9452 93.1748 89.9732 93.2196 89.9997C93.2281 89.9875 93.2367 89.975 93.2455 89.9624C93.4961 89.6029 93.867 89.0755 94.3494 88.4024C95.3142 87.0562 96.7251 85.1265 98.5119 82.7893C102.085 78.1157 107.164 71.8088 113.187 65.2778C119.209 58.7485 126.185 51.9845 133.552 46.4035C140.126 41.4231 147.043 37.3609 153.896 35.2642C147.238 33.5618 128.831 28.8866 110.788 24.307C100.054 21.5825 89.45 18.8925 81.5299 16.8835L71.9816 14.4617L69.3153 13.7855Z" stroke="#ED1C24"/>
<path opacity="0.5" d="M95.621 104.627C95.7009 104.68 95.775 104.729 95.8431 104.774C95.8641 104.74 95.8861 104.706 95.9089 104.67C96.1921 104.221 96.6113 103.562 97.1567 102.721C98.2474 101.04 99.8427 98.6291 101.863 95.7091C105.904 89.8699 111.647 81.9902 118.459 73.8308C125.269 65.6732 133.156 57.224 141.484 50.2531C149.088 43.8886 157.097 38.7251 165.02 36.1629C157.99 34.1749 136.632 28.1814 115.707 22.3137C103.562 18.9081 91.5652 15.5455 82.6044 13.0342L71.8015 10.007L68.7849 9.16183L67.9913 8.93947L67.9849 8.93768L67.3781 9.27857C66.8248 9.5896 66.0121 10.0467 64.9747 10.6309C62.8998 11.7994 59.9263 13.4765 56.3315 15.5106C49.1419 19.579 39.468 25.0756 29.5298 30.7887C19.5912 36.5022 9.39076 42.4309 1.14737 47.3638C-5.67509 51.4465 -11.1161 54.8234 -13.9724 56.832C7.13432 58.2176 34.2721 70.0092 56.2959 81.5487C67.6515 87.4986 77.6795 93.399 84.8686 97.8117C88.4634 100.018 91.349 101.853 93.3366 103.137C94.3304 103.779 95.0998 104.283 95.621 104.627Z" stroke="#ED1C24"/>
<path opacity="0.3" d="M98.3617 121.107C98.4761 121.19 98.5799 121.265 98.6732 121.333C98.7123 121.268 98.7545 121.197 98.7997 121.121C99.1301 120.568 99.6192 119.757 100.255 118.721C101.528 116.649 103.388 113.679 105.743 110.082C110.452 102.889 117.142 93.1856 125.061 83.1476C132.978 73.1116 142.133 62.7281 151.777 54.1825C160.738 46.2416 170.163 39.8495 179.441 36.8259C171.931 34.4523 146.939 26.6217 122.465 18.9589C108.552 14.6028 94.809 10.3017 84.5439 7.08959L72.1685 3.21746L68.7127 2.13632L67.8036 1.8519L67.7747 1.84288L67.0614 2.26443C66.4288 2.63844 65.4995 3.18823 64.3129 3.89128C61.9397 5.29741 58.5374 7.31658 54.4209 9.76865C46.1877 14.6729 35.0984 21.3084 23.673 28.2342C12.2471 35.1603 0.487525 42.3752 -9.08697 48.4384C-17.389 53.6958 -24.0063 58.0616 -27.3538 60.6226C-15.4853 61.5092 -1.97452 65.5429 11.6683 71.125C25.9852 76.9829 40.4908 84.5644 53.4629 92.0643C66.4365 99.5652 77.886 106.99 86.0918 112.54C90.195 115.315 93.4879 117.621 95.7556 119.235C96.8895 120.041 97.7672 120.675 98.3617 121.107Z" stroke="#ED1C24"/>
</svg>
