<svg width="226" height="279" viewBox="0 0 226 279" fill="none" xmlns="http://www.w3.org/2000/svg">
<path d="M112.975 168.786L112.29 168.612L111.733 168.922C111.218 169.209 110.463 169.629 109.501 170.165C107.578 171.238 104.829 172.772 101.524 174.619C94.9145 178.313 86.0846 183.26 77.2021 188.271C68.3192 193.282 59.3856 198.356 52.568 202.305C49.1587 204.279 46.2818 205.97 44.206 207.231C43.4373 207.697 42.7811 208.104 42.2498 208.442C60.8271 209.606 84.1498 218.558 103.005 227.315C112.779 231.854 121.38 236.354 127.538 239.719C130.616 241.401 133.085 242.801 134.784 243.779C135.634 244.269 136.292 244.653 136.737 244.916C136.787 244.945 136.835 244.973 136.88 245C136.888 244.987 136.897 244.975 136.906 244.962C137.156 244.603 137.527 244.076 138.01 243.402C138.974 242.056 140.385 240.126 142.172 237.789C145.745 233.116 150.824 226.809 156.848 220.278C162.87 213.748 169.845 206.985 177.212 201.404C183.786 196.423 190.703 192.361 197.556 190.264C190.899 188.562 172.492 183.887 154.448 179.307C143.714 176.583 133.11 173.892 125.19 171.883L115.642 169.462L112.975 168.786Z" stroke="#ED1C24"/>
<path opacity="0.5" d="M139.281 259.627C139.361 259.68 139.435 259.729 139.503 259.774C139.524 259.74 139.546 259.706 139.569 259.67C139.852 259.221 140.271 258.562 140.817 257.721C141.908 256.04 143.503 253.629 145.523 250.709C149.564 244.87 155.308 236.99 162.119 228.831C168.929 220.673 176.816 212.224 185.144 205.253C192.748 198.889 200.757 193.725 208.68 191.163C201.65 189.175 180.292 183.181 159.367 177.314C147.222 173.908 135.225 170.545 126.265 168.034L115.462 165.007L112.445 164.162L111.651 163.939L111.645 163.938L111.038 164.279C110.485 164.59 109.672 165.047 108.635 165.631C106.56 166.799 103.586 168.476 99.9917 170.511C92.8021 174.579 83.1281 180.076 73.19 185.789C63.2513 191.502 53.0509 197.431 44.8075 202.364C37.9851 206.447 32.5441 209.823 29.6877 211.832C50.7945 213.218 77.9322 225.009 99.9561 236.549C111.312 242.499 121.34 248.399 128.529 252.812C132.124 255.018 135.009 256.853 136.997 258.137C137.991 258.779 138.76 259.283 139.281 259.627Z" stroke="#ED1C24"/>
<path opacity="0.3" d="M142.022 276.107C142.136 276.19 142.24 276.265 142.333 276.333C142.373 276.268 142.415 276.197 142.46 276.121C142.79 275.568 143.279 274.757 143.915 273.721C145.188 271.649 147.048 268.679 149.403 265.082C154.113 257.889 160.802 248.186 168.721 238.148C176.638 228.112 185.794 217.728 195.437 209.182C204.399 201.242 213.823 194.849 223.102 191.826C215.591 189.452 190.599 181.622 166.125 173.959C152.212 169.603 138.469 165.302 128.204 162.09L115.829 158.217L112.373 157.136L111.464 156.852L111.435 156.843L110.722 157.264C110.089 157.638 109.16 158.188 107.973 158.891C105.6 160.297 102.198 162.317 98.081 164.769C89.8479 169.673 78.7586 176.308 67.3332 183.234C55.9072 190.16 44.1477 197.375 34.5732 203.438C26.2711 208.696 19.6538 213.062 16.3064 215.623C28.1749 216.509 41.6856 220.543 55.3284 226.125C69.6454 231.983 84.151 239.564 97.123 247.064C110.097 254.565 121.546 261.99 129.752 267.54C133.855 270.315 137.148 272.621 139.416 274.235C140.55 275.041 141.427 275.675 142.022 276.107Z" stroke="#ED1C24"/>
<path d="M119.637 38.8932C125.075 34.7733 130.797 31.3929 136.479 29.5896C130.586 28.0838 115.382 24.2221 100.471 20.4377C91.416 18.1394 82.4712 15.8702 75.7901 14.1755L67.7356 12.1326L65.4864 11.5622L64.9485 11.4258L64.5144 11.6675C64.0803 11.9092 63.4433 12.2641 62.6321 12.7163C61.0098 13.6207 58.6904 14.9147 55.9028 16.4729C50.3274 19.5893 42.879 23.7624 35.3863 27.9893C27.8931 32.2164 20.3575 36.4963 14.6069 39.8267C11.7312 41.4922 9.30508 42.9184 7.55496 43.9811C7.0317 44.2988 6.57061 44.583 6.17703 44.8306C21.817 45.8953 41.3475 53.4027 57.1453 60.7394C65.3931 64.5698 72.6506 68.3668 77.846 71.2061C80.444 72.6258 82.5271 73.8065 83.9613 74.6326C84.6784 75.0457 85.2334 75.3702 85.6095 75.5916C85.622 75.599 85.6343 75.6062 85.6464 75.6134C85.8571 75.3116 86.1588 74.8832 86.545 74.3442C87.3594 73.2078 88.5502 71.5791 90.0582 69.6066C93.0736 65.6623 97.3602 60.3395 102.444 54.8273C107.527 49.3166 113.416 43.6061 119.637 38.8932Z" stroke="#ED1C24"/>
<path opacity="0.5" d="M87.7593 88.0042C87.7934 88.0267 87.8262 88.0484 87.8578 88.0693C88.0969 87.6904 88.4503 87.1352 88.9098 86.4269C89.8303 85.0076 91.1767 82.9732 92.8818 80.5091C96.2914 75.5816 101.138 68.9319 106.887 62.0459C112.634 55.1617 119.291 48.0292 126.323 42.1435C132.639 36.8576 139.291 32.5469 145.887 30.3451C139.644 28.581 121.955 23.6171 104.617 18.7553C94.3725 15.8825 84.2523 13.0459 76.6934 10.9276L67.5805 8.37397L65.0358 7.66097L64.4025 7.48354L63.9283 7.74995C63.4616 8.0123 62.776 8.39787 61.901 8.8907C60.1508 9.87636 57.6424 11.291 54.6101 13.0069C48.5454 16.4388 40.385 21.0753 32.0019 25.8946C23.6182 30.7141 15.0142 35.7149 8.06115 39.8757C2.48963 43.2098 -1.98341 45.9823 -4.44461 47.6893C13.3422 48.9495 36.1018 58.8506 54.5771 68.5309C64.1588 73.5513 72.6202 78.5299 78.6861 82.2532C81.7192 84.115 84.1541 85.6634 85.8314 86.7468C86.67 87.2885 87.3193 87.7139 87.7593 88.0042Z" stroke="#ED1C24"/>
<path opacity="0.3" d="M90.0752 101.909C90.1355 101.952 90.1923 101.994 90.2456 102.032C90.2612 102.006 90.2773 101.979 90.2939 101.952C90.5728 101.485 90.9856 100.8 91.5224 99.9259C92.5961 98.1774 94.1661 95.671 96.1533 92.6358C100.127 86.5663 105.772 78.3782 112.454 69.9074C119.135 61.4387 126.863 52.6745 135.004 45.4602C142.469 38.845 150.323 33.4958 158.071 30.8991C151.385 28.788 130.639 22.2879 110.315 15.9245C98.5792 12.2499 86.9859 8.62166 78.3266 5.91205L67.8872 2.64568L64.9721 1.73368L64.2251 1.49999L63.6633 1.83199C63.1297 2.14747 62.3458 2.61124 61.3449 3.20429C59.343 4.3904 56.473 6.09366 53.0006 8.16208C46.0556 12.299 36.7013 17.8963 27.0636 23.7385C17.4253 29.581 7.50611 35.6667 -0.569707 40.7808C-7.40043 45.1065 -12.8725 48.7126 -15.7532 50.8879C-5.79185 51.678 5.51419 55.066 16.9223 59.7337C29.0053 64.6777 41.2461 71.0755 52.1913 77.4036C63.138 83.7325 72.7984 89.9975 79.7219 94.6799C83.184 97.0213 85.9624 98.9675 87.876 100.329C88.8328 101.009 89.5734 101.544 90.0752 101.909Z" stroke="#ED1C24"/>
</svg>
