<svg width="410" height="368" viewBox="0 0 410 368" fill="none" xmlns="http://www.w3.org/2000/svg">
<path d="M26.3457 299.426C63.8477 300.661 123.265 336.033 123.265 336.033C123.265 336.033 156.314 287.839 186.44 280.794C182.251 279.701 98.3545 258.61 98.3545 258.61C98.3545 258.61 28.0367 297.395 26.3457 299.426Z" stroke="#ED1C24"/>
<path opacity="0.5" d="M13.8496 302.787C56.2793 304.332 125.896 350.742 125.896 350.742C125.896 350.742 163.288 290.499 197.372 281.693C192.632 280.327 97.7126 253.963 97.7126 253.963C97.7126 253.963 22.3245 295.901 13.8496 302.787Z" stroke="#ED1C24"/>
<path opacity="0.3" d="M0.57222 306.539C49.3005 308.916 128.729 367.221 128.729 367.221C128.729 367.221 172.406 292.93 211.67 282.383C206.241 280.637 97.5036 246.913 97.5036 246.913C97.5036 246.913 11.3536 297.311 0.57222 306.539Z" stroke="#ED1C24"/>
<path d="M361.406 201.403C367.996 196.423 374.928 192.361 381.797 190.264C375.124 188.562 356.674 183.887 338.588 179.307C327.828 176.583 317.199 173.893 309.261 171.884L299.69 169.462L297.017 168.786L296.329 168.612L295.769 168.923C295.253 169.209 294.497 169.63 293.533 170.166C291.605 171.238 288.849 172.772 285.536 174.619C278.911 178.314 270.061 183.261 261.157 188.272C252.253 193.283 243.298 198.357 236.465 202.305C233.047 204.279 230.164 205.971 228.083 207.231C227.313 207.698 226.655 208.104 226.123 208.442C244.743 209.605 268.121 218.558 287.021 227.314C296.819 231.854 305.44 236.354 311.612 239.718C314.698 241.401 317.172 242.8 318.876 243.779C319.727 244.269 320.386 244.653 320.833 244.915C320.884 244.945 320.932 244.974 320.978 245.001C320.987 244.988 320.996 244.975 321.005 244.962C321.256 244.602 321.628 244.075 322.111 243.402C323.078 242.056 324.493 240.126 326.284 237.789C329.865 233.115 334.956 226.808 340.994 220.277C347.03 213.748 354.022 206.984 361.406 201.403Z" stroke="#ED1C24"/>
<path opacity="0.5" d="M323.379 259.627C323.46 259.68 323.535 259.729 323.604 259.775C323.625 259.741 323.647 259.706 323.671 259.669C323.955 259.22 324.375 258.562 324.921 257.721C326.015 256.039 327.614 253.628 329.639 250.708C333.689 244.869 339.446 236.99 346.274 228.83C353.1 220.673 361.006 212.223 369.354 205.253C376.975 198.888 385.003 193.725 392.944 191.163C385.897 189.175 364.489 183.181 343.515 177.314C331.341 173.908 319.316 170.546 310.334 168.034L299.506 165.007L296.482 164.162L295.686 163.94L295.679 163.937L295.07 164.279C294.515 164.59 293.7 165.047 292.66 165.631C290.581 166.8 287.6 168.477 283.997 170.511C276.79 174.579 267.093 180.076 257.132 185.789C247.17 191.503 236.945 197.431 228.682 202.364C221.844 206.447 216.391 209.823 213.527 211.832C234.683 213.217 261.885 225.009 283.961 236.548C295.343 242.498 305.395 248.399 312.601 252.811C316.205 255.018 319.097 256.853 321.089 258.137C322.085 258.779 322.857 259.283 323.379 259.627Z" stroke="#ED1C24"/>
<path opacity="0.3" d="M326.128 276.109C326.243 276.193 326.348 276.269 326.442 276.338C326.481 276.271 326.524 276.2 326.57 276.124C326.901 275.571 327.391 274.759 328.029 273.723C329.304 271.652 331.169 268.681 333.529 265.085C338.25 257.892 344.955 248.188 352.892 238.15C360.827 228.115 370.005 217.731 379.671 209.186C388.653 201.245 398.099 194.854 407.399 191.831C399.87 189.457 374.82 181.626 350.288 173.962C336.342 169.606 322.566 165.305 312.277 162.092L299.872 158.22L296.408 157.139L295.497 156.854L295.467 156.845L294.751 157.267C294.117 157.641 293.185 158.191 291.996 158.894C289.617 160.3 286.207 162.319 282.08 164.771C273.828 169.675 262.713 176.31 251.26 183.236C239.808 190.162 228.02 197.376 218.423 203.439C210.102 208.696 203.47 213.061 200.114 215.623C212.011 216.509 225.553 220.543 239.229 226.126C253.579 231.984 268.119 239.566 281.122 247.066C294.127 254.567 305.603 261.992 313.828 267.542C317.941 270.317 321.242 272.624 323.515 274.237C324.652 275.044 325.532 275.677 326.128 276.109Z" stroke="#ED1C24"/>
<path d="M187.977 45.397C219.644 46.4467 269.817 76.5039 269.817 76.5039C269.817 76.5039 297.725 35.5511 323.163 29.565C319.626 28.6364 248.782 10.7145 248.782 10.7145C248.782 10.7145 189.404 43.6713 187.977 45.397Z" stroke="#ED1C24"/>
<path opacity="0.5" d="M177.426 48.2548C213.254 49.567 272.04 89.0039 272.04 89.0039C272.04 89.0039 303.615 37.813 332.396 30.3302C328.394 29.1695 248.241 6.76715 248.241 6.76715C248.241 6.76715 184.582 42.4031 177.426 48.2548Z" stroke="#ED1C24"/>
<path opacity="0.3" d="M166.213 51.4422C207.36 53.4624 274.432 103.007 274.432 103.007C274.432 103.007 311.313 39.8799 344.468 30.9176C339.884 29.4344 248.064 0.777059 248.064 0.777059C248.064 0.777059 175.317 43.6015 166.213 51.4422Z" stroke="#ED1C24"/>
</svg>
