<svg width="22" height="22" viewBox="0 0 22 22" fill="none" xmlns="http://www.w3.org/2000/svg">
<path d="M13.8672 11.2314C13.5065 10.9992 13.1145 10.8194 12.7032 10.6974C12.4182 10.6123 12.1311 10.5342 11.8422 10.4634C11.4994 10.3695 11.1539 10.2854 10.8062 10.2114C10.289 10.1023 9.78136 9.95179 9.28821 9.7614C8.96762 9.63518 8.68537 9.42772 8.46921 9.1594C8.28253 8.90826 8.18917 8.59992 8.20521 8.2874C8.20521 7.9634 8.31121 7.6474 8.50921 7.3914C8.75021 7.0944 9.06921 6.8714 9.43121 6.7484C9.9453 6.56872 10.4878 6.48434 11.0322 6.4994C11.4572 6.4934 11.8812 6.5514 12.2892 6.6694C12.5862 6.7534 12.8662 6.8914 13.1132 7.0764C13.2962 7.2104 13.4502 7.3794 13.5662 7.5734C13.6291 7.69023 13.7358 7.7773 13.8628 7.81547C13.9899 7.85363 14.1269 7.83976 14.2437 7.7769C14.3605 7.71405 14.4476 7.60736 14.4858 7.4803C14.5239 7.35324 14.5101 7.21623 14.4472 7.0994C14.2673 6.78618 14.0258 6.51268 13.7372 6.2954C13.3926 6.03252 13.0024 5.83555 12.5862 5.7144C12.0818 5.56584 11.558 5.49338 11.0322 5.4994C10.3647 5.48375 9.70001 5.59086 9.07121 5.8154C8.53537 6.0074 8.0637 6.34505 7.70921 6.7904C7.38221 7.2204 7.20521 7.7464 7.20521 8.2874C7.19052 8.82226 7.35801 9.34624 7.68022 9.7734C8.00422 10.1794 8.42721 10.4944 8.91021 10.6874C9.32121 10.8454 9.74321 10.9774 10.1722 11.0804C10.1802 11.0834 10.1872 11.0904 10.1962 11.0934C10.3792 11.1474 10.6742 11.2214 11.0962 11.3134C11.2692 11.3504 11.4312 11.3914 11.5942 11.4324C11.6242 11.4404 11.6642 11.4494 11.6922 11.4584C11.7042 11.4624 11.7162 11.4614 11.7282 11.4634C11.9682 11.5254 12.1992 11.5904 12.4122 11.6544C12.7302 11.7484 13.0342 11.8864 13.3132 12.0644C13.5232 12.2004 13.7002 12.3844 13.8282 12.6004C13.9582 12.8504 14.0202 13.1304 14.0112 13.4134C14.0292 13.7864 13.9202 14.1554 13.7012 14.4574C13.4441 14.7987 13.0942 15.0587 12.6932 15.2064C12.1572 15.4164 11.5842 15.5164 11.0082 15.4994C10.3408 15.5227 9.6776 15.3855 9.07421 15.0994C8.7545 14.9285 8.47996 14.6842 8.27321 14.3864C8.10415 14.1597 8.00478 13.8887 7.98722 13.6064C7.98722 13.4738 7.93454 13.3466 7.84077 13.2528C7.747 13.1591 7.61982 13.1064 7.48722 13.1064C7.35461 13.1064 7.22743 13.1591 7.13366 13.2528C7.03989 13.3466 6.98722 13.4738 6.98722 13.6064C7.00422 14.0914 7.16522 14.5604 7.45021 14.9534C7.75022 15.3864 8.14921 15.7414 8.61421 15.9864C9.35917 16.348 10.1805 16.524 11.0082 16.4994C11.7162 16.5175 12.4204 16.3917 13.0782 16.1294C13.653 15.9115 14.1524 15.5319 14.5162 15.0364C14.8602 14.5602 15.0345 13.9824 15.0112 13.3954C15.0267 12.9661 14.9292 12.5403 14.7284 12.1605C14.5277 11.7807 14.2307 11.4604 13.8672 11.2314ZM20.8412 12.7674C21.1275 11.1799 21.0253 9.54675 20.5432 8.00739C20.0612 6.46803 19.2136 5.06824 18.073 3.92762C16.9324 2.787 15.5326 1.93946 13.9932 1.4574C12.4539 0.97534 10.8207 0.873097 9.23321 1.1594C8.10392 0.582184 6.82077 0.377652 5.56799 0.575174C4.31521 0.772695 3.15724 1.36211 2.26033 2.25879C1.36343 3.15548 0.773726 4.3133 0.575894 5.56604C0.378061 6.81877 0.582275 8.10197 1.15921 9.2314C0.872616 10.819 0.974691 12.4524 1.45671 13.992C1.93873 15.5315 2.78637 16.9315 3.92717 18.0722C5.06797 19.2129 6.46801 20.0604 8.00762 20.5423C9.54723 21.0242 11.1806 21.1261 12.7682 20.8394C13.8975 21.417 15.1807 21.6218 16.4336 21.4243C17.6866 21.2269 18.8447 20.6375 19.7416 19.7406C20.6385 18.8438 21.2281 17.6858 21.4257 16.4329C21.6233 15.18 21.4186 13.8967 20.8412 12.7674ZM17.9132 19.8794C17.1746 20.2862 16.345 20.4995 15.5017 20.4995C14.6584 20.4995 13.8289 20.2862 13.0902 19.8794C12.9869 19.8227 12.8669 19.804 12.7512 19.8264C11.3003 20.1154 9.80047 20.0421 8.38467 19.6129C6.96887 19.1837 5.68081 18.4118 4.63465 17.3657C3.58848 16.3197 2.81651 15.0317 2.38716 13.6159C1.9578 12.2002 1.88432 10.7004 2.17321 9.2494C2.19593 9.13401 2.17716 9.0143 2.12021 8.9114C1.59853 7.96252 1.39898 6.86992 1.55158 5.79789C1.70418 4.72587 2.20067 3.73235 2.96641 2.96672C3.73215 2.2011 4.72574 1.70475 5.79779 1.55231C6.86984 1.39987 7.96241 1.59958 8.91121 2.1214C9.01402 2.17971 9.13466 2.19822 9.25021 2.1734C10.7009 1.88487 12.2004 1.95855 13.6159 2.3879C15.0313 2.81725 16.319 3.58903 17.365 4.63488C18.4109 5.68073 19.1828 6.96838 19.6123 8.38379C20.0418 9.79919 20.1156 11.2987 19.8272 12.7494C19.8043 12.8651 19.8231 12.9852 19.8802 13.0884C20.5197 14.2497 20.6717 15.6174 20.3028 16.8907C19.934 18.1641 19.0744 19.2388 17.9132 19.8784V19.8794Z" fill="#1C1C1C"/>
</svg>
