<svg width="38" height="48" viewBox="0 0 38 48" fill="none" xmlns="http://www.w3.org/2000/svg">
<path d="M2.33888 0.107422H25.8978C26.1033 0.107422 26.2886 0.194345 26.4226 0.334514L37.7214 12.0433C37.8654 12.1925 37.9374 12.3882 37.9374 12.5839V45.5361C37.9374 46.1851 37.6819 46.7749 37.2699 47.2018C36.858 47.6287 36.2893 47.8936 35.6626 47.8936H2.33836C1.71211 47.8936 1.14294 47.6287 0.731006 47.2018C0.319077 46.7749 0.0634766 46.1856 0.0634766 45.5361V2.46546C0.0634766 1.81649 0.319066 1.22666 0.731006 0.799787C1.14295 0.372913 1.71166 0.10804 2.33836 0.10804L2.33888 0.107422ZM25.5931 1.63655H2.33888C2.11974 1.63655 1.92035 1.72984 1.77499 1.88049C1.62964 2.03113 1.5396 2.23774 1.5396 2.46483V45.5355C1.5396 45.7626 1.62962 45.9692 1.77499 46.1199C1.92036 46.2705 2.11974 46.3638 2.33888 46.3638H35.6631C35.8822 46.3638 36.0816 46.2705 36.227 46.1199C36.3723 45.9692 36.4624 45.7626 36.4624 45.5355V12.9002L25.5931 1.63655Z" fill="#F1F1F1"/>
<path d="M33.2121 47.8923H4.77276C4.41704 47.8923 4.12016 47.6316 4.05034 47.2843C4.0253 47.1915 4.00642 47.0996 3.99324 47.009C3.97656 46.8929 3.96777 46.7773 3.96777 46.6631V37.9981C3.96777 37.3491 4.22336 36.7592 4.6353 36.3324C5.04724 35.9055 5.61596 35.6406 6.24266 35.6406H31.7577C32.384 35.6406 32.9532 35.9055 33.3651 36.3324C33.777 36.7593 34.0326 37.3486 34.0326 37.9981V46.6631C34.0326 46.7769 34.0238 46.8925 34.0072 47.009C33.9909 47.1214 33.9654 47.2361 33.9312 47.3517L33.9334 47.3521C33.8341 47.6862 33.5342 47.8992 33.2127 47.8923L33.2121 47.8923ZM5.44282 46.3632H32.5566V37.998C32.5566 37.7709 32.4666 37.5643 32.3212 37.4137C32.1758 37.2631 31.9765 37.1698 31.7573 37.1698H6.24224C6.0231 37.1698 5.82371 37.2631 5.67836 37.4137C5.53299 37.5643 5.44296 37.7709 5.44296 37.998L5.44282 46.3632Z" fill="#F1F1F1"/>
<path d="M16.826 38.6167H18.0495V42.6029C18.0495 43.1235 18.0043 43.5249 17.9164 43.8052C17.7974 44.1716 17.5827 44.4665 17.27 44.6877C16.9573 44.9107 16.5458 45.0203 16.0351 45.0203C15.4352 45.0203 14.9741 44.8474 14.65 44.4983C14.3277 44.1511 14.1634 43.6409 14.1621 42.9678L15.318 42.8299C15.332 43.1904 15.383 43.4457 15.4708 43.5954C15.6039 43.8211 15.8059 43.934 16.0764 43.934C16.3496 43.934 16.5432 43.8534 16.6565 43.6905C16.7698 43.5294 16.8265 43.1936 16.8265 42.6834V38.6167L16.826 38.6167ZM19.0441 42.865L20.2382 42.7435C20.3089 43.1599 20.4547 43.4649 20.6752 43.6596C20.8943 43.8531 21.1903 43.9514 21.5636 43.9514C21.9584 43.9514 22.2566 43.8649 22.4564 43.6906C22.6571 43.5176 22.7577 43.3151 22.7577 43.0835C22.7577 42.9338 22.7151 42.8077 22.6304 42.7039C22.5469 42.5984 22.3998 42.5073 22.189 42.4313C22.0463 42.3785 21.7178 42.2875 21.207 42.1556C20.5491 41.9872 20.088 41.7787 19.8232 41.5325C19.4494 41.1866 19.2628 40.7643 19.2628 40.266C19.2628 39.9451 19.3506 39.6457 19.5258 39.3658C19.7011 39.0873 19.9545 38.8748 20.2843 38.7282C20.6154 38.583 21.0129 38.5098 21.4797 38.5098C22.2439 38.5098 22.8166 38.6827 23.203 39.0286C23.5877 39.3758 23.7901 39.8377 23.8099 40.4171L22.5833 40.4726C22.5311 40.1486 22.4178 39.9156 22.2452 39.7749C22.0726 39.6329 21.8135 39.5624 21.4683 39.5624C21.1117 39.5624 20.8315 39.637 20.6308 39.7895C20.5008 39.8864 20.4354 40.0166 20.4354 40.1795C20.4354 40.3293 20.496 40.4567 20.6181 40.5623C20.7722 40.697 21.1486 40.8381 21.7454 40.9832C22.3422 41.1298 22.7835 41.2809 23.0694 41.436C23.3553 41.5931 23.5788 41.8056 23.7413 42.0768C23.9025 42.3481 23.9833 42.6821 23.9833 43.0794C23.9833 43.4398 23.8871 43.7789 23.6935 44.0925C23.4998 44.4078 23.2266 44.6422 22.8731 44.7947C22.5196 44.9485 22.0782 45.0249 21.5503 45.0249C20.7822 45.0249 20.192 44.8415 19.7805 44.4738C19.369 44.1056 19.1226 43.5691 19.0436 42.8655L19.0441 42.865Z" fill="#F1F1F1"/>
<path d="M37.1331 13.3443L25.9269 13.3107V12.5493L25.9247 13.3138C25.5172 13.3125 25.1878 12.9693 25.1891 12.547C25.1891 12.5256 25.19 12.5047 25.1918 12.4837L25.1632 0.873804H25.1602C25.1593 0.451473 25.4887 0.108332 25.8962 0.107424C26.1026 0.106969 26.2897 0.194347 26.4236 0.335424L37.7213 12.043C38.0094 12.3415 38.0094 12.8258 37.7213 13.1243C37.5601 13.2913 37.3432 13.3646 37.1328 13.345L37.1331 13.3443ZM26.66 11.7892L35.4165 11.8156L26.638 2.71869L26.6604 11.7892L26.66 11.7892Z" fill="#F1F1F1"/>
</svg>
