<svg width="50" height="36" viewBox="0 0 50 36" fill="none" xmlns="http://www.w3.org/2000/svg">
<path d="M46.6067 0.0800781H3.39499C2.51047 0.0816067 1.66262 0.440812 1.03743 1.07976C0.411831 1.7183 0.0597432 2.58423 0.0585938 3.48756V32.5223C0.0597163 33.4257 0.411803 34.2912 1.03743 34.9301C1.66265 35.5687 2.51051 35.9282 3.39499 35.9298H46.6067C47.4912 35.9283 48.339 35.5687 48.9642 34.9301C49.5898 34.2912 49.9419 33.4257 49.9431 32.5223V3.48756C49.9419 2.58419 49.5899 1.71827 48.9642 1.07976C48.339 0.440841 47.4912 0.0816433 46.6067 0.0800781ZM48.3338 32.5114H48.3342C48.3342 32.9791 48.1519 33.4281 47.8283 33.7587C47.5043 34.0896 47.065 34.2753 46.6066 34.2753H3.39496C2.93661 34.2753 2.49735 34.0896 2.17332 33.7587C1.84967 33.4281 1.66745 32.9791 1.66745 32.5114V3.4766C1.66745 3.00887 1.84967 2.56024 2.17332 2.22932C2.49734 1.89839 2.93661 1.71268 3.39496 1.71268H46.6066C47.065 1.71268 47.5043 1.89839 47.8283 2.22932C48.1519 2.56024 48.3342 3.00887 48.3342 3.4766L48.3338 32.5114ZM25.0005 8.61541C22.5636 8.61541 20.2265 9.60433 18.5031 11.3641C16.7801 13.1242 15.8118 15.5111 15.8118 17.9999C15.8118 20.4887 16.78 22.8755 18.5031 24.6356C20.2265 26.3953 22.5636 27.3843 25.0005 27.3843C27.4373 27.3843 29.7744 26.3954 31.4978 24.6356C33.2208 22.8755 34.1891 20.4887 34.1891 17.9999C34.1876 15.5114 33.2189 13.1254 31.4963 11.3657C29.7733 9.60638 27.437 8.61697 25.0005 8.6155L25.0005 8.61541ZM25.0005 25.7399V25.7402C22.9905 25.7402 21.0624 24.9248 19.641 23.473C18.2195 22.0213 17.421 20.0521 17.421 17.9994C17.421 15.9466 18.2195 13.9774 19.641 12.5257C21.0624 11.074 22.9905 10.2585 25.0005 10.2585C27.0104 10.2585 28.9385 11.0739 30.3599 12.5257C31.7814 13.9774 32.5799 15.9466 32.5799 17.9994C32.5769 20.0515 31.7777 22.0186 30.3566 23.4696C28.9359 24.9209 27.0097 25.7372 25.0005 25.7402V25.7399ZM23.799 15.9504C23.799 16.276 23.9255 16.5882 24.1507 16.8182C24.3764 17.0483 24.6817 17.1778 25.0005 17.1778C25.238 17.1813 25.4741 17.216 25.7031 17.2818C26.5008 17.4877 27.1691 18.0426 27.5297 18.7981C27.8904 19.5535 27.9069 20.4328 27.5743 21.2016C27.242 21.9705 26.5947 22.5506 25.8048 22.7875V23.1601C25.8048 23.6137 25.4449 23.9817 25.0004 23.9817C24.5559 23.9817 24.1959 23.6137 24.1959 23.1601V22.7875C23.6175 22.6117 23.1101 22.2506 22.7487 21.7573C22.3873 21.2636 22.1912 20.6644 22.1897 20.0484C22.1897 19.5944 22.55 19.2264 22.9942 19.2264C23.4387 19.2264 23.799 19.5944 23.799 20.0484C23.7967 20.5478 24.0901 20.9991 24.5413 21.1914C24.9929 21.3836 25.5134 21.2785 25.8591 20.9254C26.2052 20.5719 26.3081 20.0408 26.1199 19.5795C25.9317 19.1183 25.4895 18.8191 25.0004 18.821C24.7628 18.8175 24.5267 18.7828 24.2977 18.717C23.5 18.5111 22.8317 17.9562 22.4711 17.2007C22.1104 16.4453 22.0939 15.566 22.4266 14.7972C22.7588 14.0283 23.4062 13.4482 24.196 13.2113V12.8716V12.872C24.196 12.418 24.556 12.05 25.0005 12.05C25.445 12.05 25.8049 12.418 25.8049 12.872V13.2117V13.2113C26.3845 13.3859 26.8929 13.747 27.2556 14.2404C27.6178 14.7338 27.8146 15.3337 27.8164 15.9504C27.8138 16.4032 27.455 16.7693 27.012 16.7724C26.7984 16.7739 26.5926 16.6876 26.4414 16.5332C26.2902 16.3788 26.2061 16.169 26.2076 15.9504C26.2296 15.6103 26.1129 15.2756 25.8847 15.0264C25.6564 14.7773 25.3373 14.6359 25.0031 14.6359C24.669 14.6359 24.3498 14.7773 24.122 15.0264C23.8937 15.2756 23.7766 15.6103 23.7991 15.9504L23.799 15.9504ZM44.413 19.095C44.1051 19.0962 43.7994 19.1462 43.5064 19.2429L41.7524 16.5585V16.5588C41.6068 16.3303 41.3595 16.1908 41.0927 16.1863H37.7511C37.6085 15.13 37.3384 14.0956 36.9463 13.1074H40.3366C40.6554 13.1062 40.9438 12.9129 41.0714 12.6144L42.2085 9.99034C42.3436 10.0094 42.4798 10.0205 42.616 10.0232C43.3998 10.0232 44.1519 9.70527 44.706 9.13895C45.2601 8.573 45.5718 7.80528 45.5718 7.00477C45.5718 6.20426 45.2601 5.43613 44.706 4.87021C44.1519 4.30426 43.3998 3.98633 42.616 3.98633C41.8321 3.98633 41.0804 4.30426 40.5263 4.87021C39.9722 5.43615 39.6605 6.20426 39.6605 7.00477C39.6609 7.54931 39.8075 8.08389 40.0844 8.54935C40.2558 8.84473 40.4754 9.10764 40.7332 9.32737L39.8105 11.4639H36.1632C36.088 11.3324 36.0184 11.201 35.938 11.0749C33.7899 7.54247 30.1321 5.25618 26.0749 4.90958C22.0176 4.56298 18.0387 6.19736 15.346 9.31635L15.2225 9.46424L13.3241 9.46462L12.3909 8.26468H12.3905C12.746 7.74881 12.9338 7.13166 12.9271 6.50078C12.9252 5.63334 12.5574 4.80829 11.918 4.23777C11.2782 3.66687 10.4288 3.40549 9.58695 3.52013C8.74509 3.63477 7.99232 4.11434 7.52125 4.83657C7.05055 5.55842 6.90724 6.45266 7.128 7.29025C7.34913 8.12788 7.91299 8.82758 8.67512 9.21048C9.43729 9.59338 10.3241 9.62203 11.1086 9.2892L12.2779 10.7955C12.4313 10.9927 12.6644 11.1077 12.911 11.1077H14.0215H14.0211C12.437 13.7406 11.8155 16.8611 12.2671 19.9171H9.58513L8.37287 18.3667C8.43199 18.2792 8.4855 18.1913 8.539 18.0985L8.53938 18.0981C8.96405 17.3227 9.03252 16.3953 8.72683 15.5634C8.42114 14.7319 7.77196 14.0796 6.9526 13.7815C6.13281 13.483 5.22654 13.5683 4.47415 14.015C3.72208 14.4617 3.20087 15.224 3.04934 16.0992C2.89818 16.9739 3.13166 17.8727 3.68841 18.5555C4.24479 19.2383 5.06791 19.6362 5.93784 19.643C6.33819 19.643 6.73443 19.5593 7.10182 19.3965L8.57155 21.2484V21.248C8.72421 21.4421 8.95507 21.5552 9.19902 21.5549H12.6106C12.9537 22.8174 13.4817 24.02 14.1769 25.1213H12.5085C12.3338 25.1224 12.1643 25.1821 12.0258 25.291L9.61731 27.1593C8.90229 26.6101 7.98225 26.4217 7.11491 26.6464C6.24761 26.8715 5.52698 27.4852 5.15466 28.3159C4.78238 29.1467 4.79846 30.1051 5.19844 30.9221C5.59842 31.7395 6.33963 32.3276 7.21367 32.5218C8.08771 32.7163 9.00103 32.4954 9.69739 31.9218C10.3937 31.3482 10.7982 30.4835 10.7974 29.5698C10.7981 29.2259 10.7401 28.885 10.626 28.5617L10.5938 28.4684L12.7823 26.7649H15.4L15.4374 26.8142C17.9308 29.6389 21.4999 31.2224 25.2228 31.1564C28.9461 31.0903 32.4587 29.3807 34.8541 26.4688H37.536L38.8501 27.9973C38.791 28.0959 38.7323 28.1998 38.6784 28.3042H38.6788C38.2589 29.1685 38.2668 30.1854 38.6997 31.0429C39.1322 31.9004 39.9386 32.4969 40.8714 32.6494C41.8045 32.8019 42.7527 32.492 43.4258 31.8152C44.0989 31.1384 44.417 30.1747 44.2822 29.2198C44.1475 28.2648 43.5765 27.4322 42.7437 26.9766C41.9108 26.5215 40.9156 26.4974 40.0625 26.9128L38.5071 25.105C38.3526 24.9284 38.1326 24.8272 37.901 24.8256H36.013C37.2065 22.8214 37.8497 20.5259 37.8741 18.1803V17.9996V17.8299H40.6578L42.1652 20.1525C41.714 20.7008 41.4637 21.3921 41.4573 22.1082C41.4558 22.9092 41.766 23.6776 42.3198 24.2447C42.8735 24.8122 43.6252 25.1313 44.4091 25.1321C45.1933 25.1332 45.9457 24.816 46.5006 24.2501C47.0559 23.6842 47.3679 22.9164 47.3683 22.1155C47.3687 21.3146 47.0578 20.5465 46.5032 19.9802C45.9491 19.4135 45.197 19.0952 44.4128 19.0952L44.413 19.095ZM42.6159 5.62926C43.1606 5.62926 43.6515 5.9644 43.8599 6.47836C44.0683 6.99195 43.9531 7.5835 43.5681 7.97667C43.1831 8.36983 42.6039 8.48759 42.1007 8.27473C41.5978 8.06188 41.2696 7.56053 41.2696 7.00456C41.2696 6.63962 41.4114 6.28997 41.664 6.03203C41.9166 5.77409 42.2589 5.62926 42.6159 5.62926ZM9.98177 7.87545C9.43886 7.87086 8.95131 7.53382 8.74633 7.02023C8.54092 6.50703 8.65766 5.91773 9.04267 5.52613C9.42731 5.13483 10.0046 5.0179 10.5068 5.2296C11.0085 5.44131 11.3366 5.94037 11.3389 6.49489C11.3389 6.86212 11.196 7.21407 10.9412 7.47315C10.6864 7.73223 10.3414 7.87706 9.98177 7.87554V7.87545ZM5.93742 17.9995C5.39377 17.993 4.90735 17.6529 4.70457 17.1381C4.5014 16.623 4.62151 16.0338 5.00914 15.6443C5.3964 15.2549 5.97523 15.1418 6.47619 15.3574C6.97682 15.5729 7.30196 16.0746 7.29972 16.6299C7.2971 16.996 7.15193 17.346 6.89638 17.6028C6.64083 17.8596 6.29585 18.0025 5.93738 17.9994L5.93742 17.9995ZM7.83628 30.9233C7.2915 30.9233 6.80064 30.5881 6.59221 30.0742C6.3838 29.5606 6.49905 28.969 6.88406 28.5759C7.26945 28.1827 7.84824 28.065 8.35149 28.2778C8.85437 28.4907 9.18251 28.992 9.18251 29.548C9.18251 29.9129 9.0407 30.2626 8.78814 30.5205C8.53559 30.7784 8.19323 30.9233 7.83628 30.9233ZM41.3238 28.2388H41.3234C41.8682 28.2388 42.3591 28.574 42.5675 29.0875C42.7759 29.6015 42.6607 30.1931 42.2757 30.5862C41.8906 30.9795 41.3115 31.0972 40.8082 30.8843C40.3054 30.6715 39.9772 30.1701 39.9772 29.6137C39.9802 28.8537 40.5845 28.2388 41.329 28.2388L41.3238 28.2388ZM25.001 29.5045C22.0134 29.5045 19.1483 28.2923 17.0359 26.1349C14.9234 23.9774 13.7366 21.0513 13.7366 18.0001C13.7366 14.9488 14.9234 12.0227 17.0359 9.86523C19.1483 7.70777 22.0134 6.49561 25.001 6.49561C27.9887 6.49561 30.8537 7.70777 32.9662 9.86523C35.0786 12.0227 36.2655 14.9488 36.2655 18.0001C36.2655 21.0513 35.0786 23.9774 32.9662 26.1349C30.8537 28.2923 27.9887 29.5045 25.001 29.5045ZM44.4129 23.4782C43.8677 23.4782 43.3765 23.1427 43.1685 22.628C42.9604 22.1136 43.0768 21.5217 43.4629 21.1289C43.8491 20.7361 44.429 20.6199 44.9319 20.8343C45.4348 21.049 45.7614 21.5519 45.7592 22.1086C45.7535 22.8645 45.153 23.4752 44.4129 23.4782L44.4129 23.4782Z" fill="#F1F1F1"/>
</svg>
