<svg width="49" height="45" viewBox="0 0 49 45" fill="none" xmlns="http://www.w3.org/2000/svg">
<path d="M4.53541 20.2521C4.93693 20.2521 5.28622 20.5936 5.28622 21.025C5.28622 21.4384 4.95447 21.7803 4.53541 21.7803C4.13389 21.7803 3.80175 21.4388 3.80175 21.025C3.80214 20.5936 4.13388 20.2521 4.53541 20.2521ZM48.9997 15.9551V40.4606C48.9997 42.9415 47.0264 44.9916 44.5984 44.9916H4.50028C2.07244 44.9736 0.099063 42.9421 0.099063 40.4426V15.9546C0.099063 13.4736 2.07234 11.4236 4.50028 11.4236H11.5909L11.5905 9.6437L0.674797 7.07285C0.343054 7.01867 0.0986328 6.6952 0.0986328 6.33561C0.0986328 5.99408 0.343054 5.68827 0.674797 5.58031L24.3914 0.0428416C24.4963 0.024782 24.6183 0.024782 24.7056 0.0428416L48.4222 5.58031C48.7547 5.6702 48.9991 5.99407 48.9991 6.33561C48.9991 6.6952 48.7547 7.01866 48.423 7.09091L37.4903 9.6442V11.4241H44.5985C47.0259 11.4237 48.9993 13.4555 48.9993 15.9547L48.9997 15.9551ZM24.5496 11.1007L30.5396 9.69846L24.3574 7.0373C23.973 6.87557 23.7983 6.42608 23.9558 6.04843C24.1129 5.67078 24.5495 5.49099 24.9164 5.63507L33.0022 9.12298L44.8959 6.33616L24.5494 1.57161L4.18598 6.33616L24.5496 11.1007ZM13.075 14.2471V15.7216C13.075 17.2318 17.4411 19.3536 24.5496 19.3536C26.8199 19.3536 28.8108 19.1201 30.4699 18.7962C30.6968 17.9153 31.3782 17.2318 32.2163 16.9621V15.9732C29.9459 16.6025 27.2214 16.926 24.5496 16.926C20.061 16.9079 15.3808 15.9732 13.075 14.2471V14.2471ZM24.5496 15.3796C27.6931 15.3796 30.2952 14.9662 32.2163 14.3907V10.8666L24.7066 12.6284C24.6544 12.6284 24.6018 12.6465 24.5495 12.6465C24.5145 12.6465 24.4447 12.6284 24.3924 12.6284L13.0755 9.96764V11.7837C13.0755 13.2762 17.4416 15.3796 24.5501 15.3796H24.5496ZM31.8495 19.4791C31.8495 20.1084 32.3383 20.6297 32.9671 20.6297C33.5783 20.6297 34.0847 20.1083 34.0847 19.4791C34.0847 18.8679 33.5959 18.3466 32.9671 18.3466C32.3387 18.3462 31.8495 18.8675 31.8495 19.4791ZM34.5217 17.3753C35.4823 16.8359 36.0237 16.2428 36.0237 15.721V14.2289C35.395 14.6784 34.609 15.0917 33.7012 15.4513V16.9434C33.9979 17.0337 34.2773 17.1773 34.5218 17.3752L34.5217 17.3753ZM36.0237 11.7836V9.96754L33.7012 10.5069V13.8331C35.1853 13.1862 36.0063 12.4489 36.0237 11.7836ZM7.50395 12.9341H4.50028C2.89336 12.9341 1.58353 14.3007 1.58353 15.9545V40.46C1.58353 42.1319 2.89336 43.4627 4.50028 43.4627H7.52142V12.9336L7.50395 12.9341ZM17.3366 32.0468C16.6556 32.0107 15.9746 31.9208 15.3106 31.7591V43.4642H17.3366V32.0468ZM18.0699 30.5723C18.8908 30.5723 19.7114 30.4643 20.5149 30.2488L19.6767 28.4871C19.1353 28.6307 18.5937 28.7206 18.0528 28.7206C17.5113 28.7206 16.9698 28.6307 16.4288 28.4871L15.5906 30.2488C16.3941 30.4467 17.2146 30.5723 18.0356 30.5723H18.0699ZM19.0304 27.0844L18.0699 25.0529L17.1093 27.0844C17.7557 27.2281 18.3844 27.2281 19.0304 27.0844ZM20.8294 31.759C20.1659 31.9208 19.4845 32.0107 18.8035 32.0468V43.4632H20.8294V31.759ZM33.8049 26.2391C33.8049 25.8796 33.5254 25.6099 33.1937 25.6099H28.8798C28.5481 25.6099 28.2685 25.8796 28.2685 26.2391V43.4635H33.8049V40.1373H32.198C31.7965 40.1373 31.4644 39.7957 31.4644 39.3643C31.4644 38.9509 31.7961 38.609 32.198 38.609H33.8049V35.2828H32.198C31.7965 35.2828 31.4644 34.9413 31.4644 34.5099C31.4644 34.0965 31.7961 33.7546 32.198 33.7546H33.8049V30.4284H32.198C31.7965 30.4284 31.4644 30.0868 31.4644 29.6554C31.4644 29.242 31.7961 28.8825 32.198 28.8825H33.8049V26.2391ZM40.1097 12.9344H37.5076V15.6674C37.5076 16.8542 36.7041 17.825 35.3943 18.5803C35.4992 18.8681 35.5514 19.1378 35.5514 19.4612C35.5514 20.9533 34.3811 22.1401 32.9493 22.1401C31.7966 22.1401 30.836 21.3671 30.5043 20.2884C28.6184 20.666 26.5748 20.8458 24.5489 20.8458C18.2617 20.8458 11.5903 19.066 11.5903 15.7036V12.9168H8.98821V43.4284H13.826V30.7349V30.7169V30.6988C13.8436 30.6089 13.8611 30.519 13.8958 30.4291L17.4063 22.9496C17.5458 22.6799 17.7906 22.5181 18.0697 22.5181C18.3492 22.5181 18.6112 22.6799 18.7332 22.9496L22.2437 30.4291C22.2787 30.519 22.3134 30.6089 22.3134 30.6988L22.331 30.7169V30.7349V43.4284H26.802V26.2041C26.802 24.9993 27.745 24.0285 28.8977 24.0285H33.2116C34.3643 24.0285 35.3073 24.9993 35.3073 26.2041V43.4284H40.1276V12.9353L40.1097 12.9344ZM47.5145 15.9551C47.5145 14.3008 46.2046 12.9348 44.5977 12.9348H41.5766V43.4464H44.5977C46.2046 43.4464 47.5145 42.116 47.5145 40.4436V15.9551ZM4.53418 23.6321C4.13266 23.6321 3.80052 23.9737 3.80052 24.4051V32.0283C3.80052 32.4416 4.13226 32.7836 4.53418 32.7836C4.9357 32.7836 5.28499 32.442 5.28499 32.0283V24.4051C5.28538 23.9741 4.95325 23.6321 4.53418 23.6321ZM44.5625 35.0671C44.1434 35.0671 43.8117 35.4086 43.8117 35.84C43.8117 36.2714 44.1434 36.613 44.5625 36.613C44.964 36.613 45.2962 36.2714 45.2962 35.84C45.2958 35.4086 44.964 35.0671 44.5625 35.0671ZM44.5625 27.4258C44.1434 27.4258 43.8117 27.7673 43.8117 28.1987C43.8117 28.6302 44.1434 28.9717 44.5625 28.9717C44.964 28.9717 45.2962 28.6302 45.2962 28.1987C45.2958 27.7673 44.964 27.4258 44.5625 27.4258ZM44.5625 19.8026C44.1434 19.8026 43.8117 20.1441 43.8117 20.5756C43.8117 21.007 44.1434 21.3485 44.5625 21.3485C44.964 21.3485 45.2962 21.007 45.2962 20.5756C45.2958 20.1441 44.964 19.8026 44.5625 19.8026Z" fill="#F1F1F1"/>
</svg>
