<svg width="48" height="48" viewBox="0 0 48 48" fill="none" xmlns="http://www.w3.org/2000/svg">
<path d="M42.3475 12.0919C41.7628 12.0916 41.1817 12.1805 40.6243 12.3549C40.6787 11.9375 40.7052 11.5166 40.7044 11.0957C40.6561 7.62863 38.9897 4.38093 36.1951 2.30709C33.4001 0.233531 29.7947 -0.430363 26.4384 0.510692C23.082 1.45175 20.3565 3.891 19.0633 7.11092C17.6667 6.25454 16.01 5.91939 14.388 6.16558C12.7663 6.41179 11.2853 7.22295 10.2097 8.45474C9.13371 9.68616 8.53325 11.2576 8.51502 12.889C7.01035 11.9899 5.16941 11.843 3.53988 12.4919C1.90999 13.1405 0.679757 14.5103 0.214963 16.1935C-0.249849 17.8767 0.104398 19.6792 1.17212 21.0643C2.23985 22.4498 3.89841 23.2585 5.65353 23.2495C6.09651 23.2495 6.45505 22.8927 6.45505 22.4526C6.45505 22.0125 6.09651 21.6556 5.65353 21.6556C4.22186 21.6556 2.89902 20.896 2.18296 19.6632C1.46696 18.4304 1.46696 16.9112 2.18296 15.6784C2.89897 14.4456 4.22186 13.686 5.65353 13.686C7.04086 13.6835 8.33475 14.3794 9.09222 15.535C9.31944 15.8773 9.77101 15.9926 10.1357 15.8008C10.5006 15.609 10.6595 15.1735 10.5028 14.7939C10.2541 14.1891 10.1235 13.5426 10.1181 12.889C10.135 11.5011 10.705 10.1761 11.7026 9.20521C12.7002 8.23428 14.0441 7.69599 15.4405 7.70874C16.7329 7.71337 17.9803 8.18336 18.951 9.03152C19.1579 9.2112 19.4427 9.2731 19.7061 9.19554C19.9694 9.11798 20.1745 8.91198 20.2496 8.64905C21.1112 5.70065 23.3444 3.34282 26.2528 2.31105C29.1612 1.27891 32.3909 1.69802 34.9354 3.43782C37.4799 5.17761 39.0296 8.02605 39.1015 11.0958C39.1001 11.9312 38.9841 12.7623 38.7566 13.5664C38.6668 13.8884 38.7884 14.232 39.0614 14.427C39.3377 14.6202 39.7066 14.6202 39.9831 14.427C40.6877 13.9374 41.5282 13.6784 42.3877 13.6859C43.8194 13.6859 45.1422 14.4455 45.8583 15.6783C46.5743 16.9111 46.5743 18.4303 45.8583 19.6631C45.1423 20.8959 43.8194 21.6555 42.3877 21.6555C41.9447 21.6555 41.5862 22.0124 41.5862 22.4525C41.5862 22.8926 41.9447 23.2495 42.3877 23.2495C44.3923 23.2495 46.2444 22.186 47.2466 20.4601C48.2488 18.7342 48.2488 16.6073 47.2466 14.8814C46.2444 13.1554 44.3923 12.092 42.3877 12.092L42.3475 12.0919Z" fill="#F1F1F1"/>
<path d="M37.6262 30.4219H10.3743C9.73662 30.4219 9.1247 30.6738 8.67392 31.1221C8.22315 31.5704 7.96973 32.1788 7.96973 32.8127V36.0006C7.96973 36.6346 8.22306 37.243 8.67392 37.6912C9.12479 38.1394 9.7367 38.3914 10.3743 38.3914H37.6262C38.2638 38.3914 38.8757 38.1395 39.3265 37.6912C39.7773 37.2429 40.0307 36.6345 40.0307 36.0006V32.8127C40.0307 32.1787 39.7774 31.5703 39.3265 31.1221C38.8756 30.6739 38.2637 30.4219 37.6262 30.4219ZM38.4277 36.0006C38.4277 36.212 38.3432 36.4148 38.193 36.5642C38.0427 36.7136 37.8387 36.7976 37.6262 36.7976H10.3743C9.93163 36.7976 9.57273 36.4407 9.57273 36.0006V32.8128C9.57273 32.3727 9.93163 32.0158 10.3743 32.0158H37.6262C37.8387 32.0158 38.0427 32.0998 38.193 32.2492C38.3432 32.3986 38.4277 32.6014 38.4277 32.8128V36.0006Z" fill="#F1F1F1"/>
<path d="M35.4218 32.8601C35.0125 32.8729 34.6246 33.0455 34.3426 33.3408C34.0603 33.6361 33.9068 34.0299 33.9154 34.4373C33.9236 34.8443 34.0932 35.2318 34.3873 35.5153C34.6811 35.7989 35.0758 35.9558 35.4855 35.9515C35.8948 35.9476 36.2863 35.7829 36.5747 35.4937C36.8628 35.2044 37.0245 34.8137 37.0249 34.4063C37.0253 33.9879 36.8546 33.5873 36.5526 33.2959C36.2506 33.0046 35.8426 32.8473 35.4218 32.8601L35.4218 32.8601ZM35.4218 34.454C35.4132 34.4394 35.4132 34.4213 35.4218 34.4064V34.3587V34.454Z" fill="#F1F1F1"/>
<path d="M27.0462 33.6094H11.8172C11.3745 33.6094 11.0156 33.9662 11.0156 34.4063C11.0156 34.8464 11.3745 35.2033 11.8172 35.2033H27.0462C27.4888 35.2033 27.8477 34.8464 27.8477 34.4063C27.8477 33.9662 27.4888 33.6094 27.0462 33.6094Z" fill="#F1F1F1"/>
<path d="M32.0159 33.6094H29.8679C29.4253 33.6094 29.0664 33.9662 29.0664 34.4063C29.0664 34.8464 29.4253 35.2033 29.8679 35.2033H32.0159C32.4586 35.2033 32.8175 34.8464 32.8175 34.4063C32.8175 33.9662 32.4586 33.6094 32.0159 33.6094Z" fill="#F1F1F1"/>
<path d="M37.6262 39.9844H10.3743C9.73662 39.9844 9.1247 40.2363 8.67392 40.6846C8.22315 41.1329 7.96973 41.7413 7.96973 42.3752V45.5631C7.96973 46.1971 8.22306 46.8055 8.67392 47.2537C9.12479 47.7019 9.7367 47.9539 10.3743 47.9539H37.6262C38.2638 47.9539 38.8757 47.702 39.3265 47.2537C39.7773 46.8054 40.0307 46.197 40.0307 45.5631V42.3752C40.0307 41.7412 39.7774 41.1328 39.3265 40.6846C38.8756 40.2364 38.2637 39.9844 37.6262 39.9844ZM38.4277 45.5631C38.4277 45.7745 38.3432 45.9773 38.193 46.1267C38.0427 46.2761 37.8387 46.3601 37.6262 46.3601H10.3743C9.93163 46.3601 9.57273 46.0032 9.57273 45.5631V42.3753C9.57273 41.9352 9.93163 41.5783 10.3743 41.5783H37.6262C37.8387 41.5783 38.0427 41.6623 38.193 41.8117C38.3432 41.9611 38.4277 42.1639 38.4277 42.3753V45.5631Z" fill="#F1F1F1"/>
<path d="M35.4218 42.4246C35.0125 42.4374 34.6246 42.6099 34.3426 42.9052C34.0603 43.2005 33.9068 43.5944 33.9154 44.0018C33.9236 44.4088 34.0932 44.7962 34.3873 45.0798C34.6811 45.3634 35.0758 45.5203 35.4855 45.516C35.8948 45.5121 36.2863 45.3474 36.5747 45.0581C36.8628 44.7688 37.0245 44.3782 37.0249 43.9708C37.0253 43.5524 36.8546 43.1518 36.5526 42.8604C36.2506 42.569 35.8426 42.4117 35.4218 42.4246L35.4218 42.4246ZM35.4218 44.0185C35.4132 44.0039 35.4132 43.9858 35.4218 43.9708V43.9231V44.0185Z" fill="#F1F1F1"/>
<path d="M27.0462 43.1719H11.8172C11.3745 43.1719 11.0156 43.5287 11.0156 43.9688C11.0156 44.4089 11.3745 44.7658 11.8172 44.7658H27.0462C27.4888 44.7658 27.8477 44.4089 27.8477 43.9688C27.8477 43.5287 27.4888 43.1719 27.0462 43.1719Z" fill="#F1F1F1"/>
<path d="M32.0159 43.1719H29.8679C29.4253 43.1719 29.0664 43.5287 29.0664 43.9688C29.0664 44.4089 29.4253 44.7658 29.8679 44.7658H32.0159C32.4586 44.7658 32.8175 44.4089 32.8175 43.9688C32.8175 43.5287 32.4586 43.1719 32.0159 43.1719Z" fill="#F1F1F1"/>
<path d="M37.6262 20.8574H10.3743C9.73662 20.8574 9.1247 21.1093 8.67392 21.5576C8.22315 22.0059 7.96973 22.6143 7.96973 23.2483V26.4361C7.96973 27.0701 8.22306 27.6786 8.67392 28.1268C9.12479 28.575 9.7367 28.827 10.3743 28.827H37.6262C38.2638 28.827 38.8757 28.5751 39.3265 28.1268C39.7773 27.6785 40.0307 27.0701 40.0307 26.4361V23.2483C40.0307 22.6143 39.7774 22.0058 39.3265 21.5576C38.8756 21.1094 38.2637 20.8574 37.6262 20.8574ZM38.4277 26.4362C38.4277 26.6475 38.3432 26.8503 38.193 26.9997C38.0427 27.1492 37.8387 27.2331 37.6262 27.2331H10.3743C9.93163 27.2331 9.57273 26.8763 9.57273 26.4362V23.2483C9.57273 22.8082 9.93163 22.4514 10.3743 22.4514H37.6262C37.8387 22.4514 38.0427 22.5353 38.193 22.6847C38.3432 22.8342 38.4277 23.037 38.4277 23.2483V26.4362Z" fill="#F1F1F1"/>
<path d="M34.9094 23.3679C34.4975 23.4351 34.1304 23.665 33.8917 24.0055C33.6484 24.3356 33.5504 24.7498 33.6191 25.1533C33.6924 25.5201 33.8932 25.8495 34.1862 26.0844C34.4793 26.3189 34.8461 26.4434 35.2222 26.4363H35.4787C35.8881 26.3722 36.2541 26.1463 36.4939 25.8104C36.7336 25.4746 36.8274 25.0565 36.7529 24.651C36.6767 24.2393 36.4409 23.8739 36.096 23.6338C35.751 23.3936 35.3249 23.2983 34.9094 23.368L34.9094 23.3679ZM35.1337 24.906V24.8423V24.9458C35.1341 24.9458 35.1419 24.922 35.1341 24.906H35.1337Z" fill="#F1F1F1"/>
<path d="M26.8772 24.0449H11.6482C11.2052 24.0449 10.8467 24.4018 10.8467 24.8419C10.8467 25.282 11.2052 25.6388 11.6482 25.6388H26.8772C27.3198 25.6388 27.6787 25.282 27.6787 24.8419C27.6787 24.4018 27.3198 24.0449 26.8772 24.0449Z" fill="#F1F1F1"/>
<path d="M31.4875 24.0449H29.3552C28.9126 24.0449 28.5537 24.4018 28.5537 24.8419C28.5537 25.282 28.9126 25.6388 29.3552 25.6388H31.4875C31.9301 25.6388 32.289 25.282 32.289 24.8419C32.289 24.4018 31.9301 24.0449 31.4875 24.0449Z" fill="#F1F1F1"/>
<path d="M17.5883 19.2653C17.8009 19.2653 18.0048 19.1814 18.1551 19.032C18.3054 18.8825 18.3899 18.6797 18.3899 18.4684V13.2163L19.424 14.2523C19.5742 14.4032 19.7793 14.4882 19.9929 14.4882C20.2065 14.4882 20.4116 14.4032 20.5618 14.2523C20.7136 14.1029 20.7991 13.899 20.7991 13.6866C20.7991 13.4742 20.7136 13.2703 20.5618 13.1209L18.1573 10.73C18.007 10.5792 17.8019 10.4941 17.5883 10.4941C17.3747 10.4941 17.1697 10.5792 17.0194 10.73L14.6148 13.1209C14.3003 13.4333 14.3003 13.9399 14.6148 14.2523C14.929 14.5651 15.4385 14.5651 15.7527 14.2523L16.7868 13.2163V18.4684C16.7868 18.6797 16.8712 18.8825 17.0215 19.032C17.1718 19.1814 17.3758 19.2654 17.5883 19.2654V19.2653Z" fill="#F1F1F1"/>
<path d="M30.4126 10.498C29.9699 10.498 29.611 10.8549 29.611 11.295V16.5471L28.5769 15.5111C28.2627 15.1983 27.7532 15.1983 27.439 15.5111C27.1245 15.8235 27.1245 16.3301 27.439 16.6425L29.8436 19.0334C29.9939 19.1842 30.1989 19.2693 30.4125 19.2693C30.6262 19.2693 30.8312 19.1842 30.9815 19.0334L33.3861 16.6425C33.7006 16.3301 33.7006 15.8235 33.3861 15.5111C33.0719 15.1983 32.5623 15.1983 32.2482 15.5111L31.2141 16.5471V11.295C31.2141 11.0837 31.1296 10.8809 30.9793 10.7314C30.829 10.582 30.6251 10.498 30.4125 10.498H30.4126Z" fill="#F1F1F1"/>
</svg>
