<svg width="45" height="51" viewBox="0 0 45 51" fill="none" xmlns="http://www.w3.org/2000/svg">
<path d="M34.7549 17.9395V6.59409C34.7549 6.11815 34.4339 5.80072 33.9526 5.80072C28.6568 5.80072 23.0405 0.326055 22.9601 0.24676C22.3986 -0.30845 21.7566 0.24676 21.8368 0.24676C21.7566 0.326024 16.1399 5.80072 10.8443 5.80072C10.363 5.80072 10.042 6.11814 10.042 6.59409V17.9395C10.042 27.2224 19.7512 31.0308 22.3186 31.1898H22.3988H22.479C25.0466 31.0312 34.7556 27.2229 34.7556 17.9395H34.7549ZM33.1498 10.0055H31.6253C31.144 10.0055 30.823 10.3229 30.823 10.7989C30.823 11.2748 31.144 11.5922 31.6253 11.5922H33.1498V14.7657L23.2005 14.7661V2.54728C25.2063 4.21323 29.0577 6.99045 33.1498 7.30782V10.0055ZM21.5957 2.5474V14.7662H11.6463V11.5927H13.1708C13.6521 11.5927 13.9732 11.2753 13.9732 10.7993C13.9732 10.3234 13.6521 10.006 13.1708 10.006H11.6463V7.30843C15.7382 6.99064 19.5899 4.21347 21.5957 2.54751V2.5474ZM12.368 21.8271H13.1704C13.6517 21.8271 13.9727 21.5097 13.9727 21.0337C13.9727 20.5578 13.6517 20.2403 13.1704 20.2403H11.8867C11.7264 19.5262 11.6459 18.8122 11.6459 17.9396V16.3528H21.5952V29.3646C19.4287 28.809 14.2936 26.5874 12.3676 21.8269L12.368 21.8271ZM23.2007 29.444V16.4323H33.15V18.019C33.15 18.8124 33.0699 19.6058 32.9092 20.3198H31.6255C31.1442 20.3198 30.8232 20.6372 30.8232 21.1132C30.8232 21.5891 31.1442 21.9065 31.6255 21.9065H32.4279C30.5022 26.5878 25.3671 28.8094 23.2006 29.4442L23.2007 29.444Z" fill="#F1F1F1"/>
<path d="M40.1313 39.5993L43.9025 34.8388C44.6247 33.9661 44.9457 32.7758 44.8656 31.6653L43.4213 17.6221C43.2609 16.1146 41.8968 15.0831 40.3722 15.3213C38.4466 15.6387 37.0824 17.2254 37.0824 19.2088V27.2221C36.3602 27.3014 35.638 27.6188 35.1567 28.2536L29.861 33.9661C29.1388 34.7594 28.7376 35.791 28.7376 36.9018V42.8524C27.2933 42.8524 26.1699 44.0425 26.1699 45.4706V48.0889C26.1699 49.5171 27.3735 50.7071 28.8178 50.7071H39.57C41.0144 50.7071 42.2179 49.5171 42.2179 48.0889V45.4706C42.2179 44.0425 41.0945 42.9317 39.6502 42.8524C39.5701 41.8213 39.1689 40.7105 40.1319 39.5997L40.1313 39.5993ZM30.9841 35.1561L36.2799 29.4437C37.6441 27.9362 39.9709 29.9196 38.6869 31.5067L35.5577 35.4739C35.3168 35.7913 35.3168 36.3465 35.718 36.5847C36.039 36.8228 36.6005 36.8228 36.8413 36.4262L39.9706 32.4589C41.2542 30.793 40.6126 28.3332 38.6063 27.5399L38.6067 19.2881C38.6067 18.1773 39.409 17.2251 40.5324 16.9873C41.0939 16.9081 41.6557 17.3047 41.6557 17.8599L43.1 31.9031C43.1802 32.6172 42.9397 33.3313 42.5385 33.8865L38.7673 38.6471C37.4031 40.313 37.8848 41.9795 37.8043 43.011H30.1817V37.0603C30.2619 36.2666 30.5023 35.6318 30.984 35.1558L30.9841 35.1561ZM40.4522 45.5497V48.1679C40.4522 48.7231 39.9708 49.1994 39.409 49.1994H28.7371C28.1756 49.1994 27.694 48.7235 27.694 48.1679V45.5497C27.694 44.9945 28.1753 44.5182 28.7371 44.5182H39.4894C40.0512 44.5974 40.4524 44.9941 40.4524 45.5497H40.4522Z" fill="#F1F1F1"/>
<path d="M16.1397 43.0118V37.0611C16.1397 35.9503 15.7385 34.9189 15.0164 34.1254L9.72061 28.413C9.15912 27.8578 8.51706 27.4607 7.79495 27.3815V19.2889C7.79495 17.3848 6.43073 15.7184 4.50507 15.4014C3.06075 15.1632 1.61634 16.1947 1.45605 17.7022L0.0120129 31.6659C-0.0681475 32.7767 0.252865 33.9667 0.975081 34.8394L4.74631 39.5999C5.6288 40.7107 5.22763 41.8215 5.38833 43.0115C3.94401 43.0115 2.82065 44.2016 2.82065 45.6297V48.248C2.82065 49.6762 4.02421 50.8662 5.46852 50.8662H16.2208C17.6651 50.8662 18.8686 49.6762 18.8686 48.248V45.6297C18.7079 44.2016 17.5846 43.0115 16.1402 43.0115L16.1397 43.0118ZM2.17882 33.8877C1.69712 33.3322 1.5368 32.5388 1.61696 31.8247L3.06128 17.7816C3.14144 17.2263 3.62277 16.8293 4.18464 16.9089C5.308 17.0675 6.1103 18.0197 6.1103 19.2097V27.4611C4.10445 28.2545 3.46243 30.7142 4.74608 32.3802L7.87529 36.3474C8.11615 36.6648 8.67764 36.7441 8.99865 36.5059C9.31967 36.2678 9.39983 35.7125 9.15897 35.3951L6.02976 31.4279C4.74611 29.8412 7.07293 27.8574 8.51734 29.3649L13.8131 35.0774C14.2944 35.6326 14.5353 36.2675 14.5353 36.9815V42.9321H6.9127C6.83254 41.9798 7.31387 40.2346 5.94963 38.5683L2.17882 33.8877ZM17.1033 48.1694C17.1033 48.7246 16.622 49.2009 16.0602 49.2009H5.30794C4.74645 49.2009 4.26477 48.7249 4.26477 48.1694V45.5511C4.26477 44.9959 4.7461 44.5196 5.30794 44.5196H16.0602C16.6217 44.5196 17.1033 44.9955 17.1033 45.5511V48.1694Z" fill="#F1F1F1"/>
<path d="M31.6251 46.1055H30.9029C30.4216 46.1055 30.1006 46.4229 30.1006 46.8988C30.1006 47.3748 30.4216 47.6922 30.9029 47.6922H31.6251C32.1064 47.6922 32.4274 47.3748 32.4274 46.8988C32.4278 46.4229 32.1068 46.1055 31.6251 46.1055Z" fill="#F1F1F1"/>
<path d="M8.27647 46.1055H7.55429C7.07297 46.1055 6.75195 46.4229 6.75195 46.8988C6.75195 47.3748 7.07296 47.6922 7.55429 47.6922H8.27647C8.7578 47.6922 9.07881 47.3748 9.07881 46.8988C9.07881 46.4229 8.75781 46.1055 8.27647 46.1055Z" fill="#F1F1F1"/>
</svg>
