<svg width="53" height="46" viewBox="0 0 53 46" fill="none" xmlns="http://www.w3.org/2000/svg">
<path d="M42.3715 0.0277086C39.7627 0.0444049 37.2686 1.06016 35.3103 2.82119H21.293C19.2472 0.965518 16.6046 -0.0577783 13.869 0.0328987H13.8674C8.13837 0.228887 3.54831 5.20729 3.63962 11.1065C3.67878 14.003 4.86825 16.7451 6.90478 18.7448V20.7942C2.85058 23.0613 0.0126953 27.472 0.0126953 32.5669C0.0126953 39.9548 5.9084 45.971 13.1227 45.971C20.3371 45.971 26.213 39.9566 26.213 32.5689C26.2122 28.5729 24.4311 24.8301 21.4412 22.2953C22.096 21.5753 22.973 21.1051 23.945 21.1043L32.6481 21.0832C34.4137 21.084 35.8963 22.4249 36.1168 24.221L36.7953 29.7626C37.15 32.6551 39.5491 34.8349 42.3925 34.8484H44.1294C47.2403 34.8484 49.7503 32.2076 49.7503 29.0237V18.6981C51.757 16.6281 52.9888 13.8386 52.9888 10.9187C52.9837 4.9147 48.2302 0.0364575 42.3739 0.0293336H42.3723L42.3715 0.0277086ZM13.946 2.24039H13.9475C16.2679 2.14737 18.5208 3.045 20.1709 4.72022L20.1813 4.73095C20.388 4.92773 20.6613 5.0303 20.9416 5.01996H35.6615C35.936 5.0299 36.2035 4.92614 36.4079 4.73651C36.4276 4.72379 36.4486 4.71902 36.466 4.70391L36.4741 4.69556C38.0532 3.12851 40.1619 2.24993 42.3598 2.24677C47.0468 2.24081 50.8415 6.11963 50.8474 10.9254C50.8334 13.4231 49.7905 15.7972 47.976 17.4618C47.7465 17.6673 47.6116 17.9631 47.605 18.274V29.0229C47.605 31.0074 46.0569 32.6476 44.1312 32.6476H42.3959C40.6281 32.6393 39.1463 31.2932 38.9252 29.4948L38.2483 23.938C37.892 21.0506 35.489 18.8816 32.651 18.8841L23.9414 18.9016C22.2747 18.9032 20.7487 19.7229 19.6821 21.0177C16.4518 19.0892 12.5958 18.6928 9.04937 19.8736V18.2997C9.05906 17.9805 8.93345 17.6696 8.69773 17.4525L8.69462 17.4474L8.68958 17.4442C6.85304 15.8434 5.84198 13.5913 5.80277 11.0681C5.72988 6.35962 9.38622 2.39853 13.9479 2.24272L13.946 2.24039ZM14.6004 4.0003C13.05 3.9995 11.783 5.29949 11.783 6.88924C11.783 8.47899 13.0485 9.77818 14.5989 9.77818C15.3459 9.77977 16.0636 9.47327 16.59 8.93103V8.92944C17.1173 8.38799 17.4162 7.65457 17.4162 6.88967C17.4162 5.29992 16.1508 4.00111 14.6004 4.0003ZM42.0453 4.15533C38.4204 4.1605 35.473 7.18177 35.4687 10.8988C35.4687 14.6174 38.418 17.6423 42.0453 17.6423C45.6726 17.6423 48.6219 14.6174 48.6219 10.8988C48.6219 7.33849 45.8937 4.48965 42.4803 4.24764V4.15541L42.0453 4.15533ZM14.5994 6.20071C14.7712 6.20071 14.9387 6.2659 15.0728 6.40266L15.0744 6.40425C15.2004 6.53265 15.2698 6.70518 15.2698 6.88766C15.2698 7.06853 15.1996 7.24226 15.0728 7.37305C14.808 7.64457 14.3913 7.64457 14.1264 7.37305C13.8616 7.10153 13.8616 6.67417 14.1264 6.40265C14.259 6.2667 14.4277 6.20071 14.5994 6.20071ZM42.0453 6.35893C44.4956 6.35893 46.4736 8.3872 46.4736 10.8996C46.4736 13.412 44.4955 15.4387 42.0453 15.4387C39.595 15.4364 37.6209 13.4113 37.6185 10.8996C37.6185 8.3871 39.595 6.35893 42.0453 6.35893ZM18.8613 8.3697C18.1406 8.3697 17.4179 8.65474 16.8701 9.21685C15.7757 10.3415 15.7757 12.1761 16.8701 13.3008C17.9661 14.4254 19.7561 14.4238 20.853 13.3008C21.9498 12.1777 21.9482 10.3415 20.853 9.21685C20.3051 8.65434 19.5815 8.3697 18.8613 8.3697ZM10.3044 8.38481C9.58441 8.38997 8.86254 8.67819 8.31815 9.24389C7.22947 10.3753 7.23999 12.2123 8.34336 13.3297C9.44673 14.4469 11.2383 14.4345 12.3281 13.3019C12.8526 12.7573 13.1454 12.0187 13.1407 11.2526C13.1357 10.4865 12.834 9.75585 12.3029 9.21758C11.7512 8.65944 11.0255 8.38003 10.3044 8.38481ZM18.8597 10.5729C19.0322 10.5729 19.2013 10.6373 19.3331 10.7732C19.5986 11.0455 19.5994 11.4713 19.3346 11.7436C19.0698 12.0159 18.6538 12.0167 18.3882 11.7452L18.2607 11.6144H18.2828L18.3793 11.7325C18.1203 11.461 18.1211 11.0404 18.3844 10.7744L18.3859 10.7728C18.5185 10.6369 18.686 10.5725 18.8593 10.5725L18.8597 10.5729ZM10.3125 10.5939H10.3265C10.5021 10.5931 10.668 10.6635 10.7932 10.7883C11.0588 11.0583 11.0631 11.4856 10.7998 11.7587C10.5366 12.0318 10.119 12.0362 9.85152 11.7655C9.5844 11.4948 9.5809 11.069 9.84493 10.7951C9.97016 10.6651 10.1384 10.5931 10.3133 10.5931L10.3125 10.5939ZM14.5768 12.7117C13.0287 12.7319 11.7791 14.0426 11.797 15.63V15.6316V15.6332C11.8013 16.3957 12.1068 17.1224 12.6399 17.6507C13.1687 18.1778 13.8825 18.4704 14.621 18.4593H14.6291C15.3747 18.466 16.0939 18.1643 16.6184 17.6213L16.62 17.6197C17.1457 17.0715 17.4349 16.3317 17.426 15.562C17.4062 13.973 16.1256 12.6914 14.5768 12.7117ZM14.6094 14.9279C14.7827 14.9271 14.9486 14.9891 15.0828 15.1239C15.3499 15.3938 15.3542 15.8228 15.0909 16.0963C14.8277 16.3694 14.4101 16.3738 14.1426 16.103L14.141 16.1014C14.0143 15.9742 13.9449 15.8013 13.9441 15.6196V15.618C13.9433 15.4344 14.0119 15.2595 14.1352 15.131C14.2659 14.9943 14.4353 14.9291 14.6086 14.9275L14.6094 14.9279ZM13.1237 21.3609C19.1625 21.3609 24.0671 26.383 24.0671 32.5647C24.0671 32.5882 24.0605 32.6108 24.0605 32.6343C24.0857 32.362 24.0229 32.0793 23.8465 31.85C23.7942 31.7812 23.7337 31.7192 23.6666 31.6655L18.4051 27.4222C18.1737 27.2354 17.8868 27.1606 17.6146 27.1944C17.3424 27.2278 17.08 27.3705 16.8985 27.6067C16.5357 28.0793 16.6167 28.7782 17.0784 29.1511L21.2667 32.5302L17.0784 35.9093C16.6167 36.2822 16.5341 36.981 16.8985 37.4557C17.2614 37.9283 17.943 38.0122 18.4048 37.6401L23.6663 33.3968C23.8911 33.2159 24.0167 32.9543 24.0543 32.682C23.9915 38.8093 19.1232 43.7699 13.1219 43.7699C7.08224 43.7699 2.17647 38.747 2.17647 32.566C2.17647 32.5243 2.1881 32.4857 2.18887 32.4444C2.16833 32.7107 2.22571 32.9874 2.39746 33.2112C2.4498 33.28 2.51028 33.342 2.57735 33.3957L7.83884 37.639C8.30059 38.0111 8.98142 37.9288 9.34508 37.4561C9.70951 36.9827 9.62693 36.2826 9.16673 35.9097H9.16518L4.9753 32.5307L9.16518 29.1496C9.62771 28.7775 9.70951 28.0793 9.34662 27.6051L9.34507 27.6035L9.21751 27.435H9.05003C8.91123 27.3435 8.78756 27.2147 8.62898 27.1952C8.35682 27.1618 8.06992 27.237 7.83847 27.423L2.57698 31.6671C2.35793 31.844 2.23774 32.0997 2.19704 32.3644C2.30482 26.2781 7.15105 21.3621 13.1216 21.3621L13.1237 21.3609ZM13.9956 25.1089C13.4986 25.1367 13.0671 25.5239 12.9895 26.0443L11.12 38.7024C11.0316 39.2983 11.4395 39.864 12.0207 39.9547C12.6018 40.0453 13.1535 39.6271 13.2419 39.0312L15.1114 26.3731C15.1762 25.9338 14.925 25.5796 14.5803 25.3506V25.1761L14.2108 25.1192C14.1379 25.1073 14.0662 25.1049 13.9949 25.1093L13.9956 25.1089Z" fill="#F1F1F1"/>
</svg>
