<svg width="45" height="45" viewBox="0 0 45 45" fill="none" xmlns="http://www.w3.org/2000/svg">
<path d="M44.9203 19.4665C44.9231 17.0017 43.9916 14.6279 42.3136 12.8253C40.6358 11.023 38.3372 9.92597 35.8829 9.7568C35.4656 6.63439 33.76 3.83036 31.1815 2.02683C28.6026 0.223617 25.3873 -0.413762 22.3176 0.270302C19.2477 0.95431 16.605 2.89699 15.0324 5.62522C13.0832 4.93432 10.925 5.17966 9.17938 6.29044C7.43407 7.40092 6.29522 9.25362 6.09072 11.3151C6.03723 11.8829 6.05318 12.455 6.13857 13.019C3.55531 13.725 1.47755 15.6473 0.569221 18.1703C-0.338787 20.6936 0.0365633 23.502 1.5754 25.6969C3.11428 27.8918 5.62371 29.1987 8.30137 29.199V32.9425C8.30137 33.1408 8.22255 33.3313 8.08243 33.4717C7.9423 33.6121 7.75213 33.691 7.55383 33.691H5.95305C5.70845 32.7419 5.01565 31.9727 4.09828 31.6318C3.1809 31.2912 2.15495 31.4215 1.35144 31.9815C0.548242 32.5411 0.0693359 33.4595 0.0693359 34.4396C0.0693359 35.4201 0.548202 36.3381 1.35144 36.898C2.15495 37.4576 3.1809 37.5883 4.09828 37.2474C5.01565 36.9065 5.70843 36.1376 5.95305 35.1885H7.55383C8.14842 35.1885 8.71895 34.9516 9.13932 34.5305C9.55969 34.1093 9.79584 33.5381 9.79584 32.9425V29.199H12.0378V40.429C12.0378 40.6276 11.9593 40.8178 11.8192 40.9585C11.6788 41.0989 11.4889 41.1776 11.2906 41.1776H9.68982C9.44522 40.2285 8.75242 39.4595 7.83505 39.1186C6.91735 38.7777 5.89148 38.9084 5.08821 39.468C4.28501 40.0279 3.80611 40.946 3.80611 41.9264C3.80611 42.9065 4.28497 43.8249 5.08821 44.3845C5.8914 44.9445 6.91735 45.0748 7.83505 44.7342C8.75242 44.3933 9.4452 43.6241 9.68982 42.675H11.2906C11.8852 42.675 12.4554 42.4384 12.8761 42.0173C13.2965 41.5959 13.5326 41.0246 13.5326 40.429V29.199H15.7746V35.937C15.7746 36.3506 16.1093 36.6855 16.5218 36.6855C16.9347 36.6855 17.2694 36.3506 17.2694 35.937V29.199H21.7533V37.5405C20.8059 37.7855 20.0381 38.4795 19.6978 39.3985C19.3575 40.3179 19.4879 41.3456 20.0465 42.1503C20.6054 42.9549 21.5222 43.4347 22.5005 43.4347C23.4788 43.4347 24.3957 42.9549 24.9546 42.1503C25.5132 41.3457 25.6436 40.3179 25.3033 39.3985C24.963 38.4795 24.1951 37.7855 23.2477 37.5405V29.199H27.7317V35.937C27.7317 36.3506 28.0664 36.6855 28.4792 36.6855C28.8918 36.6855 29.2265 36.3506 29.2265 35.937V29.199H31.4685V40.429C31.4685 41.0246 31.7046 41.5958 32.125 42.0173C32.5457 42.4384 33.1159 42.675 33.7105 42.675H35.3112C35.5558 43.6241 36.2486 44.3933 37.166 44.7342C38.0837 45.0748 39.1096 44.9445 39.9129 44.3845C40.7161 43.8249 41.195 42.9065 41.195 41.9264C41.195 40.9459 40.7161 40.0279 39.9129 39.468C39.1097 38.9084 38.0837 38.7777 37.166 39.1186C36.2486 39.4595 35.5559 40.2285 35.3112 41.1776H33.7105C33.2976 41.1776 32.9632 40.8426 32.9632 40.429V29.199H35.2052V32.9425C35.2052 33.5381 35.4414 34.1093 35.8618 34.5305C36.2821 34.9516 36.8526 35.1885 37.4472 35.1885H39.048C39.2926 36.1376 39.9854 36.9065 40.9028 37.2474C41.8202 37.5883 42.8461 37.4576 43.6496 36.898C44.4528 36.3381 44.9317 35.42 44.9317 34.4396C44.9317 33.4595 44.4529 32.5411 43.6496 31.9815C42.8461 31.4215 41.8202 31.2912 40.9028 31.6318C39.9854 31.9727 39.2926 32.742 39.048 33.691H37.4472C37.0344 33.691 36.6997 33.3558 36.6997 32.9425V29.0718C38.9873 28.7134 41.072 27.5491 42.579 25.7884C44.086 24.0274 44.9161 21.7859 44.9205 19.4666L44.9203 19.4665ZM3.06947 35.9368C2.67318 35.9368 2.29284 35.7792 2.01261 35.4981C1.73236 35.2174 1.57504 34.8367 1.57504 34.4394C1.57504 34.0424 1.73236 33.6614 2.01261 33.3806C2.29286 33.0999 2.6732 32.9423 3.06947 32.9423C3.46607 32.9423 3.8461 33.0999 4.12633 33.3806C4.40689 33.6614 4.56422 34.0424 4.56422 34.4394C4.56422 34.8367 4.4069 35.2174 4.12633 35.4981C3.84608 35.7792 3.46606 35.9368 3.06947 35.9368ZM6.80623 43.4233C6.40994 43.4233 6.02961 43.2657 5.74937 42.9849C5.46914 42.7042 5.31148 42.3232 5.31148 41.9262C5.31148 41.5289 5.46912 41.1482 5.74937 40.8675C6.02962 40.5864 6.40996 40.4288 6.80623 40.4288C7.2025 40.4288 7.58286 40.5864 7.86309 40.8675C8.14334 41.1482 8.30099 41.5289 8.30099 41.9262C8.30099 42.3232 8.14334 42.7042 7.86309 42.9849C7.58284 43.2657 7.2025 43.4233 6.80623 43.4233ZM38.1941 40.4288C38.5904 40.4288 38.9708 40.5864 39.251 40.8674C39.5312 41.1482 39.6889 41.5289 39.6889 41.9262C39.6889 42.3232 39.5312 42.7042 39.251 42.9849C38.9707 43.2657 38.5904 43.4233 38.1941 43.4233C37.7979 43.4233 37.4175 43.2657 37.1373 42.9849C36.857 42.7042 36.6994 42.3232 36.6994 41.9262C36.6994 41.5289 36.857 41.1482 37.1373 40.8674C37.4175 40.5864 37.7979 40.4288 38.1941 40.4288ZM41.9309 32.9422C42.3272 32.9422 42.7075 33.0998 42.9878 33.3806C43.268 33.6613 43.4253 34.0423 43.4253 34.4393C43.4253 34.8366 43.268 35.2173 42.9878 35.4981C42.7075 35.7791 42.3272 35.9367 41.9309 35.9367C41.5343 35.9367 41.1543 35.7791 40.874 35.4981C40.5935 35.2173 40.4361 34.8366 40.4361 34.4393C40.4361 34.0423 40.5935 33.6613 40.874 33.3806C41.1543 33.0998 41.5343 32.9422 41.9309 32.9422ZM23.995 40.4288C23.995 40.8258 23.8373 41.2068 23.5571 41.4875C23.2768 41.7682 22.8965 41.9262 22.5002 41.9262C22.1039 41.9262 21.7236 41.7682 21.4433 41.4875C21.1631 41.2067 21.0054 40.8257 21.0054 40.4288C21.0054 40.0318 21.1631 39.6507 21.4433 39.37C21.7236 39.0893 22.1039 38.9313 22.5002 38.9313C22.8965 38.9313 23.2768 39.0893 23.5571 39.37C23.8373 39.6508 23.995 40.0318 23.995 40.4288ZM35.2049 27.7012H8.301C6.07742 27.6984 3.99934 26.5951 2.74887 24.7534C1.49807 22.9119 1.23656 20.5704 2.05043 18.4976C2.86395 16.4249 4.64746 14.8886 6.8153 14.3939C7.10369 14.3306 7.35516 14.1551 7.51437 13.906C7.67357 13.6569 7.72737 13.3546 7.66419 13.0656C7.55534 12.5355 7.52625 11.9918 7.57817 11.4532C7.69297 10.2835 8.19779 9.1868 9.01161 8.3399C9.82513 7.49324 10.8998 6.94618 12.0622 6.78672C12.3036 6.75476 12.5467 6.73878 12.79 6.73878C13.4712 6.73784 14.1462 6.87038 14.7765 7.12888C15.3057 7.34791 15.9147 7.13014 16.1861 6.62504C17.5095 4.16224 19.8256 2.3875 22.5446 1.75237C25.2639 1.11724 28.1246 1.6825 30.3991 3.30491C32.6736 4.92708 34.1431 7.45004 34.4336 10.2321C34.4865 10.7892 34.9453 11.2195 35.5036 11.2361C38.4046 11.3398 41.0361 12.9682 42.4267 15.5209C43.8169 18.0733 43.761 21.1713 42.2784 23.6715C40.7961 26.1716 38.1075 27.7035 35.2049 27.7013L35.2049 27.7012Z" fill="#F1F1F1"/>
</svg>
