<svg width="48" height="48" viewBox="0 0 48 48" fill="none" xmlns="http://www.w3.org/2000/svg">
<path d="M13.4062 41.564C12.6402 41.564 11.8722 41.368 11.1702 40.976L10.0982 40.378C9.61622 40.11 9.44222 39.502 9.71222 39.018C9.98022 38.534 10.5902 38.362 11.0722 38.632L12.1442 39.23C12.9522 39.68 13.9162 39.674 14.7202 39.2C15.5222 38.728 16.0002 37.892 16.0002 36.962V15C16.0002 14.448 16.4482 14 17.0002 14C17.5522 14 18.0002 14.448 18.0002 15V36.962C18.0002 38.608 17.1522 40.088 15.7322 40.922C15.0082 41.352 14.2082 41.564 13.4062 41.564Z" fill="#F1F1F1"/>
<path d="M24.004 47.9975C23.458 47.9975 22.908 47.8555 22.422 47.5695L17.492 44.6935C17.016 44.4155 16.854 43.8035 17.132 43.3255C17.41 42.8475 18.022 42.6835 18.5 42.9655L23.43 45.8415C23.788 46.0495 24.216 46.0535 24.576 45.8415L42.42 35.4295C42.776 35.2215 42.998 34.8275 43 34.4075V13.5855C43 13.1655 42.776 12.7735 42.416 12.5615L24.578 2.1535C24.222 1.9455 23.786 1.9455 23.434 2.1535L5.57601 12.5635C5.22001 12.7735 4.99801 13.1635 5.00001 13.5835V34.4075C5.00001 34.8295 5.22001 35.2175 5.57801 35.4275L11.092 38.6435C11.568 38.9215 11.73 39.5335 11.452 40.0115C11.174 40.4895 10.56 40.6515 10.084 40.3715L4.57001 37.1555C3.60201 36.5915 3 35.5395 3 34.4075V13.5855C2.998 12.4575 3.598 11.4035 4.568 10.8375L22.42 0.4295C23.396 -0.1445 24.612 -0.1405 25.584 0.4255L43.426 10.8355C44.398 11.4055 45 12.4575 45 13.5855V34.4115C44.998 35.5355 44.396 36.5875 43.432 37.1555L25.584 47.5695C25.098 47.8555 24.55 47.9975 24.004 47.9975Z" fill="#F1F1F1"/>
<path d="M29 34C24.648 34 20 32.554 20 28.5C20 27.948 20.448 27.5 21 27.5C21.552 27.5 22 27.948 22 28.5C22 31.902 28.284 32 29 32C32.83 32 36 31.736 36 28.5C36 26.856 34.338 26.298 30.256 25.33L28.76 24.97C28.3 24.854 27.806 24.748 27.302 24.636C24.048 23.922 20 23.032 20 19.5C20 15.446 24.648 14 29 14C33.352 14 38 15.446 38 19.5C38 20.052 37.552 20.5 37 20.5C36.448 20.5 36 20.052 36 19.5C36 16.098 29.716 16 29 16C28.284 16 22 16.098 22 19.5C22 21.282 24.484 21.97 27.73 22.684C28.254 22.8 28.762 22.91 29.24 23.03L30.716 23.386C34.624 24.31 38 25.112 38 28.5C38 34 32.144 34 29 34Z" fill="#F1F1F1"/>
</svg>
