<svg width="48" height="48" viewBox="0 0 48 48" fill="none" xmlns="http://www.w3.org/2000/svg">
<path d="M23.9633 31.1637C16.8542 31.1637 10.1733 30.1784 5.63309 28.4605C5.29954 28.3342 5.13567 27.9736 5.26661 27.6542C5.33402 27.4901 5.4235 27.2481 5.4235 27.0447C5.4235 26.2472 4.74053 25.5988 3.90139 25.5988C3.40784 25.5988 2.96156 25.837 2.67719 26.2528C2.57452 26.4025 2.4095 26.5029 2.22394 26.5281C2.03876 26.5533 1.85088 26.5007 1.7087 26.384C0.601923 25.475 0.0166016 24.4259 0.0166016 23.3503C0.0166016 21.1485 2.5971 19.1367 7.28265 17.6853C11.7544 16.3001 17.678 15.5371 23.9636 15.5371C31.5663 15.5371 38.7693 16.6807 43.2311 18.596C43.3922 18.6653 43.517 18.7939 43.5766 18.9525C43.6367 19.1111 43.6266 19.2864 43.5487 19.4379C43.4988 19.5354 43.4639 19.6858 43.4639 19.804C43.4639 20.2483 43.8292 20.6096 44.2786 20.6096C44.5529 20.6096 44.7989 20.4814 44.9364 20.2665C45.0325 20.1171 45.1898 20.013 45.3699 19.98C45.5496 19.9474 45.7364 19.9889 45.8828 20.0945C47.2619 21.0884 47.9612 22.1837 47.9612 23.3502C47.9612 25.5701 45.3711 27.5886 40.6685 29.0341C36.2018 30.4074 30.2691 31.1637 23.9637 31.1637L23.9633 31.1637ZM6.67342 27.5071C11.0498 29.043 17.3018 29.9183 23.9633 29.9183C30.1373 29.9183 35.9286 29.1831 40.2694 27.8488C44.3301 26.6008 46.6592 24.9611 46.6592 23.3502C46.6592 22.6054 46.1265 21.9429 45.5512 21.4452C45.1948 21.708 44.7513 21.8551 44.2782 21.8551C43.1114 21.8551 42.1619 20.935 42.1619 19.8044C42.1619 19.7107 42.1688 19.6151 42.1828 19.5199C37.849 17.8009 31.1021 16.7826 23.9636 16.7826C17.811 16.7826 12.0291 17.5241 7.6833 18.8703C3.69771 20.1047 1.31794 21.7796 1.31794 23.3504C1.31794 23.9036 1.58447 24.4698 2.09467 25.0108C2.59363 24.591 3.2313 24.3535 3.90151 24.3535C5.45844 24.3535 6.72528 25.5608 6.72528 27.0444C6.72489 27.2052 6.70475 27.3609 6.67298 27.5072L6.67342 27.5071Z" fill="#F1F1F1"/>
<path d="M23.9145 46.7265C23.9091 46.7265 23.9033 46.7265 23.8979 46.7261C21.6065 46.6702 19.6063 44.1942 18.1129 39.5648C16.7094 35.2134 15.9365 29.4554 15.9365 23.3501C15.9365 15.1368 17.4001 7.47406 19.7559 3.35138C19.9248 3.05604 20.3087 2.94265 20.6225 3.09532C20.7736 3.16906 20.9723 3.22465 21.0851 3.22465C21.534 3.22465 21.8997 2.86299 21.8997 2.41906C21.8997 2.18673 21.8134 1.97218 21.6747 1.85953C21.529 1.74133 21.4449 1.56791 21.4449 1.38485C21.4449 1.20217 21.5286 1.02838 21.6743 0.910176C22.4088 0.313581 23.1584 0.0234375 23.9654 0.0234375C26.2859 0.0234375 28.3073 2.47201 29.8108 7.10439C31.2185 11.4421 31.9942 17.2119 31.9942 23.3513C31.9942 27.9185 31.5704 32.3173 30.7681 36.0723C29.9689 39.8141 28.8303 42.7452 27.4756 44.548C27.3637 44.6973 27.1886 44.7915 26.9968 44.8052C26.8051 44.8192 26.6172 44.7518 26.4827 44.6206C26.2859 44.4291 25.9873 44.3145 25.6839 44.3145C25.0118 44.3145 24.4652 44.8526 24.4652 45.5144C24.4652 45.6363 24.5051 45.7923 24.5477 45.9568C24.5961 46.145 24.55 46.3444 24.4226 46.4956C24.2978 46.6423 24.1111 46.7276 23.9147 46.7276L23.9145 46.7265ZM20.6422 4.41723C18.5348 8.46849 17.2378 15.6394 17.2378 23.3497C17.2378 29.3334 17.9901 34.9617 19.3564 39.1973C20.4167 42.4845 21.7998 44.6704 23.1723 45.2966C23.2854 44.0494 24.3683 43.0678 25.683 43.0678C26.0657 43.0678 26.4404 43.1523 26.7735 43.3086C29.1665 39.6157 30.6917 31.9119 30.6917 23.3497C30.6917 17.3323 29.937 11.6931 28.5668 7.47179C27.3062 3.58692 25.5857 1.26764 23.9649 1.26764C23.6364 1.26764 23.3222 1.35139 23.0018 1.52666C23.1312 1.79457 23.2006 2.09842 23.2006 2.41784C23.2006 3.54878 22.2511 4.46847 21.0842 4.46847C20.9316 4.46884 20.7805 4.44734 20.6422 4.41696V4.41723Z" fill="#F1F1F1"/>
<path d="M9.82773 40.865C8.63298 40.865 7.69044 40.5367 7.02647 39.8897C5.39824 38.303 5.75387 35.1785 8.0542 30.8541C10.2151 26.7925 13.852 22.1702 18.2959 17.8391C25.6351 10.6867 33.6132 5.88086 38.1484 5.88086C39.3462 5.88086 40.29 6.20917 40.9539 6.85613C42.5802 8.44099 42.2246 11.5592 39.9258 15.8736C37.7715 19.9167 34.135 24.5449 29.6861 28.9047C22.3047 36.059 14.3251 40.864 9.82763 40.864L9.82773 40.865ZM38.1487 7.12649C34.0056 7.12649 26.2241 11.8903 19.2244 18.711C14.8716 22.9535 11.3165 27.4661 9.21384 31.4177C7.27768 35.0573 6.8069 37.8979 7.95483 39.0166C8.3647 39.4164 8.99457 39.6191 9.82713 39.6191C13.9339 39.6191 21.718 34.8545 28.7574 28.0327C33.1145 23.7624 36.6699 19.2428 38.767 15.308C40.7009 11.6784 41.1715 8.84478 40.0256 7.72797C39.6157 7.32852 38.9843 7.12545 38.149 7.12545L38.1487 7.12649Z" fill="#F1F1F1"/>
<path d="M38.1492 40.8659C33.6136 40.8659 25.6355 36.0602 18.2966 28.9076C13.8466 24.5462 10.2097 19.9184 8.05499 15.8755C5.75614 11.5612 5.4009 8.44294 7.02686 6.85809C7.69085 6.2111 8.63337 5.88281 9.82811 5.88281C14.3258 5.88281 22.3051 10.6877 29.6837 17.8401C34.1282 22.1719 37.7655 26.7938 39.9263 30.8561C42.2266 35.1805 42.5823 38.3049 40.954 39.8917C40.29 40.5383 39.3459 40.8666 38.1485 40.8666L38.1492 40.8659ZM9.82821 7.1274C8.99609 7.1274 8.36619 7.33009 7.95591 7.72955C6.80996 8.84636 7.28068 11.6801 9.21453 15.3096C11.3108 19.2441 14.8662 23.7637 19.2261 28.0362C26.2237 34.8563 34.0049 39.6198 38.1484 39.6198C38.9836 39.6198 39.6151 39.4171 40.025 39.0172C41.1728 37.8985 40.7021 35.0579 38.766 31.4186C36.664 27.4667 33.1088 22.9541 28.7554 18.7119C21.7187 11.8915 13.9349 7.12741 9.82811 7.12741L9.82821 7.1274Z" fill="#F1F1F1"/>
<path d="M21.0851 4.46844C19.9182 4.46844 18.9688 3.54835 18.9688 2.41781C18.9688 1.28687 19.9183 0.367188 21.0851 0.367188C22.252 0.367188 23.2015 1.28727 23.2015 2.41781C23.2015 3.54837 22.2524 4.46844 21.0851 4.46844ZM21.0851 1.61187C20.6361 1.61187 20.2704 1.97353 20.2704 2.41745C20.2704 2.86175 20.6357 3.22304 21.0851 3.22304C21.5341 3.22304 21.8998 2.86138 21.8998 2.41745C21.8998 1.97353 21.5345 1.61187 21.0851 1.61187Z" fill="#F1F1F1"/>
<path d="M44.2804 21.8532C43.1135 21.8532 42.1641 20.9331 42.1641 19.8026C42.1641 18.6716 43.1136 17.752 44.2804 17.752C45.4473 17.752 46.3968 18.672 46.3968 19.8026C46.3968 20.9331 45.4477 21.8532 44.2804 21.8532ZM44.2804 18.9966C43.831 18.9966 43.4657 19.3583 43.4657 19.8022C43.4657 20.2465 43.831 20.6078 44.2804 20.6078C44.7294 20.6078 45.0951 20.2461 45.0951 19.8022C45.0951 19.3583 44.7298 18.9966 44.2804 18.9966Z" fill="#F1F1F1"/>
<path d="M25.6835 47.9581C24.2935 47.9581 23.1631 46.8613 23.1631 45.5132C23.1631 44.1651 24.2939 43.0684 25.6835 43.0684C27.0498 43.0684 28.2039 44.1878 28.2039 45.5132C28.2039 46.1535 27.9404 46.7635 27.4616 47.23C26.9805 47.6995 26.3486 47.9582 25.6834 47.9582L25.6835 47.9581ZM25.6835 44.3137C25.0113 44.3137 24.4647 44.8517 24.4647 45.5135C24.4647 46.175 25.0117 46.713 25.6835 46.713C25.9961 46.713 26.2979 46.5871 26.533 46.3577C26.7678 46.1287 26.9026 45.8211 26.9026 45.5132C26.9026 44.8744 26.3331 44.3137 25.6835 44.3137V44.3137Z" fill="#F1F1F1"/>
<path d="M3.90327 29.7358C2.37421 29.7358 1.12988 28.5285 1.12988 27.0448C1.12988 25.5607 2.37382 24.3535 3.90327 24.3535C5.4602 24.3535 6.72704 25.5608 6.72704 27.0448C6.72704 28.5286 5.46059 29.7358 3.90327 29.7358ZM3.90327 25.5986C3.10562 25.5986 2.43154 26.2608 2.43154 27.0448C2.43154 27.8286 3.10561 28.4907 3.90327 28.4907C4.74237 28.4907 5.42539 27.8419 5.42539 27.0448C5.42539 26.2474 4.7428 25.5986 3.90327 25.5986Z" fill="#F1F1F1"/>
<path d="M23.9753 26.9504C21.9546 26.9504 20.3105 25.3393 20.3105 23.3587C20.3105 21.4288 21.9888 19.7988 23.9753 19.7988C26.0142 19.7988 27.6726 21.3959 27.6726 23.3587C27.6726 25.3389 26.0141 26.9504 23.9753 26.9504ZM23.9753 21.0434C22.6942 21.0434 21.6122 22.1036 21.6122 23.3582C21.6122 24.6303 22.6946 25.7049 23.9753 25.7049C25.2963 25.7049 26.3709 24.6521 26.3709 23.3582C26.3709 22.1035 25.2739 21.0434 23.9753 21.0434Z" fill="#F1F1F1"/>
<path d="M3.92426 42.7705C3.75303 42.7705 3.58568 42.7041 3.46443 42.5878C3.34278 42.4725 3.27344 42.3117 3.27344 42.1479C3.27344 41.9841 3.34278 41.8233 3.46443 41.7081C3.5849 41.5917 3.75304 41.5254 3.92426 41.5254C4.09549 41.5254 4.26363 41.5917 4.3841 41.7081C4.50575 41.8233 4.57509 41.9841 4.57509 42.1479C4.57509 42.3117 4.50575 42.4725 4.3841 42.5878C4.26284 42.7041 4.09549 42.7705 3.92426 42.7705Z" fill="#F1F1F1"/>
<path d="M11.5161 44.8447C11.3448 44.8447 11.1767 44.7783 11.0562 44.662C10.9346 44.5467 10.8652 44.3859 10.8652 44.2221C10.8652 44.0584 10.9346 43.8983 11.0562 43.7823C11.1767 43.6659 11.3448 43.5996 11.5161 43.5996C11.6873 43.5996 11.8554 43.6659 11.9759 43.7823C12.0975 43.8975 12.1669 44.0584 12.1669 44.2221C12.1669 44.3859 12.0975 44.5467 11.9759 44.662C11.8554 44.7783 11.6873 44.8447 11.5161 44.8447Z" fill="#F1F1F1"/>
<path d="M11.5161 3.34467C11.3448 3.34467 11.1775 3.27834 11.0562 3.16198C10.9346 3.04675 10.8652 2.88592 10.8652 2.72214C10.8652 2.55836 10.9346 2.39827 11.0562 2.28229C11.1767 2.16594 11.3448 2.09961 11.5161 2.09961C11.6873 2.09961 11.8554 2.16594 11.9759 2.28229C12.0975 2.39865 12.1669 2.55836 12.1669 2.72214C12.1669 2.88592 12.0975 3.04601 11.9759 3.16198C11.8554 3.27834 11.6873 3.34467 11.5161 3.34467Z" fill="#F1F1F1"/>
<path d="M3.92426 5.41889C3.75303 5.41889 3.58568 5.35256 3.46443 5.2362C3.34278 5.12097 3.27344 4.96014 3.27344 4.79636C3.27344 4.63258 3.34278 4.47249 3.46443 4.35651C3.58569 4.24016 3.75304 4.17383 3.92426 4.17383C4.09549 4.17383 4.26363 4.24016 4.3841 4.35651C4.50575 4.4725 4.57509 4.63258 4.57509 4.79636C4.57509 4.96014 4.50575 5.12097 4.3841 5.2362C4.26363 5.35256 4.09549 5.41889 3.92426 5.41889Z" fill="#F1F1F1"/>
<path d="M45.143 10.6064C44.9718 10.6064 44.8036 10.5401 44.6832 10.4237C44.5615 10.3085 44.4922 10.1476 44.4922 9.98386C44.4922 9.82008 44.5615 9.65925 44.6832 9.54401C44.8048 9.42766 44.9718 9.36133 45.143 9.36133C45.3142 9.36133 45.4824 9.42766 45.6029 9.54401C45.7241 9.65925 45.7938 9.82008 45.7938 9.98386C45.7938 10.1476 45.7245 10.3085 45.6029 10.4237C45.4824 10.5401 45.3142 10.6064 45.143 10.6064Z" fill="#F1F1F1"/>
<path d="M47.312 36.5439C47.1407 36.5439 46.9726 36.4776 46.8521 36.3612C46.7305 36.246 46.6611 36.0851 46.6611 35.9214C46.6611 35.7576 46.7305 35.5968 46.8521 35.4815C46.9726 35.3652 47.1407 35.2988 47.312 35.2988C47.4832 35.2988 47.6513 35.3652 47.7718 35.4815C47.8931 35.5968 47.9628 35.7576 47.9628 35.9214C47.9628 36.0851 47.8934 36.2452 47.7718 36.3612C47.6513 36.4776 47.4832 36.5439 47.312 36.5439Z" fill="#F1F1F1"/>
<path d="M37.5483 44.8447C37.3771 44.8447 37.2089 44.7783 37.0885 44.662C36.9668 44.5467 36.8975 44.3859 36.8975 44.2221C36.8975 44.0584 36.9668 43.8975 37.0885 43.7823C37.2089 43.6659 37.3771 43.5996 37.5483 43.5996C37.7195 43.5996 37.8876 43.6659 38.0081 43.7823C38.1294 43.8987 38.1991 44.0584 38.1991 44.2221C38.1991 44.3859 38.1298 44.5467 38.0081 44.662C37.8876 44.7783 37.7195 44.8447 37.5483 44.8447Z" fill="#F1F1F1"/>
<path d="M45.143 5.41889C44.9718 5.41889 44.8044 5.35256 44.6832 5.2362C44.5615 5.12097 44.4922 4.96014 44.4922 4.79636C44.4922 4.63258 44.5615 4.47175 44.6832 4.35651C44.8036 4.24016 44.9718 4.17383 45.143 4.17383C45.3142 4.17383 45.4824 4.24016 45.6029 4.35651C45.7241 4.47287 45.7938 4.63258 45.7938 4.79636C45.7938 4.96014 45.7245 5.12023 45.6029 5.2362C45.4824 5.35256 45.3142 5.41889 45.143 5.41889Z" fill="#F1F1F1"/>
</svg>
