<svg width="48" height="48" viewBox="0 0 48 48" fill="none" xmlns="http://www.w3.org/2000/svg">
<path d="M10.1253 21.5809C9.87656 21.5715 9.62851 21.6131 9.39674 21.7033C9.16497 21.7935 8.95446 21.9302 8.77843 22.1049C8.60239 22.2795 8.46462 22.4884 8.37375 22.7184C8.28287 22.9484 8.24086 23.1945 8.25033 23.4413V24.1855C8.24086 24.4324 8.28287 24.6785 8.37375 24.9085C8.46462 25.1384 8.60239 25.3473 8.77843 25.522C8.95446 25.6966 9.16497 25.8334 9.39674 25.9235C9.62851 26.0137 9.87656 26.0554 10.1253 26.046H10.8753C11.124 26.0548 11.3718 26.0128 11.6033 25.9224C11.8348 25.832 12.0451 25.6953 12.221 25.5207C12.3969 25.3462 12.5347 25.1375 12.6258 24.9078C12.7168 24.6781 12.7592 24.4322 12.7503 24.1855V23.4413C12.7592 23.1946 12.7168 22.9487 12.6258 22.719C12.5347 22.4893 12.3969 22.2806 12.221 22.1061C12.0451 21.9315 11.8348 21.7948 11.6033 21.7044C11.3718 21.6141 11.124 21.572 10.8753 21.5809H10.1253ZM11.2503 23.4413V24.1855C11.2579 24.2361 11.2535 24.2878 11.2373 24.3364C11.2211 24.3849 11.1937 24.4291 11.1573 24.4653C11.1208 24.5014 11.0763 24.5286 11.0274 24.5447C10.9784 24.5607 10.9263 24.5651 10.8753 24.5576H10.1253C10.0742 24.566 10.0218 24.5621 9.97241 24.5464C9.92306 24.5307 9.8782 24.5035 9.84154 24.4671C9.80488 24.4307 9.77749 24.3862 9.76163 24.3372C9.74577 24.2883 9.7419 24.2363 9.75033 24.1855V23.4413C9.7419 23.3906 9.74577 23.3386 9.76163 23.2896C9.77749 23.2406 9.80488 23.1961 9.84154 23.1597C9.8782 23.1234 9.92306 23.0962 9.97241 23.0804C10.0218 23.0647 10.0742 23.0609 10.1253 23.0692H10.8753C10.9263 23.0617 10.9784 23.0661 11.0274 23.0822C11.0763 23.0982 11.1208 23.1254 11.1573 23.1616C11.1937 23.1977 11.2211 23.2419 11.2373 23.2905C11.2535 23.3391 11.2579 23.3907 11.2503 23.4413ZM18.7503 13.3948C18.3215 13.3879 17.9032 13.5271 17.5653 13.7892C17.2334 13.5269 16.8197 13.3874 16.3953 13.3948H15.3753C15.1221 13.3914 14.8708 13.4396 14.6371 13.5364C14.4033 13.6332 14.1921 13.7765 14.0163 13.9575C13.8406 14.1385 13.7042 14.3533 13.6154 14.5887C13.5267 14.824 13.4875 15.075 13.5003 15.326V24.1148C13.4875 24.3658 13.5267 24.6167 13.6154 24.8521C13.7042 25.0875 13.8406 25.3023 14.0163 25.4833C14.1921 25.6643 14.4033 25.8076 14.6371 25.9044C14.8708 26.0012 15.1221 26.0493 15.3753 26.046H16.1478C16.5771 26.0518 16.9954 25.9112 17.3328 25.6478C17.6532 25.8992 18.0493 26.0368 18.4578 26.0385H18.4878L19.5003 26.046C19.7536 26.0504 20.005 26.0031 20.239 25.9069C20.473 25.8107 20.6845 25.6678 20.8604 25.487C21.0363 25.3062 21.1728 25.0913 21.2614 24.8559C21.35 24.6205 21.3888 24.3695 21.3753 24.1185V15.326C21.3882 15.075 21.349 14.824 21.2603 14.5887C21.1715 14.3533 21.035 14.1385 20.8593 13.9575C20.6836 13.7765 20.4723 13.6332 20.2386 13.5364C20.0048 13.4396 19.7536 13.3914 19.5003 13.3948H18.7503ZM19.8753 15.326V24.1074C19.8753 24.4075 19.7503 24.5576 19.5003 24.5576H18.4878C18.406 24.5595 18.3261 24.533 18.2617 24.4827C18.1974 24.4325 18.1527 24.3616 18.1353 24.2823L16.5416 19.4897V24.1148C16.5416 24.41 16.4166 24.5576 16.1666 24.5576H15.3753C15.1253 24.5576 15.0003 24.41 15.0003 24.1148V15.326C15.0003 15.0308 15.1253 14.8832 15.3753 14.8832H16.3878C16.4735 14.8807 16.5574 14.9074 16.6257 14.9589C16.6939 15.0103 16.7423 15.0834 16.7628 15.166L18.3603 19.9585V15.326C18.3603 15.0308 18.4853 14.8832 18.7353 14.8832H19.4853C19.7453 14.8832 19.8753 15.0308 19.8753 15.326ZM29.2503 16.2302V15.326C29.2599 15.0758 29.2185 14.8262 29.1286 14.5923C29.0387 14.3583 28.9021 14.1448 28.727 13.9645C28.5519 13.7842 28.342 13.6408 28.1097 13.5429C27.8775 13.445 27.6277 13.3946 27.3753 13.3948H24.0416C23.7892 13.3946 23.5395 13.445 23.3072 13.5429C23.0749 13.6408 22.865 13.7842 22.6899 13.9645C22.5148 14.1448 22.3783 14.3583 22.2883 14.5923C22.1984 14.8262 22.157 15.0758 22.1666 15.326V22.8571C22.1579 23.6604 22.4491 24.4384 22.9841 25.0413C23.2514 25.3554 23.5844 25.608 23.96 25.7815C24.3356 25.9549 24.7448 26.0452 25.1591 26.046H27.4091C27.6614 26.0462 27.9112 25.9958 28.1435 25.8979C28.3757 25.8 28.5857 25.6566 28.7607 25.4763C28.9358 25.296 29.0724 25.0825 29.1623 24.8485C29.2523 24.6146 29.2937 24.365 29.2841 24.1148V23.2143C29.2955 22.8815 29.2179 22.5516 29.0591 22.2581C28.9004 21.9647 28.6662 21.7182 28.3803 21.5436C28.7257 21.1711 28.9125 20.6804 28.9016 20.1743V19.2664C28.9128 18.7549 28.7216 18.2594 28.3691 17.886C28.6488 17.7102 28.8773 17.465 29.0319 17.1745C29.1865 16.884 29.2618 16.5585 29.2503 16.2302ZM27.7841 24.1148C27.7841 24.41 27.6591 24.5576 27.4091 24.5576H25.1591C24.9554 24.5581 24.7542 24.5136 24.57 24.4274C24.3857 24.3412 24.2232 24.2153 24.0941 24.059C23.7992 23.728 23.6412 23.2988 23.6516 22.8571V15.326C23.6516 15.0308 23.7766 14.8832 24.0266 14.8832H27.3753C27.6253 14.8832 27.7503 15.0308 27.7503 15.326V16.2302C27.7503 16.5229 27.6253 16.6692 27.3753 16.6692H25.2341V18.8236H27.0003C27.2503 18.8236 27.3753 18.9712 27.3753 19.2664V20.1706C27.3753 20.4658 27.2503 20.6134 27.0003 20.6134H25.2341V22.7716H27.3753C27.6253 22.7716 27.7503 22.9192 27.7503 23.2143L27.7841 24.1148ZM33.3753 26.046H34.1253C34.3787 26.0499 34.6303 26.0021 34.8643 25.9055C35.0983 25.8089 35.3097 25.6656 35.4856 25.4845C35.6614 25.3034 35.7978 25.0884 35.8864 24.8527C35.9749 24.6171 36.0137 24.3659 36.0003 24.1148V18.1241C36.4379 18.0412 36.8306 17.8044 37.1062 17.4571C37.3818 17.1098 37.5218 16.6754 37.5003 16.2339V15.326C37.5137 15.0749 37.4749 14.8237 37.3864 14.5881C37.2978 14.3524 37.1614 14.1374 36.9856 13.9563C36.8097 13.7752 36.5982 13.6319 36.3643 13.5353C36.1303 13.4387 35.8787 13.3909 35.6253 13.3948H31.8753C31.6219 13.3909 31.3704 13.4387 31.1364 13.5353C30.9024 13.6319 30.6909 13.7752 30.5151 13.9563C30.3393 14.1374 30.2028 14.3524 30.1143 14.5881C30.0257 14.8237 29.9869 15.0749 30.0003 15.326V16.2302C29.9789 16.6717 30.1188 17.1061 30.3944 17.4533C30.67 17.8006 31.0627 18.0375 31.5003 18.1204V24.1111C31.4864 24.3625 31.5248 24.6141 31.6131 24.8502C31.7014 25.0862 31.8378 25.3017 32.0137 25.4832C32.1895 25.6647 32.4012 25.8084 32.6355 25.9052C32.8697 26.002 33.1216 26.0499 33.3753 26.046ZM31.5003 15.326C31.5003 15.0308 31.6253 14.8832 31.8753 14.8832H35.6253C35.8753 14.8832 36.0003 15.0308 36.0003 15.326V16.2302C36.0003 16.5229 35.8753 16.6692 35.6253 16.6692H34.5003V24.1111C34.5003 24.4088 34.3753 24.5576 34.1253 24.5576H33.3753C33.1253 24.5576 33.0003 24.41 33.0003 24.1148V16.673H31.8753C31.6253 16.673 31.5003 16.5266 31.5003 16.2339V15.326Z" fill="#F1F1F1"/>
<path d="M23.9997 46.1381C18.8063 46.1478 13.7689 44.3779 9.73896 41.1275C5.70903 37.8771 2.93385 33.3456 1.88258 28.2992C0.83131 23.2528 1.56844 18.0009 3.96935 13.4315C6.37027 8.86215 10.2877 5.25554 15.0593 3.22141C19.831 1.18729 25.1641 0.85044 30.1572 2.26781C35.1503 3.68519 39.4969 6.76983 42.4624 11.0003C45.4278 15.2307 46.8301 20.3474 46.4322 25.4854C46.0342 30.6234 43.8605 35.4674 40.2785 39.1986L41.2535 40.3558C45.3874 36.1042 47.7781 30.4778 47.9598 24.5728C48.1415 18.6678 46.1012 12.9072 42.2364 8.4132C38.3716 3.91925 32.9592 1.01388 27.0535 0.26314C21.1479 -0.487601 15.1721 0.97006 10.2904 4.35213C5.40868 7.7342 1.97071 12.7984 0.646312 18.5582C-0.67809 24.3179 0.205935 30.3606 3.12615 35.5089C6.04637 40.6573 10.7936 44.5425 16.443 46.4077C22.0924 48.2729 28.2392 47.9845 33.686 45.5986L32.936 44.3C30.1162 45.5155 27.0741 46.1413 23.9997 46.1381Z" fill="#F1F1F1"/>
<path d="M38.1785 35.8461L37.736 36.1698L38.5948 37.1931C41.911 33.6285 43.7836 28.9742 43.853 24.1236C43.9224 19.2729 42.1838 14.5677 38.9709 10.9112C35.7581 7.25463 31.2973 4.90439 26.4449 4.3116C21.5925 3.7188 16.6904 4.92523 12.6796 7.69929C8.66879 10.4734 5.8319 14.6196 4.71348 19.3421C3.59506 24.0646 4.27391 29.0306 6.61973 33.2868C8.96556 37.5431 12.813 40.7897 17.4237 42.4034C22.0343 44.0171 27.0831 43.8842 31.601 42.0303L31.0873 41.1521L30.7573 41.3977C30.4059 41.6606 29.9836 41.8138 29.5441 41.8376C29.1047 41.8615 28.668 41.755 28.2898 41.5317C24.1044 42.5355 19.6969 42.0518 15.8338 40.1646C11.9707 38.2775 8.89647 35.1064 7.14593 31.2029C5.39539 27.2994 5.07927 22.9105 6.25257 18.7997C7.42586 14.6888 10.0143 11.1162 13.5677 8.70311C17.1211 6.29005 21.4145 5.1893 25.7012 5.59233C29.9879 5.99536 33.9966 7.87666 37.03 10.909C40.0633 13.9413 41.9295 17.9328 42.3038 22.1892C42.6781 26.4455 41.5368 30.6974 39.0785 34.2052C39.0569 34.5269 38.9652 34.8403 38.8098 35.1235C38.6545 35.4068 38.4391 35.6533 38.1785 35.8461Z" fill="#F1F1F1"/>
<path d="M35.5645 35.9188L37.282 34.6537C37.3816 34.5807 37.4615 34.4843 37.5144 34.3733C37.5674 34.2622 37.5918 34.1398 37.5854 34.0171C37.5791 33.8944 37.5423 33.7752 37.4782 33.6701C37.4142 33.5649 37.3249 33.4771 37.2183 33.4146L27.3745 27.6397C27.249 27.563 27.1034 27.5248 26.956 27.5297C26.8086 27.5347 26.666 27.5827 26.5459 27.6676C26.4258 27.7526 26.3337 27.8708 26.281 28.0075C26.2283 28.1441 26.2173 28.2932 26.2495 28.436L28.6683 39.7662C28.6944 39.8883 28.751 40.0018 28.8329 40.0965C28.9147 40.1912 29.0193 40.2639 29.1369 40.308C29.2546 40.3521 29.3815 40.3661 29.506 40.3488C29.6305 40.3315 29.7486 40.2835 29.8495 40.209L31.5295 38.9737L36.3745 47.2564C36.427 47.347 36.4981 47.4255 36.5832 47.4869C36.6683 47.5484 36.7654 47.5914 36.8683 47.6132C36.9713 47.6349 37.0777 47.635 37.1806 47.6132C37.2835 47.5915 37.3807 47.5486 37.4658 47.4871L41.6845 44.4434C41.7677 44.3835 41.8375 44.3073 41.8897 44.2195C41.942 44.1317 41.9754 44.0341 41.9881 43.933C42.0008 43.8318 41.9923 43.7291 41.9633 43.6313C41.9343 43.5335 41.8854 43.4426 41.8195 43.3644L35.5645 35.9188ZM37.2633 45.7978L32.422 37.5039C32.369 37.4134 32.2972 37.3351 32.2116 37.274C32.1259 37.2129 32.0282 37.1704 31.9248 37.1494C31.8215 37.1283 31.7148 37.1291 31.6118 37.1517C31.5088 37.1743 31.4118 37.2183 31.327 37.2806L29.9095 38.3262L28.087 29.7681L35.482 34.1253L34.0345 35.1895C33.9525 35.2499 33.8838 35.3264 33.8327 35.4142C33.7815 35.5019 33.7489 35.5992 33.737 35.6999C33.7251 35.8006 33.734 35.9026 33.7632 35.9998C33.7925 36.0969 33.8414 36.1871 33.907 36.2648L40.162 43.7067L37.2633 45.7978Z" fill="#F1F1F1"/>
</svg>
