<svg width="34" height="48" viewBox="0 0 34 48" fill="none" xmlns="http://www.w3.org/2000/svg">
<path d="M33.6549 8.90214L25.1791 0.348165C25.0202 0.187781 24.8045 0.0976562 24.5798 0.0976562H0.847578C0.379521 0.0976562 0 0.480679 0 0.953053V47.1445C0 47.3713 0.0892989 47.589 0.248219 47.7494C0.40714 47.9098 0.62282 47.9999 0.847578 47.9999H33.0555C33.2803 47.9999 33.496 47.9098 33.6549 47.7494C33.8138 47.589 33.9031 47.3713 33.9031 47.1445V9.50702C33.9031 9.28019 33.8138 9.06252 33.6549 8.90214ZM25.4273 3.01818L31.0092 8.65158H25.4273V3.01818ZM1.69511 46.2886V1.80791H23.7321V9.50649C23.7321 9.73332 23.8214 9.95099 23.9804 10.1114C24.1393 10.2718 24.355 10.3619 24.5797 10.3619H32.2079V46.2886H1.69511ZM30.5128 26.6144C30.5128 26.8413 30.4235 27.0589 30.2645 27.2193C30.1056 27.3797 29.8899 27.4698 29.6652 27.4698H4.23784C3.76978 27.4698 3.39026 27.0868 3.39026 26.6144C3.39026 26.1421 3.76978 25.759 4.23784 25.759H29.6652C29.8899 25.759 30.1056 25.8492 30.2645 26.0095C30.4235 26.1699 30.5128 26.3876 30.5128 26.6144ZM30.5128 31.7468C30.5128 31.9736 30.4235 32.1913 30.2645 32.3517C30.1056 32.5121 29.8899 32.6022 29.6652 32.6022H4.23784C3.76978 32.6022 3.39026 32.2192 3.39026 31.7468C3.39026 31.2744 3.76978 30.8914 4.23784 30.8914H29.6652C29.8899 30.8914 30.1056 30.9815 30.2645 31.1419C30.4235 31.3023 30.5128 31.52 30.5128 31.7468ZM30.5128 36.8792C30.5128 37.106 30.4235 37.3237 30.2645 37.4841C30.1056 37.6445 29.8899 37.7346 29.6652 37.7346H4.23784C3.76978 37.7346 3.39026 37.3516 3.39026 36.8792C3.39026 36.4068 3.76978 36.0238 4.23784 36.0238H29.6652C29.8899 36.0238 30.1056 36.1139 30.2645 36.2743C30.4235 36.4347 30.5128 36.6524 30.5128 36.8792ZM30.5128 42.0116C30.5128 42.2384 30.4235 42.4561 30.2645 42.6165C30.1056 42.7769 29.8899 42.867 29.6652 42.867H4.23784C3.76978 42.867 3.39026 42.484 3.39026 42.0116C3.39026 41.5392 3.76978 41.1562 4.23784 41.1562H29.6652C29.8899 41.1562 30.1056 41.2463 30.2645 41.4067C30.4235 41.5671 30.5128 41.7847 30.5128 42.0116ZM6.78058 19.7713V16.3497C6.78133 15.6692 7.0496 15.0169 7.52599 14.5357C8.00275 14.055 8.64905 13.7842 9.32334 13.7834H11.0185C11.6928 13.7842 12.3391 14.055 12.8158 14.5357C13.2922 15.0169 13.5605 15.6692 13.5613 16.3497C13.5613 16.822 13.1817 17.2051 12.7137 17.2051C12.2456 17.2051 11.8661 16.822 11.8661 16.3497C11.8657 15.8773 11.4866 15.4946 11.0185 15.4943H9.32337C8.85531 15.4946 8.47617 15.8773 8.47579 16.3497V19.7713C8.47617 20.2436 8.85531 20.6263 9.32337 20.6266H11.0185C11.4866 20.6263 11.8657 20.2436 11.8661 19.7713C11.8661 19.2989 12.2456 18.9159 12.7137 18.9159C13.1817 18.9159 13.5613 19.2989 13.5613 19.7713C13.5605 20.4517 13.2922 21.104 12.8158 21.5852C12.3391 22.066 11.6928 22.3367 11.0185 22.3375H9.32334C8.64906 22.3367 8.00276 22.066 7.52599 21.5852C7.0496 21.104 6.78133 20.4518 6.78058 19.7713ZM15.2564 18.0605C15.2564 17.5881 15.6359 17.2051 16.1039 17.2051H16.9515V16.3497C16.9515 15.8773 17.331 15.4943 17.7991 15.4943C18.2672 15.4943 18.6467 15.8773 18.6467 16.3497V17.2051H19.4942C19.9623 17.2051 20.3418 17.5881 20.3418 18.0605C20.3418 18.5328 19.9623 18.9159 19.4942 18.9159H18.6467V19.7713C18.6467 20.2436 18.2672 20.6266 17.7991 20.6266C17.331 20.6266 16.9515 20.2436 16.9515 19.7713V18.9159H16.1039C15.6359 18.9159 15.2564 18.5328 15.2564 18.0605ZM22.037 18.0605C22.037 17.5881 22.4165 17.2051 22.8846 17.2051H23.7321V16.3497C23.7321 15.8773 24.1117 15.4943 24.5797 15.4943C25.0478 15.4943 25.4273 15.8773 25.4273 16.3497V17.2051H26.2749C26.7429 17.2051 27.1225 17.5881 27.1225 18.0605C27.1225 18.5328 26.7429 18.9159 26.2749 18.9159H25.4273V19.7713C25.4273 20.2436 25.0478 20.6266 24.5797 20.6266C24.1117 20.6266 23.7321 20.2436 23.7321 19.7713V18.9159H22.8846C22.4165 18.9159 22.037 18.5328 22.037 18.0605Z" fill="#F1F1F1"/>
</svg>
