<svg width="38" height="48" viewBox="0 0 38 48" fill="none" xmlns="http://www.w3.org/2000/svg">
<path d="M37.5812 10.9531C37.5711 10.8879 37.5671 10.8208 37.5413 10.7596C37.4994 10.6606 37.4371 10.572 37.361 10.4969L27.4878 0.710098C27.4137 0.636993 27.3256 0.577781 27.2294 0.53809C27.1333 0.498726 27.0274 0.476893 26.9212 0.476893L3.26906 0.476562C1.72605 0.476562 0.466797 1.71734 0.466797 3.24298V44.868C0.466797 46.3933 1.7257 47.6345 3.26906 47.6345H34.8009C36.3439 47.6345 37.6032 46.3937 37.6032 44.868V11.0618C37.6032 11.0224 37.5871 10.9887 37.581 10.9533L37.5812 10.9531ZM27.7216 3.17977L34.8732 10.2693H27.7216V3.17977ZM3.26922 2.05739H26.1193V11.0617C26.1193 11.4984 26.4795 11.852 26.9198 11.852H36.0004V18.2263L2.71869 18.2267L2.0683 18.2207V3.24283C2.0683 2.58885 2.60677 2.05727 3.26922 2.05727V2.05739ZM36.002 35.2887H2.0683V19.7993L36.0003 19.8053V35.2887L36.002 35.2887ZM34.8011 46.0536H3.26922C2.60677 46.0536 2.0683 45.522 2.0683 44.868V36.8674H36.0003V44.868C36.0023 45.522 35.4638 46.0536 34.8013 46.0536H34.8011Z" fill="#F1F1F1"/>
<path d="M11.3733 30.8105V28.3325H12.2499C12.8584 28.3325 13.3228 28.3008 13.6428 28.2376C13.879 28.1863 14.1112 28.0834 14.3394 27.9253C14.5676 27.7692 14.7556 27.5519 14.9037 27.2773C15.0518 27.0027 15.1258 26.6627 15.1258 26.2598C15.1258 25.7361 14.9978 25.3114 14.7395 24.9812C14.4812 24.6511 14.1632 24.4357 13.7808 24.3391C13.5325 24.274 13.0001 24.2402 12.1835 24.2402H10.0303V30.8101L11.3733 30.8105ZM11.3733 25.3528H12.0217C12.5062 25.3528 12.8282 25.3687 12.9884 25.3981C13.2066 25.4375 13.3868 25.5344 13.5289 25.6885C13.671 25.8427 13.743 26.0402 13.743 26.2793C13.743 26.4729 13.6931 26.6429 13.5909 26.7891C13.4887 26.9353 13.3487 27.0441 13.1707 27.1113C12.9928 27.1827 12.6383 27.2162 12.1078 27.2162H11.3733L11.3733 25.3528Z" fill="#F1F1F1"/>
<path d="M17.5773 27.9414H20.2094V30.8123H21.5544V24.2441H20.2094V26.8289H17.5773V24.2441H16.2344V30.8123H17.5773V27.9414Z" fill="#F1F1F1"/>
<path d="M24.2868 28.3325H25.1634C25.7719 28.3325 26.2363 28.3008 26.5562 28.2376C26.7925 28.1863 27.0247 28.0834 27.2529 27.9253C27.4811 27.7692 27.669 27.5519 27.8171 27.2773C27.9653 27.0027 28.0393 26.6627 28.0393 26.2598C28.0393 25.7361 27.9113 25.3114 27.653 24.9812C27.3946 24.6511 27.0766 24.4357 26.6943 24.3391C26.446 24.274 25.9135 24.2402 25.097 24.2402H22.9414V30.8101H24.2844L24.2847 28.3325L24.2868 28.3325ZM24.2868 25.3527H24.9351C25.4197 25.3527 25.7417 25.3686 25.9019 25.398C26.12 25.4374 26.3003 25.5343 26.4424 25.6885C26.5844 25.8426 26.6565 26.0401 26.6565 26.2793C26.6565 26.4728 26.6066 26.6428 26.5044 26.789C26.4022 26.9352 26.2621 27.0441 26.0842 27.1112C25.9059 27.1803 25.5517 27.2141 25.0213 27.2141H24.2868L24.2868 25.3527Z" fill="#F1F1F1"/>
</svg>
