<svg width="40" height="48" viewBox="0 0 40 48" fill="none" xmlns="http://www.w3.org/2000/svg">
<path d="M16.3967 43.2264C16.9549 43.2264 17.4083 42.7966 17.4083 42.2675C17.4083 41.7384 16.9549 41.3086 16.3967 41.3086H13.4217C12.8636 41.3086 12.4102 41.7384 12.4102 42.2675C12.4102 42.7966 12.8636 43.2264 13.4217 43.2264H16.3967Z" fill="#F1F1F1"/>
<path d="M11.0155 21.0101C10.6208 20.6351 9.9805 20.6347 9.58491 21.0088L5.21173 25.144C5.02162 25.3238 4.91504 25.5683 4.91504 25.823C4.91504 26.0777 5.02161 26.3221 5.21173 26.5019L9.21323 30.2857C9.41102 30.4723 9.66888 30.5657 9.9281 30.5657C10.1878 30.5657 10.4465 30.4715 10.6443 30.2844C11.039 29.9094 11.0376 29.3024 10.643 28.9283L7.3595 25.8234L11.0142 22.3675C11.4093 21.9921 11.4098 21.385 11.0155 21.01L11.0155 21.0101Z" fill="#F1F1F1"/>
<path d="M19.1343 30.2841C19.332 30.472 19.5908 30.5653 19.8505 30.5653C20.1088 30.5653 20.3675 30.472 20.5653 30.2854L24.9385 26.1501C25.1286 25.9703 25.2352 25.7259 25.2352 25.4712C25.2352 25.2165 25.1286 24.9721 24.9385 24.7923L20.937 21.0085C20.541 20.6343 19.9006 20.6356 19.5064 21.0098C19.1117 21.3848 19.1131 21.9918 19.5077 22.3659L22.7912 25.4708L19.1365 28.9267C18.7405 29.3021 18.7396 29.9091 19.1343 30.2842L19.1343 30.2841Z" fill="#F1F1F1"/>
<path d="M15.6836 21.3515L12.5603 29.2711C12.3648 29.7668 12.6308 30.3195 13.1537 30.5053C13.2702 30.5464 13.3899 30.5661 13.5078 30.5661C13.9178 30.5661 14.3035 30.328 14.4556 29.9428L17.5789 22.0236C17.7744 21.5279 17.5084 20.9753 16.9855 20.7895C16.463 20.6041 15.8791 20.8558 15.6835 21.3515L15.6836 21.3515Z" fill="#F1F1F1"/>
<path d="M5.26048 10.5196C5.26048 10.9224 4.91547 11.2486 4.48962 11.2486C4.06377 11.2486 3.71875 10.9224 3.71875 10.5196C3.71875 10.1172 4.06377 9.79102 4.48962 9.79102C4.91547 9.79102 5.26048 10.1172 5.26048 10.5196Z" fill="#F1F1F1"/>
<path d="M8.17357 10.5196C8.17357 10.9224 7.82855 11.2486 7.4027 11.2486C6.97685 11.2486 6.63184 10.9224 6.63184 10.5196C6.63184 10.1172 6.97685 9.79102 7.4027 9.79102C7.82855 9.79102 8.17357 10.1172 8.17357 10.5196Z" fill="#F1F1F1"/>
<path d="M11.0857 10.5196C11.0857 10.9224 10.7407 11.2486 10.3148 11.2486C9.88896 11.2486 9.54395 10.9224 9.54395 10.5196C9.54395 10.1172 9.88896 9.79102 10.3148 9.79102C10.7407 9.79102 11.0857 10.1172 11.0857 10.5196Z" fill="#F1F1F1"/>
<path d="M25.3552 0.0273438H4.79447C2.20048 0.0273438 0.0898438 1.98756 0.0898438 4.39677C0.0898438 4.42845 0.0966175 4.45798 0.0993271 4.48923C0.096166 4.52006 0.0898438 4.55002 0.0898438 4.5817V43.6031C0.0898438 46.0123 2.2006 47.9725 4.79447 47.9725H25.3552C27.9492 47.9725 30.0598 46.0123 30.0598 43.6031L30.0602 37.5238C30.0602 36.9947 29.6068 36.5649 29.0487 36.5649H6.50764C5.94948 36.5649 5.49608 36.9947 5.49608 37.5238C5.49608 38.0529 5.94948 38.4827 6.50764 38.4827H28.036V43.6026C28.036 44.9541 26.8334 46.0542 25.3545 46.0542H4.79377C3.31481 46.0542 2.11226 44.955 2.11226 43.6026V14.7303H28.036V32.7303C28.036 33.2594 28.4894 33.6892 29.0475 33.6892C29.6057 33.6892 30.0591 33.2594 30.0591 32.7303V4.39606C30.0591 1.98762 27.9483 0.027508 25.354 0.027508L25.3552 0.0273438ZM2.11354 12.812V8.22943H23.6419C24.2 8.22943 24.6534 7.79963 24.6534 7.27052C24.6534 6.74142 24.2 6.31162 23.6419 6.31162H2.11354V4.58088C2.11354 4.5492 2.10677 4.51966 2.10406 4.48841C2.10722 4.45759 2.11354 4.42762 2.11354 4.39595C2.11354 3.04449 3.31609 1.94433 4.79505 1.94433H25.3557C26.8347 1.94433 28.0372 3.04362 28.0372 4.39595V12.8125L2.11354 12.812Z" fill="#F1F1F1"/>
<path d="M38.8997 12.8101C38.3416 12.8101 37.8882 13.2399 37.8882 13.769V36.5636H35.1176V9.93342H38.8979H38.8992C38.962 9.93342 39.0252 9.92657 39.088 9.91501C39.1124 9.91073 39.135 9.90302 39.1584 9.89746C39.1869 9.89018 39.2149 9.8859 39.2433 9.87648C39.2515 9.87348 39.2578 9.8692 39.2655 9.86621C39.3002 9.85336 39.3328 9.8371 39.3662 9.82083C39.3933 9.80756 39.4208 9.79514 39.4461 9.77973C39.4732 9.76304 39.4976 9.74335 39.5233 9.72408C39.5495 9.70439 39.5771 9.68556 39.6005 9.66372C39.6227 9.6436 39.6416 9.62049 39.662 9.59866C39.6841 9.57425 39.7071 9.55114 39.7261 9.52502C39.7446 9.49977 39.7595 9.47237 39.7758 9.4454C39.7916 9.41886 39.8083 9.3936 39.8214 9.36578C39.8345 9.33753 39.8435 9.30756 39.8543 9.27845C39.8652 9.24891 39.8765 9.21937 39.8837 9.18812C39.8905 9.16073 39.8927 9.13247 39.8968 9.10465C39.9018 9.06912 39.9076 9.03401 39.9081 8.99763C39.9081 8.98992 39.9108 8.98222 39.9108 8.97451C39.9108 8.95353 39.9058 8.93341 39.904 8.91201C39.9013 8.87733 39.8995 8.84352 39.8927 8.80884C39.886 8.7746 39.8765 8.74206 39.8665 8.7091C39.8607 8.68898 39.858 8.66843 39.8503 8.64788L37.4533 2.36317C37.3083 1.98347 36.9276 1.73047 36.5018 1.73047C36.0759 1.73047 35.6957 1.98347 35.5503 2.36317L33.1533 8.64788C33.1456 8.668 33.1434 8.68855 33.137 8.7091C33.1271 8.74206 33.1167 8.7746 33.1108 8.80884C33.1041 8.84352 33.1023 8.87733 33.0995 8.91158C33.0982 8.93256 33.0928 8.95268 33.0928 8.97408V41.2042C33.0928 42.9837 34.621 44.4324 36.5041 44.4324C38.3813 44.4324 39.9095 42.9837 39.9095 41.2042L39.9104 13.7697C39.9113 13.2402 39.4589 12.8108 38.8998 12.8108L38.8997 12.8101ZM36.5032 5.51007L37.4588 8.01561H35.5481L36.5032 5.51007ZM36.5005 42.515C35.7382 42.515 35.1182 41.9272 35.1182 41.2047V38.482H37.8887V41.2047C37.8882 41.9268 37.2682 42.515 36.5005 42.515Z" fill="#F1F1F1"/>
</svg>
