<svg width="38" height="48" viewBox="0 0 38 48" fill="none" xmlns="http://www.w3.org/2000/svg">
<path d="M5.19997 42.1904H4.2637C4.22585 42.1953 4.18725 42.1835 4.16017 42.1577C4.13308 42.1322 4.12009 42.0963 4.12566 42.0603V37.5244C4.11823 37.4878 4.13011 37.4501 4.15757 37.4236C4.18503 37.3967 4.22474 37.3838 4.2637 37.3894H6.15781C6.47176 37.3828 6.78125 37.4588 7.0514 37.6095C7.30004 37.7487 7.50117 37.9517 7.63143 38.1945C7.76539 38.4495 7.83293 38.7307 7.8281 39.0146C7.82885 39.2218 7.78728 39.4273 7.70601 39.6199C7.624 39.8037 7.50859 39.9729 7.36535 40.1201C7.21691 40.275 7.03581 40.3995 6.83357 40.485C6.62353 40.5767 6.39456 40.6245 6.163 40.6252H5.33323V42.0405C5.33323 42.1402 5.2887 42.1905 5.20001 42.1905L5.19997 42.1904ZM5.33282 38.4248V39.6101H5.86497V39.6097C6.05608 39.6174 6.24423 39.5626 6.39712 39.4548C6.52923 39.3435 6.59974 39.1813 6.5886 39.0146C6.60159 38.8478 6.53071 38.6853 6.39712 38.5747C6.24312 38.4694 6.05534 38.4167 5.86497 38.4247L5.33282 38.4248ZM9.42409 37.4745L10.3711 38.8897L11.2862 37.4644C11.3148 37.4156 11.3705 37.3863 11.4299 37.3894H12.4938C12.5242 37.3863 12.5524 37.4061 12.5576 37.4344C12.5728 37.4609 12.5728 37.493 12.5576 37.5195L10.9615 39.8699V42.0554C10.9615 42.142 10.9173 42.1856 10.8286 42.1856L9.89756 42.1852C9.80887 42.1852 9.76472 42.1419 9.76472 42.0551V39.8899L8.16862 37.5394C8.15229 37.5133 8.15229 37.4808 8.16862 37.4547C8.17604 37.4275 8.20239 37.4086 8.23245 37.4097H9.29636C9.34794 37.4097 9.39581 37.4341 9.42402 37.4745L9.42409 37.4745ZM15.5423 42.1904H14.6004C14.5117 42.1904 14.4676 42.1472 14.4676 42.0603V38.5047H13.2385C13.1464 38.5047 13.1001 38.4632 13.1001 38.3798V37.5245C13.0949 37.4889 13.1075 37.4526 13.1349 37.4271C13.162 37.4017 13.2003 37.3895 13.2385 37.3947H16.9094C16.9476 37.3895 16.9858 37.4017 17.0129 37.4271C17.0404 37.4526 17.053 37.4889 17.0478 37.5245V38.3896C17.0478 38.4729 17.0018 38.5144 16.9094 38.5144L15.6803 38.5148V42.0705C15.6821 42.1046 15.668 42.1378 15.6413 42.1608C15.6146 42.1842 15.5782 42.195 15.5422 42.1905L15.5423 42.1904ZM19.0376 42.1904H18.0958C18.0575 42.1953 18.0193 42.1835 17.9919 42.1577C17.9648 42.1322 17.9522 42.0963 17.9573 42.0603V37.5244C17.9499 37.4878 17.9622 37.4501 17.9896 37.4236C18.0171 37.3967 18.0564 37.3838 18.0958 37.3894H19.032C19.1207 37.3894 19.1649 37.4327 19.1649 37.5195V39.1897H20.8623V37.5244C20.8567 37.4888 20.8697 37.4526 20.8968 37.4271C20.9239 37.4016 20.9624 37.3894 21.0003 37.3947H21.9421C21.98 37.3894 22.0186 37.4016 22.0457 37.4271C22.0731 37.4526 22.0857 37.4889 22.0805 37.5244V42.0604C22.0857 42.0963 22.0731 42.1322 22.0457 42.1577C22.0186 42.1835 21.98 42.1954 21.9421 42.1905H21.0003C20.9624 42.1954 20.9238 42.1835 20.8968 42.1577C20.8697 42.1322 20.8567 42.0963 20.8623 42.0604V40.3399H19.1649V42.0604C19.1649 42.1472 19.1207 42.1905 19.032 42.1905L19.0376 42.1904ZM25.6769 37.3294C26.0309 37.3276 26.3816 37.3922 26.7089 37.5195C27.3527 37.7668 27.8652 38.2454 28.1323 38.8493C28.3995 39.4528 28.3995 40.1319 28.1323 40.7354C27.8652 41.3393 27.3527 41.8179 26.7089 42.0652C25.934 42.3708 25.0522 42.3227 24.3201 41.9355C23.9267 41.7258 23.6013 41.4199 23.3786 41.0501C22.9211 40.2722 22.9211 39.3279 23.3786 38.5497C23.6009 38.1771 23.926 37.8677 24.3201 37.6546C24.7309 37.4327 25.1977 37.3204 25.6713 37.3295L25.6769 37.3294ZM24.6712 40.7549C24.931 41.0159 25.2969 41.1596 25.6769 41.1502C26.0576 41.1578 26.4246 41.0145 26.6878 40.7549C26.9512 40.4978 27.0986 40.1546 27.0986 39.7973C27.0986 39.4401 26.9512 39.0969 26.6878 38.8397C26.4254 38.5785 26.0588 38.4333 25.6769 38.4396C25.298 38.4323 24.9336 38.5778 24.6768 38.8397C24.4178 39.0993 24.2738 39.4415 24.2738 39.7973C24.2738 40.1531 24.4178 40.4953 24.6768 40.7549H24.6712ZM33.7151 42.19L32.7896 42.1904C32.6924 42.1893 32.6029 42.1398 32.5554 42.0602L30.4966 39.3899V42.0805C30.4966 42.1656 30.4539 42.2106 30.3638 42.2106L29.4275 42.2103C29.3893 42.2155 29.3507 42.2033 29.3236 42.1778C29.2965 42.152 29.2835 42.1161 29.2891 42.0802V37.5243C29.2816 37.4877 29.2935 37.45 29.321 37.4235C29.3484 37.3966 29.3881 37.3837 29.4275 37.3893H30.3745H30.3741C30.4714 37.3904 30.5608 37.4399 30.6083 37.5194L32.6671 40.21V37.5243C32.6671 37.4378 32.7113 37.3942 32.8 37.3942L33.7366 37.3946C33.7745 37.3893 33.8131 37.4015 33.8402 37.427C33.8672 37.4525 33.8802 37.4888 33.8747 37.5243V42.0603C33.8802 42.0962 33.8672 42.1321 33.8402 42.1576C33.8131 42.1834 33.7745 42.1953 33.7366 42.1904L33.7151 42.19ZM35.2793 12.7542L25.5494 12.7545C25.162 12.7531 24.7909 12.6087 24.5163 12.3523C24.2416 12.0959 24.085 11.7481 24.081 11.3843V2.20757C24.0728 1.83781 24.2231 1.4799 24.4981 1.21516C24.7731 0.950395 25.1493 0.800394 25.5431 0.798644C25.9368 0.797248 26.315 0.944805 26.5918 1.20748L36.3435 10.3842C36.6233 10.6448 36.7799 10.9999 36.7784 11.37C36.777 11.7401 36.6174 12.0942 36.3357 12.3527C36.0537 12.6112 35.6733 12.7521 35.2796 12.7444L35.2793 12.7542ZM26.1077 10.8492H33.96L26.1077 3.46781V10.8492ZM35.1516 47.556H2.86491C2.25817 47.556 1.67627 47.3296 1.24734 46.9263C0.81842 46.5231 0.577148 45.9761 0.577148 45.4058V2.38263C0.577148 1.81228 0.818363 1.26527 1.24734 0.862075C1.67633 0.458875 2.25824 0.232422 2.86491 0.232422H24.5648C25.1645 0.236259 25.7382 0.462652 26.1609 0.862423L36.7477 10.7794C37.17 11.1789 37.4105 11.7168 37.4179 12.2798V45.3913C37.4223 45.9634 37.1837 46.5135 36.7555 46.9196C36.3272 47.326 35.7442 47.5555 35.1356 47.5565L35.1516 47.556ZM2.86491 2.12256C2.72093 2.12256 2.60403 2.2321 2.60403 2.36744V45.3906C2.60403 45.526 2.72093 45.6355 2.86491 45.6355H35.1364C35.2804 45.6355 35.3973 45.526 35.3973 45.3906V12.2996C35.3965 12.2362 35.3698 12.1751 35.3227 12.1298L24.752 2.1931C24.7042 2.1481 24.6389 2.12298 24.5713 2.12333L2.86491 2.12256Z" fill="#F1F1F1"/>
</svg>
