<svg width="53" height="38" viewBox="0 0 53 38" fill="none" xmlns="http://www.w3.org/2000/svg">
<path d="M50.7988 29.3075H49.1073V2.46363C49.1073 1.28409 48.1489 0.273438 46.9086 0.273438H6.09088C4.90674 0.273438 3.89214 1.22809 3.89214 2.46363V29.3075H2.2007C1.01656 29.3079 0.00195312 30.2626 0.00195312 31.4417V35.7096C0.00195312 36.8892 0.96033 37.8438 2.14442 37.8438H50.7987C51.9828 37.8438 52.9411 36.8891 52.9411 35.7096L52.9407 31.4417C52.997 30.2625 51.9823 29.3079 50.7983 29.3079L50.7988 29.3075ZM5.58358 2.46363C5.58358 2.18276 5.80892 1.95829 6.09089 1.95829H46.9086C47.1906 1.95829 47.4159 2.18276 47.4159 2.46363V29.3075L5.5834 29.3079L5.58358 2.46363ZM51.3062 35.7658C51.3062 36.0467 51.0808 36.2151 50.8551 36.2151H2.20085C1.91888 36.2151 1.74977 35.9906 1.74977 35.7658V31.4415C1.74977 31.1606 1.97511 30.9921 2.20085 30.9921H50.7987C51.0807 30.9921 51.2498 31.2166 51.2498 31.4415L51.2494 35.7658H51.3062Z" fill="#F1F1F1"/>
<path d="M26.4997 32.7324H5.92168C5.47061 32.7324 5.07617 33.1257 5.07617 33.5746C5.07617 34.024 5.47101 34.4168 5.92168 34.4168L26.4997 34.4172C26.9507 34.4172 27.3452 34.0239 27.3452 33.575C27.3452 33.1257 26.9507 32.7324 26.4997 32.7324V32.7324Z" fill="#F1F1F1"/>
<path d="M42.5114 32.7324H41.553C41.3277 32.7324 41.2148 32.9009 41.2148 33.0693V34.024C41.2148 34.2484 41.3839 34.3609 41.553 34.3609H42.5114C42.7368 34.3609 42.8496 34.1924 42.8496 34.024V33.1257C42.8496 32.9013 42.6805 32.7324 42.5114 32.7324Z" fill="#F1F1F1"/>
<path d="M45.4431 32.7324H44.4847C44.2593 32.7324 44.1465 32.9009 44.1465 33.0693V34.024C44.1465 34.2484 44.3156 34.3609 44.4847 34.3609H45.4431C45.6684 34.3609 45.7813 34.1924 45.7813 34.024V33.1257C45.8375 32.9013 45.6684 32.7324 45.4431 32.7324Z" fill="#F1F1F1"/>
<path d="M48.4313 32.7324H47.473C47.2476 32.7324 47.1348 32.9009 47.1348 33.0693V34.024C47.1348 34.2484 47.3039 34.3609 47.473 34.3609H48.4313C48.6567 34.3609 48.7696 34.1924 48.7696 34.024V33.1257C48.7696 32.9013 48.6004 32.7324 48.4313 32.7324Z" fill="#F1F1F1"/>
<path d="M44.6539 3.64453H29.0936C28.6425 3.64453 28.248 4.03783 28.248 4.48675V10.8328C28.248 11.2821 28.6429 11.675 29.0936 11.675H44.6539C45.105 11.675 45.4994 11.2817 45.4994 10.8328V4.48675C45.4994 4.03782 45.1049 3.64453 44.6539 3.64453ZM43.8084 9.99057H29.9394V5.32939H43.8084V9.99057Z" fill="#F1F1F1"/>
<path d="M11.6161 11.1689L8.12074 8.02412L11.6161 4.87933L10.883 4.03711L6.93668 7.63127C6.82381 7.7437 6.76758 7.91215 6.76758 8.02458C6.76758 8.137 6.82381 8.30545 6.93668 8.41788L10.883 12.012L11.6161 11.1689Z" fill="#F1F1F1"/>
<path d="M19.9602 8.02307L16.4648 11.1679L17.1979 12.0101L21.1442 8.41592C21.2571 8.30349 21.3133 8.13505 21.3133 8.02262C21.3133 7.91019 21.2571 7.74175 21.1442 7.62932L17.1979 4.03516L16.4648 4.87738L19.9602 8.02307Z" fill="#F1F1F1"/>
<path d="M11.2783 12.7064L15.778 2.71484L16.8068 3.17473L12.3071 13.1663L11.2783 12.7064Z" fill="#F1F1F1"/>
<path d="M44.6536 14.4277H29.0932C28.755 14.4277 28.5293 14.6522 28.5293 14.9895C28.5293 15.3264 28.7546 15.5512 29.0932 15.5512H44.6536C44.9918 15.5512 45.2175 15.3268 45.2175 14.9895C45.2175 14.6526 44.9355 14.4277 44.6536 14.4277Z" fill="#F1F1F1"/>
<path d="M44.6536 18.6367H29.0932C28.755 18.6367 28.5293 18.8612 28.5293 19.1985C28.5293 19.5354 28.7546 19.7602 29.0932 19.7602H44.6536C44.9918 19.7602 45.2175 19.5358 45.2175 19.1985C45.2175 18.8616 44.9355 18.6367 44.6536 18.6367Z" fill="#F1F1F1"/>
<path d="M7.27539 19.1985C7.27539 19.5354 7.50073 19.7602 7.83933 19.7602H23.3997C23.7379 19.7602 23.9636 19.5358 23.9636 19.1985C23.9636 18.8616 23.7383 18.6367 23.3997 18.6367H7.83933C7.55736 18.6367 7.27539 18.8616 7.27539 19.1985Z" fill="#F1F1F1"/>
<path d="M25.8794 19.7602H27.0635C27.4017 19.7602 27.6275 19.5358 27.6275 19.1985C27.6275 18.8616 27.4021 18.6367 27.0635 18.6367H25.8794C25.5412 18.6367 25.3154 18.8612 25.3154 19.1985C25.3154 19.5358 25.5974 19.7602 25.8794 19.7602Z" fill="#F1F1F1"/>
<path d="M44.6533 22.2305H25.8794C25.5412 22.2305 25.3154 22.4549 25.3154 22.7922C25.3154 23.1291 25.5408 23.354 25.8794 23.354H44.6533C44.9915 23.354 45.2172 23.1295 45.2172 22.7922C45.2172 22.4553 44.9352 22.2305 44.6533 22.2305Z" fill="#F1F1F1"/>
<path d="M23.3987 22.2305H7.83835C7.50015 22.2305 7.27441 22.4549 7.27441 22.7922C7.27441 23.1291 7.49975 23.354 7.83835 23.354H23.3987C23.7369 23.354 23.9626 23.1295 23.9626 22.7922C23.9626 22.4553 23.7369 22.2305 23.3987 22.2305Z" fill="#F1F1F1"/>
<path d="M44.653 25.8242H31.9116C31.5734 25.8242 31.3477 26.0487 31.3477 26.386C31.3477 26.7229 31.573 26.9477 31.9116 26.9477H44.653C44.9912 26.9477 45.217 26.7232 45.217 26.386C45.217 26.0491 44.935 25.8242 44.653 25.8242Z" fill="#F1F1F1"/>
<path d="M29.0929 25.8242H7.83835C7.50015 25.8242 7.27441 26.0487 7.27441 26.386C7.27441 26.7229 7.49975 26.9477 7.83835 26.9477H29.0929C29.4311 26.9477 29.6568 26.7232 29.6568 26.386C29.6564 26.0491 29.3744 25.8242 29.0929 25.8242Z" fill="#F1F1F1"/>
</svg>
