<svg width="34" height="48" viewBox="0 0 34 48" fill="none" xmlns="http://www.w3.org/2000/svg">
<path d="M14.417 37.9632L12.5721 43.9367C12.4243 44.3101 12.6457 44.758 13.0889 44.9075C13.458 45.057 13.9007 44.833 14.0484 44.3846L14.3434 43.4137H16.0406L16.3356 44.3846C16.4092 44.683 16.7047 44.9075 17.0738 44.9075C17.6359 44.9075 17.8907 44.4137 17.812 43.9367L15.967 37.9632C15.8934 37.6648 15.5979 37.4403 15.2288 37.4403C14.8603 37.4408 14.5648 37.6648 14.417 37.9632H14.417ZM15.5243 41.9205H14.7861L15.1552 40.7257L15.5243 41.9205ZM21.9446 44.9075C22.3137 45.057 22.7564 44.833 22.9042 44.3846L23.1991 43.4137H24.8964L25.1908 44.3846C25.2655 44.683 25.5599 44.9075 25.929 44.9075C26.4912 44.9075 26.746 44.4137 26.6672 43.9366L24.8223 37.9632C24.7486 37.6647 24.4532 37.4403 24.0841 37.4403C23.715 37.4403 23.4936 37.6642 23.3459 37.9632L21.5009 43.9366C21.3542 44.3101 21.5755 44.758 21.9446 44.9075H21.9446ZM24.38 41.9205H23.6418L24.0109 40.7257L24.38 41.9205ZM17.0001 38.4112C16.8524 38.0378 17.0737 37.5898 17.517 37.4404C17.8861 37.2909 18.3288 37.5149 18.4765 37.9633L19.5833 41.6212L20.69 37.9633C20.8378 37.5899 21.2069 37.3659 21.6496 37.4404C22.0187 37.5899 22.24 37.9633 22.1664 38.4112L20.3215 44.3847C20.2478 44.6831 19.9524 44.9076 19.5833 44.9076C19.2142 44.9076 18.9928 44.6836 18.8451 44.3847L17.0001 38.4112ZM11.8344 38.1872V42.6675C11.8344 43.9368 10.8748 44.9076 9.62029 44.9076C8.36574 44.9076 7.4062 43.9368 7.4062 42.6675V41.9206C7.4062 41.4727 7.70117 41.1738 8.1444 41.1738C8.58711 41.1738 8.88259 41.4722 8.88259 41.9206V42.6675C8.88259 43.1154 9.17756 43.4144 9.62079 43.4144C10.0635 43.4144 10.359 43.116 10.359 42.6675V38.1872C10.359 37.7393 10.654 37.4404 11.0972 37.4404C11.5389 37.4409 11.8343 37.7393 11.8343 38.1872H11.8344ZM33.7525 9.29125L24.8968 0.331382C24.7491 0.181902 24.6013 0.107422 24.38 0.107422H2.24045C0.985946 0.107422 0.0263672 1.07825 0.0263672 2.34756V45.6542C0.0263672 46.9235 0.985907 47.8944 2.24045 47.8944H31.7598C33.0143 47.8944 33.9739 46.9235 33.9739 45.6542V9.81422C33.9739 9.59026 33.8998 9.44078 33.7526 9.2913L33.7525 9.29125ZM25.1181 2.64592L31.4648 9.06725H25.8558C25.4131 9.06725 25.1176 8.76881 25.1176 8.32037L25.1181 2.64592ZM32.4979 45.6539C32.4979 46.1018 32.203 46.4008 31.7597 46.4008H2.24036C1.79765 46.4008 1.50217 46.1024 1.50217 45.6539V35.9476H8.14376C8.58647 35.9476 8.88196 35.6492 8.88196 35.2008C8.88196 34.7528 8.58699 34.4539 8.14376 34.4539H1.50217V2.34722C1.50217 1.8993 1.79714 1.60034 2.24036 1.60034H23.6419V8.32008C23.6419 9.58934 24.6015 10.5602 25.856 10.5602H32.4976V34.4535H14.786C14.3433 34.4535 14.0478 34.752 14.0478 35.2004C14.0478 35.6483 14.3427 35.9473 14.786 35.9473H32.4976L32.4979 45.6539ZM12.5724 35.2008C12.5724 35.6488 12.2774 35.9477 11.8342 35.9477H11.096C10.6533 35.9477 10.3578 35.6493 10.3578 35.2008C10.3578 34.7529 10.6527 34.454 11.096 34.454H11.8342C12.2774 34.454 12.5724 34.7529 12.5724 35.2008ZM12.351 17.0568L8.43968 21.0142L12.351 24.9715C12.646 25.27 12.646 25.7184 12.351 26.0168C12.0581 26.3132 11.6221 26.3246 11.3179 26.0168L6.88968 21.5366C6.59471 21.2381 6.59471 20.7897 6.88968 20.4912L11.3179 16.011C11.6128 15.7125 12.056 15.7125 12.351 16.011C12.6465 16.3099 12.6465 16.7579 12.351 17.0568V17.0568ZM22.3876 24.9714L26.2989 21.014L22.3876 17.0567C22.0931 16.7583 22.0931 16.3098 22.3876 16.0114C22.6826 15.713 23.1258 15.713 23.4207 16.0114L27.8489 20.4917C28.1434 20.7901 28.1434 21.2386 27.8489 21.537L23.4207 26.0172C23.1278 26.3136 22.6918 26.3251 22.3876 26.0172C22.0926 25.7178 22.0926 25.2698 22.3876 24.9714V24.9714ZM14.8605 26.0167L18.5505 15.5636C18.6982 15.1902 19.1414 14.9662 19.5105 15.1157C19.8796 15.2652 20.101 15.7131 19.9532 16.0865L16.2633 26.5396C15.9565 27.0042 15.4464 27.0568 15.3038 26.913C14.8606 26.838 14.7128 26.3901 14.8606 26.0167L14.8605 26.0167Z" fill="#F1F1F1"/>
</svg>
