<svg width="269" height="81" viewBox="0 0 269 81" fill="none" xmlns="http://www.w3.org/2000/svg">
<g clip-path="url(#clip0_907_62825)">
<path d="M0.0400391 0.0390625V80.9589H14.1326C14.1432 79.5362 14.7135 78.1753 15.7194 77.1728C16.7253 76.1703 18.0851 75.6074 19.5026 75.6069C20.9202 75.6073 22.2802 76.1701 23.2862 77.1726C24.2922 78.1751 24.8626 79.5361 24.8732 80.9589H39.6876C39.6982 79.5362 40.2685 78.1753 41.2744 77.1728C42.2803 76.1703 43.6401 75.6074 45.0576 75.6069C46.4752 75.6073 47.8352 76.1701 48.8412 77.1726C49.8471 78.1751 50.4176 79.5361 50.4282 80.9589H65.2426C65.2532 79.5362 65.8235 78.1753 66.8294 77.1728C67.8353 76.1703 69.1951 75.6074 70.6126 75.6069C72.0302 75.6073 73.3902 76.1701 74.3962 77.1726C75.4021 78.1751 75.9726 79.5361 75.9832 80.9589H90.7976C90.8082 79.5362 91.3785 78.1753 92.3844 77.1728C93.3903 76.1703 94.7501 75.6074 96.1676 75.6069C97.5852 75.6073 98.9452 76.1701 99.9512 77.1726C100.957 78.1751 101.528 79.5361 101.538 80.9589H116.353C116.363 79.5362 116.934 78.1753 117.939 77.1728C118.945 76.1703 120.305 75.6074 121.723 75.6069C123.14 75.6073 124.5 76.1701 125.506 77.1726C126.512 78.1751 127.083 79.5361 127.093 80.9589H141.908C141.918 79.5362 142.489 78.1753 143.494 77.1728C144.5 76.1703 145.86 75.6074 147.278 75.6069C148.695 75.6073 150.055 76.1701 151.061 77.1726C152.067 78.1751 152.638 79.5361 152.648 80.9589H167.463C167.473 79.5362 168.044 78.1753 169.049 77.1728C170.055 76.1703 171.415 75.6074 172.833 75.6069C174.25 75.6073 175.61 76.1701 176.616 77.1726C177.622 78.1751 178.193 79.5361 178.203 80.9589H193.018C193.028 79.5362 193.599 78.1753 194.604 77.1728C195.61 76.1703 196.97 75.6074 198.388 75.6069C199.805 75.6073 201.165 76.1701 202.171 77.1726C203.177 78.1751 203.748 79.5361 203.758 80.9589H218.573C218.583 79.5362 219.154 78.1753 220.159 77.1728C221.165 76.1703 222.525 75.6074 223.943 75.6069C225.36 75.6073 226.72 76.1701 227.726 77.1726C228.732 78.1751 229.303 79.5361 229.313 80.9589H244.128C244.138 79.5362 244.709 78.1753 245.714 77.1728C246.72 76.1703 248.08 75.6074 249.498 75.6069C250.915 75.6073 252.275 76.1701 253.281 77.1726C254.287 78.1751 254.858 79.5361 254.868 80.9589H268.96V0.0390625H0.0400391Z" fill="#CC002C" stroke="#FF1313" stroke-opacity="0.15269" stroke-width="0.296088"/>
<path d="M112.612 39.3015C112.612 40.9059 112.304 42.4946 111.707 43.9769C111.109 45.4592 110.233 46.8061 109.129 47.9406C108.024 49.0751 106.713 49.975 105.271 50.589C103.828 51.203 102.281 51.519 100.72 51.519C99.1578 51.519 97.6114 51.203 96.1686 50.589C94.7257 49.975 93.4147 49.0751 92.3104 47.9406C91.2061 46.8061 90.3301 45.4592 89.7324 43.9769C89.1348 42.4946 88.8271 40.9059 88.8271 39.3015C88.8271 37.6971 89.1348 36.1084 89.7324 34.6261C90.3301 33.1438 91.2061 31.7969 92.3104 30.6624C93.4147 29.5279 94.7257 28.628 96.1686 28.014C97.6114 27.4 99.1578 27.084 100.72 27.084C102.281 27.084 103.828 27.4 105.271 28.014C106.713 28.628 108.024 29.5279 109.129 30.6624C110.233 31.7969 111.109 33.1438 111.707 34.6261C112.304 36.1084 112.612 37.6971 112.612 39.3015Z" fill="#0298D7"/>
<g opacity="0.97">
<g opacity="0.3" filter="url(#filter0_f_907_62825)">
<path d="M109.459 47.0845C108.615 48.3891 107.167 49.55 105.419 50.3225C103.671 51.0951 101.761 51.4188 100.09 51.2255C98.4202 51.0322 97.1207 50.3369 96.4659 49.2863C95.8111 48.2357 95.8521 46.9119 96.5804 45.5939C97.3087 44.276 98.6672 43.0669 100.37 42.2217C102.072 41.3764 103.985 40.961 105.706 41.0631C107.427 41.1652 108.82 41.7768 109.593 42.7688C110.366 43.7609 110.457 45.056 109.848 46.381" fill="url(#paint0_linear_907_62825)"/>
</g>
<path opacity="0.705" d="M108.605 32.5411C108.981 34.6208 108.37 36.9568 106.902 39.0563C105.433 41.1559 103.223 42.8551 100.735 43.7955C98.2478 44.736 95.6783 44.8442 93.5683 44.0975C91.4584 43.3507 89.973 41.8073 89.4254 39.7926C88.8777 37.778 89.3105 35.4496 90.6327 33.2983C91.9548 31.147 94.0628 29.3411 96.5123 28.2611C98.9618 27.1812 101.561 26.9118 103.763 27.5096C105.964 28.1075 107.595 29.5259 108.313 31.4657" fill="url(#paint1_linear_907_62825)"/>
<g filter="url(#filter1_f_907_62825)">
<path d="M107.365 36.7926C107.365 37.8601 107.14 38.9171 106.704 39.9033C106.268 40.8895 105.629 41.7856 104.823 42.5404C104.018 43.2952 103.061 43.8939 102.009 44.3024C100.956 44.7109 99.8276 44.9212 98.6882 44.9212C97.5488 44.9212 96.4205 44.7109 95.3679 44.3024C94.3152 43.8939 93.3587 43.2952 92.553 42.5404C91.7473 41.7856 91.1082 40.8895 90.6722 39.9033C90.2361 38.9171 90.0117 37.8601 90.0117 36.7926C90.0117 34.6368 90.9258 32.5693 92.553 31.0449C94.1802 29.5205 96.3871 28.6641 98.6882 28.6641C99.8276 28.6641 100.956 28.8743 102.009 29.2828C103.061 29.6913 104.018 30.2901 104.823 31.0449C105.629 31.7997 106.268 32.6958 106.704 33.682C107.14 34.6682 107.365 35.7252 107.365 36.7926Z" fill="url(#paint2_radial_907_62825)"/>
</g>
<path d="M97.4844 35.1371C96.8498 36.6677 95.8766 38.1355 94.77 39.2311C93.6634 40.3266 92.5099 40.9643 91.5527 41.0097C90.5955 41.055 89.9095 40.5045 89.6392 39.4742C89.3689 38.4439 89.5355 37.0143 90.1039 35.4869C90.6723 33.9594 91.598 32.4535 92.6859 31.2866C93.7738 30.1198 94.9388 29.3831 95.9353 29.232C96.9319 29.0809 97.682 29.5272 98.0276 30.4767C98.3732 31.4262 98.2872 32.8048 97.7878 34.3218" fill="url(#paint3_linear_907_62825)"/>
</g>
<path d="M94.1794 16.7326C81.9413 20.3789 74.907 33.4007 78.5398 45.6843C82.1727 57.9679 95.1462 65.0283 107.384 61.382C114.124 58.9985 119.067 54.0541 121.692 48.2212L114.859 44.6827C114.639 45.239 114.39 45.7831 114.106 46.3086C112.264 49.718 109.116 52.4165 105.088 53.6169C97.0307 56.0175 88.6679 51.4663 86.2762 43.3792C83.8845 35.2922 88.4188 26.8983 96.4759 24.4977C100.958 23.1622 105.533 23.9806 109.124 26.3598L113.099 19.3583C107.642 15.9271 100.804 14.7587 94.1794 16.7326Z" fill="white"/>
<path d="M34.063 62.6656V24.5288H20.4932V16.7637H56.8354V24.5288H43.2968V62.6656H34.063Z" fill="white"/>
<path d="M62.5439 62.6656V16.7637H71.7777V62.6656H62.5439Z" fill="white"/>
<path d="M126.713 62.6656V16.7637H135.947V37.1472L154.601 16.7637H167.017L149.797 34.6423L167.953 62.6656H156.005L143.433 41.1237L135.947 48.7949V62.6656H126.713Z" fill="white"/>
<path d="M172.757 62.6656V16.7637H206.666V24.5288H181.991V34.7049H204.95V42.4387H181.991V54.9318H207.539V62.6656H172.757Z" fill="white"/>
<path d="M225.725 62.6656V24.5288H212.155V16.7637H248.498V24.5288H234.959V62.6656H225.725Z" fill="white"/>
</g>
<defs>
<filter id="filter0_f_907_62825" x="95.5149" y="40.5608" width="15.2202" height="11.2065" filterUnits="userSpaceOnUse" color-interpolation-filters="sRGB">
<feFlood flood-opacity="0" result="BackgroundImageFix"/>
<feBlend mode="normal" in="SourceGraphic" in2="BackgroundImageFix" result="shape"/>
<feGaussianBlur stdDeviation="0.244011" result="effect1_foregroundBlur_907_62825"/>
</filter>
<filter id="filter1_f_907_62825" x="77.0483" y="15.7006" width="43.2795" height="42.1847" filterUnits="userSpaceOnUse" color-interpolation-filters="sRGB">
<feFlood flood-opacity="0" result="BackgroundImageFix"/>
<feBlend mode="normal" in="SourceGraphic" in2="BackgroundImageFix" result="shape"/>
<feGaussianBlur stdDeviation="6.48173" result="effect1_foregroundBlur_907_62825"/>
</filter>
<linearGradient id="paint0_linear_907_62825" x1="99.6512" y1="52.5599" x2="97.5336" y2="45.5592" gradientUnits="userSpaceOnUse">
<stop stop-color="white"/>
<stop offset="1" stop-color="white" stop-opacity="0"/>
</linearGradient>
<linearGradient id="paint1_linear_907_62825" x1="94.1974" y1="29.1064" x2="95.9533" y2="40.7625" gradientUnits="userSpaceOnUse">
<stop stop-color="white"/>
<stop offset="1" stop-color="white" stop-opacity="0"/>
</linearGradient>
<radialGradient id="paint2_radial_907_62825" cx="0" cy="0" r="1" gradientUnits="userSpaceOnUse" gradientTransform="translate(98.1264 35.3568) rotate(37.7744) scale(8.57604 8.58704)">
<stop stop-color="white"/>
<stop offset="1" stop-color="white" stop-opacity="0"/>
</radialGradient>
<linearGradient id="paint3_linear_907_62825" x1="89.9559" y1="34.4787" x2="92.5939" y2="36.2592" gradientUnits="userSpaceOnUse">
<stop stop-color="white"/>
<stop offset="1" stop-color="white" stop-opacity="0"/>
</linearGradient>
<clipPath id="clip0_907_62825">
<rect width="269" height="81" fill="white"/>
</clipPath>
</defs>
</svg>
