<svg width="25" height="18" viewBox="0 0 25 18" fill="none" xmlns="http://www.w3.org/2000/svg">
<path d="M19.3308 1.52601C16.6511 1.53902 14.6144 3.32712 13.8519 6.17656C12.5726 4.19023 11.5746 1.91816 11.0023 0L8.18201 0.0134001L8.22107 7.55596C8.22274 7.91106 8.15507 8.26301 8.02192 8.59172C7.88877 8.92043 7.69276 9.21947 7.44507 9.47175C7.19738 9.72403 6.90287 9.92462 6.57835 10.0621C6.25382 10.1995 5.90565 10.2711 5.5537 10.2728C4.8429 10.2762 4.15987 9.99456 3.65488 9.48986C3.40483 9.23996 3.20602 8.94281 3.0698 8.61539C2.93357 8.28797 2.8626 7.93668 2.86093 7.58158L2.82187 0.0390173L0 0.0528113L0.0390624 7.59577C0.0499999 10.7258 2.5289 13.206 5.56248 13.1902C8.59607 13.1745 11.0527 10.6734 11.039 7.54256L11.0332 6.26169C11.6019 7.39674 12.3129 8.60273 13.0941 9.66684L11.3695 18L14.2601 17.9866L15.5023 11.9322C16.6335 12.6389 17.9046 13.0594 19.3851 13.0523C22.4882 13.0385 25.0156 10.4657 24.9999 7.1918C24.9859 4.06017 22.4343 1.51143 19.3312 1.52562L19.3308 1.52601ZM19.371 10.1358C18.2429 10.141 17.1125 9.64871 16.1921 8.86955L16.4687 7.72662V7.65489C16.675 6.44338 17.2992 4.37743 19.4148 4.36797C20.1624 4.3666 20.8801 4.66376 21.4113 5.19455C21.9424 5.72534 22.2438 6.44663 22.2495 7.20087C22.1859 8.83762 20.8523 10.1252 19.3706 10.1319L19.371 10.1358Z" fill="#272727"/>
</svg>
