<svg width="129" height="128" viewBox="0 0 129 128" fill="none" xmlns="http://www.w3.org/2000/svg">
<g filter="url(#filter0_f_1205_2169)">
<path d="M111.474 76.6431C111.474 76.2919 111.474 77.486 111.474 85.0716C111.474 92.6573 103.819 93.8514 99.9912 93.5002H58.2368L29.0088 123V93.5002C12.307 93.5002 5 95.6066 5 81.9103C5 66.458 5 36.607 5 28.1784C5 19.7499 12.655 18.3452 16.4825 18.6964H78.0702M111.474 76.6431H84.3333C80.8538 76.6429 72.6421 74.746 67.6316 67.1604C67.6316 66.8401 67.6316 66.5088 67.6316 66.1673M111.474 76.6431C116.693 76.6438 117.737 73.4818 117.737 71.3746C117.737 68.2139 116.693 66.1068 109.386 65.0532C113.561 65.0532 119.825 65.0532 119.825 59.7854C119.825 55.5711 116.693 53.464 111.474 53.464C114.953 52.7616 121.912 54.5176 121.912 48.1962C121.912 43.9819 117.041 42.9284 114.605 42.9284C117.737 42.9284 124 41.8748 124 37.6605C124 32.3927 118.433 32.3927 115.649 32.3927C111.126 32.3927 101.453 32.3927 98.9474 32.3927C96.4421 32.3927 97.9035 28.8808 98.9474 27.1249C99.9912 25.0177 102.288 20.1713 103.123 17.6428C104.167 14.4821 103.123 5 97.9035 5C92.6842 5 92.6842 9.21426 88.5088 18.6964C85.1684 26.282 73.1988 35.9046 67.6316 39.7677M67.6316 39.7677C67.6316 45.4858 67.6316 58.4205 67.6316 66.1673M67.6316 39.7677V66.1673M67.6316 39.7677V71.3746C67.6316 74.1841 65.3351 79.8032 56.1491 79.8032C46.9632 79.8032 43.9708 75.5889 43.6228 73.4818C43.6228 61.1902 43.6228 35.9748 43.6228 33.4463C43.6228 30.2856 49.886 29.232 56.1491 29.232C62.4123 29.232 67.6316 31.3391 67.6316 33.4463C67.6316 35.132 67.6316 38.3629 67.6316 39.7677Z" stroke="#C70000" stroke-width="2" stroke-linecap="round" stroke-linejoin="round"/>
</g>
<path d="M111.474 76.6431C111.474 76.2919 111.474 77.486 111.474 85.0716C111.474 92.6573 103.819 93.8514 99.9912 93.5002H58.2368L29.0088 123V93.5002C12.307 93.5002 5 95.6066 5 81.9103C5 66.458 5 36.607 5 28.1784C5 19.7499 12.655 18.3452 16.4825 18.6964H78.0702M111.474 76.6431H84.3333C80.8538 76.6429 72.6421 74.746 67.6316 67.1604C67.6316 66.8401 67.6316 66.5088 67.6316 66.1673M111.474 76.6431C116.693 76.6438 117.737 73.4818 117.737 71.3746C117.737 68.2139 116.693 66.1068 109.386 65.0532C113.561 65.0532 119.825 65.0532 119.825 59.7854C119.825 55.5711 116.693 53.464 111.474 53.464C114.953 52.7616 121.912 54.5176 121.912 48.1962C121.912 43.9819 117.041 42.9284 114.605 42.9284C117.737 42.9284 124 41.8748 124 37.6605C124 32.3927 118.433 32.3927 115.649 32.3927C111.126 32.3927 101.453 32.3927 98.9474 32.3927C96.4421 32.3927 97.9035 28.8808 98.9474 27.1249C99.9912 25.0177 102.288 20.1713 103.123 17.6428C104.167 14.4821 103.123 5 97.9035 5C92.6842 5 92.6842 9.21426 88.5088 18.6964C85.1684 26.282 73.1988 35.9046 67.6316 39.7677M67.6316 39.7677C67.6316 45.4858 67.6316 58.4205 67.6316 66.1673M67.6316 39.7677V66.1673M67.6316 39.7677V71.3746C67.6316 74.1841 65.3351 79.8032 56.1491 79.8032C46.9632 79.8032 43.9708 75.5889 43.6228 73.4818C43.6228 61.1902 43.6228 35.9748 43.6228 33.4463C43.6228 30.2856 49.886 29.232 56.1491 29.232C62.4123 29.232 67.6316 31.3391 67.6316 33.4463C67.6316 35.132 67.6316 38.3629 67.6316 39.7677Z" stroke="white" stroke-width="2" stroke-linecap="round" stroke-linejoin="round"/>
<defs>
<filter id="filter0_f_1205_2169" x="0" y="0" width="129" height="128" filterUnits="userSpaceOnUse" color-interpolation-filters="sRGB">
<feFlood flood-opacity="0" result="BackgroundImageFix"/>
<feBlend mode="normal" in="SourceGraphic" in2="BackgroundImageFix" result="shape"/>
<feGaussianBlur stdDeviation="2" result="effect1_foregroundBlur_1205_2169"/>
</filter>
</defs>
</svg>
