<svg width="134" height="123" viewBox="0 0 134 123" fill="none" xmlns="http://www.w3.org/2000/svg">
<g filter="url(#filter0_f_1181_28530)">
<path d="M5.04995 59.1182V43.7577C4.76501 40.9132 5.56285 35.2241 11.0338 35.2241C16.5047 35.2241 32.1195 35.2241 39.243 35.2241C41.5226 35.2241 46.0816 36.5895 46.0816 42.051C46.0816 47.5125 46.0816 55.7047 46.0816 59.1182M46.0817 118V102.639C45.7968 99.795 46.5946 94.1059 52.0655 94.1059C57.5364 94.1059 73.1512 94.1059 80.2748 94.1059C82.5543 94.1059 87.1134 95.4713 87.1134 100.933C87.1134 106.394 87.1134 114.587 87.1134 118M87.9683 59.1182V43.7577C87.6834 40.9132 88.4812 35.2241 93.9521 35.2241C99.423 35.2241 115.038 35.2241 122.161 35.2241C124.441 35.2241 129 36.5895 129 42.051C129 47.5125 129 55.7047 129 59.1182M17.0175 59.1182V48.0245M34.9689 59.1182V48.0245M58.9041 118V106.053M76.0006 118V106.053M98.2262 59.1182V48.0245M117.032 59.1182V48.0245M17.0175 65.0917C17.8723 72.4875 23.5142 89.1564 39.243 96.666M116.178 65.0917C115.323 72.4875 109.681 89.1564 93.952 96.666M41.7576 12.1854C52.8704 3.03651 79.3701 2.18325 91.3875 12.1834M66.5975 65.9458C73.4362 65.9458 76.0006 71.0659 76.0006 75.3327C76.0006 79.5995 73.4362 84.7197 66.5975 84.7197C63.1782 84.7197 57.1944 83.013 57.1944 75.3327C57.1944 69.3592 61.4686 65.9458 66.5975 65.9458ZM25.5658 9.61745C32.4044 9.61745 34.9689 14.7376 34.9689 19.0044C34.9689 23.2712 32.4044 28.3913 25.5658 28.3913C22.1464 28.3913 16.1626 26.6846 16.1626 19.0044C16.1626 13.0309 20.4368 9.61745 25.5658 9.61745ZM107.629 9.61745C114.468 9.61745 117.032 14.7376 117.032 19.0044C117.032 23.2712 114.468 28.3913 107.629 28.3913C104.21 28.3913 98.2262 26.6846 98.2262 19.0044C98.2262 13.0309 102.5 9.61745 107.629 9.61745Z" stroke="#ED1C24" stroke-width="2" stroke-linecap="round" stroke-linejoin="round"/>
</g>
<path d="M5.04995 59.1182V43.7577C4.76501 40.9132 5.56285 35.2241 11.0338 35.2241C16.5047 35.2241 32.1195 35.2241 39.243 35.2241C41.5226 35.2241 46.0816 36.5895 46.0816 42.051C46.0816 47.5125 46.0816 55.7047 46.0816 59.1182M46.0817 118V102.639C45.7968 99.795 46.5946 94.1059 52.0655 94.1059C57.5364 94.1059 73.1512 94.1059 80.2748 94.1059C82.5543 94.1059 87.1134 95.4713 87.1134 100.933C87.1134 106.394 87.1134 114.587 87.1134 118M87.9683 59.1182V43.7577C87.6834 40.9132 88.4812 35.2241 93.9521 35.2241C99.423 35.2241 115.038 35.2241 122.161 35.2241C124.441 35.2241 129 36.5895 129 42.051C129 47.5125 129 55.7047 129 59.1182M17.0175 59.1182V48.0245M34.9689 59.1182V48.0245M58.9041 118V106.053M76.0006 118V106.053M98.2262 59.1182V48.0245M117.032 59.1182V48.0245M17.0175 65.0917C17.8723 72.4875 23.5142 89.1564 39.243 96.666M116.178 65.0917C115.323 72.4875 109.681 89.1564 93.952 96.666M41.7576 12.1854C52.8704 3.03651 79.3701 2.18325 91.3875 12.1834M66.5975 65.9458C73.4362 65.9458 76.0006 71.0659 76.0006 75.3327C76.0006 79.5995 73.4362 84.7197 66.5975 84.7197C63.1782 84.7197 57.1944 83.013 57.1944 75.3327C57.1944 69.3592 61.4686 65.9458 66.5975 65.9458ZM25.5658 9.61745C32.4044 9.61745 34.9689 14.7376 34.9689 19.0044C34.9689 23.2712 32.4044 28.3913 25.5658 28.3913C22.1464 28.3913 16.1626 26.6846 16.1626 19.0044C16.1626 13.0309 20.4368 9.61745 25.5658 9.61745ZM107.629 9.61745C114.468 9.61745 117.032 14.7376 117.032 19.0044C117.032 23.2712 114.468 28.3913 107.629 28.3913C104.21 28.3913 98.2262 26.6846 98.2262 19.0044C98.2262 13.0309 102.5 9.61745 107.629 9.61745Z" stroke="white" stroke-width="2" stroke-linecap="round" stroke-linejoin="round"/>
<defs>
<filter id="filter0_f_1181_28530" x="0" y="0" width="134" height="123" filterUnits="userSpaceOnUse" color-interpolation-filters="sRGB">
<feFlood flood-opacity="0" result="BackgroundImageFix"/>
<feBlend mode="normal" in="SourceGraphic" in2="BackgroundImageFix" result="shape"/>
<feGaussianBlur stdDeviation="2" result="effect1_foregroundBlur_1181_28530"/>
</filter>
</defs>
</svg>
