<svg width="168" height="119" viewBox="0 0 168 119" fill="none" xmlns="http://www.w3.org/2000/svg">
<g filter="url(#filter0_f_1205_4316)">
<path d="M5 45.9908L19.4409 59.6545L27.9355 51.1147M51.7204 5L61.914 16.9557L56.8172 22.0795M118.828 7.56193L109.484 16.9557L112.95 20.3716M163 50.2607L152.806 59.6545L146.741 53.6766M112.95 20.3716C112.078 21.7949 108.465 24.6414 100.989 24.6414C91.6452 24.6414 79.7527 23.7875 75.5054 27.2034C74.7371 27.8213 73.6938 28.7128 72.4932 29.7653M112.95 20.3716L146.741 53.6766M129.021 69.0482C122.509 62.7857 108.295 49.0652 103.538 44.2829C97.5914 38.3051 87.3978 40.013 83.1505 40.867C78.9032 41.721 77.2043 51.9687 64.4624 51.1147C54.2688 50.4315 56.8172 44.5675 59.3656 41.721C62.4334 38.8571 68.3842 33.3678 72.4932 29.7653M129.021 69.0482C131.287 71.0408 134.628 76.0508 129.871 80.1499C125.114 84.249 113.731 74.4567 108.634 69.0482C115.43 75.3107 125.624 81.8578 125.624 90.3976C125.624 97.2826 117.978 99.7913 112.032 92.9595C107.275 87.4941 101.556 82.1425 99.2903 80.1499C109.73 90.3976 113.944 94.6675 114.581 99.7913C115.218 104.915 106.086 108.331 101.839 103.207C98.4409 99.1081 91.9283 91.8209 89.0968 88.6896C93.3441 95.5214 104.387 101.499 102.688 109.185C101.523 114.457 92.4946 117.725 84 105.769M129.021 69.0482L146.741 53.6766M27.9355 51.1147L43.2258 66.4863M27.9355 51.1147L56.8172 22.0795M43.2258 66.4863L38.9785 70.7561C37.5627 72.4641 33.8817 77.588 37.2796 81.0039C40.6774 84.4198 46.2412 82.4271 48.5984 81.0039M43.2258 66.4863L48.3226 62.2164C50.3047 60.5084 55.2882 58.0177 59.3656 61.7182C63.443 65.4188 59.9319 70.424 57.6667 72.4641M55.9677 95.5214C53.7025 96.9447 48.3226 98.9374 44.9247 95.5214C41.5269 92.1055 43.509 86.697 44.9247 84.4198C45.9226 83.4937 47.216 82.2916 48.5984 81.0039M55.9677 95.5214L68.7097 82.7118M55.9677 95.5214C54.8351 96.9447 53.4194 100.645 56.8172 104.061C60.2151 107.477 65.5392 104.346 67.7765 102.353M68.7097 82.7118C70.1254 80.4345 72.1075 75.1968 68.7097 72.4641C64.4624 69.0482 59.3656 70.7561 57.6667 72.4641M68.7097 82.7118C70.1254 82.1425 73.8064 81.8578 77.2043 85.2737C80.6021 88.6896 76.9211 93.17 74.6559 94.9831M57.6667 72.4641C56.676 73.4601 52.3154 77.5414 48.5984 81.0039M67.7765 102.353C68.0643 101.711 69.5701 100.331 69.8929 99.8442C71.5918 98.1362 72.0089 97.7208 72.7143 97.013C73.4247 96.3001 74.361 95.1581 74.6559 94.9831M67.7765 102.353C66.5492 105.092 65.9572 108.98 68.7097 111.747C72.1075 115.163 76.3548 114.309 78.9032 111.747L84 106.058C85.4158 103.781 87.3978 98.9373 84 95.8101C80.415 92.5106 77.1323 93.5136 74.6559 94.9831M56.8172 22.0795C57.3835 23.5028 59.7054 26.5202 64.4624 27.2034C69.2194 27.8866 71.7984 29.196 72.4932 29.7653" stroke="#C70000" stroke-width="2" stroke-linejoin="round"/>
</g>
<path d="M5 45.9908L19.4409 59.6545L27.9355 51.1147M51.7204 5L61.914 16.9557L56.8172 22.0795M118.828 7.56193L109.484 16.9557L112.95 20.3716M163 50.2607L152.806 59.6545L146.741 53.6766M112.95 20.3716C112.078 21.7949 108.465 24.6414 100.989 24.6414C91.6452 24.6414 79.7527 23.7875 75.5054 27.2034C74.7371 27.8213 73.6938 28.7128 72.4932 29.7653M112.95 20.3716L146.741 53.6766M129.021 69.0482C122.509 62.7857 108.295 49.0652 103.538 44.2829C97.5914 38.3051 87.3978 40.013 83.1505 40.867C78.9032 41.721 77.2043 51.9687 64.4624 51.1147C54.2688 50.4315 56.8172 44.5675 59.3656 41.721C62.4334 38.8571 68.3842 33.3678 72.4932 29.7653M129.021 69.0482C131.287 71.0408 134.628 76.0508 129.871 80.1499C125.114 84.249 113.731 74.4567 108.634 69.0482C115.43 75.3107 125.624 81.8578 125.624 90.3976C125.624 97.2826 117.978 99.7913 112.032 92.9595C107.275 87.4941 101.556 82.1425 99.2903 80.1499C109.73 90.3976 113.944 94.6675 114.581 99.7913C115.218 104.915 106.086 108.331 101.839 103.207C98.4409 99.1081 91.9283 91.8209 89.0968 88.6896C93.3441 95.5214 104.387 101.499 102.688 109.185C101.523 114.457 92.4946 117.725 84 105.769M129.021 69.0482L146.741 53.6766M27.9355 51.1147L43.2258 66.4863M27.9355 51.1147L56.8172 22.0795M43.2258 66.4863L38.9785 70.7561C37.5627 72.4641 33.8817 77.588 37.2796 81.0039C40.6774 84.4198 46.2412 82.4271 48.5984 81.0039M43.2258 66.4863L48.3226 62.2164C50.3047 60.5084 55.2882 58.0177 59.3656 61.7182C63.443 65.4188 59.9319 70.424 57.6667 72.4641M55.9677 95.5214C53.7025 96.9447 48.3226 98.9374 44.9247 95.5214C41.5269 92.1055 43.509 86.697 44.9247 84.4198C45.9226 83.4937 47.216 82.2916 48.5984 81.0039M55.9677 95.5214L68.7097 82.7118M55.9677 95.5214C54.8351 96.9447 53.4194 100.645 56.8172 104.061C60.2151 107.477 65.5392 104.346 67.7765 102.353M68.7097 82.7118C70.1254 80.4345 72.1075 75.1968 68.7097 72.4641C64.4624 69.0482 59.3656 70.7561 57.6667 72.4641M68.7097 82.7118C70.1254 82.1425 73.8064 81.8578 77.2043 85.2737C80.6021 88.6896 76.9211 93.17 74.6559 94.9831M57.6667 72.4641C56.676 73.4601 52.3154 77.5414 48.5984 81.0039M67.7765 102.353C68.0643 101.711 69.5701 100.331 69.8929 99.8442C71.5918 98.1362 72.0089 97.7208 72.7143 97.013C73.4247 96.3001 74.361 95.1581 74.6559 94.9831M67.7765 102.353C66.5492 105.092 65.9572 108.98 68.7097 111.747C72.1075 115.163 76.3548 114.309 78.9032 111.747L84 106.058C85.4158 103.781 87.3978 98.9373 84 95.8101C80.415 92.5106 77.1323 93.5136 74.6559 94.9831M56.8172 22.0795C57.3835 23.5028 59.7054 26.5202 64.4624 27.2034C69.2194 27.8866 71.7984 29.196 72.4932 29.7653" stroke="white" stroke-width="2" stroke-linejoin="round"/>
<defs>
<filter id="filter0_f_1205_4316" x="0.3125" y="0.351562" width="167.365" height="118.648" filterUnits="userSpaceOnUse" color-interpolation-filters="sRGB">
<feFlood flood-opacity="0" result="BackgroundImageFix"/>
<feBlend mode="normal" in="SourceGraphic" in2="BackgroundImageFix" result="shape"/>
<feGaussianBlur stdDeviation="2" result="effect1_foregroundBlur_1205_4316"/>
</filter>
</defs>
</svg>
