<svg width="114" height="127" viewBox="0 0 114 127" fill="none" xmlns="http://www.w3.org/2000/svg">
<g filter="url(#filter0_f_1205_2192)">
<path d="M20.5763 122C21.4424 117.925 22.6549 106.633 20.5763 94.0597C18.6807 82.5931 16.0827 80.9627 11.752 73.1045C7.38235 65.1754 0.493137 46.0373 9.15392 29.4478C17.8147 12.8582 30.9693 5 50.8891 5C70.8089 5 89.8626 15.4776 95.0591 33.8134C100.256 52.1493 96.7912 58.2612 100.256 63.5C103.72 68.7388 109.782 73.9776 108.916 81.8358C108.05 89.694 99.3894 85.3284 98.5234 88.8209C97.8305 91.6149 97.4941 97.5522 96.628 103.664C94.7721 116.761 82.7707 117.634 74.2732 117.634C64.7463 117.634 50.8891 118.507 50.8891 97.5522M43.9604 76.597V71.3582C43.9604 68.7388 40.7126 64.3731 38.764 61.7537C33.5675 54.7687 34.8426 45.6249 38.764 41.6716C41.3622 39.0522 44.8265 36.4328 51.7552 36.4328C58.6838 36.4328 63.0141 39.0522 65.6124 42.5448C69.3596 47.5818 68.7072 56.1633 64.7463 61.7537C61.282 66.6433 60.4159 68.7388 60.4159 71.3582V76.597M26.6389 25.9552L36.1657 36.4328M51.7552 13.7313V29.4478M69.0767 36.4328L77.7375 25.9552M75.1392 52.1493H89.8626M28.371 52.1493H14.5138M36.1657 69.6119L25.7728 79.2164M68.2106 68.7388L78.6036 78.3433M42.2283 81.8358H62.1481M45.6926 87.0746H58.6838" stroke="#ED1C24" stroke-width="2" stroke-linecap="round" stroke-linejoin="round"/>
</g>
<path d="M20.5763 122C21.4424 117.925 22.6549 106.633 20.5763 94.0597C18.6807 82.5931 16.0827 80.9627 11.752 73.1045C7.38235 65.1754 0.493137 46.0373 9.15392 29.4478C17.8147 12.8582 30.9693 5 50.8891 5C70.8089 5 89.8626 15.4776 95.0591 33.8134C100.256 52.1493 96.7912 58.2612 100.256 63.5C103.72 68.7388 109.782 73.9776 108.916 81.8358C108.05 89.694 99.3894 85.3284 98.5234 88.8209C97.8305 91.6149 97.4941 97.5522 96.628 103.664C94.7721 116.761 82.7707 117.634 74.2732 117.634C64.7463 117.634 50.8891 118.507 50.8891 97.5522M43.9604 76.597V71.3582C43.9604 68.7388 40.7126 64.3731 38.764 61.7537C33.5675 54.7687 34.8426 45.6249 38.764 41.6716C41.3622 39.0522 44.8265 36.4328 51.7552 36.4328C58.6838 36.4328 63.0141 39.0522 65.6124 42.5448C69.3596 47.5818 68.7072 56.1633 64.7463 61.7537C61.282 66.6433 60.4159 68.7388 60.4159 71.3582V76.597M26.6389 25.9552L36.1657 36.4328M51.7552 13.7313V29.4478M69.0767 36.4328L77.7375 25.9552M75.1392 52.1493H89.8626M28.371 52.1493H14.5138M36.1657 69.6119L25.7728 79.2164M68.2106 68.7388L78.6036 78.3433M42.2283 81.8358H62.1481M45.6926 87.0746H58.6838" stroke="white" stroke-width="2" stroke-linecap="round" stroke-linejoin="round"/>
<defs>
<filter id="filter0_f_1205_2192" x="0" y="0" width="114" height="127" filterUnits="userSpaceOnUse" color-interpolation-filters="sRGB">
<feFlood flood-opacity="0" result="BackgroundImageFix"/>
<feBlend mode="normal" in="SourceGraphic" in2="BackgroundImageFix" result="shape"/>
<feGaussianBlur stdDeviation="2" result="effect1_foregroundBlur_1205_2192"/>
</filter>
</defs>
</svg>
