<svg width="307" height="63" viewBox="0 0 307 63" fill="none" xmlns="http://www.w3.org/2000/svg">
<path d="M196.479 36.6147L196.639 36.1348V35.9749C196.799 32.2949 195.359 28.7747 192.641 26.2147C189.763 23.6547 186.245 22.3748 182.407 22.5348C177.77 22.3748 173.453 24.2949 170.575 27.9749C167.697 31.8149 166.257 36.6149 166.417 41.5749V43.0147C166.257 47.9747 167.697 52.6147 170.575 56.6147C173.453 60.2947 177.93 62.2148 182.407 62.0548C186.085 62.0548 189.603 60.7748 192.321 58.5348C195.04 56.4548 196.639 53.0949 196.479 49.5749L196.319 48.9348H192.161V49.4147C192.321 51.8147 191.202 54.0548 189.283 55.6548C187.364 57.0948 184.966 57.8948 182.567 57.8948C179.209 58.0548 176.171 56.6148 174.252 53.7348C172.334 50.5348 171.374 46.8549 171.534 43.1749V41.7348C171.374 38.0548 172.334 34.3748 174.252 31.3348C176.011 28.6148 179.209 27.0149 182.567 27.1749C185.126 27.1749 187.524 27.9748 189.443 29.7348C191.202 31.4948 192.321 33.8948 192.161 36.4548V36.7749L196.479 36.6147Z" fill="white"/>
<path d="M210.07 13.5762H205.113V20.1361H210.07V13.5762Z" fill="white"/>
<path d="M210.07 23.1758H205.113V61.0957H210.07V23.1758Z" fill="white"/>
<path d="M235.334 56.9361C234.855 57.0961 234.215 57.2561 233.735 57.2561C233.256 57.2561 232.776 57.416 232.296 57.416C231.017 57.416 229.898 56.9362 229.098 55.9762C228.139 54.5362 227.819 52.7762 227.979 51.1762V27.3361H236.134V23.1762H227.979V13.5762H223.022V23.016H216.626V27.1762H223.022V50.8561C222.862 53.7361 223.662 56.616 225.261 59.016C226.86 60.776 229.258 61.7361 231.657 61.7361C232.456 61.7361 233.256 61.576 234.215 61.416C235.015 61.256 235.654 61.0962 236.294 60.7762L236.614 60.616L235.814 56.7762L235.334 56.9361Z" fill="white"/>
<path d="M302.493 43.6545C299.455 41.5745 296.097 40.2946 292.419 39.4946C289.701 39.0146 287.142 38.0545 284.904 36.6145C283.785 35.6545 283.145 34.2146 283.145 32.7746C283.145 31.1746 283.944 29.5745 285.224 28.6145C289.221 26.0545 294.338 26.0546 298.336 28.9346C299.935 30.2146 300.734 31.9746 300.894 33.8946V34.3746H305.371L305.531 33.8946V33.7346C305.691 30.6946 304.252 27.6546 301.853 25.7346C298.975 23.4946 295.297 22.3746 291.62 22.5346C288.102 22.3746 284.584 23.4946 281.866 25.5746C279.467 27.3346 278.028 30.2146 278.028 33.0946C277.868 35.8146 279.147 38.5346 281.386 40.1346C284.424 42.0546 287.782 43.3346 291.3 43.9746C294.018 44.2946 296.577 45.4145 298.815 47.0145C300.094 47.9745 300.734 49.5746 300.734 51.1746C300.734 52.9346 299.775 54.6945 298.336 55.6545C296.417 57.0945 294.018 57.7346 291.62 57.5746C289.221 57.5746 286.823 57.0945 284.744 55.8145C282.825 54.6945 281.706 52.6146 281.706 50.3746V49.8946H277.229L277.069 50.3746V50.5346C276.909 53.7346 278.348 56.6146 280.906 58.5346C287.142 62.8546 295.457 63.0145 302.013 58.8545C304.572 57.0945 306.011 54.0545 306.011 51.0145C306.171 48.1345 304.891 45.4145 302.493 43.6545Z" fill="white"/>
<path d="M270.993 42.535H271.953V36.6149C271.953 35.9749 271.953 35.335 271.793 34.695C271.793 33.895 271.633 33.2549 271.473 32.6149C271.473 32.4549 271.313 32.295 271.313 32.295C271.313 32.135 271.153 31.9749 271.153 31.8149C270.993 31.6549 270.993 31.335 270.993 31.335C270.354 29.415 269.234 27.8151 267.635 26.3751C264.757 23.8151 261.239 22.535 257.402 22.695C252.764 22.535 248.447 24.455 245.569 28.135C242.691 31.975 241.252 36.775 241.411 41.735V43.1751C241.252 48.1351 242.691 52.7751 245.569 56.7751C248.447 60.4551 252.924 62.3749 257.402 62.2149C261.079 62.2149 264.597 60.935 267.315 58.695C269.874 56.615 271.473 53.5751 271.473 50.3751H266.836C266.676 52.4551 265.716 54.5349 263.957 55.8149C262.039 57.2549 259.64 58.055 257.242 58.055C253.884 58.215 250.846 56.775 248.927 53.895C247.008 50.695 246.049 47.015 246.208 43.335V43.0149H270.673V42.535H270.993ZM249.087 30.855C250.846 28.135 254.044 26.535 257.402 26.695C259.96 26.695 262.358 27.495 264.277 29.255C266.036 31.015 267.155 33.4151 266.996 35.9751L267.155 38.055H246.528C246.688 35.655 247.648 33.095 249.087 30.855Z" fill="white"/>
<path d="M88.5459 1.0957L102.777 9.25566L88.5459 17.4156V1.0957Z" fill="#44BBD8"/>
<path d="M107.574 1.0957L121.646 9.25566L107.574 17.4156V1.0957Z" fill="#FFE119"/>
<path d="M126.442 1.0957L140.514 9.25566L126.442 17.4156V1.0957Z" fill="#CE96D6"/>
<path d="M17.7095 51.6561L16.7501 54.8561L15.9506 51.6561L5.39712 23.4961H0.280273L14.6714 61.416H18.509L32.9001 23.4961H27.7833L17.7095 51.6561Z" fill="white"/>
<path d="M44.0927 14.0547H39.1357V20.6146H44.0927V14.0547Z" fill="white"/>
<path d="M44.0927 23.4961H39.1357V61.416H44.0927V23.4961Z" fill="white"/>
<path d="M77.6721 28.1354C76.5527 26.6954 75.1137 25.4152 73.5146 24.6152C71.4359 23.4952 69.0374 22.8552 66.6389 23.0152C62.3216 22.8552 58.324 24.9353 55.9255 28.4553C53.3671 31.9753 52.0879 36.9353 52.0879 42.8553V43.4953C52.0879 49.0953 53.3671 53.7353 55.9255 57.0953C58.4839 60.4553 62.4815 62.3752 66.6389 62.2152C69.0374 62.2152 71.4359 61.7352 73.6745 60.6152C75.2735 59.6552 76.8725 58.3754 77.9918 56.9354L78.4716 61.5754H82.629V0.615234H77.6721C77.6721 0.615234 77.6721 28.1354 77.6721 28.1354ZM77.6721 34.0553V51.4953C76.8725 53.4153 75.4334 55.0154 73.8344 56.1354C71.9156 57.2554 69.677 57.8953 67.4384 57.8953C64.4003 58.0553 61.3621 56.6153 59.6032 54.0553C57.6844 50.8553 56.725 47.3353 56.8849 43.6553V43.0152C56.725 39.0152 57.6844 35.1753 59.6032 31.6553C61.2022 28.9353 64.2404 27.3353 67.4384 27.4953C69.677 27.3353 71.9156 27.9752 73.8344 29.4152C75.5933 30.5352 76.8725 32.1353 77.6721 34.0553Z" fill="white"/>
<path d="M156.503 28.2947C150.267 21.5747 139.874 21.0948 132.998 27.1748C132.678 27.4948 132.358 27.8147 131.879 28.2947C128.681 32.1347 127.081 36.9347 127.241 42.0547V43.1748C127.081 48.1348 128.681 53.0947 131.879 56.9347C134.917 60.4548 139.394 62.5348 144.191 62.3748C148.828 62.5348 153.305 60.6147 156.343 56.9347C159.541 53.0947 161.14 48.1348 160.821 43.1748V42.0547C161.3 36.9347 159.701 32.1347 156.503 28.2947ZM156.183 41.8947V43.0146C156.343 46.6946 155.224 50.5348 152.985 53.5748C151.067 56.2948 147.709 57.8947 144.351 57.7347C140.993 57.8947 137.635 56.2948 135.556 53.5748C133.318 50.5348 132.198 46.8546 132.358 43.0146V41.8947C132.198 38.0547 133.318 34.3748 135.556 31.3348C137.475 28.6148 140.833 26.8546 144.191 27.0146C147.709 26.8546 150.907 28.4548 152.985 31.3348C155.064 34.5347 156.183 38.2147 156.183 41.8947Z" fill="white"/>
<path d="M120.366 42.8554H121.326V36.9354C121.326 36.2954 121.326 35.6553 121.166 35.0153C121.166 34.2153 121.006 33.5754 120.846 32.9354C120.846 32.7754 120.686 32.6153 120.686 32.6153C120.686 32.4553 120.526 32.2954 120.526 32.1354C120.366 31.9754 120.366 31.6554 120.366 31.6554C119.727 29.7354 118.607 28.1354 117.008 26.8554C114.13 24.2954 110.612 23.0155 106.775 23.1755C102.137 23.0155 97.8201 24.9353 94.9419 28.6153C92.0637 32.4553 90.6246 37.2553 90.7845 42.2153V43.6554C90.6246 48.6154 92.0637 53.2554 94.9419 57.2554C97.8201 60.9354 102.297 62.8554 106.775 62.6954C110.452 62.6954 113.97 61.4155 116.688 59.1755C119.247 57.0955 120.846 54.0554 120.846 50.8554H116.209C116.049 52.9354 115.089 55.0154 113.331 56.2954C111.412 57.7354 109.013 58.5354 106.615 58.5354C103.257 58.6954 100.219 57.2555 98.2998 54.3755C96.381 51.1755 95.4216 47.4953 95.5815 43.8153V43.4954H120.046V42.8554H120.366ZM98.6196 31.3354C100.379 28.6154 103.577 27.0155 106.934 27.1755C109.493 27.1755 111.891 27.9754 113.81 29.7354C115.569 31.4954 116.688 33.8954 116.529 36.4554L116.688 38.5354H96.0612C96.2211 35.9754 97.1805 33.5754 98.6196 31.3354Z" fill="white"/>
</svg>
