<svg width="236" height="42" viewBox="0 0 236 42" fill="none" xmlns="http://www.w3.org/2000/svg">
<path d="M18.5424 23.5787L17.1161 27.8655L8.20147 0.40625H0L14.0257 41.5372H20.2065L27.9325 19.0021L18.5424 23.5787ZM26.5062 4.92487L23.4752 14.2518L21.4546 20.3346L26.6251 17.7276L28.4674 12.1663L29.24 9.90695L26.5062 4.92487ZM26.1495 0.40625V0.464182L31.2012 9.67522L34.351 0.40625H26.1495ZM26.5062 4.92487L23.4752 14.2518L21.4546 20.3346L26.6251 17.7276L28.4674 12.1663L29.24 9.90695L26.5062 4.92487Z" fill="white"/>
<path d="M66.6812 7.18345C65.4331 4.86621 63.5908 3.12828 61.273 1.85379C58.9551 0.637241 56.2213 0 53.1904 0C50.1594 0 47.4256 0.637241 45.1077 1.91172C42.7901 3.12828 41.0071 4.92413 39.6995 7.18345C38.3922 9.44276 37.7979 12.1076 37.7979 15.12V26.7642C37.7979 29.7766 38.4516 32.4413 39.6995 34.7008C41.0071 37.0179 42.7901 38.7559 45.1077 40.0304C47.4256 41.3049 50.1594 41.9421 53.1904 41.9421C56.2213 41.9421 58.9551 41.3049 61.273 40.0304C63.5908 38.7559 65.4331 37.0179 66.6812 34.7008C67.9887 32.3834 68.583 29.7766 68.583 26.7642V15.1779C68.583 12.1655 67.9887 9.5007 66.6812 7.18345ZM60.3816 26.9959C60.3816 28.4442 60.0843 29.7187 59.49 30.7613C58.8957 31.8621 58.0638 32.673 56.994 33.3104C55.9243 33.8896 54.6762 34.1793 53.2499 34.1793C51.8235 34.1793 50.5754 33.8896 49.4463 33.3104C48.3764 32.731 47.5445 31.8621 46.9501 30.7613C46.3558 29.6608 46.0587 28.3862 46.0587 26.9959V14.9462C46.0587 13.4979 46.3558 12.2814 46.9501 11.1807C47.5445 10.08 48.3764 9.21104 49.4463 8.63172C50.5161 8.05241 51.764 7.76276 53.2499 7.76276C54.6762 7.76276 55.9243 8.05241 56.994 8.63172C58.0638 9.21104 58.8957 10.08 59.49 11.1807C60.0843 12.2814 60.3816 13.5559 60.3816 14.9462V26.9959Z" fill="white"/>
<path d="M77.0225 0.40625V41.5372H84.9863V0.40625H77.0225ZM80.529 34.0642V41.5372H105.252V34.0642H80.529Z" fill="white"/>
<path d="M110.542 25.1429V41.5951H118.803V17.438L110.542 25.1429ZM110.542 0.40625L118.743 8.11108V0.40625H110.542ZM112.147 4.51935V12.8035V14.5414V21.1455L116.782 16.9166V12.8614V11.1235V8.69038L112.147 4.51935Z" fill="white"/>
<path d="M127.479 0.40625V41.5372H135.443V0.40625H127.479ZM156.066 7.18418C154.758 4.9828 152.857 3.3028 150.42 2.14418C147.924 0.985561 144.952 0.40625 141.386 0.40625H131.402V7.87935H141.505C144.12 7.87935 146.141 8.51659 147.567 9.73314C148.993 10.9497 149.707 12.6876 149.707 14.9469V27.0546C149.707 29.3138 148.993 31.0517 147.567 32.2683C146.141 33.4849 144.12 34.1221 141.505 34.1221H131.402V41.5951H141.327C144.952 41.5951 147.983 40.958 150.479 39.7414C152.975 38.5249 154.818 36.787 156.066 34.5855C157.314 32.3842 157.968 29.7772 157.968 26.8229V15.1787C158.027 12.0504 157.373 9.38556 156.066 7.18418Z" fill="white"/>
<path d="M182.691 0.40625H177.639L161.474 41.5372H170.032L172.409 34.9331L175.083 27.46L180.135 13.4407L185.186 27.46L187.862 34.9331L190.238 41.5372H198.797L182.691 0.40625ZM169.259 27.518V34.991H191.486V27.518H169.259Z" fill="white"/>
<path d="M209.435 7.87935L207.176 5.79384L205.81 4.46142V12.6297V14.3676V20.8559L207.235 19.5234L209.435 17.4959L210.267 16.7428V12.6876V10.9497V8.57454L209.435 7.87935ZM204.086 0.40625L207.235 3.36074L212.049 7.82142V0.40625H204.086ZM207.235 22.0146L204.086 24.9691V41.5951H212.049V17.5538L207.235 22.0146ZM209.435 7.87935L207.176 5.79384L205.81 4.46142V12.6297V14.3676V20.8559L207.235 19.5234L209.435 17.4959L210.267 16.7428V12.6876V10.9497V8.57454L209.435 7.87935ZM209.435 7.87935L207.176 5.79384L205.81 4.46142V12.6297V14.3676V20.8559L207.235 19.5234L209.435 17.4959L210.267 16.7428V12.6876V10.9497V8.57454L209.435 7.87935ZM232.732 6.25729C231.781 4.4035 230.413 2.95521 228.63 1.91246C226.848 0.869699 224.827 0.40625 222.51 0.40625H207.176V3.36074L211.989 7.82142H221.856C222.688 7.82142 223.4 8.05314 224.054 8.40074C224.708 8.74833 225.124 9.38556 225.481 10.0807C225.838 10.7759 226.016 11.6449 226.016 12.6297C226.016 13.6145 225.838 14.4256 225.481 15.1787C225.124 15.9318 224.649 16.4531 224.054 16.8587C223.46 17.2642 222.748 17.438 221.916 17.438H212.049L207.235 21.8987V24.911H222.57C223.757 24.911 224.886 24.7951 225.897 24.5055C226.908 24.2738 227.799 23.8683 228.63 23.4049C230.413 22.3621 231.781 20.9717 232.732 19.06C233.683 17.2063 234.157 15.0628 234.157 12.5718C234.216 10.2545 233.743 8.11108 232.732 6.25729ZM209.435 7.87935L207.176 5.79384L205.81 4.46142V12.6297V14.3676V20.8559L207.235 19.5234L209.435 17.4959L210.267 16.7428V12.6876V10.9497V8.57454L209.435 7.87935ZM209.435 7.87935L207.176 5.79384L205.81 4.46142V12.6297V14.3676V20.8559L207.235 19.5234L209.435 17.4959L210.267 16.7428V12.6876V10.9497V8.57454L209.435 7.87935ZM225.897 24.6214L224.589 22.478L216.091 23.7525L216.805 25.027L226.313 41.5951H235.94L225.897 24.6214Z" fill="white"/>
<path d="M210.267 8.63198V11.0071L210.207 12.7451V16.8002L209.434 17.5533L207.235 19.5809L205.81 20.9133V14.4251H205.869V12.6871L205.81 4.46094L207.235 5.79335L209.434 7.87886L210.267 8.63198Z" fill="#F7931E"/>
<path d="M211.99 7.87995L207.235 3.36133L211.99 7.87995Z" fill="#F7931E"/>
<path d="M210.267 8.63198V11.0071L210.207 12.7451V16.8002L209.434 17.5533L207.235 19.5809L205.81 20.9133V14.4251H205.869V12.6871L205.81 4.46094L207.235 5.79335L209.434 7.87886L210.267 8.63198Z" fill="#1B1451"/>
<path d="M207.235 22.0137L204.086 24.9682L207.235 22.0137Z" fill="#1B1451"/>
<path d="M116.782 8.69057V11.0657V12.8037V16.8588L112.087 21.0878L112.146 14.4837V12.7457V4.51953L116.782 8.69057Z" fill="#1B1451"/>
<path d="M210.267 8.63198V11.0071L210.207 12.7451V16.8002L209.434 17.5533L207.235 19.5809L205.81 20.9133V14.4251H205.869V12.6871L205.81 4.46094L207.235 5.79335L209.434 7.87886L210.267 8.63198Z" fill="#F7931E"/>
<path d="M116.782 8.69057V11.0657V12.8037V16.8588L112.087 21.0878L112.146 14.4837V12.7457V4.51953L116.782 8.69057Z" fill="#F7931E"/>
<path d="M28.4679 12.2231L26.6255 17.7844L21.4551 20.3914L23.4757 14.2507L26.5066 4.92383L29.2404 9.96383L28.4679 12.2231Z" fill="#1B1451"/>
<path d="M29.2404 9.96383L28.4679 12.2231L26.6255 17.7844L21.4551 20.3914L23.4757 14.2507L26.5066 4.92383L29.2404 9.96383Z" fill="#F7931E"/>
</svg>
