<svg width="282" height="51" viewBox="0 0 282 51" fill="none" xmlns="http://www.w3.org/2000/svg">
<path d="M22.1566 28.6302L20.4523 33.8356L9.80006 0.492188H0L16.7595 50.4369H24.145L33.377 23.0729L22.1566 28.6302ZM31.6727 5.97909L28.0508 17.3046L25.6364 24.6909L31.8148 21.5252L34.0161 14.7722L34.9394 12.0288L31.6727 5.97909ZM31.2465 0.492188V0.562534L37.2828 11.7474L41.0465 0.492188H31.2465ZM31.6727 5.97909L28.0508 17.3046L25.6364 24.6909L31.8148 21.5252L34.0161 14.7722L34.9394 12.0288L31.6727 5.97909Z" fill="white"/>
<path d="M79.6782 8.72276C78.1868 5.90897 75.9855 3.79863 73.2158 2.25103C70.4462 0.773793 67.1795 0 63.5579 0C59.936 0 56.6693 0.773793 53.8997 2.32137C51.1303 3.79863 48.9998 5.9793 47.4374 8.72276C45.8752 11.4662 45.165 14.7021 45.165 18.36V32.4993C45.165 36.1573 45.9462 39.393 47.4374 42.1366C48.9998 44.9503 51.1303 47.0607 53.8997 48.6083C56.6693 50.1559 59.936 50.9297 63.5579 50.9297C67.1795 50.9297 70.4462 50.1559 73.2158 48.6083C75.9855 47.0607 78.1868 44.9503 79.6782 42.1366C81.2406 39.3227 81.9507 36.1573 81.9507 32.4993V18.4303C81.9507 14.7724 81.2406 11.5366 79.6782 8.72276ZM72.1507 32.7807C72.1507 34.5393 71.7955 36.087 71.0853 37.353C70.3752 38.6897 69.3811 39.6744 68.1028 40.4483C66.8246 41.1517 65.3332 41.5034 63.6289 41.5034C61.9244 41.5034 60.4331 41.1517 59.084 40.4483C57.8055 39.7447 56.8114 38.6897 56.1013 37.353C55.3911 36.0166 55.0361 34.469 55.0361 32.7807V18.149C55.0361 16.3903 55.3911 14.9131 56.1013 13.5766C56.8114 12.24 57.8055 11.1848 59.084 10.4814C60.3623 9.77793 61.8534 9.4262 63.6289 9.4262C65.3332 9.4262 66.8246 9.77793 68.1028 10.4814C69.3811 11.1848 70.3752 12.24 71.0853 13.5766C71.7955 14.9131 72.1507 16.4607 72.1507 18.149V32.7807Z" fill="white"/>
<path d="M92.0352 0.492188V50.4369H101.551V0.492188H92.0352ZM96.2251 41.3626V50.4369H125.767V41.3626H96.2251Z" fill="white"/>
<path d="M132.088 30.5295V50.5073H141.959V21.1736L132.088 30.5295ZM132.088 0.492188L141.888 9.84806V0.492188H132.088ZM134.005 5.48666V15.546V17.6563V25.6756L139.544 20.5405V15.6163V13.506V10.5515L134.005 5.48666Z" fill="white"/>
<path d="M152.327 0.492188V50.4369H161.843V0.492188H152.327ZM186.485 8.72253C184.923 6.04943 182.651 4.00943 179.739 2.60253C176.756 1.19564 173.205 0.492188 168.945 0.492188H157.014V9.56666H169.087C172.211 9.56666 174.626 10.3405 176.33 11.8177C178.035 13.295 178.887 15.4053 178.887 18.1487V32.8509C178.887 35.5942 178.035 37.7046 176.33 39.1819C174.626 40.6592 172.211 41.4329 169.087 41.4329H157.014V50.5073H168.874C173.205 50.5073 176.827 49.7336 179.81 48.2563C182.793 46.7792 184.994 44.6688 186.485 41.9956C187.977 39.3226 188.758 36.1569 188.758 32.5695V18.4301C188.829 14.6315 188.048 11.3956 186.485 8.72253Z" fill="white"/>
<path d="M218.3 0.492188H212.263L192.947 50.4369H203.173L206.014 42.4176L209.21 33.3432L215.246 16.3198L221.282 33.3432L224.479 42.4176L227.318 50.4369H237.545L218.3 0.492188ZM202.25 33.4136V42.488H228.81V33.4136H202.25Z" fill="white"/>
<path d="M250.257 9.56666L247.557 7.03426L245.925 5.41633V15.335V17.4453V25.3239L247.628 23.7059L250.257 21.2439L251.251 20.3294V15.4053V13.295V10.4108L250.257 9.56666ZM243.865 0.492188L247.628 4.07979L253.38 9.49633V0.492188H243.865ZM247.628 26.7309L243.865 30.3185V50.5073H253.38V21.3142L247.628 26.7309ZM250.257 9.56666L247.557 7.03426L245.925 5.41633V15.335V17.4453V25.3239L247.628 23.7059L250.257 21.2439L251.251 20.3294V15.4053V13.295V10.4108L250.257 9.56666ZM250.257 9.56666L247.557 7.03426L245.925 5.41633V15.335V17.4453V25.3239L247.628 23.7059L250.257 21.2439L251.251 20.3294V15.4053V13.295V10.4108L250.257 9.56666ZM278.095 7.59702C276.958 5.34599 275.324 3.58736 273.193 2.32116C271.064 1.05495 268.649 0.492188 265.881 0.492188H247.557V4.07979L253.309 9.49633H265.099C266.094 9.49633 266.944 9.7777 267.725 10.1998C268.507 10.6219 269.004 11.3956 269.43 12.2398C269.857 13.0839 270.07 14.1391 270.07 15.335C270.07 16.5308 269.857 17.5156 269.43 18.4301C269.004 19.3446 268.436 19.9777 267.725 20.4701C267.015 20.9625 266.165 21.1736 265.17 21.1736H253.38L247.628 26.5902V30.2479H265.952C267.37 30.2479 268.72 30.1073 269.928 29.7556C271.135 29.4742 272.201 28.9819 273.193 28.4192C275.324 27.1529 276.958 25.4646 278.095 23.1432C279.231 20.8922 279.798 18.2894 279.798 15.2646C279.869 12.4508 279.303 9.84806 278.095 7.59702ZM250.257 9.56666L247.557 7.03426L245.925 5.41633V15.335V17.4453V25.3239L247.628 23.7059L250.257 21.2439L251.251 20.3294V15.4053V13.295V10.4108L250.257 9.56666ZM250.257 9.56666L247.557 7.03426L245.925 5.41633V15.335V17.4453V25.3239L247.628 23.7059L250.257 21.2439L251.251 20.3294V15.4053V13.295V10.4108L250.257 9.56666ZM269.928 29.8963L268.365 27.2936L258.211 28.8412L259.063 30.3888L270.425 50.5073H281.929L269.928 29.8963Z" fill="white"/>
<path d="M251.251 10.4808V13.365L251.18 15.4753V20.3995L250.257 21.3139L247.629 23.7759L245.926 25.3939V17.5153H245.997V15.405L245.926 5.41602L247.629 7.03395L250.257 9.56635L251.251 10.4808Z" fill="#F7931E"/>
<path d="M253.309 9.56698L247.628 4.08008L253.309 9.56698Z" fill="#F7931E"/>
<path d="M251.251 10.4808V13.365L251.18 15.4753V20.3995L250.257 21.3139L247.629 23.7759L245.926 25.3939V17.5153H245.997V15.405L245.926 5.41602L247.629 7.03395L250.257 9.56635L251.251 10.4808Z" fill="#1B1451"/>
<path d="M247.628 26.7305L243.865 30.3181L247.628 26.7305Z" fill="#1B1451"/>
<path d="M139.544 10.5512V13.4353V15.5456V20.4698L133.934 25.605L134.005 17.5857V15.4753V5.48633L139.544 10.5512Z" fill="#1B1451"/>
<path d="M251.251 10.4808V13.365L251.18 15.4753V20.3995L250.257 21.3139L247.629 23.7759L245.926 25.3939V17.5153H245.997V15.405L245.926 5.41602L247.629 7.03395L250.257 9.56635L251.251 10.4808Z" fill="#F7931E"/>
<path d="M139.544 10.5512V13.4353V15.5456V20.4698L133.934 25.605L134.005 17.5857V15.4753V5.48633L139.544 10.5512Z" fill="#F7931E"/>
<path d="M34.0164 14.8439L31.8149 21.5969L25.6367 24.7625L28.0512 17.306L31.6728 5.98047L34.9395 12.1005L34.0164 14.8439Z" fill="#1B1451"/>
<path d="M34.9395 12.1005L34.0164 14.8439L31.8149 21.5969L25.6367 24.7625L28.0512 17.306L31.6728 5.98047L34.9395 12.1005Z" fill="#F7931E"/>
</svg>
